M48
;Layer_Color=9474304
;FILE_FORMAT=4:4
METRIC,LZ
;TYPE=PLATED
T1F00S00C0.3000
T2F00S00C0.6500
%
T01
X00205865Y000095
X00244613Y0004667
Y00079327
X00219508Y00120677
X0018549Y00095562
X00365444
X00399463Y00120677
X00426354Y00079634
X00426462Y0003683
X00389942Y000095
X00320142
Y00023596
X00514403Y000205
Y00039
X005665Y0001054
X00604704Y00048049
X006241Y00045263
X0065042Y000475
Y000585
X0066142
Y000475
X0066342Y00024
X0065317Y0002425
X00643066Y00024
X00632881Y00025109
X0065348Y00007112
X00687056Y00042
X0070792Y00054737
X00743336Y00041685
X00749954Y00046873
X00759774Y0004475
X00762192Y0005334
X0078642Y000585
X0078642Y00078125
X00759515Y00120777
X00725497Y00095662
X00726415Y000183
X00749954Y00020261
X00759774Y0000725
X00774013Y00014175
X00794958Y00014732
X0080681Y00014175
X00816471Y00013958
X00817237Y00029238
X00809653Y00029856
X00834766Y00024
Y00046173
X00844291Y00045104
X00841372Y00053043
X00842856Y00008236
X0085634Y0001016
X00905456Y00095562
X00650432Y0007973
X00638625Y00070163
X00604704Y000745
X00579478Y00120677
X0054546Y00095562
X00939474Y00120677
X00964269Y00076775
X0092482Y00006195
X01105828Y00005125
X01147897Y00057946
X0118156Y00105175
X01221031
X01299531Y00095562
X0111949Y00120677
X01085472Y00095562
X01333549Y00120677
X01348285Y0006452
X01360074Y00062182
X01316205Y00024102
X01504835Y000071
X01529685Y00057071
X01541866Y00075441
X01513588Y00120777
X0147957Y00095662
X0165956Y00095762
X01693578Y00120877
X0166748Y0002337
X01614791Y000071
X01722117Y00078232
X01839568Y00095562
X01873386Y00078232
X01879386Y0006223
X01891222
X01903112
X01893774Y0005037
X0191792
X0192892
Y0003937
X0191792
X0192092Y00016243
X01931558
X01908737
X01898893
X01891729Y00010156
X01858355Y00008176
X01877077Y0003223
X01951501Y00028733
X01950889Y00042239
X01957516Y0003937
X01966294Y0004212
X01976291Y0004762
X01984196Y000522
X01977696Y0006
X01964322Y00063166
X01966283Y00021234
X01976117
X01954633Y0000889
X02015045Y0003323
X02018747Y00058333
X02019482Y00095562
X020535Y00120677
X02090361Y0010337
X0208197Y0005377
X02070292Y00052324
X02061402Y00047498
X02053111Y00028358
X02035479Y00024048
X0204198Y00005
X02093631Y00008776
X02090361Y0003662
X0207897Y0002923
X0192092Y0006991
X0191232Y0010337
X01873586Y00120677
X02118053Y00062758
X02136829Y0005377
X02171614Y00054102
X02183819Y00057404
X021748Y0003937
X0216292Y0003877
X0214761Y000041
X02107154Y00042239
X02217319Y00054102
X0219945Y00095662
X02233469Y00120777
X02283595Y001026
X02290411Y0006223
X02335465Y000996
X0241355Y00095662
X02447568Y00120777
X02490157Y00103804
X02465637Y00076868
X02466895Y000246
X02434779Y00009342
X02364211Y0001189
X02385765Y00050116
X0225288Y00011995
X02522015Y00033331
X02616113Y00010716
X02655069Y00020977
X02666017Y00031908
X02675081Y00050986
X02691957Y00048286
X02685526Y00061925
X02666017
X02654545Y00068571
X0261579Y00061236
X02593474Y00095662
X02627492Y00120777
X02668575Y00103804
X02721722Y00050986
X02719722Y00009604
X02774755Y00018083
X02770801Y00033841
X02759371
X02767728Y00061683
X0278527Y00064309
Y00054345
X02810209Y00056474
X02830006Y00054864
X02846524Y00051211
Y00037226
X02840196Y00028544
X02848076Y00018908
X02826988Y00013716
X0281541Y00035963
X02796366Y00009604
X02873214Y00007204
X02882194Y000192
X02892898Y00035963
Y00047083
Y00058083
X02848076Y00067313
X02848701Y00108651
X02887798Y00117923
X02807585Y00120777
X02773567Y00095662
X02899284Y00082262
X02914084
X02921148Y00087886
X02916398Y00115839
X02953402Y00096223
X02957445Y00062323
X0294172Y00049584
X02938493Y00034544
X02914176Y00035963
X02903898
Y00047083
X02914176Y00046964
Y00058083
X02903898
X02911898Y00011345
X0291732Y00007088
X02975179Y00009345
X02989774Y00061683
X030029Y00066659
X03005164Y00079385
X03021982Y00066093
X0302837Y001043
X02987421Y00121338
X03102274Y00074168
X03101499Y00054737
X03099213Y00040975
X03158432Y00037867
X03172624
X03154817Y0000889
X03231177Y00012897
X03267736Y0000889
X03196979Y00076414
X03184279
X03167533Y00120677
X03133515Y00095562
X0331347Y00095662
X03348157Y00076414
X03364293Y000799
X03377412Y00076414
X034005Y00087544
X03387805Y00102848
X03426Y00095662
X03431Y00089412
X03435959Y00098435
X03447262Y00094881
X03456112Y00073362
Y00042406
X03447262
X03435749Y00059077
X03415866Y00069156
X0340625Y00064309
X03390529Y00031429
X03364293Y00047946
X03348252Y0005461
X03335995Y0000889
X03426Y00015146
X03431Y00027418
X03469485Y0000889
X03482766
X0349592Y00054737
X03527598Y00095562
X03561617Y00120677
X03604737Y00105958
X03580082Y00079949
X03579827Y0005461
X03547044Y00009462
X036609Y0000889
X03456Y00130001
X03426Y00125001
X03347488Y00120777
X0370747Y00095662
X03741488Y00120777
X03762182Y00079949
X03761593Y000575
Y00041782
X03776399Y00047189
X03739Y00054604
X0372834Y0000889
X03837454Y0000889
X03847621Y00040761
X03837454Y00050985
X03825393Y0005501
X03788886Y00105958
X03887554Y00095662
X03921572Y00120777
X03936938Y00079502
X03928272Y00048182
X03948889
Y00031429
X0397568Y00030932
X0397018Y00045182
Y00056182
X0398118
Y00045182
X0399292Y00027629
X04004545Y00033158
X0401088Y00041138
X0401408Y00061782
X0402535Y00063432
X04001799Y00063182
X04001463Y00080762
X0396543Y00105031
X04067454Y00095662
X0408316Y00018158
X04024048Y00016566
X03913607Y00010158
X03906473Y00021606
X0409892Y00025158
X04101223Y00013146
X0410992Y00020158
X0411992Y00010158
X0412742Y00011658
X0413292Y00018158
X0413442Y00056182
X04127869Y00056366
X04099522Y00049658
X04088582Y00049582
Y00035658
X0415692Y00035182
X04170934Y00049758
X04198071Y00009054
X0426987Y000095
X04324426Y00035658
X04324494Y00104888
X04281523Y00120777
X04247505Y00095662
X0414642Y00102754
X04101472Y00120777
X04427581Y00095662
X04461599Y00120777
X04452286Y00010717
X04503922Y001031
X03446085Y00133096
X03421
X03416Y00157662
X03411Y00162062
X03431Y00159162
X03451086
X02335465Y00144624
X02287042
X01221031Y00141952
X0118156
T02
X034005Y00142501
X034665
M30
