G04*
G04 #@! TF.GenerationSoftware,Altium Limited,Altium Designer,19.1.8 (144)*
G04*
G04 Layer_Color=255*
%FSLAX44Y44*%
%MOMM*%
G71*
G01*
G75*
%ADD140C,0.9906*%
%ADD141C,2.3749*%
%ADD142C,0.5500*%
%ADD143C,0.6000*%
%ADD144C,1.1500*%
%ADD147C,0.7874*%
%ADD148R,0.7366X2.0000*%
D140*
X979118Y80000D02*
D03*
X989268Y156200D02*
D03*
X968968D02*
D03*
X4147523D02*
D03*
X4167823D02*
D03*
X4157673Y80000D02*
D03*
D141*
X1004518D02*
D03*
X953718D02*
D03*
X1004518Y137150D02*
D03*
X953718D02*
D03*
X4132273D02*
D03*
X4183073D02*
D03*
X4132273Y80000D02*
D03*
X4183073D02*
D03*
D142*
X3970225Y56182D02*
D03*
Y45182D02*
D03*
X3981224D02*
D03*
Y56182D02*
D03*
X661464Y58500D02*
D03*
X650465D02*
D03*
Y47500D02*
D03*
X661464D02*
D03*
X1928965Y50370D02*
D03*
X1917964D02*
D03*
Y39370D02*
D03*
X1928965D02*
D03*
D143*
X4393520Y120753D02*
D03*
X2987479Y120809D02*
D03*
X1513533Y120785D02*
D03*
X4281468Y120753D02*
D03*
X2807530Y120552D02*
D03*
X1333594Y120461D02*
D03*
X4033477Y120732D02*
D03*
X2627537Y120752D02*
D03*
X1051471Y112577D02*
D03*
X3921517Y120755D02*
D03*
X2447613Y120548D02*
D03*
X3741533Y120755D02*
D03*
X2233613Y120549D02*
D03*
X759660Y120815D02*
D03*
X2053544Y120519D02*
D03*
X579423Y120970D02*
D03*
X3347533Y120755D02*
D03*
X1873531Y120528D02*
D03*
X400507Y120880D02*
D03*
X3167578Y120755D02*
D03*
X1693622Y120773D02*
D03*
X219483Y120865D02*
D03*
X871258Y112462D02*
D03*
X3561561Y120755D02*
D03*
D144*
X1146500Y142500D02*
D03*
X1212500D02*
D03*
D147*
X972768Y105400D02*
D03*
X985468D02*
D03*
X972768Y118100D02*
D03*
X985468D02*
D03*
X972768Y130800D02*
D03*
X985468D02*
D03*
Y143500D02*
D03*
X972768D02*
D03*
X985468Y92700D02*
D03*
X972768D02*
D03*
X4151323D02*
D03*
X4164023D02*
D03*
X4151323Y143500D02*
D03*
X4164023D02*
D03*
Y130800D02*
D03*
X4151323D02*
D03*
X4164023Y118100D02*
D03*
X4151323D02*
D03*
X4164023Y105400D02*
D03*
X4151323D02*
D03*
D148*
X948940Y47492D02*
D03*
X961640D02*
D03*
X974340D02*
D03*
X987040D02*
D03*
X999740D02*
D03*
X1012440D02*
D03*
X1025140D02*
D03*
X1037840D02*
D03*
X1050540D02*
D03*
X1063240D02*
D03*
X948940Y17492D02*
D03*
X961640D02*
D03*
X974340D02*
D03*
X987040D02*
D03*
X999740D02*
D03*
X1012440D02*
D03*
X1025140D02*
D03*
X1037840D02*
D03*
X1050540D02*
D03*
X1063240D02*
D03*
X2350471Y124982D02*
D03*
X2363171D02*
D03*
X2375871D02*
D03*
X2350471Y94982D02*
D03*
X2363171D02*
D03*
X2375871D02*
D03*
M02*
