G04*
G04 #@! TF.GenerationSoftware,Altium Limited,Altium Designer,19.1.8 (144)*
G04*
G04 Layer_Color=16711935*
%FSLAX44Y44*%
%MOMM*%
G71*
G01*
G75*
%ADD125C,0.2032*%
%ADD126C,1.1938*%
%ADD127C,2.5781*%
%ADD140C,0.9906*%
%ADD149R,0.8382X2.1016*%
D125*
X8160Y130840D02*
D03*
Y23140D02*
D03*
D126*
X979118Y80000D02*
D03*
X989268Y156200D02*
D03*
X968968D02*
D03*
X4147523D02*
D03*
X4167823D02*
D03*
X4157673Y80000D02*
D03*
D127*
X1004518D02*
D03*
X953718D02*
D03*
X1004518Y137150D02*
D03*
X953718D02*
D03*
X4132273D02*
D03*
X4183073D02*
D03*
X4132273Y80000D02*
D03*
X4183073D02*
D03*
D140*
X972768Y105400D02*
D03*
X985468D02*
D03*
X972768Y118100D02*
D03*
X985468D02*
D03*
X972768Y130800D02*
D03*
X985468D02*
D03*
Y143500D02*
D03*
X972768D02*
D03*
X985468Y92700D02*
D03*
X972768D02*
D03*
X4151323D02*
D03*
X4164023D02*
D03*
X4151323Y143500D02*
D03*
X4164023D02*
D03*
Y130800D02*
D03*
X4151323D02*
D03*
X4164023Y118100D02*
D03*
X4151323D02*
D03*
X4164023Y105400D02*
D03*
X4151323D02*
D03*
D149*
X948940Y47492D02*
D03*
X961640D02*
D03*
X974340D02*
D03*
X987040D02*
D03*
X999740D02*
D03*
X1012440D02*
D03*
X1025140D02*
D03*
X1037840D02*
D03*
X1050540D02*
D03*
X1063240D02*
D03*
X948940Y17492D02*
D03*
X961640D02*
D03*
X974340D02*
D03*
X987040D02*
D03*
X999740D02*
D03*
X1012440D02*
D03*
X1025140D02*
D03*
X1037840D02*
D03*
X1050540D02*
D03*
X1063240D02*
D03*
X2350471Y124982D02*
D03*
X2363171D02*
D03*
X2375871D02*
D03*
X2350471Y94982D02*
D03*
X2363171D02*
D03*
X2375871D02*
D03*
M02*
