G04*
G04 #@! TF.GenerationSoftware,Altium Limited,Altium Designer,19.1.8 (144)*
G04*
G04 Layer_Color=128*
%FSLAX44Y44*%
%MOMM*%
G71*
G01*
G75*
%ADD147C,0.7874*%
%ADD148R,0.7366X2.0000*%
D147*
X972768Y105400D02*
D03*
X985468D02*
D03*
X972768Y118100D02*
D03*
X985468D02*
D03*
X972768Y130800D02*
D03*
X985468D02*
D03*
Y143500D02*
D03*
X972768D02*
D03*
X985468Y92700D02*
D03*
X972768D02*
D03*
X4151323D02*
D03*
X4164023D02*
D03*
X4151323Y143500D02*
D03*
X4164023D02*
D03*
Y130800D02*
D03*
X4151323D02*
D03*
X4164023Y118100D02*
D03*
X4151323D02*
D03*
X4164023Y105400D02*
D03*
X4151323D02*
D03*
D148*
X948940Y47492D02*
D03*
X961640D02*
D03*
X974340D02*
D03*
X987040D02*
D03*
X999740D02*
D03*
X1012440D02*
D03*
X1025140D02*
D03*
X1037840D02*
D03*
X1050540D02*
D03*
X1063240D02*
D03*
X948940Y17492D02*
D03*
X961640D02*
D03*
X974340D02*
D03*
X987040D02*
D03*
X999740D02*
D03*
X1012440D02*
D03*
X1025140D02*
D03*
X1037840D02*
D03*
X1050540D02*
D03*
X1063240D02*
D03*
X2350471Y124982D02*
D03*
X2363171D02*
D03*
X2375871D02*
D03*
X2350471Y94982D02*
D03*
X2363171D02*
D03*
X2375871D02*
D03*
M02*
