G04*
G04 #@! TF.GenerationSoftware,Altium Limited,Altium Designer,19.1.8 (144)*
G04*
G04 Layer_Physical_Order=4*
G04 Layer_Color=16440176*
%FSLAX44Y44*%
%MOMM*%
G71*
G01*
G75*
%ADD19C,0.1500*%
%ADD72C,0.2032*%
%ADD129C,0.1524*%
%ADD135C,0.3048*%
%ADD142C,0.5500*%
%ADD143C,0.6000*%
%ADD145C,0.5000*%
%ADD146C,0.2500*%
G36*
X1272001Y99685D02*
X1270731Y99323D01*
X1270241Y99650D01*
X1269449Y99808D01*
X1269448Y99808D01*
X1260477D01*
X1260092Y101078D01*
X1260846Y101582D01*
X1261680Y102829D01*
X1261972Y104300D01*
X1261680Y105771D01*
X1260846Y107018D01*
X1259599Y107851D01*
X1258128Y108144D01*
X1256657Y107851D01*
X1255410Y107018D01*
X1254577Y105771D01*
X1254284Y104300D01*
X1254577Y102829D01*
X1255410Y101582D01*
X1256165Y101078D01*
X1255779Y99808D01*
X1253411D01*
X1252618Y99650D01*
X1251946Y99201D01*
X1251946Y99201D01*
X1244701Y91956D01*
X1244168Y91850D01*
X1243335Y91293D01*
X1242778Y90460D01*
X1242582Y89477D01*
X1242778Y88493D01*
X1243335Y87660D01*
X1244168Y87103D01*
X1244963Y86598D01*
X1244768Y85615D01*
X1244964Y84632D01*
X1245520Y83798D01*
X1246354Y83241D01*
X1247337Y83046D01*
X1248320Y83241D01*
X1248773Y83543D01*
X1251520D01*
X1254006Y81057D01*
X1253520Y79884D01*
X1253055D01*
X1253055Y79884D01*
X1252262Y79726D01*
X1252208Y79690D01*
X1251334Y79468D01*
X1250561Y80044D01*
X1250445Y80217D01*
X1249612Y80774D01*
X1248628Y80969D01*
X1247645Y80774D01*
X1246812Y80217D01*
X1245445Y80117D01*
X1244612Y80674D01*
X1243628Y80869D01*
X1242645Y80674D01*
X1241812Y80117D01*
X1241255Y79283D01*
X1241059Y78300D01*
X1241255Y77317D01*
X1241812Y76483D01*
X1241911Y75117D01*
X1241355Y74283D01*
X1241212Y73569D01*
X1240439Y73166D01*
X1239917Y73068D01*
X1237189Y75796D01*
X1237183Y75800D01*
X1236402Y76917D01*
X1236598Y77900D01*
X1236402Y78883D01*
X1235845Y79717D01*
X1235012Y80274D01*
X1234479Y80380D01*
X1229081Y85777D01*
X1229707Y86947D01*
X1229791Y86931D01*
X1230774Y87126D01*
X1231608Y87683D01*
X1231777Y87936D01*
X1233259Y88004D01*
X1233281Y87971D01*
X1234115Y87414D01*
X1235098Y87219D01*
X1236081Y87414D01*
X1236915Y87971D01*
X1237472Y88805D01*
X1237667Y89788D01*
X1237472Y90771D01*
X1236915Y91605D01*
X1236376Y91965D01*
X1236248Y93019D01*
X1236324Y93409D01*
X1236609Y93599D01*
X1237166Y94433D01*
X1237362Y95416D01*
X1237166Y96399D01*
X1236609Y97233D01*
X1235776Y97790D01*
X1234792Y97985D01*
X1233809Y97790D01*
X1232976Y97233D01*
X1232683Y96795D01*
X1231413Y97180D01*
Y149097D01*
X1232762Y150446D01*
X1234079Y149968D01*
X1234264Y149041D01*
X1235097Y147794D01*
X1236344Y146961D01*
X1237815Y146668D01*
X1239286Y146961D01*
X1240533Y147794D01*
X1241366Y149041D01*
X1241659Y150512D01*
X1241366Y151983D01*
X1240533Y153230D01*
X1239286Y154063D01*
X1238359Y154248D01*
X1237881Y155565D01*
X1242436Y160121D01*
X1272001D01*
Y99685D01*
D02*
G37*
G36*
X4610930Y1445D02*
X4434035Y1445D01*
X4433988Y1497D01*
X4433933Y1706D01*
X4432810Y3184D01*
X4432623Y3293D01*
X4432508Y3476D01*
X4430990Y4546D01*
X4430779Y4593D01*
X4430614Y4732D01*
X4428844Y5293D01*
X4428629Y5275D01*
X4428429Y5358D01*
X4426572Y5358D01*
X4426372Y5275D01*
X4426157Y5294D01*
X4424387Y4733D01*
X4424221Y4593D01*
X4424011Y4546D01*
X4422493Y3477D01*
X4422377Y3294D01*
X4422191Y3185D01*
X4421067Y1707D01*
X4421012Y1497D01*
X4420964Y1445D01*
X4360121D01*
X4360117Y1444D01*
X4253937D01*
X4253897Y1487D01*
X4253841Y1695D01*
X4252732Y3142D01*
X4252546Y3250D01*
X4252430Y3431D01*
X4250937Y4477D01*
X4250727Y4524D01*
X4250562Y4663D01*
X4248824Y5211D01*
X4248609Y5192D01*
X4248410Y5274D01*
X4246587Y5274D01*
X4246388Y5192D01*
X4246174Y5210D01*
X4244435Y4661D01*
X4244271Y4523D01*
X4244060Y4476D01*
X4242568Y3430D01*
X4242452Y3248D01*
X4242266Y3140D01*
X4241158Y1693D01*
X4241102Y1485D01*
X4241064Y1444D01*
X4179487D01*
X4179102Y2713D01*
X4179817Y3191D01*
X4180650Y4438D01*
X4180942Y5909D01*
X4180650Y7380D01*
X4179817Y8627D01*
X4178570Y9460D01*
X4177099Y9753D01*
X4175628Y9460D01*
X4174380Y8627D01*
X4173547Y7380D01*
X4173255Y5909D01*
X4173547Y4438D01*
X4174380Y3191D01*
X4175096Y2713D01*
X4174710Y1444D01*
X4142560D01*
X4141881Y2713D01*
X4141960Y2831D01*
X4142272Y4400D01*
X4141960Y5969D01*
X4141071Y7298D01*
X4139742Y8187D01*
X4138173Y8499D01*
X4136605Y8187D01*
X4135275Y7298D01*
X4134386Y5969D01*
X4134074Y4400D01*
X4134386Y2831D01*
X4134465Y2713D01*
X4133786Y1444D01*
X4073937D01*
X4073897Y1487D01*
X4073841Y1695D01*
X4072732Y3142D01*
X4072546Y3250D01*
X4072430Y3432D01*
X4070937Y4477D01*
X4070727Y4524D01*
X4070562Y4663D01*
X4068824Y5211D01*
X4068609Y5192D01*
X4068410Y5274D01*
X4066587Y5274D01*
X4066388Y5192D01*
X4066173Y5210D01*
X4064435Y4661D01*
X4064270Y4523D01*
X4064060Y4476D01*
X4062568Y3429D01*
X4062452Y3248D01*
X4062266Y3140D01*
X4061157Y1693D01*
X4061102Y1485D01*
X4061064Y1444D01*
X4015694D01*
X4015164Y2435D01*
X4015156Y2713D01*
X4015432Y4100D01*
X4015139Y5571D01*
X4014306Y6818D01*
X4013059Y7651D01*
X4011588Y7944D01*
X4010117Y7651D01*
X4008870Y6818D01*
X4008037Y5571D01*
X4007744Y4100D01*
X4008020Y2713D01*
X4008012Y2435D01*
X4007482Y1444D01*
X3894044D01*
X3893977Y1518D01*
X3893921Y1726D01*
X3892797Y3197D01*
X3892610Y3305D01*
X3892495Y3487D01*
X3890980Y4551D01*
X3890769Y4598D01*
X3890604Y4736D01*
X3888839Y5294D01*
X3888624Y5275D01*
X3888425Y5358D01*
X3886574Y5358D01*
X3886375Y5275D01*
X3886160Y5294D01*
X3884395Y4736D01*
X3884230Y4597D01*
X3884019Y4550D01*
X3882505Y3487D01*
X3882389Y3305D01*
X3882202Y3196D01*
X3881078Y1726D01*
X3881023Y1517D01*
X3880956Y1444D01*
X3714044D01*
X3713977Y1517D01*
X3713921Y1725D01*
X3712798Y3196D01*
X3712611Y3304D01*
X3712495Y3486D01*
X3710980Y4550D01*
X3710770Y4597D01*
X3710605Y4736D01*
X3708840Y5293D01*
X3708625Y5275D01*
X3708426Y5357D01*
X3706574D01*
X3706375Y5275D01*
X3706160Y5293D01*
X3704395Y4736D01*
X3704230Y4597D01*
X3704020Y4550D01*
X3702505Y3486D01*
X3702389Y3304D01*
X3702202Y3196D01*
X3701079Y1725D01*
X3701023Y1517D01*
X3700956Y1444D01*
X3534044D01*
X3533977Y1517D01*
X3533922Y1725D01*
X3532798Y3196D01*
X3532611Y3304D01*
X3532496Y3486D01*
X3530981Y4550D01*
X3530770Y4597D01*
X3530605Y4736D01*
X3528840Y5294D01*
X3528625Y5275D01*
X3528426Y5358D01*
X3526575Y5358D01*
X3526376Y5275D01*
X3526161Y5294D01*
X3524396Y4736D01*
X3524231Y4598D01*
X3524020Y4551D01*
X3522505Y3487D01*
X3522390Y3305D01*
X3522203Y3197D01*
X3521079Y1726D01*
X3521023Y1518D01*
X3520956Y1444D01*
X3320044D01*
X3319977Y1517D01*
X3319922Y1725D01*
X3318798Y3196D01*
X3318611Y3304D01*
X3318495Y3486D01*
X3316981Y4550D01*
X3316770Y4597D01*
X3316605Y4735D01*
X3314840Y5293D01*
X3314625Y5275D01*
X3314426Y5357D01*
X3312575Y5357D01*
X3312375Y5275D01*
X3312161Y5293D01*
X3310396Y4736D01*
X3310230Y4597D01*
X3310020Y4550D01*
X3308505Y3486D01*
X3308389Y3304D01*
X3308203Y3196D01*
X3307079Y1725D01*
X3307023Y1517D01*
X3306956Y1444D01*
X3140044D01*
X3139977Y1518D01*
X3139921Y1726D01*
X3138797Y3197D01*
X3138611Y3305D01*
X3138495Y3487D01*
X3136980Y4551D01*
X3136769Y4598D01*
X3136604Y4736D01*
X3134839Y5294D01*
X3134624Y5275D01*
X3134425Y5358D01*
X3132574Y5358D01*
X3132375Y5275D01*
X3132160Y5294D01*
X3130395Y4736D01*
X3130229Y4597D01*
X3130019Y4550D01*
X3128504Y3486D01*
X3128389Y3304D01*
X3128202Y3196D01*
X3127078Y1725D01*
X3127023Y1517D01*
X3126956Y1444D01*
X2960046D01*
X2959973Y1523D01*
X2959918Y1732D01*
X2958794Y3200D01*
X2958607Y3308D01*
X2958492Y3489D01*
X2956978Y4551D01*
X2956768Y4598D01*
X2956603Y4737D01*
X2954840Y5294D01*
X2954626Y5275D01*
X2954427Y5357D01*
X2952578Y5358D01*
X2952379Y5276D01*
X2952164Y5294D01*
X2950401Y4739D01*
X2950236Y4600D01*
X2950025Y4553D01*
X2948511Y3492D01*
X2948395Y3311D01*
X2948209Y3203D01*
X2947084Y1735D01*
X2947029Y1527D01*
X2946952Y1444D01*
X2911719D01*
X2911594Y2713D01*
X2912923Y3602D01*
X2913812Y4931D01*
X2914124Y6500D01*
X2913812Y8069D01*
X2912923Y9398D01*
X2912097Y9951D01*
Y25250D01*
X2912743Y25682D01*
X2913576Y26929D01*
X2913869Y28400D01*
X2913576Y29871D01*
X2912743Y31118D01*
X2911496Y31951D01*
X2910025Y32244D01*
X2908554Y31951D01*
X2907307Y31118D01*
X2906474Y29871D01*
X2906181Y28400D01*
X2906474Y26929D01*
X2907307Y25682D01*
X2907953Y25250D01*
Y9951D01*
X2907127Y9398D01*
X2906238Y8069D01*
X2905926Y6500D01*
X2906238Y4931D01*
X2907127Y3602D01*
X2908456Y2713D01*
X2908330Y1444D01*
X2780048D01*
X2779971Y1527D01*
X2779916Y1735D01*
X2778791Y3203D01*
X2778605Y3311D01*
X2778489Y3492D01*
X2776975Y4553D01*
X2776765Y4600D01*
X2776599Y4739D01*
X2774836Y5294D01*
X2774621Y5276D01*
X2774422Y5358D01*
X2772574Y5357D01*
X2772374Y5275D01*
X2772160Y5294D01*
X2770397Y4737D01*
X2770232Y4598D01*
X2770021Y4551D01*
X2768508Y3489D01*
X2768392Y3308D01*
X2768206Y3200D01*
X2767082Y1732D01*
X2767027Y1523D01*
X2766954Y1444D01*
X2600049D01*
X2599970Y1529D01*
X2599915Y1737D01*
X2598790Y3204D01*
X2598603Y3312D01*
X2598487Y3494D01*
X2596973Y4554D01*
X2596763Y4601D01*
X2596598Y4739D01*
X2594835Y5295D01*
X2594620Y5276D01*
X2594421Y5358D01*
X2592572Y5357D01*
X2592373Y5275D01*
X2592159Y5293D01*
X2590396Y4736D01*
X2590231Y4598D01*
X2590021Y4551D01*
X2588507Y3489D01*
X2588392Y3307D01*
X2588206Y3199D01*
X2587082Y1731D01*
X2587026Y1523D01*
X2586954Y1444D01*
X2420048D01*
X2419971Y1527D01*
X2419916Y1735D01*
X2418792Y3202D01*
X2418605Y3310D01*
X2418490Y3492D01*
X2416976Y4553D01*
X2416765Y4599D01*
X2416601Y4738D01*
X2414838Y5294D01*
X2414623Y5275D01*
X2414424Y5358D01*
X2412576D01*
X2412377Y5275D01*
X2412162Y5294D01*
X2410399Y4738D01*
X2410234Y4599D01*
X2410024Y4553D01*
X2408510Y3492D01*
X2408395Y3310D01*
X2408208Y3202D01*
X2407084Y1735D01*
X2407029Y1527D01*
X2406952Y1444D01*
X2378332D01*
X2377802Y2435D01*
X2377794Y2713D01*
X2378070Y4100D01*
X2377777Y5571D01*
X2376944Y6818D01*
X2375697Y7651D01*
X2374226Y7944D01*
X2372755Y7651D01*
X2371508Y6818D01*
X2370675Y5571D01*
X2370382Y4100D01*
X2370658Y2713D01*
X2370650Y2435D01*
X2370120Y1444D01*
X2338374D01*
X2337775Y2564D01*
X2337897Y2745D01*
X2338209Y4314D01*
X2337897Y5882D01*
X2337008Y7212D01*
X2335678Y8100D01*
X2334110Y8412D01*
X2332541Y8100D01*
X2331212Y7212D01*
X2330323Y5882D01*
X2330011Y4314D01*
X2330323Y2745D01*
X2330444Y2564D01*
X2329846Y1444D01*
X2206048D01*
X2205972Y1527D01*
X2205916Y1735D01*
X2204792Y3202D01*
X2204605Y3310D01*
X2204489Y3492D01*
X2202976Y4553D01*
X2202766Y4599D01*
X2202601Y4738D01*
X2200838Y5294D01*
X2200623Y5275D01*
X2200424Y5358D01*
X2198576D01*
X2198377Y5275D01*
X2198162Y5294D01*
X2196399Y4738D01*
X2196234Y4599D01*
X2196024Y4553D01*
X2194510Y3492D01*
X2194395Y3310D01*
X2194208Y3202D01*
X2193084Y1735D01*
X2193029Y1527D01*
X2192952Y1444D01*
X2026073D01*
X2025998Y1527D01*
X2025943Y1737D01*
X2024820Y3221D01*
X2024633Y3331D01*
X2024518Y3514D01*
X2022998Y4589D01*
X2022786Y4637D01*
X2022621Y4776D01*
X2020847Y5340D01*
X2020631Y5322D01*
X2020431Y5405D01*
X2018569D01*
X2018369Y5322D01*
X2018153Y5340D01*
X2016379Y4776D01*
X2016214Y4637D01*
X2016002Y4589D01*
X2014482Y3514D01*
X2014367Y3331D01*
X2014180Y3221D01*
X2013057Y1737D01*
X2013002Y1527D01*
X2012927Y1444D01*
X1846051D01*
X1845966Y1536D01*
X1845911Y1744D01*
X1844786Y3207D01*
X1844600Y3315D01*
X1844484Y3496D01*
X1842972Y4554D01*
X1842762Y4601D01*
X1842597Y4739D01*
X1840837Y5294D01*
X1840623Y5275D01*
X1840424Y5358D01*
X1838578Y5358D01*
X1838380Y5276D01*
X1838165Y5294D01*
X1836405Y4740D01*
X1836240Y4602D01*
X1836030Y4555D01*
X1834517Y3498D01*
X1834402Y3316D01*
X1834215Y3209D01*
X1833091Y1745D01*
X1833035Y1538D01*
X1832948Y1444D01*
X1666051D01*
X1665966Y1537D01*
X1665910Y1744D01*
X1664786Y3208D01*
X1664599Y3315D01*
X1664484Y3497D01*
X1662972Y4555D01*
X1662762Y4601D01*
X1662597Y4739D01*
X1660837Y5294D01*
X1660622Y5275D01*
X1660424Y5358D01*
X1658578Y5358D01*
X1658379Y5276D01*
X1658165Y5294D01*
X1656405Y4740D01*
X1656240Y4602D01*
X1656030Y4555D01*
X1654518Y3498D01*
X1654402Y3316D01*
X1654215Y3209D01*
X1653091Y1746D01*
X1653035Y1538D01*
X1652948Y1444D01*
X1486050D01*
X1485968Y1532D01*
X1485913Y1740D01*
X1484789Y3205D01*
X1484603Y3312D01*
X1484487Y3494D01*
X1482975Y4553D01*
X1482765Y4600D01*
X1482600Y4738D01*
X1480840Y5294D01*
X1480625Y5275D01*
X1480426Y5357D01*
X1478580Y5358D01*
X1478381Y5276D01*
X1478167Y5295D01*
X1476406Y4741D01*
X1476241Y4602D01*
X1476031Y4556D01*
X1474518Y3498D01*
X1474402Y3317D01*
X1474216Y3209D01*
X1473090Y1745D01*
X1473035Y1538D01*
X1472948Y1444D01*
X1324764D01*
X1324037Y2713D01*
X1324260Y3834D01*
X1323967Y5305D01*
X1323134Y6552D01*
X1321887Y7385D01*
X1320416Y7678D01*
X1318945Y7385D01*
X1317698Y6552D01*
X1316864Y5305D01*
X1316572Y3834D01*
X1316795Y2713D01*
X1316067Y1444D01*
X1306056D01*
X1305960Y1547D01*
X1305904Y1755D01*
X1304778Y3215D01*
X1304592Y3322D01*
X1304476Y3503D01*
X1302964Y4558D01*
X1302755Y4604D01*
X1302590Y4742D01*
X1300831Y5295D01*
X1300617Y5276D01*
X1300418Y5358D01*
X1298575Y5357D01*
X1298376Y5275D01*
X1298162Y5294D01*
X1296404Y4739D01*
X1296239Y4601D01*
X1296029Y4555D01*
X1294561Y3528D01*
X1293865Y3682D01*
X1293673Y3736D01*
X1293521Y3824D01*
X1293288Y4029D01*
X1293034Y5305D01*
X1292201Y6552D01*
X1290954Y7385D01*
X1289483Y7678D01*
X1288012Y7385D01*
X1286765Y6552D01*
X1285932Y5305D01*
X1285639Y3834D01*
X1285862Y2713D01*
X1285135Y1444D01*
X1092040D01*
X1091955Y1537D01*
X1091899Y1745D01*
X1090775Y3208D01*
X1090588Y3316D01*
X1090472Y3497D01*
X1088960Y4555D01*
X1088750Y4601D01*
X1088585Y4740D01*
X1086825Y5294D01*
X1086611Y5275D01*
X1086412Y5358D01*
X1084566D01*
X1084367Y5275D01*
X1084153Y5294D01*
X1082393Y4740D01*
X1082228Y4601D01*
X1082018Y4555D01*
X1080506Y3497D01*
X1080390Y3316D01*
X1080203Y3208D01*
X1079079Y1745D01*
X1079023Y1537D01*
X1078937Y1444D01*
X1049914D01*
X1049494Y2690D01*
X1050327Y3937D01*
X1050620Y5408D01*
X1050327Y6879D01*
X1049494Y8126D01*
X1048247Y8959D01*
X1046776Y9252D01*
X1045305Y8959D01*
X1044058Y8126D01*
X1043225Y6879D01*
X1042932Y5408D01*
X1043225Y3937D01*
X1044058Y2690D01*
X1043637Y1444D01*
X1040978D01*
X1040558Y2690D01*
X1041391Y3937D01*
X1041684Y5408D01*
X1041391Y6879D01*
X1040558Y8126D01*
X1039311Y8959D01*
X1037840Y9252D01*
X1036369Y8959D01*
X1035122Y8126D01*
X1034289Y6879D01*
X1033996Y5408D01*
X1034289Y3937D01*
X1035122Y2690D01*
X1034701Y1444D01*
X1028279D01*
X1027858Y2690D01*
X1028691Y3937D01*
X1028984Y5408D01*
X1028691Y6879D01*
X1027858Y8126D01*
X1026611Y8959D01*
X1025140Y9252D01*
X1023669Y8959D01*
X1022422Y8126D01*
X1021589Y6879D01*
X1021296Y5408D01*
X1021589Y3937D01*
X1022422Y2690D01*
X1022001Y1444D01*
X1015579D01*
X1015158Y2690D01*
X1015991Y3937D01*
X1016284Y5408D01*
X1015991Y6879D01*
X1015158Y8126D01*
X1013911Y8959D01*
X1012440Y9252D01*
X1010969Y8959D01*
X1009722Y8126D01*
X1008889Y6879D01*
X1008596Y5408D01*
X1008889Y3937D01*
X1009722Y2690D01*
X1009301Y1444D01*
X941122D01*
X940443Y2713D01*
X940599Y2947D01*
X940911Y4515D01*
X940599Y6084D01*
X939711Y7413D01*
X938381Y8302D01*
X936812Y8614D01*
X935244Y8302D01*
X933914Y7413D01*
X933026Y6084D01*
X932714Y4515D01*
X933026Y2947D01*
X933181Y2713D01*
X932503Y1444D01*
X912045D01*
X911949Y1547D01*
X911893Y1755D01*
X910768Y3215D01*
X910581Y3322D01*
X910465Y3503D01*
X908953Y4558D01*
X908744Y4604D01*
X908579Y4742D01*
X906820Y5295D01*
X906606Y5276D01*
X906407Y5358D01*
X904563Y5357D01*
X904365Y5275D01*
X904151Y5294D01*
X902392Y4739D01*
X902228Y4601D01*
X902018Y4555D01*
X900507Y3498D01*
X900391Y3317D01*
X900205Y3210D01*
X899081Y1748D01*
X899025Y1541D01*
X898936Y1444D01*
X732047D01*
X731945Y1554D01*
X731889Y1761D01*
X730762Y3220D01*
X730576Y3327D01*
X730460Y3508D01*
X728948Y4561D01*
X728738Y4607D01*
X728574Y4745D01*
X726815Y5296D01*
X726601Y5277D01*
X726403Y5359D01*
X724560Y5357D01*
X724361Y5274D01*
X724147Y5293D01*
X722390Y4738D01*
X722225Y4600D01*
X722016Y4554D01*
X720506Y3497D01*
X720390Y3316D01*
X720204Y3209D01*
X719081Y1748D01*
X719025Y1540D01*
X718936Y1444D01*
X552318D01*
X552207Y1568D01*
X552153Y1778D01*
X550990Y3327D01*
X550803Y3438D01*
X550687Y3622D01*
X549109Y4744D01*
X548897Y4793D01*
X548731Y4933D01*
X546886Y5524D01*
X546670Y5506D01*
X546469Y5589D01*
X544532Y5592D01*
X544331Y5510D01*
X544115Y5528D01*
X542268Y4943D01*
X542102Y4803D01*
X541890Y4755D01*
X540308Y3638D01*
X540192Y3454D01*
X540005Y3344D01*
X538837Y1799D01*
X538782Y1589D01*
X538651Y1444D01*
X372046D01*
X371947Y1550D01*
X371891Y1757D01*
X370767Y3216D01*
X370580Y3323D01*
X370465Y3504D01*
X368954Y4558D01*
X368745Y4604D01*
X368580Y4742D01*
X366823Y5294D01*
X366609Y5275D01*
X366411Y5358D01*
X364569Y5358D01*
X364370Y5276D01*
X364157Y5295D01*
X362399Y4742D01*
X362235Y4605D01*
X362025Y4559D01*
X360514Y3505D01*
X360399Y3324D01*
X360213Y3217D01*
X359087Y1759D01*
X359031Y1551D01*
X358932Y1444D01*
X192043D01*
X191947Y1548D01*
X191891Y1755D01*
X190766Y3214D01*
X190579Y3320D01*
X190464Y3501D01*
X188953Y4555D01*
X188744Y4601D01*
X188579Y4739D01*
X187423Y5102D01*
X187401Y5112D01*
X187389Y5113D01*
X186822Y5291D01*
X186608Y5272D01*
X186410Y5355D01*
X185555D01*
X185490Y5363D01*
X185425Y5355D01*
X184568D01*
X184370Y5272D01*
X184156Y5291D01*
X183587Y5113D01*
X183579Y5112D01*
X183564Y5105D01*
X182399Y4739D01*
X182234Y4601D01*
X182025Y4555D01*
X180514Y3501D01*
X180399Y3320D01*
X180212Y3214D01*
X179087Y1755D01*
X179031Y1548D01*
X178935Y1444D01*
X96745D01*
X96360Y2713D01*
X96462Y2782D01*
X97295Y4029D01*
X97588Y5500D01*
X97295Y6971D01*
X96462Y8218D01*
X95215Y9051D01*
X93744Y9344D01*
X92273Y9051D01*
X91026Y8218D01*
X90193Y6971D01*
X89900Y5500D01*
X90193Y4029D01*
X91026Y2782D01*
X91129Y2713D01*
X90743Y1444D01*
X-26557D01*
Y166545D01*
X154484Y166545D01*
Y129286D01*
X153214Y128608D01*
X152609Y129012D01*
X151138Y129305D01*
X149667Y129012D01*
X148420Y128179D01*
X147586Y126932D01*
X147294Y125461D01*
X147586Y123990D01*
X148420Y122743D01*
X149667Y121910D01*
X151138Y121617D01*
X152609Y121910D01*
X153214Y122315D01*
X154484Y121636D01*
Y68310D01*
X238879D01*
X239264Y67040D01*
X238782Y66718D01*
X237949Y65471D01*
X237656Y64000D01*
X237949Y62529D01*
X238782Y61282D01*
X240029Y60449D01*
X241500Y60156D01*
X242971Y60449D01*
X244218Y61282D01*
X245051Y62529D01*
X245344Y64000D01*
X245051Y65471D01*
X244218Y66718D01*
X243736Y67040D01*
X244121Y68310D01*
X286837D01*
X286995Y67517D01*
X287828Y66270D01*
X289075Y65436D01*
X290546Y65144D01*
X292017Y65436D01*
X293264Y66270D01*
X294097Y67517D01*
X294255Y68310D01*
X947592D01*
X950287Y67194D01*
X953718Y66742D01*
X957149Y67194D01*
X959844Y68310D01*
X998392D01*
X1001087Y67194D01*
X1004518Y66742D01*
X1007949Y67194D01*
X1010644Y68310D01*
X1117647D01*
X1117647Y166547D01*
X1192075Y166548D01*
X1192460Y165278D01*
X1191910Y164910D01*
X1191077Y163663D01*
X1190785Y162192D01*
X1191077Y160721D01*
X1191910Y159474D01*
X1193157Y158641D01*
X1194628Y158348D01*
X1196099Y158641D01*
X1197346Y159474D01*
X1198180Y160721D01*
X1198472Y162192D01*
X1198180Y163663D01*
X1197346Y164910D01*
X1196797Y165278D01*
X1197182Y166548D01*
X1237067Y166548D01*
X1237553Y165374D01*
X1224615Y152436D01*
X1224166Y151764D01*
X1224008Y150971D01*
X1224008Y150971D01*
Y104137D01*
X1222738Y103458D01*
X1222299Y103751D01*
X1220828Y104044D01*
X1219357Y103751D01*
X1218110Y102918D01*
X1217277Y101671D01*
X1216984Y100200D01*
X1215877Y99260D01*
X1215828Y99269D01*
X1214845Y99074D01*
X1214012Y98517D01*
X1213455Y97683D01*
X1213259Y96700D01*
X1213455Y95717D01*
X1214012Y94883D01*
X1214845Y94326D01*
X1215828Y94130D01*
X1216812Y94326D01*
X1217645Y94883D01*
X1218202Y95717D01*
X1218233Y95872D01*
X1218862Y96306D01*
X1219614Y96597D01*
X1220828Y96356D01*
X1222299Y96649D01*
X1222738Y96942D01*
X1224008Y96263D01*
Y94484D01*
X1223783Y94304D01*
X1222738Y93922D01*
X1222212Y94274D01*
X1221228Y94469D01*
X1220245Y94274D01*
X1219411Y93717D01*
X1218855Y92883D01*
X1218659Y91900D01*
X1217597Y90730D01*
X1214729D01*
X1212908Y92550D01*
X1212802Y93083D01*
X1212245Y93917D01*
X1211412Y94474D01*
X1210428Y94669D01*
X1209445Y94474D01*
X1208668Y93954D01*
X1208345Y94020D01*
X1207398Y94386D01*
Y95667D01*
X1207700Y96119D01*
X1207895Y97102D01*
X1207700Y98085D01*
X1207143Y98919D01*
X1206309Y99476D01*
X1205326Y99671D01*
X1204343Y99476D01*
X1203509Y98919D01*
X1202952Y98085D01*
X1202757Y97102D01*
X1202952Y96119D01*
X1203254Y95667D01*
Y91769D01*
X1203254Y91769D01*
X1203412Y90976D01*
X1203861Y90304D01*
X1207530Y86636D01*
Y82412D01*
X1207530Y82412D01*
X1207615Y81984D01*
X1207534Y80673D01*
X1206701Y80116D01*
X1206144Y79283D01*
X1205948Y78299D01*
X1206144Y77316D01*
X1206701Y76483D01*
X1207534Y75926D01*
X1208518Y75730D01*
X1208694Y75765D01*
X1209600Y75775D01*
X1210116Y74986D01*
X1210565Y74314D01*
X1212147Y72732D01*
X1212169Y72619D01*
X1212618Y71947D01*
X1212625Y71940D01*
X1212630Y71571D01*
X1212330Y70439D01*
X1211812Y70093D01*
X1210395Y70179D01*
X1209561Y70736D01*
X1208578Y70931D01*
X1207595Y70736D01*
X1206761Y70179D01*
X1206204Y69345D01*
X1206009Y68362D01*
X1206204Y67379D01*
X1206761Y66545D01*
X1207595Y65988D01*
X1208578Y65793D01*
X1209561Y65988D01*
X1210395Y66545D01*
X1211812Y66459D01*
X1212645Y65902D01*
X1213628Y65706D01*
X1214612Y65902D01*
X1215115Y66238D01*
X1215893Y66363D01*
X1216781Y66172D01*
X1220579Y62374D01*
X1221252Y61925D01*
X1222044Y61767D01*
X1222045Y61767D01*
X1223369D01*
X1224161Y60796D01*
X1223709Y59703D01*
X1212954D01*
X1212161Y59546D01*
X1211489Y59097D01*
X1211489Y59097D01*
X1209300Y56908D01*
X1201394D01*
X1201269Y58178D01*
X1201512Y58226D01*
X1202345Y58783D01*
X1202902Y59617D01*
X1203098Y60600D01*
X1202902Y61583D01*
X1203521Y62783D01*
X1204078Y63617D01*
X1204274Y64600D01*
X1204078Y65583D01*
X1203521Y66417D01*
X1203377Y66513D01*
X1203015Y67846D01*
X1203111Y68102D01*
X1203443Y68598D01*
X1203600Y69391D01*
Y72465D01*
X1203902Y72917D01*
X1204098Y73900D01*
X1203902Y74883D01*
X1203345Y75717D01*
X1202512Y76274D01*
X1201528Y76469D01*
X1200545Y76274D01*
X1199712Y75717D01*
X1198845Y75317D01*
X1198012Y75874D01*
X1197028Y76069D01*
X1196045Y75874D01*
X1195212Y75317D01*
X1194655Y74483D01*
X1194459Y73500D01*
X1194655Y72517D01*
X1195212Y71683D01*
X1196045Y71126D01*
X1197028Y70931D01*
X1197256Y70976D01*
X1198581Y70162D01*
X1198644Y70055D01*
X1198724Y69516D01*
X1197337Y68129D01*
X1196445Y68217D01*
X1195612Y68774D01*
X1194628Y68969D01*
X1193645Y68774D01*
X1192812Y68217D01*
X1192255Y67383D01*
X1192059Y66400D01*
X1192255Y65417D01*
X1192812Y64583D01*
X1193645Y64026D01*
X1194045Y63947D01*
X1194456Y63332D01*
X1194456Y63332D01*
Y57037D01*
X1194456Y57037D01*
X1194613Y56244D01*
X1195062Y55572D01*
X1195577Y55057D01*
X1195091Y53884D01*
X1193786D01*
X1189564Y58106D01*
Y66457D01*
X1189866Y66909D01*
X1190062Y67893D01*
X1189866Y68876D01*
X1189309Y69710D01*
X1188476Y70266D01*
X1187492Y70462D01*
X1186509Y70266D01*
X1185676Y69710D01*
X1185119Y68876D01*
X1184923Y67893D01*
X1185119Y66909D01*
X1185421Y66457D01*
Y57248D01*
X1185421Y57248D01*
X1185578Y56455D01*
X1186027Y55783D01*
X1191463Y50347D01*
X1192135Y49898D01*
X1192928Y49740D01*
X1192928Y49740D01*
X1194067D01*
X1194755Y48483D01*
X1194559Y47500D01*
X1194755Y46517D01*
X1195312Y45683D01*
X1196145Y45126D01*
X1197128Y44931D01*
X1198112Y45126D01*
X1198945Y45683D01*
X1199502Y46517D01*
X1199698Y47500D01*
X1199502Y48483D01*
X1200190Y49740D01*
X1205224D01*
X1206168Y48470D01*
X1206134Y48300D01*
X1206330Y47317D01*
X1206887Y46483D01*
X1207721Y45926D01*
X1208254Y45820D01*
X1208544Y45530D01*
X1208544Y45530D01*
X1209216Y45081D01*
X1210009Y44923D01*
X1210204D01*
X1211109Y43653D01*
X1211059Y43400D01*
X1211255Y42417D01*
X1211812Y41583D01*
X1212645Y41026D01*
X1213628Y40831D01*
X1214612Y41026D01*
X1215445Y41583D01*
X1216002Y42417D01*
X1216198Y43400D01*
X1217180Y43899D01*
X1218158Y43483D01*
X1218353Y42500D01*
X1218910Y41666D01*
X1219744Y41109D01*
X1220727Y40914D01*
X1221710Y41109D01*
X1222544Y41666D01*
X1223101Y42500D01*
X1223296Y43483D01*
X1223263Y43653D01*
X1224207Y44923D01*
X1229130D01*
X1229515Y43653D01*
X1229012Y43317D01*
X1228455Y42483D01*
X1228283Y41620D01*
X1227005Y40343D01*
X1226556Y39671D01*
X1226398Y38878D01*
X1226398Y38877D01*
Y36051D01*
X1226303Y35965D01*
X1225128Y35488D01*
X1224662Y35799D01*
X1223679Y35995D01*
X1222696Y35799D01*
X1221862Y35242D01*
X1221305Y34409D01*
X1221110Y33425D01*
X1221305Y32442D01*
X1221862Y31609D01*
X1222696Y31052D01*
X1223679Y30856D01*
X1224662Y31052D01*
X1225128Y31363D01*
X1226303Y30885D01*
X1226398Y30800D01*
Y26489D01*
X1226398Y26489D01*
X1226556Y25696D01*
X1227005Y25024D01*
X1229775Y22254D01*
X1229775Y22254D01*
X1230447Y21805D01*
X1231240Y21647D01*
X1231240Y21647D01*
X1268657D01*
X1269601Y20377D01*
X1269567Y20205D01*
X1268586Y19263D01*
X1267603Y19067D01*
X1266769Y18510D01*
X1266212Y17677D01*
X1264973Y17296D01*
X1263990Y17491D01*
X1263007Y17296D01*
X1262173Y16739D01*
X1261211Y17217D01*
X1260377Y17774D01*
X1259394Y17969D01*
X1258411Y17774D01*
X1257577Y17217D01*
X1257020Y16383D01*
X1256825Y15400D01*
X1256954Y14752D01*
X1256399Y13773D01*
X1256117Y13482D01*
X1249265D01*
X1246896Y15850D01*
X1246790Y16383D01*
X1246233Y17217D01*
X1245399Y17774D01*
X1244416Y17969D01*
X1243433Y17774D01*
X1242599Y17217D01*
X1242042Y16383D01*
X1241847Y15400D01*
X1242042Y14417D01*
X1242599Y13583D01*
X1243433Y13026D01*
X1243966Y12920D01*
X1246941Y9945D01*
X1246941Y9945D01*
X1247614Y9496D01*
X1248406Y9338D01*
X1268959D01*
X1268959Y9338D01*
X1269752Y9496D01*
X1270424Y9945D01*
X1271076Y10596D01*
X1271609Y10702D01*
X1272442Y11259D01*
X1272999Y12093D01*
X1273195Y13076D01*
X1272999Y14059D01*
X1272442Y14893D01*
X1271609Y15450D01*
X1271155Y16693D01*
X1272136Y17636D01*
X1273119Y17832D01*
X1273953Y18389D01*
X1274252Y18836D01*
X1275196Y19733D01*
X1276179Y19537D01*
X1277162Y19733D01*
X1277996Y20290D01*
X1278142Y20509D01*
X1279679Y20768D01*
X1283574Y16873D01*
X1283574Y16873D01*
X1284246Y16424D01*
X1285039Y16266D01*
X1285039Y16266D01*
X1380800D01*
X1380800Y16266D01*
X1381593Y16424D01*
X1382265Y16873D01*
X1382521Y17128D01*
X1393078D01*
X1393510Y16482D01*
X1394757Y15649D01*
X1396228Y15356D01*
X1397699Y15649D01*
X1398946Y16482D01*
X1399779Y17729D01*
X1400072Y19200D01*
X1399779Y20671D01*
X1398946Y21918D01*
X1397699Y22751D01*
X1396228Y23044D01*
X1394757Y22751D01*
X1393510Y21918D01*
X1393078Y21272D01*
X1383552D01*
X1382561Y22542D01*
X1382672Y23100D01*
X1382379Y24571D01*
X1381546Y25818D01*
X1380299Y26651D01*
X1378828Y26944D01*
X1377357Y26651D01*
X1376110Y25818D01*
X1375678Y25172D01*
X1371764D01*
X1360658Y36278D01*
X1360664Y36447D01*
X1361630Y37471D01*
X1361674Y37465D01*
X1362625Y36829D01*
X1364096Y36537D01*
X1365567Y36829D01*
X1366814Y37663D01*
X1367647Y38910D01*
X1367940Y40381D01*
X1367647Y41852D01*
X1366814Y43099D01*
X1366168Y43531D01*
Y60933D01*
X1366168Y60933D01*
X1366010Y61726D01*
X1365561Y62398D01*
X1362966Y64993D01*
X1363452Y66166D01*
X1379834D01*
X1380559Y64989D01*
X1380547Y64896D01*
X1379382Y64118D01*
X1378549Y62871D01*
X1378256Y61400D01*
X1378549Y59929D01*
X1379382Y58682D01*
X1380629Y57849D01*
X1382100Y57556D01*
X1383571Y57849D01*
X1384818Y58682D01*
X1385651Y59929D01*
X1385944Y61400D01*
X1385651Y62871D01*
X1384818Y64118D01*
X1383654Y64896D01*
X1383641Y64989D01*
X1384366Y66166D01*
X1436308D01*
X1438827Y63647D01*
X1438828Y63647D01*
X1439500Y63198D01*
X1440293Y63040D01*
X1440293Y63040D01*
X1585289D01*
X1586429Y62262D01*
X1586721Y60791D01*
X1587555Y59544D01*
X1588802Y58711D01*
X1590273Y58418D01*
X1591744Y58711D01*
X1592991Y59544D01*
X1593824Y60791D01*
X1594117Y62262D01*
X1593824Y63733D01*
X1593047Y64896D01*
X1593144Y65336D01*
X1593502Y66166D01*
X1892218Y66166D01*
X1893009Y64982D01*
X1894256Y64149D01*
X1895727Y63856D01*
X1897198Y64149D01*
X1898445Y64982D01*
X1899236Y66166D01*
X1901807D01*
X1902598Y64982D01*
X1903845Y64149D01*
X1905316Y63856D01*
X1906787Y64149D01*
X1908034Y64982D01*
X1908826Y66166D01*
X1918381D01*
X1919058Y65713D01*
X1920627Y65401D01*
X1922195Y65713D01*
X1922873Y66166D01*
X1952035D01*
X1952435Y65899D01*
X1953906Y65606D01*
X1955377Y65899D01*
X1955777Y66166D01*
X1959587D01*
X1959965Y65913D01*
X1961534Y65601D01*
X1963102Y65913D01*
X1963481Y66166D01*
X1969880D01*
X1970258Y65913D01*
X1971827Y65601D01*
X1973395Y65913D01*
X1973774Y66166D01*
X2058194D01*
X2058955Y65028D01*
X2060202Y64195D01*
X2061673Y63902D01*
X2063144Y64195D01*
X2064391Y65028D01*
X2065151Y66166D01*
X2067380D01*
X2067758Y65913D01*
X2069327Y65601D01*
X2070895Y65913D01*
X2071274Y66166D01*
X2084858D01*
X2085536Y64896D01*
X2085375Y64655D01*
X2085083Y63184D01*
X2085375Y61713D01*
X2086209Y60466D01*
X2087456Y59633D01*
X2088927Y59340D01*
X2090398Y59633D01*
X2091645Y60466D01*
X2092478Y61713D01*
X2092771Y63184D01*
X2092478Y64655D01*
X2092317Y64896D01*
X2092996Y66166D01*
X2145227D01*
Y38197D01*
X2128833Y21803D01*
X2128384Y21131D01*
X2128226Y20338D01*
X2128226Y20338D01*
Y18692D01*
X2127580Y18260D01*
X2126747Y17013D01*
X2126454Y15542D01*
X2126747Y14071D01*
X2127580Y12824D01*
X2128827Y11991D01*
X2130298Y11698D01*
X2131769Y11991D01*
X2133016Y12824D01*
X2134434Y12661D01*
X2134713Y12244D01*
X2135960Y11411D01*
X2137431Y11118D01*
X2138902Y11411D01*
X2140149Y12244D01*
X2140982Y13491D01*
X2141275Y14962D01*
X2141090Y15890D01*
X2170072Y44872D01*
X2170072Y44872D01*
X2170521Y45544D01*
X2170679Y46337D01*
Y59278D01*
X2171325Y59709D01*
X2172158Y60956D01*
X2172451Y62427D01*
X2172158Y63898D01*
X2171492Y64896D01*
X2171786Y65791D01*
X2172054Y66166D01*
X2234590D01*
X2234590Y116155D01*
X2235369Y116310D01*
X2236858Y117305D01*
X2237852Y118793D01*
X2237949Y119279D01*
X2233613D01*
Y121819D01*
X2237949D01*
X2237852Y122305D01*
X2236858Y123793D01*
X2235369Y124788D01*
X2234590Y124943D01*
X2234590Y166550D01*
X2386416Y166550D01*
X2386416Y80551D01*
X2385863Y80220D01*
X2385146Y80017D01*
X2383994Y80787D01*
X2382426Y81099D01*
X2380858Y80787D01*
X2379528Y79898D01*
X2378639Y78568D01*
X2378327Y77000D01*
X2378639Y75431D01*
X2379528Y74102D01*
X2380858Y73213D01*
X2382426Y72901D01*
X2383994Y73213D01*
X2385146Y73982D01*
X2385863Y73780D01*
X2386416Y73449D01*
Y69850D01*
X3003376Y69850D01*
X3004419Y68580D01*
X3004365Y68310D01*
X3004658Y66839D01*
X3005491Y65592D01*
X3006738Y64759D01*
X3008209Y64466D01*
X3009680Y64759D01*
X3010927Y65592D01*
X3011760Y66839D01*
X3012053Y68310D01*
X3011999Y68580D01*
X3013041Y69850D01*
X3349692D01*
X3349692Y116786D01*
X3350777Y117511D01*
X3351772Y119000D01*
X3351868Y119485D01*
X3347533D01*
Y122025D01*
X3351868D01*
X3351772Y122511D01*
X3350777Y124000D01*
X3349692Y124725D01*
X3349692Y166552D01*
X3497200Y166553D01*
Y69850D01*
X3996800Y69850D01*
X3996996Y68864D01*
X3997884Y67534D01*
X3999214Y66645D01*
X4000782Y66333D01*
X4002351Y66645D01*
X4003681Y67534D01*
X4004569Y68864D01*
X4004766Y69850D01*
X4123909D01*
X4125644Y68518D01*
X4128842Y67194D01*
X4132273Y66742D01*
X4135705Y67194D01*
X4138902Y68518D01*
X4140638Y69850D01*
X4174709D01*
X4176444Y68518D01*
X4179642Y67194D01*
X4183073Y66742D01*
X4186505Y67194D01*
X4189702Y68518D01*
X4191438Y69850D01*
X4195636D01*
X4195699Y69529D01*
X4196533Y68282D01*
X4197780Y67449D01*
X4199251Y67156D01*
X4200013Y67308D01*
X4232270Y35051D01*
X4232243Y34780D01*
X4231410Y33533D01*
X4231117Y32062D01*
X4231410Y30591D01*
X4232243Y29344D01*
X4233490Y28511D01*
X4234961Y28218D01*
X4236432Y28511D01*
X4237679Y29344D01*
X4238512Y30591D01*
X4238805Y32062D01*
X4238512Y33533D01*
X4237679Y34780D01*
X4237033Y35212D01*
Y35290D01*
X4237033Y35290D01*
X4236875Y36083D01*
X4236426Y36755D01*
X4204504Y68677D01*
X4204990Y69850D01*
X4465944D01*
X4465944Y166555D01*
X4610930Y166555D01*
X4610930Y1445D01*
D02*
G37*
G36*
X1266024Y60372D02*
X1268817Y57579D01*
X1268851Y57527D01*
X1271699Y54679D01*
X1271700Y54679D01*
X1272372Y54230D01*
X1273165Y54072D01*
X1278777D01*
X1284060Y48790D01*
X1284060Y48790D01*
X1284732Y48340D01*
X1285525Y48183D01*
X1285525Y48183D01*
X1286116D01*
X1289836Y44462D01*
X1289684Y43700D01*
X1289977Y42229D01*
X1290810Y40982D01*
X1292057Y40149D01*
X1293528Y39856D01*
X1294999Y40149D01*
X1296246Y40982D01*
X1297079Y42229D01*
X1297372Y43700D01*
X1297079Y45171D01*
X1296246Y46418D01*
X1294999Y47251D01*
X1293528Y47544D01*
X1292766Y47392D01*
X1289088Y51070D01*
X1289614Y52340D01*
X1340740D01*
X1340740Y52340D01*
X1341533Y52498D01*
X1342205Y52947D01*
X1343866Y54608D01*
X1344628Y54456D01*
X1346099Y54749D01*
X1347346Y55582D01*
X1348179Y56829D01*
X1348472Y58300D01*
X1348298Y59175D01*
X1349468Y59801D01*
X1350456Y58813D01*
Y54866D01*
X1346563Y50973D01*
X1346114Y50300D01*
X1345956Y49508D01*
X1345956Y49507D01*
Y42850D01*
X1345310Y42418D01*
X1344477Y41171D01*
X1344184Y39700D01*
X1344477Y38229D01*
X1345310Y36982D01*
X1346557Y36149D01*
X1348028Y35856D01*
X1349499Y36149D01*
X1350746Y36982D01*
X1351882Y36395D01*
X1354312Y33965D01*
X1354312Y33965D01*
X1354984Y33516D01*
X1355777Y33358D01*
X1355777Y33358D01*
X1357717D01*
X1362308Y28767D01*
X1361844Y27436D01*
X1361044Y27314D01*
X1357567Y30791D01*
X1356895Y31240D01*
X1356102Y31398D01*
X1356102Y31398D01*
X1290871D01*
X1290527Y31832D01*
X1290087Y32668D01*
X1290237Y33425D01*
X1290042Y34409D01*
X1289485Y35242D01*
X1288651Y35799D01*
X1287668Y35995D01*
X1286685Y35799D01*
X1285851Y35242D01*
X1285755Y35098D01*
X1284189Y34867D01*
X1277580Y41476D01*
X1276908Y41925D01*
X1276308Y42045D01*
X1276077Y42149D01*
X1275372Y43353D01*
X1275406Y43523D01*
X1275210Y44506D01*
X1274653Y45340D01*
X1273820Y45897D01*
X1272837Y46092D01*
X1271853Y45897D01*
X1271020Y45340D01*
X1270463Y44506D01*
X1270267Y43523D01*
X1269144Y42972D01*
X1268395Y42918D01*
X1263460Y47853D01*
X1262788Y48302D01*
X1261995Y48460D01*
X1261995Y48460D01*
X1251554D01*
X1251309Y48675D01*
X1250676Y49730D01*
X1250787Y50288D01*
X1250592Y51271D01*
X1250035Y52105D01*
X1249568Y52417D01*
X1249953Y53687D01*
X1251246D01*
X1251697Y53385D01*
X1252681Y53189D01*
X1253664Y53385D01*
X1254498Y53942D01*
X1255055Y54776D01*
X1255250Y55759D01*
X1255198Y56022D01*
X1256098Y57292D01*
X1260046D01*
X1260046Y57292D01*
X1260839Y57450D01*
X1261511Y57899D01*
X1264390Y60778D01*
X1264923Y60884D01*
X1266024Y60372D01*
D02*
G37*
G36*
X1249611Y33522D02*
X1249612Y33522D01*
X1250284Y33073D01*
X1251077Y32915D01*
X1251077Y32915D01*
X1257320D01*
X1257320Y32915D01*
X1258113Y33073D01*
X1258785Y33522D01*
X1259388Y34125D01*
X1261771D01*
X1262715Y32855D01*
X1262682Y32685D01*
X1262877Y31702D01*
X1263434Y30868D01*
X1264268Y30311D01*
X1265251Y30115D01*
X1266234Y30311D01*
X1267068Y30868D01*
X1267428Y31407D01*
X1268528Y31708D01*
X1268648Y31708D01*
X1269359Y30838D01*
X1268941Y29640D01*
X1268761Y29604D01*
X1267927Y29048D01*
X1267371Y28214D01*
X1267175Y27231D01*
X1267209Y27060D01*
X1266265Y25791D01*
X1261274D01*
X1260707Y27060D01*
X1260978Y27465D01*
X1261173Y28448D01*
X1260978Y29431D01*
X1260421Y30265D01*
X1259587Y30822D01*
X1258604Y31017D01*
X1257620Y30822D01*
X1256787Y30265D01*
X1255360Y30265D01*
X1254526Y30822D01*
X1253543Y31017D01*
X1252560Y30822D01*
X1251726Y30265D01*
X1251169Y29431D01*
X1250974Y28448D01*
X1251169Y27465D01*
X1251439Y27060D01*
X1250872Y25791D01*
X1240700D01*
X1240377Y26287D01*
X1240145Y27060D01*
X1240564Y27689D01*
X1240760Y28672D01*
X1240564Y29655D01*
X1240007Y30489D01*
X1239174Y31046D01*
X1238190Y31241D01*
X1237207Y31046D01*
X1236374Y30489D01*
X1235816Y29655D01*
X1235621Y28672D01*
X1235816Y27689D01*
X1236236Y27060D01*
X1236004Y26287D01*
X1235681Y25791D01*
X1232098D01*
X1230542Y27347D01*
Y33406D01*
X1231812Y33531D01*
X1231854Y33317D01*
X1232411Y32483D01*
X1233245Y31926D01*
X1234228Y31731D01*
X1235212Y31926D01*
X1236045Y32483D01*
X1236602Y33317D01*
X1236641Y33515D01*
X1237180Y34599D01*
X1238163Y34794D01*
X1238996Y35351D01*
X1239553Y36185D01*
X1239749Y37168D01*
X1240744Y37800D01*
X1240814Y37814D01*
X1241648Y38371D01*
X1242176Y39162D01*
X1242213Y39207D01*
X1243571Y39563D01*
X1249611Y33522D01*
D02*
G37*
G36*
X1285336Y27861D02*
X1285336Y27861D01*
X1286008Y27412D01*
X1286801Y27254D01*
X1286801Y27254D01*
X1349091D01*
X1349383Y26834D01*
X1349654Y25984D01*
X1348977Y24971D01*
X1348684Y23500D01*
X1348977Y22029D01*
X1349210Y21680D01*
X1348531Y20410D01*
X1285897D01*
X1277621Y28686D01*
X1277852Y30251D01*
X1277996Y30348D01*
X1278553Y31181D01*
X1278748Y32164D01*
X1278627Y32773D01*
X1279793Y33403D01*
X1285336Y27861D01*
D02*
G37*
G36*
X2165160Y66166D02*
X2165428Y65791D01*
X2165722Y64896D01*
X2165056Y63898D01*
X2164763Y62427D01*
X2165056Y60956D01*
X2165889Y59709D01*
X2166535Y59278D01*
Y47195D01*
X2138027Y18687D01*
X2137431Y18806D01*
X2135960Y18513D01*
X2134713Y17680D01*
X2133294Y17843D01*
X2133016Y18260D01*
X2132815Y18394D01*
X2132710Y19820D01*
X2148764Y35874D01*
X2149213Y36546D01*
X2149371Y37339D01*
X2149371Y37339D01*
Y66166D01*
X2165160D01*
D02*
G37*
%LPC*%
G36*
X1261216Y158115D02*
X1259745Y157822D01*
X1258498Y156989D01*
X1257665Y155742D01*
X1257372Y154271D01*
X1257665Y152800D01*
X1258498Y151553D01*
X1259745Y150720D01*
X1261216Y150427D01*
X1262687Y150720D01*
X1263934Y151553D01*
X1264767Y152800D01*
X1265060Y154271D01*
X1264767Y155742D01*
X1263934Y156989D01*
X1262687Y157822D01*
X1261216Y158115D01*
D02*
G37*
G36*
X1259516Y145740D02*
X1258045Y145448D01*
X1256798Y144614D01*
X1255965Y143367D01*
X1255672Y141896D01*
X1255965Y140425D01*
X1256798Y139178D01*
X1258045Y138345D01*
X1259516Y138052D01*
X1260987Y138345D01*
X1262234Y139178D01*
X1263067Y140425D01*
X1263360Y141896D01*
X1263067Y143367D01*
X1262234Y144614D01*
X1260987Y145448D01*
X1259516Y145740D01*
D02*
G37*
G36*
X1250328Y132844D02*
X1248857Y132551D01*
X1247610Y131718D01*
X1246777Y130471D01*
X1246484Y129000D01*
X1246777Y127529D01*
X1247610Y126282D01*
X1248857Y125449D01*
X1250328Y125156D01*
X1251799Y125449D01*
X1253046Y126282D01*
X1253879Y127529D01*
X1254172Y129000D01*
X1253879Y130471D01*
X1253046Y131718D01*
X1251799Y132551D01*
X1250328Y132844D01*
D02*
G37*
G36*
X1259140Y128071D02*
X1257669Y127778D01*
X1256422Y126945D01*
X1255589Y125698D01*
X1255296Y124227D01*
X1255589Y122756D01*
X1256422Y121509D01*
X1257669Y120675D01*
X1259140Y120383D01*
X1260611Y120675D01*
X1261858Y121509D01*
X1262691Y122756D01*
X1262984Y124227D01*
X1262691Y125698D01*
X1261858Y126945D01*
X1260611Y127778D01*
X1259140Y128071D01*
D02*
G37*
G36*
X1245356Y124347D02*
X1243885Y124055D01*
X1242638Y123221D01*
X1241805Y121974D01*
X1241512Y120503D01*
X1241805Y119032D01*
X1242638Y117785D01*
X1243885Y116952D01*
X1245356Y116659D01*
X1246827Y116952D01*
X1248074Y117785D01*
X1248907Y119032D01*
X1249200Y120503D01*
X1248907Y121974D01*
X1248074Y123221D01*
X1246827Y124055D01*
X1245356Y124347D01*
D02*
G37*
G36*
X1239211Y86523D02*
X1238228Y86327D01*
X1237394Y85771D01*
X1236837Y84937D01*
X1236642Y83954D01*
X1236837Y82971D01*
X1237394Y82137D01*
X1238228Y81580D01*
X1239211Y81384D01*
X1240194Y81580D01*
X1241028Y82137D01*
X1241585Y82971D01*
X1241780Y83954D01*
X1241585Y84937D01*
X1241028Y85771D01*
X1240194Y86327D01*
X1239211Y86523D01*
D02*
G37*
G36*
X2308065Y152689D02*
X2306496Y152377D01*
X2305166Y151488D01*
X2304278Y150159D01*
X2303966Y148590D01*
X2304278Y147022D01*
X2305166Y145692D01*
X2306496Y144803D01*
X2308065Y144491D01*
X2309633Y144803D01*
X2310963Y145692D01*
X2311851Y147022D01*
X2312163Y148590D01*
X2311851Y150159D01*
X2310963Y151488D01*
X2309633Y152377D01*
X2308065Y152689D01*
D02*
G37*
G36*
X1212500Y149581D02*
X1210667Y149339D01*
X1208960Y148632D01*
X1207493Y147507D01*
X1206368Y146040D01*
X1205661Y144333D01*
X1205419Y142500D01*
X1205661Y140667D01*
X1205926Y140027D01*
X1205012Y138914D01*
X1204722Y138972D01*
X1203251Y138679D01*
X1202004Y137846D01*
X1201171Y136599D01*
X1200878Y135128D01*
X1201171Y133657D01*
X1202004Y132410D01*
X1203251Y131577D01*
X1204722Y131284D01*
X1206193Y131577D01*
X1207440Y132410D01*
X1208273Y133657D01*
X1208566Y135128D01*
X1208560Y135159D01*
X1209673Y136073D01*
X1210667Y135661D01*
X1212500Y135419D01*
X1214333Y135661D01*
X1216040Y136368D01*
X1217507Y137493D01*
X1218632Y138960D01*
X1219339Y140667D01*
X1219581Y142500D01*
X1219339Y144333D01*
X1218632Y146040D01*
X1217507Y147507D01*
X1216040Y148632D01*
X1214333Y149339D01*
X1212500Y149581D01*
D02*
G37*
G36*
X4590569Y146390D02*
X4589097Y146098D01*
X4587850Y145265D01*
X4587017Y144018D01*
X4586725Y142547D01*
X4587017Y141076D01*
X4587850Y139829D01*
X4589097Y138995D01*
X4590569Y138703D01*
X4592039Y138995D01*
X4593286Y139829D01*
X4594120Y141076D01*
X4594412Y142547D01*
X4594120Y144018D01*
X4593286Y145265D01*
X4592039Y146098D01*
X4590569Y146390D01*
D02*
G37*
G36*
X1137328Y158115D02*
X1135857Y157822D01*
X1134611Y156989D01*
X1133777Y155742D01*
X1133485Y154271D01*
X1133777Y152800D01*
X1134611Y151553D01*
X1135286Y151102D01*
Y149637D01*
X1134611Y149186D01*
X1133777Y147939D01*
X1133485Y146468D01*
X1133777Y144997D01*
X1134611Y143750D01*
X1135857Y142917D01*
X1137328Y142624D01*
X1138177Y142793D01*
X1138393Y142742D01*
X1139382Y142043D01*
X1139504Y141861D01*
X1139661Y140667D01*
X1140368Y138960D01*
X1141493Y137493D01*
X1142960Y136368D01*
X1144667Y135661D01*
X1146500Y135419D01*
X1148333Y135661D01*
X1150040Y136368D01*
X1151507Y137493D01*
X1152632Y138960D01*
X1153339Y140667D01*
X1153581Y142500D01*
X1153339Y144333D01*
X1152632Y146040D01*
X1151507Y147507D01*
X1150040Y148632D01*
X1148333Y149339D01*
X1146500Y149581D01*
X1144667Y149339D01*
X1142960Y148632D01*
X1142159Y148018D01*
X1141887Y148001D01*
X1140624Y148332D01*
X1140606Y148349D01*
X1140046Y149186D01*
X1139371Y149637D01*
Y151102D01*
X1140046Y151553D01*
X1140880Y152800D01*
X1141172Y154271D01*
X1140880Y155742D01*
X1140046Y156989D01*
X1138800Y157822D01*
X1137328Y158115D01*
D02*
G37*
G36*
X2345031Y142576D02*
X2343560Y142283D01*
X2342313Y141450D01*
X2341479Y140203D01*
X2341187Y138732D01*
X2341479Y137261D01*
X2342313Y136014D01*
X2343560Y135181D01*
X2345031Y134888D01*
X2346502Y135181D01*
X2347749Y136014D01*
X2348582Y137261D01*
X2348875Y138732D01*
X2348582Y140203D01*
X2347749Y141450D01*
X2346502Y142283D01*
X2345031Y142576D01*
D02*
G37*
G36*
X2286676Y142232D02*
X2285108Y141920D01*
X2283778Y141031D01*
X2282890Y139701D01*
X2282578Y138133D01*
X2282890Y136564D01*
X2283778Y135235D01*
X2285108Y134346D01*
X2286676Y134034D01*
X2288245Y134346D01*
X2289574Y135235D01*
X2290463Y136564D01*
X2290775Y138133D01*
X2290463Y139701D01*
X2289574Y141031D01*
X2288245Y141920D01*
X2286676Y142232D01*
D02*
G37*
G36*
X4497397Y139299D02*
X4495926Y139007D01*
X4494679Y138174D01*
X4493846Y136926D01*
X4493553Y135456D01*
X4493846Y133984D01*
X4494679Y132737D01*
X4495926Y131904D01*
X4497397Y131612D01*
X4498868Y131904D01*
X4500115Y132737D01*
X4500948Y133984D01*
X4501241Y135456D01*
X4500948Y136926D01*
X4500115Y138174D01*
X4498868Y139007D01*
X4497397Y139299D01*
D02*
G37*
G36*
X1193644Y137543D02*
X1192173Y137251D01*
X1190926Y136418D01*
X1190092Y135170D01*
X1189800Y133700D01*
X1190092Y132228D01*
X1190926Y130982D01*
X1192173Y130148D01*
X1193644Y129856D01*
X1195115Y130148D01*
X1196362Y130982D01*
X1197195Y132228D01*
X1197487Y133700D01*
X1197195Y135170D01*
X1196362Y136418D01*
X1195115Y137251D01*
X1193644Y137543D01*
D02*
G37*
G36*
X141647Y138032D02*
X140079Y137720D01*
X138749Y136831D01*
X137860Y135501D01*
X137549Y133933D01*
X137860Y132364D01*
X138749Y131035D01*
X140079Y130146D01*
X141647Y129834D01*
X143216Y130146D01*
X144545Y131035D01*
X145434Y132364D01*
X145746Y133933D01*
X145434Y135501D01*
X144545Y136831D01*
X143216Y137720D01*
X141647Y138032D01*
D02*
G37*
G36*
X2298031Y137819D02*
X2296463Y137507D01*
X2295133Y136618D01*
X2294244Y135289D01*
X2293932Y133720D01*
X2294244Y132152D01*
X2295133Y130822D01*
X2296463Y129933D01*
X2298031Y129621D01*
X2299599Y129933D01*
X2300929Y130822D01*
X2301818Y132152D01*
X2302130Y133720D01*
X2301818Y135289D01*
X2300929Y136618D01*
X2299599Y137507D01*
X2298031Y137819D01*
D02*
G37*
G36*
X1172459Y136544D02*
X1170988Y136251D01*
X1169741Y135418D01*
X1168908Y134171D01*
X1168615Y132700D01*
X1168908Y131229D01*
X1169741Y129982D01*
X1170988Y129149D01*
X1172459Y128856D01*
X1173930Y129149D01*
X1175177Y129982D01*
X1176010Y131229D01*
X1176303Y132700D01*
X1176010Y134171D01*
X1175177Y135418D01*
X1173930Y136251D01*
X1172459Y136544D01*
D02*
G37*
G36*
X1130614Y134052D02*
X1129144Y133759D01*
X1127896Y132926D01*
X1127063Y131679D01*
X1126771Y130208D01*
X1127063Y128737D01*
X1127896Y127490D01*
X1129144Y126657D01*
X1130614Y126364D01*
X1132085Y126657D01*
X1133333Y127490D01*
X1134166Y128737D01*
X1134458Y130208D01*
X1134166Y131679D01*
X1133333Y132926D01*
X1132085Y133759D01*
X1130614Y134052D01*
D02*
G37*
G36*
X4553922Y133544D02*
X4552451Y133251D01*
X4551204Y132418D01*
X4550370Y131171D01*
X4550078Y129700D01*
X4550370Y128229D01*
X4551204Y126982D01*
X4552451Y126149D01*
X4553922Y125856D01*
X4555393Y126149D01*
X4556640Y126982D01*
X4557473Y128229D01*
X4557766Y129700D01*
X4557473Y131171D01*
X4556640Y132418D01*
X4555393Y133251D01*
X4553922Y133544D01*
D02*
G37*
G36*
X1207008Y129320D02*
X1205537Y129027D01*
X1204290Y128194D01*
X1203457Y126947D01*
X1203164Y125476D01*
X1203457Y124005D01*
X1204290Y122758D01*
X1205537Y121925D01*
X1207008Y121632D01*
X1208479Y121925D01*
X1209726Y122758D01*
X1210559Y124005D01*
X1210852Y125476D01*
X1210559Y126947D01*
X1209726Y128194D01*
X1208479Y129027D01*
X1207008Y129320D01*
D02*
G37*
G36*
X8160Y140190D02*
X5740Y139871D01*
X3485Y138937D01*
X1549Y137451D01*
X63Y135515D01*
X-871Y133260D01*
X-1190Y130840D01*
X-871Y128420D01*
X63Y126165D01*
X1549Y124229D01*
X3485Y122743D01*
X5740Y121809D01*
X8160Y121490D01*
X10580Y121809D01*
X12835Y122743D01*
X14771Y124229D01*
X16257Y126165D01*
X17191Y128420D01*
X17510Y130840D01*
X17191Y133260D01*
X16257Y135515D01*
X14771Y137451D01*
X12835Y138937D01*
X10580Y139871D01*
X8160Y140190D01*
D02*
G37*
G36*
X130512Y127709D02*
X129041Y127416D01*
X127794Y126583D01*
X126961Y125336D01*
X126668Y123865D01*
X126961Y122394D01*
X127794Y121147D01*
X129041Y120314D01*
X130512Y120021D01*
X131983Y120314D01*
X133230Y121147D01*
X134063Y122394D01*
X134356Y123865D01*
X134063Y125336D01*
X133230Y126583D01*
X131983Y127416D01*
X130512Y127709D01*
D02*
G37*
G36*
X1172464Y126780D02*
X1170993Y126487D01*
X1169746Y125654D01*
X1168913Y124407D01*
X1168620Y122936D01*
X1168913Y121465D01*
X1169746Y120218D01*
X1170993Y119385D01*
X1172464Y119092D01*
X1173935Y119385D01*
X1175182Y120218D01*
X1176015Y121465D01*
X1176308Y122936D01*
X1176015Y124407D01*
X1175182Y125654D01*
X1173935Y126487D01*
X1172464Y126780D01*
D02*
G37*
G36*
X1183492Y127130D02*
X1181924Y126818D01*
X1180594Y125930D01*
X1179706Y124600D01*
X1179393Y123032D01*
X1179706Y121463D01*
X1180594Y120133D01*
X1181924Y119245D01*
X1183492Y118933D01*
X1185061Y119245D01*
X1186050Y119906D01*
X1187594Y119881D01*
X1188924Y118992D01*
X1190492Y118680D01*
X1192061Y118992D01*
X1193391Y119881D01*
X1194279Y121211D01*
X1194591Y122779D01*
X1194279Y124348D01*
X1193391Y125677D01*
X1192061Y126566D01*
X1190492Y126878D01*
X1188924Y126566D01*
X1187934Y125905D01*
X1186390Y125930D01*
X1185061Y126818D01*
X1183492Y127130D01*
D02*
G37*
G36*
X2315724Y125133D02*
X2314156Y124821D01*
X2312826Y123933D01*
X2311938Y122603D01*
X2311626Y121034D01*
X2311938Y119466D01*
X2312826Y118136D01*
X2314156Y117247D01*
X2315724Y116936D01*
X2317293Y117247D01*
X2318623Y118136D01*
X2319511Y119466D01*
X2319823Y121034D01*
X2319511Y122603D01*
X2318623Y123933D01*
X2317293Y124821D01*
X2315724Y125133D01*
D02*
G37*
G36*
X4586594Y124597D02*
X4585122Y124304D01*
X4583875Y123471D01*
X4583042Y122224D01*
X4582750Y120753D01*
X4583042Y119282D01*
X4583875Y118035D01*
X4585122Y117202D01*
X4586594Y116909D01*
X4588065Y117202D01*
X4589312Y118035D01*
X4590145Y119282D01*
X4590437Y120753D01*
X4590145Y122224D01*
X4589312Y123471D01*
X4588065Y124304D01*
X4586594Y124597D01*
D02*
G37*
G36*
X4497397D02*
X4495926Y124304D01*
X4494679Y123471D01*
X4493846Y122224D01*
X4493553Y120753D01*
X4493846Y119282D01*
X4494679Y118035D01*
X4495926Y117202D01*
X4497397Y116909D01*
X4498868Y117202D01*
X4500115Y118035D01*
X4500948Y119282D01*
X4501241Y120753D01*
X4500948Y122224D01*
X4500115Y123471D01*
X4498868Y124304D01*
X4497397Y124597D01*
D02*
G37*
G36*
X1209348Y116575D02*
X1207877Y116283D01*
X1206630Y115450D01*
X1205797Y114203D01*
X1205505Y112732D01*
X1205797Y111261D01*
X1206630Y110014D01*
X1207877Y109180D01*
X1209348Y108888D01*
X1210819Y109180D01*
X1212066Y110014D01*
X1212900Y111261D01*
X1213192Y112732D01*
X1212900Y114203D01*
X1212066Y115450D01*
X1210819Y116283D01*
X1209348Y116575D01*
D02*
G37*
G36*
X4487822Y115944D02*
X4486351Y115651D01*
X4485104Y114818D01*
X4484271Y113571D01*
X4483978Y112100D01*
X4484271Y110629D01*
X4485104Y109382D01*
X4486351Y108549D01*
X4487822Y108256D01*
X4489293Y108549D01*
X4490540Y109382D01*
X4491373Y110629D01*
X4491666Y112100D01*
X4491373Y113571D01*
X4490540Y114818D01*
X4489293Y115651D01*
X4487822Y115944D01*
D02*
G37*
G36*
X1151382Y115858D02*
X1149911Y115565D01*
X1148664Y114732D01*
X1147831Y113485D01*
X1147538Y112014D01*
X1147831Y110543D01*
X1148664Y109296D01*
X1149911Y108463D01*
X1151382Y108170D01*
X1152853Y108463D01*
X1154100Y109296D01*
X1154933Y110543D01*
X1155226Y112014D01*
X1154933Y113485D01*
X1154100Y114732D01*
X1152853Y115565D01*
X1151382Y115858D01*
D02*
G37*
G36*
X121873Y115849D02*
X120304Y115537D01*
X118974Y114648D01*
X118086Y113319D01*
X117774Y111750D01*
X118086Y110182D01*
X118974Y108852D01*
X120304Y107963D01*
X121873Y107651D01*
X123441Y107963D01*
X124771Y108852D01*
X125659Y110182D01*
X125971Y111750D01*
X125659Y113319D01*
X124771Y114648D01*
X123441Y115537D01*
X121873Y115849D01*
D02*
G37*
G36*
X1136142Y113318D02*
X1134671Y113025D01*
X1133424Y112192D01*
X1132591Y110945D01*
X1132298Y109474D01*
X1132591Y108003D01*
X1133424Y106756D01*
X1134671Y105923D01*
X1136142Y105630D01*
X1137613Y105923D01*
X1138860Y106756D01*
X1139693Y108003D01*
X1139986Y109474D01*
X1139693Y110945D01*
X1138860Y112192D01*
X1137613Y113025D01*
X1136142Y113318D01*
D02*
G37*
G36*
X4484339Y106368D02*
X4482868Y106075D01*
X4481621Y105242D01*
X4480788Y103995D01*
X4480495Y102524D01*
X4480788Y101053D01*
X4481621Y99806D01*
X4482868Y98973D01*
X4484339Y98680D01*
X4485810Y98973D01*
X4487057Y99806D01*
X4487890Y101053D01*
X4488183Y102524D01*
X4487890Y103995D01*
X4487057Y105242D01*
X4485810Y106075D01*
X4484339Y106368D01*
D02*
G37*
G36*
X4594851Y106303D02*
X4593380Y106011D01*
X4592133Y105177D01*
X4591300Y103930D01*
X4591008Y102459D01*
X4591300Y100988D01*
X4592133Y99741D01*
X4593380Y98908D01*
X4594851Y98615D01*
X4596322Y98908D01*
X4597570Y99741D01*
X4598403Y100988D01*
X4598695Y102459D01*
X4598403Y103930D01*
X4597570Y105177D01*
X4596322Y106011D01*
X4594851Y106303D01*
D02*
G37*
G36*
X1122829Y104344D02*
X1121357Y104051D01*
X1120110Y103218D01*
X1119277Y101971D01*
X1118985Y100500D01*
X1119277Y99029D01*
X1120110Y97782D01*
X1121357Y96949D01*
X1122829Y96656D01*
X1124299Y96949D01*
X1125547Y97782D01*
X1126380Y99029D01*
X1126672Y100500D01*
X1126380Y101971D01*
X1125547Y103218D01*
X1124299Y104051D01*
X1122829Y104344D01*
D02*
G37*
G36*
X85296Y103094D02*
X83825Y102801D01*
X82578Y101968D01*
X81744Y100721D01*
X81452Y99250D01*
X81744Y97779D01*
X82578Y96532D01*
X83825Y95699D01*
X85296Y95406D01*
X86767Y95699D01*
X88014Y96532D01*
X88847Y97779D01*
X89139Y99250D01*
X88847Y100721D01*
X88014Y101968D01*
X86767Y102801D01*
X85296Y103094D01*
D02*
G37*
G36*
X1167130Y102650D02*
X1165659Y102357D01*
X1164412Y101524D01*
X1163579Y100277D01*
X1163286Y98806D01*
X1163579Y97335D01*
X1164412Y96088D01*
X1165659Y95255D01*
X1167130Y94962D01*
X1168601Y95255D01*
X1169848Y96088D01*
X1170681Y97335D01*
X1170974Y98806D01*
X1170681Y100277D01*
X1169848Y101524D01*
X1168601Y102357D01*
X1167130Y102650D01*
D02*
G37*
G36*
X1145219Y108465D02*
X1143748Y108172D01*
X1142501Y107339D01*
X1141667Y106092D01*
X1141375Y104621D01*
X1141667Y103150D01*
X1141750Y103026D01*
X1141457Y101672D01*
X1141309Y101574D01*
X1140210Y100839D01*
X1139376Y99592D01*
X1139084Y98121D01*
X1139376Y96650D01*
X1140210Y95403D01*
X1141457Y94570D01*
X1142928Y94277D01*
X1144399Y94570D01*
X1145646Y95403D01*
X1146479Y96650D01*
X1146771Y98121D01*
X1146479Y99592D01*
X1146396Y99716D01*
X1146690Y101070D01*
X1146837Y101168D01*
X1147937Y101903D01*
X1148770Y103150D01*
X1149062Y104621D01*
X1148770Y106092D01*
X1147937Y107339D01*
X1146690Y108172D01*
X1145219Y108465D01*
D02*
G37*
G36*
X1181465Y102397D02*
X1179896Y102085D01*
X1178566Y101196D01*
X1177678Y99867D01*
X1177366Y98298D01*
X1177678Y96729D01*
X1178566Y95400D01*
X1179896Y94511D01*
X1181465Y94199D01*
X1183033Y94511D01*
X1184363Y95400D01*
X1185251Y96729D01*
X1185563Y98298D01*
X1185251Y99867D01*
X1184363Y101196D01*
X1183033Y102085D01*
X1181465Y102397D01*
D02*
G37*
G36*
X2303126Y93199D02*
X2301558Y92887D01*
X2300228Y91998D01*
X2299339Y90668D01*
X2299027Y89100D01*
X2299339Y87531D01*
X2300228Y86202D01*
X2301558Y85313D01*
X2303126Y85001D01*
X2304695Y85313D01*
X2306024Y86202D01*
X2306913Y87531D01*
X2307225Y89100D01*
X2306913Y90668D01*
X2306024Y91998D01*
X2304695Y92887D01*
X2303126Y93199D01*
D02*
G37*
G36*
X1200462Y89135D02*
X1199478Y88940D01*
X1198645Y88383D01*
X1198088Y87549D01*
X1197892Y86566D01*
X1198088Y85583D01*
X1198645Y84749D01*
X1199478Y84192D01*
X1200462Y83996D01*
X1201445Y84192D01*
X1202279Y84749D01*
X1202835Y85583D01*
X1203031Y86566D01*
X1202835Y87549D01*
X1202279Y88383D01*
X1201445Y88940D01*
X1200462Y89135D01*
D02*
G37*
G36*
X4484622Y96844D02*
X4483151Y96551D01*
X4481904Y95718D01*
X4481071Y94471D01*
X4480778Y93000D01*
X4481071Y91529D01*
X4481904Y90282D01*
X4483151Y89449D01*
X4484622Y89156D01*
X4485149Y89261D01*
X4486229Y88181D01*
X4486129Y87675D01*
X4486422Y86204D01*
X4487255Y84957D01*
X4488502Y84124D01*
X4489973Y83831D01*
X4491443Y84124D01*
X4492691Y84957D01*
X4493524Y86204D01*
X4493817Y87675D01*
X4493524Y89146D01*
X4492691Y90393D01*
X4491443Y91226D01*
X4489973Y91519D01*
X4489445Y91414D01*
X4488365Y92494D01*
X4488466Y93000D01*
X4488173Y94471D01*
X4487340Y95718D01*
X4486093Y96551D01*
X4484622Y96844D01*
D02*
G37*
G36*
X4600024Y91519D02*
X4598553Y91226D01*
X4597306Y90393D01*
X4596473Y89146D01*
X4596180Y87675D01*
X4596473Y86204D01*
X4597306Y84957D01*
X4597864Y84584D01*
X4598048Y83296D01*
X4598029Y83163D01*
X4597600Y82969D01*
X4596317Y83618D01*
X4596212Y84147D01*
X4595379Y85394D01*
X4594132Y86227D01*
X4592661Y86519D01*
X4591190Y86227D01*
X4589943Y85394D01*
X4589109Y84147D01*
X4588817Y82676D01*
X4589109Y81205D01*
X4589943Y79958D01*
X4591190Y79124D01*
X4592661Y78832D01*
X4594132Y79124D01*
X4594956Y79675D01*
X4595167Y79652D01*
X4596217Y79175D01*
X4596260Y79135D01*
X4596473Y78066D01*
X4597211Y76961D01*
X4597088Y76232D01*
X4596852Y75595D01*
X4596632Y75551D01*
X4595385Y74718D01*
X4594552Y73471D01*
X4594260Y72000D01*
X4594552Y70529D01*
X4595385Y69282D01*
X4596632Y68449D01*
X4598104Y68156D01*
X4599574Y68449D01*
X4600822Y69282D01*
X4601655Y70529D01*
X4601947Y72000D01*
X4601655Y73471D01*
X4600917Y74575D01*
X4601039Y75305D01*
X4601276Y75942D01*
X4601495Y75985D01*
X4602742Y76819D01*
X4603575Y78066D01*
X4603868Y79537D01*
X4603575Y81008D01*
X4602742Y82255D01*
X4601776Y82900D01*
X4601680Y83317D01*
Y83894D01*
X4601776Y84311D01*
X4602742Y84957D01*
X4603575Y86204D01*
X4603868Y87675D01*
X4603575Y89146D01*
X4602742Y90393D01*
X4601495Y91226D01*
X4600024Y91519D01*
D02*
G37*
G36*
X2319420Y89081D02*
X2317851Y88769D01*
X2316522Y87880D01*
X2315633Y86551D01*
X2315321Y84982D01*
X2315633Y83413D01*
X2316522Y82084D01*
X2317851Y81195D01*
X2319420Y80883D01*
X2320988Y81195D01*
X2322318Y82084D01*
X2323207Y83413D01*
X2323519Y84982D01*
X2323207Y86551D01*
X2322318Y87880D01*
X2320988Y88769D01*
X2319420Y89081D01*
D02*
G37*
G36*
X1133728Y86744D02*
X1132258Y86451D01*
X1131011Y85618D01*
X1130177Y84371D01*
X1129885Y82900D01*
X1130177Y81429D01*
X1131011Y80182D01*
X1132258Y79349D01*
X1133728Y79056D01*
X1135200Y79349D01*
X1136447Y80182D01*
X1137280Y81429D01*
X1137572Y82900D01*
X1137280Y84371D01*
X1136447Y85618D01*
X1135200Y86451D01*
X1133728Y86744D01*
D02*
G37*
G36*
X1196128Y83369D02*
X1195145Y83174D01*
X1194312Y82617D01*
X1193755Y81783D01*
X1193559Y80800D01*
X1193755Y79817D01*
X1194312Y78983D01*
X1195145Y78426D01*
X1196128Y78231D01*
X1197112Y78426D01*
X1197945Y78983D01*
X1198502Y79817D01*
X1198698Y80800D01*
X1198502Y81783D01*
X1197945Y82617D01*
X1197112Y83174D01*
X1196128Y83369D01*
D02*
G37*
G36*
X85296Y84994D02*
X83825Y84701D01*
X82578Y83868D01*
X81744Y82621D01*
X81452Y81150D01*
X81744Y79679D01*
X82578Y78432D01*
X83825Y77599D01*
X85296Y77306D01*
X86767Y77599D01*
X88014Y78432D01*
X88847Y79679D01*
X89139Y81150D01*
X88847Y82621D01*
X88014Y83868D01*
X86767Y84701D01*
X85296Y84994D01*
D02*
G37*
G36*
X2342026Y85299D02*
X2340458Y84987D01*
X2339128Y84098D01*
X2338239Y82768D01*
X2337927Y81200D01*
X2338239Y79631D01*
X2339128Y78302D01*
X2340458Y77413D01*
X2342026Y77101D01*
X2343595Y77413D01*
X2344924Y78302D01*
X2345813Y79631D01*
X2346125Y81200D01*
X2345813Y82768D01*
X2344924Y84098D01*
X2343595Y84987D01*
X2342026Y85299D01*
D02*
G37*
G36*
X119233Y81189D02*
X117762Y80897D01*
X116515Y80063D01*
X115682Y78816D01*
X115389Y77345D01*
X115682Y75874D01*
X116515Y74627D01*
X117762Y73794D01*
X119233Y73502D01*
X120704Y73794D01*
X121951Y74627D01*
X122784Y75874D01*
X123077Y77345D01*
X122784Y78816D01*
X121951Y80063D01*
X120704Y80897D01*
X119233Y81189D01*
D02*
G37*
G36*
X1134028Y77144D02*
X1132558Y76851D01*
X1131311Y76018D01*
X1130477Y74771D01*
X1130185Y73300D01*
X1130477Y71829D01*
X1131311Y70582D01*
X1132558Y69749D01*
X1134028Y69456D01*
X1135499Y69749D01*
X1136747Y70582D01*
X1137580Y71829D01*
X1137872Y73300D01*
X1137580Y74771D01*
X1136747Y76018D01*
X1135499Y76851D01*
X1134028Y77144D01*
D02*
G37*
G36*
X1124828Y72444D02*
X1123357Y72151D01*
X1122111Y71318D01*
X1121277Y70071D01*
X1120985Y68600D01*
X1121277Y67129D01*
X1122111Y65882D01*
X1123357Y65049D01*
X1124828Y64756D01*
X1126300Y65049D01*
X1127547Y65882D01*
X1128380Y67129D01*
X1128672Y68600D01*
X1128380Y70071D01*
X1127547Y71318D01*
X1126300Y72151D01*
X1124828Y72444D01*
D02*
G37*
G36*
X3044500Y61433D02*
X3044059Y61375D01*
X3043515D01*
X3043385Y61321D01*
X3043247Y61348D01*
X3042050Y61110D01*
X3041541Y61043D01*
X3041382Y60977D01*
X3041315Y60964D01*
X3041258Y60926D01*
X3041161Y60886D01*
X3041057D01*
X3039237Y60132D01*
X3039164Y60059D01*
X3039066Y60018D01*
X3039000Y60005D01*
X3038943Y59967D01*
X3038784Y59901D01*
X3038376Y59588D01*
X3037361Y58911D01*
X3037283Y58794D01*
X3037153Y58740D01*
X3036769Y58355D01*
X3036416Y58084D01*
X3036145Y57731D01*
X3035760Y57347D01*
X3035706Y57217D01*
X3035590Y57138D01*
X3034912Y56124D01*
X3034599Y55716D01*
X3034533Y55557D01*
X3034495Y55501D01*
X3034482Y55434D01*
X3034442Y55336D01*
X3034368Y55263D01*
X3033614Y53443D01*
Y53339D01*
X3033574Y53242D01*
X3033536Y53185D01*
X3033523Y53118D01*
X3033457Y52959D01*
X3033390Y52449D01*
X3033152Y51253D01*
X3033179Y51115D01*
X3033125Y50985D01*
Y50442D01*
X3033067Y50000D01*
X3033125Y49558D01*
Y49015D01*
X3033179Y48885D01*
X3033152Y48747D01*
X3033390Y47552D01*
X3033457Y47041D01*
X3033523Y46881D01*
X3033536Y46815D01*
X3033574Y46759D01*
X3033614Y46661D01*
Y46557D01*
X3034368Y44737D01*
X3034441Y44664D01*
X3034482Y44566D01*
X3034495Y44500D01*
X3034533Y44443D01*
X3034599Y44284D01*
X3034913Y43875D01*
X3035590Y42862D01*
X3035706Y42783D01*
X3035760Y42653D01*
X3036144Y42270D01*
X3036416Y41916D01*
X3036770Y41644D01*
X3037153Y41260D01*
X3037283Y41207D01*
X3037361Y41090D01*
X3038374Y40413D01*
X3038784Y40099D01*
X3038943Y40033D01*
X3039000Y39995D01*
X3039066Y39982D01*
X3039164Y39941D01*
X3039237Y39868D01*
X3041057Y39114D01*
X3041161D01*
X3041259Y39074D01*
X3041315Y39036D01*
X3041381Y39023D01*
X3041541Y38957D01*
X3042053Y38889D01*
X3043247Y38652D01*
X3043385Y38679D01*
X3043515Y38625D01*
X3044058D01*
X3044500Y38567D01*
X3044942Y38625D01*
X3045485D01*
X3045615Y38679D01*
X3045753Y38652D01*
X3046947Y38889D01*
X3047459Y38957D01*
X3047619Y39023D01*
X3047685Y39036D01*
X3047741Y39074D01*
X3047839Y39114D01*
X3047943D01*
X3049763Y39868D01*
X3049836Y39941D01*
X3049934Y39982D01*
X3050001Y39995D01*
X3050056Y40033D01*
X3050216Y40099D01*
X3050626Y40413D01*
X3051638Y41090D01*
X3051717Y41207D01*
X3051847Y41260D01*
X3052230Y41644D01*
X3052584Y41916D01*
X3052856Y42270D01*
X3053239Y42653D01*
X3053293Y42783D01*
X3053411Y42862D01*
X3054087Y43874D01*
X3054401Y44284D01*
X3054467Y44443D01*
X3054505Y44500D01*
X3054518Y44566D01*
X3054559Y44664D01*
X3054632Y44737D01*
X3055386Y46557D01*
Y46661D01*
X3055426Y46759D01*
X3055464Y46815D01*
X3055477Y46881D01*
X3055543Y47041D01*
X3055610Y47552D01*
X3055848Y48747D01*
X3055821Y48885D01*
X3055875Y49015D01*
Y49558D01*
X3055933Y50000D01*
X3055875Y50442D01*
Y50985D01*
X3055821Y51115D01*
X3055848Y51253D01*
X3055610Y52449D01*
X3055543Y52959D01*
X3055477Y53119D01*
X3055464Y53185D01*
X3055426Y53242D01*
X3055386Y53339D01*
Y53443D01*
X3054632Y55263D01*
X3054559Y55336D01*
X3054518Y55434D01*
X3054505Y55501D01*
X3054467Y55557D01*
X3054401Y55716D01*
X3054088Y56125D01*
X3053411Y57138D01*
X3053293Y57217D01*
X3053239Y57347D01*
X3052856Y57731D01*
X3052584Y58084D01*
X3052231Y58355D01*
X3051847Y58740D01*
X3051717Y58794D01*
X3051638Y58911D01*
X3050625Y59588D01*
X3050216Y59901D01*
X3050057Y59967D01*
X3050001Y60005D01*
X3049934Y60018D01*
X3049836Y60059D01*
X3049763Y60132D01*
X3047943Y60886D01*
X3047839D01*
X3047742Y60926D01*
X3047685Y60964D01*
X3047618Y60977D01*
X3047459Y61043D01*
X3046949Y61110D01*
X3045753Y61348D01*
X3045615Y61321D01*
X3045485Y61375D01*
X3044941D01*
X3044500Y61433D01*
D02*
G37*
G36*
X1568500D02*
X1568059Y61375D01*
X1567515D01*
X1567385Y61321D01*
X1567247Y61348D01*
X1566051Y61110D01*
X1565541Y61043D01*
X1565382Y60977D01*
X1565315Y60964D01*
X1565258Y60926D01*
X1565161Y60886D01*
X1565057D01*
X1563237Y60132D01*
X1563164Y60059D01*
X1563066Y60018D01*
X1563000Y60005D01*
X1562943Y59967D01*
X1562784Y59901D01*
X1562376Y59588D01*
X1561362Y58911D01*
X1561283Y58794D01*
X1561153Y58740D01*
X1560769Y58355D01*
X1560416Y58084D01*
X1560145Y57731D01*
X1559760Y57347D01*
X1559707Y57217D01*
X1559590Y57138D01*
X1558912Y56124D01*
X1558599Y55716D01*
X1558533Y55557D01*
X1558495Y55501D01*
X1558482Y55434D01*
X1558441Y55336D01*
X1558368Y55263D01*
X1557614Y53443D01*
Y53339D01*
X1557574Y53242D01*
X1557536Y53185D01*
X1557523Y53118D01*
X1557457Y52959D01*
X1557390Y52449D01*
X1557152Y51253D01*
X1557179Y51115D01*
X1557125Y50985D01*
Y50442D01*
X1557067Y50000D01*
X1557125Y49558D01*
Y49015D01*
X1557179Y48885D01*
X1557152Y48747D01*
X1557390Y47552D01*
X1557457Y47041D01*
X1557523Y46881D01*
X1557536Y46815D01*
X1557574Y46759D01*
X1557614Y46661D01*
Y46557D01*
X1558368Y44737D01*
X1558441Y44664D01*
X1558482Y44566D01*
X1558495Y44500D01*
X1558533Y44443D01*
X1558599Y44284D01*
X1558913Y43875D01*
X1559590Y42862D01*
X1559707Y42783D01*
X1559760Y42653D01*
X1560144Y42270D01*
X1560416Y41916D01*
X1560770Y41644D01*
X1561153Y41260D01*
X1561283Y41207D01*
X1561362Y41090D01*
X1562374Y40413D01*
X1562784Y40099D01*
X1562943Y40033D01*
X1563000Y39995D01*
X1563066Y39982D01*
X1563164Y39941D01*
X1563237Y39868D01*
X1565057Y39114D01*
X1565161D01*
X1565259Y39074D01*
X1565315Y39036D01*
X1565381Y39023D01*
X1565541Y38957D01*
X1566053Y38889D01*
X1567247Y38652D01*
X1567385Y38679D01*
X1567515Y38625D01*
X1568058D01*
X1568500Y38567D01*
X1568942Y38625D01*
X1569485D01*
X1569615Y38679D01*
X1569753Y38652D01*
X1570947Y38889D01*
X1571459Y38957D01*
X1571619Y39023D01*
X1571685Y39036D01*
X1571741Y39074D01*
X1571839Y39114D01*
X1571943D01*
X1573763Y39868D01*
X1573836Y39941D01*
X1573934Y39982D01*
X1574001Y39995D01*
X1574057Y40033D01*
X1574216Y40099D01*
X1574626Y40413D01*
X1575638Y41090D01*
X1575717Y41207D01*
X1575847Y41260D01*
X1576230Y41644D01*
X1576584Y41916D01*
X1576856Y42270D01*
X1577240Y42653D01*
X1577293Y42783D01*
X1577410Y42862D01*
X1578087Y43874D01*
X1578401Y44284D01*
X1578467Y44443D01*
X1578505Y44500D01*
X1578518Y44566D01*
X1578559Y44664D01*
X1578632Y44737D01*
X1579386Y46557D01*
Y46661D01*
X1579426Y46759D01*
X1579464Y46815D01*
X1579477Y46881D01*
X1579543Y47041D01*
X1579610Y47552D01*
X1579848Y48747D01*
X1579821Y48885D01*
X1579875Y49015D01*
Y49558D01*
X1579933Y50000D01*
X1579875Y50442D01*
Y50985D01*
X1579821Y51115D01*
X1579848Y51253D01*
X1579610Y52449D01*
X1579543Y52959D01*
X1579477Y53119D01*
X1579464Y53185D01*
X1579426Y53242D01*
X1579386Y53339D01*
Y53443D01*
X1578632Y55263D01*
X1578559Y55336D01*
X1578518Y55434D01*
X1578505Y55501D01*
X1578467Y55557D01*
X1578401Y55716D01*
X1578088Y56125D01*
X1577410Y57138D01*
X1577293Y57217D01*
X1577240Y57347D01*
X1576855Y57731D01*
X1576584Y58084D01*
X1576231Y58355D01*
X1575847Y58740D01*
X1575717Y58794D01*
X1575638Y58911D01*
X1574625Y59588D01*
X1574216Y59901D01*
X1574057Y59967D01*
X1574001Y60005D01*
X1573934Y60018D01*
X1573836Y60059D01*
X1573763Y60132D01*
X1571943Y60886D01*
X1571839D01*
X1571742Y60926D01*
X1571685Y60964D01*
X1571618Y60977D01*
X1571459Y61043D01*
X1570949Y61110D01*
X1569753Y61348D01*
X1569615Y61321D01*
X1569485Y61375D01*
X1568941D01*
X1568500Y61433D01*
D02*
G37*
G36*
X813485Y61375D02*
X811515D01*
X811385Y61321D01*
X811247Y61348D01*
X809315Y60964D01*
X809198Y60886D01*
X809057D01*
X807237Y60132D01*
X807138Y60032D01*
X807000Y60005D01*
X805362Y58911D01*
X805283Y58794D01*
X805153Y58740D01*
X804435Y58021D01*
X804426Y58014D01*
X804418Y58005D01*
X803760Y57347D01*
X803707Y57217D01*
X803589Y57138D01*
X802495Y55501D01*
X802468Y55362D01*
X802368Y55263D01*
X801614Y53443D01*
Y53302D01*
X801536Y53185D01*
X801487Y52937D01*
X801467Y52889D01*
X801446Y52734D01*
X801152Y51253D01*
X801179Y51115D01*
X801125Y50985D01*
Y50296D01*
X801077Y49930D01*
X801125Y49564D01*
Y49015D01*
X801179Y48885D01*
X801152Y48747D01*
X801392Y47540D01*
X801467Y46971D01*
X801614Y46615D01*
Y46557D01*
X802368Y44737D01*
X802409Y44696D01*
X802609Y44214D01*
X803207Y43434D01*
X803589Y42862D01*
X803706Y42784D01*
X803707Y42783D01*
X803760Y42653D01*
X803956Y42457D01*
X804426Y41846D01*
X805037Y41376D01*
X805153Y41260D01*
X805230Y41229D01*
X805309Y41168D01*
X805362Y41090D01*
X805746Y40833D01*
X805885Y40726D01*
X805943Y40469D01*
X805753Y39227D01*
X804833Y38612D01*
X803945Y37283D01*
X803633Y35714D01*
X803945Y34146D01*
X804833Y32816D01*
X806163Y31927D01*
X807731Y31615D01*
X809300Y31927D01*
X810630Y32816D01*
X811518Y34146D01*
X811830Y35714D01*
X811518Y37283D01*
X811471Y37353D01*
X812207Y38537D01*
X812510Y38497D01*
X813484Y38625D01*
X813485D01*
X813485Y38626D01*
X813726Y38657D01*
X813753Y38652D01*
X813887Y38678D01*
X815469Y38887D01*
X818226Y40029D01*
X819409Y40937D01*
X819638Y41090D01*
X819669Y41136D01*
X819814Y41247D01*
X819847Y41260D01*
X819896Y41310D01*
X820594Y41846D01*
X821130Y42544D01*
X821239Y42653D01*
X821270Y42726D01*
X821335Y42811D01*
X821411Y42862D01*
X821658Y43232D01*
X822411Y44214D01*
X822625Y44731D01*
X822632Y44737D01*
X823386Y46557D01*
Y46566D01*
X823553Y46971D01*
X823667Y47838D01*
X823848Y48747D01*
X823821Y48885D01*
X823875Y49015D01*
Y49412D01*
X823943Y49930D01*
X823875Y50448D01*
Y50985D01*
X823821Y51115D01*
X823848Y51253D01*
X823613Y52437D01*
X823553Y52889D01*
X823495Y53030D01*
X823464Y53185D01*
X823386Y53302D01*
Y53443D01*
X822632Y55263D01*
X822532Y55362D01*
X822505Y55501D01*
X822417Y55632D01*
X822411Y55646D01*
X822382Y55684D01*
X821411Y57138D01*
X821293Y57217D01*
X821239Y57347D01*
X820668Y57919D01*
X820594Y58014D01*
X820499Y58088D01*
X819847Y58740D01*
X819716Y58794D01*
X819638Y58911D01*
X818000Y60005D01*
X817862Y60032D01*
X817763Y60132D01*
X815943Y60886D01*
X815802D01*
X815685Y60964D01*
X813753Y61348D01*
X813615Y61321D01*
X813485Y61375D01*
D02*
G37*
G36*
X3800500Y61433D02*
X3800059Y61375D01*
X3799515D01*
X3799385Y61321D01*
X3799247Y61348D01*
X3798051Y61110D01*
X3797541Y61043D01*
X3797382Y60977D01*
X3797315Y60964D01*
X3797258Y60926D01*
X3797161Y60886D01*
X3797057D01*
X3795237Y60132D01*
X3795164Y60059D01*
X3795066Y60018D01*
X3794999Y60005D01*
X3794943Y59967D01*
X3794784Y59901D01*
X3794376Y59588D01*
X3793362Y58911D01*
X3793283Y58794D01*
X3793153Y58740D01*
X3792769Y58355D01*
X3792416Y58084D01*
X3792145Y57731D01*
X3791760Y57347D01*
X3791707Y57217D01*
X3791589Y57138D01*
X3790912Y56124D01*
X3790599Y55716D01*
X3790533Y55557D01*
X3790495Y55501D01*
X3790482Y55434D01*
X3790441Y55336D01*
X3790368Y55263D01*
X3789614Y53443D01*
Y53339D01*
X3789574Y53242D01*
X3789536Y53185D01*
X3789523Y53118D01*
X3789457Y52959D01*
X3789390Y52449D01*
X3789152Y51253D01*
X3789179Y51115D01*
X3789125Y50985D01*
Y50442D01*
X3789067Y50000D01*
X3789125Y49558D01*
Y49015D01*
X3789179Y48885D01*
X3789152Y48747D01*
X3789390Y47552D01*
X3789457Y47041D01*
X3789523Y46881D01*
X3789536Y46815D01*
X3789574Y46759D01*
X3789614Y46661D01*
Y46557D01*
X3790368Y44737D01*
X3790441Y44664D01*
X3790482Y44566D01*
X3790495Y44500D01*
X3790533Y44443D01*
X3790599Y44284D01*
X3790912Y43875D01*
X3791589Y42862D01*
X3791707Y42783D01*
X3791760Y42653D01*
X3792144Y42270D01*
X3792416Y41916D01*
X3792769Y41644D01*
X3793153Y41260D01*
X3793283Y41207D01*
X3793362Y41090D01*
X3794374Y40413D01*
X3794784Y40099D01*
X3794943Y40033D01*
X3794999Y39995D01*
X3795066Y39982D01*
X3795164Y39941D01*
X3795237Y39868D01*
X3797057Y39114D01*
X3797161D01*
X3797259Y39074D01*
X3797315Y39036D01*
X3797381Y39023D01*
X3797541Y38957D01*
X3798053Y38889D01*
X3799247Y38652D01*
X3799385Y38679D01*
X3799515Y38625D01*
X3800058D01*
X3800500Y38567D01*
X3800942Y38625D01*
X3801485D01*
X3801615Y38679D01*
X3801753Y38652D01*
X3802947Y38889D01*
X3803459Y38957D01*
X3803619Y39023D01*
X3803685Y39036D01*
X3803741Y39074D01*
X3803839Y39114D01*
X3803943D01*
X3805763Y39868D01*
X3805836Y39941D01*
X3805934Y39982D01*
X3806000Y39995D01*
X3806057Y40033D01*
X3806216Y40099D01*
X3806626Y40413D01*
X3807638Y41090D01*
X3807717Y41207D01*
X3807847Y41260D01*
X3808230Y41644D01*
X3808584Y41916D01*
X3808856Y42270D01*
X3809240Y42653D01*
X3809294Y42783D01*
X3809410Y42862D01*
X3810087Y43874D01*
X3810401Y44284D01*
X3810467Y44443D01*
X3810505Y44500D01*
X3810518Y44566D01*
X3810559Y44664D01*
X3810632Y44737D01*
X3811386Y46557D01*
Y46661D01*
X3811426Y46759D01*
X3811464Y46815D01*
X3811477Y46881D01*
X3811543Y47041D01*
X3811610Y47552D01*
X3811848Y48747D01*
X3811821Y48885D01*
X3811875Y49015D01*
Y49558D01*
X3811933Y50000D01*
X3811875Y50442D01*
Y50985D01*
X3811821Y51115D01*
X3811848Y51253D01*
X3811610Y52449D01*
X3811543Y52959D01*
X3811477Y53119D01*
X3811464Y53185D01*
X3811426Y53242D01*
X3811386Y53339D01*
Y53443D01*
X3810632Y55263D01*
X3810558Y55336D01*
X3810518Y55434D01*
X3810505Y55501D01*
X3810467Y55557D01*
X3810401Y55716D01*
X3810088Y56125D01*
X3809410Y57138D01*
X3809294Y57217D01*
X3809240Y57347D01*
X3808855Y57731D01*
X3808584Y58084D01*
X3808231Y58355D01*
X3807847Y58740D01*
X3807716Y58794D01*
X3807638Y58911D01*
X3806624Y59588D01*
X3806216Y59901D01*
X3806057Y59967D01*
X3806000Y60005D01*
X3805934Y60018D01*
X3805836Y60059D01*
X3805763Y60132D01*
X3803943Y60886D01*
X3803839D01*
X3803742Y60926D01*
X3803685Y60964D01*
X3803618Y60977D01*
X3803459Y61043D01*
X3802949Y61110D01*
X3801753Y61348D01*
X3801615Y61321D01*
X3801485Y61375D01*
X3800941D01*
X3800500Y61433D01*
D02*
G37*
G36*
X84081Y68138D02*
X82610Y67845D01*
X81363Y67012D01*
X80530Y65765D01*
X80237Y64294D01*
X80530Y62823D01*
X81363Y61576D01*
X82610Y60743D01*
X84081Y60450D01*
X85552Y60743D01*
X86799Y61576D01*
X87632Y62823D01*
X87925Y64294D01*
X87632Y65765D01*
X86799Y67012D01*
X85552Y67845D01*
X84081Y68138D01*
D02*
G37*
G36*
X662735Y62581D02*
Y59770D01*
X665545D01*
X665468Y60158D01*
X664529Y61564D01*
X663123Y62503D01*
X662735Y62581D01*
D02*
G37*
G36*
X660194D02*
X659806Y62503D01*
X658400Y61564D01*
X657461Y60158D01*
X657384Y59770D01*
X660194D01*
Y62581D01*
D02*
G37*
G36*
X651735D02*
Y59770D01*
X654545D01*
X654468Y60158D01*
X653529Y61564D01*
X652123Y62503D01*
X651735Y62581D01*
D02*
G37*
G36*
X649195D02*
X648806Y62503D01*
X647401Y61564D01*
X646461Y60158D01*
X646384Y59770D01*
X649195D01*
Y62581D01*
D02*
G37*
G36*
X3453724Y67244D02*
X3452253Y66951D01*
X3451006Y66118D01*
X3450173Y64871D01*
X3449880Y63400D01*
X3450173Y61929D01*
X3451006Y60682D01*
X3452253Y59849D01*
X3453724Y59556D01*
X3455195Y59849D01*
X3456442Y60682D01*
X3457275Y61929D01*
X3457568Y63400D01*
X3457275Y64871D01*
X3456442Y66118D01*
X3455195Y66951D01*
X3453724Y67244D01*
D02*
G37*
G36*
X4598104Y66519D02*
X4596632Y66227D01*
X4595385Y65394D01*
X4594552Y64147D01*
X4594260Y62676D01*
X4594552Y61205D01*
X4595385Y59958D01*
X4596632Y59124D01*
X4598104Y58832D01*
X4599574Y59124D01*
X4600822Y59958D01*
X4601655Y61205D01*
X4601947Y62676D01*
X4601655Y64147D01*
X4600822Y65394D01*
X4599574Y66227D01*
X4598104Y66519D01*
D02*
G37*
G36*
X2390226Y66244D02*
X2388755Y65951D01*
X2387508Y65118D01*
X2386675Y63871D01*
X2386382Y62400D01*
X2386675Y60929D01*
X2387508Y59682D01*
X2388755Y58849D01*
X2390226Y58556D01*
X2391697Y58849D01*
X2392944Y59682D01*
X2393777Y60929D01*
X2394070Y62400D01*
X2393777Y63871D01*
X2392944Y65118D01*
X2391697Y65951D01*
X2390226Y66244D01*
D02*
G37*
G36*
X1152429Y65444D02*
X1150957Y65151D01*
X1149710Y64318D01*
X1148877Y63071D01*
X1148585Y61600D01*
X1148877Y60129D01*
X1149710Y58882D01*
X1150957Y58049D01*
X1152429Y57756D01*
X1153900Y58049D01*
X1155146Y58882D01*
X1155980Y60129D01*
X1156272Y61600D01*
X1155980Y63071D01*
X1155146Y64318D01*
X1153900Y65151D01*
X1152429Y65444D01*
D02*
G37*
G36*
X613573Y65878D02*
X612004Y65566D01*
X610675Y64677D01*
X609786Y63348D01*
X609474Y61779D01*
X609786Y60210D01*
X610675Y58881D01*
X612004Y57992D01*
X613573Y57680D01*
X615141Y57992D01*
X616471Y58881D01*
X617360Y60210D01*
X617672Y61779D01*
X617360Y63348D01*
X616471Y64677D01*
X615141Y65566D01*
X613573Y65878D01*
D02*
G37*
G36*
X2405126Y58799D02*
X2403557Y58487D01*
X2402475Y57763D01*
X2401044Y57618D01*
X2399797Y58451D01*
X2398326Y58744D01*
X2396855Y58451D01*
X2395608Y57618D01*
X2394775Y56371D01*
X2394482Y54900D01*
X2394775Y53429D01*
X2395608Y52182D01*
X2396855Y51349D01*
X2398326Y51056D01*
X2399797Y51349D01*
X2401044Y52182D01*
X2401413D01*
X2402290Y51760D01*
X2403557Y50913D01*
X2405126Y50601D01*
X2406694Y50913D01*
X2408024Y51802D01*
X2408913Y53131D01*
X2409225Y54700D01*
X2408913Y56269D01*
X2408024Y57598D01*
X2406694Y58487D01*
X2405126Y58799D01*
D02*
G37*
G36*
X3971494Y60263D02*
Y57452D01*
X3974305D01*
X3974228Y57840D01*
X3973289Y59246D01*
X3971883Y60185D01*
X3971494Y60263D01*
D02*
G37*
G36*
X3968954Y60263D02*
X3968566Y60185D01*
X3967161Y59246D01*
X3966221Y57840D01*
X3966144Y57452D01*
X3968954D01*
Y60263D01*
D02*
G37*
G36*
X3982495Y60263D02*
Y57452D01*
X3985305D01*
X3985228Y57840D01*
X3984289Y59246D01*
X3982883Y60185D01*
X3982495Y60263D01*
D02*
G37*
G36*
X3979955Y60263D02*
X3979566Y60185D01*
X3978160Y59246D01*
X3977221Y57840D01*
X3977144Y57452D01*
X3979955D01*
Y60263D01*
D02*
G37*
G36*
X1978327Y64599D02*
X1976758Y64287D01*
X1975429Y63398D01*
X1974540Y62069D01*
X1974228Y60500D01*
X1974540Y58931D01*
X1975429Y57602D01*
X1976758Y56713D01*
X1978327Y56401D01*
X1979895Y56713D01*
X1981225Y57602D01*
X1982114Y58931D01*
X1982426Y60500D01*
X1982114Y62069D01*
X1981225Y63398D01*
X1979895Y64287D01*
X1978327Y64599D01*
D02*
G37*
G36*
X4045844Y62776D02*
X4044373Y62483D01*
X4043126Y61650D01*
X4042292Y60403D01*
X4042000Y58932D01*
X4042292Y57461D01*
X4043126Y56214D01*
X4044373Y55381D01*
X4045844Y55088D01*
X4047315Y55381D01*
X4048562Y56214D01*
X4049395Y57461D01*
X4049688Y58932D01*
X4049395Y60403D01*
X4048562Y61650D01*
X4047315Y62483D01*
X4045844Y62776D01*
D02*
G37*
G36*
X1178428Y59869D02*
X1177445Y59674D01*
X1176612Y59117D01*
X1176055Y58283D01*
X1175859Y57300D01*
X1176055Y56317D01*
X1176612Y55483D01*
X1177445Y54926D01*
X1178428Y54731D01*
X1179412Y54926D01*
X1180245Y55483D01*
X1180802Y56317D01*
X1180998Y57300D01*
X1180802Y58283D01*
X1180245Y59117D01*
X1179412Y59674D01*
X1178428Y59869D01*
D02*
G37*
G36*
X3462477Y62335D02*
X3461006Y62042D01*
X3459760Y61209D01*
X3458926Y59962D01*
X3458634Y58491D01*
X3458926Y57020D01*
X3459760Y55773D01*
X3461006Y54940D01*
X3462477Y54647D01*
X3463948Y54940D01*
X3465196Y55773D01*
X3466029Y57020D01*
X3466321Y58491D01*
X3466029Y59962D01*
X3465196Y61209D01*
X3463948Y62042D01*
X3462477Y62335D01*
D02*
G37*
G36*
X665545Y57230D02*
X662735D01*
Y54419D01*
X663123Y54497D01*
X664529Y55436D01*
X665468Y56842D01*
X665545Y57230D01*
D02*
G37*
G36*
X660194D02*
X657384D01*
X657461Y56842D01*
X658400Y55436D01*
X659806Y54497D01*
X660194Y54419D01*
Y57230D01*
D02*
G37*
G36*
X654545D02*
X651735D01*
Y54419D01*
X652123Y54497D01*
X653529Y55436D01*
X654468Y56842D01*
X654545Y57230D01*
D02*
G37*
G36*
X649195D02*
X646384D01*
X646461Y56842D01*
X647401Y55436D01*
X648806Y54497D01*
X649195Y54419D01*
Y57230D01*
D02*
G37*
G36*
X1898497Y62554D02*
X1896929Y62242D01*
X1895599Y61354D01*
X1894711Y60024D01*
X1894399Y58456D01*
X1894711Y56887D01*
X1895599Y55557D01*
X1896929Y54669D01*
X1898497Y54357D01*
X1900066Y54669D01*
X1901396Y55557D01*
X1902284Y56887D01*
X1902596Y58456D01*
X1902284Y60024D01*
X1901396Y61354D01*
X1900066Y62242D01*
X1898497Y62554D01*
D02*
G37*
G36*
X1134128Y61544D02*
X1132657Y61251D01*
X1131411Y60418D01*
X1130577Y59171D01*
X1130285Y57700D01*
X1130577Y56229D01*
X1131411Y54982D01*
X1132657Y54149D01*
X1134128Y53856D01*
X1135600Y54149D01*
X1136846Y54982D01*
X1137680Y56229D01*
X1137972Y57700D01*
X1137680Y59171D01*
X1136846Y60418D01*
X1135600Y61251D01*
X1134128Y61544D01*
D02*
G37*
G36*
X1519183Y56199D02*
X1517614Y55887D01*
X1516285Y54998D01*
X1515396Y53669D01*
X1515299Y53182D01*
X1514004D01*
X1513927Y53571D01*
X1513094Y54818D01*
X1511847Y55651D01*
X1510376Y55944D01*
X1508905Y55651D01*
X1507658Y54818D01*
X1506825Y53571D01*
X1506532Y52100D01*
X1506825Y50629D01*
X1507658Y49382D01*
X1508905Y48549D01*
X1510376Y48256D01*
X1511847Y48549D01*
X1513094Y49382D01*
X1513927Y50629D01*
X1514005Y51018D01*
X1515299D01*
X1515396Y50532D01*
X1516285Y49202D01*
X1517614Y48313D01*
X1519183Y48001D01*
X1520751Y48313D01*
X1522081Y49202D01*
X1522970Y50532D01*
X1523282Y52100D01*
X1522970Y53669D01*
X1522081Y54998D01*
X1520751Y55887D01*
X1519183Y56199D01*
D02*
G37*
G36*
X859519Y60486D02*
X858048Y60193D01*
X856801Y59360D01*
X855967Y58113D01*
X855675Y56642D01*
X855967Y55171D01*
X856801Y53924D01*
X858048Y53091D01*
X859519Y52798D01*
X860990Y53091D01*
X862237Y53924D01*
X863070Y55171D01*
X863363Y56642D01*
X863070Y58113D01*
X862237Y59360D01*
X860990Y60193D01*
X859519Y60486D01*
D02*
G37*
G36*
X582089Y60205D02*
X580617Y59913D01*
X579370Y59079D01*
X578537Y57832D01*
X578245Y56361D01*
X578537Y54890D01*
X579370Y53643D01*
X580617Y52810D01*
X582089Y52517D01*
X583559Y52810D01*
X584807Y53643D01*
X585640Y54890D01*
X585932Y56361D01*
X585640Y57832D01*
X584807Y59079D01*
X583559Y59913D01*
X582089Y60205D01*
D02*
G37*
G36*
X3968954Y54912D02*
X3966144D01*
X3966221Y54524D01*
X3967161Y53118D01*
X3968566Y52179D01*
X3968954Y52101D01*
Y54912D01*
D02*
G37*
G36*
X3979955Y54912D02*
X3977144D01*
X3977221Y54524D01*
X3978160Y53118D01*
X3979566Y52179D01*
X3979955Y52101D01*
Y54912D01*
D02*
G37*
G36*
X3985305D02*
X3982495D01*
Y52101D01*
X3982883Y52179D01*
X3984289Y53118D01*
X3985228Y54524D01*
X3985305Y54912D01*
D02*
G37*
G36*
X3974305Y54912D02*
X3971494D01*
Y52101D01*
X3971883Y52179D01*
X3973289Y53118D01*
X3974228Y54524D01*
X3974305Y54912D01*
D02*
G37*
G36*
X1930235Y54451D02*
Y51640D01*
X1933045D01*
X1932968Y52028D01*
X1932029Y53434D01*
X1930623Y54373D01*
X1930235Y54451D01*
D02*
G37*
G36*
X1927695D02*
X1927306Y54373D01*
X1925901Y53434D01*
X1924961Y52028D01*
X1924884Y51640D01*
X1927695D01*
Y54451D01*
D02*
G37*
G36*
X1919234D02*
Y51640D01*
X1922045D01*
X1921968Y52028D01*
X1921029Y53434D01*
X1919623Y54373D01*
X1919234Y54451D01*
D02*
G37*
G36*
X1916694D02*
X1916306Y54373D01*
X1914901Y53434D01*
X1913961Y52028D01*
X1913884Y51640D01*
X1916694D01*
Y54451D01*
D02*
G37*
G36*
X2132059Y59156D02*
X2130588Y58863D01*
X2129341Y58030D01*
X2128508Y56783D01*
X2128215Y55312D01*
X2128508Y53841D01*
X2129341Y52594D01*
X2130588Y51761D01*
X2132059Y51468D01*
X2133530Y51761D01*
X2134777Y52594D01*
X2135610Y53841D01*
X2135903Y55312D01*
X2135610Y56783D01*
X2134777Y58030D01*
X2133530Y58863D01*
X2132059Y59156D01*
D02*
G37*
G36*
X2245426Y59089D02*
X2243955Y58796D01*
X2242708Y57963D01*
X2241875Y56716D01*
X2241582Y55245D01*
X2241875Y53774D01*
X2242708Y52527D01*
X2243955Y51694D01*
X2245426Y51401D01*
X2246897Y51694D01*
X2248144Y52527D01*
X2248978Y53774D01*
X2249270Y55245D01*
X2248978Y56716D01*
X2248144Y57963D01*
X2246897Y58796D01*
X2245426Y59089D01*
D02*
G37*
G36*
X499795Y57872D02*
X498324Y57580D01*
X497077Y56746D01*
X496244Y55499D01*
X495952Y54028D01*
X496244Y52557D01*
X497077Y51310D01*
X498324Y50477D01*
X499795Y50185D01*
X501266Y50477D01*
X502513Y51310D01*
X503347Y52557D01*
X503639Y54028D01*
X503347Y55499D01*
X502513Y56746D01*
X501266Y57580D01*
X499795Y57872D01*
D02*
G37*
G36*
X2414586Y57832D02*
X2413115Y57539D01*
X2411868Y56706D01*
X2411034Y55459D01*
X2410742Y53988D01*
X2411034Y52517D01*
X2411868Y51270D01*
X2413115Y50437D01*
X2414586Y50144D01*
X2416057Y50437D01*
X2417304Y51270D01*
X2418137Y52517D01*
X2418429Y53988D01*
X2418137Y55459D01*
X2417304Y56706D01*
X2416057Y57539D01*
X2414586Y57832D01*
D02*
G37*
G36*
X4598022Y56944D02*
X4596551Y56651D01*
X4595304Y55818D01*
X4594470Y54571D01*
X4594178Y53100D01*
X4594470Y51629D01*
X4595304Y50382D01*
X4596551Y49549D01*
X4598022Y49256D01*
X4599492Y49549D01*
X4600740Y50382D01*
X4601573Y51629D01*
X4601866Y53100D01*
X4601573Y54571D01*
X4600740Y55818D01*
X4599492Y56651D01*
X4598022Y56944D01*
D02*
G37*
G36*
X4407918Y56655D02*
X4406447Y56362D01*
X4405200Y55529D01*
X4404367Y54282D01*
X4404074Y52811D01*
X4404367Y51340D01*
X4405200Y50093D01*
X4406447Y49260D01*
X4407918Y48967D01*
X4409389Y49260D01*
X4410636Y50093D01*
X4411469Y51340D01*
X4411762Y52811D01*
X4411469Y54282D01*
X4410636Y55529D01*
X4409389Y56362D01*
X4407918Y56655D01*
D02*
G37*
G36*
X662735Y51581D02*
Y48770D01*
X665545D01*
X665468Y49158D01*
X664529Y50564D01*
X663123Y51504D01*
X662735Y51581D01*
D02*
G37*
G36*
X660194D02*
X659806Y51504D01*
X658400Y50564D01*
X657461Y49158D01*
X657384Y48770D01*
X660194D01*
Y51581D01*
D02*
G37*
G36*
X651735D02*
Y48770D01*
X654545D01*
X654468Y49158D01*
X653529Y50564D01*
X652123Y51504D01*
X651735Y51581D01*
D02*
G37*
G36*
X649195D02*
X648806Y51504D01*
X647401Y50564D01*
X646461Y49158D01*
X646384Y48770D01*
X649195D01*
Y51581D01*
D02*
G37*
G36*
X784377Y56422D02*
X782906Y56129D01*
X781659Y55296D01*
X780826Y54049D01*
X780534Y52578D01*
X780826Y51107D01*
X781659Y49860D01*
X782906Y49027D01*
X784377Y48734D01*
X785848Y49027D01*
X787095Y49860D01*
X787929Y51107D01*
X788221Y52578D01*
X787929Y54049D01*
X787095Y55296D01*
X785848Y56129D01*
X784377Y56422D01*
D02*
G37*
G36*
X4065123Y56799D02*
X4063554Y56487D01*
X4062224Y55598D01*
X4061336Y54268D01*
X4061024Y52700D01*
X4061336Y51131D01*
X4062224Y49802D01*
X4063554Y48913D01*
X4065123Y48601D01*
X4066691Y48913D01*
X4068021Y49802D01*
X4068488Y50502D01*
X4068583Y50534D01*
X4069958Y50415D01*
X4070529Y49560D01*
X4071859Y48671D01*
X4073427Y48359D01*
X4074996Y48671D01*
X4076326Y49560D01*
X4077214Y50890D01*
X4077526Y52458D01*
X4077214Y54027D01*
X4076326Y55356D01*
X4074996Y56245D01*
X4073427Y56557D01*
X4071859Y56245D01*
X4070529Y55356D01*
X4070061Y54656D01*
X4069967Y54625D01*
X4068592Y54743D01*
X4068021Y55598D01*
X4066691Y56487D01*
X4065123Y56799D01*
D02*
G37*
G36*
X483893Y55864D02*
X482422Y55572D01*
X481175Y54738D01*
X480341Y53491D01*
X480049Y52020D01*
X480341Y50549D01*
X481175Y49302D01*
X482422Y48469D01*
X483893Y48177D01*
X485364Y48469D01*
X486611Y49302D01*
X487444Y50549D01*
X487737Y52020D01*
X487444Y53491D01*
X486611Y54738D01*
X485364Y55572D01*
X483893Y55864D01*
D02*
G37*
G36*
X2490287Y55744D02*
X2488816Y55451D01*
X2487569Y54618D01*
X2486736Y53371D01*
X2486443Y51900D01*
X2486736Y50429D01*
X2487569Y49182D01*
X2488816Y48349D01*
X2490287Y48056D01*
X2491758Y48349D01*
X2493005Y49182D01*
X2493839Y50429D01*
X2494131Y51900D01*
X2493839Y53371D01*
X2493005Y54618D01*
X2491758Y55451D01*
X2490287Y55744D01*
D02*
G37*
G36*
X4429522Y55744D02*
X4428051Y55451D01*
X4426804Y54618D01*
X4425971Y53371D01*
X4425678Y51900D01*
X4425971Y50429D01*
X4426804Y49182D01*
X4428051Y48349D01*
X4429522Y48056D01*
X4430993Y48349D01*
X4432240Y49182D01*
X4433073Y50429D01*
X4433366Y51900D01*
X4433073Y53371D01*
X4432240Y54618D01*
X4430993Y55451D01*
X4429522Y55744D01*
D02*
G37*
G36*
X1529465Y55694D02*
X1527994Y55401D01*
X1526747Y54568D01*
X1525913Y53321D01*
X1525621Y51850D01*
X1525913Y50379D01*
X1526747Y49132D01*
X1527994Y48299D01*
X1529465Y48006D01*
X1530936Y48299D01*
X1532183Y49132D01*
X1533016Y50379D01*
X1533308Y51850D01*
X1533016Y53321D01*
X1532183Y54568D01*
X1530936Y55401D01*
X1529465Y55694D01*
D02*
G37*
G36*
X625238Y55102D02*
X623768Y54810D01*
X622520Y53976D01*
X621687Y52729D01*
X621395Y51258D01*
X621687Y49788D01*
X622520Y48540D01*
X623768Y47707D01*
X625238Y47415D01*
X626710Y47707D01*
X627957Y48540D01*
X628790Y49788D01*
X629082Y51258D01*
X628790Y52729D01*
X627957Y53976D01*
X626710Y54810D01*
X625238Y55102D01*
D02*
G37*
G36*
X196564Y54682D02*
X195093Y54389D01*
X193846Y53556D01*
X193013Y52309D01*
X192720Y50838D01*
X193013Y49367D01*
X193846Y48120D01*
X195093Y47287D01*
X196564Y46994D01*
X198035Y47287D01*
X199282Y48120D01*
X200115Y49367D01*
X200408Y50838D01*
X200115Y52309D01*
X199282Y53556D01*
X198035Y54389D01*
X196564Y54682D01*
D02*
G37*
G36*
X3971494Y49263D02*
Y46452D01*
X3974305D01*
X3974228Y46840D01*
X3973289Y48246D01*
X3971883Y49186D01*
X3971494Y49263D01*
D02*
G37*
G36*
X3968954Y49263D02*
X3968566Y49186D01*
X3967161Y48246D01*
X3966221Y46840D01*
X3966144Y46452D01*
X3968954D01*
Y49263D01*
D02*
G37*
G36*
X3982495Y49263D02*
Y46452D01*
X3985305D01*
X3985228Y46840D01*
X3984289Y48246D01*
X3982883Y49186D01*
X3982495Y49263D01*
D02*
G37*
G36*
X3979955Y49263D02*
X3979566Y49186D01*
X3978160Y48246D01*
X3977221Y46840D01*
X3977144Y46452D01*
X3979955D01*
Y49263D01*
D02*
G37*
G36*
X889815Y54094D02*
X888344Y53801D01*
X887097Y52968D01*
X886264Y51721D01*
X885971Y50250D01*
X886264Y48779D01*
X887097Y47532D01*
X888344Y46699D01*
X889815Y46406D01*
X891286Y46699D01*
X892533Y47532D01*
X893366Y48779D01*
X893659Y50250D01*
X893366Y51721D01*
X892533Y52968D01*
X891286Y53801D01*
X889815Y54094D01*
D02*
G37*
G36*
X1933045Y49100D02*
X1930235D01*
Y46289D01*
X1930623Y46367D01*
X1932029Y47306D01*
X1932968Y48712D01*
X1933045Y49100D01*
D02*
G37*
G36*
X1927695D02*
X1924884D01*
X1924961Y48712D01*
X1925901Y47306D01*
X1927306Y46367D01*
X1927695Y46289D01*
Y49100D01*
D02*
G37*
G36*
X1922045D02*
X1919234D01*
Y46289D01*
X1919623Y46367D01*
X1921029Y47306D01*
X1921968Y48712D01*
X1922045Y49100D01*
D02*
G37*
G36*
X1916694D02*
X1913884D01*
X1913961Y48712D01*
X1914901Y47306D01*
X1916306Y46367D01*
X1916694Y46289D01*
Y49100D01*
D02*
G37*
G36*
X4105522Y54199D02*
X4103954Y53887D01*
X4102624Y52998D01*
X4101736Y51669D01*
X4101424Y50100D01*
X4101736Y48531D01*
X4102624Y47202D01*
X4103954Y46313D01*
X4105522Y46001D01*
X4107091Y46313D01*
X4108421Y47202D01*
X4109309Y48531D01*
X4109621Y50100D01*
X4109309Y51669D01*
X4108421Y52998D01*
X4107091Y53887D01*
X4105522Y54199D01*
D02*
G37*
G36*
X752757Y55357D02*
X751188Y55045D01*
X749858Y54157D01*
X748970Y52827D01*
X748658Y51258D01*
X748763Y50733D01*
X747931Y49604D01*
X746362Y49292D01*
X745033Y48403D01*
X744144Y47073D01*
X743945Y46074D01*
X743799Y45495D01*
X742609Y45143D01*
X742089Y45247D01*
X740520Y44935D01*
X739191Y44046D01*
X738302Y42717D01*
X737990Y41148D01*
X738302Y39580D01*
X739191Y38250D01*
X740520Y37361D01*
X742089Y37049D01*
X743657Y37361D01*
X744987Y38250D01*
X745875Y39580D01*
X746074Y40579D01*
X746221Y41158D01*
X747411Y41509D01*
X747931Y41406D01*
X749499Y41718D01*
X750829Y42607D01*
X751718Y43936D01*
X752029Y45505D01*
X751925Y46030D01*
X752757Y47160D01*
X754325Y47472D01*
X755655Y48360D01*
X756544Y49690D01*
X756855Y51258D01*
X756544Y52827D01*
X755655Y54157D01*
X754325Y55045D01*
X752757Y55357D01*
D02*
G37*
G36*
X2352326Y53199D02*
X2350758Y52887D01*
X2349428Y51998D01*
X2348539Y50669D01*
X2348227Y49100D01*
X2348539Y47531D01*
X2349428Y46202D01*
X2350758Y45313D01*
X2352326Y45001D01*
X2353895Y45313D01*
X2355224Y46202D01*
X2356113Y47531D01*
X2356425Y49100D01*
X2356113Y50669D01*
X2355224Y51998D01*
X2353895Y52887D01*
X2352326Y53199D01*
D02*
G37*
G36*
X1981043Y52502D02*
X1979572Y52209D01*
X1978325Y51376D01*
X1977492Y50129D01*
X1977200Y48658D01*
X1977492Y47187D01*
X1978325Y45940D01*
X1979572Y45107D01*
X1981043Y44814D01*
X1982514Y45107D01*
X1983761Y45940D01*
X1984595Y47187D01*
X1984887Y48658D01*
X1984595Y50129D01*
X1983761Y51376D01*
X1982514Y52209D01*
X1981043Y52502D01*
D02*
G37*
G36*
X2064527Y52999D02*
X2062958Y52687D01*
X2061628Y51798D01*
X2060740Y50469D01*
X2060428Y48900D01*
X2060740Y47332D01*
X2061628Y46002D01*
X2062958Y45113D01*
X2064527Y44801D01*
X2066095Y45113D01*
X2067425Y46002D01*
X2068313Y47332D01*
X2068625Y48900D01*
X2068313Y50469D01*
X2067425Y51798D01*
X2066095Y52687D01*
X2064527Y52999D01*
D02*
G37*
G36*
X2076127Y52799D02*
X2074558Y52487D01*
X2073228Y51598D01*
X2072340Y50269D01*
X2072028Y48700D01*
X2072340Y47132D01*
X2073228Y45802D01*
X2074558Y44913D01*
X2076127Y44601D01*
X2077695Y44913D01*
X2079025Y45802D01*
X2079913Y47132D01*
X2080225Y48700D01*
X2079913Y50269D01*
X2079025Y51598D01*
X2077695Y52487D01*
X2076127Y52799D01*
D02*
G37*
G36*
X941629Y52144D02*
X940158Y51851D01*
X938911Y51018D01*
X938078Y49771D01*
X937785Y48300D01*
X938078Y46829D01*
X938911Y45582D01*
X940158Y44749D01*
X941629Y44456D01*
X943100Y44749D01*
X944347Y45582D01*
X945180Y46829D01*
X945473Y48300D01*
X945180Y49771D01*
X944347Y51018D01*
X943100Y51851D01*
X941629Y52144D01*
D02*
G37*
G36*
X526464Y52104D02*
X524993Y51811D01*
X523746Y50978D01*
X522913Y49731D01*
X522620Y48260D01*
X522913Y46789D01*
X523746Y45542D01*
X524993Y44709D01*
X526464Y44416D01*
X527935Y44709D01*
X529182Y45542D01*
X530015Y46789D01*
X530308Y48260D01*
X530015Y49731D01*
X529182Y50978D01*
X527935Y51811D01*
X526464Y52104D01*
D02*
G37*
G36*
X665545Y46230D02*
X662735D01*
Y43419D01*
X663123Y43497D01*
X664529Y44436D01*
X665468Y45842D01*
X665545Y46230D01*
D02*
G37*
G36*
X660194D02*
X657384D01*
X657461Y45842D01*
X658400Y44436D01*
X659806Y43497D01*
X660194Y43419D01*
Y46230D01*
D02*
G37*
G36*
X654545D02*
X651735D01*
Y43419D01*
X652123Y43497D01*
X653529Y44436D01*
X654468Y45842D01*
X654545Y46230D01*
D02*
G37*
G36*
X649195D02*
X646384D01*
X646461Y45842D01*
X647401Y44436D01*
X648806Y43497D01*
X649195Y43419D01*
Y46230D01*
D02*
G37*
G36*
X718892Y51599D02*
X717323Y51287D01*
X715994Y50399D01*
X715105Y49069D01*
X714793Y47500D01*
X715105Y45932D01*
X715994Y44602D01*
X717323Y43713D01*
X718892Y43401D01*
X720461Y43713D01*
X721790Y44602D01*
X722679Y45932D01*
X722991Y47500D01*
X722679Y49069D01*
X721790Y50399D01*
X720461Y51287D01*
X718892Y51599D01*
D02*
G37*
G36*
X879284Y51086D02*
X877813Y50794D01*
X876566Y49960D01*
X875733Y48713D01*
X875440Y47242D01*
X875733Y45771D01*
X876566Y44524D01*
X877813Y43691D01*
X879284Y43398D01*
X880755Y43691D01*
X882002Y44524D01*
X882835Y45771D01*
X883128Y47242D01*
X882835Y48713D01*
X882002Y49960D01*
X880755Y50794D01*
X879284Y51086D01*
D02*
G37*
G36*
X2380126Y54144D02*
X2378655Y53851D01*
X2377408Y53018D01*
X2376575Y51771D01*
X2376282Y50300D01*
X2376575Y48829D01*
X2377408Y47582D01*
X2378655Y46749D01*
X2380126Y46456D01*
X2381019Y46634D01*
X2381620Y46720D01*
X2382391Y45752D01*
X2382475Y45329D01*
X2383308Y44082D01*
X2384555Y43249D01*
X2386026Y42956D01*
X2387497Y43249D01*
X2388744Y44082D01*
X2389577Y45329D01*
X2389870Y46800D01*
X2389577Y48271D01*
X2388744Y49518D01*
X2387497Y50351D01*
X2386026Y50644D01*
X2385133Y50466D01*
X2384532Y50380D01*
X2383761Y51348D01*
X2383677Y51771D01*
X2382844Y53018D01*
X2381597Y53851D01*
X2380126Y54144D01*
D02*
G37*
G36*
X2477479Y50374D02*
X2476008Y50081D01*
X2474761Y49248D01*
X2473928Y48001D01*
X2473636Y46530D01*
X2473928Y45059D01*
X2474761Y43812D01*
X2476008Y42979D01*
X2477479Y42686D01*
X2478950Y42979D01*
X2480197Y43812D01*
X2481031Y45059D01*
X2481323Y46530D01*
X2481031Y48001D01*
X2480197Y49248D01*
X2478950Y50081D01*
X2477479Y50374D01*
D02*
G37*
G36*
X2088927Y49444D02*
X2087456Y49151D01*
X2086209Y48318D01*
X2085375Y47071D01*
X2085083Y45600D01*
X2085375Y44129D01*
X2086209Y42882D01*
X2087456Y42049D01*
X2088927Y41756D01*
X2090398Y42049D01*
X2091645Y42882D01*
X2092478Y44129D01*
X2092771Y45600D01*
X2092478Y47071D01*
X2091645Y48318D01*
X2090398Y49151D01*
X2088927Y49444D01*
D02*
G37*
G36*
X4005923Y49899D02*
X4004354Y49587D01*
X4003025Y48698D01*
X4002136Y47368D01*
X4001824Y45800D01*
X4002136Y44232D01*
X4003025Y42902D01*
X4004354Y42013D01*
X4005923Y41701D01*
X4007491Y42013D01*
X4008821Y42902D01*
X4009709Y44232D01*
X4010021Y45800D01*
X4009709Y47368D01*
X4008821Y48698D01*
X4007491Y49587D01*
X4005923Y49899D01*
D02*
G37*
G36*
X1990727Y49244D02*
X1989256Y48951D01*
X1988009Y48118D01*
X1987176Y46871D01*
X1986883Y45400D01*
X1987176Y43929D01*
X1988009Y42682D01*
X1989256Y41849D01*
X1989796Y41741D01*
X1997052Y34485D01*
X1996575Y33771D01*
X1996283Y32300D01*
X1996575Y30829D01*
X1997409Y29582D01*
X1998656Y28749D01*
X2000127Y28456D01*
X2001598Y28749D01*
X2002845Y29582D01*
X2003678Y30829D01*
X2003971Y32300D01*
X2003678Y33771D01*
X2002845Y35018D01*
X2001598Y35851D01*
X2001483Y35874D01*
X2001401Y35996D01*
X2001401Y35996D01*
X1996743Y40654D01*
X1996919Y41030D01*
X1997492Y41702D01*
X1998727Y41456D01*
X2000198Y41749D01*
X2001445Y42582D01*
X2002278Y43829D01*
X2002571Y45300D01*
X2002278Y46771D01*
X2001445Y48018D01*
X2000198Y48851D01*
X1998727Y49144D01*
X1997256Y48851D01*
X1996009Y48018D01*
X1995466Y47205D01*
X1995252Y47145D01*
X1994090Y47192D01*
X1994055Y47205D01*
X1993445Y48118D01*
X1992198Y48951D01*
X1990727Y49244D01*
D02*
G37*
G36*
X686825Y49599D02*
X685257Y49287D01*
X683927Y48398D01*
X683039Y47069D01*
X682727Y45500D01*
X683039Y43932D01*
X683927Y42602D01*
X685257Y41713D01*
X686825Y41401D01*
X688394Y41713D01*
X689724Y42602D01*
X690612Y43932D01*
X690924Y45500D01*
X690612Y47069D01*
X689724Y48398D01*
X688394Y49287D01*
X686825Y49599D01*
D02*
G37*
G36*
X3968954Y43912D02*
X3966144D01*
X3966221Y43524D01*
X3967161Y42118D01*
X3968566Y41179D01*
X3968954Y41101D01*
Y43912D01*
D02*
G37*
G36*
X3979955Y43912D02*
X3977144D01*
X3977221Y43524D01*
X3978160Y42118D01*
X3979566Y41179D01*
X3979955Y41101D01*
Y43912D01*
D02*
G37*
G36*
X3985305D02*
X3982495D01*
Y41101D01*
X3982883Y41179D01*
X3984289Y42118D01*
X3985228Y43524D01*
X3985305Y43912D01*
D02*
G37*
G36*
X3974305Y43912D02*
X3971494D01*
Y41101D01*
X3971883Y41179D01*
X3973289Y42118D01*
X3974228Y43524D01*
X3974305Y43912D01*
D02*
G37*
G36*
X543607Y48594D02*
X542136Y48301D01*
X540889Y47468D01*
X540056Y46221D01*
X539763Y44750D01*
X540056Y43279D01*
X540889Y42032D01*
X542136Y41199D01*
X543607Y40906D01*
X545078Y41199D01*
X546325Y42032D01*
X547158Y43279D01*
X547451Y44750D01*
X547158Y46221D01*
X546325Y47468D01*
X545078Y48301D01*
X543607Y48594D01*
D02*
G37*
G36*
X1930235Y43451D02*
Y40640D01*
X1933045D01*
X1932968Y41028D01*
X1932029Y42434D01*
X1930623Y43373D01*
X1930235Y43451D01*
D02*
G37*
G36*
X1927695D02*
X1927306Y43373D01*
X1925901Y42434D01*
X1924961Y41028D01*
X1924884Y40640D01*
X1927695D01*
Y43451D01*
D02*
G37*
G36*
X1919234D02*
Y40640D01*
X1922045D01*
X1921968Y41028D01*
X1921029Y42434D01*
X1919623Y43373D01*
X1919234Y43451D01*
D02*
G37*
G36*
X1916694D02*
X1916306Y43373D01*
X1914901Y42434D01*
X1913961Y41028D01*
X1913884Y40640D01*
X1916694D01*
Y43451D01*
D02*
G37*
G36*
X2438126Y48144D02*
X2436655Y47851D01*
X2435408Y47018D01*
X2434575Y45771D01*
X2434282Y44300D01*
X2434575Y42829D01*
X2435408Y41582D01*
X2436655Y40749D01*
X2438126Y40456D01*
X2439597Y40749D01*
X2440844Y41582D01*
X2441677Y42829D01*
X2441970Y44300D01*
X2441677Y45771D01*
X2440844Y47018D01*
X2439597Y47851D01*
X2438126Y48144D01*
D02*
G37*
G36*
X2497226Y47944D02*
X2495755Y47651D01*
X2494508Y46818D01*
X2493675Y45571D01*
X2493382Y44100D01*
X2493675Y42629D01*
X2494508Y41382D01*
X2495755Y40549D01*
X2497226Y40256D01*
X2498697Y40549D01*
X2499944Y41382D01*
X2500777Y42629D01*
X2501070Y44100D01*
X2500777Y45571D01*
X2499944Y46818D01*
X2498697Y47651D01*
X2497226Y47944D01*
D02*
G37*
G36*
X1070929Y47344D02*
X1069458Y47051D01*
X1068211Y46218D01*
X1067377Y44971D01*
X1067085Y43500D01*
X1067377Y42029D01*
X1068211Y40782D01*
X1069458Y39949D01*
X1070929Y39656D01*
X1072400Y39949D01*
X1073647Y40782D01*
X1074480Y42029D01*
X1074772Y43500D01*
X1074480Y44971D01*
X1073647Y46218D01*
X1072400Y47051D01*
X1070929Y47344D01*
D02*
G37*
G36*
X2361226Y46644D02*
X2359755Y46351D01*
X2358508Y45518D01*
X2357675Y44271D01*
X2357382Y42800D01*
X2357675Y41329D01*
X2358508Y40082D01*
X2359755Y39249D01*
X2361226Y38956D01*
X2362697Y39249D01*
X2363944Y40082D01*
X2364777Y41329D01*
X2365070Y42800D01*
X2364777Y44271D01*
X2363944Y45518D01*
X2362697Y46351D01*
X2361226Y46644D01*
D02*
G37*
G36*
X499795Y45886D02*
X498324Y45594D01*
X497077Y44760D01*
X496244Y43513D01*
X495952Y42042D01*
X496244Y40571D01*
X497077Y39325D01*
X498324Y38491D01*
X499795Y38199D01*
X501266Y38491D01*
X502513Y39325D01*
X503347Y40571D01*
X503639Y42042D01*
X503347Y43513D01*
X502513Y44760D01*
X501266Y45594D01*
X499795Y45886D01*
D02*
G37*
G36*
X1082229Y44999D02*
X1080660Y44687D01*
X1079330Y43798D01*
X1078442Y42469D01*
X1078130Y40900D01*
X1078442Y39332D01*
X1079330Y38002D01*
X1080660Y37113D01*
X1082229Y36801D01*
X1083797Y37113D01*
X1084981Y37904D01*
X1086062Y38201D01*
X1086311D01*
X1087558Y37368D01*
X1089029Y37075D01*
X1090500Y37368D01*
X1091747Y38201D01*
X1093147Y38010D01*
X1094137Y37349D01*
X1095608Y37056D01*
X1097079Y37349D01*
X1098326Y38182D01*
X1099159Y39429D01*
X1099292Y40096D01*
X1100587D01*
X1100669Y39679D01*
X1101503Y38432D01*
X1102750Y37599D01*
X1104221Y37306D01*
X1105692Y37599D01*
X1106939Y38432D01*
X1107772Y39679D01*
X1108065Y41150D01*
X1107772Y42621D01*
X1106939Y43868D01*
X1105692Y44701D01*
X1104221Y44994D01*
X1102750Y44701D01*
X1101503Y43868D01*
X1100669Y42621D01*
X1100537Y41954D01*
X1099242D01*
X1099159Y42371D01*
X1098326Y43618D01*
X1097079Y44451D01*
X1095608Y44744D01*
X1094137Y44451D01*
X1092890Y43618D01*
X1091490Y43809D01*
X1090500Y44470D01*
X1089029Y44763D01*
X1087558Y44470D01*
X1086311Y43637D01*
X1086107D01*
X1084964Y43907D01*
X1083797Y44687D01*
X1082229Y44999D01*
D02*
G37*
G36*
X4440068Y44230D02*
X4438597Y43937D01*
X4437350Y43104D01*
X4436517Y41857D01*
X4436224Y40386D01*
X4436517Y38915D01*
X4437350Y37668D01*
X4438597Y36835D01*
X4440068Y36542D01*
X4441539Y36835D01*
X4442786Y37668D01*
X4443619Y38915D01*
X4443912Y40386D01*
X4443619Y41857D01*
X4442786Y43104D01*
X4441539Y43937D01*
X4440068Y44230D01*
D02*
G37*
G36*
X4100661Y44739D02*
X4099093Y44427D01*
X4097763Y43538D01*
X4096875Y42209D01*
X4096562Y40640D01*
X4096875Y39072D01*
X4097763Y37742D01*
X4099093Y36853D01*
X4100661Y36541D01*
X4102230Y36853D01*
X4103560Y37742D01*
X4104448Y39072D01*
X4104760Y40640D01*
X4104448Y42209D01*
X4103560Y43538D01*
X4102230Y44427D01*
X4100661Y44739D01*
D02*
G37*
G36*
X1119629Y44144D02*
X1118158Y43851D01*
X1116910Y43018D01*
X1116077Y41771D01*
X1115785Y40300D01*
X1116077Y38829D01*
X1116910Y37582D01*
X1118158Y36749D01*
X1119629Y36456D01*
X1121099Y36749D01*
X1122347Y37582D01*
X1123180Y38829D01*
X1123472Y40300D01*
X1123180Y41771D01*
X1122347Y43018D01*
X1121099Y43851D01*
X1119629Y44144D01*
D02*
G37*
G36*
X418099Y44465D02*
X416530Y44153D01*
X415201Y43264D01*
X414312Y41935D01*
X414000Y40366D01*
X414312Y38798D01*
X415201Y37468D01*
X416530Y36579D01*
X418099Y36267D01*
X419668Y36579D01*
X420997Y37468D01*
X421886Y38798D01*
X422198Y40366D01*
X421886Y41935D01*
X420997Y43264D01*
X419668Y44153D01*
X418099Y44465D01*
D02*
G37*
G36*
X2411426Y44161D02*
X2409857Y43849D01*
X2408528Y42960D01*
X2407639Y41631D01*
X2407327Y40062D01*
X2407639Y38493D01*
X2408528Y37164D01*
X2409857Y36275D01*
X2411426Y35963D01*
X2412995Y36275D01*
X2414324Y37164D01*
X2415213Y38493D01*
X2415525Y40062D01*
X2415213Y41631D01*
X2414324Y42960D01*
X2412995Y43849D01*
X2411426Y44161D01*
D02*
G37*
G36*
X1208704Y40917D02*
X1207721Y40722D01*
X1206887Y40165D01*
X1206330Y39331D01*
X1206134Y38348D01*
X1206330Y37365D01*
X1206887Y36531D01*
X1207721Y35974D01*
X1208704Y35779D01*
X1209687Y35974D01*
X1210521Y36531D01*
X1211078Y37365D01*
X1211273Y38348D01*
X1211078Y39331D01*
X1210521Y40165D01*
X1209687Y40722D01*
X1208704Y40917D01*
D02*
G37*
G36*
X1933045Y38100D02*
X1930235D01*
Y35289D01*
X1930623Y35367D01*
X1932029Y36306D01*
X1932968Y37712D01*
X1933045Y38100D01*
D02*
G37*
G36*
X1927695D02*
X1924884D01*
X1924961Y37712D01*
X1925901Y36306D01*
X1927306Y35367D01*
X1927695Y35289D01*
Y38100D01*
D02*
G37*
G36*
X1922045D02*
X1919234D01*
Y35289D01*
X1919623Y35367D01*
X1921029Y36306D01*
X1921968Y37712D01*
X1922045Y38100D01*
D02*
G37*
G36*
X1916694D02*
X1913884D01*
X1913961Y37712D01*
X1914901Y36306D01*
X1916306Y35367D01*
X1916694Y35289D01*
Y38100D01*
D02*
G37*
G36*
X2246326Y42144D02*
X2244855Y41851D01*
X2243608Y41018D01*
X2242775Y39771D01*
X2242482Y38300D01*
X2242775Y36829D01*
X2243608Y35582D01*
X2244855Y34749D01*
X2246326Y34456D01*
X2247797Y34749D01*
X2249044Y35582D01*
X2249877Y36829D01*
X2250170Y38300D01*
X2249877Y39771D01*
X2249044Y41018D01*
X2247797Y41851D01*
X2246326Y42144D01*
D02*
G37*
G36*
X842729Y42199D02*
X841161Y41887D01*
X839831Y40998D01*
X838942Y39669D01*
X838630Y38100D01*
X838942Y36532D01*
X839831Y35202D01*
X841161Y34313D01*
X842729Y34001D01*
X844298Y34313D01*
X845627Y35202D01*
X846516Y36532D01*
X846828Y38100D01*
X846516Y39669D01*
X845627Y40998D01*
X844298Y41887D01*
X842729Y42199D01*
D02*
G37*
G36*
X3918458Y41456D02*
X3916987Y41163D01*
X3915740Y40330D01*
X3914907Y39083D01*
X3914615Y37612D01*
X3914907Y36141D01*
X3915740Y34894D01*
X3916987Y34061D01*
X3918458Y33768D01*
X3919930Y34061D01*
X3921176Y34894D01*
X3922010Y36141D01*
X3922302Y37612D01*
X3922010Y39083D01*
X3921176Y40330D01*
X3919930Y41163D01*
X3918458Y41456D01*
D02*
G37*
G36*
X3902872D02*
X3901400Y41163D01*
X3900154Y40330D01*
X3899320Y39083D01*
X3899028Y37612D01*
X3899320Y36141D01*
X3900154Y34894D01*
X3901400Y34061D01*
X3902872Y33768D01*
X3904343Y34061D01*
X3905590Y34894D01*
X3906423Y36141D01*
X3906715Y37612D01*
X3906423Y39083D01*
X3905590Y40330D01*
X3904343Y41163D01*
X3902872Y41456D01*
D02*
G37*
G36*
X2394426Y41144D02*
X2392955Y40851D01*
X2391708Y40018D01*
X2390875Y38771D01*
X2390582Y37300D01*
X2390875Y35829D01*
X2391708Y34582D01*
X2392955Y33749D01*
X2394426Y33456D01*
X2395897Y33749D01*
X2397144Y34582D01*
X2397977Y35829D01*
X2398270Y37300D01*
X2397977Y38771D01*
X2397144Y40018D01*
X2395897Y40851D01*
X2394426Y41144D01*
D02*
G37*
G36*
X1773126Y40464D02*
X1771655Y40171D01*
X1770408Y39338D01*
X1769575Y38091D01*
X1769282Y36620D01*
X1769575Y35149D01*
X1770408Y33902D01*
X1771655Y33069D01*
X1773126Y32776D01*
X1774597Y33069D01*
X1775844Y33902D01*
X1776677Y35149D01*
X1776970Y36620D01*
X1776677Y38091D01*
X1775844Y39338D01*
X1774597Y40171D01*
X1773126Y40464D01*
D02*
G37*
G36*
X2086304Y39741D02*
X2084833Y39448D01*
X2083586Y38615D01*
X2082753Y37368D01*
X2082460Y35897D01*
X2082753Y34426D01*
X2083586Y33179D01*
X2084833Y32346D01*
X2086304Y32053D01*
X2087775Y32346D01*
X2089022Y33179D01*
X2089856Y34426D01*
X2090148Y35897D01*
X2089856Y37368D01*
X2089022Y38615D01*
X2087775Y39448D01*
X2086304Y39741D01*
D02*
G37*
G36*
X1179897Y36857D02*
X1178913Y36662D01*
X1178080Y36105D01*
X1177523Y35271D01*
X1177327Y34288D01*
X1177523Y33305D01*
X1178080Y32471D01*
X1178913Y31914D01*
X1179897Y31719D01*
X1180880Y31914D01*
X1181713Y32471D01*
X1182270Y33305D01*
X1182466Y34288D01*
X1182270Y35271D01*
X1181713Y36105D01*
X1180880Y36662D01*
X1179897Y36857D01*
D02*
G37*
G36*
X2341426Y39144D02*
X2339955Y38851D01*
X2338708Y38018D01*
X2337875Y36771D01*
X2337582Y35300D01*
X2337875Y33829D01*
X2338708Y32582D01*
X2339955Y31749D01*
X2341426Y31456D01*
X2342897Y31749D01*
X2344144Y32582D01*
X2344977Y33829D01*
X2345270Y35300D01*
X2344977Y36771D01*
X2344144Y38018D01*
X2342897Y38851D01*
X2341426Y39144D01*
D02*
G37*
G36*
X1213628Y35869D02*
X1212645Y35674D01*
X1211812Y35117D01*
X1211255Y34283D01*
X1211059Y33300D01*
X1211255Y32317D01*
X1211812Y31483D01*
X1212645Y30926D01*
X1213628Y30731D01*
X1214612Y30926D01*
X1215445Y31483D01*
X1216002Y32317D01*
X1216198Y33300D01*
X1216002Y34283D01*
X1215445Y35117D01*
X1214612Y35674D01*
X1213628Y35869D01*
D02*
G37*
G36*
X526464Y38388D02*
X524993Y38095D01*
X523746Y37262D01*
X522913Y36015D01*
X522620Y34544D01*
X522913Y33073D01*
X523746Y31826D01*
X524993Y30993D01*
X526464Y30700D01*
X527935Y30993D01*
X529182Y31826D01*
X530015Y33073D01*
X530308Y34544D01*
X530015Y36015D01*
X529182Y37262D01*
X527935Y38095D01*
X526464Y38388D01*
D02*
G37*
G36*
X1133328Y51944D02*
X1131858Y51651D01*
X1130611Y50818D01*
X1129777Y49571D01*
X1129485Y48100D01*
X1129777Y46629D01*
X1130611Y45382D01*
X1131858Y44549D01*
X1133328Y44256D01*
X1134091Y44408D01*
X1140049Y38449D01*
Y30944D01*
X1139296Y30375D01*
X1138829Y30231D01*
X1138800Y30251D01*
X1137328Y30544D01*
X1135857Y30251D01*
X1134611Y29418D01*
X1133777Y28171D01*
X1133485Y26700D01*
X1133777Y25229D01*
X1134611Y23982D01*
X1135857Y23149D01*
X1137328Y22856D01*
X1138800Y23149D01*
X1140046Y23982D01*
X1140880Y25229D01*
X1141172Y26700D01*
X1141140Y26862D01*
X1142310Y27488D01*
X1149331Y20468D01*
X1149331Y20468D01*
X1150003Y20019D01*
X1150796Y19861D01*
X1184576D01*
X1184599Y19837D01*
X1185138Y18591D01*
X1184855Y18166D01*
X1184659Y17183D01*
X1184855Y16200D01*
X1185412Y15366D01*
X1185616Y15230D01*
X1185230Y13960D01*
X1142021D01*
X1129543Y26438D01*
X1129694Y27200D01*
X1129402Y28671D01*
X1128569Y29918D01*
X1127321Y30751D01*
X1125851Y31044D01*
X1124380Y30751D01*
X1123132Y29918D01*
X1122299Y28671D01*
X1122007Y27200D01*
X1122299Y25729D01*
X1123132Y24482D01*
X1124380Y23649D01*
X1125851Y23356D01*
X1126613Y23508D01*
X1139697Y10423D01*
X1140370Y9974D01*
X1141162Y9816D01*
X1141163Y9816D01*
X1211627D01*
X1212570Y8546D01*
X1212536Y8374D01*
X1212731Y7390D01*
X1213288Y6557D01*
X1214122Y6000D01*
X1215105Y5804D01*
X1216088Y6000D01*
X1216922Y6557D01*
X1217479Y7390D01*
X1217674Y8374D01*
X1217640Y8546D01*
X1218583Y9816D01*
X1220994D01*
X1221937Y8546D01*
X1221903Y8374D01*
X1222098Y7390D01*
X1222655Y6557D01*
X1223489Y6000D01*
X1224472Y5804D01*
X1225455Y6000D01*
X1226289Y6557D01*
X1226846Y7390D01*
X1227041Y8374D01*
X1227007Y8546D01*
X1227950Y9816D01*
X1229183D01*
X1229183Y9816D01*
X1229976Y9974D01*
X1230648Y10423D01*
X1232705Y12480D01*
X1232705Y12480D01*
X1233154Y13153D01*
X1233241Y13589D01*
X1233311Y13658D01*
X1233514Y13699D01*
X1234348Y14256D01*
X1234905Y15089D01*
X1235100Y16072D01*
X1234905Y17056D01*
X1234348Y17889D01*
X1233514Y18446D01*
X1232531Y18642D01*
X1231547Y18446D01*
X1230714Y17889D01*
X1230669Y17821D01*
X1229656Y17277D01*
X1229067Y17536D01*
X1228712Y17774D01*
X1227728Y17969D01*
X1226745Y17774D01*
X1225911Y17217D01*
X1225355Y16383D01*
X1225159Y15400D01*
X1225193Y15230D01*
X1224249Y13960D01*
X1220816D01*
X1220783Y15216D01*
X1220783Y15216D01*
X1221576Y15374D01*
X1222248Y15823D01*
X1225306Y18881D01*
X1225307Y18882D01*
X1225756Y19554D01*
X1225841Y19980D01*
X1225845Y19983D01*
X1226402Y20817D01*
X1226598Y21800D01*
X1226402Y22783D01*
X1225845Y23617D01*
X1225012Y24174D01*
X1224028Y24369D01*
X1223045Y24174D01*
X1222212Y23617D01*
X1220812Y23674D01*
X1219828Y23869D01*
X1218845Y23674D01*
X1218238Y23268D01*
X1217145Y22617D01*
X1216312Y23174D01*
X1215328Y23369D01*
X1214345Y23174D01*
X1213512Y22617D01*
X1212955Y21783D01*
X1212759Y20800D01*
X1211795Y20012D01*
X1210787Y19948D01*
X1207337Y23398D01*
X1206665Y23847D01*
X1205872Y24004D01*
X1205872Y24004D01*
X1151654D01*
X1144193Y31466D01*
Y39307D01*
X1144035Y40100D01*
X1143586Y40772D01*
X1143586Y40772D01*
X1137021Y47338D01*
X1137172Y48100D01*
X1136880Y49571D01*
X1136047Y50818D01*
X1134799Y51651D01*
X1133328Y51944D01*
D02*
G37*
G36*
X4007941Y37257D02*
X4006372Y36945D01*
X4005042Y36056D01*
X4004154Y34727D01*
X4003842Y33158D01*
X4004154Y31590D01*
X4005042Y30260D01*
X4006372Y29371D01*
X4007941Y29059D01*
X4009509Y29371D01*
X4010839Y30260D01*
X4011727Y31590D01*
X4012039Y33158D01*
X4011727Y34727D01*
X4010839Y36056D01*
X4009509Y36945D01*
X4007941Y37257D01*
D02*
G37*
G36*
X2076237Y36419D02*
X2074766Y36126D01*
X2073519Y35293D01*
X2072686Y34046D01*
X2072393Y32575D01*
X2072686Y31104D01*
X2073519Y29857D01*
X2074766Y29023D01*
X2076237Y28731D01*
X2077708Y29023D01*
X2078955Y29857D01*
X2079788Y31104D01*
X2080081Y32575D01*
X2079788Y34046D01*
X2078955Y35293D01*
X2077708Y36126D01*
X2076237Y36419D01*
D02*
G37*
G36*
X1988427Y36255D02*
X1986956Y35962D01*
X1985709Y35129D01*
X1984876Y33882D01*
X1984583Y32411D01*
X1984876Y30940D01*
X1985709Y29693D01*
X1986956Y28860D01*
X1988427Y28567D01*
X1989898Y28860D01*
X1991145Y29693D01*
X1991978Y30940D01*
X1992271Y32411D01*
X1991978Y33882D01*
X1991145Y35129D01*
X1989898Y35962D01*
X1988427Y36255D01*
D02*
G37*
G36*
X1783412Y36074D02*
X1781941Y35781D01*
X1780694Y34948D01*
X1779860Y33701D01*
X1779568Y32230D01*
X1779860Y30759D01*
X1780694Y29512D01*
X1781941Y28679D01*
X1783412Y28386D01*
X1784883Y28679D01*
X1786130Y29512D01*
X1786963Y30759D01*
X1787256Y32230D01*
X1786963Y33701D01*
X1786130Y34948D01*
X1784883Y35781D01*
X1783412Y36074D01*
D02*
G37*
G36*
X4220774Y35906D02*
X4219303Y35613D01*
X4218056Y34780D01*
X4217222Y33533D01*
X4216930Y32062D01*
X4217222Y30591D01*
X4218056Y29344D01*
X4219303Y28511D01*
X4220774Y28218D01*
X4222245Y28511D01*
X4223492Y29344D01*
X4224325Y30591D01*
X4224618Y32062D01*
X4224325Y33533D01*
X4223492Y34780D01*
X4222245Y35613D01*
X4220774Y35906D01*
D02*
G37*
G36*
X4205923D02*
X4204451Y35613D01*
X4203204Y34780D01*
X4202371Y33533D01*
X4202079Y32062D01*
X4202371Y30591D01*
X4203204Y29344D01*
X4204451Y28511D01*
X4205923Y28218D01*
X4207393Y28511D01*
X4208640Y29344D01*
X4209474Y30591D01*
X4209766Y32062D01*
X4209474Y33533D01*
X4208640Y34780D01*
X4207393Y35613D01*
X4205923Y35906D01*
D02*
G37*
G36*
X4194422D02*
X4192951Y35613D01*
X4191704Y34780D01*
X4190871Y33533D01*
X4190578Y32062D01*
X4190871Y30591D01*
X4191704Y29344D01*
X4192951Y28511D01*
X4194422Y28218D01*
X4195893Y28511D01*
X4197140Y29344D01*
X4197974Y30591D01*
X4198266Y32062D01*
X4197974Y33533D01*
X4197140Y34780D01*
X4195893Y35613D01*
X4194422Y35906D01*
D02*
G37*
G36*
X1407947Y35656D02*
X1406476Y35363D01*
X1405229Y34530D01*
X1404395Y33283D01*
X1404103Y31812D01*
X1404395Y30341D01*
X1405229Y29094D01*
X1406476Y28261D01*
X1407947Y27968D01*
X1409418Y28261D01*
X1410665Y29094D01*
X1411498Y30341D01*
X1411790Y31812D01*
X1411498Y33283D01*
X1410665Y34530D01*
X1409418Y35363D01*
X1407947Y35656D01*
D02*
G37*
G36*
X4498628Y35391D02*
X4497157Y35098D01*
X4495910Y34265D01*
X4495077Y33018D01*
X4494785Y31547D01*
X4495077Y30076D01*
X4495910Y28829D01*
X4497157Y27996D01*
X4498628Y27703D01*
X4500099Y27996D01*
X4501346Y28829D01*
X4502180Y30076D01*
X4502472Y31547D01*
X4502180Y33018D01*
X4501346Y34265D01*
X4500099Y35098D01*
X4498628Y35391D01*
D02*
G37*
G36*
X661464Y29245D02*
X659896Y28933D01*
X658566Y28044D01*
X658078Y27314D01*
X656601D01*
X656113Y28044D01*
X654783Y28933D01*
X653215Y29245D01*
X651646Y28933D01*
X650316Y28044D01*
X649428Y26715D01*
X649116Y25146D01*
X649428Y23578D01*
X650316Y22248D01*
X651646Y21359D01*
X653215Y21047D01*
X654783Y21359D01*
X656113Y22248D01*
X656601Y22978D01*
X658078D01*
X658566Y22248D01*
X659896Y21359D01*
X661464Y21047D01*
X663033Y21359D01*
X664363Y22248D01*
X665251Y23578D01*
X665563Y25146D01*
X665251Y26715D01*
X664363Y28044D01*
X663033Y28933D01*
X661464Y29245D01*
D02*
G37*
G36*
X4162322Y56099D02*
X4160754Y55787D01*
X4159424Y54898D01*
X4158536Y53569D01*
X4158224Y52000D01*
X4158536Y50431D01*
X4159424Y49102D01*
X4160754Y48213D01*
X4162322Y47901D01*
X4163891Y48213D01*
X4165221Y49102D01*
X4166099Y50416D01*
X4166238Y50441D01*
X4167120Y50510D01*
X4167411Y50469D01*
X4168204Y49282D01*
X4169182Y48629D01*
Y33471D01*
X4168204Y32818D01*
X4167371Y31571D01*
X4167079Y30100D01*
X4167371Y28629D01*
X4168204Y27382D01*
X4169452Y26549D01*
X4170923Y26256D01*
X4172393Y26549D01*
X4173640Y27382D01*
X4174474Y28629D01*
X4174766Y30100D01*
X4174474Y31571D01*
X4173640Y32818D01*
X4173325Y33029D01*
Y49071D01*
X4173640Y49282D01*
X4174474Y50529D01*
X4174766Y52000D01*
X4174474Y53471D01*
X4173640Y54718D01*
X4172393Y55551D01*
X4170923Y55844D01*
X4169452Y55551D01*
X4168204Y54718D01*
X4167411Y53531D01*
X4167120Y53490D01*
X4166238Y53559D01*
X4166099Y53584D01*
X4165221Y54898D01*
X4163891Y55787D01*
X4162322Y56099D01*
D02*
G37*
G36*
X2049809Y33874D02*
X2048338Y33581D01*
X2047091Y32748D01*
X2046258Y31501D01*
X2045965Y30030D01*
X2046258Y28559D01*
X2047091Y27312D01*
X2048338Y26479D01*
X2049809Y26186D01*
X2051280Y26479D01*
X2052527Y27312D01*
X2053360Y28559D01*
X2053653Y30030D01*
X2053360Y31501D01*
X2052527Y32748D01*
X2051280Y33581D01*
X2049809Y33874D01*
D02*
G37*
G36*
X1218728Y30969D02*
X1217745Y30774D01*
X1216911Y30217D01*
X1216355Y29383D01*
X1216159Y28400D01*
X1216355Y27417D01*
X1216911Y26583D01*
X1217745Y26026D01*
X1218728Y25831D01*
X1219712Y26026D01*
X1220545Y26583D01*
X1221102Y27417D01*
X1221298Y28400D01*
X1221102Y29383D01*
X1220545Y30217D01*
X1219712Y30774D01*
X1218728Y30969D01*
D02*
G37*
G36*
X214316Y33494D02*
X212845Y33201D01*
X211598Y32368D01*
X210765Y31121D01*
X210472Y29650D01*
X210765Y28179D01*
X211598Y26932D01*
X212845Y26099D01*
X214316Y25806D01*
X215787Y26099D01*
X217034Y26932D01*
X217867Y28179D01*
X218160Y29650D01*
X217867Y31121D01*
X217034Y32368D01*
X215787Y33201D01*
X214316Y33494D01*
D02*
G37*
G36*
X1208528Y30869D02*
X1207545Y30674D01*
X1206712Y30117D01*
X1206155Y29283D01*
X1205959Y28300D01*
X1206155Y27317D01*
X1206712Y26483D01*
X1207545Y25926D01*
X1208528Y25731D01*
X1209512Y25926D01*
X1210345Y26483D01*
X1210902Y27317D01*
X1211098Y28300D01*
X1210902Y29283D01*
X1210345Y30117D01*
X1209512Y30674D01*
X1208528Y30869D01*
D02*
G37*
G36*
X4484583Y39343D02*
X4483112Y39051D01*
X4481865Y38218D01*
X4481031Y36971D01*
X4480739Y35499D01*
X4481031Y34029D01*
X4481865Y32782D01*
X4483112Y31948D01*
X4484583Y31656D01*
X4484587Y31652D01*
X4485402Y30524D01*
X4485178Y29400D01*
X4485471Y27929D01*
X4486304Y26682D01*
X4487551Y25849D01*
X4489022Y25556D01*
X4490493Y25849D01*
X4491740Y26682D01*
X4492573Y27929D01*
X4492866Y29400D01*
X4492573Y30871D01*
X4491740Y32118D01*
X4490493Y32951D01*
X4489022Y33244D01*
X4489018Y33248D01*
X4488203Y34376D01*
X4488427Y35499D01*
X4488134Y36971D01*
X4487301Y38218D01*
X4486053Y39051D01*
X4484583Y39343D01*
D02*
G37*
G36*
X4074423Y32899D02*
X4072854Y32587D01*
X4071524Y31698D01*
X4070636Y30368D01*
X4070324Y28800D01*
X4070636Y27232D01*
X4071524Y25902D01*
X4072854Y25013D01*
X4074423Y24701D01*
X4075991Y25013D01*
X4077321Y25902D01*
X4078210Y27232D01*
X4078521Y28800D01*
X4078210Y30368D01*
X4077321Y31698D01*
X4075991Y32587D01*
X4074423Y32899D01*
D02*
G37*
G36*
X499795Y32234D02*
X498324Y31941D01*
X497077Y31108D01*
X496244Y29861D01*
X495952Y28390D01*
X496244Y26919D01*
X497077Y25672D01*
X498324Y24839D01*
X499795Y24546D01*
X501266Y24839D01*
X502513Y25672D01*
X503347Y26919D01*
X503639Y28390D01*
X503347Y29861D01*
X502513Y31108D01*
X501266Y31941D01*
X499795Y32234D01*
D02*
G37*
G36*
X126047Y30536D02*
X124577Y30244D01*
X123329Y29410D01*
X122496Y28163D01*
X122204Y26692D01*
X122496Y25221D01*
X123329Y23974D01*
X124577Y23141D01*
X126047Y22848D01*
X127519Y23141D01*
X128766Y23974D01*
X129599Y25221D01*
X129891Y26692D01*
X129599Y28163D01*
X128766Y29410D01*
X127519Y30244D01*
X126047Y30536D01*
D02*
G37*
G36*
X320061Y30536D02*
X318589Y30244D01*
X317342Y29410D01*
X316509Y28163D01*
X316217Y26692D01*
X316509Y25221D01*
X317342Y23974D01*
X318589Y23141D01*
X320061Y22848D01*
X321531Y23141D01*
X322779Y23974D01*
X323612Y25221D01*
X323904Y26692D01*
X323612Y28163D01*
X322779Y29410D01*
X321531Y30244D01*
X320061Y30536D01*
D02*
G37*
G36*
X4180522Y36444D02*
X4179052Y36151D01*
X4177804Y35318D01*
X4176971Y34071D01*
X4176678Y32600D01*
X4176971Y31129D01*
X4177804Y29882D01*
X4179052Y29049D01*
X4180522Y28756D01*
X4180831Y28539D01*
X4181484Y27653D01*
X4181266Y26556D01*
X4181559Y25085D01*
X4182392Y23838D01*
X4183639Y23005D01*
X4185110Y22712D01*
X4186581Y23005D01*
X4187828Y23838D01*
X4188661Y25085D01*
X4188954Y26556D01*
X4188661Y28027D01*
X4187828Y29274D01*
X4186581Y30107D01*
X4185110Y30400D01*
X4184801Y30617D01*
X4184148Y31504D01*
X4184366Y32600D01*
X4184074Y34071D01*
X4183240Y35318D01*
X4181993Y36151D01*
X4180522Y36444D01*
D02*
G37*
G36*
X631964Y29446D02*
X630494Y29154D01*
X629246Y28321D01*
X628413Y27074D01*
X628121Y25603D01*
X628413Y24132D01*
X629246Y22885D01*
X630494Y22051D01*
X631964Y21759D01*
X633436Y22051D01*
X634683Y22885D01*
X635516Y24132D01*
X635808Y25603D01*
X635516Y27074D01*
X634683Y28321D01*
X633436Y29154D01*
X631964Y29446D01*
D02*
G37*
G36*
X1953906Y29144D02*
X1952435Y28851D01*
X1951188Y28018D01*
X1950355Y26771D01*
X1950062Y25300D01*
X1950355Y23829D01*
X1951188Y22582D01*
X1952435Y21749D01*
X1953906Y21456D01*
X1955377Y21749D01*
X1956624Y22582D01*
X1957457Y23829D01*
X1957750Y25300D01*
X1957457Y26771D01*
X1956624Y28018D01*
X1955377Y28851D01*
X1953906Y29144D01*
D02*
G37*
G36*
X643465Y29245D02*
X641896Y28933D01*
X640566Y28044D01*
X639678Y26715D01*
X639366Y25146D01*
X639678Y23578D01*
X640566Y22248D01*
X641896Y21359D01*
X643465Y21047D01*
X645033Y21359D01*
X646363Y22248D01*
X647251Y23578D01*
X647563Y25146D01*
X647251Y26715D01*
X646363Y28044D01*
X645033Y28933D01*
X643465Y29245D01*
D02*
G37*
G36*
X2464726Y28644D02*
X2463255Y28351D01*
X2462008Y27518D01*
X2461175Y26271D01*
X2460882Y24800D01*
X2461175Y23329D01*
X2462008Y22082D01*
X2463255Y21249D01*
X2464726Y20956D01*
X2466197Y21249D01*
X2467444Y22082D01*
X2468277Y23329D01*
X2468570Y24800D01*
X2468277Y26271D01*
X2467444Y27518D01*
X2466197Y28351D01*
X2464726Y28644D01*
D02*
G37*
G36*
X1788727Y28244D02*
X1787256Y27951D01*
X1786009Y27118D01*
X1785176Y25871D01*
X1784883Y24400D01*
X1785176Y22929D01*
X1786009Y21682D01*
X1787256Y20849D01*
X1788727Y20556D01*
X1790198Y20849D01*
X1791445Y21682D01*
X1792278Y22929D01*
X1792571Y24400D01*
X1792278Y25871D01*
X1791445Y27118D01*
X1790198Y27951D01*
X1788727Y28244D01*
D02*
G37*
G36*
X1778827D02*
X1777356Y27951D01*
X1776109Y27118D01*
X1775276Y25871D01*
X1774983Y24400D01*
X1775276Y22929D01*
X1776109Y21682D01*
X1777356Y20849D01*
X1778827Y20556D01*
X1780298Y20849D01*
X1781545Y21682D01*
X1782379Y22929D01*
X1782671Y24400D01*
X1782379Y25871D01*
X1781545Y27118D01*
X1780298Y27951D01*
X1778827Y28244D01*
D02*
G37*
G36*
X2355826Y28044D02*
X2354355Y27751D01*
X2353108Y26918D01*
X2352275Y25671D01*
X2351982Y24200D01*
X2352275Y22729D01*
X2353108Y21482D01*
X2354355Y20649D01*
X2355826Y20356D01*
X2357297Y20649D01*
X2358544Y21482D01*
X2359377Y22729D01*
X2359670Y24200D01*
X2359377Y25671D01*
X2358544Y26918D01*
X2357297Y27751D01*
X2355826Y28044D01*
D02*
G37*
G36*
X411107Y26907D02*
X409636Y26614D01*
X408389Y25781D01*
X407556Y24534D01*
X407263Y23063D01*
X407556Y21592D01*
X408389Y20345D01*
X409636Y19512D01*
X411107Y19219D01*
X412578Y19512D01*
X413825Y20345D01*
X414659Y21592D01*
X414951Y23063D01*
X414659Y24534D01*
X413825Y25781D01*
X412578Y26614D01*
X411107Y26907D01*
D02*
G37*
G36*
X797207Y26196D02*
X795736Y25903D01*
X794489Y25070D01*
X793655Y23823D01*
X793363Y22352D01*
X793655Y20881D01*
X794489Y19634D01*
X795736Y18801D01*
X797207Y18508D01*
X798678Y18801D01*
X799925Y19634D01*
X800758Y20881D01*
X801051Y22352D01*
X800758Y23823D01*
X799925Y25070D01*
X798678Y25903D01*
X797207Y26196D01*
D02*
G37*
G36*
X1418017Y26061D02*
X1416546Y25768D01*
X1415299Y24935D01*
X1414466Y23688D01*
X1414173Y22217D01*
X1414466Y20746D01*
X1415299Y19499D01*
X1416546Y18666D01*
X1418017Y18373D01*
X1419488Y18666D01*
X1420735Y19499D01*
X1421568Y20746D01*
X1421861Y22217D01*
X1421568Y23688D01*
X1420735Y24935D01*
X1419488Y25768D01*
X1418017Y26061D01*
D02*
G37*
G36*
X712965Y24672D02*
X711494Y24379D01*
X710247Y23546D01*
X709413Y22299D01*
X709121Y20828D01*
X709413Y19357D01*
X710247Y18110D01*
X711494Y17277D01*
X712965Y16984D01*
X714436Y17277D01*
X715683Y18110D01*
X716516Y19357D01*
X716808Y20828D01*
X716516Y22299D01*
X715683Y23546D01*
X714436Y24379D01*
X712965Y24672D01*
D02*
G37*
G36*
X526334Y24562D02*
X524864Y24269D01*
X523616Y23436D01*
X522783Y22189D01*
X522491Y20718D01*
X522783Y19247D01*
X523616Y18000D01*
X524864Y17167D01*
X526334Y16874D01*
X527805Y17167D01*
X529053Y18000D01*
X529886Y19247D01*
X530178Y20718D01*
X529886Y22189D01*
X529053Y23436D01*
X527805Y24269D01*
X526334Y24562D01*
D02*
G37*
G36*
X4533195Y24116D02*
X4531724Y23823D01*
X4530477Y22990D01*
X4529644Y21743D01*
X4529351Y20272D01*
X4529644Y18801D01*
X4530477Y17554D01*
X4531724Y16721D01*
X4533195Y16428D01*
X4534666Y16721D01*
X4535913Y17554D01*
X4536746Y18801D01*
X4537039Y20272D01*
X4536746Y21743D01*
X4535913Y22990D01*
X4534666Y23823D01*
X4533195Y24116D01*
D02*
G37*
G36*
X4508334Y24235D02*
X4506863Y23942D01*
X4505616Y23109D01*
X4504782Y21862D01*
X4504490Y20391D01*
X4504782Y18920D01*
X4505616Y17673D01*
X4506863Y16840D01*
X4508334Y16547D01*
X4509805Y16840D01*
X4510015Y16980D01*
X4510931Y16065D01*
X4510417Y15296D01*
X4510125Y13825D01*
X4510417Y12354D01*
X4511251Y11107D01*
X4512498Y10274D01*
X4513969Y9981D01*
X4515439Y10274D01*
X4516686Y11107D01*
X4517520Y12354D01*
X4517812Y13825D01*
X4517520Y15296D01*
X4517519Y15297D01*
X4518282Y16440D01*
X4518344Y16428D01*
X4519814Y16721D01*
X4521061Y17554D01*
X4521895Y18801D01*
X4522187Y20272D01*
X4521895Y21743D01*
X4521061Y22990D01*
X4519814Y23823D01*
X4518344Y24116D01*
X4516873Y23823D01*
X4515626Y22990D01*
X4514792Y21743D01*
X4514500Y20272D01*
X4514792Y18801D01*
X4514793Y18800D01*
X4514030Y17657D01*
X4513969Y17669D01*
X4512498Y17376D01*
X4512287Y17236D01*
X4511371Y18151D01*
X4511885Y18920D01*
X4512178Y20391D01*
X4511885Y21862D01*
X4511052Y23109D01*
X4509805Y23942D01*
X4508334Y24235D01*
D02*
G37*
G36*
X2083102Y17815D02*
X2081631Y17522D01*
X2080491Y16760D01*
X2079416Y16368D01*
X2079225D01*
X2077978Y17202D01*
X2076507Y17494D01*
X2075036Y17202D01*
X2073789Y16368D01*
X2072956Y15121D01*
X2072663Y13650D01*
X2072956Y12179D01*
X2073789Y10932D01*
X2075036Y10099D01*
X2076507Y9807D01*
X2077978Y10099D01*
X2079118Y10861D01*
X2080193Y11253D01*
X2080384D01*
X2081631Y10419D01*
X2083102Y10127D01*
X2084573Y10419D01*
X2085820Y11253D01*
X2085932Y11420D01*
X2086292Y11492D01*
X2087401Y11333D01*
X2088010Y10422D01*
X2089257Y9589D01*
X2090728Y9296D01*
X2092199Y9589D01*
X2093446Y10422D01*
X2094279Y11669D01*
X2094572Y13140D01*
X2094279Y14611D01*
X2093446Y15858D01*
X2092199Y16691D01*
X2090728Y16984D01*
X2089257Y16691D01*
X2088010Y15858D01*
X2087898Y15691D01*
X2087538Y15619D01*
X2086429Y15778D01*
X2085820Y16689D01*
X2084573Y17522D01*
X2083102Y17815D01*
D02*
G37*
G36*
X845129Y23599D02*
X843561Y23287D01*
X842231Y22398D01*
X841342Y21069D01*
X841030Y19500D01*
X841342Y17931D01*
X842231Y16602D01*
X843561Y15713D01*
X845129Y15401D01*
X846698Y15713D01*
X848027Y16602D01*
X848916Y17931D01*
X849228Y19500D01*
X848916Y21069D01*
X848027Y22398D01*
X846698Y23287D01*
X845129Y23599D01*
D02*
G37*
G36*
X3946323Y23044D02*
X3944852Y22751D01*
X3943605Y21918D01*
X3942772Y20671D01*
X3942479Y19200D01*
X3942772Y17729D01*
X3943605Y16482D01*
X3944852Y15649D01*
X3946323Y15356D01*
X3947794Y15649D01*
X3949041Y16482D01*
X3949874Y17729D01*
X3950167Y19200D01*
X3949874Y20671D01*
X3949041Y21918D01*
X3947794Y22751D01*
X3946323Y23044D01*
D02*
G37*
G36*
X919528Y22878D02*
X918057Y22586D01*
X916810Y21753D01*
X915977Y20505D01*
X915685Y19035D01*
X915977Y17564D01*
X916810Y16316D01*
X918057Y15483D01*
X919528Y15191D01*
X920999Y15483D01*
X922246Y16316D01*
X923080Y17564D01*
X923372Y19035D01*
X923080Y20505D01*
X922246Y21753D01*
X920999Y22586D01*
X919528Y22878D01*
D02*
G37*
G36*
X543312Y22272D02*
X541841Y21979D01*
X540594Y21146D01*
X539761Y19899D01*
X539468Y18428D01*
X539761Y16957D01*
X540594Y15710D01*
X541841Y14877D01*
X543312Y14584D01*
X544783Y14877D01*
X546030Y15710D01*
X546863Y16957D01*
X547156Y18428D01*
X546863Y19899D01*
X546030Y21146D01*
X544783Y21979D01*
X543312Y22272D01*
D02*
G37*
G36*
X4148325Y21738D02*
X4146854Y21446D01*
X4145606Y20612D01*
X4144773Y19365D01*
X4144481Y17894D01*
X4144773Y16423D01*
X4145606Y15176D01*
X4146854Y14343D01*
X4148325Y14050D01*
X4149796Y14343D01*
X4151042Y15176D01*
X4151876Y16423D01*
X4152168Y17894D01*
X4151876Y19365D01*
X4151042Y20612D01*
X4149796Y21446D01*
X4148325Y21738D01*
D02*
G37*
G36*
X832767Y22133D02*
X831198Y21821D01*
X829868Y20932D01*
X828980Y19603D01*
X828668Y18034D01*
X828980Y16466D01*
X829868Y15136D01*
X831198Y14247D01*
X832767Y13935D01*
X834335Y14247D01*
X835665Y15136D01*
X836553Y16466D01*
X836865Y18034D01*
X836553Y19603D01*
X835665Y20932D01*
X834335Y21821D01*
X832767Y22133D01*
D02*
G37*
G36*
X8160Y32490D02*
X5740Y32171D01*
X3485Y31237D01*
X1549Y29751D01*
X63Y27815D01*
X-871Y25560D01*
X-1190Y23140D01*
X-871Y20720D01*
X63Y18465D01*
X1549Y16529D01*
X3485Y15043D01*
X5740Y14109D01*
X8160Y13790D01*
X10580Y14109D01*
X12835Y15043D01*
X14771Y16529D01*
X16257Y18465D01*
X17191Y20720D01*
X17510Y23140D01*
X17191Y25560D01*
X16257Y27815D01*
X14771Y29751D01*
X12835Y31237D01*
X10580Y32171D01*
X8160Y32490D01*
D02*
G37*
G36*
X930424Y21591D02*
X928856Y21279D01*
X927526Y20390D01*
X926638Y19061D01*
X926326Y17492D01*
X926638Y15924D01*
X927526Y14594D01*
X928856Y13705D01*
X930424Y13393D01*
X931993Y13705D01*
X933323Y14594D01*
X934211Y15924D01*
X934523Y17492D01*
X934211Y19061D01*
X933323Y20390D01*
X931993Y21279D01*
X930424Y21591D01*
D02*
G37*
G36*
X4586522Y20844D02*
X4585051Y20551D01*
X4583804Y19718D01*
X4582970Y18471D01*
X4582678Y17000D01*
X4582970Y15529D01*
X4583804Y14282D01*
X4585051Y13449D01*
X4586522Y13156D01*
X4587993Y13449D01*
X4589240Y14282D01*
X4590073Y15529D01*
X4590366Y17000D01*
X4590073Y18471D01*
X4589240Y19718D01*
X4587993Y20551D01*
X4586522Y20844D01*
D02*
G37*
G36*
X499795Y20776D02*
X498324Y20483D01*
X497077Y19650D01*
X496244Y18403D01*
X495952Y16932D01*
X496244Y15461D01*
X497077Y14214D01*
X498324Y13381D01*
X499795Y13088D01*
X501266Y13381D01*
X502513Y14214D01*
X503347Y15461D01*
X503639Y16932D01*
X503347Y18403D01*
X502513Y19650D01*
X501266Y20483D01*
X499795Y20776D01*
D02*
G37*
G36*
X870263Y20344D02*
X868792Y20052D01*
X867545Y19218D01*
X866711Y17971D01*
X866419Y16500D01*
X866711Y15029D01*
X867545Y13782D01*
X868792Y12949D01*
X870263Y12656D01*
X871734Y12949D01*
X872981Y13782D01*
X873814Y15029D01*
X874107Y16500D01*
X873814Y17971D01*
X872981Y19218D01*
X871734Y20052D01*
X870263Y20344D01*
D02*
G37*
G36*
X4549122Y20044D02*
X4547651Y19751D01*
X4546404Y18918D01*
X4545570Y17671D01*
X4545278Y16200D01*
X4545570Y14729D01*
X4546404Y13482D01*
X4547651Y12649D01*
X4549122Y12356D01*
X4550593Y12649D01*
X4551840Y13482D01*
X4552673Y14729D01*
X4552965Y16200D01*
X4552673Y17671D01*
X4551840Y18918D01*
X4550593Y19751D01*
X4549122Y20044D01*
D02*
G37*
G36*
X4540822Y16234D02*
X4539351Y15941D01*
X4538104Y15108D01*
X4537271Y13861D01*
X4536978Y12390D01*
X4537271Y10919D01*
X4538104Y9672D01*
X4539351Y8839D01*
X4540822Y8546D01*
X4542293Y8839D01*
X4543540Y9672D01*
X4544373Y10919D01*
X4544666Y12390D01*
X4544373Y13861D01*
X4543540Y15108D01*
X4542293Y15941D01*
X4540822Y16234D01*
D02*
G37*
G36*
X4130563Y16213D02*
X4128995Y15901D01*
X4127665Y15012D01*
X4126776Y13683D01*
X4126465Y12114D01*
X4126776Y10546D01*
X4127665Y9216D01*
X4128995Y8327D01*
X4130563Y8015D01*
X4132132Y8327D01*
X4133461Y9216D01*
X4134350Y10546D01*
X4134662Y12114D01*
X4134350Y13683D01*
X4133461Y15012D01*
X4132132Y15901D01*
X4130563Y16213D01*
D02*
G37*
G36*
X3484880Y14512D02*
X3483409Y14219D01*
X3482162Y13386D01*
X3481329Y12139D01*
X3481036Y10668D01*
X3481329Y9197D01*
X3482162Y7950D01*
X3483409Y7117D01*
X3484880Y6824D01*
X3486351Y7117D01*
X3487598Y7950D01*
X3488431Y9197D01*
X3488724Y10668D01*
X3488431Y12139D01*
X3487598Y13386D01*
X3486351Y14219D01*
X3484880Y14512D01*
D02*
G37*
G36*
X4119922Y14499D02*
X4118354Y14187D01*
X4117024Y13298D01*
X4116136Y11969D01*
X4115824Y10400D01*
X4116136Y8831D01*
X4117024Y7502D01*
X4118354Y6613D01*
X4119922Y6301D01*
X4121491Y6613D01*
X4122821Y7502D01*
X4123709Y8831D01*
X4124021Y10400D01*
X4123709Y11969D01*
X4122821Y13298D01*
X4121491Y14187D01*
X4119922Y14499D01*
D02*
G37*
G36*
X320061Y13398D02*
X318589Y13105D01*
X317342Y12272D01*
X316509Y11025D01*
X316217Y9554D01*
X316509Y8083D01*
X317342Y6836D01*
X318589Y6003D01*
X320061Y5710D01*
X321531Y6003D01*
X322779Y6836D01*
X323612Y8083D01*
X323904Y9554D01*
X323612Y11025D01*
X322779Y12272D01*
X321531Y13105D01*
X320061Y13398D01*
D02*
G37*
G36*
X4378481Y13344D02*
X4377010Y13051D01*
X4375763Y12218D01*
X4374930Y10971D01*
X4374637Y9500D01*
X4374930Y8029D01*
X4375763Y6782D01*
X4377010Y5949D01*
X4378481Y5656D01*
X4379952Y5949D01*
X4381199Y6782D01*
X4382032Y8029D01*
X4382325Y9500D01*
X4382032Y10971D01*
X4381199Y12218D01*
X4379952Y13051D01*
X4378481Y13344D01*
D02*
G37*
G36*
X3271273D02*
X3269802Y13051D01*
X3268555Y12218D01*
X3267722Y10971D01*
X3267429Y9500D01*
X3267722Y8029D01*
X3268555Y6782D01*
X3269802Y5949D01*
X3271273Y5656D01*
X3272744Y5949D01*
X3273991Y6782D01*
X3274824Y8029D01*
X3275117Y9500D01*
X3274824Y10971D01*
X3273991Y12218D01*
X3272744Y13051D01*
X3271273Y13344D01*
D02*
G37*
G36*
X3087354D02*
X3085883Y13051D01*
X3084636Y12218D01*
X3083802Y10971D01*
X3083510Y9500D01*
X3083802Y8029D01*
X3084636Y6782D01*
X3085883Y5949D01*
X3087354Y5656D01*
X3088825Y5949D01*
X3090072Y6782D01*
X3090905Y8029D01*
X3091198Y9500D01*
X3090905Y10971D01*
X3090072Y12218D01*
X3088825Y13051D01*
X3087354Y13344D01*
D02*
G37*
G36*
X2551684D02*
X2550213Y13051D01*
X2548966Y12218D01*
X2548133Y10971D01*
X2547840Y9500D01*
X2548133Y8029D01*
X2548966Y6782D01*
X2550213Y5949D01*
X2551684Y5656D01*
X2553155Y5949D01*
X2554402Y6782D01*
X2555235Y8029D01*
X2555528Y9500D01*
X2555235Y10971D01*
X2554402Y12218D01*
X2553155Y13051D01*
X2551684Y13344D01*
D02*
G37*
G36*
X3845306Y12734D02*
X3843835Y12441D01*
X3842588Y11608D01*
X3841755Y10361D01*
X3841462Y8890D01*
X3841755Y7419D01*
X3842588Y6172D01*
X3843835Y5339D01*
X3845306Y5046D01*
X3846777Y5339D01*
X3848024Y6172D01*
X3848857Y7419D01*
X3849150Y8890D01*
X3848857Y10361D01*
X3848024Y11608D01*
X3846777Y12441D01*
X3845306Y12734D01*
D02*
G37*
G36*
X2451226Y11544D02*
X2449755Y11251D01*
X2448508Y10418D01*
X2447675Y9171D01*
X2447382Y7700D01*
X2447675Y6229D01*
X2448508Y4982D01*
X2449755Y4149D01*
X2451226Y3856D01*
X2452697Y4149D01*
X2453944Y4982D01*
X2454777Y6229D01*
X2455070Y7700D01*
X2454777Y9171D01*
X2453944Y10418D01*
X2452697Y11251D01*
X2451226Y11544D01*
D02*
G37*
G36*
X789333Y11465D02*
X787764Y11153D01*
X786434Y10264D01*
X785546Y8935D01*
X785234Y7366D01*
X785546Y5798D01*
X786434Y4468D01*
X787764Y3579D01*
X789333Y3267D01*
X790901Y3579D01*
X792231Y4468D01*
X793120Y5798D01*
X793431Y7366D01*
X793120Y8935D01*
X792231Y10264D01*
X790901Y11153D01*
X789333Y11465D01*
D02*
G37*
G36*
X4023977Y11465D02*
X4022408Y11153D01*
X4021078Y10264D01*
X4020190Y8935D01*
X4019878Y7366D01*
X4020190Y5798D01*
X4021078Y4468D01*
X4022408Y3579D01*
X4023977Y3267D01*
X4025545Y3579D01*
X4026875Y4468D01*
X4027763Y5798D01*
X4028075Y7366D01*
X4027763Y8935D01*
X4026875Y10264D01*
X4025545Y11153D01*
X4023977Y11465D01*
D02*
G37*
G36*
X4107422Y10944D02*
X4105952Y10651D01*
X4104705Y9818D01*
X4103871Y8571D01*
X4103579Y7100D01*
X4103871Y5629D01*
X4104705Y4382D01*
X4105952Y3549D01*
X4107422Y3256D01*
X4108894Y3549D01*
X4110141Y4382D01*
X4110974Y5629D01*
X4111266Y7100D01*
X4110974Y8571D01*
X4110141Y9818D01*
X4108894Y10651D01*
X4107422Y10944D01*
D02*
G37*
G36*
X1269728Y53098D02*
X1268745Y52902D01*
X1267911Y52345D01*
X1267355Y51512D01*
X1267159Y50528D01*
X1267355Y49545D01*
X1267911Y48711D01*
X1268745Y48154D01*
X1269728Y47959D01*
X1270712Y48154D01*
X1271545Y48711D01*
X1272102Y49545D01*
X1272298Y50528D01*
X1272102Y51512D01*
X1271545Y52345D01*
X1270712Y52902D01*
X1269728Y53098D01*
D02*
G37*
G36*
X1277090Y52337D02*
X1276107Y52142D01*
X1275273Y51585D01*
X1274716Y50751D01*
X1274520Y49768D01*
X1274716Y48784D01*
X1275273Y47951D01*
X1276107Y47394D01*
X1277090Y47198D01*
X1278073Y47394D01*
X1278907Y47951D01*
X1279464Y48784D01*
X1279659Y49768D01*
X1279464Y50751D01*
X1278907Y51585D01*
X1278073Y52142D01*
X1277090Y52337D01*
D02*
G37*
G36*
X1243510Y35869D02*
X1242526Y35674D01*
X1241693Y35117D01*
X1241136Y34283D01*
X1240940Y33300D01*
X1241136Y32317D01*
X1241693Y31483D01*
X1242526Y30926D01*
X1243510Y30731D01*
X1244493Y30926D01*
X1245327Y31483D01*
X1245884Y32317D01*
X1246079Y33300D01*
X1245884Y34283D01*
X1245327Y35117D01*
X1244493Y35674D01*
X1243510Y35869D01*
D02*
G37*
%LPD*%
D19*
X1265390Y66788D02*
X1267480Y64697D01*
X1263940Y66788D02*
X1265390D01*
X1267480Y61828D02*
Y64697D01*
Y61828D02*
X1270316Y58992D01*
D72*
X143682Y66104D02*
Y89234D01*
Y66104D02*
X161961D01*
X94244D02*
X143682D01*
X161961D02*
X178335Y49729D01*
X1175678Y38249D02*
X1203161D01*
X1171321Y87000D02*
X1186180D01*
X1195504Y96324D01*
X193735Y18955D02*
Y34330D01*
X178335Y49729D02*
X193735Y34330D01*
X1166128Y28700D02*
X1175678Y38249D01*
D129*
X2239226Y39200D02*
Y80700D01*
X2245426Y86900D01*
X4450722Y11912D02*
X4457196Y5438D01*
X1336794Y120461D02*
Y148364D01*
X1195504Y96324D02*
Y125105D01*
X1258530Y36197D02*
X1267365D01*
X1286801Y29326D02*
X1356102D01*
X1276115Y40011D02*
X1286801Y29326D01*
X1268372Y40011D02*
X1276115D01*
X1285039Y18338D02*
X1380800D01*
X1272667Y30710D02*
X1285039Y18338D01*
X1289968Y37901D02*
Y38870D01*
Y37901D02*
X1292924Y34945D01*
Y34088D02*
Y34945D01*
X1282731Y46107D02*
X1289968Y38870D01*
X1275784Y46107D02*
X1282731D01*
X1261995Y46388D02*
X1268372Y40011D01*
X1274567Y23719D02*
X1276179Y22107D01*
X1241789Y51750D02*
X1247151Y46388D01*
X1239764Y51750D02*
X1241789D01*
X1231240Y23719D02*
X1274567D01*
X1228470Y26489D02*
X1231240Y23719D01*
X1228470Y26489D02*
Y38878D01*
X1230800Y41208D01*
Y41472D01*
X1230828Y41500D01*
X1239069Y46995D02*
X1251077Y34987D01*
X1210009Y46995D02*
X1239069D01*
X1208704Y48300D02*
X1210009Y46995D01*
X1223842Y21613D02*
X1224028Y21800D01*
X1231240Y14518D02*
X1232531Y15808D01*
X1231240Y13945D02*
Y14518D01*
X1229183Y11888D02*
X1231240Y13945D01*
X1141162Y11888D02*
X1229183D01*
X1232531Y15808D02*
Y16072D01*
X1223842Y20347D02*
Y21613D01*
X1220783Y17288D02*
X1223842Y20347D01*
X1247151Y46388D02*
X1261995D01*
X1237994Y53521D02*
X1239764Y51750D01*
X1237730Y53521D02*
X1237994D01*
X1211800Y51812D02*
X1214539Y54551D01*
X1192928Y51812D02*
X1211800D01*
X1214539Y54551D02*
X1224333D01*
X1212954Y57632D02*
X1225529D01*
X1213122Y60658D02*
X1215464Y63000D01*
X1211278Y60658D02*
X1213122D01*
X1236275Y57033D02*
X1239185D01*
X1231907Y52664D02*
X1236275Y57033D01*
X1235023Y60057D02*
X1243228D01*
X1230654Y55688D02*
X1235023Y60057D01*
X1227473Y55688D02*
X1230654D01*
X1224299Y63839D02*
X1227552Y60586D01*
X1231336Y67848D02*
X1236103Y63081D01*
X1231336Y67848D02*
Y69061D01*
X1228470Y71926D02*
X1231336Y69061D01*
X1247613Y55759D02*
X1252681D01*
X1251077Y34987D02*
X1257320D01*
X1260046Y59364D02*
X1263940Y63258D01*
X1261959Y66788D02*
X1263940D01*
X1257559Y62388D02*
X1261959Y66788D01*
X1269078Y73885D02*
X1273680Y69283D01*
X1262958Y73885D02*
X1269078D01*
X1267281Y80909D02*
X1280704Y67486D01*
X1277443Y75024D02*
X1283728Y68739D01*
X1277443Y75024D02*
Y75527D01*
X1263715Y89255D02*
X1277443Y75527D01*
X1280467Y76561D02*
X1286416Y70612D01*
X1280467Y76561D02*
Y82441D01*
X1283928Y77376D02*
Y83256D01*
Y77376D02*
X1287668Y73636D01*
X1245174Y62388D02*
X1257559D01*
X1243921Y59364D02*
X1260046D01*
X1230897Y74331D02*
X1235724D01*
X1227828Y77400D02*
X1230897Y74331D01*
X1223499Y67351D02*
Y67615D01*
X1239185Y57033D02*
X1240127Y56090D01*
X1247281D01*
X1244481Y63081D02*
X1245174Y62388D01*
X1236103Y63081D02*
X1244481D01*
X1243228Y60057D02*
X1243921Y59364D01*
X1247281Y56090D02*
X1247613Y55759D01*
X1150796Y21933D02*
X1205872D01*
X1229341Y89950D02*
X1229791Y89500D01*
X1225159Y71926D02*
X1228470D01*
X1218785Y78300D02*
X1225159Y71926D01*
X1210517Y17288D02*
X1220783D01*
X1240643Y69412D02*
X1244807D01*
X1235724Y74331D02*
X1240643Y69412D01*
X1205066Y66907D02*
X1208704Y63269D01*
Y58348D02*
Y63269D01*
X1205066Y66907D02*
Y75329D01*
X1202983Y77412D02*
X1205066Y75329D01*
X1257320Y34987D02*
X1258530Y36197D01*
X1273680Y64577D02*
Y69283D01*
X1259031Y77812D02*
X1262958Y73885D01*
X1274486Y47405D02*
X1275784Y46107D01*
X1271572Y47405D02*
X1274486D01*
X1280704Y63629D02*
Y67486D01*
X1283728Y65833D02*
Y68739D01*
Y65833D02*
X1289102Y60460D01*
X1286416Y70612D02*
X1288945D01*
X1291356Y68200D01*
Y65913D02*
Y68200D01*
Y65913D02*
X1293188Y64080D01*
X1328006D01*
X1296729Y67104D02*
X1326753D01*
X1290197Y73636D02*
X1296729Y67104D01*
X1287668Y73636D02*
X1290197D01*
X1224333Y54551D02*
X1226220Y52664D01*
X1205326Y91769D02*
Y97102D01*
Y91769D02*
X1209601Y87494D01*
Y82412D02*
Y87494D01*
Y82412D02*
X1212030Y79983D01*
X1219504Y84397D02*
Y87661D01*
X1218507Y88658D02*
X1219504Y87661D01*
X1213870Y88658D02*
X1218507D01*
X1225529Y57632D02*
X1227473Y55688D01*
X1196527Y63332D02*
X1198192Y64997D01*
Y66055D02*
X1201528Y69391D01*
X1198192Y64997D02*
Y66055D01*
X1201528Y69391D02*
Y73900D01*
X1197707Y77412D02*
X1202983D01*
X1181033Y77288D02*
X1197583D01*
X1171321Y87000D02*
X1181033Y77288D01*
X1198728Y54836D02*
X1210158D01*
X1196527Y57037D02*
X1198728Y54836D01*
X1196527Y57037D02*
Y63332D01*
X1151329Y87000D02*
X1171321D01*
X1212030Y75779D02*
X1214083Y73726D01*
Y73412D02*
Y73726D01*
Y73412D02*
X1217959Y69536D01*
Y67924D02*
Y69536D01*
Y67924D02*
X1222044Y63839D01*
X1215054Y77031D02*
Y79947D01*
Y77031D02*
X1218837Y73248D01*
X1219000D01*
X1221461Y70787D01*
Y69653D02*
Y70787D01*
Y69653D02*
X1223499Y67615D01*
X1218752Y78300D02*
X1218785D01*
X1215054Y79947D02*
X1219504Y84397D01*
X1210158Y54836D02*
X1212954Y57632D01*
X1226220Y52664D02*
X1231907D01*
X1212030Y75779D02*
Y79983D01*
X1210428Y92100D02*
X1213870Y88658D01*
X1205872Y21933D02*
X1210517Y17288D01*
X1222044Y63839D02*
X1224299D01*
X1187492Y57248D02*
Y67893D01*
Y57248D02*
X1192928Y51812D01*
X1271183Y47016D02*
X1271572Y47405D01*
X1268273Y47016D02*
X1271183D01*
X1266216Y49074D02*
X1268273Y47016D01*
X1226080Y85848D02*
X1234028Y77900D01*
X1261724Y80909D02*
X1267281D01*
X1253055Y77812D02*
X1259031D01*
X1249916Y74673D02*
X1253055Y77812D01*
X1249916Y74521D02*
Y74673D01*
X1244807Y69412D02*
X1249916Y74521D01*
X1226080Y85848D02*
Y150971D01*
X1247337Y85615D02*
X1252378D01*
X1245152Y89477D02*
X1253411Y97736D01*
X1256504Y92100D02*
X1259116Y94712D01*
X1263528Y91200D02*
X1263715Y91013D01*
X1253411Y97736D02*
X1269449D01*
X1268196Y94712D02*
X1280467Y82441D01*
X1259116Y94712D02*
X1268196D01*
X1269449Y97736D02*
X1283928Y83256D01*
X1252378Y85615D02*
X1257101Y80892D01*
X1261707D01*
X1208968Y58348D02*
X1211278Y60658D01*
X4171253Y30431D02*
Y52000D01*
X1248406Y11410D02*
X1268959D01*
X1270625Y13076D01*
X1267365Y36197D02*
X1267850Y35712D01*
X1272667Y30710D02*
Y30894D01*
X1270325Y33236D02*
X1272667Y30894D01*
X1280704Y63629D02*
X1286897Y57436D01*
X1289102Y60460D02*
X1329914D01*
X1279089Y59168D02*
X1280888D01*
X1273680Y64577D02*
X1279089Y59168D01*
X1261707Y80892D02*
X1261724Y80909D01*
X1279635Y56144D02*
X1285525Y50255D01*
X1273165Y56144D02*
X1279635D01*
X1263715Y89255D02*
Y91013D01*
X1280888Y59168D02*
X1285644Y54412D01*
X1266216Y49074D02*
Y49405D01*
X1265728Y49893D02*
X1266216Y49405D01*
X1270316Y58992D02*
X1273165Y56144D01*
X1285525Y50255D02*
X1286974D01*
X1293528Y43700D01*
X1286897Y57436D02*
X1335444D01*
X1229341Y89950D02*
Y149956D01*
X1356102Y29326D02*
X1362128Y23300D01*
X1244416Y15400D02*
X1248406Y11410D01*
X1326753Y67104D02*
X1332209Y72560D01*
X1352469D01*
X1364096Y60933D01*
X1335540Y66086D02*
X1350390D01*
X1355589Y60887D01*
Y52792D02*
Y60887D01*
X1341069Y63062D02*
X1349137D01*
X1352528Y59671D01*
Y54008D02*
Y59671D01*
X1340740Y54412D02*
X1344628Y58300D01*
X1355777Y35430D02*
X1358575D01*
X1364096Y40381D02*
Y60933D01*
X1352799Y38408D02*
Y50002D01*
Y38408D02*
X1355777Y35430D01*
X1358575D02*
X1370905Y23100D01*
X1348028Y39700D02*
Y49508D01*
X1335444Y57436D02*
X1341069Y63062D01*
X1333461Y69536D02*
X1351216D01*
X1357561Y40381D02*
Y48945D01*
X1358613Y49997D02*
Y62140D01*
X1357561Y48945D02*
X1358613Y49997D01*
X1352799Y50002D02*
X1355589Y52792D01*
X1351216Y69536D02*
X1358613Y62140D01*
X1328006Y64080D02*
X1333461Y69536D01*
X1329914Y60460D02*
X1335540Y66086D01*
X1377728Y23100D02*
X1378628Y24000D01*
X1370905Y23100D02*
X1377728D01*
X1285644Y54412D02*
X1340740D01*
X1348028Y49508D02*
X1352528Y54008D01*
X1183147Y137462D02*
X1195504Y125105D01*
X1157378Y133604D02*
X1160608D01*
X1164466Y137462D02*
X1183147D01*
X2122192Y10168D02*
X2215759D01*
X2094490D02*
X2122192D01*
X1367928Y83800D02*
X1442928Y8800D01*
X1501328D01*
X2137431Y15161D02*
X2168607Y46337D01*
Y62427D01*
X2137431Y14962D02*
Y15161D01*
X1991202Y8378D02*
X2092700D01*
X2094490Y10168D01*
X2147299Y37339D02*
Y79212D01*
X2130298Y20338D02*
X2147299Y37339D01*
X2130298Y15542D02*
Y20338D01*
X2215759Y10168D02*
X2221826Y4100D01*
X2103115Y55730D02*
X2120036D01*
X2092394Y66451D02*
X2103115Y55730D01*
X2092394Y66451D02*
Y105410D01*
X1989580Y10000D02*
X1991202Y8378D01*
X1860377Y10000D02*
X1989580D01*
X1160608Y133604D02*
X1164466Y137462D01*
X1133328Y48100D02*
X1142121Y39307D01*
X4267200Y34933D02*
X4311183Y78916D01*
X4267200Y8636D02*
Y34933D01*
X2615157Y19346D02*
X2657696Y61886D01*
X2615157Y9500D02*
X2797648D01*
X2615157D02*
Y19346D01*
X1125851Y27200D02*
X1141162Y11888D01*
X384810Y9651D02*
Y25299D01*
X426399Y66888D01*
Y82987D01*
X4234961Y32062D02*
Y35290D01*
X4199251Y71000D02*
X4234961Y35290D01*
X4091875Y71000D02*
X4138931Y118056D01*
X4024177Y71000D02*
X4091875D01*
X4090023Y4400D02*
Y24680D01*
X4170923Y30100D02*
X4171253Y30431D01*
X4016781Y71000D02*
X4024177D01*
X3997775Y90006D02*
X4016781Y71000D01*
X3997775Y90006D02*
Y118117D01*
X2337075Y102500D02*
X2377013Y142438D01*
X2336526Y102500D02*
X2337075D01*
X1248828Y140000D02*
Y154568D01*
X1226080Y150971D02*
X1240325Y165216D01*
X1229341Y149956D02*
X1241578Y162192D01*
X4563822Y150929D02*
X4573843Y160951D01*
X4563822Y129700D02*
Y150929D01*
X4586594Y29400D02*
Y106928D01*
X4563822Y129700D02*
X4586594Y106928D01*
X3963651Y73756D02*
Y105400D01*
Y73756D02*
X3981224Y56182D01*
X3932443Y30820D02*
X3952900D01*
X3912023Y10400D02*
X3932443Y30820D01*
X4159710Y20150D02*
X4162322D01*
X4155180Y24680D02*
X4159710Y20150D01*
X1267850Y35712D02*
X1269316Y34245D01*
X1270325Y33236D01*
X1142121Y30607D02*
X1150796Y21933D01*
X1142121Y30607D02*
Y39307D01*
X1990727Y43741D02*
Y45400D01*
X1999936Y32490D02*
Y34531D01*
X1990727Y43741D02*
X1999936Y34531D01*
Y32490D02*
X2000127Y32300D01*
X1501473Y8945D02*
X1682272D01*
X1440293Y65112D02*
X1587423D01*
X1380800Y18338D02*
X1381662Y19200D01*
X1396228D01*
X4090023Y24680D02*
X4155180D01*
X2910025Y6500D02*
Y28400D01*
X2657696Y61886D02*
Y78517D01*
X1325989Y159168D02*
X1336794Y148364D01*
X1253428Y159168D02*
X1325989D01*
X1248828Y154568D02*
X1253428Y159168D01*
X1396893Y75940D02*
Y104235D01*
X1338936Y162192D02*
X1396893Y104235D01*
X1241578Y162192D02*
X1338936D01*
X1340188Y165216D02*
X1440293Y65112D01*
X1240325Y165216D02*
X1340188D01*
X1067971Y55688D02*
Y61457D01*
X1028364Y101065D02*
X1067971Y61457D01*
X1028364Y101065D02*
Y115577D01*
X809986Y83981D02*
X839967Y54001D01*
X845129D02*
Y108286D01*
X839967Y54001D02*
X845129D01*
X4457196Y5438D02*
X4584233D01*
X4450722Y11912D02*
Y27300D01*
X4401972Y61126D02*
X4450722D01*
X4389179Y73919D02*
X4401972Y61126D01*
X2977033Y9500D02*
X3017909D01*
Y77470D01*
Y9500D02*
X3031337D01*
X950589Y108924D02*
X957923Y116257D01*
X950589Y101168D02*
Y108924D01*
X918029Y68608D02*
X950589Y101168D01*
X1682327Y9000D02*
Y21436D01*
X1891174Y39370D02*
X1917964D01*
X1687821Y9000D02*
X1730772Y51951D01*
X1682327Y9000D02*
X1687821D01*
X604864Y70145D02*
Y82937D01*
X628540Y66888D02*
X636928Y58500D01*
X604864Y70145D02*
X608121Y66888D01*
X628540D01*
X636928Y58500D02*
X650465D01*
X3151147Y14262D02*
X3155909Y9500D01*
X3036099Y14262D02*
X3151147D01*
X3031337Y9500D02*
X3036099Y14262D01*
X2273465Y107950D02*
X2331076D01*
X2336526Y102500D01*
X2245426Y86900D02*
X2266476Y107950D01*
X2273465D01*
X4584233Y5438D02*
X4592890Y14095D01*
X4586594Y29400D02*
X4592890Y23103D01*
Y14095D02*
Y23103D01*
X4459466Y61126D02*
X4470740Y72400D01*
Y131845D01*
X3747580Y8890D02*
X3783872Y45182D01*
X3735397Y8890D02*
X3747580D01*
X3783872Y45182D02*
Y90006D01*
X3784633Y90766D01*
X3592664Y22122D02*
Y75967D01*
X3553424Y8890D02*
X3579432D01*
X3592664Y22122D01*
X3337523Y8890D02*
X3351123D01*
X3377593Y35361D01*
Y83364D01*
X3155909Y9500D02*
X3179053D01*
X3197024Y27471D01*
Y78555D01*
X2797648Y9500D02*
Y40703D01*
X2835463Y78517D01*
X2438126Y25700D02*
X2464726Y52300D01*
X2438126Y10400D02*
Y25700D01*
X2464726Y52300D02*
Y67600D01*
X2478626Y81500D01*
X1587423Y65112D02*
X1590273Y62262D01*
X918029Y43700D02*
Y68608D01*
X785971Y83981D02*
X809986D01*
X4450722Y61126D02*
X4459466D01*
X4450722Y27300D02*
Y61126D01*
X4389179Y73919D02*
Y88926D01*
X1623730Y80033D02*
X1682327Y21436D01*
X1540895Y80033D02*
X1623730D01*
X1910341Y95035D02*
X1910965Y95658D01*
X1917964D01*
X1928965Y84658D01*
Y50370D02*
Y84658D01*
X1730772Y51951D02*
Y86436D01*
D135*
X295893Y84643D02*
X305201Y75336D01*
X311135D01*
X322383Y64088D01*
Y46353D02*
Y64088D01*
Y46353D02*
X329929Y38808D01*
D142*
X3970225Y56182D02*
D03*
Y45182D02*
D03*
X3981224D02*
D03*
Y56182D02*
D03*
X661464Y58500D02*
D03*
X650465D02*
D03*
Y47500D02*
D03*
X661464D02*
D03*
X1928965Y50370D02*
D03*
X1917964D02*
D03*
Y39370D02*
D03*
X1928965D02*
D03*
X2239226Y39200D02*
D03*
X2306965Y59000D02*
D03*
X2295965D02*
D03*
X2306965Y48000D02*
D03*
X2295965D02*
D03*
X2306965Y36881D02*
D03*
X2317243D02*
D03*
Y59000D02*
D03*
Y47881D02*
D03*
X2295965Y36881D02*
D03*
X1151329Y87000D02*
D03*
X2056727Y48900D02*
D03*
X4267200Y8636D02*
D03*
X2615157Y9500D02*
D03*
X4090023Y4400D02*
D03*
X3997775Y118117D02*
D03*
X2377562Y142438D02*
D03*
X2317889Y145334D02*
D03*
X742089Y19050D02*
D03*
X696229Y45119D02*
D03*
X745645Y52578D02*
D03*
X3963651Y105400D02*
D03*
X3952900Y30820D02*
D03*
X3912023Y10400D02*
D03*
X1501328Y8800D02*
D03*
X2910025Y6500D02*
D03*
X845129Y54001D02*
D03*
X4389179Y88926D02*
D03*
X1367928Y83800D02*
D03*
X1910965Y95658D02*
D03*
X1682327Y9000D02*
D03*
X2092394Y105410D02*
D03*
X2478626Y81500D02*
D03*
X2657696Y78517D02*
D03*
X3735397Y8890D02*
D03*
X3553424D02*
D03*
X2438126Y10400D02*
D03*
X3784633Y90766D02*
D03*
X4453723Y8374D02*
D03*
X2977033Y9500D02*
D03*
X2797648D02*
D03*
X3155909D02*
D03*
X3337523Y8890D02*
D03*
X1730772Y86436D02*
D03*
X3377593Y83364D02*
D03*
Y123025D02*
D03*
X4311183Y78916D02*
D03*
X3592664Y75967D02*
D03*
X2835463Y78517D02*
D03*
X1540895Y80033D02*
D03*
X604864Y82987D02*
D03*
X785971Y83981D02*
D03*
X426399Y82987D02*
D03*
X3017909Y77470D02*
D03*
X3197024Y78555D02*
D03*
D143*
X1333594Y120461D02*
D03*
X2233613Y120549D02*
D03*
X3347533Y120755D02*
D03*
D145*
X2245426Y86900D02*
D03*
X94244Y66104D02*
D03*
X295893Y84643D02*
D03*
X4507844Y42176D02*
D03*
Y53176D02*
D03*
Y64176D02*
D03*
Y75176D02*
D03*
Y86176D02*
D03*
Y97176D02*
D03*
Y108176D02*
D03*
X4518843Y42176D02*
D03*
Y53176D02*
D03*
Y64176D02*
D03*
Y75176D02*
D03*
Y86176D02*
D03*
Y97176D02*
D03*
Y108176D02*
D03*
X4529843Y42176D02*
D03*
Y53176D02*
D03*
Y64176D02*
D03*
Y75176D02*
D03*
Y86176D02*
D03*
Y97176D02*
D03*
Y108176D02*
D03*
X4540844Y42176D02*
D03*
Y53176D02*
D03*
Y64176D02*
D03*
Y75176D02*
D03*
Y86176D02*
D03*
Y97176D02*
D03*
Y108176D02*
D03*
X4551844Y42176D02*
D03*
Y53176D02*
D03*
Y64176D02*
D03*
Y75176D02*
D03*
Y86176D02*
D03*
Y97176D02*
D03*
Y108176D02*
D03*
X4562844Y42176D02*
D03*
Y53176D02*
D03*
Y64176D02*
D03*
Y75176D02*
D03*
Y86176D02*
D03*
Y97176D02*
D03*
Y108176D02*
D03*
X4573843Y42176D02*
D03*
Y53176D02*
D03*
Y64176D02*
D03*
Y75176D02*
D03*
Y86176D02*
D03*
Y97176D02*
D03*
Y108176D02*
D03*
X132682Y89234D02*
D03*
X143682D02*
D03*
X553405Y18428D02*
D03*
X1292924Y34088D02*
D03*
X1344628Y58300D02*
D03*
X1348028Y39700D02*
D03*
X1341453D02*
D03*
X1357561Y40381D02*
D03*
X1364096D02*
D03*
X1157378Y133604D02*
D03*
X1197242Y124176D02*
D03*
X2168607Y62427D02*
D03*
X2169261Y31730D02*
D03*
X2137431Y14962D02*
D03*
X2122192Y10168D02*
D03*
X2130298Y15542D02*
D03*
X2147299Y79212D02*
D03*
X2120036Y55730D02*
D03*
X1133328Y48100D02*
D03*
X1104138Y4064D02*
D03*
X1311865Y4862D02*
D03*
X1293528Y43700D02*
D03*
X384810Y9651D02*
D03*
X4199251Y71000D02*
D03*
X4170923Y52000D02*
D03*
Y30100D02*
D03*
X766820Y7112D02*
D03*
X1248828Y140000D02*
D03*
X957923Y116257D02*
D03*
X4563822Y129700D02*
D03*
X4234961Y32062D02*
D03*
X4162322Y20150D02*
D03*
X2221826Y4100D02*
D03*
X1990727Y45400D02*
D03*
X2000127Y32300D02*
D03*
X1044203Y53291D02*
D03*
X967988Y53662D02*
D03*
X2910025Y28400D02*
D03*
X1362128Y23250D02*
D03*
X1378828Y23100D02*
D03*
X1396893Y75940D02*
D03*
X1125851Y27200D02*
D03*
X1891174Y39370D02*
D03*
X4470740Y131845D02*
D03*
X178335Y49729D02*
D03*
X193735Y18955D02*
D03*
X4459466Y61126D02*
D03*
X1396228Y19200D02*
D03*
X4024177Y71000D02*
D03*
X2336526Y102500D02*
D03*
X1960535Y46238D02*
D03*
X1860377Y10000D02*
D03*
X1590273Y62262D02*
D03*
X4450722Y27300D02*
D03*
X1166128Y28700D02*
D03*
X924129Y4076D02*
D03*
X918029Y43700D02*
D03*
X4138931Y118056D02*
D03*
X4592890Y14095D02*
D03*
X4594612Y92690D02*
D03*
X4573843Y160951D02*
D03*
X1028364Y115577D02*
D03*
X845115Y108300D02*
D03*
X329929Y38808D02*
D03*
Y60400D02*
D03*
X2273465Y107950D02*
D03*
X2253500Y146190D02*
D03*
D146*
X1276179Y22107D02*
D03*
X1224028Y21800D02*
D03*
X1215728Y63000D02*
D03*
X1203161Y38249D02*
D03*
X1237730Y53521D02*
D03*
X1227552Y60586D02*
D03*
X1252681Y55759D02*
D03*
X1265728Y50157D02*
D03*
X1263940Y63258D02*
D03*
X1223499Y67351D02*
D03*
X1229791Y89500D02*
D03*
X1227828Y77400D02*
D03*
X1230828Y41500D02*
D03*
X1218752Y78300D02*
D03*
X1208704Y58348D02*
D03*
X1208704Y48300D02*
D03*
X1232531Y16072D02*
D03*
X1201528Y73900D02*
D03*
X1187492Y67893D02*
D03*
X1234028Y77900D02*
D03*
X1247337Y85615D02*
D03*
X1245152Y89477D02*
D03*
X1256504Y92100D02*
D03*
X1263528Y91200D02*
D03*
X1210428Y92100D02*
D03*
X1270625Y13076D02*
D03*
X1244416Y15400D02*
D03*
X1205326Y97102D02*
D03*
M02*
