G04*
G04 #@! TF.GenerationSoftware,Altium Limited,Altium Designer,19.1.8 (144)*
G04*
G04 Layer_Color=39423*
%FSLAX44Y44*%
%MOMM*%
G71*
G01*
G75*
%ADD11C,0.2000*%
%ADD12C,0.1000*%
%ADD14C,0.0254*%
%ADD19C,0.1500*%
D11*
X941940Y53992D02*
G03*
X941940Y53992I-0J0D01*
G01*
X2343471Y131482D02*
G03*
X2343471Y131482I-0J0D01*
G01*
X940119Y163349D02*
X1017867D01*
Y66251D02*
Y163349D01*
X940119Y66350D02*
Y163349D01*
X940119Y66251D02*
X1017867D01*
X4118674D02*
X4196422D01*
X4118674Y66350D02*
Y163349D01*
X4196422Y66251D02*
Y163349D01*
X4118674D02*
X4196422D01*
D12*
X4115064Y158714D02*
Y162713D01*
X4113065D01*
X4112399Y162047D01*
Y160714D01*
X4113065Y160047D01*
X4115064D01*
X4109066Y158714D02*
Y162713D01*
X4111066Y160714D01*
X4108400D01*
X1028364Y158552D02*
Y162551D01*
X1026365D01*
X1025698Y161884D01*
Y160551D01*
X1026365Y159885D01*
X1028364D01*
X1024365Y161884D02*
X1023699Y162551D01*
X1022366D01*
X1021699Y161884D01*
Y161218D01*
X1022366Y160551D01*
X1023032D01*
X1022366D01*
X1021699Y159885D01*
Y159219D01*
X1022366Y158552D01*
X1023699D01*
X1024365Y159219D01*
X938595Y29250D02*
Y33249D01*
X936595D01*
X935929Y32582D01*
Y31249D01*
X936595Y30583D01*
X938595D01*
X934596Y29250D02*
X933263D01*
X933929D01*
Y33249D01*
X934596Y32582D01*
X2366854Y76188D02*
Y80187D01*
X2364854D01*
X2364188Y79520D01*
Y78187D01*
X2364854Y77521D01*
X2366854D01*
X2360189Y76188D02*
X2362855D01*
X2360189Y78854D01*
Y79520D01*
X2360856Y80187D01*
X2362189D01*
X2362855Y79520D01*
D14*
X4523543Y34777D02*
X4528369D01*
X4522273Y35031D02*
X4529385D01*
X4458519Y35285D02*
X4467917D01*
X4474521D02*
X4484173D01*
X4490777D02*
X4500175D01*
X4502969D02*
X4512875D01*
X4521257D02*
X4530147D01*
X4538783D02*
X4550975D01*
X4559865D02*
X4570025D01*
X4458519Y35539D02*
X4468171D01*
X4474267D02*
X4484173D01*
X4490523D02*
X4500175D01*
X4503223D02*
X4513129D01*
X4520495D02*
X4530909D01*
X4538783D02*
X4551229D01*
X4559865D02*
X4570025D01*
X4576375D02*
X4608633D01*
X4458519Y35793D02*
X4468171D01*
X4474267D02*
X4484427D01*
X4490523D02*
X4500175D01*
X4503223D02*
X4513383D01*
X4519733D02*
X4531671D01*
X4539037D02*
X4551229D01*
X4559865D02*
X4570025D01*
X4576375D02*
X4608633D01*
X4458519Y36047D02*
X4468171D01*
X4474267D02*
X4484427D01*
X4490523D02*
X4500175D01*
X4503477D02*
X4513383D01*
X4519225D02*
X4532179D01*
X4539291D02*
X4551483D01*
X4559865D02*
X4570025D01*
X4576375D02*
X4608633D01*
X4458519Y36301D02*
X4468171D01*
X4474267D02*
X4484427D01*
X4490523D02*
X4500175D01*
X4503731D02*
X4513637D01*
X4518717D02*
X4532687D01*
X4539291D02*
X4551483D01*
X4559865D02*
X4570025D01*
X4576375D02*
X4608633D01*
X4458519Y36555D02*
X4468171D01*
X4474267D02*
X4484427D01*
X4490523D02*
X4500175D01*
X4503985D02*
X4513891D01*
X4518209D02*
X4532941D01*
X4539545D02*
X4551737D01*
X4559865D02*
X4570025D01*
X4576375D02*
X4608633D01*
X4458519Y36809D02*
X4468171D01*
X4474013D02*
X4484681D01*
X4490523D02*
X4500175D01*
X4504239D02*
X4514145D01*
X4517955D02*
X4533449D01*
X4539799D02*
X4551991D01*
X4559865D02*
X4570025D01*
X4576375D02*
X4608633D01*
X4458519Y37063D02*
X4468171D01*
X4474013D02*
X4484681D01*
X4490523D02*
X4500175D01*
X4504239D02*
X4514145D01*
X4517447D02*
X4533703D01*
X4539799D02*
X4551991D01*
X4559865D02*
X4570025D01*
X4576375D02*
X4608633D01*
X4458519Y37317D02*
X4468171D01*
X4474013D02*
X4484681D01*
X4490523D02*
X4500175D01*
X4504493D02*
X4514399D01*
X4517193D02*
X4534211D01*
X4540053D02*
X4552245D01*
X4559865D02*
X4570025D01*
X4576375D02*
X4608633D01*
X4458519Y37571D02*
X4468171D01*
X4474013D02*
X4484681D01*
X4490523D02*
X4500175D01*
X4504747D02*
X4514653D01*
X4516685D02*
X4534465D01*
X4540307D02*
X4552245D01*
X4559865D02*
X4570025D01*
X4576375D02*
X4608633D01*
X4458519Y37825D02*
X4468171D01*
X4473759D02*
X4484681D01*
X4490523D02*
X4500175D01*
X4505001D02*
X4514907D01*
X4516431D02*
X4534719D01*
X4540307D02*
X4552499D01*
X4559865D02*
X4570025D01*
X4576375D02*
X4608633D01*
X4458519Y38079D02*
X4468171D01*
X4473759D02*
X4484935D01*
X4490523D02*
X4500175D01*
X4505001D02*
X4514907D01*
X4516177D02*
X4534973D01*
X4540561D02*
X4552499D01*
X4559865D02*
X4570025D01*
X4576375D02*
X4608633D01*
X4458519Y38333D02*
X4468171D01*
X4473759D02*
X4484935D01*
X4490523D02*
X4500175D01*
X4505255D02*
X4515161D01*
X4515923D02*
X4535227D01*
X4540815D02*
X4552753D01*
X4559865D02*
X4570025D01*
X4576375D02*
X4608633D01*
X4458519Y38587D02*
X4468171D01*
X4473759D02*
X4484935D01*
X4490523D02*
X4500175D01*
X4505509D02*
X4515415D01*
X4515669D02*
X4535481D01*
X4540815D02*
X4553007D01*
X4559865D02*
X4570025D01*
X4576375D02*
X4608633D01*
X4458519Y38841D02*
X4468171D01*
X4473759D02*
X4484935D01*
X4490523D02*
X4500175D01*
X4505763D02*
X4535735D01*
X4541069D02*
X4553007D01*
X4559865D02*
X4570025D01*
X4576375D02*
X4608633D01*
X4458519Y39095D02*
X4468171D01*
X4473505D02*
X4485189D01*
X4490523D02*
X4500175D01*
X4506017D02*
X4535989D01*
X4541323D02*
X4553261D01*
X4559865D02*
X4570025D01*
X4576375D02*
X4608633D01*
X4458519Y39349D02*
X4468171D01*
X4473505D02*
X4485189D01*
X4490523D02*
X4500175D01*
X4506017D02*
X4535989D01*
X4541323D02*
X4553261D01*
X4559865D02*
X4570025D01*
X4576375D02*
X4608633D01*
X4458519Y39603D02*
X4468171D01*
X4473505D02*
X4485189D01*
X4490523D02*
X4500175D01*
X4506271D02*
X4536243D01*
X4541577D02*
X4553515D01*
X4559865D02*
X4570025D01*
X4576375D02*
X4608633D01*
X4458519Y39857D02*
X4468171D01*
X4473505D02*
X4485189D01*
X4490523D02*
X4500175D01*
X4506525D02*
X4536497D01*
X4541831D02*
X4553515D01*
X4559865D02*
X4570025D01*
X4576375D02*
X4608633D01*
X4458519Y40111D02*
X4468171D01*
X4473251D02*
X4485189D01*
X4490523D02*
X4500175D01*
X4506779D02*
X4536497D01*
X4541831D02*
X4553769D01*
X4559865D02*
X4570025D01*
X4576375D02*
X4608633D01*
X4458519Y40365D02*
X4468171D01*
X4473251D02*
X4485443D01*
X4490523D02*
X4500175D01*
X4506779D02*
X4536751D01*
X4542085D02*
X4554023D01*
X4559865D02*
X4570025D01*
X4576375D02*
X4608633D01*
X4458519Y40619D02*
X4468171D01*
X4473251D02*
X4485443D01*
X4490523D02*
X4500175D01*
X4507033D02*
X4536751D01*
X4542339D02*
X4554023D01*
X4559865D02*
X4570025D01*
X4576375D02*
X4608633D01*
X4458519Y40873D02*
X4468171D01*
X4473251D02*
X4485443D01*
X4490523D02*
X4500175D01*
X4507287D02*
X4537005D01*
X4542339D02*
X4554277D01*
X4559865D02*
X4570025D01*
X4576375D02*
X4608633D01*
X4458519Y41127D02*
X4468171D01*
X4473251D02*
X4485443D01*
X4490523D02*
X4500175D01*
X4507541D02*
X4537005D01*
X4542593D02*
X4554277D01*
X4559865D02*
X4570025D01*
X4576375D02*
X4608633D01*
X4458519Y41381D02*
X4468171D01*
X4472997D02*
X4485443D01*
X4490523D02*
X4500175D01*
X4507541D02*
X4537259D01*
X4542847D02*
X4554531D01*
X4559865D02*
X4570025D01*
X4576375D02*
X4608633D01*
X4458519Y41635D02*
X4468171D01*
X4472997D02*
X4485697D01*
X4490523D02*
X4500175D01*
X4507795D02*
X4537259D01*
X4542847D02*
X4554531D01*
X4559865D02*
X4570025D01*
X4576375D02*
X4608633D01*
X4458519Y41889D02*
X4468171D01*
X4472997D02*
X4485697D01*
X4490523D02*
X4500175D01*
X4508049D02*
X4522781D01*
X4525321D02*
X4537259D01*
X4543101D02*
X4554785D01*
X4559865D02*
X4570025D01*
X4576375D02*
X4608633D01*
X4458519Y42143D02*
X4468171D01*
X4472997D02*
X4485697D01*
X4490523D02*
X4500175D01*
X4508303D02*
X4522019D01*
X4526083D02*
X4537259D01*
X4543355D02*
X4555039D01*
X4559865D02*
X4570025D01*
X4576375D02*
X4608633D01*
X4458519Y42397D02*
X4468171D01*
X4472997D02*
X4485697D01*
X4490523D02*
X4500175D01*
X4508557D02*
X4521511D01*
X4526337D02*
X4537513D01*
X4543355D02*
X4555039D01*
X4559865D02*
X4570025D01*
X4576375D02*
X4608633D01*
X4458519Y42651D02*
X4468171D01*
X4472743D02*
X4485951D01*
X4490523D02*
X4500175D01*
X4508557D02*
X4521003D01*
X4526845D02*
X4537513D01*
X4543609D02*
X4555293D01*
X4559865D02*
X4570025D01*
X4576375D02*
X4608633D01*
X4458519Y42905D02*
X4468171D01*
X4472743D02*
X4485951D01*
X4490523D02*
X4500175D01*
X4508811D02*
X4520749D01*
X4527099D02*
X4537513D01*
X4543863D02*
X4555293D01*
X4559865D02*
X4570025D01*
X4576375D02*
X4608633D01*
X4458519Y43159D02*
X4468171D01*
X4472743D02*
X4485951D01*
X4490523D02*
X4500175D01*
X4509065D02*
X4520241D01*
X4527353D02*
X4537513D01*
X4543863D02*
X4555547D01*
X4559865D02*
X4570025D01*
X4576375D02*
X4608633D01*
X4458519Y43413D02*
X4468171D01*
X4472743D02*
X4485951D01*
X4490523D02*
X4500175D01*
X4509319D02*
X4519987D01*
X4527607D02*
X4537513D01*
X4544117D02*
X4555547D01*
X4559865D02*
X4570025D01*
X4576375D02*
X4608633D01*
X4458519Y43667D02*
X4468171D01*
X4472489D02*
X4485951D01*
X4490523D02*
X4500175D01*
X4509319D02*
X4519987D01*
X4527861D02*
X4537513D01*
X4544371D02*
X4555801D01*
X4559865D02*
X4570025D01*
X4576375D02*
X4608633D01*
X4458519Y43921D02*
X4468171D01*
X4472489D02*
X4486205D01*
X4490523D02*
X4500175D01*
X4509573D02*
X4520241D01*
X4527861D02*
X4537513D01*
X4544371D02*
X4556055D01*
X4559865D02*
X4570025D01*
X4576375D02*
X4608633D01*
X4458519Y44175D02*
X4468171D01*
X4472489D02*
X4486205D01*
X4490523D02*
X4500175D01*
X4509573D02*
X4520495D01*
X4528115D02*
X4537767D01*
X4544625D02*
X4556055D01*
X4559865D02*
X4570025D01*
X4576375D02*
X4608633D01*
X4458519Y44429D02*
X4468171D01*
X4472489D02*
X4486205D01*
X4490523D02*
X4500175D01*
X4509573D02*
X4520749D01*
X4528115D02*
X4537767D01*
X4544879D02*
X4556309D01*
X4559865D02*
X4570025D01*
X4576375D02*
X4608633D01*
X4458519Y44683D02*
X4468171D01*
X4472489D02*
X4486205D01*
X4490523D02*
X4500175D01*
X4509319D02*
X4520749D01*
X4528115D02*
X4537513D01*
X4544879D02*
X4556309D01*
X4559865D02*
X4570025D01*
X4576375D02*
X4608633D01*
X4458519Y44937D02*
X4468171D01*
X4472235D02*
X4486205D01*
X4490523D02*
X4500175D01*
X4509065D02*
X4521003D01*
X4528369D02*
X4537513D01*
X4545133D02*
X4556563D01*
X4559865D02*
X4570025D01*
X4576375D02*
X4608633D01*
X4458519Y45191D02*
X4468171D01*
X4472235D02*
X4486459D01*
X4490523D02*
X4500175D01*
X4509065D02*
X4521257D01*
X4528369D02*
X4537513D01*
X4545387D02*
X4556563D01*
X4559865D02*
X4570025D01*
X4576375D02*
X4608633D01*
X4458519Y45445D02*
X4468171D01*
X4472235D02*
X4486459D01*
X4490523D02*
X4500175D01*
X4508811D02*
X4521511D01*
X4528369D02*
X4537513D01*
X4545387D02*
X4556817D01*
X4559865D02*
X4570025D01*
X4576375D02*
X4608633D01*
X4458519Y45699D02*
X4468171D01*
X4472235D02*
X4486459D01*
X4490523D02*
X4500175D01*
X4508557D02*
X4521765D01*
X4528369D02*
X4537513D01*
X4545641D02*
X4557071D01*
X4559865D02*
X4570025D01*
X4576375D02*
X4608633D01*
X4458519Y45953D02*
X4468171D01*
X4472235D02*
X4486459D01*
X4490523D02*
X4500175D01*
X4508557D02*
X4522019D01*
X4528369D02*
X4537513D01*
X4545895D02*
X4557071D01*
X4559865D02*
X4570025D01*
X4576375D02*
X4608633D01*
X4458519Y46207D02*
X4468171D01*
X4471981D02*
X4486713D01*
X4490523D02*
X4500175D01*
X4508303D02*
X4522019D01*
X4528369D02*
X4537259D01*
X4545895D02*
X4557325D01*
X4559865D02*
X4570025D01*
X4576375D02*
X4608633D01*
X4458519Y46461D02*
X4468171D01*
X4471981D02*
X4486713D01*
X4490523D02*
X4500175D01*
X4508049D02*
X4522273D01*
X4528369D02*
X4537259D01*
X4546149D02*
X4557325D01*
X4559865D02*
X4570025D01*
X4576375D02*
X4608633D01*
X4458519Y46715D02*
X4468171D01*
X4471981D02*
X4486713D01*
X4490523D02*
X4500175D01*
X4508049D02*
X4522527D01*
X4528369D02*
X4537259D01*
X4546403D02*
X4557579D01*
X4559865D02*
X4570025D01*
X4576375D02*
X4608633D01*
X4458519Y46969D02*
X4468171D01*
X4471981D02*
X4486713D01*
X4490523D02*
X4500175D01*
X4507795D02*
X4522781D01*
X4528115D02*
X4537259D01*
X4546403D02*
X4557579D01*
X4559865D02*
X4570025D01*
X4576375D02*
X4608633D01*
X4458519Y47223D02*
X4468171D01*
X4471727D02*
X4486713D01*
X4490523D02*
X4500175D01*
X4507795D02*
X4523035D01*
X4528115D02*
X4537005D01*
X4546657D02*
X4557833D01*
X4559865D02*
X4570025D01*
X4458519Y47477D02*
X4468171D01*
X4471727D02*
X4486967D01*
X4490523D02*
X4500175D01*
X4507541D02*
X4523035D01*
X4528115D02*
X4537005D01*
X4546911D02*
X4557833D01*
X4559865D02*
X4570025D01*
X4458519Y47731D02*
X4468171D01*
X4471727D02*
X4486967D01*
X4490523D02*
X4500175D01*
X4507287D02*
X4523289D01*
X4527861D02*
X4537005D01*
X4546911D02*
X4558087D01*
X4559865D02*
X4570025D01*
X4458519Y47985D02*
X4468171D01*
X4471727D02*
X4479093D01*
X4479601D02*
X4486967D01*
X4490523D02*
X4500175D01*
X4507287D02*
X4523543D01*
X4527607D02*
X4536751D01*
X4547165D02*
X4558341D01*
X4559865D02*
X4570025D01*
X4458519Y48239D02*
X4468171D01*
X4471727D02*
X4479093D01*
X4479601D02*
X4486967D01*
X4490523D02*
X4500175D01*
X4507033D02*
X4523797D01*
X4527607D02*
X4536751D01*
X4547419D02*
X4558341D01*
X4559865D02*
X4570025D01*
X4458519Y48493D02*
X4468171D01*
X4471473D02*
X4479093D01*
X4479601D02*
X4487221D01*
X4490523D02*
X4500175D01*
X4507033D02*
X4524051D01*
X4527353D02*
X4536497D01*
X4547419D02*
X4558595D01*
X4559865D02*
X4570025D01*
X4458519Y48747D02*
X4468171D01*
X4471473D02*
X4479093D01*
X4479601D02*
X4487221D01*
X4490523D02*
X4500175D01*
X4507033D02*
X4524305D01*
X4527099D02*
X4536497D01*
X4547673D02*
X4558595D01*
X4559865D02*
X4570025D01*
X4458519Y49001D02*
X4468171D01*
X4471473D02*
X4479093D01*
X4479601D02*
X4487221D01*
X4490523D02*
X4500175D01*
X4507033D02*
X4524305D01*
X4526845D02*
X4536243D01*
X4547927D02*
X4558849D01*
X4559865D02*
X4570025D01*
X4458519Y49255D02*
X4468171D01*
X4471473D02*
X4478839D01*
X4479601D02*
X4487221D01*
X4490523D02*
X4500175D01*
X4507033D02*
X4524559D01*
X4526591D02*
X4536243D01*
X4547927D02*
X4558849D01*
X4559865D02*
X4570025D01*
X4576375D02*
X4608633D01*
X4458519Y49509D02*
X4468171D01*
X4471219D02*
X4478839D01*
X4479855D02*
X4487221D01*
X4490523D02*
X4500175D01*
X4507033D02*
X4513383D01*
X4513891D02*
X4524813D01*
X4526337D02*
X4535989D01*
X4548181D02*
X4559103D01*
X4559865D02*
X4570025D01*
X4576375D02*
X4608633D01*
X4458519Y49763D02*
X4468171D01*
X4471219D02*
X4478839D01*
X4479855D02*
X4487475D01*
X4490523D02*
X4500175D01*
X4507033D02*
X4513129D01*
X4514145D02*
X4525067D01*
X4526083D02*
X4535989D01*
X4548435D02*
X4559357D01*
X4559865D02*
X4570025D01*
X4576375D02*
X4608633D01*
X4458519Y50017D02*
X4468171D01*
X4471219D02*
X4478839D01*
X4479855D02*
X4487475D01*
X4490523D02*
X4500175D01*
X4507033D02*
X4512875D01*
X4514399D02*
X4525321D01*
X4525829D02*
X4535735D01*
X4548435D02*
X4559357D01*
X4559865D02*
X4570025D01*
X4576375D02*
X4608633D01*
X4458519Y50271D02*
X4468171D01*
X4471219D02*
X4478839D01*
X4479855D02*
X4487475D01*
X4490523D02*
X4500175D01*
X4507033D02*
X4512875D01*
X4514653D02*
X4535481D01*
X4548689D02*
X4559611D01*
X4559865D02*
X4570025D01*
X4576375D02*
X4608633D01*
X4458519Y50525D02*
X4468171D01*
X4471219D02*
X4478585D01*
X4479855D02*
X4487475D01*
X4490523D02*
X4500175D01*
X4507033D02*
X4512621D01*
X4514907D02*
X4535227D01*
X4548943D02*
X4559611D01*
X4559865D02*
X4570025D01*
X4576375D02*
X4608633D01*
X4458519Y50779D02*
X4468171D01*
X4470965D02*
X4478585D01*
X4480109D02*
X4487475D01*
X4490523D02*
X4500175D01*
X4507033D02*
X4512367D01*
X4514907D02*
X4535227D01*
X4548943D02*
X4570025D01*
X4576375D02*
X4608633D01*
X4458519Y51033D02*
X4468171D01*
X4470965D02*
X4478585D01*
X4480109D02*
X4487729D01*
X4490523D02*
X4500175D01*
X4507033D02*
X4512367D01*
X4515161D02*
X4534973D01*
X4549197D02*
X4570025D01*
X4576375D02*
X4608633D01*
X4458519Y51287D02*
X4468171D01*
X4470965D02*
X4478585D01*
X4480109D02*
X4487729D01*
X4490523D02*
X4500175D01*
X4507033D02*
X4512113D01*
X4515415D02*
X4534719D01*
X4549451D02*
X4570025D01*
X4576375D02*
X4608633D01*
X4458519Y51541D02*
X4468171D01*
X4470965D02*
X4478585D01*
X4480109D02*
X4487729D01*
X4490523D02*
X4500175D01*
X4507033D02*
X4511859D01*
X4515669D02*
X4534465D01*
X4549451D02*
X4570025D01*
X4576375D02*
X4608633D01*
X4458519Y51795D02*
X4468171D01*
X4470965D02*
X4478331D01*
X4480109D02*
X4487729D01*
X4490523D02*
X4500175D01*
X4507033D02*
X4511859D01*
X4515923D02*
X4534211D01*
X4549705D02*
X4570025D01*
X4576375D02*
X4608633D01*
X4458519Y52049D02*
X4468171D01*
X4470711D02*
X4478331D01*
X4480363D02*
X4487983D01*
X4490523D02*
X4500175D01*
X4507033D02*
X4511605D01*
X4515923D02*
X4533957D01*
X4549959D02*
X4570025D01*
X4576375D02*
X4608633D01*
X4458519Y52303D02*
X4468171D01*
X4470711D02*
X4478331D01*
X4480363D02*
X4487983D01*
X4490523D02*
X4500175D01*
X4507033D02*
X4511351D01*
X4516177D02*
X4533703D01*
X4549959D02*
X4570025D01*
X4576375D02*
X4608633D01*
X4458519Y52557D02*
X4468171D01*
X4470711D02*
X4478331D01*
X4480363D02*
X4487983D01*
X4490523D02*
X4500175D01*
X4507033D02*
X4511351D01*
X4516431D02*
X4533449D01*
X4547927D02*
X4570025D01*
X4576375D02*
X4608633D01*
X4458519Y52811D02*
X4468171D01*
X4470711D02*
X4478331D01*
X4480363D02*
X4487983D01*
X4490523D02*
X4500175D01*
X4507033D02*
X4511097D01*
X4516685D02*
X4533195D01*
X4546911D02*
X4570025D01*
X4576375D02*
X4608633D01*
X4458519Y53065D02*
X4468171D01*
X4470457D02*
X4478077D01*
X4480363D02*
X4487983D01*
X4490523D02*
X4500175D01*
X4507033D02*
X4511097D01*
X4516939D02*
X4532941D01*
X4546149D02*
X4570025D01*
X4576375D02*
X4608633D01*
X4458519Y53319D02*
X4468171D01*
X4470457D02*
X4478077D01*
X4480363D02*
X4488237D01*
X4490523D02*
X4500175D01*
X4507033D02*
X4510843D01*
X4517193D02*
X4532687D01*
X4545641D02*
X4570025D01*
X4576375D02*
X4608633D01*
X4458519Y53573D02*
X4468171D01*
X4470457D02*
X4478077D01*
X4480617D02*
X4488237D01*
X4490523D02*
X4500175D01*
X4507033D02*
X4510589D01*
X4517193D02*
X4532433D01*
X4545133D02*
X4570025D01*
X4576375D02*
X4608633D01*
X4458519Y53827D02*
X4468171D01*
X4470457D02*
X4478077D01*
X4480617D02*
X4488237D01*
X4490523D02*
X4500175D01*
X4507033D02*
X4510589D01*
X4517447D02*
X4531925D01*
X4544625D02*
X4570025D01*
X4576375D02*
X4608633D01*
X4458519Y54081D02*
X4468171D01*
X4470457D02*
X4478077D01*
X4480617D02*
X4488237D01*
X4490523D02*
X4500175D01*
X4507033D02*
X4510335D01*
X4517701D02*
X4531671D01*
X4544371D02*
X4570025D01*
X4576375D02*
X4608633D01*
X4458519Y54335D02*
X4468171D01*
X4470203D02*
X4477823D01*
X4480617D02*
X4488237D01*
X4490523D02*
X4500175D01*
X4507033D02*
X4510335D01*
X4517955D02*
X4531417D01*
X4543863D02*
X4570025D01*
X4576375D02*
X4608633D01*
X4458519Y54589D02*
X4468171D01*
X4470203D02*
X4477823D01*
X4480617D02*
X4488491D01*
X4490523D02*
X4500175D01*
X4507033D02*
X4510081D01*
X4518209D02*
X4531163D01*
X4543609D02*
X4570025D01*
X4576375D02*
X4608633D01*
X4458519Y54843D02*
X4468171D01*
X4470203D02*
X4477823D01*
X4480871D02*
X4488491D01*
X4490523D02*
X4500175D01*
X4507033D02*
X4509827D01*
X4518463D02*
X4530655D01*
X4543355D02*
X4570025D01*
X4576375D02*
X4608633D01*
X4458519Y55097D02*
X4468171D01*
X4470203D02*
X4477823D01*
X4480871D02*
X4488491D01*
X4490523D02*
X4500175D01*
X4507033D02*
X4509827D01*
X4518463D02*
X4530401D01*
X4543101D02*
X4570025D01*
X4576375D02*
X4608633D01*
X4458519Y55351D02*
X4468171D01*
X4470203D02*
X4477823D01*
X4480871D02*
X4488491D01*
X4490523D02*
X4500175D01*
X4507033D02*
X4509573D01*
X4518209D02*
X4529893D01*
X4542847D02*
X4570025D01*
X4576375D02*
X4608633D01*
X4458519Y55605D02*
X4468171D01*
X4469949D02*
X4477823D01*
X4480871D02*
X4488745D01*
X4490523D02*
X4500175D01*
X4507033D02*
X4509573D01*
X4517955D02*
X4529893D01*
X4542593D02*
X4570025D01*
X4576375D02*
X4608633D01*
X4458519Y55859D02*
X4468171D01*
X4469949D02*
X4477569D01*
X4480871D02*
X4488745D01*
X4490523D02*
X4500175D01*
X4507033D02*
X4509319D01*
X4517701D02*
X4530147D01*
X4542339D02*
X4570025D01*
X4576375D02*
X4608633D01*
X4458519Y56113D02*
X4468171D01*
X4469949D02*
X4477569D01*
X4481125D02*
X4488745D01*
X4490523D02*
X4500175D01*
X4507033D02*
X4509319D01*
X4517193D02*
X4530401D01*
X4542085D02*
X4570025D01*
X4576375D02*
X4608633D01*
X4458519Y56367D02*
X4468171D01*
X4469949D02*
X4477569D01*
X4481125D02*
X4488745D01*
X4490523D02*
X4500175D01*
X4507033D02*
X4509065D01*
X4516939D02*
X4530401D01*
X4542085D02*
X4570025D01*
X4576375D02*
X4608633D01*
X4458519Y56621D02*
X4468171D01*
X4469695D02*
X4477569D01*
X4481125D02*
X4488745D01*
X4490523D02*
X4500175D01*
X4507033D02*
X4509065D01*
X4516685D02*
X4530655D01*
X4541831D02*
X4570025D01*
X4576375D02*
X4608633D01*
X4458519Y56875D02*
X4468171D01*
X4469695D02*
X4477569D01*
X4481125D02*
X4488999D01*
X4490523D02*
X4500175D01*
X4507033D02*
X4508811D01*
X4516431D02*
X4530909D01*
X4541577D02*
X4570025D01*
X4576375D02*
X4608633D01*
X4458519Y57129D02*
X4468171D01*
X4469695D02*
X4477315D01*
X4481125D02*
X4488999D01*
X4490523D02*
X4500175D01*
X4507033D02*
X4508811D01*
X4516177D02*
X4531163D01*
X4541577D02*
X4553007D01*
X4559865D02*
X4570025D01*
X4576375D02*
X4608633D01*
X4458519Y57383D02*
X4468171D01*
X4469695D02*
X4477315D01*
X4481125D02*
X4488999D01*
X4490523D02*
X4500175D01*
X4507033D02*
X4508557D01*
X4515923D02*
X4531417D01*
X4541323D02*
X4552245D01*
X4559865D02*
X4570025D01*
X4576375D02*
X4608633D01*
X4458519Y57637D02*
X4468171D01*
X4469695D02*
X4477315D01*
X4481379D02*
X4488999D01*
X4490523D02*
X4500175D01*
X4507033D02*
X4508557D01*
X4515669D02*
X4531671D01*
X4541323D02*
X4551737D01*
X4559865D02*
X4570025D01*
X4576375D02*
X4608633D01*
X4458519Y57891D02*
X4468171D01*
X4469441D02*
X4477315D01*
X4481379D02*
X4489253D01*
X4490523D02*
X4500175D01*
X4507033D02*
X4508303D01*
X4515415D02*
X4531925D01*
X4541069D02*
X4551483D01*
X4559865D02*
X4570025D01*
X4576375D02*
X4608633D01*
X4458519Y58145D02*
X4468171D01*
X4469441D02*
X4477315D01*
X4481379D02*
X4489253D01*
X4490523D02*
X4500175D01*
X4507033D02*
X4508303D01*
X4515161D02*
X4531925D01*
X4541069D02*
X4551229D01*
X4559865D02*
X4570025D01*
X4576375D02*
X4608633D01*
X4458519Y58399D02*
X4468171D01*
X4469441D02*
X4477061D01*
X4481379D02*
X4489253D01*
X4490523D02*
X4500175D01*
X4507033D02*
X4508049D01*
X4514907D02*
X4532179D01*
X4540815D02*
X4550975D01*
X4559865D02*
X4570025D01*
X4576375D02*
X4608633D01*
X4458519Y58653D02*
X4468171D01*
X4469441D02*
X4477061D01*
X4481379D02*
X4489253D01*
X4490523D02*
X4500175D01*
X4507033D02*
X4508049D01*
X4514653D02*
X4532433D01*
X4540815D02*
X4550721D01*
X4559865D02*
X4570025D01*
X4576375D02*
X4608633D01*
X4458519Y58907D02*
X4468171D01*
X4469187D02*
X4477061D01*
X4481633D02*
X4489253D01*
X4490523D02*
X4500175D01*
X4507033D02*
X4507795D01*
X4514653D02*
X4532433D01*
X4540561D02*
X4550467D01*
X4559865D02*
X4570025D01*
X4576375D02*
X4608633D01*
X4458519Y59161D02*
X4468171D01*
X4469187D02*
X4477061D01*
X4481633D02*
X4489507D01*
X4490523D02*
X4500175D01*
X4507033D02*
X4507795D01*
X4514399D02*
X4532687D01*
X4540561D02*
X4550467D01*
X4559865D02*
X4570025D01*
X4576375D02*
X4608633D01*
X4458519Y59415D02*
X4468171D01*
X4469187D02*
X4477061D01*
X4481633D02*
X4489507D01*
X4490523D02*
X4500175D01*
X4507033D02*
X4507541D01*
X4514145D02*
X4532941D01*
X4540561D02*
X4550467D01*
X4559865D02*
X4570025D01*
X4576375D02*
X4608633D01*
X4458519Y59669D02*
X4468171D01*
X4469187D02*
X4476807D01*
X4481633D02*
X4489507D01*
X4490523D02*
X4500175D01*
X4507033D02*
X4507541D01*
X4513891D02*
X4532941D01*
X4540307D02*
X4550213D01*
X4559865D02*
X4570025D01*
X4576375D02*
X4608633D01*
X4458519Y59923D02*
X4468171D01*
X4469187D02*
X4476807D01*
X4481633D02*
X4489507D01*
X4490523D02*
X4500175D01*
X4507033D02*
X4507541D01*
X4513637D02*
X4522781D01*
X4523289D02*
X4533195D01*
X4540307D02*
X4550213D01*
X4559865D02*
X4570025D01*
X4576375D02*
X4608633D01*
X4458519Y60177D02*
X4468171D01*
X4468933D02*
X4476807D01*
X4481887D02*
X4489507D01*
X4490523D02*
X4500175D01*
X4507033D02*
X4507287D01*
X4513637D02*
X4522527D01*
X4523543D02*
X4533195D01*
X4540307D02*
X4550213D01*
X4559865D02*
X4570025D01*
X4576375D02*
X4608633D01*
X4458519Y60431D02*
X4468171D01*
X4468933D02*
X4476807D01*
X4481887D02*
X4489761D01*
X4490523D02*
X4500175D01*
X4513383D02*
X4522273D01*
X4523797D02*
X4533449D01*
X4540307D02*
X4550213D01*
X4559865D02*
X4570025D01*
X4576375D02*
X4608633D01*
X4458519Y60685D02*
X4468171D01*
X4468933D02*
X4476807D01*
X4481887D02*
X4489761D01*
X4490523D02*
X4500175D01*
X4513383D02*
X4522019D01*
X4523797D02*
X4533449D01*
X4540053D02*
X4550213D01*
X4559865D02*
X4570025D01*
X4458519Y60939D02*
X4468171D01*
X4468933D02*
X4476553D01*
X4481887D02*
X4489761D01*
X4490523D02*
X4500175D01*
X4513129D02*
X4521765D01*
X4524051D02*
X4533703D01*
X4540053D02*
X4550213D01*
X4559865D02*
X4570025D01*
X4458519Y61193D02*
X4468171D01*
X4468933D02*
X4476553D01*
X4481887D02*
X4489761D01*
X4490523D02*
X4500175D01*
X4512875D02*
X4521511D01*
X4524305D02*
X4533703D01*
X4540053D02*
X4550213D01*
X4559865D02*
X4570025D01*
X4458519Y61447D02*
X4468171D01*
X4468679D02*
X4476553D01*
X4481887D02*
X4490015D01*
X4490523D02*
X4500175D01*
X4512875D02*
X4521257D01*
X4524559D02*
X4533703D01*
X4540053D02*
X4550213D01*
X4559865D02*
X4570025D01*
X4458519Y61701D02*
X4468171D01*
X4468679D02*
X4476553D01*
X4482141D02*
X4490015D01*
X4490523D02*
X4500175D01*
X4512621D02*
X4521003D01*
X4524559D02*
X4533957D01*
X4540053D02*
X4550213D01*
X4559865D02*
X4570025D01*
X4458519Y61955D02*
X4468171D01*
X4468679D02*
X4476553D01*
X4482141D02*
X4490015D01*
X4490523D02*
X4500175D01*
X4512621D02*
X4520749D01*
X4524813D02*
X4533957D01*
X4539799D02*
X4550213D01*
X4559865D02*
X4570025D01*
X4458519Y62209D02*
X4468171D01*
X4468679D02*
X4476299D01*
X4482141D02*
X4490015D01*
X4490523D02*
X4500175D01*
X4512621D02*
X4520749D01*
X4524813D02*
X4533957D01*
X4539799D02*
X4550213D01*
X4559865D02*
X4570025D01*
X4458519Y62463D02*
X4468171D01*
X4468425D02*
X4476299D01*
X4482141D02*
X4490015D01*
X4490523D02*
X4500175D01*
X4512367D02*
X4520495D01*
X4525067D02*
X4533957D01*
X4539799D02*
X4550213D01*
X4559865D02*
X4570025D01*
X4458519Y62717D02*
X4468171D01*
X4468425D02*
X4476299D01*
X4482141D02*
X4490269D01*
X4490523D02*
X4500175D01*
X4512367D02*
X4520495D01*
X4525067D02*
X4534211D01*
X4539799D02*
X4550213D01*
X4559865D02*
X4570025D01*
X4576375D02*
X4608633D01*
X4458519Y62971D02*
X4468171D01*
X4468425D02*
X4476299D01*
X4482395D02*
X4490269D01*
X4490523D02*
X4500175D01*
X4512113D02*
X4520241D01*
X4525321D02*
X4534211D01*
X4539799D02*
X4550467D01*
X4559865D02*
X4570025D01*
X4576375D02*
X4608633D01*
X4458519Y63225D02*
X4468171D01*
X4468425D02*
X4476299D01*
X4482395D02*
X4490269D01*
X4490523D02*
X4500175D01*
X4512113D02*
X4520241D01*
X4525321D02*
X4534211D01*
X4539799D02*
X4550467D01*
X4559865D02*
X4570025D01*
X4576375D02*
X4608633D01*
X4458519Y63479D02*
X4468171D01*
X4468425D02*
X4476045D01*
X4482395D02*
X4490269D01*
X4490523D02*
X4500175D01*
X4512113D02*
X4520241D01*
X4525321D02*
X4534211D01*
X4539799D02*
X4550721D01*
X4559865D02*
X4570025D01*
X4576375D02*
X4608633D01*
X4458519Y63733D02*
X4476045D01*
X4482395D02*
X4490269D01*
X4490523D02*
X4500175D01*
X4512113D02*
X4520241D01*
X4525321D02*
X4534211D01*
X4539799D02*
X4550975D01*
X4559865D02*
X4570025D01*
X4576375D02*
X4608633D01*
X4458519Y63987D02*
X4476045D01*
X4482395D02*
X4500175D01*
X4511859D02*
X4520241D01*
X4525321D02*
X4534465D01*
X4539799D02*
X4551229D01*
X4559865D02*
X4570025D01*
X4576375D02*
X4608633D01*
X4458519Y64241D02*
X4476045D01*
X4482649D02*
X4500175D01*
X4511859D02*
X4520241D01*
X4525321D02*
X4534465D01*
X4539799D02*
X4551737D01*
X4559865D02*
X4570025D01*
X4576375D02*
X4608633D01*
X4458519Y64495D02*
X4476045D01*
X4482649D02*
X4500175D01*
X4511859D02*
X4520241D01*
X4525321D02*
X4534465D01*
X4539799D02*
X4552753D01*
X4559865D02*
X4570025D01*
X4576375D02*
X4608633D01*
X4458519Y64749D02*
X4476045D01*
X4482649D02*
X4500175D01*
X4511859D02*
X4520241D01*
X4525321D02*
X4534465D01*
X4539799D02*
X4570025D01*
X4576375D02*
X4608633D01*
X4458519Y65003D02*
X4475791D01*
X4482649D02*
X4500175D01*
X4511859D02*
X4520241D01*
X4525321D02*
X4534465D01*
X4539799D02*
X4570025D01*
X4576375D02*
X4608633D01*
X4458519Y65257D02*
X4475791D01*
X4482649D02*
X4500175D01*
X4511859D02*
X4520241D01*
X4525321D02*
X4534465D01*
X4539799D02*
X4570025D01*
X4576375D02*
X4608633D01*
X4458519Y65511D02*
X4475791D01*
X4482649D02*
X4500175D01*
X4511859D02*
X4520241D01*
X4525067D02*
X4534465D01*
X4539799D02*
X4570025D01*
X4576375D02*
X4608633D01*
X4458519Y65765D02*
X4475791D01*
X4482903D02*
X4500175D01*
X4511859D02*
X4520495D01*
X4525067D02*
X4534465D01*
X4539799D02*
X4570025D01*
X4576375D02*
X4608633D01*
X4458519Y66019D02*
X4475791D01*
X4482903D02*
X4500175D01*
X4511859D02*
X4520749D01*
X4524813D02*
X4534465D01*
X4539799D02*
X4570025D01*
X4576375D02*
X4608633D01*
X4458519Y66273D02*
X4475537D01*
X4482903D02*
X4500175D01*
X4511859D02*
X4520749D01*
X4524559D02*
X4534465D01*
X4540053D02*
X4570025D01*
X4576375D02*
X4608633D01*
X4458519Y66527D02*
X4475537D01*
X4482903D02*
X4500175D01*
X4511859D02*
X4521257D01*
X4524051D02*
X4534465D01*
X4540053D02*
X4570025D01*
X4576375D02*
X4608633D01*
X4458519Y66781D02*
X4475537D01*
X4482903D02*
X4500175D01*
X4511859D02*
X4521765D01*
X4523543D02*
X4534211D01*
X4540053D02*
X4570025D01*
X4576375D02*
X4608633D01*
X4458519Y67035D02*
X4475537D01*
X4483157D02*
X4500175D01*
X4511859D02*
X4534211D01*
X4540053D02*
X4570025D01*
X4576375D02*
X4608633D01*
X4458519Y67289D02*
X4475537D01*
X4483157D02*
X4500175D01*
X4511859D02*
X4534211D01*
X4540053D02*
X4570025D01*
X4576375D02*
X4608633D01*
X4458519Y67543D02*
X4475283D01*
X4483157D02*
X4500175D01*
X4511859D02*
X4534211D01*
X4540307D02*
X4570025D01*
X4576375D02*
X4608633D01*
X4458519Y67797D02*
X4475283D01*
X4483157D02*
X4500175D01*
X4511859D02*
X4533957D01*
X4540307D02*
X4570025D01*
X4576375D02*
X4608633D01*
X4458519Y68051D02*
X4475283D01*
X4483157D02*
X4500175D01*
X4512113D02*
X4533957D01*
X4540307D02*
X4570025D01*
X4576375D02*
X4608633D01*
X4458519Y68305D02*
X4475283D01*
X4483411D02*
X4500175D01*
X4512113D02*
X4533957D01*
X4540561D02*
X4570025D01*
X4576375D02*
X4608633D01*
X4458519Y68559D02*
X4475283D01*
X4483411D02*
X4500175D01*
X4512113D02*
X4533703D01*
X4540561D02*
X4570025D01*
X4576375D02*
X4608633D01*
X4458519Y68813D02*
X4475029D01*
X4483411D02*
X4500175D01*
X4512113D02*
X4533703D01*
X4540561D02*
X4570025D01*
X4576375D02*
X4608633D01*
X4458519Y69067D02*
X4475029D01*
X4483411D02*
X4500175D01*
X4512367D02*
X4533703D01*
X4540815D02*
X4570025D01*
X4576375D02*
X4608633D01*
X4458519Y69321D02*
X4475029D01*
X4483411D02*
X4500175D01*
X4512367D02*
X4533449D01*
X4540815D02*
X4570025D01*
X4576375D02*
X4608633D01*
X4458519Y69575D02*
X4475029D01*
X4483411D02*
X4500175D01*
X4512621D02*
X4533195D01*
X4541069D02*
X4570025D01*
X4576375D02*
X4608633D01*
X4458519Y69829D02*
X4475029D01*
X4483665D02*
X4500175D01*
X4512621D02*
X4533195D01*
X4541069D02*
X4570025D01*
X4576375D02*
X4608633D01*
X4458519Y70083D02*
X4474775D01*
X4483665D02*
X4500175D01*
X4512875D02*
X4532941D01*
X4541323D02*
X4570025D01*
X4576375D02*
X4608633D01*
X4458519Y70337D02*
X4474775D01*
X4483665D02*
X4500175D01*
X4512875D02*
X4532687D01*
X4541323D02*
X4570025D01*
X4576375D02*
X4608633D01*
X4458519Y70591D02*
X4474775D01*
X4483665D02*
X4500175D01*
X4513129D02*
X4532433D01*
X4541577D02*
X4570025D01*
X4576375D02*
X4608633D01*
X4458519Y70845D02*
X4474775D01*
X4483665D02*
X4500175D01*
X4513383D02*
X4532179D01*
X4541831D02*
X4570025D01*
X4576375D02*
X4608633D01*
X4458519Y71099D02*
X4474775D01*
X4483919D02*
X4500175D01*
X4513637D02*
X4531925D01*
X4542085D02*
X4570025D01*
X4576375D02*
X4608633D01*
X4458519Y71353D02*
X4474521D01*
X4483919D02*
X4500175D01*
X4513891D02*
X4531671D01*
X4542339D02*
X4570025D01*
X4576375D02*
X4608633D01*
X4458519Y71607D02*
X4474521D01*
X4483919D02*
X4500175D01*
X4514145D02*
X4531417D01*
X4542593D02*
X4570025D01*
X4576375D02*
X4608633D01*
X4458519Y71861D02*
X4474521D01*
X4483919D02*
X4500175D01*
X4514399D02*
X4531163D01*
X4542847D02*
X4570025D01*
X4576375D02*
X4608633D01*
X4458519Y72115D02*
X4474521D01*
X4483919D02*
X4500175D01*
X4514653D02*
X4530655D01*
X4543101D02*
X4570025D01*
X4576375D02*
X4608633D01*
X4458519Y72369D02*
X4474521D01*
X4484173D02*
X4500175D01*
X4515161D02*
X4530401D01*
X4543355D02*
X4570025D01*
X4576375D02*
X4608633D01*
X4458519Y72623D02*
X4474267D01*
X4484173D02*
X4500175D01*
X4515415D02*
X4529893D01*
X4543863D02*
X4570025D01*
X4576375D02*
X4608633D01*
X4458519Y72877D02*
X4474267D01*
X4484173D02*
X4500175D01*
X4515923D02*
X4529385D01*
X4544371D02*
X4570025D01*
X4576375D02*
X4608633D01*
X4458519Y73131D02*
X4474267D01*
X4484173D02*
X4500175D01*
X4516431D02*
X4528877D01*
X4544879D02*
X4570025D01*
X4576375D02*
X4608633D01*
X4458519Y73385D02*
X4474267D01*
X4484173D02*
X4500175D01*
X4517193D02*
X4528115D01*
X4545641D02*
X4570025D01*
X4576375D02*
X4608633D01*
X4458519Y73639D02*
X4474267D01*
X4484173D02*
X4500175D01*
X4517701D02*
X4527353D01*
X4546403D02*
X4570025D01*
X4576375D02*
X4608633D01*
X4458519Y73893D02*
X4474267D01*
X4484427D02*
X4500175D01*
X4518717D02*
X4526591D01*
X4547419D02*
X4570025D01*
X4576375D02*
X4608633D01*
X4458519Y74147D02*
X4474013D01*
X4484427D02*
X4500175D01*
X4519987D02*
X4525067D01*
X4548943D02*
X4570025D01*
X4576375D02*
X4608633D01*
D19*
Y20391D02*
Y26389D01*
X4605634D01*
X4604634Y25389D01*
Y23390D01*
X4605634Y22390D01*
X4608633D01*
X4598636Y25389D02*
X4599636Y26389D01*
X4601635D01*
X4602635Y25389D01*
Y21391D01*
X4601635Y20391D01*
X4599636D01*
X4598636Y21391D01*
X4596637Y26389D02*
Y20391D01*
X4593638D01*
X4592638Y21391D01*
Y22390D01*
X4593638Y23390D01*
X4596637D01*
X4593638D01*
X4592638Y24390D01*
Y25389D01*
X4593638Y26389D01*
X4596637D01*
X4584641Y24390D02*
X4582641Y20391D01*
X4580642Y24390D01*
X4575644Y20391D02*
X4577643D01*
X4578643Y21391D01*
Y23390D01*
X4577643Y24390D01*
X4575644D01*
X4574644Y23390D01*
Y22390D01*
X4578643D01*
X4572644Y24390D02*
Y20391D01*
Y22390D01*
X4571645Y23390D01*
X4570645Y24390D01*
X4569645D01*
X4566646Y20391D02*
X4563647D01*
X4562648Y21391D01*
X4563647Y22390D01*
X4565647D01*
X4566646Y23390D01*
X4565647Y24390D01*
X4562648D01*
X4560648Y20391D02*
X4558649D01*
X4559649D01*
Y24390D01*
X4560648D01*
X4554650Y20391D02*
X4552651D01*
X4551651Y21391D01*
Y23390D01*
X4552651Y24390D01*
X4554650D01*
X4555650Y23390D01*
Y21391D01*
X4554650Y20391D01*
X4549652D02*
Y24390D01*
X4546653D01*
X4545653Y23390D01*
Y20391D01*
X4537656Y25389D02*
X4536656Y26389D01*
X4534657D01*
X4533657Y25389D01*
Y21391D01*
X4534657Y20391D01*
X4536656D01*
X4537656Y21391D01*
Y25389D01*
X4531658Y20391D02*
Y21391D01*
X4530658D01*
Y20391D01*
X4531658D01*
X4522661D02*
X4526660D01*
X4522661Y24390D01*
Y25389D01*
X4523660Y26389D01*
X4525660D01*
X4526660Y25389D01*
M02*
