G04*
G04 #@! TF.GenerationSoftware,Altium Limited,Altium Designer,19.1.8 (144)*
G04*
G04 Layer_Color=8388736*
%FSLAX44Y44*%
%MOMM*%
G71*
G01*
G75*
%ADD150C,0.0100*%
%ADD152C,0.0127*%
D150*
X911122Y50D02*
G03*
X899854Y45I-5633J-2067D01*
G01*
X1091125Y40D02*
G03*
X1079853Y40I-5636J-2057D01*
G01*
X2025157Y30D02*
G03*
X2013843Y30I-5657J-2000D01*
G01*
X2205140D02*
G03*
X2193860Y30I-5640J-2047D01*
G01*
X2959141Y27D02*
G03*
X2947860Y30I-5641J-2044D01*
G01*
X3139143Y21D02*
G03*
X3127856Y20I-5643J-2038D01*
G01*
X3319143Y20D02*
G03*
X3307857Y20I-5644J-2037D01*
G01*
X3893143Y21D02*
G03*
X3881856Y21I-5643J-2038D01*
G01*
X4073061Y3D02*
G03*
X4061938Y0I-5561J-2019D01*
G01*
X4253061Y3D02*
G03*
X4241938Y0I-5561J-2019D01*
G01*
X4433151Y0D02*
G03*
X4421849Y1I-5651J-2017D01*
G01*
X191120Y52D02*
G03*
X179858Y52I-5631J-2071D01*
G01*
X371120Y53D02*
G03*
X359858Y55I-5631J-2070D01*
G01*
X551373Y38D02*
G03*
X539611Y57I-5885J-2055D01*
G01*
X731119D02*
G03*
X719854Y45I-5630J-2073D01*
G01*
X1305133Y50D02*
G03*
X1293865Y45I-5633J-2067D01*
G01*
X1485138Y36D02*
G03*
X1473864Y41I-5638J-2052D01*
G01*
X1665136Y40D02*
G03*
X1653864Y41I-5636J-2057D01*
G01*
X2419140Y30D02*
G03*
X2407860Y30I-5640J-2047D01*
G01*
X2599139Y32D02*
G03*
X2587859Y27I-5639J-2049D01*
G01*
X2779140Y30D02*
G03*
X2767859Y27I-5640J-2047D01*
G01*
X3533144Y20D02*
G03*
X3521857Y21I-5644J-2037D01*
G01*
X3713143Y20D02*
G03*
X3701857Y20I-5643J-2038D01*
G01*
X1845137Y39D02*
G03*
X1833864Y41I-5637J-2056D01*
G01*
X4421850Y0D02*
X4433150D01*
X4241942Y0D02*
X4253058D01*
X4061938Y-1D02*
X4073062Y1D01*
X3881857Y20D02*
X3893143Y20D01*
X3701857Y1D02*
X3713143Y-0D01*
X3521856Y1D02*
X3533144Y-0D01*
X3307857Y0D02*
X3319143D01*
X3127856D02*
X3139143D01*
X2947859Y23D02*
X2959141Y19D01*
X2767860Y0D02*
X2779140D01*
X2587860Y-2D02*
X2599140Y2D01*
X2407860Y0D02*
X2419140D01*
X179858Y55D02*
X191120D01*
X2193849Y30D02*
X2205129D01*
X2013843Y-10D02*
X2025153Y0D01*
X1833866D02*
X1845100Y40D01*
X1653853Y0D02*
X1665153D01*
X1473873D02*
X1485144D01*
X1293847D02*
X1305153D01*
X1079853Y40D02*
X1091125D01*
X899854Y45D02*
X911119Y50D01*
X719854Y45D02*
X731119Y50D01*
X539611Y57D02*
X551373Y40D01*
X359858Y55D02*
X371120Y53D01*
D152*
X3810500Y50000D02*
G03*
X3810500Y50000I-10000J0D01*
G01*
X3054500D02*
G03*
X3054500Y50000I-10000J0D01*
G01*
X822500D02*
G03*
X822500Y50000I-10000J0D01*
G01*
X1578500D02*
G03*
X1578500Y50000I-10000J0D01*
G01*
M02*
