G04*
G04 #@! TF.GenerationSoftware,Altium Limited,Altium Designer,19.1.8 (144)*
G04*
G04 Layer_Color=8388736*
%FSLAX44Y44*%
%MOMM*%
G71*
G01*
G75*
%ADD73R,0.8032X0.6032*%
G04:AMPARAMS|DCode=74|XSize=0.7032mm|YSize=0.8032mm|CornerRadius=0.1516mm|HoleSize=0mm|Usage=FLASHONLY|Rotation=180.000|XOffset=0mm|YOffset=0mm|HoleType=Round|Shape=RoundedRectangle|*
%AMROUNDEDRECTD74*
21,1,0.7032,0.5000,0,0,180.0*
21,1,0.4000,0.8032,0,0,180.0*
1,1,0.3032,-0.2000,0.2500*
1,1,0.3032,0.2000,0.2500*
1,1,0.3032,0.2000,-0.2500*
1,1,0.3032,-0.2000,-0.2500*
%
%ADD74ROUNDEDRECTD74*%
G04:AMPARAMS|DCode=75|XSize=0.7032mm|YSize=0.8032mm|CornerRadius=0.1516mm|HoleSize=0mm|Usage=FLASHONLY|Rotation=270.000|XOffset=0mm|YOffset=0mm|HoleType=Round|Shape=RoundedRectangle|*
%AMROUNDEDRECTD75*
21,1,0.7032,0.5000,0,0,270.0*
21,1,0.4000,0.8032,0,0,270.0*
1,1,0.3032,-0.2500,-0.2000*
1,1,0.3032,-0.2500,0.2000*
1,1,0.3032,0.2500,0.2000*
1,1,0.3032,0.2500,-0.2000*
%
%ADD75ROUNDEDRECTD75*%
%ADD76R,1.4532X1.5382*%
%ADD77R,1.3532X1.5382*%
%ADD78R,0.9032X1.5532*%
%ADD79R,0.6032X1.4032*%
%ADD80R,1.5032X1.4782*%
%ADD81R,1.4782X1.4782*%
%ADD82R,1.4532X1.1832*%
%ADD83R,1.6032X1.0032*%
%ADD84R,2.6032X1.4032*%
%ADD85R,2.3232X1.4032*%
%ADD86R,7.7032X7.7032*%
%ADD87O,1.0532X0.4532*%
%ADD88O,0.4532X1.0532*%
%ADD89R,3.9032X1.4532*%
%ADD90R,2.0440X1.8440*%
%ADD91R,0.4690X1.0530*%
%ADD92R,2.2032X1.9032*%
%ADD93R,1.0532X0.4832*%
%ADD94R,0.4832X1.0532*%
%ADD95R,3.6532X3.6532*%
%ADD96R,2.2532X2.7532*%
%ADD97R,2.7532X2.2532*%
%ADD98R,2.2032X1.2032*%
%ADD99R,0.4600X0.7600*%
%ADD100R,0.7600X0.4600*%
%ADD101R,1.2032X2.2032*%
%ADD102C,0.4600*%
G04:AMPARAMS|DCode=103|XSize=1.2032mm|YSize=1.1032mm|CornerRadius=0.2141mm|HoleSize=0mm|Usage=FLASHONLY|Rotation=0.000|XOffset=0mm|YOffset=0mm|HoleType=Round|Shape=RoundedRectangle|*
%AMROUNDEDRECTD103*
21,1,1.2032,0.6750,0,0,0.0*
21,1,0.7750,1.1032,0,0,0.0*
1,1,0.4282,0.3875,-0.3375*
1,1,0.4282,-0.3875,-0.3375*
1,1,0.4282,-0.3875,0.3375*
1,1,0.4282,0.3875,0.3375*
%
%ADD103ROUNDEDRECTD103*%
G04:AMPARAMS|DCode=104|XSize=1.2032mm|YSize=1.1032mm|CornerRadius=0.2141mm|HoleSize=0mm|Usage=FLASHONLY|Rotation=90.000|XOffset=0mm|YOffset=0mm|HoleType=Round|Shape=RoundedRectangle|*
%AMROUNDEDRECTD104*
21,1,1.2032,0.6750,0,0,90.0*
21,1,0.7750,1.1032,0,0,90.0*
1,1,0.4282,0.3375,0.3875*
1,1,0.4282,0.3375,-0.3875*
1,1,0.4282,-0.3375,-0.3875*
1,1,0.4282,-0.3375,0.3875*
%
%ADD104ROUNDEDRECTD104*%
%ADD105R,1.8032X5.5032*%
%ADD106R,1.4032X1.2032*%
%ADD107R,1.7532X0.8032*%
%ADD108R,0.7032X1.1032*%
%ADD109R,0.6032X0.8032*%
%ADD110R,1.1032X1.1032*%
%ADD111R,1.1032X1.1032*%
%ADD112R,1.8032X2.9032*%
%ADD113R,0.9032X1.5032*%
%ADD114R,2.1032X2.6032*%
%ADD115R,0.7232X0.7232*%
G04:AMPARAMS|DCode=116|XSize=0.8032mm|YSize=0.8032mm|CornerRadius=0.1616mm|HoleSize=0mm|Usage=FLASHONLY|Rotation=90.000|XOffset=0mm|YOffset=0mm|HoleType=Round|Shape=RoundedRectangle|*
%AMROUNDEDRECTD116*
21,1,0.8032,0.4800,0,0,90.0*
21,1,0.4800,0.8032,0,0,90.0*
1,1,0.3232,0.2400,0.2400*
1,1,0.3232,0.2400,-0.2400*
1,1,0.3232,-0.2400,-0.2400*
1,1,0.3232,-0.2400,0.2400*
%
%ADD116ROUNDEDRECTD116*%
G04:AMPARAMS|DCode=117|XSize=0.8032mm|YSize=0.8032mm|CornerRadius=0.1616mm|HoleSize=0mm|Usage=FLASHONLY|Rotation=0.000|XOffset=0mm|YOffset=0mm|HoleType=Round|Shape=RoundedRectangle|*
%AMROUNDEDRECTD117*
21,1,0.8032,0.4800,0,0,0.0*
21,1,0.4800,0.8032,0,0,0.0*
1,1,0.3232,0.2400,-0.2400*
1,1,0.3232,-0.2400,-0.2400*
1,1,0.3232,-0.2400,0.2400*
1,1,0.3232,0.2400,0.2400*
%
%ADD117ROUNDEDRECTD117*%
%ADD118R,0.5032X1.8032*%
%ADD119R,1.0032X2.0032*%
%ADD120R,1.0532X1.0532*%
%ADD121R,0.7432X0.8032*%
%ADD122R,0.8032X0.7432*%
%ADD123R,0.6032X0.9032*%
%ADD124R,0.8032X0.6232*%
%ADD125C,0.2032*%
%ADD126C,1.1938*%
%ADD127C,2.5781*%
%ADD128C,0.7532*%
D73*
X1229831Y101500D02*
D03*
Y110500D02*
D03*
D74*
X2172398Y37530D02*
D03*
Y47530D02*
D03*
X2183933Y47503D02*
D03*
Y37503D02*
D03*
X2285567Y120150D02*
D03*
Y110150D02*
D03*
X2329840Y102650D02*
D03*
Y112650D02*
D03*
X2107731Y47600D02*
D03*
Y37600D02*
D03*
X2285567Y97345D02*
D03*
Y87345D02*
D03*
X2096331Y47530D02*
D03*
Y37530D02*
D03*
X2274400Y97345D02*
D03*
Y87345D02*
D03*
X1036814Y115838D02*
D03*
Y105838D02*
D03*
X4573344Y153577D02*
D03*
Y143577D02*
D03*
X4498130Y153577D02*
D03*
Y143577D02*
D03*
X4486780Y153577D02*
D03*
Y143577D02*
D03*
X4584594Y153577D02*
D03*
Y143577D02*
D03*
X4458966Y26276D02*
D03*
Y16276D02*
D03*
X4475114Y153577D02*
D03*
Y143577D02*
D03*
X4557094Y6890D02*
D03*
Y16890D02*
D03*
X4574594Y6890D02*
D03*
Y16890D02*
D03*
X4565984Y6890D02*
D03*
Y16890D02*
D03*
X1282332Y46800D02*
D03*
Y36800D02*
D03*
Y59400D02*
D03*
Y69400D02*
D03*
D75*
X2228331Y51730D02*
D03*
X2218331D02*
D03*
Y39684D02*
D03*
X2228331D02*
D03*
X2254404Y13971D02*
D03*
X2264404D02*
D03*
X2195831Y39610D02*
D03*
X2205831D02*
D03*
X2254295Y25956D02*
D03*
X2264294D02*
D03*
X2252550Y94345D02*
D03*
X2262550D02*
D03*
X2252404Y60500D02*
D03*
X2262404D02*
D03*
X2308064Y8862D02*
D03*
X2318064D02*
D03*
X2283065Y9000D02*
D03*
X2293065D02*
D03*
X2254550Y38100D02*
D03*
X2264550D02*
D03*
X2252404Y83000D02*
D03*
X2262404D02*
D03*
X2252404Y71616D02*
D03*
X2262404D02*
D03*
X1175203Y51955D02*
D03*
X1185202D02*
D03*
X1174965Y40442D02*
D03*
X1184965D02*
D03*
X1157383Y28253D02*
D03*
X1147383D02*
D03*
X1157383Y40376D02*
D03*
X1147383D02*
D03*
X2327465Y137922D02*
D03*
X2337465D02*
D03*
X287583Y22942D02*
D03*
X277583D02*
D03*
Y11652D02*
D03*
X287583D02*
D03*
X407827Y39878D02*
D03*
X397827D02*
D03*
X1333531Y58500D02*
D03*
X1323531D02*
D03*
X1333531Y46300D02*
D03*
X1323531D02*
D03*
X1333531Y34300D02*
D03*
X1323531D02*
D03*
X1300531D02*
D03*
X1310531D02*
D03*
X1300531Y46300D02*
D03*
X1310531D02*
D03*
X4467314Y65526D02*
D03*
X4477314D02*
D03*
X4467314Y88062D02*
D03*
X4477314D02*
D03*
X4470740Y110426D02*
D03*
X4480740D02*
D03*
X4470740Y122926D02*
D03*
X4480740D02*
D03*
X925973Y43686D02*
D03*
X935973D02*
D03*
X4131305Y106600D02*
D03*
X4121305D02*
D03*
X2150230Y61900D02*
D03*
X2160230D02*
D03*
D76*
X280883Y117485D02*
D03*
D77*
X280383Y96835D02*
D03*
D78*
X298133Y117410D02*
D03*
X310133Y96910D02*
D03*
D79*
X311133Y118160D02*
D03*
X296383Y96160D02*
D03*
D80*
X327133Y117785D02*
D03*
D81*
X327258Y96535D02*
D03*
D82*
X257845Y91900D02*
D03*
Y124100D02*
D03*
Y37258D02*
D03*
Y69458D02*
D03*
D83*
X38660Y70640D02*
D03*
Y83340D02*
D03*
X38660Y108740D02*
D03*
Y45240D02*
D03*
X38660Y96040D02*
D03*
Y57940D02*
D03*
D84*
X33660Y133840D02*
D03*
Y20140D02*
D03*
D85*
X-14940Y133840D02*
D03*
Y20140D02*
D03*
D86*
X4540844Y75176D02*
D03*
D87*
X4585594Y112676D02*
D03*
Y107676D02*
D03*
Y102676D02*
D03*
Y97676D02*
D03*
Y92676D02*
D03*
Y87676D02*
D03*
Y82676D02*
D03*
Y77676D02*
D03*
Y72676D02*
D03*
Y67676D02*
D03*
Y62676D02*
D03*
Y57676D02*
D03*
Y52676D02*
D03*
Y47676D02*
D03*
Y42676D02*
D03*
Y37676D02*
D03*
X4496093D02*
D03*
Y42676D02*
D03*
Y47676D02*
D03*
Y52676D02*
D03*
Y57676D02*
D03*
Y62676D02*
D03*
Y67676D02*
D03*
Y72676D02*
D03*
Y77676D02*
D03*
Y82676D02*
D03*
Y87676D02*
D03*
Y92676D02*
D03*
Y97676D02*
D03*
Y102676D02*
D03*
Y107676D02*
D03*
Y112676D02*
D03*
D88*
X4578344Y30426D02*
D03*
X4573344D02*
D03*
X4568344D02*
D03*
X4563344D02*
D03*
X4558344D02*
D03*
X4553344D02*
D03*
X4548344D02*
D03*
X4543344D02*
D03*
X4538344D02*
D03*
X4533344D02*
D03*
X4528344D02*
D03*
X4523344D02*
D03*
X4518344D02*
D03*
X4513344D02*
D03*
X4508344D02*
D03*
X4503344D02*
D03*
Y119926D02*
D03*
X4508344D02*
D03*
X4513344D02*
D03*
X4518344D02*
D03*
X4523344D02*
D03*
X4528344D02*
D03*
X4533344D02*
D03*
X4538344D02*
D03*
X4543344D02*
D03*
X4548344D02*
D03*
X4553344D02*
D03*
X4558344D02*
D03*
X4563344D02*
D03*
X4568344D02*
D03*
X4573344D02*
D03*
X4578344D02*
D03*
D89*
X106233Y156859D02*
D03*
Y128859D02*
D03*
D90*
X138182Y89234D02*
D03*
D91*
X128182Y67524D02*
D03*
X133182D02*
D03*
X138182D02*
D03*
X143182D02*
D03*
X148182D02*
D03*
X128182Y110944D02*
D03*
X133182D02*
D03*
X138182D02*
D03*
X143182D02*
D03*
X148182D02*
D03*
D92*
X214985Y52455D02*
D03*
Y10455D02*
D03*
D93*
X2282215Y65500D02*
D03*
Y60500D02*
D03*
Y55500D02*
D03*
Y50500D02*
D03*
Y45500D02*
D03*
Y40500D02*
D03*
Y35500D02*
D03*
Y30500D02*
D03*
X2331714D02*
D03*
Y35500D02*
D03*
Y40500D02*
D03*
Y45500D02*
D03*
Y50500D02*
D03*
Y55500D02*
D03*
Y60500D02*
D03*
Y65500D02*
D03*
X3958475Y43182D02*
D03*
X3992975Y63182D02*
D03*
Y58182D02*
D03*
X3992964Y53222D02*
D03*
X3992975Y48182D02*
D03*
Y43182D02*
D03*
Y38182D02*
D03*
X3958475D02*
D03*
Y48182D02*
D03*
Y53182D02*
D03*
Y58182D02*
D03*
Y63182D02*
D03*
X636215Y45500D02*
D03*
Y60500D02*
D03*
X675714D02*
D03*
Y45500D02*
D03*
X1903714Y37370D02*
D03*
Y52370D02*
D03*
X1943215D02*
D03*
Y37370D02*
D03*
D94*
X2289465Y23250D02*
D03*
X2294464D02*
D03*
X2299465D02*
D03*
X2304464D02*
D03*
X2309465D02*
D03*
X2314464D02*
D03*
X2319465D02*
D03*
X2324464D02*
D03*
Y72750D02*
D03*
X2319465D02*
D03*
X2314464D02*
D03*
X2309465D02*
D03*
X2304464D02*
D03*
X2299465D02*
D03*
X2294464D02*
D03*
X2289465D02*
D03*
X3983224Y30932D02*
D03*
X3968224D02*
D03*
Y70432D02*
D03*
X3983224D02*
D03*
X648465Y70250D02*
D03*
X668465Y35750D02*
D03*
X663465D02*
D03*
X658504Y35760D02*
D03*
X653465Y35750D02*
D03*
X648465D02*
D03*
X643465D02*
D03*
Y70250D02*
D03*
X653465D02*
D03*
X658465D02*
D03*
X663465D02*
D03*
X668465D02*
D03*
X1915965Y62120D02*
D03*
X1935965Y27620D02*
D03*
X1930965D02*
D03*
X1926004Y27630D02*
D03*
X1920965Y27620D02*
D03*
X1915965D02*
D03*
X1910965D02*
D03*
Y62120D02*
D03*
X1920965D02*
D03*
X1925965D02*
D03*
X1930965D02*
D03*
X1935965D02*
D03*
D95*
X2306965Y48000D02*
D03*
D96*
X3975724Y50682D02*
D03*
D97*
X655965Y53000D02*
D03*
X1923465Y44870D02*
D03*
D98*
X4126964Y38158D02*
D03*
X4413435Y41158D02*
D03*
D99*
X4114464Y49658D02*
D03*
X4119464D02*
D03*
X4124465D02*
D03*
X4129464D02*
D03*
X4134465D02*
D03*
X4139464D02*
D03*
Y26658D02*
D03*
X4134465D02*
D03*
X4129464D02*
D03*
X4124465D02*
D03*
X4119464D02*
D03*
X4114464D02*
D03*
X2040524Y29230D02*
D03*
X2035524D02*
D03*
Y62230D02*
D03*
X2040524D02*
D03*
X771987Y16500D02*
D03*
X766987D02*
D03*
Y49500D02*
D03*
X771987D02*
D03*
D100*
X4143464Y40658D02*
D03*
Y35658D02*
D03*
X4110464D02*
D03*
Y40658D02*
D03*
X2049524Y58230D02*
D03*
Y53230D02*
D03*
Y48230D02*
D03*
Y43230D02*
D03*
Y38230D02*
D03*
Y33230D02*
D03*
X2026525D02*
D03*
Y38230D02*
D03*
Y43230D02*
D03*
Y48230D02*
D03*
Y53230D02*
D03*
Y58230D02*
D03*
X780987Y45500D02*
D03*
Y40500D02*
D03*
Y35500D02*
D03*
Y30500D02*
D03*
Y25500D02*
D03*
Y20500D02*
D03*
X757987D02*
D03*
Y25500D02*
D03*
Y30500D02*
D03*
Y35500D02*
D03*
Y40500D02*
D03*
Y45500D02*
D03*
D101*
X2038024Y45730D02*
D03*
X769486Y33000D02*
D03*
D102*
X1261131Y25800D02*
D03*
X1256131D02*
D03*
X1251131D02*
D03*
X1246131D02*
D03*
X1241131D02*
D03*
X1236131D02*
D03*
X1231131D02*
D03*
X1226131D02*
D03*
X1221131D02*
D03*
X1216131D02*
D03*
X1211131D02*
D03*
X1206131D02*
D03*
X1261131Y30800D02*
D03*
X1256131D02*
D03*
X1251131D02*
D03*
X1246131D02*
D03*
X1241131D02*
D03*
X1236131D02*
D03*
X1231131D02*
D03*
X1226131D02*
D03*
X1221131D02*
D03*
X1216131D02*
D03*
X1211131D02*
D03*
X1206131D02*
D03*
X1261131Y35800D02*
D03*
X1256131D02*
D03*
X1251131D02*
D03*
X1246131D02*
D03*
X1241131D02*
D03*
X1226131D02*
D03*
X1221131D02*
D03*
X1216131D02*
D03*
X1211131D02*
D03*
X1206131D02*
D03*
X1261131Y40800D02*
D03*
X1256131D02*
D03*
X1251131D02*
D03*
X1216131D02*
D03*
X1211131D02*
D03*
X1206131D02*
D03*
X1261131Y45800D02*
D03*
X1256131D02*
D03*
X1251131D02*
D03*
X1216131D02*
D03*
X1211131D02*
D03*
X1206131D02*
D03*
X1261131Y50800D02*
D03*
X1256131D02*
D03*
X1211131D02*
D03*
X1206131D02*
D03*
X1261131Y55800D02*
D03*
X1256131D02*
D03*
X1211131D02*
D03*
X1206131D02*
D03*
X1261131Y60800D02*
D03*
X1256131D02*
D03*
X1251131D02*
D03*
X1216131D02*
D03*
X1211131D02*
D03*
X1206131D02*
D03*
X1261131Y65800D02*
D03*
X1256131D02*
D03*
X1251131D02*
D03*
X1216131D02*
D03*
X1211131D02*
D03*
X1206131D02*
D03*
X1261131Y70800D02*
D03*
X1256131D02*
D03*
X1251131D02*
D03*
X1246131D02*
D03*
X1241131D02*
D03*
X1226131D02*
D03*
X1221131D02*
D03*
X1216131D02*
D03*
X1211131D02*
D03*
X1206131D02*
D03*
X1261131Y75800D02*
D03*
X1256131D02*
D03*
X1251131D02*
D03*
X1246131D02*
D03*
X1241131D02*
D03*
X1236131D02*
D03*
X1231131D02*
D03*
X1226131D02*
D03*
X1221131D02*
D03*
X1216131D02*
D03*
X1211131D02*
D03*
X1206131D02*
D03*
X1261131Y80800D02*
D03*
X1256131D02*
D03*
X1251131D02*
D03*
X1246131D02*
D03*
X1241131D02*
D03*
X1236131D02*
D03*
X1231131D02*
D03*
X1226131D02*
D03*
X1221131D02*
D03*
X1216131D02*
D03*
X1211131D02*
D03*
X1206131D02*
D03*
D103*
X4473214Y32776D02*
D03*
Y15776D02*
D03*
D104*
X1293731Y59400D02*
D03*
X1310731D02*
D03*
X2194531Y26200D02*
D03*
X2211531D02*
D03*
X2225031D02*
D03*
X2242031D02*
D03*
X1160965Y53662D02*
D03*
X1143964D02*
D03*
D105*
X161707Y29235D02*
D03*
X113207D02*
D03*
D106*
X2298725Y111402D02*
D03*
X2315724D02*
D03*
X2298725Y98402D02*
D03*
X2315724D02*
D03*
X1158465Y86635D02*
D03*
X1175465D02*
D03*
X1158465Y73634D02*
D03*
X1175465D02*
D03*
D107*
X356929Y22860D02*
D03*
Y35560D02*
D03*
Y48260D02*
D03*
Y60960D02*
D03*
X302929Y22860D02*
D03*
Y35560D02*
D03*
Y48260D02*
D03*
Y60960D02*
D03*
D108*
X274331Y48000D02*
D03*
X289331D02*
D03*
X274331Y35600D02*
D03*
X289331D02*
D03*
X98737Y57024D02*
D03*
X84737D02*
D03*
X98737Y45230D02*
D03*
X84737D02*
D03*
X100137Y28434D02*
D03*
X86137D02*
D03*
X100137Y16695D02*
D03*
X86137D02*
D03*
D109*
X274131Y61900D02*
D03*
X283131D02*
D03*
X162196Y64900D02*
D03*
X171196D02*
D03*
D110*
X4419410Y9500D02*
D03*
X4435410D02*
D03*
X2945751D02*
D03*
X2961751D02*
D03*
X1471632D02*
D03*
X1487632D02*
D03*
X4239454D02*
D03*
X4255454D02*
D03*
X2765607D02*
D03*
X2781607D02*
D03*
X1291243Y9500D02*
D03*
X1307243D02*
D03*
X4059585Y9500D02*
D03*
X4075585D02*
D03*
X2585658D02*
D03*
X2601658D02*
D03*
X1077489D02*
D03*
X1093489D02*
D03*
X3879602D02*
D03*
X3895602D02*
D03*
X2405401Y9652D02*
D03*
X2421400D02*
D03*
X897414Y9500D02*
D03*
X913415D02*
D03*
X3699619D02*
D03*
X3715619D02*
D03*
X2191599D02*
D03*
X2207599D02*
D03*
X717465Y9554D02*
D03*
X733465D02*
D03*
X3519274Y9500D02*
D03*
X3535274D02*
D03*
X537405Y9554D02*
D03*
X553405D02*
D03*
X3305451Y9500D02*
D03*
X3321451D02*
D03*
X1831427D02*
D03*
X1847427D02*
D03*
X357708D02*
D03*
X373708D02*
D03*
X3125650D02*
D03*
X3141650D02*
D03*
X1651607D02*
D03*
X1667607D02*
D03*
X177435D02*
D03*
X193435D02*
D03*
X2011532Y9410D02*
D03*
X2027532D02*
D03*
D111*
X1235965Y125000D02*
D03*
Y141000D02*
D03*
D112*
X236965Y149420D02*
D03*
X264965D02*
D03*
D113*
X94533Y92009D02*
D03*
X113533D02*
D03*
X94533Y107558D02*
D03*
X113533D02*
D03*
D114*
X4556244Y149797D02*
D03*
X4515244D02*
D03*
D115*
X1187767Y86150D02*
D03*
Y78150D02*
D03*
X1146465Y74000D02*
D03*
Y82000D02*
D03*
D116*
X520964Y20828D02*
D03*
X510964D02*
D03*
X520964Y34544D02*
D03*
X510964D02*
D03*
X592164Y56568D02*
D03*
X602164D02*
D03*
X520964Y48260D02*
D03*
X510964D02*
D03*
X475647Y56568D02*
D03*
X465647D02*
D03*
X475645Y25400D02*
D03*
X465645D02*
D03*
X475647Y40914D02*
D03*
X465647D02*
D03*
X407827Y52578D02*
D03*
X397827D02*
D03*
X1263531Y111400D02*
D03*
X1253531D02*
D03*
X4477314Y76776D02*
D03*
X4467314D02*
D03*
X1263531Y97500D02*
D03*
X1253531D02*
D03*
X1184965Y28253D02*
D03*
X1174965D02*
D03*
X4216901Y9390D02*
D03*
X4226901D02*
D03*
X2742175Y9500D02*
D03*
X2752175D02*
D03*
X1333531Y9454D02*
D03*
X1323531D02*
D03*
X4036338Y9390D02*
D03*
X4046338D02*
D03*
X2562556Y9500D02*
D03*
X2572556D02*
D03*
X1054942Y9483D02*
D03*
X1064942D02*
D03*
X3856197Y9490D02*
D03*
X3866197D02*
D03*
X2385320Y9652D02*
D03*
X2395320D02*
D03*
X870263Y9554D02*
D03*
X880263D02*
D03*
X3675169Y9500D02*
D03*
X3685169D02*
D03*
X2166861Y9410D02*
D03*
X2176861D02*
D03*
X694444Y9500D02*
D03*
X704444D02*
D03*
X3496627D02*
D03*
X3506627D02*
D03*
X1989836Y9510D02*
D03*
X1999836D02*
D03*
X553312Y36539D02*
D03*
X543312D02*
D03*
X3281454Y9500D02*
D03*
X3291454D02*
D03*
X1809888Y9410D02*
D03*
X1819888D02*
D03*
X332820Y9500D02*
D03*
X342820D02*
D03*
X4393843Y9390D02*
D03*
X4403843D02*
D03*
X2923383Y9500D02*
D03*
X2933383D02*
D03*
X1450217Y9454D02*
D03*
X1460217D02*
D03*
X3101397Y9500D02*
D03*
X3111397D02*
D03*
X1627451Y9410D02*
D03*
X1637451D02*
D03*
X191335Y35350D02*
D03*
X181335D02*
D03*
X2327465Y124968D02*
D03*
X2337465D02*
D03*
X2340085Y90170D02*
D03*
X2330085D02*
D03*
D117*
X1124831Y46200D02*
D03*
Y56200D02*
D03*
X2145531Y47600D02*
D03*
Y37600D02*
D03*
X2160231D02*
D03*
Y47600D02*
D03*
X1239831Y111000D02*
D03*
Y101000D02*
D03*
X4365064Y87062D02*
D03*
Y97062D02*
D03*
X3005209Y116490D02*
D03*
Y106490D02*
D03*
X1529465Y117294D02*
D03*
Y107294D02*
D03*
X4299753Y118026D02*
D03*
Y108026D02*
D03*
X2824033Y116664D02*
D03*
Y106664D02*
D03*
X1348435Y116441D02*
D03*
Y106441D02*
D03*
X4021577Y117965D02*
D03*
Y107965D02*
D03*
X2644996Y117234D02*
D03*
Y107234D02*
D03*
X1048752Y122608D02*
D03*
Y132608D02*
D03*
X3942376Y119867D02*
D03*
Y109867D02*
D03*
X2465973Y116659D02*
D03*
Y106659D02*
D03*
X3761985Y105687D02*
D03*
Y95687D02*
D03*
X2253395Y137980D02*
D03*
Y127980D02*
D03*
X772001Y120708D02*
D03*
Y110708D02*
D03*
X3592664Y85154D02*
D03*
Y95154D02*
D03*
X2069315Y120578D02*
D03*
Y110578D02*
D03*
X592164Y120015D02*
D03*
Y110015D02*
D03*
X3364893Y118425D02*
D03*
Y108425D02*
D03*
X1890965Y116404D02*
D03*
Y106404D02*
D03*
X413699Y119455D02*
D03*
Y109455D02*
D03*
X3184324Y116825D02*
D03*
Y106825D02*
D03*
X1709462Y117642D02*
D03*
Y107642D02*
D03*
X229073Y119450D02*
D03*
Y109450D02*
D03*
X2119731Y37600D02*
D03*
Y47600D02*
D03*
X2132431D02*
D03*
Y37600D02*
D03*
X857491Y112319D02*
D03*
Y122319D02*
D03*
D118*
X1157000Y109500D02*
D03*
Y145500D02*
D03*
X1162000Y109500D02*
D03*
Y145500D02*
D03*
X1167000Y109500D02*
D03*
Y145500D02*
D03*
X1172000Y109500D02*
D03*
Y145500D02*
D03*
X1177000Y109500D02*
D03*
Y145500D02*
D03*
X1182000Y109500D02*
D03*
Y145500D02*
D03*
X1187000Y109500D02*
D03*
Y145500D02*
D03*
X1192000Y109500D02*
D03*
Y145500D02*
D03*
X1197000Y109500D02*
D03*
Y145500D02*
D03*
X1202000Y109500D02*
D03*
Y145500D02*
D03*
D119*
X1139500Y127500D02*
D03*
X1219500D02*
D03*
D120*
X298133Y148531D02*
D03*
X318133Y158031D02*
D03*
Y139031D02*
D03*
D121*
X2253395Y49530D02*
D03*
X2261994D02*
D03*
X2060449Y28956D02*
D03*
X2069049D02*
D03*
X785239Y61250D02*
D03*
X776639D02*
D03*
X4008224Y71000D02*
D03*
X4016825D02*
D03*
X1953531Y37200D02*
D03*
X1962131D02*
D03*
X688812Y55061D02*
D03*
X697412D02*
D03*
X935773D02*
D03*
X927173D02*
D03*
D122*
X4375481Y108902D02*
D03*
Y117502D02*
D03*
X3017909Y104650D02*
D03*
Y113251D02*
D03*
X1540895Y106644D02*
D03*
Y115244D02*
D03*
X4375481Y96362D02*
D03*
Y87762D02*
D03*
X3017909Y94980D02*
D03*
Y86381D02*
D03*
X1540895Y96194D02*
D03*
Y87594D02*
D03*
X4365064Y108902D02*
D03*
Y117502D02*
D03*
X3005209Y95471D02*
D03*
Y86870D02*
D03*
X1529465Y95704D02*
D03*
Y87104D02*
D03*
X4311183Y95816D02*
D03*
Y87216D02*
D03*
X2835463Y105394D02*
D03*
Y113995D02*
D03*
X1359865Y95421D02*
D03*
Y86821D02*
D03*
X4311183Y106756D02*
D03*
Y115356D02*
D03*
X2835463Y95724D02*
D03*
Y87125D02*
D03*
X1359865Y106361D02*
D03*
Y114961D02*
D03*
X4299753Y95816D02*
D03*
Y87216D02*
D03*
X2824033Y95724D02*
D03*
Y87125D02*
D03*
X1348435Y95421D02*
D03*
Y86821D02*
D03*
X4008035Y96666D02*
D03*
Y88066D02*
D03*
X2657696Y95724D02*
D03*
Y87125D02*
D03*
X1036814Y134368D02*
D03*
Y125768D02*
D03*
X4008035Y109336D02*
D03*
Y117936D02*
D03*
X2657696Y105885D02*
D03*
Y114485D02*
D03*
X1037576Y144818D02*
D03*
Y153418D02*
D03*
X4021577Y96666D02*
D03*
Y88066D02*
D03*
X2644996Y95724D02*
D03*
Y87125D02*
D03*
X1049260Y144818D02*
D03*
Y153418D02*
D03*
X3955076Y95817D02*
D03*
Y87217D02*
D03*
X2478673Y95639D02*
D03*
Y87039D02*
D03*
X3955076Y109787D02*
D03*
Y118387D02*
D03*
X2478673Y104329D02*
D03*
Y112929D02*
D03*
X3942376Y95527D02*
D03*
Y86927D02*
D03*
X2465973Y95639D02*
D03*
Y87039D02*
D03*
X3774685Y95197D02*
D03*
Y103797D02*
D03*
X2266095Y116550D02*
D03*
Y107950D02*
D03*
X785971Y110838D02*
D03*
Y119438D02*
D03*
X3774685Y84257D02*
D03*
Y75657D02*
D03*
X2266095Y126220D02*
D03*
Y134820D02*
D03*
X785971Y100388D02*
D03*
Y91788D02*
D03*
X3377593Y95724D02*
D03*
Y87125D02*
D03*
X1902395Y95464D02*
D03*
Y86864D02*
D03*
X426399Y98995D02*
D03*
Y90395D02*
D03*
X3761985Y83477D02*
D03*
Y74877D02*
D03*
X2253395Y116550D02*
D03*
Y107950D02*
D03*
X772001Y100388D02*
D03*
Y91788D02*
D03*
X3377593Y107155D02*
D03*
Y115754D02*
D03*
X1902395Y105134D02*
D03*
Y113734D02*
D03*
X426399Y111205D02*
D03*
Y119805D02*
D03*
X3364893Y95724D02*
D03*
Y87125D02*
D03*
X1890965Y95464D02*
D03*
Y86864D02*
D03*
X413699Y98995D02*
D03*
Y90395D02*
D03*
X3579965Y106174D02*
D03*
Y114775D02*
D03*
X2082015Y108818D02*
D03*
Y117418D02*
D03*
X604864Y98995D02*
D03*
Y90395D02*
D03*
X3592664Y106174D02*
D03*
Y114775D02*
D03*
X2082015Y100418D02*
D03*
Y91818D02*
D03*
X604864Y111675D02*
D03*
Y120275D02*
D03*
X3197024Y104904D02*
D03*
Y113504D02*
D03*
X1722162Y95432D02*
D03*
Y86832D02*
D03*
X240882Y107550D02*
D03*
Y116150D02*
D03*
X3197024Y95724D02*
D03*
Y87125D02*
D03*
X1722162Y107152D02*
D03*
Y115752D02*
D03*
X240581Y95009D02*
D03*
Y86409D02*
D03*
X3579965Y95724D02*
D03*
Y87125D02*
D03*
X2069315Y100418D02*
D03*
Y91818D02*
D03*
X592164Y98995D02*
D03*
Y90395D02*
D03*
X3184324Y95724D02*
D03*
Y87125D02*
D03*
X1709462Y95432D02*
D03*
Y86832D02*
D03*
X229153Y95009D02*
D03*
Y86409D02*
D03*
X4156964Y49758D02*
D03*
Y41158D02*
D03*
X844791Y124159D02*
D03*
Y115559D02*
D03*
Y134609D02*
D03*
Y143209D02*
D03*
X857491Y134368D02*
D03*
Y142968D02*
D03*
D123*
X94244Y77650D02*
D03*
X101244D02*
D03*
D124*
X444384Y40358D02*
D03*
X425384Y53358D02*
D03*
Y40358D02*
D03*
X444384Y53358D02*
D03*
Y46858D02*
D03*
D125*
X8160Y130840D02*
D03*
Y23140D02*
D03*
D126*
X979118Y80000D02*
D03*
X989268Y156200D02*
D03*
X968968D02*
D03*
X4147523D02*
D03*
X4167823D02*
D03*
X4157673Y80000D02*
D03*
D127*
X1004518D02*
D03*
X953718D02*
D03*
X1004518Y137150D02*
D03*
X953718D02*
D03*
X4132273D02*
D03*
X4183073D02*
D03*
X4132273Y80000D02*
D03*
X4183073D02*
D03*
D128*
X3970225Y56182D02*
D03*
Y45182D02*
D03*
X3981224D02*
D03*
Y56182D02*
D03*
X661464Y58500D02*
D03*
X650465D02*
D03*
Y47500D02*
D03*
X661464D02*
D03*
X1928965Y50370D02*
D03*
X1917964D02*
D03*
Y39370D02*
D03*
X1928965D02*
D03*
X2306965Y59000D02*
D03*
X2295965D02*
D03*
X2306965Y48000D02*
D03*
X2295965D02*
D03*
X2306965Y36881D02*
D03*
X2317243D02*
D03*
Y59000D02*
D03*
Y47881D02*
D03*
X2295965Y36881D02*
D03*
M02*
