M48
;Layer_Color=9474304
;FILE_FORMAT=4:4
METRIC,LZ
;TYPE=PLATED
T1F00S00C0.1000
T2F00S00C0.2000
T3F00S00C0.3000
T4F00S00C0.6500
;TYPE=NON_PLATED
T5F00S00C0.9906
T6F00S00C1.6000
T7F00S00C2.3749
%
T01
X01187228Y00017183
X01192216
X01199331
X01205655
X01215328Y000208
X01219828Y000213
X01224028Y000218
X01227728Y000154
X01232531Y00016072
X01244416Y000154
X01259394
X0126399Y00014922
X01268586Y00016693
X01270625Y00013076
X01272136Y00020205
X01276179Y00022107
Y00032164
X01269744Y00027231
X01265251Y00032685
X01258604Y00028448
X01253543Y00028448
X01253792Y00038499
X01248188Y00042842
X01248218Y00050288
X01252681Y00055759
X01253702Y00068252
X01258516Y00068312
X01258656Y00073216
X01253428Y00073219
X01243728Y000733
X01243628Y000783
X01248628Y000784
X01247337Y00085615
X01245152Y00089477
X01235098Y00089788
X01229791Y000895
X01234792Y00095416
X01239211Y00083954
X01234028Y000779
X01227828Y000774
X01223752Y000783
X01218752
X01208518Y00078299
X01208578Y00068362
X01213628Y00068276
X01215728Y00063
X01208704Y00058348
X01208704Y000483
X01213628Y000434
X01220727Y00043483
X01223019Y00050899
X01215993Y00051039
X01208704Y00038348
X01203161Y00038249
X01197128Y000475
X01200528Y000606
X01201704Y000646
X01194628Y000664
X01187492Y00067893
X01197028Y000735
X01201528Y000739
X01196128Y000808
X01200462Y00086566
X01205326Y00097102
X01210428Y000921
X01215828Y000967
X01221228Y000919
X01214374Y00084953
X01223499Y00067351
X0122782Y0006761
X01227552Y00060586
X01234848Y00069303
X01246677Y000659
X0126394Y00063258
X01267783Y00070213
X01264413Y00077397
X01262669Y00085335
X01258656Y00084404
X01256504Y000921
X01263528Y000912
X01267973Y00089968
X01277192Y00066032
X01287428Y000671
X0127709Y00049768
X01269728Y00050528
X01265728Y00050157
X01272837Y00043523
X01287668Y00033425
X0124351Y000333
X0123819Y00028672
X01237179Y00037168
X01239831Y00040188
X01230828Y000415
X01234228Y000343
X01223679Y00033425
X01218728Y000284
X01213628Y000333
X01208528Y000283
X01215105Y00008374
X01224472
X0123773Y00053521
X01178428Y000573
X01179897Y00034288
T02
X00132682Y00089234
X00143682
X04507844Y00086176
Y00075176
Y00064176
Y00053176
Y00042176
X04518843
Y00053176
Y00064176
Y00075176
Y00086176
Y00097176
X04507844
Y00108176
X04518843
X04529843
Y00097176
Y00086176
Y00075176
Y00064176
Y00053176
Y00042176
X04540844
Y00053176
Y00064176
Y00075176
Y00086176
Y00097176
Y00108176
X04551844
Y00097176
Y00086176
Y00075176
Y00064176
Y00053176
Y00042176
X04562844
Y00053176
Y00064176
Y00075176
Y00086176
Y00097176
Y00108176
X04573843
Y00097176
Y00086176
Y00075176
Y00064176
Y00053176
Y00042176
T03
X00093744Y000055
X00094244Y00066104
X00084081Y00064294
X00085296Y0008115
Y0009925
X00121873Y0011175
X00130512Y00123865
X00151138Y00125461
X00185465Y0009575
X00178335Y00049729
X00196564Y00050838
X00193735Y00018955
X00214316Y0002965
X002415Y00064
X002351Y000746
X00251595Y0008115
X00295893Y00084643
X00290546Y00068988
X00325983Y00080079
X00329929Y000604
Y00038808
X00320061Y00026692
Y00009554
X0038481Y00009651
X00411107Y00023063
X00418099Y00040366
X00426399Y00082987
X00400507Y0012088
X00366489Y00095765
X0024576Y00123865
X00219483Y00120865
X00119233Y00077345
X00126047Y00026692
X00499795Y0002839
Y00016932
Y00042042
Y00054028
X00483893Y0005202
X00526464Y0004826
Y00034544
X00526334Y00020718
X00543312Y00018428
X00553405
X00543607Y0004475
X00582089Y00056361
X00613573Y00061779
X00625238Y00051258
X00650465Y000475
Y000585
X00661464
Y000475
Y00025146
X00653215
X00643465
X00631964Y00025603
X00642965Y00078
X00653214Y00077192
X00604864Y00082987
X00579423Y0012097
X00545405Y00095855
X00725642Y000957
X00718892Y000475
X00696229Y00045119
X00686825Y000455
X00712965Y00020828
X00742089Y0001905
Y00041148
X00747931Y00045505
X00745645Y00052578
X00752757Y00051258
X00784377Y00052578
X00785971Y00083981
X0075966Y00120815
X00845115Y001083
X00871258Y00112462
X00859519Y00056642
X00845129Y00054001
X00842729Y000381
X00845129Y000195
X00832767Y00018034
X00870263Y000165
X00879284Y00047242
X00889815Y0005025
X00807731Y00035714
X00797207Y00022352
X00789333Y00007366
X0076682Y00007112
X00924129Y00004076
X00936812Y00004515
X00930424Y00017492
X00919528Y00019035
X00918029Y000437
X00941629Y000483
X00967988Y00053662
X00961829Y001083
X00957923Y00116257
X00964015Y0012315
X00993652Y00125276
X00996023Y00118388
X00996157Y001083
X00994929Y001018
X01018103Y00112941
X01028364Y00115577
X01051471Y00112577
X01044066Y00103385
X01044203Y00053291
X01070929Y000435
X01082229Y000409
X01089029Y00040919
X01095608Y000409
X01104221Y0004115
X01119629Y000403
X01125851Y000272
X01137328Y000267
X01133328Y000481
X01134128Y000577
X01134028Y000733
X01133728Y000829
X01151329Y00087
X01142928Y00098121
X01145219Y00104621
X01151382Y00112014
X01136142Y00109474
X01122829Y001005
X01124828Y000686
X01152429Y000616
X01166128Y000287
X0116713Y00098806
X01181465Y00098298
X01183492Y00123032
X01190492Y00122779
X01197242Y00124176
X01207008Y00125476
X01209348Y00112732
X01220828Y001002
X01258128Y001043
X0125914Y00124227
X01250328Y00129
X01245356Y00120503
X01172464Y00122936
X01130614Y00130208
X01104138Y00004064
X01046776Y00005408
X0103784
X0102514
X0101244
X01289483Y00003834
X01292924Y00034088
X01293528Y000437
X01299575Y00095346
X01333594Y00120461
X01350799Y00080259
X01367928Y000838
X013821Y000614
X01396893Y0007594
X01409781Y000706
X01407947Y00031812
X01418017Y00022217
X01396228Y000192
X01378828Y000231
X01362128Y0002325
X01352528Y000235
X01348028Y000397
X01341453
X01357561Y00040381
X01364096
X01344628Y000583
X01320416Y00003834
X01311865Y00004862
X01501328Y000088
X01510376Y000521
X01519183Y000521
X01529465Y0005185
X01523228Y00079
X01540895Y00080033
X01590273Y00062262
X01659604Y00095658
X01693622Y00120773
X01682327Y00009
X01513533Y00120785
X01479515Y0009567
X01730772Y00086436
X01773126Y0003662
X01783412Y0003223
X01778827Y000244
X01788727
X01860377Y0001
X01891174Y0003937
X01898497Y00058456
X01895727Y000677
X01905316
X01920627Y000695
X01917964Y0005037
X01928965
Y0003937
X01917964
X01960535Y00046238
X01981043Y00048658
X01990727Y000454
X01998727Y000453
X02000127Y000323
X01988427Y00032411
X01978327Y000605
X01971827Y000697
X01961534
X01953906Y0006945
Y000253
X02049809Y0003003
X02056727Y000489
X02064527
X02076127Y000487
X02088927Y000456
X02086304Y00035897
X02076237Y00032575
X02076507Y0001365
X02083102Y00013971
X02090728Y0001314
X02088927Y00063184
X02069327Y000697
X02061673Y00067746
X02053544Y00120519
X02092394Y0010541
X02019526Y00095404
X01910965Y00095658
X01873531Y00120528
X01839513Y00095414
X02120036Y0005573
X02132059Y00055312
X02147299Y00079212
X02155477Y00072256
X02168607Y00062427
X02169261Y0003173
X02137431Y00014962
X02130298Y00015542
X02122192Y00010168
X02221826Y000041
X02239226Y000392
X02246326Y000383
X02245426Y00055245
Y000869
X02233613Y00120549
X02273465Y0010795
X02303126Y000891
X0231942Y00084982
X02342026Y000812
X02336526Y001025
X02315724Y00121034
X02317243Y00059
X02306965
Y00048
X02317243Y00047881
Y00036881
X02306965
X02295965
Y00048
Y00059
X02352326Y000491
X02361226Y000428
X02355826Y000242
X02341426Y000353
X0233411Y00004314
X02374226Y000041
X02380126Y000503
X02386026Y000468
X02394426Y000373
X02411426Y00040062
X02414586Y00053988
X02405126Y000547
X02398326Y000549
X02390226Y000624
X02382426Y00077
X02413595Y00095433
X02447613Y00120548
X02478626Y000815
X02477479Y0004653
X02490287Y000519
X02464726Y000248
X02451226Y000077
X02438126Y000104
Y000443
X02199595Y00095434
X02497226Y000441
X02551684Y000095
X02615157
X02593518Y00095638
X02627537Y00120752
X02657696Y00078517
X02773512Y00095437
X0280753Y00120552
X02824033Y00080093
X02835463Y00078517
X02797648Y000095
X02910025Y000065
Y000284
X02977033Y000095
X03008209Y0006831
X03017909Y0007747
X02987479Y00120809
X02953461Y00095695
X0313356Y0009564
X03167578Y00120755
X03197024Y00078555
X03155909Y000095
X03087354
X03271273
X03337523Y0000889
X03313515Y0009564
X03347533Y00120755
X03377593Y00123025
Y00083364
X03453724Y000634
X03462477Y00058491
X0348488Y00010668
X03553424Y0000889
X03592664Y00075967
X03561561Y00120755
X03527543Y0009564
X03707515
X03741533Y00120755
X03784633Y00090766
X03887498Y0009564
X03921517Y00120755
X03963651Y001054
X03997775Y00118117
X04033477Y00120732
X04024177Y00071
X04000782Y00070432
X04005923Y000458
X04007941Y00033158
X04011588Y000041
X04023977Y00007366
X04074423Y000288
X04073427Y00052458
X04065123Y000527
X04045844Y00058932
X04067495Y00095617
X03981224Y00056182
X03970225
Y00045182
X03981224
X039529Y0003082
X03946323Y000192
X03912023Y000104
X03918458Y00037612
X03902872
X03845306Y0000889
X03735397Y0000889
X04090023Y000044
X04107422Y000071
X04119922Y000104
X04130563Y00012114
X04138173Y000044
X04148325Y00017894
X04162322Y0002015
X04170923Y000301
X04180522Y000326
X0418511Y00026556
X04194422Y00032062
X04205923
X04220774
X04234961
X042672Y00008636
X04177099Y00005909
X04170923Y00052
X04162322
X04199251Y00071
X04188929Y00111446
X04180522Y00120753
X04144148Y0012367
X04138931Y00118056
X0414257Y00110517
X04112338Y00106636
X04105522Y000501
X04100661Y0004064
X0424745Y00095638
X04281468Y00120753
X04311183Y00078916
X04389179Y00088926
X0439352Y00120753
X04427538Y00095638
X04429522Y000519
X04440068Y00040386
X04450722Y000273
X04453723Y00008374
X04459466Y00061126
X04407918Y00052811
X04378481Y000095
X04489022Y000294
X04484583Y00035499
X04498628Y00031547
X04508334Y00020391
X04518344Y00020272
X04513969Y00013825
X04533195Y00020272
X04540822Y0001239
X04549122Y000162
X04586522Y00017
X0459289Y00014095
X04598022Y000531
X04598104Y00062676
Y00072
X04600024Y00079537
Y00087675
X04594612Y0009269
X04594851Y00102459
X04592661Y00082676
X04586594Y00120753
X04563822Y001297
X04553922
X04497397Y00120753
X04487822Y001121
X04484339Y00102524
X04484622Y00093
X04489973Y00087675
X04497397Y00135456
X04590569Y00142547
X04573843Y00160951
X0447074Y00131845
X02377562Y00142438
X02345031Y00138732
X02317889Y00145334
X02308065Y0014859
X02298031Y0013372
X02286676Y00138133
X022535Y0014619
X01259516Y00141896
X01248828Y0014
X01237815Y00150512
X01261216Y00154271
X01194628Y00162192
X01193644Y001337
X01204722Y00135128
X01172459Y001327
X01157378Y00133604
X01137328Y00146468
Y00154271
X01085489Y00137692
X00905276Y00137577
X00326258Y00139738
X00285083Y0014864
X00223353Y00156859
X00141647Y00133933
T04
X011465Y001425
X012125
T05
X00979118Y0008
X04157673
X04147523Y001562
X04167823
X00989268
X00968968
T06
X0000816Y0002314
Y0013084
T07
X00953718Y0008
X01004518
X04132273
X04183073
Y0013715
X04132273
X01004518
X00953718
M30
