G04*
G04 #@! TF.GenerationSoftware,Altium Limited,Altium Designer,19.1.8 (144)*
G04*
G04 Layer_Color=65535*
%FSLAX44Y44*%
%MOMM*%
G71*
G01*
G75*
%ADD10C,0.2500*%
%ADD11C,0.1000*%
%ADD12C,0.0254*%
%ADD13C,0.1270*%
%ADD14C,0.1016*%
%ADD15C,0.2540*%
%ADD16C,0.2000*%
%ADD17C,0.1500*%
D10*
X194740Y19000D02*
G03*
X194740Y19000I-1250J0D01*
G01*
X2872898Y71333D02*
G03*
X2872898Y71333I-1250J0D01*
G01*
X2028732Y19000D02*
G03*
X2028732Y19000I-1250J0D01*
G01*
X3961430Y77682D02*
G03*
X3961430Y77682I-1250J0D01*
G01*
X684170Y68500D02*
G03*
X684170Y68500I-1250J0D01*
G01*
X1951670Y60370D02*
G03*
X1951670Y60370I-1250J0D01*
G01*
X4100170Y27658D02*
G03*
X4100170Y27658I-1250J0D01*
G01*
X2028730Y73730D02*
G03*
X2028730Y73730I-1250J0D01*
G01*
X774670Y61000D02*
G03*
X774670Y61000I-1250J0D01*
G01*
X4436750Y19000D02*
G03*
X4436750Y19000I-1250J0D01*
G01*
X2962653D02*
G03*
X2962653Y19000I-1250J0D01*
G01*
X1488945D02*
G03*
X1488945Y19000I-1250J0D01*
G01*
X4256755D02*
G03*
X4256755Y19000I-1250J0D01*
G01*
X2782748D02*
G03*
X2782748Y19000I-1250J0D01*
G01*
X1308533D02*
G03*
X1308533Y19000I-1250J0D01*
G01*
X4076704D02*
G03*
X4076704Y19000I-1250J0D01*
G01*
X2602223D02*
G03*
X2602223Y19000I-1250J0D01*
G01*
X1094709D02*
G03*
X1094709Y19000I-1250J0D01*
G01*
X3896750D02*
G03*
X3896750Y19000I-1250J0D01*
G01*
X2422800D02*
G03*
X2422800Y19000I-1250J0D01*
G01*
X914650D02*
G03*
X914650Y19000I-1250J0D01*
G01*
X3716750D02*
G03*
X3716750Y19000I-1250J0D01*
G01*
X2208750D02*
G03*
X2208750Y19000I-1250J0D01*
G01*
X734744D02*
G03*
X734744Y19000I-1250J0D01*
G01*
X3536748D02*
G03*
X3536748Y19000I-1250J0D01*
G01*
X554653D02*
G03*
X554653Y19000I-1250J0D01*
G01*
X3322750D02*
G03*
X3322750Y19000I-1250J0D01*
G01*
X1848363D02*
G03*
X1848363Y19000I-1250J0D01*
G01*
X374594D02*
G03*
X374594Y19000I-1250J0D01*
G01*
X3142775D02*
G03*
X3142775Y19000I-1250J0D01*
G01*
X1668730D02*
G03*
X1668730Y19000I-1250J0D01*
G01*
D11*
X2912874Y109705D02*
G03*
X2912874Y109705I-500J0D01*
G01*
X2871958Y54195D02*
Y54811D01*
X2869912Y57071D02*
X2871958Y54811D01*
X2855927Y104584D02*
X2859198Y101313D01*
X2863365Y103522D02*
Y104610D01*
X2866145Y97820D02*
X2866961Y97004D01*
X2865962Y98037D02*
Y100976D01*
X2863374Y103564D02*
X2865962Y100976D01*
X3408849Y94981D02*
Y93649D01*
Y94315D01*
X3412848D01*
X3412182Y94981D01*
X144258Y13499D02*
Y9500D01*
X146924D01*
X150923Y13499D02*
X148257D01*
Y9500D01*
X150923D01*
X148257Y11499D02*
X149590D01*
X152256Y13499D02*
Y9500D01*
X154255D01*
X154922Y10166D01*
Y12832D01*
X154255Y13499D01*
X152256D01*
X156255Y9500D02*
X157587D01*
X156921D01*
Y13499D01*
X156255Y12832D01*
X159587Y8834D02*
X162253D01*
X163586Y9500D02*
Y12166D01*
X164918Y13499D01*
X166251Y12166D01*
Y9500D01*
Y11499D01*
X163586D01*
X2893874Y117531D02*
Y116864D01*
X2895207Y115532D01*
X2896540Y116864D01*
Y117531D01*
X2895207Y115532D02*
Y113532D01*
X2897873D02*
X2899205D01*
X2898539D01*
Y117531D01*
X2897873Y116864D01*
X2695289Y52814D02*
X2695956Y53480D01*
Y54813D01*
X2695289Y55479D01*
X2692624D01*
X2691957Y54813D01*
Y53480D01*
X2692624Y52814D01*
X2691957Y48815D02*
Y51481D01*
X2694623Y48815D01*
X2695289D01*
X2695956Y49481D01*
Y50814D01*
X2695289Y51481D01*
Y47482D02*
X2695956Y46816D01*
Y45483D01*
X2695289Y44816D01*
X2692624D01*
X2691957Y45483D01*
Y46816D01*
X2692624Y47482D01*
X2695289D01*
X2741530Y51211D02*
X2745529D01*
Y49212D01*
X2744863Y48545D01*
X2743530D01*
X2742863Y49212D01*
Y51211D01*
Y49878D02*
X2741530Y48545D01*
X2745529Y44546D02*
Y47212D01*
X2743530D01*
X2744196Y45879D01*
Y45213D01*
X2743530Y44546D01*
X2742197D01*
X2741530Y45213D01*
Y46546D01*
X2742197Y47212D01*
X2727511Y51211D02*
X2731509D01*
Y49212D01*
X2730843Y48545D01*
X2729510D01*
X2728844Y49212D01*
Y51211D01*
Y49878D02*
X2727511Y48545D01*
Y45213D02*
X2731509D01*
X2729510Y47212D01*
Y44546D01*
X2677956Y10430D02*
X2677289Y9764D01*
Y8431D01*
X2677956Y7764D01*
X2680622D01*
X2681288Y8431D01*
Y9764D01*
X2680622Y10430D01*
X2681288Y14429D02*
Y11763D01*
X2678622Y14429D01*
X2677956D01*
X2677289Y13762D01*
Y12429D01*
X2677956Y11763D01*
X2681288Y15761D02*
Y17094D01*
Y16428D01*
X2677289D01*
X2677956Y15761D01*
X2735424Y70070D02*
X2734758Y70737D01*
X2733425D01*
X2732758Y70070D01*
Y67404D01*
X2733425Y66738D01*
X2734758D01*
X2735424Y67404D01*
X2736757Y66738D02*
X2738090D01*
X2737423D01*
Y70737D01*
X2736757Y70070D01*
X2740089Y67404D02*
X2740756Y66738D01*
X2742089D01*
X2742755Y67404D01*
Y70070D01*
X2742089Y70737D01*
X2740756D01*
X2740089Y70070D01*
Y69404D01*
X2740756Y68737D01*
X2742755D01*
X2985299Y64823D02*
Y68821D01*
X2987299D01*
X2987965Y68155D01*
Y66822D01*
X2987299Y66156D01*
X2985299D01*
X2986632D02*
X2987965Y64823D01*
X2989298D02*
X2990631D01*
X2989965D01*
Y68821D01*
X2989298Y68155D01*
X942586Y94983D02*
X943252Y95650D01*
Y96983D01*
X942586Y97649D01*
X939920D01*
X939253Y96983D01*
Y95650D01*
X939920Y94983D01*
X939253Y91651D02*
X943252D01*
X941253Y93651D01*
Y90985D01*
X943252Y86986D02*
X942586Y88319D01*
X941253Y89652D01*
X939920D01*
X939253Y88985D01*
Y87653D01*
X939920Y86986D01*
X940586D01*
X941253Y87653D01*
Y89652D01*
X938587Y85653D02*
Y82987D01*
X939253Y81654D02*
X941919D01*
X943252Y80322D01*
X941919Y78989D01*
X939253D01*
X941253D01*
Y81654D01*
X977009Y92611D02*
X977675Y93277D01*
Y94610D01*
X977009Y95277D01*
X974343D01*
X973676Y94610D01*
Y93277D01*
X974343Y92611D01*
X973676Y89279D02*
X977675D01*
X975676Y91278D01*
Y88612D01*
X974343Y87279D02*
X973676Y86613D01*
Y85280D01*
X974343Y84614D01*
X977009D01*
X977675Y85280D01*
Y86613D01*
X977009Y87279D01*
X976342D01*
X975676Y86613D01*
Y84614D01*
X973010Y83281D02*
Y80615D01*
X973676Y79282D02*
X976342D01*
X977675Y77949D01*
X976342Y76616D01*
X973676D01*
X975676D01*
Y79282D01*
X976518Y127243D02*
X977184Y127910D01*
Y129243D01*
X976518Y129909D01*
X973852D01*
X973186Y129243D01*
Y127910D01*
X973852Y127243D01*
X977184Y123245D02*
Y125911D01*
X975185D01*
X975851Y124578D01*
Y123911D01*
X975185Y123245D01*
X973852D01*
X973186Y123911D01*
Y125244D01*
X973852Y125911D01*
X976518Y121912D02*
X977184Y121245D01*
Y119913D01*
X976518Y119246D01*
X973852D01*
X973186Y119913D01*
Y121245D01*
X973852Y121912D01*
X976518D01*
X972519Y117913D02*
Y115247D01*
X973186Y113914D02*
X975851D01*
X977184Y112582D01*
X975851Y111249D01*
X973186D01*
X975185D01*
Y113914D01*
X939253Y126488D02*
X943252D01*
Y124489D01*
X942586Y123822D01*
X941253D01*
X940586Y124489D01*
Y126488D01*
Y125155D02*
X939253Y123822D01*
Y119824D02*
Y122489D01*
X941919Y119824D01*
X942586D01*
X943252Y120490D01*
Y121823D01*
X942586Y122489D01*
X939253Y118491D02*
Y117158D01*
Y117824D01*
X943252D01*
X942586Y118491D01*
X938587Y115158D02*
Y112493D01*
X939253Y111160D02*
X941919D01*
X943252Y109827D01*
X941919Y108494D01*
X939253D01*
X941253D01*
Y111160D01*
X2036798Y12249D02*
Y8250D01*
X2039464D01*
X2043463Y12249D02*
X2040797D01*
Y8250D01*
X2043463D01*
X2040797Y10249D02*
X2042130D01*
X2044795Y12249D02*
Y8250D01*
X2046795D01*
X2047461Y8916D01*
Y11582D01*
X2046795Y12249D01*
X2044795D01*
X2048794Y11582D02*
X2049460Y12249D01*
X2050793D01*
X2051460Y11582D01*
Y10916D01*
X2050793Y10249D01*
X2050127D01*
X2050793D01*
X2051460Y9583D01*
Y8916D01*
X2050793Y8250D01*
X2049460D01*
X2048794Y8916D01*
X2052793Y7584D02*
X2055459D01*
X2056792Y12249D02*
Y8250D01*
X2058791D01*
X2059457Y8916D01*
Y9583D01*
X2058791Y10249D01*
X2056792D01*
X2058791D01*
X2059457Y10916D01*
Y11582D01*
X2058791Y12249D01*
X2056792D01*
X1930920Y77218D02*
Y73886D01*
X1931586Y73220D01*
X1932919D01*
X1933586Y73886D01*
Y77218D01*
X1936918Y73220D02*
Y77218D01*
X1934919Y75219D01*
X1937584D01*
X1938917Y72553D02*
X1941583D01*
X1942916Y77218D02*
Y73220D01*
X1944915D01*
X1945582Y73886D01*
Y74553D01*
X1944915Y75219D01*
X1942916D01*
X1944915D01*
X1945582Y75886D01*
Y76552D01*
X1944915Y77218D01*
X1942916D01*
X780617Y10194D02*
Y6862D01*
X781284Y6195D01*
X782617D01*
X783283Y6862D01*
Y10194D01*
X784616Y9528D02*
X785283Y10194D01*
X786616D01*
X787282Y9528D01*
Y8861D01*
X786616Y8195D01*
X785949D01*
X786616D01*
X787282Y7528D01*
Y6862D01*
X786616Y6195D01*
X785283D01*
X784616Y6862D01*
X788615Y5529D02*
X791281D01*
X792614Y6195D02*
Y8861D01*
X793946Y10194D01*
X795279Y8861D01*
Y6195D01*
Y8195D01*
X792614D01*
X3393570Y159920D02*
X3392237D01*
X3392904D01*
Y156588D01*
X3392237Y155921D01*
X3391571D01*
X3390905Y156588D01*
X3394903Y159254D02*
X3395569Y159920D01*
X3396902D01*
X3397569Y159254D01*
Y158587D01*
X3396902Y157921D01*
X3396236D01*
X3396902D01*
X3397569Y157254D01*
Y156588D01*
X3396902Y155921D01*
X3395569D01*
X3394903Y156588D01*
X2929419Y19417D02*
X2928753Y20083D01*
X2927420D01*
X2926754Y19417D01*
Y16751D01*
X2927420Y16085D01*
X2928753D01*
X2929419Y16751D01*
X2930752Y16085D02*
X2932085D01*
X2931419D01*
Y20083D01*
X2930752Y19417D01*
X2859556Y5802D02*
X2858890Y6469D01*
X2857557D01*
X2856890Y5802D01*
Y3136D01*
X2857557Y2470D01*
X2858890D01*
X2859556Y3136D01*
X2863555Y2470D02*
X2860889D01*
X2863555Y5136D01*
Y5802D01*
X2862888Y6469D01*
X2861555D01*
X2860889Y5802D01*
X2854374Y108250D02*
X2853708Y107583D01*
Y106250D01*
X2854374Y105584D01*
X2857040D01*
X2857706Y106250D01*
Y107583D01*
X2857040Y108250D01*
X2854374Y109582D02*
X2853708Y110249D01*
Y111582D01*
X2854374Y112248D01*
X2855040D01*
X2855707Y111582D01*
Y110915D01*
Y111582D01*
X2856373Y112248D01*
X2857040D01*
X2857706Y111582D01*
Y110249D01*
X2857040Y109582D01*
X2861603Y108646D02*
X2860936Y107980D01*
Y106647D01*
X2861603Y105980D01*
X2864268D01*
X2864935Y106647D01*
Y107980D01*
X2864268Y108646D01*
X2864935Y111978D02*
X2860936D01*
X2862935Y109979D01*
Y112645D01*
X2874479Y77800D02*
X2873813Y78467D01*
X2872480D01*
X2871814Y77800D01*
Y75135D01*
X2872480Y74468D01*
X2873813D01*
X2874479Y75135D01*
X2878478Y78467D02*
X2875812D01*
Y76467D01*
X2877145Y77134D01*
X2877812D01*
X2878478Y76467D01*
Y75135D01*
X2877812Y74468D01*
X2876479D01*
X2875812Y75135D01*
X2872494Y50417D02*
X2873160Y51083D01*
Y52416D01*
X2872494Y53083D01*
X2869828D01*
X2869162Y52416D01*
Y51083D01*
X2869828Y50417D01*
X2873160Y46418D02*
X2872494Y47751D01*
X2871161Y49084D01*
X2869828D01*
X2869162Y48418D01*
Y47085D01*
X2869828Y46418D01*
X2870495D01*
X2871161Y47085D01*
Y49084D01*
X2823268Y63345D02*
X2823934Y64011D01*
Y65344D01*
X2823268Y66010D01*
X2820602D01*
X2819935Y65344D01*
Y64011D01*
X2820602Y63345D01*
X2823934Y62012D02*
Y59346D01*
X2823268D01*
X2820602Y62012D01*
X2819935D01*
X2823741Y74378D02*
X2824407Y75045D01*
Y76378D01*
X2823741Y77044D01*
X2821075D01*
X2820409Y76378D01*
Y75045D01*
X2821075Y74378D01*
X2823741Y73046D02*
X2824407Y72379D01*
Y71046D01*
X2823741Y70380D01*
X2823074D01*
X2822408Y71046D01*
X2821741Y70380D01*
X2821075D01*
X2820409Y71046D01*
Y72379D01*
X2821075Y73046D01*
X2821741D01*
X2822408Y72379D01*
X2823074Y73046D01*
X2823741D01*
X2822408Y72379D02*
Y71046D01*
X2841576Y27030D02*
X2840909Y27696D01*
X2839576D01*
X2838910Y27030D01*
Y24364D01*
X2839576Y23697D01*
X2840909D01*
X2841576Y24364D01*
X2842909D02*
X2843575Y23697D01*
X2844908D01*
X2845575Y24364D01*
Y27030D01*
X2844908Y27696D01*
X2843575D01*
X2842909Y27030D01*
Y26363D01*
X2843575Y25697D01*
X2845575D01*
X2836746Y39079D02*
X2836080Y39745D01*
X2834747D01*
X2834081Y39079D01*
Y36413D01*
X2834747Y35747D01*
X2836080D01*
X2836746Y36413D01*
X2838079Y35747D02*
X2839412D01*
X2838746D01*
Y39745D01*
X2838079Y39079D01*
X2841411D02*
X2842078Y39745D01*
X2843411D01*
X2844077Y39079D01*
Y36413D01*
X2843411Y35747D01*
X2842078D01*
X2841411Y36413D01*
Y39079D01*
X2790891Y55663D02*
X2790225Y56329D01*
X2788892D01*
X2788225Y55663D01*
Y52997D01*
X2788892Y52330D01*
X2790225D01*
X2790891Y52997D01*
X2792224Y52330D02*
X2793557D01*
X2792891D01*
Y56329D01*
X2792224Y55663D01*
X2795557Y52330D02*
X2796889D01*
X2796223D01*
Y56329D01*
X2795557Y55663D01*
X2838343Y14552D02*
X2837676Y15218D01*
X2836344D01*
X2835677Y14552D01*
Y11886D01*
X2836344Y11220D01*
X2837676D01*
X2838343Y11886D01*
X2839676Y11220D02*
X2841009D01*
X2840342D01*
Y15218D01*
X2839676Y14552D01*
X2845674Y11220D02*
X2843008D01*
X2845674Y13885D01*
Y14552D01*
X2845008Y15218D01*
X2843675D01*
X2843008Y14552D01*
X2916219Y118836D02*
X2915553Y118169D01*
Y116837D01*
X2916219Y116170D01*
X2918885D01*
X2919552Y116837D01*
Y118169D01*
X2918885Y118836D01*
X2919552Y120169D02*
Y121502D01*
Y120835D01*
X2915553D01*
X2916219Y120169D01*
Y123501D02*
X2915553Y124167D01*
Y125500D01*
X2916219Y126167D01*
X2916886D01*
X2917552Y125500D01*
Y124834D01*
Y125500D01*
X2918219Y126167D01*
X2918885D01*
X2919552Y125500D01*
Y124167D01*
X2918885Y123501D01*
X2874021Y134944D02*
X2874688Y135611D01*
Y136943D01*
X2874021Y137610D01*
X2871355D01*
X2870689Y136943D01*
Y135611D01*
X2871355Y134944D01*
X2870689Y133611D02*
Y132278D01*
Y132945D01*
X2874688D01*
X2874021Y133611D01*
X2870689Y128280D02*
X2874688D01*
X2872688Y130279D01*
Y127613D01*
X2771780Y66405D02*
X2772446Y67071D01*
Y68404D01*
X2771780Y69071D01*
X2769114D01*
X2768448Y68404D01*
Y67071D01*
X2769114Y66405D01*
X2768448Y65072D02*
Y63739D01*
Y64405D01*
X2772446D01*
X2771780Y65072D01*
X2772446Y59074D02*
Y61740D01*
X2770447D01*
X2771114Y60407D01*
Y59740D01*
X2770447Y59074D01*
X2769114D01*
X2768448Y59740D01*
Y61073D01*
X2769114Y61740D01*
X2807176Y66405D02*
X2807843Y67071D01*
Y68404D01*
X2807176Y69071D01*
X2804510D01*
X2803844Y68404D01*
Y67071D01*
X2804510Y66405D01*
X2803844Y65072D02*
Y63739D01*
Y64405D01*
X2807843D01*
X2807176Y65072D01*
X2807843Y59074D02*
X2807176Y60407D01*
X2805844Y61740D01*
X2804510D01*
X2803844Y61073D01*
Y59740D01*
X2804510Y59074D01*
X2805177D01*
X2805844Y59740D01*
Y61740D01*
X2816253Y66405D02*
X2816919Y67071D01*
Y68404D01*
X2816253Y69071D01*
X2813587D01*
X2812921Y68404D01*
Y67071D01*
X2813587Y66405D01*
X2812921Y65072D02*
Y63739D01*
Y64405D01*
X2816919D01*
X2816253Y65072D01*
X2816919Y61740D02*
Y59074D01*
X2816253D01*
X2813587Y61740D01*
X2812921D01*
X2760703Y66405D02*
X2761370Y67071D01*
Y68404D01*
X2760703Y69071D01*
X2758038D01*
X2757371Y68404D01*
Y67071D01*
X2758038Y66405D01*
X2757371Y65072D02*
Y63739D01*
Y64405D01*
X2761370D01*
X2760703Y65072D01*
Y61740D02*
X2761370Y61073D01*
Y59740D01*
X2760703Y59074D01*
X2760037D01*
X2759371Y59740D01*
X2758704Y59074D01*
X2758038D01*
X2757371Y59740D01*
Y61073D01*
X2758038Y61740D01*
X2758704D01*
X2759371Y61073D01*
X2760037Y61740D01*
X2760703D01*
X2759371Y61073D02*
Y59740D01*
X689722Y63332D02*
X689055Y63999D01*
X687723D01*
X687056Y63332D01*
Y60666D01*
X687723Y60000D01*
X689055D01*
X689722Y60666D01*
X693721Y60000D02*
X691055D01*
X693721Y62666D01*
Y63332D01*
X693054Y63999D01*
X691721D01*
X691055Y63332D01*
X695053D02*
X695720Y63999D01*
X697053D01*
X697719Y63332D01*
Y62666D01*
X697053Y61999D01*
X697719Y61333D01*
Y60666D01*
X697053Y60000D01*
X695720D01*
X695053Y60666D01*
Y61333D01*
X695720Y61999D01*
X695053Y62666D01*
Y63332D01*
X695720Y61999D02*
X697053D01*
X699052Y59334D02*
X701718D01*
X703051Y60000D02*
Y62666D01*
X704384Y63999D01*
X705717Y62666D01*
Y60000D01*
Y61999D01*
X703051D01*
X1961724Y60762D02*
X1961058Y61428D01*
X1959725D01*
X1959058Y60762D01*
Y58096D01*
X1959725Y57429D01*
X1961058D01*
X1961724Y58096D01*
X1965723Y57429D02*
X1963057D01*
X1965723Y60095D01*
Y60762D01*
X1965056Y61428D01*
X1963723D01*
X1963057Y60762D01*
X1967056D02*
X1967722Y61428D01*
X1969055D01*
X1969722Y60762D01*
Y60095D01*
X1969055Y59429D01*
X1969722Y58762D01*
Y58096D01*
X1969055Y57429D01*
X1967722D01*
X1967056Y58096D01*
Y58762D01*
X1967722Y59429D01*
X1967056Y60095D01*
Y60762D01*
X1967722Y59429D02*
X1969055D01*
X1971054Y56763D02*
X1973720D01*
X1975053Y61428D02*
Y57429D01*
X1977052D01*
X1977719Y58096D01*
Y58762D01*
X1977052Y59429D01*
X1975053D01*
X1977052D01*
X1977719Y60095D01*
Y60762D01*
X1977052Y61428D01*
X1975053D01*
X4005790Y83224D02*
X4005123Y83891D01*
X4003790D01*
X4003124Y83224D01*
Y80559D01*
X4003790Y79892D01*
X4005123D01*
X4005790Y80559D01*
X4009789Y79892D02*
X4007122D01*
X4009789Y82558D01*
Y83224D01*
X4009122Y83891D01*
X4007789D01*
X4007122Y83224D01*
X4011121D02*
X4011788Y83891D01*
X4013121D01*
X4013787Y83224D01*
Y82558D01*
X4013121Y81891D01*
X4013787Y81225D01*
Y80559D01*
X4013121Y79892D01*
X4011788D01*
X4011121Y80559D01*
Y81225D01*
X4011788Y81891D01*
X4011121Y82558D01*
Y83224D01*
X4011788Y81891D02*
X4013121D01*
X4015120Y79226D02*
X4017786D01*
X4021784Y83224D02*
X4021118Y83891D01*
X4019785D01*
X4019119Y83224D01*
Y80559D01*
X4019785Y79892D01*
X4021118D01*
X4021784Y80559D01*
X767950Y70781D02*
X767283Y71448D01*
X765950D01*
X765284Y70781D01*
Y68116D01*
X765950Y67449D01*
X767283D01*
X767950Y68116D01*
X769283Y70781D02*
X769949Y71448D01*
X771282D01*
X771948Y70781D01*
Y70115D01*
X771282Y69449D01*
X770615D01*
X771282D01*
X771948Y68782D01*
Y68116D01*
X771282Y67449D01*
X769949D01*
X769283Y68116D01*
X773281Y70781D02*
X773948Y71448D01*
X775281D01*
X775947Y70781D01*
Y68116D01*
X775281Y67449D01*
X773948D01*
X773281Y68116D01*
Y70781D01*
X777280Y66783D02*
X779946D01*
X781279Y67449D02*
Y70115D01*
X782611Y71448D01*
X783944Y70115D01*
Y67449D01*
Y69449D01*
X781279D01*
X2061727Y39952D02*
X2061061Y40619D01*
X2059728D01*
X2059062Y39952D01*
Y37287D01*
X2059728Y36620D01*
X2061061D01*
X2061727Y37287D01*
X2063060Y39952D02*
X2063727Y40619D01*
X2065060D01*
X2065726Y39952D01*
Y39286D01*
X2065060Y38619D01*
X2064393D01*
X2065060D01*
X2065726Y37953D01*
Y37287D01*
X2065060Y36620D01*
X2063727D01*
X2063060Y37287D01*
X2067059Y39952D02*
X2067726Y40619D01*
X2069058D01*
X2069725Y39952D01*
Y37287D01*
X2069058Y36620D01*
X2067726D01*
X2067059Y37287D01*
Y39952D01*
X2071058Y35954D02*
X2073723D01*
X2075056Y40619D02*
Y36620D01*
X2077056D01*
X2077722Y37287D01*
Y37953D01*
X2077056Y38619D01*
X2075056D01*
X2077056D01*
X2077722Y39286D01*
Y39952D01*
X2077056Y40619D01*
X2075056D01*
X4168962Y50766D02*
X4169629Y51433D01*
Y52766D01*
X4168962Y53432D01*
X4166296D01*
X4165630Y52766D01*
Y51433D01*
X4166296Y50766D01*
X4168962Y49433D02*
X4169629Y48767D01*
Y47434D01*
X4168962Y46768D01*
X4168296D01*
X4167629Y47434D01*
Y48101D01*
Y47434D01*
X4166963Y46768D01*
X4166296D01*
X4165630Y47434D01*
Y48767D01*
X4166296Y49433D01*
X4168962Y45435D02*
X4169629Y44768D01*
Y43435D01*
X4168962Y42769D01*
X4166296D01*
X4165630Y43435D01*
Y44768D01*
X4166296Y45435D01*
X4168962D01*
X4164964Y41436D02*
Y38770D01*
X4168962Y34771D02*
X4169629Y35438D01*
Y36771D01*
X4168962Y37437D01*
X4166296D01*
X4165630Y36771D01*
Y35438D01*
X4166296Y34771D01*
X223391Y95644D02*
X224057Y96311D01*
Y97643D01*
X223391Y98310D01*
X220725D01*
X220058Y97643D01*
Y96311D01*
X220725Y95644D01*
X223391Y94311D02*
X224057Y93645D01*
Y92312D01*
X223391Y91645D01*
X222724D01*
X222058Y92312D01*
Y92978D01*
Y92312D01*
X221391Y91645D01*
X220725D01*
X220058Y92312D01*
Y93645D01*
X220725Y94311D01*
X220058Y90312D02*
Y88980D01*
Y89646D01*
X224057D01*
X223391Y90312D01*
X219392Y86980D02*
Y84314D01*
X220058Y82982D02*
X222724D01*
X224057Y81649D01*
X222724Y80316D01*
X220058D01*
X222058D01*
Y82982D01*
X1699252Y93278D02*
X1699919Y93944D01*
Y95277D01*
X1699252Y95943D01*
X1696586D01*
X1695920Y95277D01*
Y93944D01*
X1696586Y93278D01*
X1699252Y91945D02*
X1699919Y91278D01*
Y89945D01*
X1699252Y89279D01*
X1698586D01*
X1697919Y89945D01*
Y90612D01*
Y89945D01*
X1697253Y89279D01*
X1696586D01*
X1695920Y89945D01*
Y91278D01*
X1696586Y91945D01*
X1695920Y87946D02*
Y86613D01*
Y87280D01*
X1699919D01*
X1699252Y87946D01*
X1695253Y84614D02*
Y81948D01*
X1699919Y80615D02*
X1695920D01*
Y78616D01*
X1696586Y77949D01*
X1697253D01*
X1697919Y78616D01*
Y80615D01*
Y78616D01*
X1698586Y77949D01*
X1699252D01*
X1699919Y78616D01*
Y80615D01*
X3175215Y87315D02*
X3175882Y87981D01*
Y89314D01*
X3175215Y89980D01*
X3172550D01*
X3171884Y89314D01*
Y87981D01*
X3172550Y87315D01*
X3175215Y85982D02*
X3175882Y85315D01*
Y83982D01*
X3175215Y83316D01*
X3174549D01*
X3173883Y83982D01*
Y84649D01*
Y83982D01*
X3173216Y83316D01*
X3172550D01*
X3171884Y83982D01*
Y85315D01*
X3172550Y85982D01*
X3171884Y81983D02*
Y80650D01*
Y81317D01*
X3175882D01*
X3175215Y81983D01*
X3171217Y78651D02*
Y75985D01*
X3175215Y71986D02*
X3175882Y72653D01*
Y73986D01*
X3175215Y74652D01*
X3172550D01*
X3171884Y73986D01*
Y72653D01*
X3172550Y71986D01*
X583451Y95689D02*
X584118Y96356D01*
Y97689D01*
X583451Y98355D01*
X580786D01*
X580119Y97689D01*
Y96356D01*
X580786Y95689D01*
X583451Y94356D02*
X584118Y93690D01*
Y92357D01*
X583451Y91691D01*
X582785D01*
X582118Y92357D01*
Y93024D01*
Y92357D01*
X581452Y91691D01*
X580786D01*
X580119Y92357D01*
Y93690D01*
X580786Y94356D01*
X580119Y87692D02*
Y90358D01*
X582785Y87692D01*
X583451D01*
X584118Y88358D01*
Y89691D01*
X583451Y90358D01*
X579453Y86359D02*
Y83693D01*
X580119Y82360D02*
X582785D01*
X584118Y81027D01*
X582785Y79695D01*
X580119D01*
X582118D01*
Y82360D01*
X2060264Y98060D02*
X2060930Y98726D01*
Y100059D01*
X2060264Y100726D01*
X2057598D01*
X2056931Y100059D01*
Y98726D01*
X2057598Y98060D01*
X2060264Y96727D02*
X2060930Y96060D01*
Y94728D01*
X2060264Y94061D01*
X2059597D01*
X2058931Y94728D01*
Y95394D01*
Y94728D01*
X2058264Y94061D01*
X2057598D01*
X2056931Y94728D01*
Y96060D01*
X2057598Y96727D01*
X2056931Y90063D02*
Y92728D01*
X2059597Y90063D01*
X2060264D01*
X2060930Y90729D01*
Y92062D01*
X2060264Y92728D01*
X2056265Y88730D02*
Y86064D01*
X2060930Y84731D02*
X2056931D01*
Y82732D01*
X2057598Y82065D01*
X2058264D01*
X2058931Y82732D01*
Y84731D01*
Y82732D01*
X2059597Y82065D01*
X2060264D01*
X2060930Y82732D01*
Y84731D01*
X3570799Y95521D02*
X3571465Y96187D01*
Y97520D01*
X3570799Y98187D01*
X3568133D01*
X3567466Y97520D01*
Y96187D01*
X3568133Y95521D01*
X3570799Y94188D02*
X3571465Y93521D01*
Y92188D01*
X3570799Y91522D01*
X3570132D01*
X3569466Y92188D01*
Y92855D01*
Y92188D01*
X3568799Y91522D01*
X3568133D01*
X3567466Y92188D01*
Y93521D01*
X3568133Y94188D01*
X3567466Y87523D02*
Y90189D01*
X3570132Y87523D01*
X3570799D01*
X3571465Y88190D01*
Y89523D01*
X3570799Y90189D01*
X3566800Y86190D02*
Y83525D01*
X3570799Y79526D02*
X3571465Y80192D01*
Y81525D01*
X3570799Y82192D01*
X3568133D01*
X3567466Y81525D01*
Y80192D01*
X3568133Y79526D01*
X255752Y96744D02*
X256418Y97410D01*
Y98743D01*
X255752Y99410D01*
X253086D01*
X252420Y98743D01*
Y97410D01*
X253086Y96744D01*
X255752Y95411D02*
X256418Y94745D01*
Y93412D01*
X255752Y92745D01*
X255086D01*
X254419Y93412D01*
Y94078D01*
Y93412D01*
X253753Y92745D01*
X253086D01*
X252420Y93412D01*
Y94745D01*
X253086Y95411D01*
X255752Y91412D02*
X256418Y90746D01*
Y89413D01*
X255752Y88747D01*
X255086D01*
X254419Y89413D01*
Y90080D01*
Y89413D01*
X253753Y88747D01*
X253086D01*
X252420Y89413D01*
Y90746D01*
X253086Y91412D01*
X251753Y87414D02*
Y84748D01*
X252420Y83415D02*
X255086D01*
X256418Y82082D01*
X255086Y80749D01*
X252420D01*
X254419D01*
Y83415D01*
X1735136Y126215D02*
X1735802Y126882D01*
Y128215D01*
X1735136Y128881D01*
X1732470D01*
X1731803Y128215D01*
Y126882D01*
X1732470Y126215D01*
X1735136Y124882D02*
X1735802Y124216D01*
Y122883D01*
X1735136Y122217D01*
X1734469D01*
X1733803Y122883D01*
Y123550D01*
Y122883D01*
X1733136Y122217D01*
X1732470D01*
X1731803Y122883D01*
Y124216D01*
X1732470Y124882D01*
X1735136Y120884D02*
X1735802Y120217D01*
Y118884D01*
X1735136Y118218D01*
X1734469D01*
X1733803Y118884D01*
Y119551D01*
Y118884D01*
X1733136Y118218D01*
X1732470D01*
X1731803Y118884D01*
Y120217D01*
X1732470Y120884D01*
X1731137Y116885D02*
Y114219D01*
X1735802Y112886D02*
X1731803D01*
Y110887D01*
X1732470Y110221D01*
X1733136D01*
X1733803Y110887D01*
Y112886D01*
Y110887D01*
X1734469Y110221D01*
X1735136D01*
X1735802Y110887D01*
Y112886D01*
X3208761Y90149D02*
X3209427Y90816D01*
Y92149D01*
X3208761Y92815D01*
X3206095D01*
X3205428Y92149D01*
Y90816D01*
X3206095Y90149D01*
X3208761Y88816D02*
X3209427Y88150D01*
Y86817D01*
X3208761Y86151D01*
X3208094D01*
X3207428Y86817D01*
Y87484D01*
Y86817D01*
X3206761Y86151D01*
X3206095D01*
X3205428Y86817D01*
Y88150D01*
X3206095Y88816D01*
X3208761Y84818D02*
X3209427Y84151D01*
Y82818D01*
X3208761Y82152D01*
X3208094D01*
X3207428Y82818D01*
Y83485D01*
Y82818D01*
X3206761Y82152D01*
X3206095D01*
X3205428Y82818D01*
Y84151D01*
X3206095Y84818D01*
X3204762Y80819D02*
Y78153D01*
X3208761Y74155D02*
X3209427Y74821D01*
Y76154D01*
X3208761Y76820D01*
X3206095D01*
X3205428Y76154D01*
Y74821D01*
X3206095Y74155D01*
X255752Y125974D02*
X256418Y126641D01*
Y127973D01*
X255752Y128640D01*
X253086D01*
X252420Y127973D01*
Y126641D01*
X253086Y125974D01*
X255752Y124641D02*
X256418Y123975D01*
Y122642D01*
X255752Y121975D01*
X255086D01*
X254419Y122642D01*
Y123308D01*
Y122642D01*
X253753Y121975D01*
X253086D01*
X252420Y122642D01*
Y123975D01*
X253086Y124641D01*
X252420Y118643D02*
X256418D01*
X254419Y120642D01*
Y117977D01*
X251753Y116644D02*
Y113978D01*
X252420Y112645D02*
X255086D01*
X256418Y111312D01*
X255086Y109979D01*
X252420D01*
X254419D01*
Y112645D01*
X1734396Y92458D02*
X1735063Y93125D01*
Y94457D01*
X1734396Y95124D01*
X1731730D01*
X1731064Y94457D01*
Y93125D01*
X1731730Y92458D01*
X1734396Y91125D02*
X1735063Y90459D01*
Y89126D01*
X1734396Y88459D01*
X1733730D01*
X1733063Y89126D01*
Y89792D01*
Y89126D01*
X1732397Y88459D01*
X1731730D01*
X1731064Y89126D01*
Y90459D01*
X1731730Y91125D01*
X1731064Y85127D02*
X1735063D01*
X1733063Y87127D01*
Y84461D01*
X1730397Y83128D02*
Y80462D01*
X1735063Y79129D02*
X1731064D01*
Y77130D01*
X1731730Y76463D01*
X1732397D01*
X1733063Y77130D01*
Y79129D01*
Y77130D01*
X1733730Y76463D01*
X1734396D01*
X1735063Y77130D01*
Y79129D01*
X3208870Y124590D02*
X3209537Y125257D01*
Y126590D01*
X3208870Y127256D01*
X3206205D01*
X3205538Y126590D01*
Y125257D01*
X3206205Y124590D01*
X3208870Y123257D02*
X3209537Y122591D01*
Y121258D01*
X3208870Y120591D01*
X3208204D01*
X3207538Y121258D01*
Y121924D01*
Y121258D01*
X3206871Y120591D01*
X3206205D01*
X3205538Y121258D01*
Y122591D01*
X3206205Y123257D01*
X3205538Y117259D02*
X3209537D01*
X3207538Y119259D01*
Y116593D01*
X3204872Y115260D02*
Y112594D01*
X3208870Y108595D02*
X3209537Y109262D01*
Y110595D01*
X3208870Y111261D01*
X3206205D01*
X3205538Y110595D01*
Y109262D01*
X3206205Y108595D01*
X617251Y125804D02*
X617917Y126470D01*
Y127803D01*
X617251Y128470D01*
X614585D01*
X613919Y127803D01*
Y126470D01*
X614585Y125804D01*
X617251Y124471D02*
X617917Y123805D01*
Y122472D01*
X617251Y121805D01*
X616584D01*
X615918Y122472D01*
Y123138D01*
Y122472D01*
X615251Y121805D01*
X614585D01*
X613919Y122472D01*
Y123805D01*
X614585Y124471D01*
X617917Y117806D02*
Y120472D01*
X615918D01*
X616584Y119139D01*
Y118473D01*
X615918Y117806D01*
X614585D01*
X613919Y118473D01*
Y119806D01*
X614585Y120472D01*
X613252Y116474D02*
Y113808D01*
X613919Y112475D02*
X616584D01*
X617917Y111142D01*
X616584Y109809D01*
X613919D01*
X615918D01*
Y112475D01*
X2094152Y100120D02*
X2094819Y100786D01*
Y102119D01*
X2094152Y102786D01*
X2091486D01*
X2090820Y102119D01*
Y100786D01*
X2091486Y100120D01*
X2094152Y98787D02*
X2094819Y98120D01*
Y96788D01*
X2094152Y96121D01*
X2093486D01*
X2092819Y96788D01*
Y97454D01*
Y96788D01*
X2092153Y96121D01*
X2091486D01*
X2090820Y96788D01*
Y98120D01*
X2091486Y98787D01*
X2094819Y92122D02*
Y94788D01*
X2092819D01*
X2093486Y93455D01*
Y92789D01*
X2092819Y92122D01*
X2091486D01*
X2090820Y92789D01*
Y94122D01*
X2091486Y94788D01*
X2090153Y90790D02*
Y88124D01*
X2094819Y86791D02*
X2090820D01*
Y84791D01*
X2091486Y84125D01*
X2092153D01*
X2092819Y84791D01*
Y86791D01*
Y84791D01*
X2093486Y84125D01*
X2094152D01*
X2094819Y84791D01*
Y86791D01*
X3605623Y125450D02*
X3606289Y126117D01*
Y127449D01*
X3605623Y128116D01*
X3602957D01*
X3602291Y127449D01*
Y126117D01*
X3602957Y125450D01*
X3605623Y124117D02*
X3606289Y123451D01*
Y122118D01*
X3605623Y121451D01*
X3604956D01*
X3604290Y122118D01*
Y122784D01*
Y122118D01*
X3603623Y121451D01*
X3602957D01*
X3602291Y122118D01*
Y123451D01*
X3602957Y124117D01*
X3606289Y117453D02*
Y120118D01*
X3604290D01*
X3604956Y118785D01*
Y118119D01*
X3604290Y117453D01*
X3602957D01*
X3602291Y118119D01*
Y119452D01*
X3602957Y120118D01*
X3601624Y116120D02*
Y113454D01*
X3605623Y109455D02*
X3606289Y110122D01*
Y111455D01*
X3605623Y112121D01*
X3602957D01*
X3602291Y111455D01*
Y110122D01*
X3602957Y109455D01*
X617251Y95589D02*
X617917Y96256D01*
Y97589D01*
X617251Y98255D01*
X614585D01*
X613919Y97589D01*
Y96256D01*
X614585Y95589D01*
X617251Y94256D02*
X617917Y93590D01*
Y92257D01*
X617251Y91591D01*
X616584D01*
X615918Y92257D01*
Y92924D01*
Y92257D01*
X615251Y91591D01*
X614585D01*
X613919Y92257D01*
Y93590D01*
X614585Y94256D01*
X617917Y87592D02*
X617251Y88925D01*
X615918Y90258D01*
X614585D01*
X613919Y89591D01*
Y88258D01*
X614585Y87592D01*
X615251D01*
X615918Y88258D01*
Y90258D01*
X613252Y86259D02*
Y83593D01*
X613919Y82260D02*
X616584D01*
X617917Y80927D01*
X616584Y79595D01*
X613919D01*
X615918D01*
Y82260D01*
X2094152Y128552D02*
X2094819Y129218D01*
Y130551D01*
X2094152Y131218D01*
X2091486D01*
X2090820Y130551D01*
Y129218D01*
X2091486Y128552D01*
X2094152Y127219D02*
X2094819Y126552D01*
Y125220D01*
X2094152Y124553D01*
X2093486D01*
X2092819Y125220D01*
Y125886D01*
Y125220D01*
X2092153Y124553D01*
X2091486D01*
X2090820Y125220D01*
Y126552D01*
X2091486Y127219D01*
X2094819Y120554D02*
X2094152Y121887D01*
X2092819Y123220D01*
X2091486D01*
X2090820Y122554D01*
Y121221D01*
X2091486Y120554D01*
X2092153D01*
X2092819Y121221D01*
Y123220D01*
X2090153Y119222D02*
Y116556D01*
X2094819Y115223D02*
X2090820D01*
Y113223D01*
X2091486Y112557D01*
X2092153D01*
X2092819Y113223D01*
Y115223D01*
Y113223D01*
X2093486Y112557D01*
X2094152D01*
X2094819Y113223D01*
Y115223D01*
X3605623Y96664D02*
X3606289Y97330D01*
Y98663D01*
X3605623Y99329D01*
X3602957D01*
X3602291Y98663D01*
Y97330D01*
X3602957Y96664D01*
X3605623Y95331D02*
X3606289Y94664D01*
Y93331D01*
X3605623Y92665D01*
X3604956D01*
X3604290Y93331D01*
Y93998D01*
Y93331D01*
X3603623Y92665D01*
X3602957D01*
X3602291Y93331D01*
Y94664D01*
X3602957Y95331D01*
X3606289Y88666D02*
X3605623Y89999D01*
X3604290Y91332D01*
X3602957D01*
X3602291Y90666D01*
Y89333D01*
X3602957Y88666D01*
X3603623D01*
X3604290Y89333D01*
Y91332D01*
X3601624Y87333D02*
Y84668D01*
X3605623Y80669D02*
X3606289Y81335D01*
Y82668D01*
X3605623Y83335D01*
X3602957D01*
X3602291Y82668D01*
Y81335D01*
X3602957Y80669D01*
X403945Y97339D02*
X404611Y98006D01*
Y99339D01*
X403945Y100005D01*
X401279D01*
X400612Y99339D01*
Y98006D01*
X401279Y97339D01*
X403945Y96006D02*
X404611Y95340D01*
Y94007D01*
X403945Y93341D01*
X403278D01*
X402612Y94007D01*
Y94674D01*
Y94007D01*
X401945Y93341D01*
X401279D01*
X400612Y94007D01*
Y95340D01*
X401279Y96006D01*
X404611Y92008D02*
Y89342D01*
X403945D01*
X401279Y92008D01*
X400612D01*
X399946Y88009D02*
Y85343D01*
X400612Y84010D02*
X403278D01*
X404611Y82677D01*
X403278Y81344D01*
X400612D01*
X402612D01*
Y84010D01*
X1882468Y98814D02*
X1883135Y99480D01*
Y100813D01*
X1882468Y101480D01*
X1879803D01*
X1879136Y100813D01*
Y99480D01*
X1879803Y98814D01*
X1882468Y97481D02*
X1883135Y96814D01*
Y95482D01*
X1882468Y94815D01*
X1881802D01*
X1881136Y95482D01*
Y96148D01*
Y95482D01*
X1880469Y94815D01*
X1879803D01*
X1879136Y95482D01*
Y96814D01*
X1879803Y97481D01*
X1883135Y93482D02*
Y90816D01*
X1882468D01*
X1879803Y93482D01*
X1879136D01*
X1878470Y89484D02*
Y86818D01*
X1883135Y85485D02*
X1879136D01*
Y83485D01*
X1879803Y82819D01*
X1880469D01*
X1881136Y83485D01*
Y85485D01*
Y83485D01*
X1881802Y82819D01*
X1882468D01*
X1883135Y83485D01*
Y85485D01*
X3355470Y95018D02*
X3356137Y95684D01*
Y97017D01*
X3355470Y97684D01*
X3352804D01*
X3352138Y97017D01*
Y95684D01*
X3352804Y95018D01*
X3355470Y93685D02*
X3356137Y93019D01*
Y91686D01*
X3355470Y91019D01*
X3354804D01*
X3354137Y91686D01*
Y92352D01*
Y91686D01*
X3353471Y91019D01*
X3352804D01*
X3352138Y91686D01*
Y93019D01*
X3352804Y93685D01*
X3356137Y89686D02*
Y87021D01*
X3355470D01*
X3352804Y89686D01*
X3352138D01*
X3351472Y85688D02*
Y83022D01*
X3355470Y79023D02*
X3356137Y79690D01*
Y81023D01*
X3355470Y81689D01*
X3352804D01*
X3352138Y81023D01*
Y79690D01*
X3352804Y79023D01*
X437318Y123874D02*
X437984Y124540D01*
Y125873D01*
X437318Y126540D01*
X434652D01*
X433985Y125873D01*
Y124540D01*
X434652Y123874D01*
X437318Y122541D02*
X437984Y121875D01*
Y120542D01*
X437318Y119875D01*
X436651D01*
X435985Y120542D01*
Y121208D01*
Y120542D01*
X435318Y119875D01*
X434652D01*
X433985Y120542D01*
Y121875D01*
X434652Y122541D01*
X437318Y118542D02*
X437984Y117876D01*
Y116543D01*
X437318Y115876D01*
X436651D01*
X435985Y116543D01*
X435318Y115876D01*
X434652D01*
X433985Y116543D01*
Y117876D01*
X434652Y118542D01*
X435318D01*
X435985Y117876D01*
X436651Y118542D01*
X437318D01*
X435985Y117876D02*
Y116543D01*
X433319Y114544D02*
Y111878D01*
X433985Y110545D02*
X436651D01*
X437984Y109212D01*
X436651Y107879D01*
X433985D01*
X435985D01*
Y110545D01*
X1914764Y129079D02*
X1915430Y129746D01*
Y131079D01*
X1914764Y131745D01*
X1912098D01*
X1911432Y131079D01*
Y129746D01*
X1912098Y129079D01*
X1914764Y127746D02*
X1915430Y127080D01*
Y125747D01*
X1914764Y125081D01*
X1914098D01*
X1913431Y125747D01*
Y126414D01*
Y125747D01*
X1912765Y125081D01*
X1912098D01*
X1911432Y125747D01*
Y127080D01*
X1912098Y127746D01*
X1914764Y123748D02*
X1915430Y123081D01*
Y121749D01*
X1914764Y121082D01*
X1914098D01*
X1913431Y121749D01*
X1912765Y121082D01*
X1912098D01*
X1911432Y121749D01*
Y123081D01*
X1912098Y123748D01*
X1912765D01*
X1913431Y123081D01*
X1914098Y123748D01*
X1914764D01*
X1913431Y123081D02*
Y121749D01*
X1910765Y119749D02*
Y117083D01*
X1915430Y115750D02*
X1911432D01*
Y113751D01*
X1912098Y113085D01*
X1912765D01*
X1913431Y113751D01*
Y115750D01*
Y113751D01*
X1914098Y113085D01*
X1914764D01*
X1915430Y113751D01*
Y115750D01*
X3379495Y142896D02*
X3380162Y143563D01*
Y144896D01*
X3379495Y145562D01*
X3376830D01*
X3376163Y144896D01*
Y143563D01*
X3376830Y142896D01*
X3379495Y141563D02*
X3380162Y140897D01*
Y139564D01*
X3379495Y138898D01*
X3378829D01*
X3378163Y139564D01*
Y140231D01*
Y139564D01*
X3377496Y138898D01*
X3376830D01*
X3376163Y139564D01*
Y140897D01*
X3376830Y141563D01*
X3379495Y137565D02*
X3380162Y136898D01*
Y135565D01*
X3379495Y134899D01*
X3378829D01*
X3378163Y135565D01*
X3377496Y134899D01*
X3376830D01*
X3376163Y135565D01*
Y136898D01*
X3376830Y137565D01*
X3377496D01*
X3378163Y136898D01*
X3378829Y137565D01*
X3379495D01*
X3378163Y136898D02*
Y135565D01*
X3375497Y133566D02*
Y130900D01*
X3379495Y126902D02*
X3380162Y127568D01*
Y128901D01*
X3379495Y129567D01*
X3376830D01*
X3376163Y128901D01*
Y127568D01*
X3376830Y126902D01*
X764316Y95289D02*
X764983Y95956D01*
Y97289D01*
X764316Y97955D01*
X761650D01*
X760984Y97289D01*
Y95956D01*
X761650Y95289D01*
X764316Y93956D02*
X764983Y93290D01*
Y91957D01*
X764316Y91291D01*
X763650D01*
X762983Y91957D01*
Y92624D01*
Y91957D01*
X762317Y91291D01*
X761650D01*
X760984Y91957D01*
Y93290D01*
X761650Y93956D01*
Y89958D02*
X760984Y89291D01*
Y87958D01*
X761650Y87292D01*
X764316D01*
X764983Y87958D01*
Y89291D01*
X764316Y89958D01*
X763650D01*
X762983Y89291D01*
Y87292D01*
X760317Y85959D02*
Y83293D01*
X760984Y81960D02*
X763650D01*
X764983Y80627D01*
X763650Y79295D01*
X760984D01*
X762983D01*
Y81960D01*
X2239652Y99832D02*
X2240319Y100498D01*
Y101831D01*
X2239652Y102498D01*
X2236987D01*
X2236320Y101831D01*
Y100498D01*
X2236987Y99832D01*
X2239652Y98499D02*
X2240319Y97833D01*
Y96500D01*
X2239652Y95833D01*
X2238986D01*
X2238320Y96500D01*
Y97166D01*
Y96500D01*
X2237653Y95833D01*
X2236987D01*
X2236320Y96500D01*
Y97833D01*
X2236987Y98499D01*
Y94500D02*
X2236320Y93834D01*
Y92501D01*
X2236987Y91834D01*
X2239652D01*
X2240319Y92501D01*
Y93834D01*
X2239652Y94500D01*
X2238986D01*
X2238320Y93834D01*
Y91834D01*
X2235654Y90502D02*
Y87836D01*
X2240319Y86503D02*
X2236320D01*
Y84504D01*
X2236987Y83837D01*
X2237653D01*
X2238320Y84504D01*
Y86503D01*
Y84504D01*
X2238986Y83837D01*
X2239652D01*
X2240319Y84504D01*
Y86503D01*
X3752577Y96757D02*
X3753243Y97423D01*
Y98756D01*
X3752577Y99423D01*
X3749911D01*
X3749244Y98756D01*
Y97423D01*
X3749911Y96757D01*
X3752577Y95424D02*
X3753243Y94757D01*
Y93425D01*
X3752577Y92758D01*
X3751910D01*
X3751244Y93425D01*
Y94091D01*
Y93425D01*
X3750577Y92758D01*
X3749911D01*
X3749244Y93425D01*
Y94757D01*
X3749911Y95424D01*
Y91425D02*
X3749244Y90759D01*
Y89426D01*
X3749911Y88759D01*
X3752577D01*
X3753243Y89426D01*
Y90759D01*
X3752577Y91425D01*
X3751910D01*
X3751244Y90759D01*
Y88759D01*
X3748578Y87427D02*
Y84761D01*
X3752577Y80762D02*
X3753243Y81428D01*
Y82761D01*
X3752577Y83428D01*
X3749911D01*
X3749244Y82761D01*
Y81428D01*
X3749911Y80762D01*
X437252Y94992D02*
X437919Y95658D01*
Y96991D01*
X437252Y97657D01*
X434586D01*
X433920Y96991D01*
Y95658D01*
X434586Y94992D01*
X433920Y91659D02*
X437919D01*
X435919Y93659D01*
Y90993D01*
X437252Y89660D02*
X437919Y88994D01*
Y87661D01*
X437252Y86994D01*
X434586D01*
X433920Y87661D01*
Y88994D01*
X434586Y89660D01*
X437252D01*
X433253Y85661D02*
Y82996D01*
X433920Y81663D02*
X436586D01*
X437919Y80330D01*
X436586Y78997D01*
X433920D01*
X435919D01*
Y81663D01*
X1914510Y99830D02*
X1915177Y100496D01*
Y101829D01*
X1914510Y102496D01*
X1911844D01*
X1911178Y101829D01*
Y100496D01*
X1911844Y99830D01*
X1911178Y96498D02*
X1915177D01*
X1913177Y98497D01*
Y95831D01*
X1914510Y94498D02*
X1915177Y93832D01*
Y92499D01*
X1914510Y91833D01*
X1911844D01*
X1911178Y92499D01*
Y93832D01*
X1911844Y94498D01*
X1914510D01*
X1910511Y90500D02*
Y87834D01*
X1915177Y86501D02*
X1911178D01*
Y84501D01*
X1911844Y83835D01*
X1912511D01*
X1913177Y84501D01*
Y86501D01*
Y84501D01*
X1913844Y83835D01*
X1914510D01*
X1915177Y84501D01*
Y86501D01*
X3387926Y93202D02*
X3388593Y93869D01*
Y95202D01*
X3387926Y95868D01*
X3385260D01*
X3384594Y95202D01*
Y93869D01*
X3385260Y93202D01*
X3384594Y89870D02*
X3388593D01*
X3386593Y91869D01*
Y89203D01*
X3387926Y87871D02*
X3388593Y87204D01*
Y85871D01*
X3387926Y85205D01*
X3385260D01*
X3384594Y85871D01*
Y87204D01*
X3385260Y87871D01*
X3387926D01*
X3383927Y83872D02*
Y81206D01*
X3387926Y77207D02*
X3388593Y77874D01*
Y79207D01*
X3387926Y79873D01*
X3385260D01*
X3384594Y79207D01*
Y77874D01*
X3385260Y77207D01*
X798752Y95289D02*
X799419Y95956D01*
Y97289D01*
X798752Y97955D01*
X796086D01*
X795420Y97289D01*
Y95956D01*
X796086Y95289D01*
X795420Y91957D02*
X799419D01*
X797419Y93956D01*
Y91291D01*
X795420Y87292D02*
Y89958D01*
X798086Y87292D01*
X798752D01*
X799419Y87958D01*
Y89291D01*
X798752Y89958D01*
X794753Y85959D02*
Y83293D01*
X795420Y81960D02*
X798086D01*
X799419Y80627D01*
X798086Y79295D01*
X795420D01*
X797419D01*
Y81960D01*
X2275867Y123307D02*
X2276533Y123974D01*
Y125307D01*
X2275867Y125973D01*
X2273201D01*
X2272534Y125307D01*
Y123974D01*
X2273201Y123307D01*
X2272534Y119975D02*
X2276533D01*
X2274534Y121974D01*
Y119309D01*
X2272534Y115310D02*
Y117976D01*
X2275200Y115310D01*
X2275867D01*
X2276533Y115976D01*
Y117309D01*
X2275867Y117976D01*
X2271868Y113977D02*
Y111311D01*
X2276533Y109978D02*
X2272534D01*
Y107979D01*
X2273201Y107312D01*
X2273867D01*
X2274534Y107979D01*
Y109978D01*
Y107979D01*
X2275200Y107312D01*
X2275867D01*
X2276533Y107979D01*
Y109978D01*
X3787273Y93602D02*
X3787940Y94268D01*
Y95601D01*
X3787273Y96268D01*
X3784608D01*
X3783941Y95601D01*
Y94268D01*
X3784608Y93602D01*
X3783941Y90269D02*
X3787940D01*
X3785941Y92269D01*
Y89603D01*
X3783941Y85604D02*
Y88270D01*
X3786607Y85604D01*
X3787273D01*
X3787940Y86271D01*
Y87604D01*
X3787273Y88270D01*
X3783275Y84271D02*
Y81606D01*
X3787273Y77607D02*
X3787940Y78274D01*
Y79606D01*
X3787273Y80273D01*
X3784608D01*
X3783941Y79606D01*
Y78274D01*
X3784608Y77607D01*
X797660Y124340D02*
X798326Y125007D01*
Y126340D01*
X797660Y127006D01*
X794994D01*
X794327Y126340D01*
Y125007D01*
X794994Y124340D01*
X794327Y121008D02*
X798326D01*
X796327Y123007D01*
Y120342D01*
X797660Y119009D02*
X798326Y118342D01*
Y117009D01*
X797660Y116343D01*
X796993D01*
X796327Y117009D01*
Y117676D01*
Y117009D01*
X795660Y116343D01*
X794994D01*
X794327Y117009D01*
Y118342D01*
X794994Y119009D01*
X793661Y115010D02*
Y112344D01*
X794327Y111011D02*
X796993D01*
X798326Y109678D01*
X796993Y108345D01*
X794327D01*
X796327D01*
Y111011D01*
X2275399Y96060D02*
X2276065Y96726D01*
Y98059D01*
X2275399Y98726D01*
X2272733D01*
X2272066Y98059D01*
Y96726D01*
X2272733Y96060D01*
X2272066Y92727D02*
X2276065D01*
X2274066Y94727D01*
Y92061D01*
X2275399Y90728D02*
X2276065Y90062D01*
Y88729D01*
X2275399Y88062D01*
X2274732D01*
X2274066Y88729D01*
Y89395D01*
Y88729D01*
X2273399Y88062D01*
X2272733D01*
X2272066Y88729D01*
Y90062D01*
X2272733Y90728D01*
X2271400Y86729D02*
Y84064D01*
X2276065Y82731D02*
X2272066D01*
Y80731D01*
X2272733Y80065D01*
X2273399D01*
X2274066Y80731D01*
Y82731D01*
Y80731D01*
X2274732Y80065D01*
X2275399D01*
X2276065Y80731D01*
Y82731D01*
X3787827Y124217D02*
X3788494Y124883D01*
Y126216D01*
X3787827Y126883D01*
X3785161D01*
X3784495Y126216D01*
Y124883D01*
X3785161Y124217D01*
X3784495Y120885D02*
X3788494D01*
X3786494Y122884D01*
Y120218D01*
X3787827Y118885D02*
X3788494Y118219D01*
Y116886D01*
X3787827Y116220D01*
X3787161D01*
X3786494Y116886D01*
Y117552D01*
Y116886D01*
X3785828Y116220D01*
X3785161D01*
X3784495Y116886D01*
Y118219D01*
X3785161Y118885D01*
X3783829Y114887D02*
Y112221D01*
X3787827Y108222D02*
X3788494Y108889D01*
Y110222D01*
X3787827Y110888D01*
X3785161D01*
X3784495Y110222D01*
Y108889D01*
X3785161Y108222D01*
X2456600Y92834D02*
X2457267Y93500D01*
Y94833D01*
X2456600Y95499D01*
X2453934D01*
X2453268Y94833D01*
Y93500D01*
X2453934Y92834D01*
X2453268Y89501D02*
X2457267D01*
X2455267Y91501D01*
Y88835D01*
X2457267Y84836D02*
X2456600Y86169D01*
X2455267Y87502D01*
X2453934D01*
X2453268Y86836D01*
Y85503D01*
X2453934Y84836D01*
X2454601D01*
X2455267Y85503D01*
Y87502D01*
X2452601Y83503D02*
Y80838D01*
X2457267Y79505D02*
X2453268D01*
Y77505D01*
X2453934Y76839D01*
X2454601D01*
X2455267Y77505D01*
Y79505D01*
Y77505D01*
X2455934Y76839D01*
X2456600D01*
X2457267Y77505D01*
Y79505D01*
X3931604Y96645D02*
X3932271Y97311D01*
Y98644D01*
X3931604Y99311D01*
X3928938D01*
X3928272Y98644D01*
Y97311D01*
X3928938Y96645D01*
X3928272Y93313D02*
X3932271D01*
X3930271Y95312D01*
Y92646D01*
X3932271Y88647D02*
X3931604Y89980D01*
X3930271Y91313D01*
X3928938D01*
X3928272Y90647D01*
Y89314D01*
X3928938Y88647D01*
X3929605D01*
X3930271Y89314D01*
Y91313D01*
X3927606Y87315D02*
Y84649D01*
X3931604Y80650D02*
X3932271Y81316D01*
Y82649D01*
X3931604Y83316D01*
X3928938D01*
X3928272Y82649D01*
Y81316D01*
X3928938Y80650D01*
X2490426Y125391D02*
X2491093Y126057D01*
Y127390D01*
X2490426Y128057D01*
X2487760D01*
X2487094Y127390D01*
Y126057D01*
X2487760Y125391D01*
X2487094Y122059D02*
X2491093D01*
X2489093Y124058D01*
Y121392D01*
X2487760Y120059D02*
X2487094Y119393D01*
Y118060D01*
X2487760Y117394D01*
X2490426D01*
X2491093Y118060D01*
Y119393D01*
X2490426Y120059D01*
X2489760D01*
X2489093Y119393D01*
Y117394D01*
X2486427Y116061D02*
Y113395D01*
X2491093Y112062D02*
X2487094D01*
Y110063D01*
X2487760Y109396D01*
X2488427D01*
X2489093Y110063D01*
Y112062D01*
Y110063D01*
X2489760Y109396D01*
X2490426D01*
X2491093Y110063D01*
Y112062D01*
X3970762Y126878D02*
X3971429Y127545D01*
Y128877D01*
X3970762Y129544D01*
X3968096D01*
X3967430Y128877D01*
Y127545D01*
X3968096Y126878D01*
X3967430Y123546D02*
X3971429D01*
X3969429Y125545D01*
Y122879D01*
X3968096Y121546D02*
X3967430Y120880D01*
Y119547D01*
X3968096Y118881D01*
X3970762D01*
X3971429Y119547D01*
Y120880D01*
X3970762Y121546D01*
X3970096D01*
X3969429Y120880D01*
Y118881D01*
X3966763Y117548D02*
Y114882D01*
X3970762Y110883D02*
X3971429Y111550D01*
Y112883D01*
X3970762Y113549D01*
X3968096D01*
X3967430Y112883D01*
Y111550D01*
X3968096Y110883D01*
X2490426Y92634D02*
X2491093Y93300D01*
Y94633D01*
X2490426Y95300D01*
X2487760D01*
X2487094Y94633D01*
Y93300D01*
X2487760Y92634D01*
X2491093Y88635D02*
Y91301D01*
X2489093D01*
X2489760Y89968D01*
Y89301D01*
X2489093Y88635D01*
X2487760D01*
X2487094Y89301D01*
Y90634D01*
X2487760Y91301D01*
X2490426Y87302D02*
X2491093Y86636D01*
Y85303D01*
X2490426Y84636D01*
X2487760D01*
X2487094Y85303D01*
Y86636D01*
X2487760Y87302D01*
X2490426D01*
X2486427Y83303D02*
Y80638D01*
X2491093Y79305D02*
X2487094D01*
Y77305D01*
X2487760Y76639D01*
X2488427D01*
X2489093Y77305D01*
Y79305D01*
Y77305D01*
X2489760Y76639D01*
X2490426D01*
X2491093Y77305D01*
Y79305D01*
X3970762Y98465D02*
X3971429Y99132D01*
Y100465D01*
X3970762Y101131D01*
X3968096D01*
X3967430Y100465D01*
Y99132D01*
X3968096Y98465D01*
X3971429Y94467D02*
Y97132D01*
X3969429D01*
X3970096Y95800D01*
Y95133D01*
X3969429Y94467D01*
X3968096D01*
X3967430Y95133D01*
Y96466D01*
X3968096Y97132D01*
X3970762Y93134D02*
X3971429Y92467D01*
Y91134D01*
X3970762Y90468D01*
X3968096D01*
X3967430Y91134D01*
Y92467D01*
X3968096Y93134D01*
X3970762D01*
X3966763Y89135D02*
Y86469D01*
X3970762Y82471D02*
X3971429Y83137D01*
Y84470D01*
X3970762Y85136D01*
X3968096D01*
X3967430Y84470D01*
Y83137D01*
X3968096Y82471D01*
X1125823Y92896D02*
X1126489Y93563D01*
Y94896D01*
X1125823Y95562D01*
X1123157D01*
X1122490Y94896D01*
Y93563D01*
X1123157Y92896D01*
X1126489Y88898D02*
Y91563D01*
X1124490D01*
X1125156Y90231D01*
Y89564D01*
X1124490Y88898D01*
X1123157D01*
X1122490Y89564D01*
Y90897D01*
X1123157Y91563D01*
X1125823Y87565D02*
X1126489Y86898D01*
Y85565D01*
X1125823Y84899D01*
X1125156D01*
X1124490Y85565D01*
Y86232D01*
Y85565D01*
X1123823Y84899D01*
X1123157D01*
X1122490Y85565D01*
Y86898D01*
X1123157Y87565D01*
X1121824Y83566D02*
Y80900D01*
X1122490Y79567D02*
X1125156D01*
X1126489Y78234D01*
X1125156Y76901D01*
X1122490D01*
X1124490D01*
Y79567D01*
X2635716Y95567D02*
X2636383Y96233D01*
Y97566D01*
X2635716Y98232D01*
X2633050D01*
X2632384Y97566D01*
Y96233D01*
X2633050Y95567D01*
X2636383Y91568D02*
Y94234D01*
X2634383D01*
X2635050Y92901D01*
Y92234D01*
X2634383Y91568D01*
X2633050D01*
X2632384Y92234D01*
Y93567D01*
X2633050Y94234D01*
X2635716Y90235D02*
X2636383Y89569D01*
Y88236D01*
X2635716Y87569D01*
X2635050D01*
X2634383Y88236D01*
Y88902D01*
Y88236D01*
X2633717Y87569D01*
X2633050D01*
X2632384Y88236D01*
Y89569D01*
X2633050Y90235D01*
X2631718Y86236D02*
Y83571D01*
X2636383Y82238D02*
X2632384D01*
Y80238D01*
X2633050Y79572D01*
X2633717D01*
X2634383Y80238D01*
Y82238D01*
Y80238D01*
X2635050Y79572D01*
X2635716D01*
X2636383Y80238D01*
Y82238D01*
X4110752Y96867D02*
X4111418Y97534D01*
Y98867D01*
X4110752Y99533D01*
X4108086D01*
X4107419Y98867D01*
Y97534D01*
X4108086Y96867D01*
X4111418Y92868D02*
Y95534D01*
X4109419D01*
X4110085Y94201D01*
Y93535D01*
X4109419Y92868D01*
X4108086D01*
X4107419Y93535D01*
Y94868D01*
X4108086Y95534D01*
X4110752Y91536D02*
X4111418Y90869D01*
Y89536D01*
X4110752Y88870D01*
X4110085D01*
X4109419Y89536D01*
Y90203D01*
Y89536D01*
X4108752Y88870D01*
X4108086D01*
X4107419Y89536D01*
Y90869D01*
X4108086Y91536D01*
X4106753Y87537D02*
Y84871D01*
X4110752Y80872D02*
X4111418Y81539D01*
Y82872D01*
X4110752Y83538D01*
X4108086D01*
X4107419Y82872D01*
Y81539D01*
X4108086Y80872D01*
X1159800Y92896D02*
X1160466Y93563D01*
Y94896D01*
X1159800Y95562D01*
X1157134D01*
X1156467Y94896D01*
Y93563D01*
X1157134Y92896D01*
X1160466Y88898D02*
Y91563D01*
X1158467D01*
X1159133Y90231D01*
Y89564D01*
X1158467Y88898D01*
X1157134D01*
X1156467Y89564D01*
Y90897D01*
X1157134Y91563D01*
X1160466Y84899D02*
X1159800Y86232D01*
X1158467Y87565D01*
X1157134D01*
X1156467Y86898D01*
Y85565D01*
X1157134Y84899D01*
X1157800D01*
X1158467Y85565D01*
Y87565D01*
X1155801Y83566D02*
Y80900D01*
X1156467Y79567D02*
X1159133D01*
X1160466Y78234D01*
X1159133Y76901D01*
X1156467D01*
X1158467D01*
Y79567D01*
X2669909Y126353D02*
X2670575Y127020D01*
Y128353D01*
X2669909Y129019D01*
X2667243D01*
X2666577Y128353D01*
Y127020D01*
X2667243Y126353D01*
X2670575Y122355D02*
Y125020D01*
X2668576D01*
X2669242Y123687D01*
Y123021D01*
X2668576Y122355D01*
X2667243D01*
X2666577Y123021D01*
Y124354D01*
X2667243Y125020D01*
X2670575Y118356D02*
X2669909Y119689D01*
X2668576Y121022D01*
X2667243D01*
X2666577Y120355D01*
Y119022D01*
X2667243Y118356D01*
X2667909D01*
X2668576Y119022D01*
Y121022D01*
X2665910Y117023D02*
Y114357D01*
X2670575Y113024D02*
X2666577D01*
Y111025D01*
X2667243Y110358D01*
X2667909D01*
X2668576Y111025D01*
Y113024D01*
Y111025D01*
X2669242Y110358D01*
X2669909D01*
X2670575Y111025D01*
Y113024D01*
X4145502Y125931D02*
X4146168Y126597D01*
Y127930D01*
X4145502Y128596D01*
X4142836D01*
X4142169Y127930D01*
Y126597D01*
X4142836Y125931D01*
X4146168Y121932D02*
Y124598D01*
X4144169D01*
X4144835Y123265D01*
Y122598D01*
X4144169Y121932D01*
X4142836D01*
X4142169Y122598D01*
Y123931D01*
X4142836Y124598D01*
X4146168Y117933D02*
X4145502Y119266D01*
X4144169Y120599D01*
X4142836D01*
X4142169Y119933D01*
Y118600D01*
X4142836Y117933D01*
X4143502D01*
X4144169Y118600D01*
Y120599D01*
X4141503Y116600D02*
Y113934D01*
X4145502Y109936D02*
X4146168Y110602D01*
Y111935D01*
X4145502Y112602D01*
X4142836D01*
X4142169Y111935D01*
Y110602D01*
X4142836Y109936D01*
X1160225Y121011D02*
X1160892Y121678D01*
Y123010D01*
X1160225Y123677D01*
X1157560D01*
X1156893Y123010D01*
Y121678D01*
X1157560Y121011D01*
X1160892Y117012D02*
Y119678D01*
X1158892D01*
X1159559Y118345D01*
Y117679D01*
X1158892Y117012D01*
X1157560D01*
X1156893Y117679D01*
Y119012D01*
X1157560Y119678D01*
X1160892Y115680D02*
Y113014D01*
X1160225D01*
X1157560Y115680D01*
X1156893D01*
X1156227Y111681D02*
Y109015D01*
X1156893Y107682D02*
X1159559D01*
X1160892Y106349D01*
X1159559Y105016D01*
X1156893D01*
X1158892D01*
Y107682D01*
X2670210Y95567D02*
X2670877Y96233D01*
Y97566D01*
X2670210Y98232D01*
X2667544D01*
X2666878Y97566D01*
Y96233D01*
X2667544Y95567D01*
X2670877Y91568D02*
Y94234D01*
X2668877D01*
X2669544Y92901D01*
Y92234D01*
X2668877Y91568D01*
X2667544D01*
X2666878Y92234D01*
Y93567D01*
X2667544Y94234D01*
X2670877Y90235D02*
Y87569D01*
X2670210D01*
X2667544Y90235D01*
X2666878D01*
X2666212Y86236D02*
Y83571D01*
X2670877Y82238D02*
X2666878D01*
Y80238D01*
X2667544Y79572D01*
X2668211D01*
X2668877Y80238D01*
Y82238D01*
Y80238D01*
X2669544Y79572D01*
X2670210D01*
X2670877Y80238D01*
Y82238D01*
X4145502Y96282D02*
X4146168Y96949D01*
Y98282D01*
X4145502Y98948D01*
X4142836D01*
X4142169Y98282D01*
Y96949D01*
X4142836Y96282D01*
X4146168Y92283D02*
Y94949D01*
X4144169D01*
X4144835Y93616D01*
Y92950D01*
X4144169Y92283D01*
X4142836D01*
X4142169Y92950D01*
Y94283D01*
X4142836Y94949D01*
X4146168Y90951D02*
Y88285D01*
X4145502D01*
X4142836Y90951D01*
X4142169D01*
X4141503Y86952D02*
Y84286D01*
X4145502Y80287D02*
X4146168Y80954D01*
Y82287D01*
X4145502Y82953D01*
X4142836D01*
X4142169Y82287D01*
Y80954D01*
X4142836Y80287D01*
X1339831Y94433D02*
X1340497Y95099D01*
Y96432D01*
X1339831Y97099D01*
X1337165D01*
X1336499Y96432D01*
Y95099D01*
X1337165Y94433D01*
X1340497Y90434D02*
X1339831Y91767D01*
X1338498Y93100D01*
X1337165D01*
X1336499Y92433D01*
Y91100D01*
X1337165Y90434D01*
X1337832D01*
X1338498Y91100D01*
Y93100D01*
X1339831Y89101D02*
X1340497Y88435D01*
Y87102D01*
X1339831Y86435D01*
X1337165D01*
X1336499Y87102D01*
Y88435D01*
X1337165Y89101D01*
X1339831D01*
X1335832Y85102D02*
Y82437D01*
X1336499Y81104D02*
X1339165D01*
X1340497Y79771D01*
X1339165Y78438D01*
X1336499D01*
X1338498D01*
Y81104D01*
X2815467Y92049D02*
X2816134Y92716D01*
Y94049D01*
X2815467Y94715D01*
X2812802D01*
X2812135Y94049D01*
Y92716D01*
X2812802Y92049D01*
X2816134Y88050D02*
X2815467Y89383D01*
X2814135Y90716D01*
X2812802D01*
X2812135Y90050D01*
Y88717D01*
X2812802Y88050D01*
X2813468D01*
X2814135Y88717D01*
Y90716D01*
X2815467Y86718D02*
X2816134Y86051D01*
Y84718D01*
X2815467Y84052D01*
X2812802D01*
X2812135Y84718D01*
Y86051D01*
X2812802Y86718D01*
X2815467D01*
X2811469Y82719D02*
Y80053D01*
X2816134Y78720D02*
X2812135D01*
Y76721D01*
X2812802Y76054D01*
X2813468D01*
X2814135Y76721D01*
Y78720D01*
Y76721D01*
X2814801Y76054D01*
X2815467D01*
X2816134Y76721D01*
Y78720D01*
X4291306Y96358D02*
X4291972Y97025D01*
Y98358D01*
X4291306Y99024D01*
X4288640D01*
X4287973Y98358D01*
Y97025D01*
X4288640Y96358D01*
X4291972Y92360D02*
X4291306Y93692D01*
X4289973Y95025D01*
X4288640D01*
X4287973Y94359D01*
Y93026D01*
X4288640Y92360D01*
X4289306D01*
X4289973Y93026D01*
Y95025D01*
X4291306Y91027D02*
X4291972Y90360D01*
Y89027D01*
X4291306Y88361D01*
X4288640D01*
X4287973Y89027D01*
Y90360D01*
X4288640Y91027D01*
X4291306D01*
X4287307Y87028D02*
Y84362D01*
X4291306Y80363D02*
X4291972Y81030D01*
Y82363D01*
X4291306Y83029D01*
X4288640D01*
X4287973Y82363D01*
Y81030D01*
X4288640Y80363D01*
X1371804Y126831D02*
X1372470Y127498D01*
Y128831D01*
X1371804Y129497D01*
X1369138D01*
X1368472Y128831D01*
Y127498D01*
X1369138Y126831D01*
X1372470Y122832D02*
X1371804Y124165D01*
X1370471Y125498D01*
X1369138D01*
X1368472Y124832D01*
Y123499D01*
X1369138Y122832D01*
X1369805D01*
X1370471Y123499D01*
Y125498D01*
X1371804Y121500D02*
X1372470Y120833D01*
Y119500D01*
X1371804Y118834D01*
X1371138D01*
X1370471Y119500D01*
Y120167D01*
Y119500D01*
X1369805Y118834D01*
X1369138D01*
X1368472Y119500D01*
Y120833D01*
X1369138Y121500D01*
X1367805Y117501D02*
Y114835D01*
X1368472Y113502D02*
X1371138D01*
X1372470Y112169D01*
X1371138Y110836D01*
X1368472D01*
X1370471D01*
Y113502D01*
X2847884Y98578D02*
X2848550Y99244D01*
Y100577D01*
X2847884Y101244D01*
X2845218D01*
X2844551Y100577D01*
Y99244D01*
X2845218Y98578D01*
X2848550Y94579D02*
X2847884Y95912D01*
X2846551Y97245D01*
X2845218D01*
X2844551Y96579D01*
Y95246D01*
X2845218Y94579D01*
X2845884D01*
X2846551Y95246D01*
Y97245D01*
X2847884Y93246D02*
X2848550Y92580D01*
Y91247D01*
X2847884Y90581D01*
X2847217D01*
X2846551Y91247D01*
Y91914D01*
Y91247D01*
X2845884Y90581D01*
X2845218D01*
X2844551Y91247D01*
Y92580D01*
X2845218Y93246D01*
X2843885Y89248D02*
Y86582D01*
X2848550Y85249D02*
X2844551D01*
Y83250D01*
X2845218Y82583D01*
X2845884D01*
X2846551Y83250D01*
Y85249D01*
Y83250D01*
X2847217Y82583D01*
X2847884D01*
X2848550Y83250D01*
Y85249D01*
X4323771Y128160D02*
X4324438Y128827D01*
Y130160D01*
X4323771Y130826D01*
X4321106D01*
X4320439Y130160D01*
Y128827D01*
X4321106Y128160D01*
X4324438Y124162D02*
X4323771Y125494D01*
X4322438Y126827D01*
X4321106D01*
X4320439Y126161D01*
Y124828D01*
X4321106Y124162D01*
X4321772D01*
X4322438Y124828D01*
Y126827D01*
X4323771Y122829D02*
X4324438Y122162D01*
Y120829D01*
X4323771Y120163D01*
X4323105D01*
X4322438Y120829D01*
Y121496D01*
Y120829D01*
X4321772Y120163D01*
X4321106D01*
X4320439Y120829D01*
Y122162D01*
X4321106Y122829D01*
X4319773Y118830D02*
Y116164D01*
X4323771Y112165D02*
X4324438Y112832D01*
Y114165D01*
X4323771Y114831D01*
X4321106D01*
X4320439Y114165D01*
Y112832D01*
X4321106Y112165D01*
X1372655Y92996D02*
X1373322Y93663D01*
Y94996D01*
X1372655Y95662D01*
X1369990D01*
X1369323Y94996D01*
Y93663D01*
X1369990Y92996D01*
X1373322Y88998D02*
X1372655Y90330D01*
X1371322Y91663D01*
X1369990D01*
X1369323Y90997D01*
Y89664D01*
X1369990Y88998D01*
X1370656D01*
X1371322Y89664D01*
Y91663D01*
X1369323Y85665D02*
X1373322D01*
X1371322Y87665D01*
Y84999D01*
X1368657Y83666D02*
Y81000D01*
X1369323Y79667D02*
X1371989D01*
X1373322Y78334D01*
X1371989Y77002D01*
X1369323D01*
X1371322D01*
Y79667D01*
X2848023Y124479D02*
X2848690Y125146D01*
Y126479D01*
X2848023Y127145D01*
X2845358D01*
X2844691Y126479D01*
Y125146D01*
X2845358Y124479D01*
X2848690Y120481D02*
X2848023Y121813D01*
X2846691Y123146D01*
X2845358D01*
X2844691Y122480D01*
Y121147D01*
X2845358Y120481D01*
X2846024D01*
X2846691Y121147D01*
Y123146D01*
X2844691Y117148D02*
X2848690D01*
X2846691Y119148D01*
Y116482D01*
X2844025Y115149D02*
Y112483D01*
X2848690Y111150D02*
X2844691D01*
Y109151D01*
X2845358Y108484D01*
X2846024D01*
X2846691Y109151D01*
Y111150D01*
Y109151D01*
X2847357Y108484D01*
X2848023D01*
X2848690Y109151D01*
Y111150D01*
X4324152Y95774D02*
X4324818Y96441D01*
Y97774D01*
X4324152Y98440D01*
X4321486D01*
X4320819Y97774D01*
Y96441D01*
X4321486Y95774D01*
X4324818Y91776D02*
X4324152Y93108D01*
X4322819Y94441D01*
X4321486D01*
X4320819Y93775D01*
Y92442D01*
X4321486Y91776D01*
X4322152D01*
X4322819Y92442D01*
Y94441D01*
X4320819Y88443D02*
X4324818D01*
X4322819Y90443D01*
Y87777D01*
X4320153Y86444D02*
Y83778D01*
X4324152Y79779D02*
X4324818Y80446D01*
Y81779D01*
X4324152Y82445D01*
X4321486D01*
X4320819Y81779D01*
Y80446D01*
X4321486Y79779D01*
X1519752Y96336D02*
X1520419Y97002D01*
Y98335D01*
X1519752Y99002D01*
X1517086D01*
X1516420Y98335D01*
Y97002D01*
X1517086Y96336D01*
X1520419Y92337D02*
X1519752Y93670D01*
X1518419Y95003D01*
X1517086D01*
X1516420Y94337D01*
Y93004D01*
X1517086Y92337D01*
X1517753D01*
X1518419Y93004D01*
Y95003D01*
X1520419Y91004D02*
Y88338D01*
X1519752D01*
X1517086Y91004D01*
X1516420D01*
X1515753Y87006D02*
Y84340D01*
X1516420Y83007D02*
X1519086D01*
X1520419Y81674D01*
X1519086Y80341D01*
X1516420D01*
X1518419D01*
Y83007D01*
X2995471Y93160D02*
X2996137Y93827D01*
Y95159D01*
X2995471Y95826D01*
X2992805D01*
X2992138Y95159D01*
Y93827D01*
X2992805Y93160D01*
X2996137Y89161D02*
X2995471Y90494D01*
X2994138Y91827D01*
X2992805D01*
X2992138Y91161D01*
Y89828D01*
X2992805Y89161D01*
X2993471D01*
X2994138Y89828D01*
Y91827D01*
X2996137Y87829D02*
Y85163D01*
X2995471D01*
X2992805Y87829D01*
X2992138D01*
X2991472Y83830D02*
Y81164D01*
X2996137Y79831D02*
X2992138D01*
Y77832D01*
X2992805Y77165D01*
X2993471D01*
X2994138Y77832D01*
Y79831D01*
Y77832D01*
X2994804Y77165D01*
X2995471D01*
X2996137Y77832D01*
Y79831D01*
X4472393Y96316D02*
X4473060Y96982D01*
Y98315D01*
X4472393Y98982D01*
X4469728D01*
X4469061Y98315D01*
Y96982D01*
X4469728Y96316D01*
X4473060Y92317D02*
X4472393Y93650D01*
X4471060Y94983D01*
X4469728D01*
X4469061Y94317D01*
Y92984D01*
X4469728Y92317D01*
X4470394D01*
X4471060Y92984D01*
Y94983D01*
X4473060Y90984D02*
Y88319D01*
X4472393D01*
X4469728Y90984D01*
X4469061D01*
X4468395Y86986D02*
Y84320D01*
X4472393Y80321D02*
X4473060Y80988D01*
Y82321D01*
X4472393Y82987D01*
X4469728D01*
X4469061Y82321D01*
Y80988D01*
X4469728Y80321D01*
X1553521Y92281D02*
X1554187Y92947D01*
Y94280D01*
X1553521Y94946D01*
X1550855D01*
X1550188Y94280D01*
Y92947D01*
X1550855Y92281D01*
X1554187Y90948D02*
Y88282D01*
X1553521D01*
X1550855Y90948D01*
X1550188D01*
X1553521Y86949D02*
X1554187Y86283D01*
Y84950D01*
X1553521Y84283D01*
X1550855D01*
X1550188Y84950D01*
Y86283D01*
X1550855Y86949D01*
X1553521D01*
X1549522Y82950D02*
Y80285D01*
X1550188Y78952D02*
X1552854D01*
X1554187Y77619D01*
X1552854Y76286D01*
X1550188D01*
X1552188D01*
Y78952D01*
X3031733Y93910D02*
X3032400Y94577D01*
Y95910D01*
X3031733Y96576D01*
X3029068D01*
X3028401Y95910D01*
Y94577D01*
X3029068Y93910D01*
X3032400Y92577D02*
Y89911D01*
X3031733D01*
X3029068Y92577D01*
X3028401D01*
X3031733Y88579D02*
X3032400Y87912D01*
Y86579D01*
X3031733Y85913D01*
X3029068D01*
X3028401Y86579D01*
Y87912D01*
X3029068Y88579D01*
X3031733D01*
X3027735Y84580D02*
Y81914D01*
X3032400Y80581D02*
X3028401D01*
Y78582D01*
X3029068Y77915D01*
X3029734D01*
X3030401Y78582D01*
Y80581D01*
Y78582D01*
X3031067Y77915D01*
X3031733D01*
X3032400Y78582D01*
Y80581D01*
X4508976Y96806D02*
X4509643Y97472D01*
Y98805D01*
X4508976Y99472D01*
X4506311D01*
X4505644Y98805D01*
Y97472D01*
X4506311Y96806D01*
X4509643Y95473D02*
Y92807D01*
X4508976D01*
X4506311Y95473D01*
X4505644D01*
X4508976Y91474D02*
X4509643Y90808D01*
Y89475D01*
X4508976Y88808D01*
X4506311D01*
X4505644Y89475D01*
Y90808D01*
X4506311Y91474D01*
X4508976D01*
X4504978Y87476D02*
Y84810D01*
X4508976Y80811D02*
X4509643Y81477D01*
Y82810D01*
X4508976Y83477D01*
X4506311D01*
X4505644Y82810D01*
Y81477D01*
X4506311Y80811D01*
X1553711Y126469D02*
X1554377Y127136D01*
Y128469D01*
X1553711Y129135D01*
X1551045D01*
X1550379Y128469D01*
Y127136D01*
X1551045Y126469D01*
X1554377Y125136D02*
Y122471D01*
X1553711D01*
X1551045Y125136D01*
X1550379D01*
Y121138D02*
Y119805D01*
Y120471D01*
X1554377D01*
X1553711Y121138D01*
X1549712Y117806D02*
Y115140D01*
X1550379Y113807D02*
X1553044D01*
X1554377Y112474D01*
X1553044Y111141D01*
X1550379D01*
X1552378D01*
Y113807D01*
X3031432Y125855D02*
X3032099Y126522D01*
Y127855D01*
X3031432Y128521D01*
X3028766D01*
X3028100Y127855D01*
Y126522D01*
X3028766Y125855D01*
X3032099Y124522D02*
Y121857D01*
X3031432D01*
X3028766Y124522D01*
X3028100D01*
Y120524D02*
Y119191D01*
Y119857D01*
X3032099D01*
X3031432Y120524D01*
X3027433Y117192D02*
Y114526D01*
X3032099Y113193D02*
X3028100D01*
Y111194D01*
X3028766Y110527D01*
X3029433D01*
X3030099Y111194D01*
Y113193D01*
Y111194D01*
X3030766Y110527D01*
X3031432D01*
X3032099Y111194D01*
Y113193D01*
X4508847Y124979D02*
X4509514Y125646D01*
Y126979D01*
X4508847Y127645D01*
X4506181D01*
X4505515Y126979D01*
Y125646D01*
X4506181Y124979D01*
X4509514Y123646D02*
Y120981D01*
X4508847D01*
X4506181Y123646D01*
X4505515D01*
Y119648D02*
Y118315D01*
Y118981D01*
X4509514D01*
X4508847Y119648D01*
X4504849Y116315D02*
Y113650D01*
X4508847Y109651D02*
X4509514Y110317D01*
Y111650D01*
X4508847Y112317D01*
X4506181D01*
X4505515Y111650D01*
Y110317D01*
X4506181Y109651D01*
X2840293Y52761D02*
X2837627D01*
Y50762D01*
X2838960D01*
X2837627D01*
Y48762D01*
X2841625Y52761D02*
Y48762D01*
X2843625D01*
X2844291Y49429D01*
Y50095D01*
X2843625Y50762D01*
X2841625D01*
X2843625D01*
X2844291Y51428D01*
Y52094D01*
X2843625Y52761D01*
X2841625D01*
X2845624Y48762D02*
X2846957D01*
X2846291D01*
Y52761D01*
X2845624Y52094D01*
X2822662Y38543D02*
Y34544D01*
X2825328D01*
X2826661D02*
X2827994D01*
X2827328D01*
Y38543D01*
X2826661Y37876D01*
X2768161Y28047D02*
Y24049D01*
X2770827D01*
X2774826D02*
X2772160D01*
X2774826Y26715D01*
Y27381D01*
X2774159Y28047D01*
X2772827D01*
X2772160Y27381D01*
X1675990Y10959D02*
Y6960D01*
X1678656D01*
X1682654Y10959D02*
X1679989D01*
Y6960D01*
X1682654D01*
X1679989Y8959D02*
X1681321D01*
X1683987Y10959D02*
Y6960D01*
X1685986D01*
X1686653Y7627D01*
Y10292D01*
X1685986Y10959D01*
X1683987D01*
X1687986Y6960D02*
X1689319D01*
X1688652D01*
Y10959D01*
X1687986Y10292D01*
X1691318Y6294D02*
X1693984D01*
X1695317Y10959D02*
Y6960D01*
X1697316D01*
X1697983Y7627D01*
Y8293D01*
X1697316Y8959D01*
X1695317D01*
X1697316D01*
X1697983Y9626D01*
Y10292D01*
X1697316Y10959D01*
X1695317D01*
X3152265Y11099D02*
Y7100D01*
X3154931D01*
X3158930Y11099D02*
X3156264D01*
Y7100D01*
X3158930D01*
X3156264Y9099D02*
X3157597D01*
X3160262Y11099D02*
Y7100D01*
X3162262D01*
X3162928Y7766D01*
Y10432D01*
X3162262Y11099D01*
X3160262D01*
X3164261Y7100D02*
X3165594D01*
X3164928D01*
Y11099D01*
X3164261Y10432D01*
X3167593Y6434D02*
X3170259D01*
X3174258Y10432D02*
X3173592Y11099D01*
X3172259D01*
X3171592Y10432D01*
Y7766D01*
X3172259Y7100D01*
X3173592D01*
X3174258Y7766D01*
X387213Y11328D02*
Y7329D01*
X389878D01*
X393877Y11328D02*
X391211D01*
Y7329D01*
X393877D01*
X391211Y9329D02*
X392544D01*
X395210Y11328D02*
Y7329D01*
X397209D01*
X397876Y7996D01*
Y10662D01*
X397209Y11328D01*
X395210D01*
X401875Y7329D02*
X399209D01*
X401875Y9995D01*
Y10662D01*
X401208Y11328D01*
X399875D01*
X399209Y10662D01*
X403207Y6663D02*
X405873D01*
X407206Y7329D02*
Y9995D01*
X408539Y11328D01*
X409872Y9995D01*
Y7329D01*
Y9329D01*
X407206D01*
X1854366Y11799D02*
Y7800D01*
X1857032D01*
X1861030Y11799D02*
X1858365D01*
Y7800D01*
X1861030D01*
X1858365Y9799D02*
X1859698D01*
X1862363Y11799D02*
Y7800D01*
X1864363D01*
X1865029Y8467D01*
Y11132D01*
X1864363Y11799D01*
X1862363D01*
X1869028Y7800D02*
X1866362D01*
X1869028Y10466D01*
Y11132D01*
X1868361Y11799D01*
X1867029D01*
X1866362Y11132D01*
X1870361Y7134D02*
X1873027D01*
X1874359Y11799D02*
Y7800D01*
X1876359D01*
X1877025Y8467D01*
Y9133D01*
X1876359Y9799D01*
X1874359D01*
X1876359D01*
X1877025Y10466D01*
Y11132D01*
X1876359Y11799D01*
X1874359D01*
X3330010Y10959D02*
Y6960D01*
X3332676D01*
X3336674Y10959D02*
X3334009D01*
Y6960D01*
X3336674D01*
X3334009Y8959D02*
X3335342D01*
X3338008Y10959D02*
Y6960D01*
X3340007D01*
X3340673Y7627D01*
Y10292D01*
X3340007Y10959D01*
X3338008D01*
X3344672Y6960D02*
X3342006D01*
X3344672Y9626D01*
Y10292D01*
X3344006Y10959D01*
X3342673D01*
X3342006Y10292D01*
X3346005Y6294D02*
X3348671D01*
X3352669Y10292D02*
X3352003Y10959D01*
X3350670D01*
X3350004Y10292D01*
Y7627D01*
X3350670Y6960D01*
X3352003D01*
X3352669Y7627D01*
X564210Y11822D02*
Y7823D01*
X566875D01*
X570874Y11822D02*
X568208D01*
Y7823D01*
X570874D01*
X568208Y9823D02*
X569541D01*
X572207Y11822D02*
Y7823D01*
X574207D01*
X574873Y8490D01*
Y11156D01*
X574207Y11822D01*
X572207D01*
X576206Y11156D02*
X576872Y11822D01*
X578205D01*
X578872Y11156D01*
Y10489D01*
X578205Y9823D01*
X577539D01*
X578205D01*
X578872Y9156D01*
Y8490D01*
X578205Y7823D01*
X576872D01*
X576206Y8490D01*
X580205Y7157D02*
X582870D01*
X584203Y7823D02*
Y10489D01*
X585536Y11822D01*
X586869Y10489D01*
Y7823D01*
Y9823D01*
X584203D01*
X3544008Y10959D02*
Y6960D01*
X3546674D01*
X3550673Y10959D02*
X3548007D01*
Y6960D01*
X3550673D01*
X3548007Y8959D02*
X3549340D01*
X3552006Y10959D02*
Y6960D01*
X3554005D01*
X3554672Y7627D01*
Y10292D01*
X3554005Y10959D01*
X3552006D01*
X3556005Y10292D02*
X3556671Y10959D01*
X3558004D01*
X3558670Y10292D01*
Y9626D01*
X3558004Y8959D01*
X3557337D01*
X3558004D01*
X3558670Y8293D01*
Y7627D01*
X3558004Y6960D01*
X3556671D01*
X3556005Y7627D01*
X3560003Y6294D02*
X3562669D01*
X3566668Y10292D02*
X3566001Y10959D01*
X3564668D01*
X3564002Y10292D01*
Y7627D01*
X3564668Y6960D01*
X3566001D01*
X3566668Y7627D01*
X743336Y10194D02*
Y6195D01*
X746002D01*
X750000Y10194D02*
X747335D01*
Y6195D01*
X750000D01*
X747335Y8195D02*
X748667D01*
X751333Y10194D02*
Y6195D01*
X753333D01*
X753999Y6862D01*
Y9528D01*
X753333Y10194D01*
X751333D01*
X757331Y6195D02*
Y10194D01*
X755332Y8195D01*
X757998D01*
X759331Y5529D02*
X761996D01*
X763329Y6195D02*
Y8861D01*
X764662Y10194D01*
X765995Y8861D01*
Y6195D01*
Y8195D01*
X763329D01*
X2215219Y12775D02*
Y8776D01*
X2217884D01*
X2221883Y12775D02*
X2219217D01*
Y8776D01*
X2221883D01*
X2219217Y10775D02*
X2220550D01*
X2223216Y12775D02*
Y8776D01*
X2225215D01*
X2225882Y9442D01*
Y12108D01*
X2225215Y12775D01*
X2223216D01*
X2229214Y8776D02*
Y12775D01*
X2227215Y10775D01*
X2229881D01*
X2231213Y8110D02*
X2233879D01*
X2235212Y12775D02*
Y8776D01*
X2237211D01*
X2237878Y9442D01*
Y10109D01*
X2237211Y10775D01*
X2235212D01*
X2237211D01*
X2237878Y11442D01*
Y12108D01*
X2237211Y12775D01*
X2235212D01*
X3723238Y10774D02*
Y6776D01*
X3725904D01*
X3729902Y10774D02*
X3727237D01*
Y6776D01*
X3729902D01*
X3727237Y8775D02*
X3728570D01*
X3731235Y10774D02*
Y6776D01*
X3733235D01*
X3733901Y7442D01*
Y10108D01*
X3733235Y10774D01*
X3731235D01*
X3737233Y6776D02*
Y10774D01*
X3735234Y8775D01*
X3737900D01*
X3739233Y6109D02*
X3741898D01*
X3745897Y10108D02*
X3745231Y10774D01*
X3743898D01*
X3743232Y10108D01*
Y7442D01*
X3743898Y6776D01*
X3745231D01*
X3745897Y7442D01*
X926245Y9922D02*
Y5924D01*
X928911D01*
X932909Y9922D02*
X930243D01*
Y5924D01*
X932909D01*
X930243Y7923D02*
X931576D01*
X934242Y9922D02*
Y5924D01*
X936241D01*
X936908Y6590D01*
Y9256D01*
X936241Y9922D01*
X934242D01*
X940907D02*
X938241D01*
Y7923D01*
X939574Y8589D01*
X940240D01*
X940907Y7923D01*
Y6590D01*
X940240Y5924D01*
X938907D01*
X938241Y6590D01*
X942239Y5257D02*
X944905D01*
X946238Y5924D02*
Y8589D01*
X947571Y9922D01*
X948904Y8589D01*
Y5924D01*
Y7923D01*
X946238D01*
X2430969Y12389D02*
Y8390D01*
X2433635D01*
X2437633Y12389D02*
X2434967D01*
Y8390D01*
X2437633D01*
X2434967Y10389D02*
X2436300D01*
X2438966Y12389D02*
Y8390D01*
X2440966D01*
X2441632Y9057D01*
Y11722D01*
X2440966Y12389D01*
X2438966D01*
X2445631D02*
X2442965D01*
Y10389D01*
X2444298Y11056D01*
X2444964D01*
X2445631Y10389D01*
Y9057D01*
X2444964Y8390D01*
X2443631D01*
X2442965Y9057D01*
X2446964Y7724D02*
X2449629D01*
X2450962Y12389D02*
Y8390D01*
X2452962D01*
X2453628Y9057D01*
Y9723D01*
X2452962Y10389D01*
X2450962D01*
X2452962D01*
X2453628Y11056D01*
Y11722D01*
X2452962Y12389D01*
X2450962D01*
X3906304Y12889D02*
Y8890D01*
X3908970D01*
X3912968Y12889D02*
X3910302D01*
Y8890D01*
X3912968D01*
X3910302Y10889D02*
X3911635D01*
X3914301Y12889D02*
Y8890D01*
X3916300D01*
X3916967Y9556D01*
Y12222D01*
X3916300Y12889D01*
X3914301D01*
X3920966D02*
X3918300D01*
Y10889D01*
X3919633Y11556D01*
X3920299D01*
X3920966Y10889D01*
Y9556D01*
X3920299Y8890D01*
X3918966D01*
X3918300Y9556D01*
X3922299Y8224D02*
X3924964D01*
X3928963Y12222D02*
X3928297Y12889D01*
X3926964D01*
X3926297Y12222D01*
Y9556D01*
X3926964Y8890D01*
X3928297D01*
X3928963Y9556D01*
X1104222Y10194D02*
Y6195D01*
X1106888D01*
X1110887Y10194D02*
X1108221D01*
Y6195D01*
X1110887D01*
X1108221Y8195D02*
X1109554D01*
X1112220Y10194D02*
Y6195D01*
X1114219D01*
X1114885Y6862D01*
Y9528D01*
X1114219Y10194D01*
X1112220D01*
X1118884D02*
X1117551Y9528D01*
X1116218Y8195D01*
Y6862D01*
X1116885Y6195D01*
X1118218D01*
X1118884Y6862D01*
Y7528D01*
X1118218Y8195D01*
X1116218D01*
X1120217Y5529D02*
X1122883D01*
X1124216Y6195D02*
Y8861D01*
X1125548Y10194D01*
X1126881Y8861D01*
Y6195D01*
Y8195D01*
X1124216D01*
X2611384Y12389D02*
Y8390D01*
X2614050D01*
X2618049Y12389D02*
X2615383D01*
Y8390D01*
X2618049D01*
X2615383Y10389D02*
X2616716D01*
X2619382Y12389D02*
Y8390D01*
X2621381D01*
X2622048Y9056D01*
Y11722D01*
X2621381Y12389D01*
X2619382D01*
X2626046D02*
X2624713Y11722D01*
X2623380Y10389D01*
Y9056D01*
X2624047Y8390D01*
X2625380D01*
X2626046Y9056D01*
Y9723D01*
X2625380Y10389D01*
X2623380D01*
X2627379Y7724D02*
X2630045D01*
X2631378Y12389D02*
Y8390D01*
X2633377D01*
X2634044Y9056D01*
Y9723D01*
X2633377Y10389D01*
X2631378D01*
X2633377D01*
X2634044Y11056D01*
Y11722D01*
X2633377Y12389D01*
X2631378D01*
X4084104Y10172D02*
Y6173D01*
X4086770D01*
X4090769Y10172D02*
X4088103D01*
Y6173D01*
X4090769D01*
X4088103Y8172D02*
X4089436D01*
X4092102Y10172D02*
Y6173D01*
X4094101D01*
X4094767Y6840D01*
Y9505D01*
X4094101Y10172D01*
X4092102D01*
X4098766D02*
X4097433Y9505D01*
X4096100Y8172D01*
Y6840D01*
X4096767Y6173D01*
X4098100D01*
X4098766Y6840D01*
Y7506D01*
X4098100Y8172D01*
X4096100D01*
X4100099Y5507D02*
X4102765D01*
X4106764Y9505D02*
X4106097Y10172D01*
X4104764D01*
X4104098Y9505D01*
Y6840D01*
X4104764Y6173D01*
X4106097D01*
X4106764Y6840D01*
X1315793Y10959D02*
Y6960D01*
X1318459D01*
X1322458Y10959D02*
X1319792D01*
Y6960D01*
X1322458D01*
X1319792Y8959D02*
X1321125D01*
X1323790Y10959D02*
Y6960D01*
X1325790D01*
X1326456Y7627D01*
Y10292D01*
X1325790Y10959D01*
X1323790D01*
X1327789D02*
X1330455D01*
Y10292D01*
X1327789Y7627D01*
Y6960D01*
X1331788Y6294D02*
X1334454D01*
X1335787Y6960D02*
Y9626D01*
X1337119Y10959D01*
X1338452Y9626D01*
Y6960D01*
Y8959D01*
X1335787D01*
X2792317Y11203D02*
Y7204D01*
X2794983D01*
X2798981Y11203D02*
X2796316D01*
Y7204D01*
X2798981D01*
X2796316Y9204D02*
X2797649D01*
X2800314Y11203D02*
Y7204D01*
X2802314D01*
X2802980Y7871D01*
Y10537D01*
X2802314Y11203D01*
X2800314D01*
X2804313D02*
X2806979D01*
Y10537D01*
X2804313Y7871D01*
Y7204D01*
X2808312Y6538D02*
X2810977D01*
X2812310Y11203D02*
Y7204D01*
X2814310D01*
X2814976Y7871D01*
Y8537D01*
X2814310Y9204D01*
X2812310D01*
X2814310D01*
X2814976Y9870D01*
Y10537D01*
X2814310Y11203D01*
X2812310D01*
X4266255Y13052D02*
Y9054D01*
X4268921D01*
X4272920Y13052D02*
X4270254D01*
Y9054D01*
X4272920D01*
X4270254Y11053D02*
X4271587D01*
X4274252Y13052D02*
Y9054D01*
X4276252D01*
X4276918Y9720D01*
Y12386D01*
X4276252Y13052D01*
X4274252D01*
X4278251D02*
X4280917D01*
Y12386D01*
X4278251Y9720D01*
Y9054D01*
X4282250Y8387D02*
X4284915D01*
X4288914Y12386D02*
X4288248Y13052D01*
X4286915D01*
X4286248Y12386D01*
Y9720D01*
X4286915Y9054D01*
X4288248D01*
X4288914Y9720D01*
X1495314Y10959D02*
Y6960D01*
X1497980D01*
X1501979Y10959D02*
X1499313D01*
Y6960D01*
X1501979D01*
X1499313Y8959D02*
X1500646D01*
X1503312Y10959D02*
Y6960D01*
X1505311D01*
X1505978Y7627D01*
Y10292D01*
X1505311Y10959D01*
X1503312D01*
X1507310Y10292D02*
X1507977Y10959D01*
X1509310D01*
X1509976Y10292D01*
Y9626D01*
X1509310Y8959D01*
X1509976Y8293D01*
Y7627D01*
X1509310Y6960D01*
X1507977D01*
X1507310Y7627D01*
Y8293D01*
X1507977Y8959D01*
X1507310Y9626D01*
Y10292D01*
X1507977Y8959D02*
X1509310D01*
X1511309Y6294D02*
X1513975D01*
X1515308Y6960D02*
Y9626D01*
X1516641Y10959D01*
X1517974Y9626D01*
Y6960D01*
Y8959D01*
X1515308D01*
X2970920Y12389D02*
Y8390D01*
X2973586D01*
X2977585Y12389D02*
X2974919D01*
Y8390D01*
X2977585D01*
X2974919Y10389D02*
X2976252D01*
X2978918Y12389D02*
Y8390D01*
X2980917D01*
X2981584Y9056D01*
Y11722D01*
X2980917Y12389D01*
X2978918D01*
X2982917Y11722D02*
X2983583Y12389D01*
X2984916D01*
X2985582Y11722D01*
Y11056D01*
X2984916Y10389D01*
X2985582Y9723D01*
Y9056D01*
X2984916Y8390D01*
X2983583D01*
X2982917Y9056D01*
Y9723D01*
X2983583Y10389D01*
X2982917Y11056D01*
Y11722D01*
X2983583Y10389D02*
X2984916D01*
X2986915Y7724D02*
X2989581D01*
X2990914Y12389D02*
Y8390D01*
X2992914D01*
X2993580Y9056D01*
Y9723D01*
X2992914Y10389D01*
X2990914D01*
X2992914D01*
X2993580Y11056D01*
Y11722D01*
X2992914Y12389D01*
X2990914D01*
X4416331Y29563D02*
Y25564D01*
X4418997D01*
X4422995Y29563D02*
X4420330D01*
Y25564D01*
X4422995D01*
X4420330Y27563D02*
X4421662D01*
X4424328Y29563D02*
Y25564D01*
X4426328D01*
X4426994Y26230D01*
Y28896D01*
X4426328Y29563D01*
X4424328D01*
X4428327Y28896D02*
X4428993Y29563D01*
X4430326D01*
X4430993Y28896D01*
Y28230D01*
X4430326Y27563D01*
X4430993Y26897D01*
Y26230D01*
X4430326Y25564D01*
X4428993D01*
X4428327Y26230D01*
Y26897D01*
X4428993Y27563D01*
X4428327Y28230D01*
Y28896D01*
X4428993Y27563D02*
X4430326D01*
X4432326Y24897D02*
X4434991D01*
X4438990Y28896D02*
X4438324Y29563D01*
X4436991D01*
X4436324Y28896D01*
Y26230D01*
X4436991Y25564D01*
X4438324D01*
X4438990Y26230D01*
X2716958Y50853D02*
X2720956D01*
Y48853D01*
X2720290Y48187D01*
X2718957D01*
X2718291Y48853D01*
Y50853D01*
Y49520D02*
X2716958Y48187D01*
Y44188D02*
Y46854D01*
X2719624Y44188D01*
X2720290D01*
X2720956Y44855D01*
Y46188D01*
X2720290Y46854D01*
X2703707Y50853D02*
X2707706D01*
Y48853D01*
X2707039Y48187D01*
X2705706D01*
X2705040Y48853D01*
Y50853D01*
Y49520D02*
X2703707Y48187D01*
X2707039Y46854D02*
X2707706Y46188D01*
Y44855D01*
X2707039Y44188D01*
X2706373D01*
X2705706Y44855D01*
Y45521D01*
Y44855D01*
X2705040Y44188D01*
X2704373D01*
X2703707Y44855D01*
Y46188D01*
X2704373Y46854D01*
X144258Y23596D02*
Y27594D01*
X146258D01*
X146924Y26928D01*
Y25595D01*
X146258Y24929D01*
X144258D01*
X145591D02*
X146924Y23596D01*
X150923Y27594D02*
X149590Y26928D01*
X148257Y25595D01*
Y24262D01*
X148924Y23596D01*
X150257D01*
X150923Y24262D01*
Y24929D01*
X150257Y25595D01*
X148257D01*
X152256Y22929D02*
X154922D01*
X156255Y23596D02*
Y26261D01*
X157587Y27594D01*
X158920Y26261D01*
Y23596D01*
Y25595D01*
X156255D01*
X1602614Y6960D02*
Y10959D01*
X1604614D01*
X1605280Y10292D01*
Y8959D01*
X1604614Y8293D01*
X1602614D01*
X1603947D02*
X1605280Y6960D01*
X1609279Y10959D02*
X1607946Y10292D01*
X1606613Y8959D01*
Y7627D01*
X1607280Y6960D01*
X1608612D01*
X1609279Y7627D01*
Y8293D01*
X1608612Y8959D01*
X1606613D01*
X1610612Y6294D02*
X1613277D01*
X1614610Y10959D02*
Y6960D01*
X1616610D01*
X1617276Y7627D01*
Y8293D01*
X1616610Y8959D01*
X1614610D01*
X1616610D01*
X1617276Y9626D01*
Y10292D01*
X1616610Y10959D01*
X1614610D01*
X3076644Y6827D02*
Y10826D01*
X3078643D01*
X3079310Y10159D01*
Y8826D01*
X3078643Y8160D01*
X3076644D01*
X3077977D02*
X3079310Y6827D01*
X3083308Y10826D02*
X3081975Y10159D01*
X3080643Y8826D01*
Y7493D01*
X3081309Y6827D01*
X3082642D01*
X3083308Y7493D01*
Y8160D01*
X3082642Y8826D01*
X3080643D01*
X3084641Y6160D02*
X3087307D01*
X3091306Y10159D02*
X3090639Y10826D01*
X3089306D01*
X3088640Y10159D01*
Y7493D01*
X3089306Y6827D01*
X3090639D01*
X3091306Y7493D01*
X1422237Y6960D02*
Y10959D01*
X1424236D01*
X1424903Y10292D01*
Y8959D01*
X1424236Y8293D01*
X1422237D01*
X1423570D02*
X1424903Y6960D01*
X1426236Y10959D02*
X1428901D01*
Y10292D01*
X1426236Y7627D01*
Y6960D01*
X1430234Y6294D02*
X1432900D01*
X1434233Y6960D02*
Y9626D01*
X1435566Y10959D01*
X1436899Y9626D01*
Y6960D01*
Y8959D01*
X1434233D01*
X2939560Y18219D02*
Y22218D01*
X2941559D01*
X2942226Y21551D01*
Y20219D01*
X2941559Y19552D01*
X2939560D01*
X2940893D02*
X2942226Y18219D01*
X2943559Y22218D02*
X2946225D01*
Y21551D01*
X2943559Y18886D01*
Y18219D01*
X2947558Y17553D02*
X2950223D01*
X2951556Y22218D02*
Y18219D01*
X2953556D01*
X2954222Y18886D01*
Y19552D01*
X2953556Y20219D01*
X2951556D01*
X2953556D01*
X2954222Y20885D01*
Y21551D01*
X2953556Y22218D01*
X2951556D01*
X4364709Y9054D02*
Y13052D01*
X4366708D01*
X4367375Y12386D01*
Y11053D01*
X4366708Y10387D01*
X4364709D01*
X4366042D02*
X4367375Y9054D01*
X4368708Y13052D02*
X4371374D01*
Y12386D01*
X4368708Y9720D01*
Y9054D01*
X4372707Y8387D02*
X4375372D01*
X4379371Y12386D02*
X4378705Y13052D01*
X4377372D01*
X4376705Y12386D01*
Y9720D01*
X4377372Y9054D01*
X4378705D01*
X4379371Y9720D01*
X219792Y125063D02*
X223791D01*
Y123064D01*
X223124Y122398D01*
X221791D01*
X221125Y123064D01*
Y125063D01*
Y123731D02*
X219792Y122398D01*
X223124Y121065D02*
X223791Y120398D01*
Y119066D01*
X223124Y118399D01*
X222458D01*
X221791Y119066D01*
X221125Y118399D01*
X220459D01*
X219792Y119066D01*
Y120398D01*
X220459Y121065D01*
X221125D01*
X221791Y120398D01*
X222458Y121065D01*
X223124D01*
X221791Y120398D02*
Y119066D01*
X219126Y117066D02*
Y114400D01*
X219792Y113067D02*
X222458D01*
X223791Y111735D01*
X222458Y110402D01*
X219792D01*
X221791D01*
Y113067D01*
X1696170Y124601D02*
X1700168D01*
Y122602D01*
X1699502Y121935D01*
X1698169D01*
X1697503Y122602D01*
Y124601D01*
Y123268D02*
X1696170Y121935D01*
X1699502Y120602D02*
X1700168Y119936D01*
Y118603D01*
X1699502Y117937D01*
X1698836D01*
X1698169Y118603D01*
X1697503Y117937D01*
X1696836D01*
X1696170Y118603D01*
Y119936D01*
X1696836Y120602D01*
X1697503D01*
X1698169Y119936D01*
X1698836Y120602D01*
X1699502D01*
X1698169Y119936D02*
Y118603D01*
X1695503Y116604D02*
Y113938D01*
X1700168Y112605D02*
X1696170D01*
Y110606D01*
X1696836Y109939D01*
X1697503D01*
X1698169Y110606D01*
Y112605D01*
Y110606D01*
X1698836Y109939D01*
X1699502D01*
X1700168Y110606D01*
Y112605D01*
X3173347Y126945D02*
X3177345D01*
Y124946D01*
X3176679Y124279D01*
X3175346D01*
X3174680Y124946D01*
Y126945D01*
Y125612D02*
X3173347Y124279D01*
X3176679Y122946D02*
X3177345Y122280D01*
Y120947D01*
X3176679Y120281D01*
X3176013D01*
X3175346Y120947D01*
X3174680Y120281D01*
X3174013D01*
X3173347Y120947D01*
Y122280D01*
X3174013Y122946D01*
X3174680D01*
X3175346Y122280D01*
X3176013Y122946D01*
X3176679D01*
X3175346Y122280D02*
Y120947D01*
X3172680Y118948D02*
Y116282D01*
X3176679Y112283D02*
X3177345Y112950D01*
Y114283D01*
X3176679Y114949D01*
X3174013D01*
X3173347Y114283D01*
Y112950D01*
X3174013Y112283D01*
X400863Y128508D02*
X404861D01*
Y126508D01*
X404195Y125842D01*
X402862D01*
X402195Y126508D01*
Y128508D01*
Y127175D02*
X400863Y125842D01*
X401529Y124509D02*
X400863Y123843D01*
Y122510D01*
X401529Y121843D01*
X404195D01*
X404861Y122510D01*
Y123843D01*
X404195Y124509D01*
X403528D01*
X402862Y123843D01*
Y121843D01*
X400196Y120510D02*
Y117845D01*
X400863Y116512D02*
X403528D01*
X404861Y115179D01*
X403528Y113846D01*
X400863D01*
X402862D01*
Y116512D01*
X1878772Y127259D02*
X1882771D01*
Y125260D01*
X1882105Y124593D01*
X1880772D01*
X1880105Y125260D01*
Y127259D01*
Y125926D02*
X1878772Y124593D01*
X1879439Y123260D02*
X1878772Y122594D01*
Y121261D01*
X1879439Y120594D01*
X1882105D01*
X1882771Y121261D01*
Y122594D01*
X1882105Y123260D01*
X1881438D01*
X1880772Y122594D01*
Y120594D01*
X1878106Y119262D02*
Y116596D01*
X1882771Y115263D02*
X1878772D01*
Y113263D01*
X1879439Y112597D01*
X1880105D01*
X1880772Y113263D01*
Y115263D01*
Y113263D01*
X1881438Y112597D01*
X1882105D01*
X1882771Y113263D01*
Y115263D01*
X3352388Y125839D02*
X3356387D01*
Y123840D01*
X3355720Y123173D01*
X3354387D01*
X3353721Y123840D01*
Y125839D01*
Y124506D02*
X3352388Y123173D01*
X3353055Y121840D02*
X3352388Y121174D01*
Y119841D01*
X3353055Y119174D01*
X3355720D01*
X3356387Y119841D01*
Y121174D01*
X3355720Y121840D01*
X3355054D01*
X3354387Y121174D01*
Y119174D01*
X3351721Y117842D02*
Y115176D01*
X3355720Y111177D02*
X3356387Y111843D01*
Y113176D01*
X3355720Y113843D01*
X3353055D01*
X3352388Y113176D01*
Y111843D01*
X3353055Y111177D01*
X306228Y7329D02*
Y11328D01*
X308227D01*
X308894Y10662D01*
Y9329D01*
X308227Y8662D01*
X306228D01*
X307561D02*
X308894Y7329D01*
X310226D02*
X311559D01*
X310893D01*
Y11328D01*
X310226Y10662D01*
X313559D02*
X314225Y11328D01*
X315558D01*
X316224Y10662D01*
Y7996D01*
X315558Y7329D01*
X314225D01*
X313559Y7996D01*
Y10662D01*
X317557Y6663D02*
X320223D01*
X321556Y7329D02*
Y9995D01*
X322889Y11328D01*
X324222Y9995D01*
Y7329D01*
Y9329D01*
X321556D01*
X1777491Y7800D02*
Y11799D01*
X1779490D01*
X1780157Y11132D01*
Y9799D01*
X1779490Y9133D01*
X1777491D01*
X1778824D02*
X1780157Y7800D01*
X1781490D02*
X1782823D01*
X1782156D01*
Y11799D01*
X1781490Y11132D01*
X1784822D02*
X1785488Y11799D01*
X1786821D01*
X1787488Y11132D01*
Y8467D01*
X1786821Y7800D01*
X1785488D01*
X1784822Y8467D01*
Y11132D01*
X1788821Y7134D02*
X1791486D01*
X1792819Y11799D02*
Y7800D01*
X1794819D01*
X1795485Y8467D01*
Y9133D01*
X1794819Y9799D01*
X1792819D01*
X1794819D01*
X1795485Y10466D01*
Y11132D01*
X1794819Y11799D01*
X1792819D01*
X3250521Y6854D02*
Y10853D01*
X3252520D01*
X3253187Y10187D01*
Y8854D01*
X3252520Y8187D01*
X3250521D01*
X3251854D02*
X3253187Y6854D01*
X3254520D02*
X3255852D01*
X3255186D01*
Y10853D01*
X3254520Y10187D01*
X3257852D02*
X3258518Y10853D01*
X3259851D01*
X3260518Y10187D01*
Y7521D01*
X3259851Y6854D01*
X3258518D01*
X3257852Y7521D01*
Y10187D01*
X3261851Y6188D02*
X3264516D01*
X3268515Y10187D02*
X3267849Y10853D01*
X3266516D01*
X3265849Y10187D01*
Y7521D01*
X3266516Y6854D01*
X3267849D01*
X3268515Y7521D01*
X483274Y8615D02*
Y12614D01*
X485274D01*
X485940Y11948D01*
Y10615D01*
X485274Y9948D01*
X483274D01*
X484607D02*
X485940Y8615D01*
X487273D02*
X488606D01*
X487939D01*
Y12614D01*
X487273Y11948D01*
X490605Y8615D02*
X491938D01*
X491272D01*
Y12614D01*
X490605Y11948D01*
X493938Y7949D02*
X496603D01*
X497936Y8615D02*
Y11281D01*
X499269Y12614D01*
X500602Y11281D01*
Y8615D01*
Y10615D01*
X497936D01*
X1954896Y8250D02*
Y12249D01*
X1956895D01*
X1957561Y11582D01*
Y10249D01*
X1956895Y9583D01*
X1954896D01*
X1956228D02*
X1957561Y8250D01*
X1958894D02*
X1960227D01*
X1959561D01*
Y12249D01*
X1958894Y11582D01*
X1962227Y8250D02*
X1963559D01*
X1962893D01*
Y12249D01*
X1962227Y11582D01*
X1965559Y7584D02*
X1968225D01*
X1969557Y12249D02*
Y8250D01*
X1971557D01*
X1972223Y8916D01*
Y9583D01*
X1971557Y10249D01*
X1969557D01*
X1971557D01*
X1972223Y10916D01*
Y11582D01*
X1971557Y12249D01*
X1969557D01*
X3465215Y6852D02*
Y10850D01*
X3467214D01*
X3467880Y10184D01*
Y8851D01*
X3467214Y8184D01*
X3465215D01*
X3466547D02*
X3467880Y6852D01*
X3469213D02*
X3470546D01*
X3469879D01*
Y10850D01*
X3469213Y10184D01*
X3472545Y6852D02*
X3473878D01*
X3473212D01*
Y10850D01*
X3472545Y10184D01*
X3475878Y6185D02*
X3478543D01*
X3482542Y10184D02*
X3481876Y10850D01*
X3480543D01*
X3479876Y10184D01*
Y7518D01*
X3480543Y6852D01*
X3481876D01*
X3482542Y7518D01*
X667112Y6195D02*
Y10194D01*
X669112D01*
X669778Y9528D01*
Y8195D01*
X669112Y7528D01*
X667112D01*
X668445D02*
X669778Y6195D01*
X671111D02*
X672444D01*
X671777D01*
Y10194D01*
X671111Y9528D01*
X677109Y6195D02*
X674443D01*
X677109Y8861D01*
Y9528D01*
X676443Y10194D01*
X675110D01*
X674443Y9528D01*
X678442Y5529D02*
X681108D01*
X682441Y6195D02*
Y8861D01*
X683774Y10194D01*
X685107Y8861D01*
Y6195D01*
Y8195D01*
X682441D01*
X2135306Y8776D02*
Y12775D01*
X2137305D01*
X2137972Y12108D01*
Y10775D01*
X2137305Y10109D01*
X2135306D01*
X2136639D02*
X2137972Y8776D01*
X2139305D02*
X2140638D01*
X2139971D01*
Y12775D01*
X2139305Y12108D01*
X2145303Y8776D02*
X2142637D01*
X2145303Y11442D01*
Y12108D01*
X2144636Y12775D01*
X2143303D01*
X2142637Y12108D01*
X2146635Y8110D02*
X2149301D01*
X2150634Y12775D02*
Y8776D01*
X2152634D01*
X2153300Y9442D01*
Y10109D01*
X2152634Y10775D01*
X2150634D01*
X2152634D01*
X2153300Y11442D01*
Y12108D01*
X2152634Y12775D01*
X2150634D01*
X3644268Y6631D02*
Y10630D01*
X3646268D01*
X3646934Y9963D01*
Y8630D01*
X3646268Y7964D01*
X3644268D01*
X3645601D02*
X3646934Y6631D01*
X3648267D02*
X3649600D01*
X3648933D01*
Y10630D01*
X3648267Y9963D01*
X3654265Y6631D02*
X3651599D01*
X3654265Y9297D01*
Y9963D01*
X3653599Y10630D01*
X3652266D01*
X3651599Y9963D01*
X3655598Y5965D02*
X3658264D01*
X3662263Y9963D02*
X3661596Y10630D01*
X3660263D01*
X3659597Y9963D01*
Y7297D01*
X3660263Y6631D01*
X3661596D01*
X3662263Y7297D01*
X846015Y5924D02*
Y9922D01*
X848015D01*
X848681Y9256D01*
Y7923D01*
X848015Y7256D01*
X846015D01*
X847348D02*
X848681Y5924D01*
X850014D02*
X851347D01*
X850680D01*
Y9922D01*
X850014Y9256D01*
X853346D02*
X854013Y9922D01*
X855346D01*
X856012Y9256D01*
Y8589D01*
X855346Y7923D01*
X854679D01*
X855346D01*
X856012Y7256D01*
Y6590D01*
X855346Y5924D01*
X854013D01*
X853346Y6590D01*
X857345Y5257D02*
X860011D01*
X861344Y5924D02*
Y8589D01*
X862676Y9922D01*
X864009Y8589D01*
Y5924D01*
Y7923D01*
X861344D01*
X2351484Y8390D02*
Y12389D01*
X2353483D01*
X2354150Y11722D01*
Y10389D01*
X2353483Y9723D01*
X2351484D01*
X2352817D02*
X2354150Y8390D01*
X2355483D02*
X2356816D01*
X2356149D01*
Y12389D01*
X2355483Y11722D01*
X2358815D02*
X2359481Y12389D01*
X2360814D01*
X2361481Y11722D01*
Y11056D01*
X2360814Y10389D01*
X2360148D01*
X2360814D01*
X2361481Y9723D01*
Y9057D01*
X2360814Y8390D01*
X2359481D01*
X2358815Y9057D01*
X2362814Y7724D02*
X2365479D01*
X2366812Y12389D02*
Y8390D01*
X2368812D01*
X2369478Y9057D01*
Y9723D01*
X2368812Y10389D01*
X2366812D01*
X2368812D01*
X2369478Y11056D01*
Y11722D01*
X2368812Y12389D01*
X2366812D01*
X3822261Y8890D02*
Y12889D01*
X3824260D01*
X3824927Y12222D01*
Y10889D01*
X3824260Y10223D01*
X3822261D01*
X3823594D02*
X3824927Y8890D01*
X3826260D02*
X3827592D01*
X3826926D01*
Y12889D01*
X3826260Y12222D01*
X3829592D02*
X3830258Y12889D01*
X3831591D01*
X3832258Y12222D01*
Y11556D01*
X3831591Y10889D01*
X3830925D01*
X3831591D01*
X3832258Y10223D01*
Y9556D01*
X3831591Y8890D01*
X3830258D01*
X3829592Y9556D01*
X3833591Y8224D02*
X3836256D01*
X3840255Y12222D02*
X3839589Y12889D01*
X3838256D01*
X3837589Y12222D01*
Y9556D01*
X3838256Y8890D01*
X3839589D01*
X3840255Y9556D01*
X1023162Y6195D02*
Y10194D01*
X1025161D01*
X1025828Y9528D01*
Y8195D01*
X1025161Y7528D01*
X1023162D01*
X1024495D02*
X1025828Y6195D01*
X1027161D02*
X1028494D01*
X1027827D01*
Y10194D01*
X1027161Y9528D01*
X1032492Y6195D02*
Y10194D01*
X1030493Y8195D01*
X1033159D01*
X1034492Y5529D02*
X1037158D01*
X1038490Y6195D02*
Y8861D01*
X1039823Y10194D01*
X1041156Y8861D01*
Y6195D01*
Y8195D01*
X1038490D01*
X2532896Y8390D02*
Y12389D01*
X2534895D01*
X2535561Y11722D01*
Y10389D01*
X2534895Y9723D01*
X2532896D01*
X2534228D02*
X2535561Y8390D01*
X2536894D02*
X2538227D01*
X2537561D01*
Y12389D01*
X2536894Y11722D01*
X2542226Y8390D02*
Y12389D01*
X2540226Y10389D01*
X2542892D01*
X2544225Y7724D02*
X2546891D01*
X2548224Y12389D02*
Y8390D01*
X2550223D01*
X2550890Y9056D01*
Y9723D01*
X2550223Y10389D01*
X2548224D01*
X2550223D01*
X2550890Y11056D01*
Y11722D01*
X2550223Y12389D01*
X2548224D01*
X4004545Y6173D02*
Y10172D01*
X4006545D01*
X4007211Y9505D01*
Y8172D01*
X4006545Y7506D01*
X4004545D01*
X4005878D02*
X4007211Y6173D01*
X4008544D02*
X4009877D01*
X4009211D01*
Y10172D01*
X4008544Y9505D01*
X4013876Y6173D02*
Y10172D01*
X4011876Y8172D01*
X4014542D01*
X4015875Y5507D02*
X4018541D01*
X4022539Y9505D02*
X4021873Y10172D01*
X4020540D01*
X4019874Y9505D01*
Y6840D01*
X4020540Y6173D01*
X4021873D01*
X4022539Y6840D01*
X1238999Y6960D02*
Y10959D01*
X1240999D01*
X1241665Y10292D01*
Y8959D01*
X1240999Y8293D01*
X1238999D01*
X1240332D02*
X1241665Y6960D01*
X1242998D02*
X1244331D01*
X1243664D01*
Y10959D01*
X1242998Y10292D01*
X1248996Y10959D02*
X1246330D01*
Y8959D01*
X1247663Y9626D01*
X1248329D01*
X1248996Y8959D01*
Y7627D01*
X1248329Y6960D01*
X1246997D01*
X1246330Y7627D01*
X1250329Y6294D02*
X1252995D01*
X1254327Y6960D02*
Y9626D01*
X1255660Y10959D01*
X1256993Y9626D01*
Y6960D01*
Y8959D01*
X1254327D01*
X2708531Y7204D02*
Y11203D01*
X2710531D01*
X2711198Y10537D01*
Y9204D01*
X2710531Y8537D01*
X2708531D01*
X2709865D02*
X2711198Y7204D01*
X2712530D02*
X2713863D01*
X2713197D01*
Y11203D01*
X2712530Y10537D01*
X2718528Y11203D02*
X2715862D01*
Y9204D01*
X2717195Y9870D01*
X2717862D01*
X2718528Y9204D01*
Y7871D01*
X2717862Y7204D01*
X2716529D01*
X2715862Y7871D01*
X2719861Y6538D02*
X2722527D01*
X2723860Y11203D02*
Y7204D01*
X2725859D01*
X2726526Y7871D01*
Y8537D01*
X2725859Y9204D01*
X2723860D01*
X2725859D01*
X2726526Y9870D01*
Y10537D01*
X2725859Y11203D01*
X2723860D01*
X4187875Y9054D02*
Y13052D01*
X4189874D01*
X4190540Y12386D01*
Y11053D01*
X4189874Y10387D01*
X4187875D01*
X4189207D02*
X4190540Y9054D01*
X4191873D02*
X4193206D01*
X4192540D01*
Y13052D01*
X4191873Y12386D01*
X4197871Y13052D02*
X4195206D01*
Y11053D01*
X4196538Y11719D01*
X4197205D01*
X4197871Y11053D01*
Y9720D01*
X4197205Y9054D01*
X4195872D01*
X4195206Y9720D01*
X4199204Y8387D02*
X4201870D01*
X4205869Y12386D02*
X4205202Y13052D01*
X4203870D01*
X4203203Y12386D01*
Y9720D01*
X4203870Y9054D01*
X4205202D01*
X4205869Y9720D01*
X580119Y126560D02*
X584118D01*
Y124561D01*
X583451Y123894D01*
X582118D01*
X581452Y124561D01*
Y126560D01*
Y125227D02*
X580119Y123894D01*
Y122561D02*
Y121228D01*
Y121895D01*
X584118D01*
X583451Y122561D01*
X584118Y119229D02*
Y116563D01*
X583451D01*
X580786Y119229D01*
X580119D01*
X579453Y115230D02*
Y112564D01*
X580119Y111232D02*
X582785D01*
X584118Y109899D01*
X582785Y108566D01*
X580119D01*
X582118D01*
Y111232D01*
X2057266Y132577D02*
X2061264D01*
Y130577D01*
X2060598Y129911D01*
X2059265D01*
X2058598Y130577D01*
Y132577D01*
Y131244D02*
X2057266Y129911D01*
Y128578D02*
Y127245D01*
Y127911D01*
X2061264D01*
X2060598Y128578D01*
X2061264Y125246D02*
Y122580D01*
X2060598D01*
X2057932Y125246D01*
X2057266D01*
X2056599Y121247D02*
Y118581D01*
X2061264Y117248D02*
X2057266D01*
Y115249D01*
X2057932Y114582D01*
X2058598D01*
X2059265Y115249D01*
Y117248D01*
Y115249D01*
X2059931Y114582D01*
X2060598D01*
X2061264Y115249D01*
Y117248D01*
X3567927Y126101D02*
X3571925D01*
Y124102D01*
X3571259Y123436D01*
X3569926D01*
X3569260Y124102D01*
Y126101D01*
Y124768D02*
X3567927Y123436D01*
Y122103D02*
Y120770D01*
Y121436D01*
X3571925D01*
X3571259Y122103D01*
X3571925Y118770D02*
Y116105D01*
X3571259D01*
X3568593Y118770D01*
X3567927D01*
X3567260Y114772D02*
Y112106D01*
X3571259Y108107D02*
X3571925Y108774D01*
Y110107D01*
X3571259Y110773D01*
X3568593D01*
X3567927Y110107D01*
Y108774D01*
X3568593Y108107D01*
X761382Y127155D02*
X765381D01*
Y125156D01*
X764714Y124490D01*
X763381D01*
X762715Y125156D01*
Y127155D01*
Y125822D02*
X761382Y124490D01*
Y123157D02*
Y121824D01*
Y122490D01*
X765381D01*
X764714Y123157D01*
X762048Y119824D02*
X761382Y119158D01*
Y117825D01*
X762048Y117159D01*
X764714D01*
X765381Y117825D01*
Y119158D01*
X764714Y119824D01*
X764048D01*
X763381Y119158D01*
Y117159D01*
X760715Y115826D02*
Y113160D01*
X761382Y111827D02*
X764048D01*
X765381Y110494D01*
X764048Y109161D01*
X761382D01*
X763381D01*
Y111827D01*
X2236469Y126945D02*
X2240467D01*
Y124946D01*
X2239801Y124279D01*
X2238468D01*
X2237801Y124946D01*
Y126945D01*
Y125612D02*
X2236469Y124279D01*
Y122946D02*
Y121614D01*
Y122280D01*
X2240467D01*
X2239801Y122946D01*
X2237135Y119614D02*
X2236469Y118948D01*
Y117615D01*
X2237135Y116948D01*
X2239801D01*
X2240467Y117615D01*
Y118948D01*
X2239801Y119614D01*
X2239134D01*
X2238468Y118948D01*
Y116948D01*
X2235802Y115616D02*
Y112950D01*
X2240467Y111617D02*
X2236469D01*
Y109617D01*
X2237135Y108951D01*
X2237801D01*
X2238468Y109617D01*
Y111617D01*
Y109617D01*
X2239134Y108951D01*
X2239801D01*
X2240467Y109617D01*
Y111617D01*
X3750376Y130812D02*
X3754374D01*
Y128812D01*
X3753708Y128146D01*
X3752375D01*
X3751709Y128812D01*
Y130812D01*
Y129479D02*
X3750376Y128146D01*
Y126813D02*
Y125480D01*
Y126146D01*
X3754374D01*
X3753708Y126813D01*
X3751042Y123481D02*
X3750376Y122814D01*
Y121481D01*
X3751042Y120815D01*
X3753708D01*
X3754374Y121481D01*
Y122814D01*
X3753708Y123481D01*
X3753042D01*
X3752375Y122814D01*
Y120815D01*
X3749709Y119482D02*
Y116816D01*
X3753708Y112817D02*
X3754374Y113484D01*
Y114817D01*
X3753708Y115483D01*
X3751042D01*
X3750376Y114817D01*
Y113484D01*
X3751042Y112817D01*
X2453268Y125359D02*
X2457267D01*
Y123360D01*
X2456600Y122693D01*
X2455267D01*
X2454601Y123360D01*
Y125359D01*
Y124026D02*
X2453268Y122693D01*
Y118695D02*
Y121361D01*
X2455934Y118695D01*
X2456600D01*
X2457267Y119361D01*
Y120694D01*
X2456600Y121361D01*
X2453268Y117362D02*
Y116029D01*
Y116695D01*
X2457267D01*
X2456600Y117362D01*
X2452601Y114030D02*
Y111364D01*
X2457267Y110031D02*
X2453268D01*
Y108032D01*
X2453934Y107365D01*
X2454601D01*
X2455267Y108032D01*
Y110031D01*
Y108032D01*
X2455934Y107365D01*
X2456600D01*
X2457267Y108032D01*
Y110031D01*
X3929223Y125004D02*
X3933222D01*
Y123004D01*
X3932555Y122338D01*
X3931222D01*
X3930556Y123004D01*
Y125004D01*
Y123671D02*
X3929223Y122338D01*
Y118339D02*
Y121005D01*
X3931889Y118339D01*
X3932555D01*
X3933222Y119005D01*
Y120338D01*
X3932555Y121005D01*
X3929223Y117006D02*
Y115673D01*
Y116340D01*
X3933222D01*
X3932555Y117006D01*
X3928557Y113674D02*
Y111008D01*
X3932555Y107009D02*
X3933222Y107676D01*
Y109009D01*
X3932555Y109675D01*
X3929889D01*
X3929223Y109009D01*
Y107676D01*
X3929889Y107009D01*
X1121731Y122672D02*
X1125729D01*
Y120673D01*
X1125063Y120007D01*
X1123730D01*
X1123064Y120673D01*
Y122672D01*
Y121339D02*
X1121731Y120007D01*
Y116008D02*
Y118674D01*
X1124396Y116008D01*
X1125063D01*
X1125729Y116674D01*
Y118007D01*
X1125063Y118674D01*
Y114675D02*
X1125729Y114008D01*
Y112676D01*
X1125063Y112009D01*
X1124396D01*
X1123730Y112676D01*
Y113342D01*
Y112676D01*
X1123064Y112009D01*
X1122397D01*
X1121731Y112676D01*
Y114008D01*
X1122397Y114675D01*
X1121064Y110676D02*
Y108010D01*
X1121731Y106678D02*
X1124396D01*
X1125729Y105345D01*
X1124396Y104012D01*
X1121731D01*
X1123730D01*
Y106678D01*
X2632384Y129910D02*
X2636383D01*
Y127911D01*
X2635716Y127244D01*
X2634383D01*
X2633717Y127911D01*
Y129910D01*
Y128577D02*
X2632384Y127244D01*
Y123245D02*
Y125911D01*
X2635050Y123245D01*
X2635716D01*
X2636383Y123912D01*
Y125245D01*
X2635716Y125911D01*
Y121913D02*
X2636383Y121246D01*
Y119913D01*
X2635716Y119247D01*
X2635050D01*
X2634383Y119913D01*
Y120580D01*
Y119913D01*
X2633717Y119247D01*
X2633050D01*
X2632384Y119913D01*
Y121246D01*
X2633050Y121913D01*
X2631718Y117914D02*
Y115248D01*
X2636383Y113915D02*
X2632384D01*
Y111916D01*
X2633050Y111250D01*
X2633717D01*
X2634383Y111916D01*
Y113915D01*
Y111916D01*
X2635050Y111250D01*
X2635716D01*
X2636383Y111916D01*
Y113915D01*
X4108372Y127365D02*
X4112371D01*
Y125366D01*
X4111705Y124699D01*
X4110372D01*
X4109706Y125366D01*
Y127365D01*
Y126032D02*
X4108372Y124699D01*
Y120701D02*
Y123366D01*
X4111038Y120701D01*
X4111705D01*
X4112371Y121367D01*
Y122700D01*
X4111705Y123366D01*
Y119368D02*
X4112371Y118701D01*
Y117368D01*
X4111705Y116702D01*
X4111038D01*
X4110372Y117368D01*
Y118035D01*
Y117368D01*
X4109706Y116702D01*
X4109039D01*
X4108372Y117368D01*
Y118701D01*
X4109039Y119368D01*
X4107706Y115369D02*
Y112703D01*
X4111705Y108705D02*
X4112371Y109371D01*
Y110704D01*
X4111705Y111370D01*
X4109039D01*
X4108372Y110704D01*
Y109371D01*
X4109039Y108705D01*
X1336749Y128490D02*
X1340748D01*
Y126491D01*
X1340081Y125824D01*
X1338748D01*
X1338082Y126491D01*
Y128490D01*
Y127157D02*
X1336749Y125824D01*
Y121826D02*
Y124492D01*
X1339415Y121826D01*
X1340081D01*
X1340748Y122492D01*
Y123825D01*
X1340081Y124492D01*
X1340748Y117827D02*
Y120493D01*
X1338748D01*
X1339415Y119160D01*
Y118493D01*
X1338748Y117827D01*
X1337415D01*
X1336749Y118493D01*
Y119826D01*
X1337415Y120493D01*
X1336082Y116494D02*
Y113828D01*
X1336749Y112495D02*
X1339415D01*
X1340748Y111163D01*
X1339415Y109830D01*
X1336749D01*
X1338748D01*
Y112495D01*
X2812385Y128358D02*
X2816384D01*
Y126358D01*
X2815717Y125692D01*
X2814384D01*
X2813718Y126358D01*
Y128358D01*
Y127025D02*
X2812385Y125692D01*
Y121693D02*
Y124359D01*
X2815051Y121693D01*
X2815717D01*
X2816384Y122360D01*
Y123693D01*
X2815717Y124359D01*
X2816384Y117695D02*
Y120360D01*
X2814384D01*
X2815051Y119028D01*
Y118361D01*
X2814384Y117695D01*
X2813051D01*
X2812385Y118361D01*
Y119694D01*
X2813051Y120360D01*
X2811719Y116362D02*
Y113696D01*
X2816384Y112363D02*
X2812385D01*
Y110364D01*
X2813051Y109697D01*
X2813718D01*
X2814384Y110364D01*
Y112363D01*
Y110364D01*
X2815051Y109697D01*
X2815717D01*
X2816384Y110364D01*
Y112363D01*
X4288223Y127197D02*
X4292222D01*
Y125198D01*
X4291555Y124531D01*
X4290222D01*
X4289556Y125198D01*
Y127197D01*
Y125864D02*
X4288223Y124531D01*
Y120532D02*
Y123198D01*
X4290889Y120532D01*
X4291555D01*
X4292222Y121199D01*
Y122532D01*
X4291555Y123198D01*
X4292222Y116534D02*
Y119200D01*
X4290222D01*
X4290889Y117867D01*
Y117200D01*
X4290222Y116534D01*
X4288890D01*
X4288223Y117200D01*
Y118533D01*
X4288890Y119200D01*
X4287557Y115201D02*
Y112535D01*
X4291555Y108536D02*
X4292222Y109203D01*
Y110536D01*
X4291555Y111202D01*
X4288890D01*
X4288223Y110536D01*
Y109203D01*
X4288890Y108536D01*
X1516388Y125977D02*
X1520387D01*
Y123978D01*
X1519720Y123311D01*
X1518387D01*
X1517721Y123978D01*
Y125977D01*
Y124644D02*
X1516388Y123311D01*
Y119313D02*
Y121978D01*
X1519054Y119313D01*
X1519720D01*
X1520387Y119979D01*
Y121312D01*
X1519720Y121978D01*
X1520387Y117980D02*
Y115314D01*
X1519720D01*
X1517054Y117980D01*
X1516388D01*
X1515722Y113981D02*
Y111315D01*
X1516388Y109982D02*
X1519054D01*
X1520387Y108649D01*
X1519054Y107317D01*
X1516388D01*
X1518387D01*
Y109982D01*
X2992389Y128535D02*
X2996387D01*
Y126536D01*
X2995721Y125869D01*
X2994388D01*
X2993721Y126536D01*
Y128535D01*
Y127202D02*
X2992389Y125869D01*
Y121870D02*
Y124536D01*
X2995054Y121870D01*
X2995721D01*
X2996387Y122537D01*
Y123870D01*
X2995721Y124536D01*
X2996387Y120538D02*
Y117872D01*
X2995721D01*
X2993055Y120538D01*
X2992389D01*
X2991722Y116539D02*
Y113873D01*
X2996387Y112540D02*
X2992389D01*
Y110541D01*
X2993055Y109874D01*
X2993721D01*
X2994388Y110541D01*
Y112540D01*
Y110541D01*
X2995054Y109874D01*
X2995721D01*
X2996387Y110541D01*
Y112540D01*
X4468557Y126747D02*
X4472556D01*
Y124747D01*
X4471890Y124081D01*
X4470557D01*
X4469890Y124747D01*
Y126747D01*
Y125414D02*
X4468557Y124081D01*
Y120082D02*
Y122748D01*
X4471223Y120082D01*
X4471890D01*
X4472556Y120749D01*
Y122081D01*
X4471890Y122748D01*
X4472556Y118749D02*
Y116083D01*
X4471890D01*
X4469224Y118749D01*
X4468557D01*
X4467891Y114750D02*
Y112085D01*
X4471890Y108086D02*
X4472556Y108752D01*
Y110085D01*
X4471890Y110752D01*
X4469224D01*
X4468557Y110085D01*
Y108752D01*
X4469224Y108086D01*
X2937893Y72170D02*
Y68837D01*
X2938560Y68171D01*
X2939892D01*
X2940559Y68837D01*
Y72170D01*
X2941892Y68171D02*
X2943224D01*
X2942558D01*
Y72170D01*
X2941892Y71503D01*
X2005379Y65192D02*
Y61860D01*
X2006045Y61194D01*
X2007378D01*
X2008045Y61860D01*
Y65192D01*
X2009378Y64526D02*
X2010044Y65192D01*
X2011377D01*
X2012043Y64526D01*
Y63859D01*
X2011377Y63193D01*
X2010710D01*
X2011377D01*
X2012043Y62526D01*
Y61860D01*
X2011377Y61194D01*
X2010044D01*
X2009378Y61860D01*
X2013376Y60527D02*
X2016042D01*
X2017375Y65192D02*
Y61194D01*
X2019374D01*
X2020041Y61860D01*
Y62526D01*
X2019374Y63193D01*
X2017375D01*
X2019374D01*
X2020041Y63859D01*
Y64526D01*
X2019374Y65192D01*
X2017375D01*
X4130333Y62931D02*
Y59598D01*
X4130999Y58932D01*
X4132332D01*
X4132999Y59598D01*
Y62931D01*
X4134332Y62264D02*
X4134998Y62931D01*
X4136331D01*
X4136997Y62264D01*
Y61598D01*
X4136331Y60932D01*
X4135664D01*
X4136331D01*
X4136997Y60265D01*
Y59598D01*
X4136331Y58932D01*
X4134998D01*
X4134332Y59598D01*
X4138330Y58266D02*
X4140996D01*
X4144995Y62264D02*
X4144328Y62931D01*
X4142996D01*
X4142329Y62264D01*
Y59598D01*
X4142996Y58932D01*
X4144328D01*
X4144995Y59598D01*
X663420Y82233D02*
Y78901D01*
X664086Y78234D01*
X665419D01*
X666086Y78901D01*
Y82233D01*
X669418Y78234D02*
Y82233D01*
X667419Y80234D01*
X670084D01*
X671417Y77568D02*
X674083D01*
X675416Y78234D02*
Y80900D01*
X676749Y82233D01*
X678082Y80900D01*
Y78234D01*
Y80234D01*
X675416D01*
X4003630Y52533D02*
Y49201D01*
X4004296Y48534D01*
X4005629D01*
X4006295Y49201D01*
Y52533D01*
X4009628Y48534D02*
Y52533D01*
X4007628Y50534D01*
X4010294D01*
X4011627Y47868D02*
X4014293D01*
X4018292Y51867D02*
X4017625Y52533D01*
X4016292D01*
X4015626Y51867D01*
Y49201D01*
X4016292Y48534D01*
X4017625D01*
X4018292Y49201D01*
D12*
X4539473Y17446D02*
X4544299D01*
X4538457Y17700D02*
X4545569D01*
X4599925Y17954D02*
X4609323D01*
X4583669D02*
X4593321D01*
X4567667D02*
X4577065D01*
X4554967D02*
X4564873D01*
X4537695D02*
X4546585D01*
X4516867D02*
X4529059D01*
X4497817D02*
X4507977D01*
X4599671Y18208D02*
X4609323D01*
X4583669D02*
X4593575D01*
X4567667D02*
X4577319D01*
X4554713D02*
X4564619D01*
X4536933D02*
X4547347D01*
X4516613D02*
X4529059D01*
X4497817D02*
X4507977D01*
X4459209D02*
X4491467D01*
X4599671Y18462D02*
X4609323D01*
X4583415D02*
X4593575D01*
X4567667D02*
X4577319D01*
X4554459D02*
X4564619D01*
X4536171D02*
X4548109D01*
X4516613D02*
X4528805D01*
X4497817D02*
X4507977D01*
X4459209D02*
X4491467D01*
X4599671Y18716D02*
X4609323D01*
X4583415D02*
X4593575D01*
X4567667D02*
X4577319D01*
X4554459D02*
X4564365D01*
X4535663D02*
X4548617D01*
X4516359D02*
X4528551D01*
X4497817D02*
X4507977D01*
X4459209D02*
X4491467D01*
X4599671Y18970D02*
X4609323D01*
X4583415D02*
X4593575D01*
X4567667D02*
X4577319D01*
X4554205D02*
X4564111D01*
X4535155D02*
X4549125D01*
X4516359D02*
X4528551D01*
X4497817D02*
X4507977D01*
X4459209D02*
X4491467D01*
X4599671Y19224D02*
X4609323D01*
X4583415D02*
X4593575D01*
X4567667D02*
X4577319D01*
X4553951D02*
X4563857D01*
X4534901D02*
X4549633D01*
X4516105D02*
X4528297D01*
X4497817D02*
X4507977D01*
X4459209D02*
X4491467D01*
X4599671Y19478D02*
X4609323D01*
X4583161D02*
X4593829D01*
X4567667D02*
X4577319D01*
X4553697D02*
X4563603D01*
X4534393D02*
X4549887D01*
X4515851D02*
X4528043D01*
X4497817D02*
X4507977D01*
X4459209D02*
X4491467D01*
X4599671Y19732D02*
X4609323D01*
X4583161D02*
X4593829D01*
X4567667D02*
X4577319D01*
X4553697D02*
X4563603D01*
X4534139D02*
X4550395D01*
X4515851D02*
X4528043D01*
X4497817D02*
X4507977D01*
X4459209D02*
X4491467D01*
X4599671Y19986D02*
X4609323D01*
X4583161D02*
X4593829D01*
X4567667D02*
X4577319D01*
X4553443D02*
X4563349D01*
X4533631D02*
X4550649D01*
X4515597D02*
X4527789D01*
X4497817D02*
X4507977D01*
X4459209D02*
X4491467D01*
X4599671Y20240D02*
X4609323D01*
X4583161D02*
X4593829D01*
X4567667D02*
X4577319D01*
X4553189D02*
X4563095D01*
X4533377D02*
X4551157D01*
X4515597D02*
X4527535D01*
X4497817D02*
X4507977D01*
X4459209D02*
X4491467D01*
X4599671Y20494D02*
X4609323D01*
X4583161D02*
X4594083D01*
X4567667D02*
X4577319D01*
X4552935D02*
X4562841D01*
X4533123D02*
X4551411D01*
X4515343D02*
X4527535D01*
X4497817D02*
X4507977D01*
X4459209D02*
X4491467D01*
X4599671Y20748D02*
X4609323D01*
X4582907D02*
X4594083D01*
X4567667D02*
X4577319D01*
X4552935D02*
X4562841D01*
X4532869D02*
X4551665D01*
X4515343D02*
X4527281D01*
X4497817D02*
X4507977D01*
X4459209D02*
X4491467D01*
X4599671Y21002D02*
X4609323D01*
X4582907D02*
X4594083D01*
X4567667D02*
X4577319D01*
X4552681D02*
X4562587D01*
X4532615D02*
X4551919D01*
X4515089D02*
X4527027D01*
X4497817D02*
X4507977D01*
X4459209D02*
X4491467D01*
X4599671Y21256D02*
X4609323D01*
X4582907D02*
X4594083D01*
X4567667D02*
X4577319D01*
X4552427D02*
X4562333D01*
X4532361D02*
X4552173D01*
X4514835D02*
X4527027D01*
X4497817D02*
X4507977D01*
X4459209D02*
X4491467D01*
X4599671Y21510D02*
X4609323D01*
X4582907D02*
X4594083D01*
X4567667D02*
X4577319D01*
X4532107D02*
X4562079D01*
X4514835D02*
X4526773D01*
X4497817D02*
X4507977D01*
X4459209D02*
X4491467D01*
X4599671Y21764D02*
X4609323D01*
X4582653D02*
X4594337D01*
X4567667D02*
X4577319D01*
X4531853D02*
X4561825D01*
X4514581D02*
X4526519D01*
X4497817D02*
X4507977D01*
X4459209D02*
X4491467D01*
X4599671Y22018D02*
X4609323D01*
X4582653D02*
X4594337D01*
X4567667D02*
X4577319D01*
X4531853D02*
X4561825D01*
X4514581D02*
X4526519D01*
X4497817D02*
X4507977D01*
X4459209D02*
X4491467D01*
X4599671Y22272D02*
X4609323D01*
X4582653D02*
X4594337D01*
X4567667D02*
X4577319D01*
X4531599D02*
X4561571D01*
X4514327D02*
X4526265D01*
X4497817D02*
X4507977D01*
X4459209D02*
X4491467D01*
X4599671Y22526D02*
X4609323D01*
X4582653D02*
X4594337D01*
X4567667D02*
X4577319D01*
X4531345D02*
X4561317D01*
X4514327D02*
X4526011D01*
X4497817D02*
X4507977D01*
X4459209D02*
X4491467D01*
X4599671Y22780D02*
X4609323D01*
X4582653D02*
X4594591D01*
X4567667D02*
X4577319D01*
X4531345D02*
X4561063D01*
X4514073D02*
X4526011D01*
X4497817D02*
X4507977D01*
X4459209D02*
X4491467D01*
X4599671Y23034D02*
X4609323D01*
X4582399D02*
X4594591D01*
X4567667D02*
X4577319D01*
X4531091D02*
X4561063D01*
X4513819D02*
X4525757D01*
X4497817D02*
X4507977D01*
X4459209D02*
X4491467D01*
X4599671Y23288D02*
X4609323D01*
X4582399D02*
X4594591D01*
X4567667D02*
X4577319D01*
X4531091D02*
X4560809D01*
X4513819D02*
X4525503D01*
X4497817D02*
X4507977D01*
X4459209D02*
X4491467D01*
X4599671Y23542D02*
X4609323D01*
X4582399D02*
X4594591D01*
X4567667D02*
X4577319D01*
X4530837D02*
X4560555D01*
X4513565D02*
X4525503D01*
X4497817D02*
X4507977D01*
X4459209D02*
X4491467D01*
X4599671Y23796D02*
X4609323D01*
X4582399D02*
X4594591D01*
X4567667D02*
X4577319D01*
X4530837D02*
X4560301D01*
X4513565D02*
X4525249D01*
X4497817D02*
X4507977D01*
X4459209D02*
X4491467D01*
X4599671Y24050D02*
X4609323D01*
X4582399D02*
X4594845D01*
X4567667D02*
X4577319D01*
X4530583D02*
X4560301D01*
X4513311D02*
X4524995D01*
X4497817D02*
X4507977D01*
X4459209D02*
X4491467D01*
X4599671Y24304D02*
X4609323D01*
X4582145D02*
X4594845D01*
X4567667D02*
X4577319D01*
X4530583D02*
X4560047D01*
X4513311D02*
X4524995D01*
X4497817D02*
X4507977D01*
X4459209D02*
X4491467D01*
X4599671Y24558D02*
X4609323D01*
X4582145D02*
X4594845D01*
X4567667D02*
X4577319D01*
X4545061D02*
X4559793D01*
X4530583D02*
X4542521D01*
X4513057D02*
X4524741D01*
X4497817D02*
X4507977D01*
X4459209D02*
X4491467D01*
X4599671Y24812D02*
X4609323D01*
X4582145D02*
X4594845D01*
X4567667D02*
X4577319D01*
X4545823D02*
X4559539D01*
X4530583D02*
X4541759D01*
X4512803D02*
X4524487D01*
X4497817D02*
X4507977D01*
X4459209D02*
X4491467D01*
X4599671Y25066D02*
X4609323D01*
X4582145D02*
X4594845D01*
X4567667D02*
X4577319D01*
X4546331D02*
X4559285D01*
X4530329D02*
X4541505D01*
X4512803D02*
X4524487D01*
X4497817D02*
X4507977D01*
X4459209D02*
X4491467D01*
X4599671Y25320D02*
X4609323D01*
X4581891D02*
X4595099D01*
X4567667D02*
X4577319D01*
X4546839D02*
X4559285D01*
X4530329D02*
X4540997D01*
X4512549D02*
X4524233D01*
X4497817D02*
X4507977D01*
X4459209D02*
X4491467D01*
X4599671Y25574D02*
X4609323D01*
X4581891D02*
X4595099D01*
X4567667D02*
X4577319D01*
X4547093D02*
X4559031D01*
X4530329D02*
X4540743D01*
X4512549D02*
X4523979D01*
X4497817D02*
X4507977D01*
X4459209D02*
X4491467D01*
X4599671Y25828D02*
X4609323D01*
X4581891D02*
X4595099D01*
X4567667D02*
X4577319D01*
X4547601D02*
X4558777D01*
X4530329D02*
X4540489D01*
X4512295D02*
X4523979D01*
X4497817D02*
X4507977D01*
X4459209D02*
X4491467D01*
X4599671Y26082D02*
X4609323D01*
X4581891D02*
X4595099D01*
X4567667D02*
X4577319D01*
X4547855D02*
X4558523D01*
X4530329D02*
X4540235D01*
X4512295D02*
X4523725D01*
X4497817D02*
X4507977D01*
X4459209D02*
X4491467D01*
X4599671Y26336D02*
X4609323D01*
X4581891D02*
X4595353D01*
X4567667D02*
X4577319D01*
X4547855D02*
X4558523D01*
X4530329D02*
X4539981D01*
X4512041D02*
X4523471D01*
X4497817D02*
X4507977D01*
X4459209D02*
X4491467D01*
X4599671Y26590D02*
X4609323D01*
X4581637D02*
X4595353D01*
X4567667D02*
X4577319D01*
X4547601D02*
X4558269D01*
X4530329D02*
X4539981D01*
X4511787D02*
X4523471D01*
X4497817D02*
X4507977D01*
X4459209D02*
X4491467D01*
X4599671Y26844D02*
X4609323D01*
X4581637D02*
X4595353D01*
X4567667D02*
X4577319D01*
X4547347D02*
X4558269D01*
X4530075D02*
X4539727D01*
X4511787D02*
X4523217D01*
X4497817D02*
X4507977D01*
X4459209D02*
X4491467D01*
X4599671Y27098D02*
X4609323D01*
X4581637D02*
X4595353D01*
X4567667D02*
X4577319D01*
X4547093D02*
X4558269D01*
X4530075D02*
X4539727D01*
X4511533D02*
X4522963D01*
X4497817D02*
X4507977D01*
X4459209D02*
X4491467D01*
X4599671Y27352D02*
X4609323D01*
X4581637D02*
X4595353D01*
X4567667D02*
X4577319D01*
X4547093D02*
X4558523D01*
X4530329D02*
X4539727D01*
X4511533D02*
X4522963D01*
X4497817D02*
X4507977D01*
X4459209D02*
X4491467D01*
X4599671Y27606D02*
X4609323D01*
X4581637D02*
X4595607D01*
X4567667D02*
X4577319D01*
X4546839D02*
X4558777D01*
X4530329D02*
X4539473D01*
X4511279D02*
X4522709D01*
X4497817D02*
X4507977D01*
X4459209D02*
X4491467D01*
X4599671Y27860D02*
X4609323D01*
X4581383D02*
X4595607D01*
X4567667D02*
X4577319D01*
X4546585D02*
X4558777D01*
X4530329D02*
X4539473D01*
X4511279D02*
X4522455D01*
X4497817D02*
X4507977D01*
X4459209D02*
X4491467D01*
X4599671Y28114D02*
X4609323D01*
X4581383D02*
X4595607D01*
X4567667D02*
X4577319D01*
X4546331D02*
X4559031D01*
X4530329D02*
X4539473D01*
X4511025D02*
X4522455D01*
X4497817D02*
X4507977D01*
X4459209D02*
X4491467D01*
X4599671Y28368D02*
X4609323D01*
X4581383D02*
X4595607D01*
X4567667D02*
X4577319D01*
X4546077D02*
X4559285D01*
X4530329D02*
X4539473D01*
X4510771D02*
X4522201D01*
X4497817D02*
X4507977D01*
X4459209D02*
X4491467D01*
X4599671Y28622D02*
X4609323D01*
X4581383D02*
X4595607D01*
X4567667D02*
X4577319D01*
X4545823D02*
X4559285D01*
X4530329D02*
X4539473D01*
X4510771D02*
X4521947D01*
X4497817D02*
X4507977D01*
X4459209D02*
X4491467D01*
X4599671Y28876D02*
X4609323D01*
X4581129D02*
X4595861D01*
X4567667D02*
X4577319D01*
X4545823D02*
X4559539D01*
X4530583D02*
X4539473D01*
X4510517D02*
X4521947D01*
X4497817D02*
X4507977D01*
X4459209D02*
X4491467D01*
X4599671Y29130D02*
X4609323D01*
X4581129D02*
X4595861D01*
X4567667D02*
X4577319D01*
X4545569D02*
X4559793D01*
X4530583D02*
X4539473D01*
X4510517D02*
X4521693D01*
X4497817D02*
X4507977D01*
X4459209D02*
X4491467D01*
X4599671Y29384D02*
X4609323D01*
X4581129D02*
X4595861D01*
X4567667D02*
X4577319D01*
X4545315D02*
X4559793D01*
X4530583D02*
X4539473D01*
X4510263D02*
X4521439D01*
X4497817D02*
X4507977D01*
X4459209D02*
X4491467D01*
X4599671Y29638D02*
X4609323D01*
X4581129D02*
X4595861D01*
X4567667D02*
X4577319D01*
X4545061D02*
X4560047D01*
X4530583D02*
X4539727D01*
X4510263D02*
X4521439D01*
X4497817D02*
X4507977D01*
X4459209D02*
X4491467D01*
X4599671Y29892D02*
X4609323D01*
X4581129D02*
X4596115D01*
X4567667D02*
X4577319D01*
X4544807D02*
X4560047D01*
X4530837D02*
X4539727D01*
X4510009D02*
X4521185D01*
X4497817D02*
X4507977D01*
X4599671Y30146D02*
X4609323D01*
X4580875D02*
X4596115D01*
X4567667D02*
X4577319D01*
X4544807D02*
X4560301D01*
X4530837D02*
X4539727D01*
X4510009D02*
X4520931D01*
X4497817D02*
X4507977D01*
X4599671Y30400D02*
X4609323D01*
X4580875D02*
X4596115D01*
X4567667D02*
X4577319D01*
X4544553D02*
X4560555D01*
X4530837D02*
X4539981D01*
X4509755D02*
X4520931D01*
X4497817D02*
X4507977D01*
X4599671Y30654D02*
X4609323D01*
X4588749D02*
X4596115D01*
X4580875D02*
X4588241D01*
X4567667D02*
X4577319D01*
X4544299D02*
X4560555D01*
X4531091D02*
X4540235D01*
X4509501D02*
X4520677D01*
X4497817D02*
X4507977D01*
X4599671Y30908D02*
X4609323D01*
X4588749D02*
X4596115D01*
X4580875D02*
X4588241D01*
X4567667D02*
X4577319D01*
X4544045D02*
X4560809D01*
X4531091D02*
X4540235D01*
X4509501D02*
X4520423D01*
X4497817D02*
X4507977D01*
X4599671Y31162D02*
X4609323D01*
X4588749D02*
X4596369D01*
X4580621D02*
X4588241D01*
X4567667D02*
X4577319D01*
X4543791D02*
X4560809D01*
X4531345D02*
X4540489D01*
X4509247D02*
X4520423D01*
X4497817D02*
X4507977D01*
X4599671Y31416D02*
X4609323D01*
X4588749D02*
X4596369D01*
X4580621D02*
X4588241D01*
X4567667D02*
X4577319D01*
X4543537D02*
X4560809D01*
X4531345D02*
X4540743D01*
X4509247D02*
X4520169D01*
X4497817D02*
X4507977D01*
X4599671Y31670D02*
X4609323D01*
X4588749D02*
X4596369D01*
X4580621D02*
X4588241D01*
X4567667D02*
X4577319D01*
X4543537D02*
X4560809D01*
X4531599D02*
X4540997D01*
X4508993D02*
X4519915D01*
X4497817D02*
X4507977D01*
X4599671Y31924D02*
X4609323D01*
X4589003D02*
X4596369D01*
X4580621D02*
X4588241D01*
X4567667D02*
X4577319D01*
X4543283D02*
X4560809D01*
X4531599D02*
X4541251D01*
X4508993D02*
X4519915D01*
X4497817D02*
X4507977D01*
X4459209D02*
X4491467D01*
X4599671Y32178D02*
X4609323D01*
X4589003D02*
X4596623D01*
X4580621D02*
X4587987D01*
X4567667D02*
X4577319D01*
X4554459D02*
X4560809D01*
X4543029D02*
X4553951D01*
X4531853D02*
X4541505D01*
X4508739D02*
X4519661D01*
X4497817D02*
X4507977D01*
X4459209D02*
X4491467D01*
X4599671Y32432D02*
X4609323D01*
X4589003D02*
X4596623D01*
X4580367D02*
X4587987D01*
X4567667D02*
X4577319D01*
X4554713D02*
X4560809D01*
X4542775D02*
X4553697D01*
X4531853D02*
X4541759D01*
X4508485D02*
X4519407D01*
X4497817D02*
X4507977D01*
X4459209D02*
X4491467D01*
X4599671Y32686D02*
X4609323D01*
X4589003D02*
X4596623D01*
X4580367D02*
X4587987D01*
X4567667D02*
X4577319D01*
X4554967D02*
X4560809D01*
X4542521D02*
X4553443D01*
X4532107D02*
X4542013D01*
X4508485D02*
X4519407D01*
X4497817D02*
X4507977D01*
X4459209D02*
X4491467D01*
X4599671Y32940D02*
X4609323D01*
X4589003D02*
X4596623D01*
X4580367D02*
X4587987D01*
X4567667D02*
X4577319D01*
X4554967D02*
X4560809D01*
X4532361D02*
X4553189D01*
X4508231D02*
X4519153D01*
X4497817D02*
X4507977D01*
X4459209D02*
X4491467D01*
X4599671Y33194D02*
X4609323D01*
X4589257D02*
X4596623D01*
X4580367D02*
X4587987D01*
X4567667D02*
X4577319D01*
X4555221D02*
X4560809D01*
X4532615D02*
X4552935D01*
X4508231D02*
X4518899D01*
X4497817D02*
X4507977D01*
X4459209D02*
X4491467D01*
X4599671Y33448D02*
X4609323D01*
X4589257D02*
X4596877D01*
X4580367D02*
X4587733D01*
X4567667D02*
X4577319D01*
X4555475D02*
X4560809D01*
X4532615D02*
X4552935D01*
X4497817D02*
X4518899D01*
X4459209D02*
X4491467D01*
X4599671Y33702D02*
X4609323D01*
X4589257D02*
X4596877D01*
X4580113D02*
X4587733D01*
X4567667D02*
X4577319D01*
X4555475D02*
X4560809D01*
X4532869D02*
X4552681D01*
X4497817D02*
X4518645D01*
X4459209D02*
X4491467D01*
X4599671Y33956D02*
X4609323D01*
X4589257D02*
X4596877D01*
X4580113D02*
X4587733D01*
X4567667D02*
X4577319D01*
X4555729D02*
X4560809D01*
X4533123D02*
X4552427D01*
X4497817D02*
X4518391D01*
X4459209D02*
X4491467D01*
X4599671Y34210D02*
X4609323D01*
X4589257D02*
X4596877D01*
X4580113D02*
X4587733D01*
X4567667D02*
X4577319D01*
X4555983D02*
X4560809D01*
X4533377D02*
X4552173D01*
X4497817D02*
X4518391D01*
X4459209D02*
X4491467D01*
X4599671Y34464D02*
X4609323D01*
X4589511D02*
X4596877D01*
X4580113D02*
X4587733D01*
X4567667D02*
X4577319D01*
X4555983D02*
X4560809D01*
X4533631D02*
X4551919D01*
X4497817D02*
X4518137D01*
X4459209D02*
X4491467D01*
X4599671Y34718D02*
X4609323D01*
X4589511D02*
X4597131D01*
X4579859D02*
X4587479D01*
X4567667D02*
X4577319D01*
X4556237D02*
X4560809D01*
X4533885D02*
X4551919D01*
X4497817D02*
X4517883D01*
X4459209D02*
X4491467D01*
X4599671Y34972D02*
X4609323D01*
X4589511D02*
X4597131D01*
X4579859D02*
X4587479D01*
X4567667D02*
X4577319D01*
X4556491D02*
X4560809D01*
X4534139D02*
X4551665D01*
X4497817D02*
X4517883D01*
X4459209D02*
X4491467D01*
X4599671Y35226D02*
X4609323D01*
X4589511D02*
X4597131D01*
X4579859D02*
X4587479D01*
X4567667D02*
X4577319D01*
X4556491D02*
X4560809D01*
X4534393D02*
X4551411D01*
X4497817D02*
X4519915D01*
X4459209D02*
X4491467D01*
X4599671Y35480D02*
X4609323D01*
X4589511D02*
X4597131D01*
X4579859D02*
X4587479D01*
X4567667D02*
X4577319D01*
X4556745D02*
X4560809D01*
X4534647D02*
X4551157D01*
X4497817D02*
X4520931D01*
X4459209D02*
X4491467D01*
X4599671Y35734D02*
X4609323D01*
X4589765D02*
X4597385D01*
X4579859D02*
X4587479D01*
X4567667D02*
X4577319D01*
X4556745D02*
X4560809D01*
X4534901D02*
X4550903D01*
X4497817D02*
X4521693D01*
X4459209D02*
X4491467D01*
X4599671Y35988D02*
X4609323D01*
X4589765D02*
X4597385D01*
X4579605D02*
X4587479D01*
X4567667D02*
X4577319D01*
X4556999D02*
X4560809D01*
X4535155D02*
X4550649D01*
X4497817D02*
X4522201D01*
X4459209D02*
X4491467D01*
X4599671Y36242D02*
X4609323D01*
X4589765D02*
X4597385D01*
X4579605D02*
X4587225D01*
X4567667D02*
X4577319D01*
X4557253D02*
X4560809D01*
X4535409D02*
X4550649D01*
X4497817D02*
X4522709D01*
X4459209D02*
X4491467D01*
X4599671Y36496D02*
X4609323D01*
X4589765D02*
X4597385D01*
X4579605D02*
X4587225D01*
X4567667D02*
X4577319D01*
X4557253D02*
X4560809D01*
X4535917D02*
X4550395D01*
X4497817D02*
X4523217D01*
X4459209D02*
X4491467D01*
X4599671Y36750D02*
X4609323D01*
X4589765D02*
X4597385D01*
X4579605D02*
X4587225D01*
X4567667D02*
X4577319D01*
X4557507D02*
X4560809D01*
X4536171D02*
X4550141D01*
X4497817D02*
X4523471D01*
X4459209D02*
X4491467D01*
X4599671Y37004D02*
X4609323D01*
X4590019D02*
X4597639D01*
X4579605D02*
X4587225D01*
X4567667D02*
X4577319D01*
X4557507D02*
X4560809D01*
X4536425D02*
X4549887D01*
X4497817D02*
X4523979D01*
X4459209D02*
X4491467D01*
X4599671Y37258D02*
X4609323D01*
X4590019D02*
X4597639D01*
X4579351D02*
X4587225D01*
X4567667D02*
X4577319D01*
X4557761D02*
X4560809D01*
X4536679D02*
X4549633D01*
X4497817D02*
X4524233D01*
X4459209D02*
X4491467D01*
X4599671Y37512D02*
X4609323D01*
X4590019D02*
X4597639D01*
X4579351D02*
X4586971D01*
X4567667D02*
X4577319D01*
X4558015D02*
X4560809D01*
X4537187D02*
X4549379D01*
X4497817D02*
X4524487D01*
X4459209D02*
X4491467D01*
X4599671Y37766D02*
X4609323D01*
X4590019D02*
X4597639D01*
X4579351D02*
X4586971D01*
X4567667D02*
X4577319D01*
X4558015D02*
X4560809D01*
X4537441D02*
X4549379D01*
X4497817D02*
X4524741D01*
X4459209D02*
X4491467D01*
X4599671Y38020D02*
X4609323D01*
X4590019D02*
X4597639D01*
X4579351D02*
X4586971D01*
X4567667D02*
X4577319D01*
X4558269D02*
X4560809D01*
X4537949D02*
X4549633D01*
X4497817D02*
X4524995D01*
X4459209D02*
X4491467D01*
X4599671Y38274D02*
X4609323D01*
X4590019D02*
X4597893D01*
X4579097D02*
X4586971D01*
X4567667D02*
X4577319D01*
X4558269D02*
X4560809D01*
X4537949D02*
X4549887D01*
X4497817D02*
X4525249D01*
X4459209D02*
X4491467D01*
X4599671Y38528D02*
X4609323D01*
X4590273D02*
X4597893D01*
X4579097D02*
X4586971D01*
X4567667D02*
X4577319D01*
X4558523D02*
X4560809D01*
X4537695D02*
X4550141D01*
X4497817D02*
X4525503D01*
X4459209D02*
X4491467D01*
X4599671Y38782D02*
X4609323D01*
X4590273D02*
X4597893D01*
X4579097D02*
X4586717D01*
X4567667D02*
X4577319D01*
X4558523D02*
X4560809D01*
X4537441D02*
X4550649D01*
X4497817D02*
X4525757D01*
X4459209D02*
X4491467D01*
X4599671Y39036D02*
X4609323D01*
X4590273D02*
X4597893D01*
X4579097D02*
X4586717D01*
X4567667D02*
X4577319D01*
X4558777D02*
X4560809D01*
X4537441D02*
X4550903D01*
X4497817D02*
X4525757D01*
X4459209D02*
X4491467D01*
X4599671Y39290D02*
X4609323D01*
X4590273D02*
X4598147D01*
X4579097D02*
X4586717D01*
X4567667D02*
X4577319D01*
X4558777D02*
X4560809D01*
X4537187D02*
X4551157D01*
X4497817D02*
X4526011D01*
X4459209D02*
X4491467D01*
X4599671Y39544D02*
X4609323D01*
X4590273D02*
X4598147D01*
X4578843D02*
X4586717D01*
X4567667D02*
X4577319D01*
X4559031D02*
X4560809D01*
X4536933D02*
X4551411D01*
X4497817D02*
X4526265D01*
X4459209D02*
X4491467D01*
X4599671Y39798D02*
X4609323D01*
X4590527D02*
X4598147D01*
X4578843D02*
X4586717D01*
X4567667D02*
X4577319D01*
X4559031D02*
X4560809D01*
X4536679D02*
X4551665D01*
X4514835D02*
X4526265D01*
X4497817D02*
X4507977D01*
X4459209D02*
X4491467D01*
X4599671Y40052D02*
X4609323D01*
X4590527D02*
X4598147D01*
X4578843D02*
X4586717D01*
X4567667D02*
X4577319D01*
X4559285D02*
X4560809D01*
X4536425D02*
X4551919D01*
X4515597D02*
X4526519D01*
X4497817D02*
X4507977D01*
X4459209D02*
X4491467D01*
X4599671Y40306D02*
X4609323D01*
X4590527D02*
X4598147D01*
X4578843D02*
X4586463D01*
X4567667D02*
X4577319D01*
X4559285D02*
X4560809D01*
X4536171D02*
X4552173D01*
X4516105D02*
X4526519D01*
X4497817D02*
X4507977D01*
X4459209D02*
X4491467D01*
X4599671Y40560D02*
X4609323D01*
X4590527D02*
X4598401D01*
X4578589D02*
X4586463D01*
X4567667D02*
X4577319D01*
X4559539D02*
X4560809D01*
X4535917D02*
X4552427D01*
X4516359D02*
X4526773D01*
X4497817D02*
X4507977D01*
X4459209D02*
X4491467D01*
X4599671Y40814D02*
X4609323D01*
X4590527D02*
X4598401D01*
X4578589D02*
X4586463D01*
X4567667D02*
X4577319D01*
X4559539D02*
X4560809D01*
X4535917D02*
X4552681D01*
X4516613D02*
X4526773D01*
X4497817D02*
X4507977D01*
X4459209D02*
X4491467D01*
X4599671Y41068D02*
X4609323D01*
X4590781D02*
X4598401D01*
X4578589D02*
X4586463D01*
X4567667D02*
X4577319D01*
X4559793D02*
X4560809D01*
X4535663D02*
X4552935D01*
X4516867D02*
X4527027D01*
X4497817D02*
X4507977D01*
X4459209D02*
X4491467D01*
X4599671Y41322D02*
X4609323D01*
X4590781D02*
X4598401D01*
X4578589D02*
X4586463D01*
X4567667D02*
X4577319D01*
X4559793D02*
X4560809D01*
X4535409D02*
X4553189D01*
X4517121D02*
X4527027D01*
X4497817D02*
X4507977D01*
X4459209D02*
X4491467D01*
X4599671Y41576D02*
X4609323D01*
X4590781D02*
X4598655D01*
X4578589D02*
X4586209D01*
X4567667D02*
X4577319D01*
X4560047D02*
X4560809D01*
X4535409D02*
X4553189D01*
X4517375D02*
X4527281D01*
X4497817D02*
X4507977D01*
X4459209D02*
X4491467D01*
X4599671Y41830D02*
X4609323D01*
X4590781D02*
X4598655D01*
X4578335D02*
X4586209D01*
X4567667D02*
X4577319D01*
X4560047D02*
X4560809D01*
X4535155D02*
X4553443D01*
X4517375D02*
X4527281D01*
X4497817D02*
X4507977D01*
X4459209D02*
X4491467D01*
X4599671Y42084D02*
X4609323D01*
X4590781D02*
X4598655D01*
X4578335D02*
X4586209D01*
X4567667D02*
X4577319D01*
X4560301D02*
X4560809D01*
X4534901D02*
X4553697D01*
X4517375D02*
X4527281D01*
X4497817D02*
X4507977D01*
X4459209D02*
X4491467D01*
X4599671Y42338D02*
X4609323D01*
X4591035D02*
X4598655D01*
X4578335D02*
X4586209D01*
X4567667D02*
X4577319D01*
X4560301D02*
X4560809D01*
X4534901D02*
X4553951D01*
X4517629D02*
X4527535D01*
X4497817D02*
X4507977D01*
X4459209D02*
X4491467D01*
X4599671Y42592D02*
X4609323D01*
X4591035D02*
X4598655D01*
X4578335D02*
X4586209D01*
X4567667D02*
X4577319D01*
X4560301D02*
X4560809D01*
X4545061D02*
X4554205D01*
X4534647D02*
X4544553D01*
X4517629D02*
X4527535D01*
X4497817D02*
X4507977D01*
X4459209D02*
X4491467D01*
X4599671Y42846D02*
X4609323D01*
X4591035D02*
X4598909D01*
X4578335D02*
X4585955D01*
X4567667D02*
X4577319D01*
X4560555D02*
X4560809D01*
X4545315D02*
X4554205D01*
X4534647D02*
X4544299D01*
X4517629D02*
X4527535D01*
X4497817D02*
X4507977D01*
X4459209D02*
X4491467D01*
X4599671Y43100D02*
X4609323D01*
X4591035D02*
X4598909D01*
X4578081D02*
X4585955D01*
X4567667D02*
X4577319D01*
X4545569D02*
X4554459D01*
X4534393D02*
X4544045D01*
X4517629D02*
X4527535D01*
X4497817D02*
X4507977D01*
X4459209D02*
X4491467D01*
X4599671Y43354D02*
X4609323D01*
X4591035D02*
X4598909D01*
X4578081D02*
X4585955D01*
X4567667D02*
X4577319D01*
X4545823D02*
X4554459D01*
X4534393D02*
X4544045D01*
X4517629D02*
X4527789D01*
X4497817D02*
X4507977D01*
X4599671Y43608D02*
X4609323D01*
X4591289D02*
X4598909D01*
X4578081D02*
X4585955D01*
X4567667D02*
X4577319D01*
X4546077D02*
X4554713D01*
X4534139D02*
X4543791D01*
X4517629D02*
X4527789D01*
X4497817D02*
X4507977D01*
X4599671Y43862D02*
X4609323D01*
X4591289D02*
X4598909D01*
X4578081D02*
X4585955D01*
X4567667D02*
X4577319D01*
X4546331D02*
X4554967D01*
X4534139D02*
X4543537D01*
X4517629D02*
X4527789D01*
X4497817D02*
X4507977D01*
X4599671Y44116D02*
X4609323D01*
X4591289D02*
X4599163D01*
X4577827D02*
X4585955D01*
X4567667D02*
X4577319D01*
X4546585D02*
X4554967D01*
X4534139D02*
X4543283D01*
X4517629D02*
X4527789D01*
X4497817D02*
X4507977D01*
X4599671Y44370D02*
X4609323D01*
X4591289D02*
X4599163D01*
X4577827D02*
X4585701D01*
X4567667D02*
X4577319D01*
X4546839D02*
X4555221D01*
X4533885D02*
X4543283D01*
X4517629D02*
X4527789D01*
X4497817D02*
X4507977D01*
X4599671Y44624D02*
X4609323D01*
X4591289D02*
X4599163D01*
X4577827D02*
X4585701D01*
X4567667D02*
X4577319D01*
X4547093D02*
X4555221D01*
X4533885D02*
X4543029D01*
X4517629D02*
X4528043D01*
X4497817D02*
X4507977D01*
X4599671Y44878D02*
X4609323D01*
X4591543D02*
X4599163D01*
X4577827D02*
X4585701D01*
X4567667D02*
X4577319D01*
X4547093D02*
X4555221D01*
X4533885D02*
X4543029D01*
X4517629D02*
X4528043D01*
X4497817D02*
X4507977D01*
X4599671Y45132D02*
X4609323D01*
X4591543D02*
X4599417D01*
X4577827D02*
X4585701D01*
X4567667D02*
X4577319D01*
X4547347D02*
X4555475D01*
X4533885D02*
X4542775D01*
X4517629D02*
X4528043D01*
X4497817D02*
X4507977D01*
X4599671Y45386D02*
X4609323D01*
X4591543D02*
X4599417D01*
X4577573D02*
X4585701D01*
X4567667D02*
X4577319D01*
X4547347D02*
X4555475D01*
X4533631D02*
X4542775D01*
X4517629D02*
X4528043D01*
X4497817D02*
X4507977D01*
X4459209D02*
X4491467D01*
X4599671Y45640D02*
X4609323D01*
X4591543D02*
X4599417D01*
X4577573D02*
X4585447D01*
X4567667D02*
X4577319D01*
X4547601D02*
X4555729D01*
X4533631D02*
X4542521D01*
X4517375D02*
X4528043D01*
X4497817D02*
X4507977D01*
X4459209D02*
X4491467D01*
X4599671Y45894D02*
X4609323D01*
X4591543D02*
X4599417D01*
X4577573D02*
X4585447D01*
X4567667D02*
X4577319D01*
X4547601D02*
X4555729D01*
X4533631D02*
X4542521D01*
X4517375D02*
X4528043D01*
X4497817D02*
X4507977D01*
X4459209D02*
X4491467D01*
X4599671Y46148D02*
X4609323D01*
X4591797D02*
X4599417D01*
X4577573D02*
X4585447D01*
X4567667D02*
X4577319D01*
X4547601D02*
X4555729D01*
X4533631D02*
X4542521D01*
X4517121D02*
X4528043D01*
X4497817D02*
X4507977D01*
X4459209D02*
X4491467D01*
X4591797Y46402D02*
X4609323D01*
X4577573D02*
X4585447D01*
X4567667D02*
X4577319D01*
X4547601D02*
X4555729D01*
X4533631D02*
X4542521D01*
X4516867D02*
X4528043D01*
X4497817D02*
X4507977D01*
X4459209D02*
X4491467D01*
X4591797Y46656D02*
X4609323D01*
X4567667D02*
X4585447D01*
X4547601D02*
X4555983D01*
X4533377D02*
X4542521D01*
X4516613D02*
X4528043D01*
X4497817D02*
X4507977D01*
X4459209D02*
X4491467D01*
X4591797Y46910D02*
X4609323D01*
X4567667D02*
X4585193D01*
X4547601D02*
X4555983D01*
X4533377D02*
X4542521D01*
X4516105D02*
X4528043D01*
X4497817D02*
X4507977D01*
X4459209D02*
X4491467D01*
X4591797Y47164D02*
X4609323D01*
X4567667D02*
X4585193D01*
X4547601D02*
X4555983D01*
X4533377D02*
X4542521D01*
X4515089D02*
X4528043D01*
X4497817D02*
X4507977D01*
X4459209D02*
X4491467D01*
X4591797Y47418D02*
X4609323D01*
X4567667D02*
X4585193D01*
X4547601D02*
X4555983D01*
X4533377D02*
X4542521D01*
X4497817D02*
X4528043D01*
X4459209D02*
X4491467D01*
X4592051Y47672D02*
X4609323D01*
X4567667D02*
X4585193D01*
X4547601D02*
X4555983D01*
X4533377D02*
X4542521D01*
X4497817D02*
X4528043D01*
X4459209D02*
X4491467D01*
X4592051Y47926D02*
X4609323D01*
X4567667D02*
X4585193D01*
X4547601D02*
X4555983D01*
X4533377D02*
X4542521D01*
X4497817D02*
X4528043D01*
X4459209D02*
X4491467D01*
X4592051Y48180D02*
X4609323D01*
X4567667D02*
X4585193D01*
X4547601D02*
X4555983D01*
X4533377D02*
X4542775D01*
X4497817D02*
X4528043D01*
X4459209D02*
X4491467D01*
X4592051Y48434D02*
X4609323D01*
X4567667D02*
X4584939D01*
X4547347D02*
X4555983D01*
X4533377D02*
X4542775D01*
X4497817D02*
X4528043D01*
X4459209D02*
X4491467D01*
X4592051Y48688D02*
X4609323D01*
X4567667D02*
X4584939D01*
X4547093D02*
X4555983D01*
X4533377D02*
X4543029D01*
X4497817D02*
X4528043D01*
X4459209D02*
X4491467D01*
X4592305Y48942D02*
X4609323D01*
X4567667D02*
X4584939D01*
X4547093D02*
X4555983D01*
X4533377D02*
X4543283D01*
X4497817D02*
X4527789D01*
X4459209D02*
X4491467D01*
X4592305Y49196D02*
X4609323D01*
X4567667D02*
X4584939D01*
X4546585D02*
X4555983D01*
X4533377D02*
X4543791D01*
X4497817D02*
X4527789D01*
X4459209D02*
X4491467D01*
X4592305Y49450D02*
X4609323D01*
X4567667D02*
X4584939D01*
X4546077D02*
X4555983D01*
X4533631D02*
X4544299D01*
X4497817D02*
X4527789D01*
X4459209D02*
X4491467D01*
X4592305Y49704D02*
X4609323D01*
X4567667D02*
X4584685D01*
X4533631D02*
X4555983D01*
X4497817D02*
X4527789D01*
X4459209D02*
X4491467D01*
X4592305Y49958D02*
X4609323D01*
X4567667D02*
X4584685D01*
X4533631D02*
X4555983D01*
X4497817D02*
X4527789D01*
X4459209D02*
X4491467D01*
X4592559Y50212D02*
X4609323D01*
X4567667D02*
X4584685D01*
X4533631D02*
X4555983D01*
X4497817D02*
X4527535D01*
X4459209D02*
X4491467D01*
X4592559Y50466D02*
X4609323D01*
X4567667D02*
X4584685D01*
X4533885D02*
X4555983D01*
X4497817D02*
X4527535D01*
X4459209D02*
X4491467D01*
X4592559Y50720D02*
X4609323D01*
X4567667D02*
X4584685D01*
X4533885D02*
X4555729D01*
X4497817D02*
X4527535D01*
X4459209D02*
X4491467D01*
X4592559Y50974D02*
X4609323D01*
X4567667D02*
X4584431D01*
X4533885D02*
X4555729D01*
X4497817D02*
X4527281D01*
X4459209D02*
X4491467D01*
X4592559Y51228D02*
X4609323D01*
X4567667D02*
X4584431D01*
X4534139D02*
X4555729D01*
X4497817D02*
X4527281D01*
X4459209D02*
X4491467D01*
X4592813Y51482D02*
X4609323D01*
X4567667D02*
X4584431D01*
X4534139D02*
X4555729D01*
X4497817D02*
X4527281D01*
X4459209D02*
X4491467D01*
X4592813Y51736D02*
X4609323D01*
X4567667D02*
X4584431D01*
X4534139D02*
X4555475D01*
X4497817D02*
X4527027D01*
X4459209D02*
X4491467D01*
X4592813Y51990D02*
X4609323D01*
X4567667D02*
X4584431D01*
X4534393D02*
X4555475D01*
X4497817D02*
X4527027D01*
X4459209D02*
X4491467D01*
X4592813Y52244D02*
X4609323D01*
X4567667D02*
X4584431D01*
X4534647D02*
X4555221D01*
X4497817D02*
X4526773D01*
X4459209D02*
X4491467D01*
X4592813Y52498D02*
X4609323D01*
X4567667D02*
X4584177D01*
X4534647D02*
X4555221D01*
X4497817D02*
X4526773D01*
X4459209D02*
X4491467D01*
X4593067Y52752D02*
X4609323D01*
X4567667D02*
X4584177D01*
X4534901D02*
X4554967D01*
X4497817D02*
X4526519D01*
X4459209D02*
X4491467D01*
X4593067Y53006D02*
X4609323D01*
X4567667D02*
X4584177D01*
X4535155D02*
X4554967D01*
X4497817D02*
X4526519D01*
X4459209D02*
X4491467D01*
X4593067Y53260D02*
X4609323D01*
X4567667D02*
X4584177D01*
X4535409D02*
X4554713D01*
X4497817D02*
X4526265D01*
X4459209D02*
X4491467D01*
X4593067Y53514D02*
X4609323D01*
X4567667D02*
X4584177D01*
X4535663D02*
X4554459D01*
X4497817D02*
X4526011D01*
X4459209D02*
X4491467D01*
X4593067Y53768D02*
X4609323D01*
X4567667D02*
X4583923D01*
X4535917D02*
X4554205D01*
X4497817D02*
X4525757D01*
X4459209D02*
X4491467D01*
X4593321Y54022D02*
X4609323D01*
X4567667D02*
X4583923D01*
X4536171D02*
X4553951D01*
X4497817D02*
X4525503D01*
X4459209D02*
X4491467D01*
X4593321Y54276D02*
X4609323D01*
X4567667D02*
X4583923D01*
X4536425D02*
X4553697D01*
X4497817D02*
X4525249D01*
X4459209D02*
X4491467D01*
X4593321Y54530D02*
X4609323D01*
X4567667D02*
X4583923D01*
X4536679D02*
X4553443D01*
X4497817D02*
X4524995D01*
X4459209D02*
X4491467D01*
X4593321Y54784D02*
X4609323D01*
X4567667D02*
X4583923D01*
X4537187D02*
X4553189D01*
X4497817D02*
X4524741D01*
X4459209D02*
X4491467D01*
X4593321Y55038D02*
X4609323D01*
X4567667D02*
X4583669D01*
X4537441D02*
X4552681D01*
X4497817D02*
X4524487D01*
X4459209D02*
X4491467D01*
X4593575Y55292D02*
X4609323D01*
X4567667D02*
X4583669D01*
X4537949D02*
X4552427D01*
X4497817D02*
X4523979D01*
X4459209D02*
X4491467D01*
X4593575Y55546D02*
X4609323D01*
X4567667D02*
X4583669D01*
X4538457D02*
X4551919D01*
X4497817D02*
X4523471D01*
X4459209D02*
X4491467D01*
X4593575Y55800D02*
X4609323D01*
X4567667D02*
X4583669D01*
X4538965D02*
X4551411D01*
X4497817D02*
X4522963D01*
X4459209D02*
X4491467D01*
X4593575Y56054D02*
X4609323D01*
X4567667D02*
X4583669D01*
X4539727D02*
X4550649D01*
X4497817D02*
X4522201D01*
X4459209D02*
X4491467D01*
X4593575Y56308D02*
X4609323D01*
X4567667D02*
X4583669D01*
X4540489D02*
X4550141D01*
X4497817D02*
X4521439D01*
X4459209D02*
X4491467D01*
X4593575Y56562D02*
X4609323D01*
X4567667D02*
X4583415D01*
X4541251D02*
X4549125D01*
X4497817D02*
X4520423D01*
X4459209D02*
X4491467D01*
X4593829Y56816D02*
X4609323D01*
X4567667D02*
X4583415D01*
X4542775D02*
X4547855D01*
X4497817D02*
X4518899D01*
X4459209D02*
X4491467D01*
D13*
X2698268Y41488D02*
X2709268D01*
Y33488D02*
Y41488D01*
Y20488D02*
Y28488D01*
X2698268Y20488D02*
X2709268D01*
X2698268D02*
Y28488D01*
Y33488D02*
Y41488D01*
X2711222Y20488D02*
X2722222D01*
X2711222D02*
Y28488D01*
Y33488D02*
Y41488D01*
X2722222D01*
Y33488D02*
Y41488D01*
Y20488D02*
Y28488D01*
X2982492Y56730D02*
Y67730D01*
X2974492Y56730D02*
X2982492D01*
X2961492D02*
X2969492D01*
X2961492D02*
Y67730D01*
X2969492D01*
X2974492D02*
X2982492D01*
X2754371Y48653D02*
Y56653D01*
Y35654D02*
Y43653D01*
Y35654D02*
X2764371D01*
Y43653D01*
Y48653D02*
Y56653D01*
X2754371D02*
X2764371D01*
X2775801Y35654D02*
Y43653D01*
Y48653D02*
Y56653D01*
X2765801D02*
X2775801D01*
X2765801Y48653D02*
Y56653D01*
Y35654D02*
Y43653D01*
Y35654D02*
X2775801D01*
X2877761Y103028D02*
Y111028D01*
Y116028D02*
Y124028D01*
X2867761D02*
X2877761D01*
X2867761Y116028D02*
Y124028D01*
Y103028D02*
Y111028D01*
Y103028D02*
X2877761D01*
X2912568Y103848D02*
Y111848D01*
Y90848D02*
Y98848D01*
Y90848D02*
X2922568D01*
Y98848D01*
Y103848D02*
Y111848D01*
X2912568D02*
X2922568D01*
X2810274Y48474D02*
Y56474D01*
Y35474D02*
Y43474D01*
Y35474D02*
X2820274D01*
Y43474D01*
Y48474D02*
Y56474D01*
X2810274D02*
X2820274D01*
X2808844Y35474D02*
Y43474D01*
Y48474D02*
Y56474D01*
X2798844D02*
X2808844D01*
X2798844Y48474D02*
Y56474D01*
Y35474D02*
Y43474D01*
Y35474D02*
X2808844D01*
X2860755Y18720D02*
X2868755D01*
X2847755D02*
X2855755D01*
X2847755Y8720D02*
Y18720D01*
Y8720D02*
X2855755D01*
X2860755D02*
X2868755D01*
Y18720D01*
X2789930Y49444D02*
X2797930D01*
X2776930D02*
X2784930D01*
X2776930Y39444D02*
Y49444D01*
Y39444D02*
X2784930D01*
X2789930D02*
X2797930D01*
Y49444D01*
X2860755Y43100D02*
X2868755D01*
X2847755D02*
X2855755D01*
X2847755Y33100D02*
Y43100D01*
Y33100D02*
X2855755D01*
X2860755D02*
X2868755D01*
Y43100D01*
X2826081Y68752D02*
X2834081D01*
X2839081D02*
X2847080D01*
Y78752D01*
X2839081D02*
X2847080D01*
X2826081D02*
X2834081D01*
X2826081Y68752D02*
Y78752D01*
X2861462Y67230D02*
X2869462D01*
X2848462D02*
X2856462D01*
X2848462Y57230D02*
Y67230D01*
Y57230D02*
X2856462D01*
X2861462D02*
X2869462D01*
Y67230D01*
X2877912Y79892D02*
Y87892D01*
Y92892D02*
Y100892D01*
X2867912D02*
X2877912D01*
X2867912Y92892D02*
Y100892D01*
Y79892D02*
Y87892D01*
Y79892D02*
X2877912D01*
X2883471Y14394D02*
X2891471D01*
X2870471D02*
X2878471D01*
X2870471Y4394D02*
Y14394D01*
Y4394D02*
X2878471D01*
X2883471D02*
X2891471D01*
Y14394D01*
X2684859Y20702D02*
Y28702D01*
Y33702D02*
Y41702D01*
X2674859D02*
X2684859D01*
X2674859Y33702D02*
Y41702D01*
Y20702D02*
Y28702D01*
Y20702D02*
X2684859D01*
X2860755Y31202D02*
X2868755D01*
X2847755D02*
X2855755D01*
X2847755Y21202D02*
Y31202D01*
Y21202D02*
X2855755D01*
X2860755D02*
X2868755D01*
Y31202D01*
X2826081Y57323D02*
X2834081D01*
X2839081D02*
X2847080D01*
Y67323D01*
X2839081D02*
X2847080D01*
X2826081D02*
X2834081D01*
X2826081Y57323D02*
Y67323D01*
X2861462Y78752D02*
X2869462D01*
X2848462D02*
X2856462D01*
X2848462Y68752D02*
Y78752D01*
Y68752D02*
X2856462D01*
X2861462D02*
X2869462D01*
Y78752D01*
X2863708Y80037D02*
Y88037D01*
Y93037D02*
Y101037D01*
X2853708D02*
X2863708D01*
X2853708Y93037D02*
Y101037D01*
Y80037D02*
Y88037D01*
Y80037D02*
X2863708D01*
X2893398Y4345D02*
X2901398D01*
X2906398D02*
X2914398D01*
Y14345D01*
X2906398D02*
X2914398D01*
X2893398D02*
X2901398D01*
X2893398Y4345D02*
Y14345D01*
X2748896Y53083D02*
Y63083D01*
X2740897Y53083D02*
X2748896D01*
X2727896D02*
X2735897D01*
X2727896D02*
Y63083D01*
X2735897D01*
X2740897D02*
X2748896D01*
X2686449Y20701D02*
X2696449D01*
X2686449D02*
Y28702D01*
Y33702D02*
Y41701D01*
X2696449D01*
Y33702D02*
Y41701D01*
Y20701D02*
Y28702D01*
X2724236Y41488D02*
X2735236D01*
Y33488D02*
Y41488D01*
Y20488D02*
Y28488D01*
X2724236Y20488D02*
X2735236D01*
X2724236D02*
Y28488D01*
Y33488D02*
Y41488D01*
X2737928Y20488D02*
X2748928D01*
X2737928D02*
Y28488D01*
Y33488D02*
Y41488D01*
X2748928D01*
Y33488D02*
Y41488D01*
Y20488D02*
Y28488D01*
X956463Y85977D02*
Y95977D01*
X946864Y85977D02*
Y95977D01*
X969164Y85736D02*
Y95736D01*
X959564Y85736D02*
Y95736D01*
Y111081D02*
Y121081D01*
X969164Y111081D02*
Y121081D01*
X957163Y104700D02*
Y112700D01*
Y117700D02*
Y125700D01*
X946164D02*
X957163D01*
X946164Y117700D02*
Y125700D01*
Y104700D02*
Y112700D01*
Y104700D02*
X957163D01*
X2793418Y21876D02*
X2793442Y29940D01*
X2823898Y21876D02*
X2823922Y29940D01*
X4476125Y104495D02*
X4487126D01*
X4476125D02*
Y112495D01*
Y117495D02*
Y125496D01*
X4487126D01*
Y117495D02*
Y125496D01*
Y104495D02*
Y112495D01*
X2999664Y105970D02*
X3010664D01*
X2999664D02*
Y113970D01*
Y118970D02*
Y126970D01*
X3010664D01*
Y118970D02*
Y126970D01*
Y105970D02*
Y113970D01*
X1523920Y105716D02*
X1534920D01*
X1523920D02*
Y113716D01*
Y118716D02*
Y126716D01*
X1534920D01*
Y118716D02*
Y126716D01*
Y105716D02*
Y113716D01*
X4294209Y105970D02*
X4305209D01*
X4294209D02*
Y113970D01*
Y118970D02*
Y126970D01*
X4305209D01*
Y118970D02*
Y126970D01*
Y105970D02*
Y113970D01*
X2818488Y105970D02*
X2829488D01*
X2818488D02*
Y113970D01*
Y118970D02*
Y126970D01*
X2829488D01*
Y118970D02*
Y126970D01*
Y105970D02*
Y113970D01*
X1342890Y105970D02*
X1353890D01*
X1342890D02*
Y113970D01*
Y118970D02*
Y126970D01*
X1353890D01*
Y118970D02*
Y126970D01*
Y105970D02*
Y113970D01*
X4115420Y105970D02*
X4126420D01*
X4115420D02*
Y113970D01*
Y118970D02*
Y126970D01*
X4126420D01*
Y118970D02*
Y126970D01*
Y105970D02*
Y113970D01*
X2639451Y105970D02*
X2650451D01*
X2639451D02*
Y113970D01*
Y118970D02*
Y126970D01*
X2650451D01*
Y118970D02*
Y126970D01*
Y105970D02*
Y113970D01*
X1128632Y104700D02*
X1139632D01*
X1128632D02*
Y112700D01*
Y117700D02*
Y125700D01*
X1139632D01*
Y117700D02*
Y125700D01*
Y104700D02*
Y112700D01*
X3936831Y105970D02*
X3947831D01*
X3936831D02*
Y113970D01*
Y118970D02*
Y126970D01*
X3947831D01*
Y118970D02*
Y126970D01*
Y105970D02*
Y113970D01*
X2460428Y105970D02*
X2471428D01*
X2460428D02*
Y113970D01*
Y118970D02*
Y126970D01*
X2471428D01*
Y118970D02*
Y126970D01*
Y105970D02*
Y113970D01*
X3756440Y106224D02*
X3767440D01*
X3756440D02*
Y114224D01*
Y119224D02*
Y127224D01*
X3767440D01*
Y119224D02*
Y127224D01*
Y106224D02*
Y114224D01*
X2242380Y105221D02*
X2253380D01*
X2242380D02*
Y113221D01*
Y118221D02*
Y126221D01*
X2253380D01*
Y118221D02*
Y126221D01*
Y105221D02*
Y113221D01*
X766920Y104700D02*
X777920D01*
X766920D02*
Y112700D01*
Y117700D02*
Y125700D01*
X777920D01*
Y117700D02*
Y125700D01*
Y104700D02*
Y112700D01*
X3574420Y105970D02*
X3585420D01*
X3574420D02*
Y113970D01*
Y118970D02*
Y126970D01*
X3585420D01*
Y118970D02*
Y126970D01*
Y105970D02*
Y113970D01*
X2063770Y105970D02*
X2074770D01*
X2063770D02*
Y113970D01*
Y118970D02*
Y126970D01*
X2074770D01*
Y118970D02*
Y126970D01*
Y105970D02*
Y113970D01*
X586619Y104700D02*
X597619D01*
X586619D02*
Y112700D01*
Y117700D02*
Y125700D01*
X597619D01*
Y117700D02*
Y125700D01*
Y104700D02*
Y112700D01*
X4229403Y4000D02*
Y15000D01*
X4221403Y4000D02*
X4229403D01*
X4208403D02*
X4216404D01*
X4208403D02*
Y15000D01*
X4216404D01*
X4221403D02*
X4229403D01*
X2751396Y4104D02*
Y15104D01*
X2743397Y4104D02*
X2751396D01*
X2730396D02*
X2738397D01*
X2730396D02*
Y15104D01*
X2738397D01*
X2743397D02*
X2751396D01*
X1283578Y4000D02*
Y15000D01*
X1275577Y4000D02*
X1283578D01*
X1262578D02*
X1270577D01*
X1262578D02*
Y15000D01*
X1270577D01*
X1275577D02*
X1283578D01*
X4050200Y4500D02*
Y15500D01*
X4042200Y4500D02*
X4050200D01*
X4029200D02*
X4037200D01*
X4029200D02*
Y15500D01*
X4037200D01*
X4042200D02*
X4050200D01*
X2576790Y3842D02*
Y14842D01*
X2568790Y3842D02*
X2576790D01*
X2555790D02*
X2563790D01*
X2555790D02*
Y14842D01*
X2563790D01*
X2568790D02*
X2576790D01*
X1070133Y4000D02*
Y15000D01*
X1062132Y4000D02*
X1070133D01*
X1049132D02*
X1057132D01*
X1049132D02*
Y15000D01*
X1057132D01*
X1062132D02*
X1070133D01*
X3870542Y3390D02*
Y14390D01*
X3862542Y3390D02*
X3870542D01*
X3849542D02*
X3857542D01*
X3849542D02*
Y14390D01*
X3857542D01*
X3862542D02*
X3870542D01*
X2396265Y3842D02*
Y14842D01*
X2388265Y3842D02*
X2396265D01*
X2375265D02*
X2383265D01*
X2375265D02*
Y14842D01*
X2383265D01*
X2388265D02*
X2396265D01*
X888051Y4000D02*
Y15000D01*
X880051Y4000D02*
X888051D01*
X867051D02*
X875051D01*
X867051D02*
Y15000D01*
X875051D01*
X880051D02*
X888051D01*
X3689451Y3390D02*
Y14390D01*
X3681451Y3390D02*
X3689451D01*
X3668452D02*
X3676451D01*
X3668452D02*
Y14390D01*
X3676451D01*
X3681451D02*
X3689451D01*
X2179965Y3843D02*
Y14842D01*
X2171965Y3843D02*
X2179965D01*
X2158965D02*
X2166965D01*
X2158965D02*
Y14842D01*
X2166965D01*
X2171965D02*
X2179965D01*
X711104Y3695D02*
Y14696D01*
X703104Y3695D02*
X711104D01*
X690104D02*
X698104D01*
X690104D02*
Y14696D01*
X698104D01*
X703104D02*
X711104D01*
X3509670Y3390D02*
Y14390D01*
X3501670Y3390D02*
X3509670D01*
X3488670D02*
X3496670D01*
X3488670D02*
Y14390D01*
X3496670D01*
X3501670D02*
X3509670D01*
X1998538Y4000D02*
Y15000D01*
X1990538Y4000D02*
X1998538D01*
X1977538D02*
X1985538D01*
X1977538D02*
Y15000D01*
X1985538D01*
X1990538D02*
X1998538D01*
X529903Y4792D02*
Y15792D01*
X521903Y4792D02*
X529903D01*
X508903D02*
X516903D01*
X508903D02*
Y15792D01*
X516903D01*
X521903D02*
X529903D01*
X3294869Y3647D02*
Y14647D01*
X3286869Y3647D02*
X3294869D01*
X3273869D02*
X3281869D01*
X3273869D02*
Y14647D01*
X3281869D01*
X3286869D02*
X3294869D01*
X1822616Y4000D02*
Y15000D01*
X1814616Y4000D02*
X1822616D01*
X1801616D02*
X1809616D01*
X1801616D02*
Y15000D01*
X1809616D01*
X1814616D02*
X1822616D01*
X349944Y4000D02*
Y15000D01*
X341944Y4000D02*
X349944D01*
X328944D02*
X336944D01*
X328944D02*
Y15000D01*
X336944D01*
X341944D02*
X349944D01*
X3359349Y105208D02*
X3370349D01*
X3359349D02*
Y113208D01*
Y118208D02*
Y126208D01*
X3370349D01*
Y118208D02*
Y126208D01*
Y105208D02*
Y113208D01*
X1885420Y105716D02*
X1896420D01*
X1885420D02*
Y113716D01*
Y118716D02*
Y126716D01*
X1896420D01*
Y118716D02*
Y126716D01*
Y105716D02*
Y113716D01*
X408154Y104700D02*
X419154D01*
X408154D02*
Y112700D01*
Y117700D02*
Y125700D01*
X419154D01*
Y117700D02*
Y125700D01*
Y104700D02*
Y112700D01*
X3178779Y106224D02*
X3189779D01*
X3178779D02*
Y114224D01*
Y119224D02*
Y127224D01*
X3189779D01*
Y119224D02*
Y127224D01*
Y106224D02*
Y114224D01*
X1703917Y105970D02*
X1714917D01*
X1703917D02*
Y113970D01*
Y118970D02*
Y126970D01*
X1714917D01*
Y118970D02*
Y126970D01*
Y105970D02*
Y113970D01*
X225820Y104700D02*
X236820D01*
X225820D02*
Y112700D01*
Y117700D02*
Y125700D01*
X236820D01*
Y117700D02*
Y125700D01*
Y104700D02*
Y112700D01*
X4405884Y4000D02*
Y15000D01*
X4397884Y4000D02*
X4405884D01*
X4384884D02*
X4392884D01*
X4384884D02*
Y15000D01*
X4392884D01*
X4397884D02*
X4405884D01*
X2938848Y3416D02*
Y14416D01*
X2930848Y3416D02*
X2938848D01*
X2917848D02*
X2925848D01*
X2917848D02*
Y14416D01*
X2925848D01*
X2930848D02*
X2938848D01*
X1463884Y4000D02*
Y15000D01*
X1455884Y4000D02*
X1463884D01*
X1442884D02*
X1450884D01*
X1442884D02*
Y15000D01*
X1450884D01*
X1455884D02*
X1463884D01*
X3117113Y3947D02*
Y14947D01*
X3109113Y3947D02*
X3117113D01*
X3096113D02*
X3104113D01*
X3096113D02*
Y14947D01*
X3104113D01*
X3109113D02*
X3117113D01*
X1643476Y4000D02*
Y15000D01*
X1635476Y4000D02*
X1643476D01*
X1622476D02*
X1630476D01*
X1622476D02*
Y15000D01*
X1630476D01*
X1635476D02*
X1643476D01*
X173220Y19642D02*
Y30642D01*
X181220D01*
X186220D02*
X194220D01*
Y19642D02*
Y30642D01*
X186220Y19642D02*
X194220D01*
X173220D02*
X181220D01*
X2853708Y45492D02*
X2863708D01*
X2853708Y55092D02*
X2863708D01*
X4499682Y109381D02*
Y119381D01*
X4490082Y109381D02*
Y119381D01*
X3022664Y110651D02*
Y120651D01*
X3013064Y110651D02*
Y120651D01*
X1546666Y110397D02*
Y120397D01*
X1537066Y110397D02*
Y120397D01*
X4490301Y86982D02*
Y96982D01*
X4499901Y86982D02*
Y96982D01*
X3013064Y85997D02*
Y95997D01*
X3022664Y85997D02*
Y95997D01*
X1537066Y86494D02*
Y96494D01*
X1546666Y86494D02*
Y96494D01*
X4476973Y86982D02*
Y96982D01*
X4486573Y86982D02*
Y96982D01*
X3000364Y86487D02*
Y96487D01*
X3009964Y86487D02*
Y96487D01*
X1524620Y86512D02*
Y96512D01*
X1534220Y86512D02*
Y96512D01*
X4307609Y87024D02*
Y97024D01*
X4317209Y87024D02*
Y97024D01*
X2841996Y110651D02*
Y120651D01*
X2832396Y110651D02*
Y120651D01*
X1355274Y85537D02*
Y95537D01*
X1364874Y85537D02*
Y95537D01*
X4317209Y110651D02*
Y120651D01*
X4307609Y110651D02*
Y120651D01*
X2832396Y85632D02*
Y95632D01*
X2841996Y85632D02*
Y95632D01*
X1364874Y110881D02*
Y120881D01*
X1355274Y110881D02*
Y120881D01*
X4294909Y87024D02*
Y97024D01*
X4304509Y87024D02*
Y97024D01*
X2819188Y85632D02*
Y95632D01*
X2828788Y85632D02*
Y95632D01*
X1343590Y85537D02*
Y95537D01*
X1353190Y85537D02*
Y95537D01*
X4128820Y87185D02*
Y97185D01*
X4138420Y87185D02*
Y97185D01*
X2652851Y86233D02*
Y96233D01*
X2662451Y86233D02*
Y96233D01*
X1152750Y111181D02*
Y121181D01*
X1143150Y111181D02*
Y121181D01*
X4138420Y110651D02*
Y120651D01*
X4128820Y110651D02*
Y120651D01*
X2662451Y110651D02*
Y120651D01*
X2652851Y110651D02*
Y120651D01*
X1143150Y86490D02*
Y96490D01*
X1152750Y86490D02*
Y96490D01*
X4116034Y86948D02*
Y96948D01*
X4125634Y86948D02*
Y96948D01*
X2640151Y86233D02*
Y96233D01*
X2649751Y86233D02*
Y96233D01*
X1129332Y86437D02*
Y96437D01*
X1138932Y86437D02*
Y96437D01*
X3950231Y87279D02*
Y97279D01*
X3959831Y87279D02*
Y97279D01*
X2473828Y86201D02*
Y96201D01*
X2483428Y86201D02*
Y96201D01*
X3959831Y110651D02*
Y120651D01*
X3950231Y110651D02*
Y120651D01*
X2483428Y110651D02*
Y120651D01*
X2473828Y110651D02*
Y120651D01*
X3937531Y86989D02*
Y96989D01*
X3947131Y86989D02*
Y96989D01*
X2461128Y86401D02*
Y96401D01*
X2470728Y86401D02*
Y96401D01*
X3779440Y110905D02*
Y120905D01*
X3769840Y110905D02*
Y120905D01*
X2257188Y85924D02*
Y95924D01*
X2266788Y85924D02*
Y95924D01*
X790726Y109381D02*
Y119381D01*
X781126Y109381D02*
Y119381D01*
X3769840Y86070D02*
Y96070D01*
X3779440Y86070D02*
Y96070D01*
X2266786Y110065D02*
Y120065D01*
X2257186Y110065D02*
Y120065D01*
X781126Y85955D02*
Y95955D01*
X790726Y85955D02*
Y95955D01*
X3372749Y86032D02*
Y96032D01*
X3382349Y86032D02*
Y96032D01*
X1898058Y86226D02*
Y96226D01*
X1907658Y86226D02*
Y96226D01*
X421554Y86901D02*
Y96901D01*
X431154Y86901D02*
Y96901D01*
X3757141Y86070D02*
Y96070D01*
X3766740Y86070D02*
Y96070D01*
X2243113Y86080D02*
Y96080D01*
X2252713Y86080D02*
Y96080D01*
X767222Y85955D02*
Y95955D01*
X776822Y85955D02*
Y95955D01*
X3382349Y109889D02*
Y119889D01*
X3372749Y109889D02*
Y119889D01*
X1907912Y111497D02*
Y121497D01*
X1898312Y111497D02*
Y121497D01*
X431220Y109381D02*
Y119381D01*
X421620Y109381D02*
Y119381D01*
X3360049Y86032D02*
Y96032D01*
X3369649Y86032D02*
Y96032D01*
X1886120Y86226D02*
Y96226D01*
X1895720Y86226D02*
Y96226D01*
X408854Y86101D02*
Y96101D01*
X418454Y86101D02*
Y96101D01*
X3588607Y86024D02*
Y96024D01*
X3598207Y86024D02*
Y96024D01*
X2086770Y110651D02*
Y120651D01*
X2077170Y110651D02*
Y120651D01*
X600019Y86255D02*
Y96255D01*
X609619Y86255D02*
Y96255D01*
X3598183Y110651D02*
Y120651D01*
X3588583Y110651D02*
Y120651D01*
X2077170Y85726D02*
Y95726D01*
X2086770Y85726D02*
Y95726D01*
X609619Y111781D02*
Y121781D01*
X600019Y111781D02*
Y121781D01*
X3201779Y110905D02*
Y120905D01*
X3192179Y110905D02*
Y120905D01*
X1717317Y86348D02*
Y96348D01*
X1726917Y86348D02*
Y96348D01*
X249720Y111381D02*
Y121381D01*
X240120Y111381D02*
Y121381D01*
X3192179Y86487D02*
Y96487D01*
X3201779Y86487D02*
Y96487D01*
X1726917Y110651D02*
Y120651D01*
X1717317Y110651D02*
Y120651D01*
X240120Y86979D02*
Y96979D01*
X249720Y86979D02*
Y96979D01*
X3575120Y86187D02*
Y96187D01*
X3584720Y86187D02*
Y96187D01*
X2064470Y85726D02*
Y95726D01*
X2074070Y85726D02*
Y95726D01*
X587319Y86355D02*
Y96355D01*
X596919Y86355D02*
Y96355D01*
X3179479Y86487D02*
Y96487D01*
X3189079Y86487D02*
Y96487D01*
X1704617Y86348D02*
Y96348D01*
X1714217Y86348D02*
Y96348D01*
X226520Y85879D02*
Y95879D01*
X236120Y85879D02*
Y95879D01*
X4152120Y40458D02*
Y50458D01*
X4161720Y40458D02*
Y50458D01*
X2059704Y24156D02*
X2069704D01*
X2059704Y33756D02*
X2069704D01*
X769820Y65300D02*
X779820D01*
X769820Y55700D02*
X779820D01*
X4007480Y66200D02*
X4017480D01*
X4007480Y75800D02*
X4017480D01*
X1956633Y44930D02*
X1966633D01*
X1956633Y54530D02*
X1966633D01*
X686240Y47700D02*
X696240D01*
X686240Y57300D02*
X696240D01*
D14*
X2864932Y4656D02*
X2864952Y4652D01*
X2867408Y6377D02*
X2870552D01*
X2864952Y4652D02*
X2867408Y6377D01*
X2914428Y14229D02*
X2917005Y16805D01*
X2925406D01*
X2934900Y14577D02*
Y16598D01*
Y19159D01*
X2936181Y20441D01*
X2938317D01*
D15*
X3469500Y108501D02*
Y115498D01*
X3460163Y108501D02*
X3469500D01*
X3397500D02*
Y116151D01*
Y108501D02*
X3407297D01*
D16*
X2878148Y21333D02*
X2880398D01*
X2878148D02*
Y23583D01*
X2927397Y21333D02*
X2929648D01*
Y23583D01*
Y70583D02*
Y72833D01*
X2927397D02*
X2929648D01*
X2878148D02*
X2880398D01*
X2878148Y70583D02*
Y72833D01*
X3957430Y69182D02*
Y71432D01*
X3962180D01*
X3957430Y29932D02*
Y32182D01*
Y29932D02*
X3962180D01*
X3989180D02*
X3993930D01*
Y32182D01*
Y69182D02*
Y71432D01*
X3989180D02*
X3993930D01*
X674420Y71250D02*
X676670D01*
Y66500D02*
Y71250D01*
X635170D02*
X637420D01*
X635170Y66500D02*
Y71250D01*
Y34750D02*
Y39500D01*
Y34750D02*
X637420D01*
X674420D02*
X676670D01*
Y39500D01*
X1941920Y63120D02*
X1944170D01*
Y58370D02*
Y63120D01*
X1902670D02*
X1904920D01*
X1902670Y58370D02*
Y63120D01*
Y26620D02*
Y31370D01*
Y26620D02*
X1904920D01*
X1941920D02*
X1944170D01*
Y31370D01*
X4107420Y23658D02*
X4109170D01*
X4107420D02*
Y30408D01*
X4144670Y23658D02*
X4146420D01*
Y30408D01*
Y45908D02*
Y52658D01*
X4144670D02*
X4146420D01*
X4107420D02*
X4109170D01*
X4107420Y45908D02*
Y52658D01*
X2045730Y65230D02*
X2052480D01*
Y63480D02*
Y65230D01*
Y26230D02*
Y27980D01*
X2045730Y26230D02*
X2052480D01*
X2023480D02*
X2030230D01*
X2023480D02*
Y27980D01*
Y65230D02*
X2030230D01*
X2023480Y63480D02*
Y65230D01*
X769420Y50750D02*
Y52500D01*
X776170D01*
X769420Y13500D02*
Y15250D01*
Y13500D02*
X776170D01*
X791670D02*
X798420D01*
Y15250D01*
Y50750D02*
Y52500D01*
X791670D02*
X798420D01*
D17*
X4460079Y4656D02*
Y10654D01*
X4463078D01*
X4464077Y9654D01*
Y7655D01*
X4463078Y6655D01*
X4460079D01*
X4470075Y9654D02*
X4469076Y10654D01*
X4467076D01*
X4466077Y9654D01*
Y5655D01*
X4467076Y4656D01*
X4469076D01*
X4470075Y5655D01*
X4472075Y10654D02*
Y4656D01*
X4475074D01*
X4476074Y5655D01*
Y6655D01*
X4475074Y7655D01*
X4472075D01*
X4475074D01*
X4476074Y8654D01*
Y9654D01*
X4475074Y10654D01*
X4472075D01*
X4484071Y8654D02*
X4486070Y4656D01*
X4488069Y8654D01*
X4493068Y4656D02*
X4491069D01*
X4490069Y5655D01*
Y7655D01*
X4491069Y8654D01*
X4493068D01*
X4494068Y7655D01*
Y6655D01*
X4490069D01*
X4496067Y8654D02*
Y4656D01*
Y6655D01*
X4497067Y7655D01*
X4498066Y8654D01*
X4499066D01*
X4502065Y4656D02*
X4505064D01*
X4506064Y5655D01*
X4505064Y6655D01*
X4503065D01*
X4502065Y7655D01*
X4503065Y8654D01*
X4506064D01*
X4508063Y4656D02*
X4510063D01*
X4509063D01*
Y8654D01*
X4508063D01*
X4514061Y4656D02*
X4516060D01*
X4517060Y5655D01*
Y7655D01*
X4516060Y8654D01*
X4514061D01*
X4513062Y7655D01*
Y5655D01*
X4514061Y4656D01*
X4519059D02*
Y8654D01*
X4522059D01*
X4523058Y7655D01*
Y4656D01*
X4531056Y9654D02*
X4532055Y10654D01*
X4534055D01*
X4535054Y9654D01*
Y5655D01*
X4534055Y4656D01*
X4532055D01*
X4531056Y5655D01*
Y9654D01*
X4537054Y4656D02*
Y5655D01*
X4538053D01*
Y4656D01*
X4537054D01*
X4546051D02*
X4542052D01*
X4546051Y8654D01*
Y9654D01*
X4545051Y10654D01*
X4543052D01*
X4542052Y9654D01*
X909954Y130062D02*
X904956D01*
X903956Y129062D01*
Y127063D01*
X904956Y126063D01*
X909954D01*
X903956Y124064D02*
Y122065D01*
Y123064D01*
X909954D01*
X908955Y124064D01*
X903956Y119066D02*
Y117066D01*
Y118066D01*
X909954D01*
X908955Y119066D01*
X902957Y114067D02*
Y110069D01*
X903956Y108069D02*
X907955D01*
X909954Y106070D01*
X907955Y104071D01*
X903956D01*
X906955D01*
Y108069D01*
X189988Y127009D02*
X184990D01*
X183990Y126010D01*
Y124010D01*
X184990Y123011D01*
X189988D01*
Y117013D02*
Y121011D01*
X186989D01*
X187989Y119012D01*
Y118012D01*
X186989Y117013D01*
X184990D01*
X183990Y118012D01*
Y120012D01*
X184990Y121011D01*
X182991Y115013D02*
Y111014D01*
X183990Y109015D02*
X187989D01*
X189988Y107016D01*
X187989Y105016D01*
X183990D01*
X186989D01*
Y109015D01*
X1662558Y128762D02*
X1657559D01*
X1656560Y127762D01*
Y125763D01*
X1657559Y124763D01*
X1662558D01*
Y118765D02*
Y122764D01*
X1659559D01*
X1660558Y120765D01*
Y119765D01*
X1659559Y118765D01*
X1657559D01*
X1656560Y119765D01*
Y121764D01*
X1657559Y122764D01*
X1655560Y116766D02*
Y112767D01*
X1662558Y110768D02*
X1656560D01*
Y107769D01*
X1657559Y106769D01*
X1658559D01*
X1659559Y107769D01*
Y110768D01*
Y107769D01*
X1660558Y106769D01*
X1661558D01*
X1662558Y107769D01*
Y110768D01*
X3138013Y128562D02*
X3133015D01*
X3132015Y127562D01*
Y125563D01*
X3133015Y124563D01*
X3138013D01*
Y118565D02*
Y122564D01*
X3135014D01*
X3136014Y120565D01*
Y119565D01*
X3135014Y118565D01*
X3133015D01*
X3132015Y119565D01*
Y121564D01*
X3133015Y122564D01*
X3131016Y116566D02*
Y112567D01*
X3137014Y106569D02*
X3138013Y107569D01*
Y109568D01*
X3137014Y110568D01*
X3133015D01*
X3132015Y109568D01*
Y107569D01*
X3133015Y106569D01*
X369942Y128562D02*
X364944D01*
X363944Y127562D01*
Y125563D01*
X364944Y124563D01*
X369942D01*
Y118565D02*
X368943Y120565D01*
X366943Y122564D01*
X364944D01*
X363944Y121564D01*
Y119565D01*
X364944Y118565D01*
X365944D01*
X366943Y119565D01*
Y122564D01*
X362945Y116566D02*
Y112567D01*
X363944Y110568D02*
X367943D01*
X369942Y108568D01*
X367943Y106569D01*
X363944D01*
X366943D01*
Y110568D01*
X1842566Y127062D02*
X1837568D01*
X1836568Y126062D01*
Y124063D01*
X1837568Y123063D01*
X1842566D01*
Y117065D02*
X1841566Y119065D01*
X1839567Y121064D01*
X1837568D01*
X1836568Y120064D01*
Y118065D01*
X1837568Y117065D01*
X1838567D01*
X1839567Y118065D01*
Y121064D01*
X1835568Y115066D02*
Y111067D01*
X1842566Y109068D02*
X1836568D01*
Y106069D01*
X1837568Y105069D01*
X1838567D01*
X1839567Y106069D01*
Y109068D01*
Y106069D01*
X1840567Y105069D01*
X1841566D01*
X1842566Y106069D01*
Y109068D01*
X3317968Y127162D02*
X3312969D01*
X3311970Y126162D01*
Y124163D01*
X3312969Y123163D01*
X3317968D01*
Y117165D02*
X3316968Y119165D01*
X3314969Y121164D01*
X3312969D01*
X3311970Y120164D01*
Y118165D01*
X3312969Y117165D01*
X3313969D01*
X3314969Y118165D01*
Y121164D01*
X3310970Y115166D02*
Y111167D01*
X3316968Y105169D02*
X3317968Y106169D01*
Y108168D01*
X3316968Y109168D01*
X3312969D01*
X3311970Y108168D01*
Y106169D01*
X3312969Y105169D01*
X548458Y130062D02*
X543460D01*
X542460Y129062D01*
Y127063D01*
X543460Y126063D01*
X548458D01*
Y124064D02*
Y120065D01*
X547458D01*
X543460Y124064D01*
X542460D01*
X541460Y118066D02*
Y114067D01*
X542460Y112068D02*
X546459D01*
X548458Y110069D01*
X546459Y108069D01*
X542460D01*
X545459D01*
Y112068D01*
X2023980Y125562D02*
X2018981D01*
X2017982Y124562D01*
Y122563D01*
X2018981Y121563D01*
X2023980D01*
Y119564D02*
Y115565D01*
X2022980D01*
X2018981Y119564D01*
X2017982D01*
X2016982Y113566D02*
Y109567D01*
X2023980Y107568D02*
X2017982D01*
Y104569D01*
X2018981Y103569D01*
X2019981D01*
X2020981Y104569D01*
Y107568D01*
Y104569D01*
X2021980Y103569D01*
X2022980D01*
X2023980Y104569D01*
Y107568D01*
X3532096Y128562D02*
X3527098D01*
X3526098Y127562D01*
Y125563D01*
X3527098Y124563D01*
X3532096D01*
Y122564D02*
Y118565D01*
X3531097D01*
X3527098Y122564D01*
X3526098D01*
X3525099Y116566D02*
Y112567D01*
X3531097Y106569D02*
X3532096Y107569D01*
Y109568D01*
X3531097Y110568D01*
X3527098D01*
X3526098Y109568D01*
Y107569D01*
X3527098Y106569D01*
X728495Y130162D02*
X723497D01*
X722497Y129162D01*
Y127163D01*
X723497Y126163D01*
X728495D01*
X723497Y124164D02*
X722497Y123164D01*
Y121165D01*
X723497Y120165D01*
X727496D01*
X728495Y121165D01*
Y123164D01*
X727496Y124164D01*
X726496D01*
X725496Y123164D01*
Y120165D01*
X721498Y118166D02*
Y114167D01*
X722497Y112168D02*
X726496D01*
X728495Y110169D01*
X726496Y108169D01*
X722497D01*
X725496D01*
Y112168D01*
X2202448Y128662D02*
X2197450D01*
X2196450Y127662D01*
Y125663D01*
X2197450Y124663D01*
X2202448D01*
X2197450Y122664D02*
X2196450Y121664D01*
Y119665D01*
X2197450Y118665D01*
X2201449D01*
X2202448Y119665D01*
Y121664D01*
X2201449Y122664D01*
X2200449D01*
X2199449Y121664D01*
Y118665D01*
X2195451Y116666D02*
Y112667D01*
X2202448Y110668D02*
X2196450D01*
Y107669D01*
X2197450Y106669D01*
X2198450D01*
X2199449Y107669D01*
Y110668D01*
Y107669D01*
X2200449Y106669D01*
X2201449D01*
X2202448Y107669D01*
Y110668D01*
X3711968Y127162D02*
X3706969D01*
X3705970Y126162D01*
Y124163D01*
X3706969Y123163D01*
X3711968D01*
X3706969Y121164D02*
X3705970Y120164D01*
Y118165D01*
X3706969Y117165D01*
X3710968D01*
X3711968Y118165D01*
Y120164D01*
X3710968Y121164D01*
X3709968D01*
X3708969Y120164D01*
Y117165D01*
X3704970Y115166D02*
Y111167D01*
X3710968Y105169D02*
X3711968Y106169D01*
Y108168D01*
X3710968Y109168D01*
X3706969D01*
X3705970Y108168D01*
Y106169D01*
X3706969Y105169D01*
X2418048Y131662D02*
X2413049D01*
X2412050Y130662D01*
Y128663D01*
X2413049Y127663D01*
X2418048D01*
X2412050Y125664D02*
Y123665D01*
Y124664D01*
X2418048D01*
X2417048Y125664D01*
X2412050Y120666D02*
Y118666D01*
Y119666D01*
X2418048D01*
X2417048Y120666D01*
X2411050Y115667D02*
Y111669D01*
X2418048Y109669D02*
X2412050D01*
Y106670D01*
X2413049Y105670D01*
X2414049D01*
X2415049Y106670D01*
Y109669D01*
Y106670D01*
X2416048Y105670D01*
X2417048D01*
X2418048Y106670D01*
Y109669D01*
X3892052Y131662D02*
X3887054D01*
X3886054Y130662D01*
Y128663D01*
X3887054Y127663D01*
X3892052D01*
X3886054Y125664D02*
Y123665D01*
Y124664D01*
X3892052D01*
X3891052Y125664D01*
X3886054Y120666D02*
Y118666D01*
Y119666D01*
X3892052D01*
X3891052Y120666D01*
X3885054Y115667D02*
Y111669D01*
X3891052Y105670D02*
X3892052Y106670D01*
Y108670D01*
X3891052Y109669D01*
X3887054D01*
X3886054Y108670D01*
Y106670D01*
X3887054Y105670D01*
X1089970Y133062D02*
X1084972D01*
X1083972Y132062D01*
Y130063D01*
X1084972Y129063D01*
X1089970D01*
X1083972Y127064D02*
Y125065D01*
Y126064D01*
X1089970D01*
X1088971Y127064D01*
Y122066D02*
X1089970Y121066D01*
Y119067D01*
X1088971Y118067D01*
X1087971D01*
X1086971Y119067D01*
Y120066D01*
Y119067D01*
X1085972Y118067D01*
X1084972D01*
X1083972Y119067D01*
Y121066D01*
X1084972Y122066D01*
X1082973Y116068D02*
Y112069D01*
X1083972Y110070D02*
X1087971D01*
X1089970Y108070D01*
X1087971Y106071D01*
X1083972D01*
X1086971D01*
Y110070D01*
X2597972Y130162D02*
X2592973D01*
X2591974Y129162D01*
Y127163D01*
X2592973Y126163D01*
X2597972D01*
X2591974Y124164D02*
Y122165D01*
Y123164D01*
X2597972D01*
X2596972Y124164D01*
Y119166D02*
X2597972Y118166D01*
Y116167D01*
X2596972Y115167D01*
X2595972D01*
X2594973Y116167D01*
Y117166D01*
Y116167D01*
X2593973Y115167D01*
X2592973D01*
X2591974Y116167D01*
Y118166D01*
X2592973Y119166D01*
X2590974Y113168D02*
Y109169D01*
X2597972Y107170D02*
X2591974D01*
Y104171D01*
X2592973Y103171D01*
X2593973D01*
X2594973Y104171D01*
Y107170D01*
Y104171D01*
X2595972Y103171D01*
X2596972D01*
X2597972Y104171D01*
Y107170D01*
X4071953Y131662D02*
X4066954D01*
X4065954Y130662D01*
Y128663D01*
X4066954Y127663D01*
X4071953D01*
X4065954Y125664D02*
Y123665D01*
Y124664D01*
X4071953D01*
X4070953Y125664D01*
Y120666D02*
X4071953Y119666D01*
Y117667D01*
X4070953Y116667D01*
X4069953D01*
X4068954Y117667D01*
Y118666D01*
Y117667D01*
X4067954Y116667D01*
X4066954D01*
X4065954Y117667D01*
Y119666D01*
X4066954Y120666D01*
X4064955Y114668D02*
Y110669D01*
X4070953Y104671D02*
X4071953Y105670D01*
Y107670D01*
X4070953Y108670D01*
X4066954D01*
X4065954Y107670D01*
Y105670D01*
X4066954Y104671D01*
X1304029Y133062D02*
X1299030D01*
X1298031Y132062D01*
Y130063D01*
X1299030Y129063D01*
X1304029D01*
X1298031Y127064D02*
Y125065D01*
Y126064D01*
X1304029D01*
X1303029Y127064D01*
X1304029Y118067D02*
Y122066D01*
X1301030D01*
X1302029Y120066D01*
Y119067D01*
X1301030Y118067D01*
X1299030D01*
X1298031Y119067D01*
Y121066D01*
X1299030Y122066D01*
X1297031Y116068D02*
Y112069D01*
X1298031Y110070D02*
X1302029D01*
X1304029Y108070D01*
X1302029Y106071D01*
X1298031D01*
X1301030D01*
Y110070D01*
X2778065Y130162D02*
X2773067D01*
X2772067Y129162D01*
Y127163D01*
X2773067Y126163D01*
X2778065D01*
X2772067Y124164D02*
Y122165D01*
Y123164D01*
X2778065D01*
X2777065Y124164D01*
X2778065Y115167D02*
Y119166D01*
X2775066D01*
X2776066Y117166D01*
Y116167D01*
X2775066Y115167D01*
X2773067D01*
X2772067Y116167D01*
Y118166D01*
X2773067Y119166D01*
X2771067Y113168D02*
Y109169D01*
X2778065Y107170D02*
X2772067D01*
Y104171D01*
X2773067Y103171D01*
X2774066D01*
X2775066Y104171D01*
Y107170D01*
Y104171D01*
X2776066Y103171D01*
X2777065D01*
X2778065Y104171D01*
Y107170D01*
X4252003Y130162D02*
X4247005D01*
X4246005Y129162D01*
Y127163D01*
X4247005Y126163D01*
X4252003D01*
X4246005Y124164D02*
Y122165D01*
Y123164D01*
X4252003D01*
X4251003Y124164D01*
X4252003Y115167D02*
Y119166D01*
X4249004D01*
X4250004Y117166D01*
Y116167D01*
X4249004Y115167D01*
X4247005D01*
X4246005Y116167D01*
Y118166D01*
X4247005Y119166D01*
X4245005Y113168D02*
Y109169D01*
X4251003Y103171D02*
X4252003Y104171D01*
Y106170D01*
X4251003Y107170D01*
X4247005D01*
X4246005Y106170D01*
Y104171D01*
X4247005Y103171D01*
X1484068Y130162D02*
X1479070D01*
X1478070Y129162D01*
Y127163D01*
X1479070Y126163D01*
X1484068D01*
X1478070Y124164D02*
Y122165D01*
Y123164D01*
X1484068D01*
X1483068Y124164D01*
X1484068Y119166D02*
Y115167D01*
X1483068D01*
X1479070Y119166D01*
X1478070D01*
X1477070Y113168D02*
Y109169D01*
X1478070Y107170D02*
X1482069D01*
X1484068Y105170D01*
X1482069Y103171D01*
X1478070D01*
X1481069D01*
Y107170D01*
X2957900Y130723D02*
X2952902D01*
X2951902Y129724D01*
Y127724D01*
X2952902Y126725D01*
X2957900D01*
X2951902Y124725D02*
Y122726D01*
Y123725D01*
X2957900D01*
X2956901Y124725D01*
X2957900Y119727D02*
Y115728D01*
X2956901D01*
X2952902Y119727D01*
X2951902D01*
X2950903Y113729D02*
Y109730D01*
X2957900Y107731D02*
X2951902D01*
Y104732D01*
X2952902Y103732D01*
X2953902D01*
X2954901Y104732D01*
Y107731D01*
Y104732D01*
X2955901Y103732D01*
X2956901D01*
X2957900Y104732D01*
Y107731D01*
X4430579Y130162D02*
X4425580D01*
X4424581Y129162D01*
Y127163D01*
X4425580Y126163D01*
X4430579D01*
X4424581Y124164D02*
Y122165D01*
Y123164D01*
X4430579D01*
X4429579Y124164D01*
X4430579Y119166D02*
Y115167D01*
X4429579D01*
X4425580Y119166D01*
X4424581D01*
X4423581Y113168D02*
Y109169D01*
X4429579Y103171D02*
X4430579Y104171D01*
Y106170D01*
X4429579Y107170D01*
X4425580D01*
X4424581Y106170D01*
Y104171D01*
X4425580Y103171D01*
M02*
