G04*
G04 #@! TF.GenerationSoftware,Altium Limited,Altium Designer,19.1.8 (144)*
G04*
G04 Layer_Physical_Order=3*
G04 Layer_Color=36540*
%FSLAX44Y44*%
%MOMM*%
G71*
G01*
G75*
%ADD15C,0.2540*%
%ADD60C,0.1524*%
%ADD63C,0.5500*%
%ADD64C,0.5000*%
G36*
X3407539Y165780D02*
X3407775Y165462D01*
X3408101Y164510D01*
X3407449Y163533D01*
X3407156Y162062D01*
X3407449Y160591D01*
X3408282Y159344D01*
X3409529Y158511D01*
X3410973Y158224D01*
X3411127Y158184D01*
X3412253Y157173D01*
X3412449Y156191D01*
X3413282Y154944D01*
X3414529Y154111D01*
X3416000Y153818D01*
X3417471Y154111D01*
X3418718Y154944D01*
X3419551Y156191D01*
X3419844Y157662D01*
X3419551Y159133D01*
X3418718Y160380D01*
X3417471Y161213D01*
X3416027Y161501D01*
X3415873Y161540D01*
X3414746Y162551D01*
X3414551Y163533D01*
X3413899Y164510D01*
X3414225Y165462D01*
X3414461Y165780D01*
X3494613Y165780D01*
X3494613Y70672D01*
X3460319D01*
X3459651Y71716D01*
X3459673Y71941D01*
X3459955Y73362D01*
X3459663Y74833D01*
X3458830Y76080D01*
X3457583Y76913D01*
X3456112Y77206D01*
X3454641Y76913D01*
X3453394Y76080D01*
X3452560Y74833D01*
X3452268Y73362D01*
X3452550Y71941D01*
X3452573Y71716D01*
X3451904Y70672D01*
X3419388D01*
X3418584Y71874D01*
X3417337Y72707D01*
X3415866Y73000D01*
X3414395Y72707D01*
X3413148Y71874D01*
X3412716Y71228D01*
X3361525D01*
Y75688D01*
X3362795Y76367D01*
X3362822Y76349D01*
X3364293Y76056D01*
X3365764Y76349D01*
X3367011Y77182D01*
X3367845Y78429D01*
X3368137Y79900D01*
X3367845Y81371D01*
X3367011Y82618D01*
X3365764Y83451D01*
X3364293Y83744D01*
X3362822Y83451D01*
X3362795Y83433D01*
X3361525Y84112D01*
Y86757D01*
X3430238Y155470D01*
X3431000Y155318D01*
X3432471Y155611D01*
X3433718Y156444D01*
X3434551Y157691D01*
X3434844Y159162D01*
X3434551Y160633D01*
X3433718Y161880D01*
X3432471Y162713D01*
X3431000Y163006D01*
X3429529Y162713D01*
X3428282Y161880D01*
X3427449Y160633D01*
X3427156Y159162D01*
X3427308Y158400D01*
X3408104Y139196D01*
X3407027Y139915D01*
X3407339Y140669D01*
X3407581Y142501D01*
X3407339Y144334D01*
X3406632Y146042D01*
X3405507Y147508D01*
X3404040Y148633D01*
X3402332Y149341D01*
X3400500Y149582D01*
X3398667Y149341D01*
X3396960Y148633D01*
X3395493Y147508D01*
X3394368Y146042D01*
X3393661Y144334D01*
X3393419Y142501D01*
X3393661Y140669D01*
X3394368Y138961D01*
X3395493Y137495D01*
X3396960Y136369D01*
X3398667Y135662D01*
X3400500Y135421D01*
X3402332Y135662D01*
X3403086Y135974D01*
X3403806Y134897D01*
X3362698Y93790D01*
X3361525Y94276D01*
X3361525Y165780D01*
X3407539D01*
D02*
G37*
G36*
X2376079Y75810D02*
X2375777Y75524D01*
X2374809Y74979D01*
X2374341Y75072D01*
X2374341Y75072D01*
X2245130D01*
X2245001Y75178D01*
X2245000Y165780D01*
X2376079Y165780D01*
X2376079Y75810D01*
D02*
G37*
G36*
X1961273Y65388D02*
X1960771Y64637D01*
X1960478Y63166D01*
X1960658Y62260D01*
X1959488Y61635D01*
X1958008Y63114D01*
X1957336Y63563D01*
X1956543Y63721D01*
X1956543Y63721D01*
X1920176D01*
X1920176Y63721D01*
X1919383Y63563D01*
X1918711Y63114D01*
X1912801Y57204D01*
X1903678D01*
X1903553Y58474D01*
X1904583Y58679D01*
X1905830Y59512D01*
X1906663Y60759D01*
X1906956Y62230D01*
X1906663Y63701D01*
X1905830Y64948D01*
X1905171Y65388D01*
X1905556Y66659D01*
X1918999D01*
X1919449Y66358D01*
X1920920Y66066D01*
X1922391Y66358D01*
X1922840Y66659D01*
X1960651D01*
X1961273Y65388D01*
D02*
G37*
G36*
X1877327D02*
X1876668Y64948D01*
X1875835Y63701D01*
X1875542Y62230D01*
X1875835Y60759D01*
X1876668Y59512D01*
X1877915Y58679D01*
X1878945Y58474D01*
X1878820Y57204D01*
X1854159D01*
X1848046Y63317D01*
X1848572Y64587D01*
X1870135D01*
X1870135Y64587D01*
X1870928Y64744D01*
X1871600Y65194D01*
X1873065Y66659D01*
X1876942D01*
X1877327Y65388D01*
D02*
G37*
G36*
X3998142Y65328D02*
X3997871Y64710D01*
X3996777Y64176D01*
X3995984Y64334D01*
X3995984Y64334D01*
X3776399D01*
X3776399Y64334D01*
X3775606Y64176D01*
X3774934Y63727D01*
X3765536Y54329D01*
X3764549Y55138D01*
X3765144Y56029D01*
X3765437Y57500D01*
X3765144Y58971D01*
X3764311Y60218D01*
X3763064Y61051D01*
X3761593Y61344D01*
X3760122Y61051D01*
X3758875Y60218D01*
X3758042Y58971D01*
X3757749Y57500D01*
X3757960Y56441D01*
X3756790Y55816D01*
X3751774Y60831D01*
X3751102Y61280D01*
X3750309Y61438D01*
X3750309Y61438D01*
X3737028D01*
X3737028Y61438D01*
X3736235Y61280D01*
X3735562Y60831D01*
X3724852Y50121D01*
X3582180D01*
X3581795Y51391D01*
X3582545Y51892D01*
X3583378Y53139D01*
X3583670Y54610D01*
X3583378Y56081D01*
X3582545Y57328D01*
X3581298Y58161D01*
X3579827Y58454D01*
X3578356Y58161D01*
X3577108Y57328D01*
X3576275Y56081D01*
X3575983Y54610D01*
X3576275Y53139D01*
X3577108Y51892D01*
X3577576Y51579D01*
X3577196Y50326D01*
X3576285Y50217D01*
X3561244Y65258D01*
X3561770Y66528D01*
X3997405D01*
X3998142Y65328D01*
D02*
G37*
G36*
X2879674Y65485D02*
X2877943Y63755D01*
X2798810D01*
X2798810Y63755D01*
X2798017Y63597D01*
X2797345Y63148D01*
X2797345Y63148D01*
X2795816Y61618D01*
X2789477D01*
X2788809Y62663D01*
X2788831Y62888D01*
X2789113Y64309D01*
X2788899Y65388D01*
X2789645Y66659D01*
X2879188Y66659D01*
X2879674Y65485D01*
D02*
G37*
G36*
X3030771Y65388D02*
X3021799Y56417D01*
X2939748D01*
X2939747Y56417D01*
X2938954Y56260D01*
X2938282Y55810D01*
X2938282Y55810D01*
X2937461Y54989D01*
X2873118D01*
X2870267Y57840D01*
X2869595Y58289D01*
X2869332Y58341D01*
X2869457Y59611D01*
X2878801D01*
X2878802Y59611D01*
X2879594Y59769D01*
X2880267Y60218D01*
X2885290Y65241D01*
X2953333D01*
X2954012Y63971D01*
X2953894Y63794D01*
X2953601Y62323D01*
X2953894Y60852D01*
X2954727Y59605D01*
X2955974Y58772D01*
X2957445Y58479D01*
X2958916Y58772D01*
X2960163Y59605D01*
X2960996Y60852D01*
X2961289Y62323D01*
X2960996Y63794D01*
X2960878Y63971D01*
X2961556Y65241D01*
X2986201D01*
X2986769Y63971D01*
X2986223Y63154D01*
X2985930Y61683D01*
X2986223Y60212D01*
X2987056Y58965D01*
X2988304Y58132D01*
X2989774Y57839D01*
X2991245Y58132D01*
X2992492Y58965D01*
X2993326Y60212D01*
X2993618Y61683D01*
X2993326Y63154D01*
X2992492Y64401D01*
X2991954Y64761D01*
X2991557Y66330D01*
X2991583Y66420D01*
X2991754Y66659D01*
X2999057D01*
X2999349Y65188D01*
X3000182Y63941D01*
X3001429Y63107D01*
X3002900Y62815D01*
X3004372Y63107D01*
X3005619Y63941D01*
X3006452Y65188D01*
X3006744Y66659D01*
X3030245D01*
X3030771Y65388D01*
D02*
G37*
G36*
X2377657Y61293D02*
X2377657Y61293D01*
X2377730Y61244D01*
X2377345Y59974D01*
X2350824D01*
X2350031Y59816D01*
X2349359Y59367D01*
X2349359Y59367D01*
X2346166Y56174D01*
X2220469D01*
X2220038Y56820D01*
X2218790Y57653D01*
X2217319Y57946D01*
X2215849Y57653D01*
X2214601Y56820D01*
X2213768Y55573D01*
X2213476Y54102D01*
X2213768Y52631D01*
X2214601Y51384D01*
X2214680Y51332D01*
X2214925Y49640D01*
X2214712Y49384D01*
X2174222D01*
X2174008Y49640D01*
X2174254Y51332D01*
X2174332Y51384D01*
X2175166Y52631D01*
X2175458Y54102D01*
X2175166Y55573D01*
X2174332Y56820D01*
X2173085Y57653D01*
X2171614Y57946D01*
X2170143Y57653D01*
X2168896Y56820D01*
X2168063Y55573D01*
X2167770Y54102D01*
X2168063Y52631D01*
X2168896Y51384D01*
X2168974Y51332D01*
X2169220Y49640D01*
X2169007Y49384D01*
X2139336D01*
X2138951Y50654D01*
X2139547Y51052D01*
X2140380Y52299D01*
X2140673Y53770D01*
X2140380Y55241D01*
X2139547Y56488D01*
X2138300Y57321D01*
X2136829Y57614D01*
X2135358Y57321D01*
X2134111Y56488D01*
X2133277Y55241D01*
X2132985Y53770D01*
X2133277Y52299D01*
X2134111Y51052D01*
X2134707Y50654D01*
X2134321Y49384D01*
X2084477D01*
X2084092Y50654D01*
X2084688Y51052D01*
X2085120Y51698D01*
X2117342D01*
X2117342Y51698D01*
X2118134Y51856D01*
X2118807Y52305D01*
X2126660Y60158D01*
X2179597D01*
X2180276Y58888D01*
X2180267Y58875D01*
X2179975Y57404D01*
X2180267Y55933D01*
X2181101Y54686D01*
X2182348Y53853D01*
X2183819Y53560D01*
X2185290Y53853D01*
X2186537Y54686D01*
X2187370Y55933D01*
X2187663Y57404D01*
X2187370Y58875D01*
X2187361Y58888D01*
X2188040Y60158D01*
X2287261D01*
X2287693Y59512D01*
X2288940Y58679D01*
X2290411Y58386D01*
X2291882Y58679D01*
X2293129Y59512D01*
X2293962Y60759D01*
X2294254Y62230D01*
X2293962Y63701D01*
X2293163Y64896D01*
X2293224Y65198D01*
X2293591Y66166D01*
X2372784D01*
X2377657Y61293D01*
D02*
G37*
G36*
X2806922Y58341D02*
X2806658Y57945D01*
X2806365Y56474D01*
X2806658Y55003D01*
X2807491Y53756D01*
X2808738Y52923D01*
X2810209Y52630D01*
X2811680Y52923D01*
X2812927Y53756D01*
X2813358Y54402D01*
X2826254D01*
X2826455Y53393D01*
X2827288Y52146D01*
X2828535Y51313D01*
X2830006Y51020D01*
X2831375Y51292D01*
X2831448Y51235D01*
X2831685Y50155D01*
X2830815Y49155D01*
X2772086D01*
X2771560Y50425D01*
X2778610Y57475D01*
X2781299D01*
X2781978Y56205D01*
X2781718Y55816D01*
X2781426Y54345D01*
X2781718Y52874D01*
X2782552Y51627D01*
X2783799Y50794D01*
X2785270Y50502D01*
X2786741Y50794D01*
X2787988Y51627D01*
X2788821Y52874D01*
X2789113Y54345D01*
X2788821Y55816D01*
X2788561Y56205D01*
X2789240Y57475D01*
X2796674D01*
X2796674Y57475D01*
X2797467Y57633D01*
X2798139Y58082D01*
X2799668Y59611D01*
X2806243D01*
X2806922Y58341D01*
D02*
G37*
G36*
X2114213Y62777D02*
X2114210Y62758D01*
X2114502Y61287D01*
X2115335Y60040D01*
X2116582Y59207D01*
X2117809Y58963D01*
X2118192Y58247D01*
X2118313Y57671D01*
X2116483Y55842D01*
X2085120D01*
X2084688Y56488D01*
X2083441Y57321D01*
X2081970Y57614D01*
X2080499Y57321D01*
X2079252Y56488D01*
X2078419Y55241D01*
X2078126Y53770D01*
X2078419Y52299D01*
X2079252Y51052D01*
X2079848Y50654D01*
X2079462Y49384D01*
X2074690D01*
X2074011Y50654D01*
X2074079Y50756D01*
X2074391Y52324D01*
X2074079Y53893D01*
X2073190Y55222D01*
X2071861Y56111D01*
X2070292Y56423D01*
X2069983Y56361D01*
X2066547Y59798D01*
X2065875Y60247D01*
X2065082Y60405D01*
X2065082Y60405D01*
X2041712D01*
X2039243Y62874D01*
X2039729Y64047D01*
X2113171D01*
X2114213Y62777D01*
D02*
G37*
G36*
X1556173Y63317D02*
X1547237Y54381D01*
X1533893D01*
X1533224Y55425D01*
X1533247Y55651D01*
X1533529Y57071D01*
X1533237Y58542D01*
X1532403Y59789D01*
X1531156Y60622D01*
X1529685Y60915D01*
X1528214Y60622D01*
X1526967Y59789D01*
X1526134Y58542D01*
X1525841Y57071D01*
X1526124Y55651D01*
X1526146Y55425D01*
X1525478Y54381D01*
X1465797D01*
X1465004Y54223D01*
X1464332Y53774D01*
X1464332Y53774D01*
X1457733Y47176D01*
X1452726D01*
X1452200Y48446D01*
X1461768Y58014D01*
X1513496D01*
X1513496Y58014D01*
X1514289Y58172D01*
X1514961Y58621D01*
X1520927Y64587D01*
X1555647D01*
X1556173Y63317D01*
D02*
G37*
G36*
X2746179Y55456D02*
X2746179Y55456D01*
X2746851Y55007D01*
X2747644Y54849D01*
X2767121D01*
X2767800Y53579D01*
X2767602Y53283D01*
X2745427D01*
X2741497Y57213D01*
X2740825Y57662D01*
X2740032Y57820D01*
X2740031Y57820D01*
X2668944D01*
X2668559Y59090D01*
X2668735Y59207D01*
X2669568Y60454D01*
X2669861Y61925D01*
X2669579Y63346D01*
X2669556Y63571D01*
X2670225Y64616D01*
X2737019D01*
X2746179Y55456D01*
D02*
G37*
G36*
X2361400Y54657D02*
X2356127Y49384D01*
X2219927D01*
X2219714Y49640D01*
X2219959Y51332D01*
X2220038Y51384D01*
X2220469Y52030D01*
X2347024D01*
X2347024Y52030D01*
X2347817Y52188D01*
X2348489Y52637D01*
X2351682Y55830D01*
X2360914D01*
X2361400Y54657D01*
D02*
G37*
G36*
X1250290Y66659D02*
X1343769D01*
X1344614Y65388D01*
X1344441Y64520D01*
X1344734Y63049D01*
X1345567Y61802D01*
X1346814Y60969D01*
X1348285Y60676D01*
X1349756Y60969D01*
X1351003Y61802D01*
X1351836Y63049D01*
X1352129Y64520D01*
X1351956Y65388D01*
X1352801Y66659D01*
X1515480D01*
X1515966Y65485D01*
X1512638Y62158D01*
X1460909D01*
X1460116Y62000D01*
X1459444Y61551D01*
X1459444Y61551D01*
X1449490Y51596D01*
X886868D01*
X872980Y65485D01*
X873466Y66659D01*
X1133728D01*
X1133728Y164950D01*
X1250290D01*
X1250290Y66659D01*
D02*
G37*
G36*
X3578124Y36118D02*
X3577706Y34740D01*
X3577516Y34702D01*
X3573147Y39072D01*
X3572475Y39521D01*
X3571682Y39679D01*
X3571682Y39679D01*
X3460351D01*
X3459663Y40935D01*
X3459955Y42406D01*
X3459663Y43877D01*
X3458830Y45124D01*
X3457583Y45957D01*
X3456112Y46249D01*
X3455349Y46098D01*
X3452815Y48633D01*
X3452143Y49082D01*
X3451350Y49239D01*
X3451349Y49239D01*
X3404982D01*
X3404189Y49082D01*
X3403517Y48633D01*
X3403517Y48632D01*
X3399642Y44758D01*
X3368225D01*
X3367546Y46028D01*
X3367845Y46475D01*
X3368137Y47946D01*
X3367845Y49417D01*
X3367011Y50664D01*
X3365764Y51497D01*
X3364293Y51789D01*
X3362822Y51497D01*
X3361575Y50664D01*
X3360742Y49417D01*
X3360450Y47946D01*
X3360742Y46475D01*
X3361041Y46028D01*
X3360362Y44758D01*
X3270462D01*
X3266791Y48429D01*
X3266118Y48878D01*
X3265326Y49036D01*
X3265326Y49036D01*
X3105201D01*
X3105201Y49036D01*
X3104408Y48878D01*
X3103736Y48429D01*
X3103736Y48429D01*
X3099975Y44668D01*
X3099213Y44819D01*
X3097742Y44527D01*
X3096495Y43694D01*
X3095662Y42446D01*
X3095369Y40975D01*
X3095662Y39504D01*
X3096495Y38258D01*
X3097742Y37424D01*
X3099213Y37132D01*
X3100684Y37424D01*
X3101931Y38258D01*
X3102764Y39504D01*
X3103057Y40975D01*
X3102905Y41738D01*
X3106059Y44892D01*
X3264467D01*
X3268139Y41221D01*
X3268139Y41221D01*
X3268546Y40949D01*
X3268292Y39679D01*
X3179098D01*
X3179098Y39679D01*
X3178305Y39521D01*
X3177633Y39072D01*
X3177633Y39072D01*
X3177501Y38940D01*
X3176290Y39206D01*
X3176147Y39381D01*
X3175342Y40585D01*
X3174095Y41419D01*
X3172624Y41711D01*
X3171153Y41419D01*
X3169906Y40585D01*
X3169073Y39338D01*
X3168780Y37867D01*
X3169073Y36396D01*
X3169906Y35149D01*
X3171110Y34345D01*
X3171285Y34201D01*
X3171551Y32990D01*
X3170415Y31854D01*
X3062241D01*
X3061853Y33098D01*
X3061852Y33124D01*
X3086155Y57427D01*
X3097291D01*
X3097960Y56382D01*
X3097937Y56157D01*
X3097655Y54737D01*
X3097947Y53266D01*
X3098781Y52019D01*
X3100027Y51185D01*
X3101499Y50893D01*
X3102970Y51185D01*
X3104217Y52019D01*
X3105050Y53266D01*
X3105342Y54737D01*
X3105060Y56157D01*
X3105038Y56382D01*
X3105706Y57427D01*
X3344073D01*
X3344752Y56157D01*
X3344701Y56081D01*
X3344408Y54610D01*
X3344701Y53139D01*
X3345534Y51892D01*
X3346781Y51059D01*
X3348252Y50766D01*
X3349723Y51059D01*
X3350970Y51892D01*
X3351804Y53139D01*
X3352096Y54610D01*
X3351804Y56081D01*
X3351753Y56157D01*
X3352432Y57427D01*
X3432317D01*
X3433031Y56359D01*
X3434278Y55525D01*
X3435749Y55233D01*
X3437220Y55525D01*
X3438467Y56359D01*
X3439181Y57427D01*
X3491712D01*
X3492381Y56382D01*
X3492358Y56157D01*
X3492076Y54737D01*
X3492368Y53266D01*
X3493202Y52019D01*
X3494449Y51185D01*
X3495920Y50893D01*
X3497391Y51185D01*
X3498638Y52019D01*
X3499471Y53266D01*
X3499763Y54737D01*
X3499481Y56157D01*
X3499459Y56382D01*
X3500127Y57427D01*
X3556815D01*
X3578124Y36118D01*
D02*
G37*
G36*
X692513Y62847D02*
X692514Y62847D01*
X693186Y62398D01*
X693979Y62240D01*
X693979Y62240D01*
X723646D01*
X723922Y60970D01*
X723524Y60704D01*
X723524Y60704D01*
X712941Y50121D01*
X693149D01*
X677784Y65485D01*
X678270Y66659D01*
X688702D01*
X692513Y62847D01*
D02*
G37*
G36*
X3793376Y58920D02*
X3793362Y58910D01*
X3793283Y58793D01*
X3793153Y58740D01*
X3791760Y57347D01*
X3791707Y57217D01*
X3791589Y57138D01*
X3790495Y55500D01*
X3790468Y55362D01*
X3790368Y55263D01*
X3789614Y53443D01*
Y53302D01*
X3789536Y53185D01*
X3789152Y51253D01*
X3789179Y51115D01*
X3789125Y50985D01*
Y49015D01*
X3789179Y48885D01*
X3789152Y48747D01*
X3789536Y46815D01*
X3789614Y46698D01*
Y46557D01*
X3790368Y44737D01*
X3790468Y44638D01*
X3790495Y44500D01*
X3791589Y42862D01*
X3791707Y42783D01*
X3791760Y42653D01*
X3793153Y41260D01*
X3793283Y41206D01*
X3793362Y41090D01*
X3794999Y39995D01*
X3795138Y39968D01*
X3795237Y39868D01*
X3796509Y39341D01*
X3796257Y38071D01*
X3765059D01*
X3764833Y38371D01*
X3764496Y39341D01*
X3765144Y40311D01*
X3765437Y41782D01*
X3765144Y43253D01*
X3764311Y44500D01*
X3763064Y45333D01*
X3761593Y45626D01*
X3760122Y45333D01*
X3758875Y44500D01*
X3758042Y43253D01*
X3757749Y41782D01*
X3758042Y40311D01*
X3758690Y39341D01*
X3758354Y38371D01*
X3758128Y38071D01*
X3582031D01*
X3575355Y44748D01*
X3575382Y44946D01*
X3575921Y45977D01*
X3725710D01*
X3725710Y45977D01*
X3726503Y46135D01*
X3727175Y46584D01*
X3734123Y53531D01*
X3735334Y53265D01*
X3735477Y53090D01*
X3736282Y51886D01*
X3737529Y51053D01*
X3739000Y50760D01*
X3740471Y51053D01*
X3741718Y51886D01*
X3742551Y53133D01*
X3742844Y54604D01*
X3742561Y56024D01*
X3742539Y56250D01*
X3743207Y57294D01*
X3749451D01*
X3756598Y50148D01*
X3757270Y49699D01*
X3758062Y49541D01*
X3758063Y49541D01*
X3765750D01*
X3765750Y49541D01*
X3766543Y49699D01*
X3767215Y50148D01*
X3777257Y60190D01*
X3792991D01*
X3793376Y58920D01*
D02*
G37*
G36*
X884159Y48446D02*
X883633Y47176D01*
X847441D01*
X847009Y47822D01*
X845762Y48656D01*
X844309Y48945D01*
X844268Y49009D01*
X843829Y50151D01*
X844090Y50325D01*
X844923Y51572D01*
X845215Y53043D01*
X844923Y54514D01*
X844090Y55761D01*
X842842Y56594D01*
X841372Y56887D01*
X839901Y56594D01*
X838653Y55761D01*
X838222Y55115D01*
X836408D01*
X826791Y64731D01*
X826119Y65181D01*
X825326Y65338D01*
X825326Y65338D01*
X784452D01*
X784452Y65338D01*
X783659Y65181D01*
X782987Y64731D01*
X779566Y61311D01*
X773009D01*
X772733Y62581D01*
X773131Y62847D01*
X776943Y66659D01*
X865946D01*
X884159Y48446D01*
D02*
G37*
G36*
X2743104Y49746D02*
X2743104Y49746D01*
X2743776Y49297D01*
X2744568Y49139D01*
X2744569Y49139D01*
X2751385D01*
X2751911Y47869D01*
X2749535Y45493D01*
X2567718D01*
X2563563Y49648D01*
X2562890Y50097D01*
X2562097Y50255D01*
X2562097Y50255D01*
X2402194D01*
X2401401Y50097D01*
X2400729Y49648D01*
X2400729Y49648D01*
X2382383Y31302D01*
X2372410D01*
X2371884Y32572D01*
X2385614Y46302D01*
X2385765Y46272D01*
X2387236Y46565D01*
X2388483Y47398D01*
X2389317Y48645D01*
X2389609Y50116D01*
X2389327Y51536D01*
X2389305Y51762D01*
X2389973Y52806D01*
X2613708D01*
X2613708Y52806D01*
X2614501Y52964D01*
X2615173Y53413D01*
X2615436Y53676D01*
X2670873D01*
X2671541Y52632D01*
X2671519Y52406D01*
X2671237Y50986D01*
X2671529Y49515D01*
X2672362Y48268D01*
X2673610Y47435D01*
X2675081Y47142D01*
X2676552Y47435D01*
X2677798Y48268D01*
X2678632Y49515D01*
X2678924Y50986D01*
X2678642Y52406D01*
X2678620Y52632D01*
X2679288Y53676D01*
X2739173D01*
X2743104Y49746D01*
D02*
G37*
G36*
X1955963Y50883D02*
X1955685Y50697D01*
X1951040Y46053D01*
X1950889Y46083D01*
X1949418Y45790D01*
X1948171Y44957D01*
X1947337Y43710D01*
X1947165Y42843D01*
X1939141Y34820D01*
X1932045D01*
X1931660Y36090D01*
X1931984Y36306D01*
X1932923Y37712D01*
X1933000Y38100D01*
X1928920D01*
Y40640D01*
X1933000D01*
X1932923Y41028D01*
X1932502Y41659D01*
X1933181Y42929D01*
X1936308D01*
X1936308Y42929D01*
X1937101Y43087D01*
X1937773Y43536D01*
X1946390Y52153D01*
X1955578D01*
X1955963Y50883D01*
D02*
G37*
G36*
X4611562Y165656D02*
Y1444D01*
X4434037D01*
X4433988Y1497D01*
X4433933Y1706D01*
X4432810Y3184D01*
X4432623Y3293D01*
X4432508Y3476D01*
X4430990Y4546D01*
X4430779Y4593D01*
X4430614Y4732D01*
X4428844Y5293D01*
X4428629Y5275D01*
X4428429Y5358D01*
X4426572Y5358D01*
X4426372Y5275D01*
X4426157Y5294D01*
X4424387Y4733D01*
X4424221Y4593D01*
X4424011Y4546D01*
X4422493Y3476D01*
X4422377Y3294D01*
X4422191Y3185D01*
X4421067Y1707D01*
X4421012Y1497D01*
X4420963Y1444D01*
X4253937D01*
X4253897Y1487D01*
X4253841Y1695D01*
X4252732Y3142D01*
X4252546Y3250D01*
X4252430Y3431D01*
X4250937Y4477D01*
X4250727Y4524D01*
X4250562Y4663D01*
X4248824Y5211D01*
X4248609Y5192D01*
X4248410Y5274D01*
X4246587Y5274D01*
X4246388Y5192D01*
X4246174Y5210D01*
X4244435Y4661D01*
X4244271Y4523D01*
X4244060Y4476D01*
X4242568Y3430D01*
X4242452Y3248D01*
X4242266Y3140D01*
X4241158Y1693D01*
X4241102Y1485D01*
X4241064Y1444D01*
X4115887D01*
X4115573Y1943D01*
X4115405Y2713D01*
X4118945Y6253D01*
X4119920Y6059D01*
X4121488Y6371D01*
X4122818Y7260D01*
X4123407Y8142D01*
X4124134Y8545D01*
X4124975Y8457D01*
X4125851Y7871D01*
X4127420Y7559D01*
X4128988Y7871D01*
X4130318Y8760D01*
X4131207Y10090D01*
X4131519Y11658D01*
X4131232Y13100D01*
X4131553Y13631D01*
X4132064Y14230D01*
X4132920Y14059D01*
X4134488Y14371D01*
X4135818Y15260D01*
X4136707Y16590D01*
X4137018Y18158D01*
X4136707Y19727D01*
X4135818Y21056D01*
X4134488Y21945D01*
X4132920Y22257D01*
X4131351Y21945D01*
X4130022Y21056D01*
X4129133Y19727D01*
X4128821Y18158D01*
X4129108Y16716D01*
X4128787Y16185D01*
X4128276Y15587D01*
X4127420Y15757D01*
X4125851Y15445D01*
X4124522Y14556D01*
X4123932Y13674D01*
X4123206Y13271D01*
X4122365Y13359D01*
X4121488Y13945D01*
X4119920Y14257D01*
X4118351Y13945D01*
X4117021Y13056D01*
X4116133Y11727D01*
X4115821Y10158D01*
X4116015Y9183D01*
X4112887Y6055D01*
X4086885D01*
X4082490Y10451D01*
X4081818Y10900D01*
X4081025Y11057D01*
X4081025Y11057D01*
X3986408D01*
X3985882Y12327D01*
X3994385Y20830D01*
X3994385Y20830D01*
X3994834Y21502D01*
X3994991Y22295D01*
X3994991Y22295D01*
Y24479D01*
X3995638Y24911D01*
X3996471Y26158D01*
X3996764Y27629D01*
X3996471Y29100D01*
X3995992Y29816D01*
X3996643Y31086D01*
X4001396D01*
X4001827Y30440D01*
X4003074Y29607D01*
X4004545Y29314D01*
X4006016Y29607D01*
X4007263Y30440D01*
X4008097Y31687D01*
X4008389Y33158D01*
X4008097Y34629D01*
X4007263Y35876D01*
X4006016Y36709D01*
X4004545Y37002D01*
X4003074Y36709D01*
X4001827Y35876D01*
X4001396Y35230D01*
X3989180D01*
X3989180Y35230D01*
X3988387Y35072D01*
X3987715Y34623D01*
X3987715Y34623D01*
X3975322Y22230D01*
X3934601D01*
X3934601Y22230D01*
X3934540Y22218D01*
X3919764D01*
X3913504Y28477D01*
X3914030Y29747D01*
X3945479D01*
X3946171Y28711D01*
X3947418Y27878D01*
X3948889Y27585D01*
X3950360Y27878D01*
X3951607Y28711D01*
X3952440Y29958D01*
X3952733Y31429D01*
X3952440Y32900D01*
X3951607Y34147D01*
X3950360Y34980D01*
X3948889Y35273D01*
X3947418Y34980D01*
X3946171Y34147D01*
X3945999Y33891D01*
X3925789D01*
X3925263Y35161D01*
X3930892Y40790D01*
X3946682D01*
X3950836Y36635D01*
X3950836Y36635D01*
X3951509Y36186D01*
X3952302Y36028D01*
X3952302Y36028D01*
X3985497D01*
X3985497Y36028D01*
X3986290Y36186D01*
X3986962Y36635D01*
X3989394Y39066D01*
X4007730D01*
X4008162Y38420D01*
X4009409Y37587D01*
X4010880Y37294D01*
X4012351Y37587D01*
X4013598Y38420D01*
X4014431Y39667D01*
X4014724Y41138D01*
X4014431Y42609D01*
X4013598Y43856D01*
X4012351Y44689D01*
X4010880Y44982D01*
X4009409Y44689D01*
X4008162Y43856D01*
X4007730Y43210D01*
X3988536D01*
X3988535Y43210D01*
X3987743Y43052D01*
X3987071Y42603D01*
X3984813Y40346D01*
X3984032Y40449D01*
X3983724Y41771D01*
X3984244Y42118D01*
X3985183Y43524D01*
X3985261Y43912D01*
X3981180D01*
Y45182D01*
D01*
Y43912D01*
X3977099D01*
X3977177Y43524D01*
X3978116Y42118D01*
X3979128Y41442D01*
X3978742Y40172D01*
X3972617D01*
X3972232Y41442D01*
X3973244Y42118D01*
X3974183Y43524D01*
X3974261Y43912D01*
X3970180D01*
X3966099D01*
X3966176Y43524D01*
X3967116Y42118D01*
X3968128Y41442D01*
X3967743Y40172D01*
X3953160D01*
X3950056Y43275D01*
X3950347Y44575D01*
X3950442Y44686D01*
X3951607Y45464D01*
X3952440Y46711D01*
X3952733Y48182D01*
X3952440Y49653D01*
X3951607Y50900D01*
X3950360Y51733D01*
X3948889Y52026D01*
X3947418Y51733D01*
X3946171Y50900D01*
X3945338Y49653D01*
X3945045Y48182D01*
X3945338Y46711D01*
X3945676Y46204D01*
X3944998Y44934D01*
X3932163D01*
X3931484Y46204D01*
X3931823Y46711D01*
X3932116Y48182D01*
X3931823Y49653D01*
X3930990Y50900D01*
X3929743Y51733D01*
X3928272Y52026D01*
X3926801Y51733D01*
X3925554Y50900D01*
X3924721Y49653D01*
X3924428Y48182D01*
X3924721Y46711D01*
X3925554Y45464D01*
X3926801Y44631D01*
X3927031Y44585D01*
X3927449Y43207D01*
X3922313Y38071D01*
X3851829D01*
X3851161Y39116D01*
X3851183Y39341D01*
X3851465Y40761D01*
X3851173Y42232D01*
X3850339Y43479D01*
X3849092Y44313D01*
X3847621Y44605D01*
X3846151Y44313D01*
X3844903Y43479D01*
X3844070Y42232D01*
X3843777Y40761D01*
X3844060Y39341D01*
X3844082Y39116D01*
X3843414Y38071D01*
X3804743D01*
X3804490Y39341D01*
X3805763Y39868D01*
X3805862Y39968D01*
X3806000Y39995D01*
X3807638Y41090D01*
X3807717Y41207D01*
X3807847Y41260D01*
X3809240Y42653D01*
X3809294Y42783D01*
X3809410Y42862D01*
X3810505Y44500D01*
X3810532Y44638D01*
X3810632Y44737D01*
X3811386Y46557D01*
Y46698D01*
X3811464Y46815D01*
X3811848Y48747D01*
X3811821Y48885D01*
X3811875Y49015D01*
Y50985D01*
X3811821Y51115D01*
X3811848Y51253D01*
X3811464Y53185D01*
X3811386Y53302D01*
Y53443D01*
X3810632Y55263D01*
X3810532Y55362D01*
X3810505Y55500D01*
X3809410Y57138D01*
X3809294Y57217D01*
X3809240Y57347D01*
X3807847Y58740D01*
X3807716Y58793D01*
X3807638Y58910D01*
X3807624Y58920D01*
X3808009Y60190D01*
X3966335D01*
X3966486Y60009D01*
X3966898Y58920D01*
X3966176Y57840D01*
X3966099Y57452D01*
X3970180D01*
X3974260D01*
X3974183Y57840D01*
X3973462Y58920D01*
X3973874Y60009D01*
X3974024Y60190D01*
X3977336D01*
X3977486Y60009D01*
X3977898Y58920D01*
X3977177Y57840D01*
X3977099Y57452D01*
X3981180D01*
X3985260D01*
X3985183Y57840D01*
X3984462Y58920D01*
X3984874Y60009D01*
X3985024Y60190D01*
X3995126D01*
X4001135Y54181D01*
X4001135Y54181D01*
X4001807Y53732D01*
X4002600Y53574D01*
X4085485D01*
X4085870Y52304D01*
X4085864Y52300D01*
X4085030Y51053D01*
X4084738Y49582D01*
X4085030Y48111D01*
X4085864Y46864D01*
X4087111Y46031D01*
X4088582Y45738D01*
X4088733Y45768D01*
X4098232Y36269D01*
X4099073Y35707D01*
X4100063Y35510D01*
X4143875D01*
X4144866Y35707D01*
X4145706Y36269D01*
X4156606Y47168D01*
X4168131D01*
X4168216Y47040D01*
X4169464Y46207D01*
X4170934Y45914D01*
X4172405Y46207D01*
X4173652Y47040D01*
X4174485Y48287D01*
X4174778Y49758D01*
X4174485Y51229D01*
X4173652Y52476D01*
X4172405Y53309D01*
X4170934Y53602D01*
X4169464Y53309D01*
X4168216Y52476D01*
X4168131Y52348D01*
X4155533D01*
X4154542Y52151D01*
X4153702Y51589D01*
X4142802Y40690D01*
X4101136D01*
X4096533Y45293D01*
X4097342Y46280D01*
X4097953Y45871D01*
X4099522Y45559D01*
X4101091Y45871D01*
X4102420Y46760D01*
X4103309Y48090D01*
X4103621Y49658D01*
X4103309Y51227D01*
X4102589Y52304D01*
X4102887Y53207D01*
X4103152Y53574D01*
X4109790D01*
X4115247Y48117D01*
X4115247Y48117D01*
X4115919Y47668D01*
X4116712Y47510D01*
X4131851D01*
X4131851Y47510D01*
X4132644Y47668D01*
X4133316Y48117D01*
X4135220Y50021D01*
X4135220Y50021D01*
X4135669Y50693D01*
X4135827Y51486D01*
X4135891Y52631D01*
X4137138Y53464D01*
X4137971Y54711D01*
X4138264Y56182D01*
X4137971Y57653D01*
X4137138Y58900D01*
X4135891Y59733D01*
X4134420Y60026D01*
X4132949Y59733D01*
X4132072Y59147D01*
X4130888Y59097D01*
X4130387Y59218D01*
X4129340Y59917D01*
X4127869Y60210D01*
X4126398Y59917D01*
X4125151Y59084D01*
X4124720Y58438D01*
X4115063D01*
X4113366Y60135D01*
X4112694Y60584D01*
X4111901Y60742D01*
X4111901Y60742D01*
X4024236D01*
X4022583Y62395D01*
X4022502Y62801D01*
X4022053Y63474D01*
X4022053Y63474D01*
X4020041Y65485D01*
X4020527Y66659D01*
X4476382D01*
X4476382Y164928D01*
X4477281Y165826D01*
X4611562Y165656D01*
D02*
G37*
G36*
X2382226Y51762D02*
X2382204Y51536D01*
X2381922Y50116D01*
X2381952Y49965D01*
X2368488Y36501D01*
X2178945D01*
X2178266Y37771D01*
X2178352Y37899D01*
X2178644Y39370D01*
X2178352Y40841D01*
X2177518Y42088D01*
X2176271Y42921D01*
X2174800Y43214D01*
X2173329Y42921D01*
X2172082Y42088D01*
X2171249Y40841D01*
X2170957Y39370D01*
X2171249Y37899D01*
X2171335Y37771D01*
X2170656Y36501D01*
X2168852D01*
X2166734Y38619D01*
X2166764Y38770D01*
X2166471Y40241D01*
X2165638Y41488D01*
X2164391Y42321D01*
X2162920Y42614D01*
X2161449Y42321D01*
X2160202Y41488D01*
X2159368Y40241D01*
X2159076Y38770D01*
X2159368Y37299D01*
X2160202Y36052D01*
X2161449Y35219D01*
X2162920Y34926D01*
X2163071Y34956D01*
X2165456Y32572D01*
X2164930Y31302D01*
X2157060D01*
X2150276Y38085D01*
X2149604Y38534D01*
X2148811Y38692D01*
X2148811Y38692D01*
X2110743D01*
X2110166Y39962D01*
X2110705Y40768D01*
X2110997Y42239D01*
X2110705Y43710D01*
X2110531Y43970D01*
X2111210Y45240D01*
X2356985D01*
X2356985Y45240D01*
X2357778Y45398D01*
X2358450Y45847D01*
X2365409Y52806D01*
X2381558D01*
X2382226Y51762D01*
D02*
G37*
G36*
X2759333Y44956D02*
X2759521Y43741D01*
X2759090Y43453D01*
X2754297Y38660D01*
X2673568D01*
X2672149Y40079D01*
X2672675Y41349D01*
X2750393D01*
X2750393Y41349D01*
X2751186Y41507D01*
X2751858Y41956D01*
X2754913Y45011D01*
X2759310D01*
X2759333Y44956D01*
D02*
G37*
G36*
X834084Y51578D02*
X834085Y51578D01*
X834573Y51252D01*
X834558Y50443D01*
X834414Y49947D01*
X833295Y49724D01*
X832048Y48891D01*
X831215Y47644D01*
X830922Y46173D01*
X831215Y44702D01*
X832048Y43455D01*
X833295Y42622D01*
X833547Y42572D01*
X833422Y41302D01*
X822278D01*
X821293Y42367D01*
X821239Y42653D01*
X821293Y42783D01*
X821411Y42862D01*
X822087Y43875D01*
X822401Y44284D01*
X822467Y44443D01*
X822505Y44500D01*
X822518Y44566D01*
X822559Y44664D01*
X822632Y44737D01*
X823386Y46557D01*
Y46661D01*
X823426Y46759D01*
X823464Y46815D01*
X823477Y46881D01*
X823543Y47041D01*
X823611Y47552D01*
X823848Y48747D01*
X823821Y48885D01*
X823875Y49015D01*
Y49558D01*
X823933Y50000D01*
X823875Y50442D01*
Y50985D01*
X823821Y51115D01*
X823848Y51253D01*
X823611Y52448D01*
X823543Y52959D01*
X823477Y53119D01*
X823464Y53185D01*
X823426Y53241D01*
X823386Y53339D01*
Y53443D01*
X822632Y55263D01*
X822559Y55336D01*
X822518Y55434D01*
X822505Y55500D01*
X822467Y55557D01*
X822401Y55716D01*
X822087Y56125D01*
X821411Y57138D01*
X821293Y57217D01*
X821239Y57347D01*
X820856Y57730D01*
X820584Y58084D01*
X820230Y58356D01*
X819847Y58740D01*
X819716Y58793D01*
X819638Y58910D01*
X818625Y59587D01*
X818216Y59901D01*
X818651Y61096D01*
X818709Y61195D01*
X824468D01*
X834084Y51578D01*
D02*
G37*
G36*
X3443723Y44051D02*
X3443701Y43826D01*
X3443418Y42406D01*
X3443711Y40935D01*
X3443022Y39679D01*
X3401812D01*
X3401558Y40949D01*
X3401965Y41221D01*
X3405840Y45096D01*
X3443055D01*
X3443723Y44051D01*
D02*
G37*
G36*
X1851835Y53667D02*
X1851835Y53667D01*
X1852508Y53218D01*
X1853300Y53060D01*
X1913078D01*
X1913503Y52537D01*
X1913854Y51942D01*
X1913875Y51821D01*
X1913839Y51640D01*
X1922000D01*
X1921923Y52028D01*
X1920984Y53434D01*
X1919578Y54373D01*
X1917950Y54697D01*
X1917854Y54837D01*
X1917340Y55883D01*
X1921034Y59577D01*
X1955685D01*
X1957695Y57567D01*
X1957169Y56297D01*
X1945532D01*
X1945532Y56297D01*
X1944739Y56139D01*
X1944067Y55690D01*
X1935449Y47073D01*
X1933355D01*
X1932677Y48343D01*
X1932923Y48712D01*
X1933000Y49100D01*
X1924839D01*
X1924916Y48712D01*
X1925163Y48343D01*
X1924484Y47073D01*
X1922355D01*
X1921677Y48343D01*
X1921923Y48712D01*
X1922000Y49100D01*
X1913839D01*
X1913916Y48712D01*
X1914163Y48343D01*
X1913484Y47073D01*
X1638952D01*
X1638159Y46915D01*
X1637487Y46466D01*
X1637487Y46466D01*
X1627807Y36786D01*
X1402395D01*
X1398486Y40695D01*
X1397814Y41144D01*
X1397021Y41302D01*
X1397021Y41302D01*
X848534D01*
X847910Y42572D01*
X848266Y43032D01*
X1458592D01*
X1458592Y43032D01*
X1459385Y43190D01*
X1460057Y43639D01*
X1466655Y50237D01*
X1548095D01*
X1548096Y50237D01*
X1548888Y50395D01*
X1549561Y50844D01*
X1558907Y60190D01*
X1560995D01*
X1561380Y58920D01*
X1561365Y58910D01*
X1561287Y58794D01*
X1561157Y58740D01*
X1559764Y57347D01*
X1559710Y57217D01*
X1559593Y57138D01*
X1558499Y55500D01*
X1558471Y55362D01*
X1558372Y55263D01*
X1557618Y53443D01*
Y53302D01*
X1557540Y53185D01*
X1557482Y52897D01*
X1557477Y52884D01*
X1557471Y52841D01*
X1557155Y51253D01*
X1557183Y51115D01*
X1557129Y50985D01*
Y50241D01*
X1557087Y49924D01*
X1557129Y49608D01*
Y49015D01*
X1557183Y48885D01*
X1557155Y48747D01*
X1557413Y47455D01*
X1557477Y46965D01*
X1557618Y46625D01*
Y46557D01*
X1558372Y44737D01*
X1558420Y44689D01*
X1558619Y44208D01*
X1559196Y43456D01*
X1559593Y42862D01*
X1559710Y42783D01*
X1559764Y42653D01*
X1559970Y42448D01*
X1560436Y41840D01*
X1561044Y41374D01*
X1561157Y41260D01*
X1561232Y41230D01*
X1561314Y41167D01*
X1561365Y41090D01*
X1561743Y40837D01*
X1562804Y40023D01*
X1565561Y38881D01*
X1567147Y38672D01*
X1567251Y38652D01*
X1567272Y38656D01*
X1568520Y38492D01*
X1569749Y38653D01*
X1569757Y38652D01*
X1569796Y38660D01*
X1571479Y38881D01*
X1574237Y40023D01*
X1575519Y41007D01*
X1575642Y41090D01*
X1575659Y41115D01*
X1575847Y41259D01*
X1575850Y41260D01*
X1575855Y41265D01*
X1576604Y41840D01*
X1577179Y42590D01*
X1577243Y42653D01*
X1577261Y42695D01*
X1577361Y42826D01*
X1577414Y42862D01*
X1577589Y43124D01*
X1578421Y44208D01*
X1579563Y46965D01*
X1579692Y47944D01*
X1579852Y48747D01*
X1579825Y48885D01*
X1579878Y49015D01*
Y49358D01*
X1579953Y49924D01*
X1579878Y50491D01*
Y50985D01*
X1579825Y51115D01*
X1579852Y51253D01*
X1579633Y52352D01*
X1579563Y52884D01*
X1579495Y53050D01*
X1579468Y53185D01*
X1579391Y53300D01*
X1579389Y53304D01*
Y53443D01*
X1578636Y55263D01*
X1578537Y55361D01*
X1578536Y55365D01*
X1578509Y55500D01*
X1578432Y55615D01*
X1578421Y55641D01*
X1578371Y55706D01*
X1577414Y57138D01*
X1577297Y57217D01*
X1577243Y57347D01*
X1576681Y57909D01*
X1576604Y58009D01*
X1576505Y58085D01*
X1575850Y58740D01*
X1575720Y58794D01*
X1575642Y58910D01*
X1575628Y58920D01*
X1576013Y60190D01*
X1845312D01*
X1851835Y53667D01*
D02*
G37*
G36*
X3083837Y60967D02*
X3083832Y60964D01*
X3083832Y60964D01*
X3059523Y36655D01*
X3019563D01*
X3013777Y42441D01*
X3013105Y42890D01*
X3012312Y43047D01*
X3012312Y43047D01*
X2892470D01*
X2892065Y43453D01*
X2891392Y43902D01*
X2890599Y44060D01*
X2890599Y44060D01*
X2833136D01*
X2833113Y44115D01*
X2832925Y45330D01*
X2833356Y45618D01*
X2841420Y53682D01*
X2842057Y53598D01*
X2842272Y53383D01*
X2842885Y52241D01*
X2842680Y51211D01*
X2842973Y49740D01*
X2843806Y48493D01*
X2845053Y47660D01*
X2846524Y47367D01*
X2847995Y47660D01*
X2849242Y48493D01*
X2850075Y49740D01*
X2850368Y51211D01*
X2850075Y52682D01*
X2849841Y53033D01*
X2850519Y54303D01*
X2867944D01*
X2870795Y51452D01*
X2870795Y51452D01*
X2871467Y51003D01*
X2872260Y50845D01*
X2937126D01*
X2937932Y49863D01*
X2937876Y49584D01*
X2938169Y48113D01*
X2939002Y46866D01*
X2940249Y46032D01*
X2941720Y45740D01*
X2943191Y46032D01*
X2944438Y46866D01*
X2945271Y48113D01*
X2945564Y49584D01*
X2945281Y51004D01*
X2945259Y51229D01*
X2945927Y52274D01*
X3022657D01*
X3022657Y52274D01*
X3023451Y52431D01*
X3024123Y52881D01*
X3033479Y62237D01*
X3039944D01*
X3041067Y60967D01*
X3041057Y60886D01*
X3039237Y60132D01*
X3039138Y60032D01*
X3039000Y60005D01*
X3037361Y58910D01*
X3037283Y58793D01*
X3037153Y58740D01*
X3035760Y57347D01*
X3035706Y57217D01*
X3035590Y57138D01*
X3034495Y55500D01*
X3034467Y55362D01*
X3034368Y55263D01*
X3033614Y53443D01*
Y53302D01*
X3033536Y53185D01*
X3033152Y51253D01*
X3033179Y51115D01*
X3033125Y50985D01*
Y49015D01*
X3033179Y48885D01*
X3033152Y48747D01*
X3033536Y46815D01*
X3033614Y46698D01*
Y46557D01*
X3034368Y44737D01*
X3034467Y44638D01*
X3034495Y44500D01*
X3035590Y42862D01*
X3035706Y42783D01*
X3035760Y42653D01*
X3037153Y41260D01*
X3037283Y41206D01*
X3037361Y41090D01*
X3039000Y39995D01*
X3039138Y39968D01*
X3039237Y39868D01*
X3041057Y39114D01*
X3041198D01*
X3041315Y39036D01*
X3043247Y38652D01*
X3043385Y38679D01*
X3043515Y38625D01*
X3045485D01*
X3045615Y38679D01*
X3045753Y38652D01*
X3047685Y39036D01*
X3047802Y39114D01*
X3047943D01*
X3049763Y39868D01*
X3049862Y39968D01*
X3050001Y39995D01*
X3051638Y41090D01*
X3051717Y41207D01*
X3051847Y41260D01*
X3053239Y42653D01*
X3053293Y42783D01*
X3053411Y42862D01*
X3054505Y44500D01*
X3054532Y44638D01*
X3054632Y44737D01*
X3055386Y46557D01*
Y46698D01*
X3055464Y46815D01*
X3055848Y48747D01*
X3055821Y48885D01*
X3055875Y49015D01*
Y50985D01*
X3055821Y51115D01*
X3055848Y51253D01*
X3055464Y53185D01*
X3055386Y53302D01*
Y53443D01*
X3054632Y55263D01*
X3054532Y55362D01*
X3054505Y55500D01*
X3053411Y57138D01*
X3053293Y57217D01*
X3053239Y57347D01*
X3051847Y58740D01*
X3051717Y58793D01*
X3051638Y58910D01*
X3050001Y60005D01*
X3049862Y60032D01*
X3049763Y60132D01*
X3047943Y60886D01*
X3047933Y60967D01*
X3049055Y62237D01*
X3083452D01*
X3083837Y60967D01*
D02*
G37*
G36*
X144947Y165779D02*
X144965Y66658D01*
X637084D01*
X637154Y66612D01*
X638625Y66319D01*
X640096Y66612D01*
X640165Y66659D01*
X670751D01*
X690825Y46584D01*
X690826Y46584D01*
X691498Y46135D01*
X692290Y45977D01*
X713799D01*
X713799Y45977D01*
X714592Y46135D01*
X715264Y46584D01*
X725847Y57167D01*
X758503D01*
X758629Y57019D01*
X759066Y55897D01*
X758405Y54909D01*
X758093Y53340D01*
X758405Y51771D01*
X759294Y50442D01*
X759861Y50062D01*
X759839Y49755D01*
X759480Y48790D01*
X758205Y48537D01*
X756876Y47648D01*
X755987Y46319D01*
X755675Y44750D01*
X755987Y43182D01*
X756876Y41852D01*
X758205Y40963D01*
X759774Y40651D01*
X761343Y40963D01*
X762672Y41852D01*
X763561Y43182D01*
X763873Y44750D01*
X763561Y46319D01*
X762672Y47648D01*
X762105Y48028D01*
X762127Y48335D01*
X762487Y49300D01*
X763761Y49553D01*
X765090Y50442D01*
X765979Y51771D01*
X766291Y53340D01*
X765979Y54909D01*
X765318Y55897D01*
X765755Y57019D01*
X765881Y57167D01*
X780424D01*
X780424Y57167D01*
X781217Y57325D01*
X781480Y57500D01*
X782783Y57125D01*
X782897Y56986D01*
X783702Y55782D01*
X784949Y54949D01*
X786420Y54656D01*
X787891Y54949D01*
X789138Y55782D01*
X789971Y57029D01*
X790264Y58500D01*
X789980Y59925D01*
X789954Y60151D01*
X790633Y61195D01*
X806291D01*
X806349Y61096D01*
X806784Y59901D01*
X806375Y59587D01*
X805362Y58910D01*
X805283Y58793D01*
X805153Y58740D01*
X804769Y58356D01*
X804416Y58084D01*
X804144Y57731D01*
X803760Y57347D01*
X803707Y57217D01*
X803589Y57138D01*
X802913Y56125D01*
X802599Y55716D01*
X802533Y55557D01*
X802495Y55500D01*
X802482Y55434D01*
X802441Y55336D01*
X802368Y55263D01*
X801614Y53443D01*
Y53339D01*
X801574Y53242D01*
X801536Y53185D01*
X801523Y53119D01*
X801457Y52959D01*
X801389Y52448D01*
X801152Y51253D01*
X801179Y51115D01*
X801125Y50985D01*
Y50442D01*
X801067Y50000D01*
X801125Y49558D01*
Y49015D01*
X801179Y48885D01*
X801152Y48747D01*
X801389Y47551D01*
X801457Y47041D01*
X801523Y46881D01*
X801536Y46815D01*
X801574Y46758D01*
X801614Y46661D01*
Y46557D01*
X802368Y44737D01*
X802441Y44664D01*
X802482Y44566D01*
X802495Y44500D01*
X802533Y44443D01*
X802599Y44284D01*
X802912Y43875D01*
X803589Y42862D01*
X803707Y42783D01*
X803760Y42653D01*
X804145Y42269D01*
X804416Y41916D01*
X804769Y41645D01*
X805153Y41260D01*
X805283Y41206D01*
X805362Y41090D01*
X806375Y40412D01*
X806784Y40099D01*
X806943Y40033D01*
X807000Y39995D01*
X807066Y39982D01*
X807164Y39941D01*
X807237Y39868D01*
X809057Y39114D01*
X809161D01*
X809258Y39074D01*
X809315Y39036D01*
X809381Y39023D01*
X809541Y38957D01*
X810051Y38890D01*
X811247Y38652D01*
X811385Y38679D01*
X811515Y38625D01*
X812058D01*
X812500Y38567D01*
X812942Y38625D01*
X813485D01*
X813615Y38679D01*
X813753Y38652D01*
X814340Y37474D01*
X810415Y33549D01*
X809653Y33700D01*
X808182Y33408D01*
X806935Y32574D01*
X806102Y31327D01*
X805809Y29856D01*
X806102Y28385D01*
X806481Y27818D01*
X805802Y26548D01*
X796449D01*
X784697Y38299D01*
X784025Y38748D01*
X783232Y38906D01*
X783232Y38906D01*
X747540D01*
X746861Y40176D01*
X746887Y40214D01*
X747180Y41685D01*
X746887Y43156D01*
X746054Y44403D01*
X744807Y45237D01*
X743336Y45529D01*
X741865Y45237D01*
X740618Y44403D01*
X739784Y43156D01*
X739492Y41685D01*
X739784Y40214D01*
X739810Y40176D01*
X739131Y38906D01*
X691050D01*
X690371Y40176D01*
X690607Y40529D01*
X690900Y42000D01*
X690607Y43471D01*
X689774Y44718D01*
X688527Y45551D01*
X687056Y45844D01*
X685585Y45551D01*
X684338Y44718D01*
X683505Y43471D01*
X683212Y42000D01*
X683505Y40529D01*
X683741Y40176D01*
X683062Y38906D01*
X654754D01*
X654754Y38906D01*
X653961Y38748D01*
X653289Y38299D01*
X653289Y38299D01*
X642776Y27786D01*
X641595Y27551D01*
X640348Y26718D01*
X639515Y25471D01*
X639222Y24000D01*
X639348Y23367D01*
X638178Y22741D01*
X636573Y24346D01*
X636724Y25109D01*
X636432Y26580D01*
X635599Y27827D01*
X634352Y28660D01*
X632881Y28952D01*
X631410Y28660D01*
X630163Y27827D01*
X629329Y26580D01*
X629037Y25109D01*
X629329Y23638D01*
X630163Y22390D01*
X631410Y21557D01*
X632881Y21265D01*
X633643Y21416D01*
X638224Y16835D01*
X638896Y16386D01*
X639689Y16228D01*
X639689Y16228D01*
X713019D01*
X713019Y16228D01*
X713812Y16386D01*
X714484Y16835D01*
X722590Y24940D01*
X778588D01*
X784732Y18796D01*
X784732Y18796D01*
X785404Y18347D01*
X786197Y18190D01*
X790906D01*
X791585Y16919D01*
X791171Y16301D01*
X790859Y14732D01*
X791171Y13163D01*
X792060Y11834D01*
X792442Y11578D01*
X792057Y10308D01*
X769341D01*
X766171Y13477D01*
X765499Y13926D01*
X764706Y14084D01*
X764706Y14084D01*
X729627D01*
X729242Y15354D01*
X729313Y15402D01*
X730202Y16731D01*
X730514Y18300D01*
X730202Y19869D01*
X729313Y21198D01*
X727983Y22087D01*
X726415Y22399D01*
X724846Y22087D01*
X723517Y21198D01*
X722628Y19869D01*
X722316Y18300D01*
X722628Y16731D01*
X723517Y15402D01*
X723588Y15354D01*
X723203Y14084D01*
X710299D01*
X710298Y14084D01*
X709506Y13926D01*
X708833Y13477D01*
X704540Y9184D01*
X656630D01*
X656198Y9830D01*
X654951Y10663D01*
X653480Y10956D01*
X652009Y10663D01*
X650762Y9830D01*
X649929Y8583D01*
X649636Y7112D01*
X649919Y5692D01*
X649941Y5466D01*
X649273Y4422D01*
X637780D01*
X626253Y15949D01*
Y42167D01*
X626818Y42545D01*
X627652Y43792D01*
X627944Y45263D01*
X627652Y46734D01*
X626818Y47981D01*
X625571Y48815D01*
X624100Y49107D01*
X622629Y48815D01*
X621382Y47981D01*
X620549Y46734D01*
X620257Y45263D01*
X620549Y43792D01*
X621382Y42545D01*
X622109Y42060D01*
Y15091D01*
X622109Y15091D01*
X622267Y14298D01*
X622716Y13626D01*
X633725Y2617D01*
X633239Y1444D01*
X552317D01*
X552237Y1534D01*
X552183Y1746D01*
X551019Y3309D01*
X550831Y3421D01*
X550716Y3607D01*
X549130Y4739D01*
X548918Y4789D01*
X548751Y4930D01*
X546895Y5525D01*
X546677Y5507D01*
X546476Y5591D01*
X544527Y5591D01*
X544325Y5508D01*
X544107Y5526D01*
X542251Y4931D01*
X542085Y4790D01*
X541872Y4741D01*
X540286Y3608D01*
X540170Y3423D01*
X539982Y3311D01*
X538818Y1748D01*
X538764Y1537D01*
X538682Y1444D01*
X372038D01*
X371987Y1500D01*
X371931Y1709D01*
X370808Y3186D01*
X370622Y3295D01*
X370506Y3477D01*
X368989Y4546D01*
X368779Y4593D01*
X368613Y4733D01*
X366845Y5293D01*
X366629Y5275D01*
X366430Y5357D01*
X364574Y5358D01*
X364375Y5275D01*
X364159Y5294D01*
X362391Y4734D01*
X362225Y4595D01*
X362014Y4548D01*
X360497Y3480D01*
X360381Y3297D01*
X360194Y3189D01*
X359071Y1713D01*
X359015Y1504D01*
X358961Y1444D01*
X192037D01*
X191988Y1498D01*
X191933Y1707D01*
X190809Y3185D01*
X190623Y3294D01*
X190507Y3477D01*
X188989Y4546D01*
X188778Y4593D01*
X188613Y4733D01*
X186843Y5294D01*
X186628Y5275D01*
X186428Y5358D01*
X184571Y5358D01*
X184371Y5275D01*
X184156Y5293D01*
X182386Y4732D01*
X182221Y4593D01*
X182010Y4545D01*
X180492Y3476D01*
X180377Y3293D01*
X180190Y3184D01*
X179067Y1706D01*
X179012Y1497D01*
X178964Y1444D01*
X2986D01*
X2986Y165780D01*
X144947Y165779D01*
D02*
G37*
G36*
X1914338Y41659D02*
X1913916Y41028D01*
X1913839Y40640D01*
X1917920D01*
Y38100D01*
X1913839D01*
X1913916Y37712D01*
X1914856Y36306D01*
X1915180Y36090D01*
X1914794Y34820D01*
X1879881D01*
X1879795Y34948D01*
X1878548Y35781D01*
X1877077Y36074D01*
X1875606Y35781D01*
X1874359Y34948D01*
X1873526Y33701D01*
X1873233Y32230D01*
X1873515Y30810D01*
X1873538Y30584D01*
X1872869Y29540D01*
X1748528D01*
X1742691Y35376D01*
X1742019Y35825D01*
X1741226Y35983D01*
X1741226Y35983D01*
X1637828D01*
X1637828Y35983D01*
X1637035Y35825D01*
X1636363Y35376D01*
X1630418Y29431D01*
X1396502D01*
X1390045Y35888D01*
X1390417Y37036D01*
X1390511Y37158D01*
X1396163D01*
X1400072Y33249D01*
X1400072Y33249D01*
X1400744Y32800D01*
X1401537Y32642D01*
X1401537Y32642D01*
X1628665D01*
X1628665Y32642D01*
X1629458Y32800D01*
X1630130Y33249D01*
X1639810Y42929D01*
X1913659D01*
X1914338Y41659D01*
D02*
G37*
G36*
X3017234Y33124D02*
X3017234Y33098D01*
X3016845Y31854D01*
X2942701D01*
X2942032Y32898D01*
X2942054Y33124D01*
X2942337Y34544D01*
X2942044Y36015D01*
X2941211Y37262D01*
X2940655Y37634D01*
X2941040Y38904D01*
X3011454D01*
X3017234Y33124D01*
D02*
G37*
G36*
X2890147Y39511D02*
X2890147Y39511D01*
X2890819Y39061D01*
X2891612Y38904D01*
X2935946D01*
X2936331Y37634D01*
X2935775Y37262D01*
X2934942Y36015D01*
X2934649Y34544D01*
X2934932Y33124D01*
X2934954Y32898D01*
X2934286Y31854D01*
X2848092D01*
X2845174Y34771D01*
X2844502Y35220D01*
X2843709Y35378D01*
X2843709Y35378D01*
X2832251D01*
X2832251Y35378D01*
X2831458Y35220D01*
X2830786Y34771D01*
X2827869Y31854D01*
X2810512D01*
X2807553Y34813D01*
X2806881Y35262D01*
X2806088Y35420D01*
X2806088Y35420D01*
X2774280D01*
X2773519Y36559D01*
X2772272Y37392D01*
X2770801Y37685D01*
X2769330Y37392D01*
X2768083Y36559D01*
X2767250Y35312D01*
X2766957Y33841D01*
X2767250Y32370D01*
X2768083Y31123D01*
X2769156Y30406D01*
X2769135Y29704D01*
X2768945Y29136D01*
X2679895D01*
X2679895Y29136D01*
X2679102Y28978D01*
X2678430Y28529D01*
X2678430Y28529D01*
X2668188Y18287D01*
X2659276D01*
X2658608Y19332D01*
X2658630Y19557D01*
X2658912Y20977D01*
X2658620Y22448D01*
X2657787Y23695D01*
X2656540Y24529D01*
X2655069Y24821D01*
X2653598Y24529D01*
X2652350Y23695D01*
X2651517Y22448D01*
X2651225Y20977D01*
X2651507Y19557D01*
X2651530Y19332D01*
X2650861Y18287D01*
X2457022D01*
X2452867Y22442D01*
X2452194Y22891D01*
X2451402Y23049D01*
X2451401Y23049D01*
X2409729D01*
X2409729Y23049D01*
X2408936Y22891D01*
X2408264Y22442D01*
X2408264Y22442D01*
X2404651Y18829D01*
X2398527D01*
X2398001Y20099D01*
X2404563Y26661D01*
X2454881D01*
X2454881Y26661D01*
X2455674Y26819D01*
X2456346Y27268D01*
X2460337Y31260D01*
X2518866D01*
X2519297Y30613D01*
X2520544Y29780D01*
X2522015Y29488D01*
X2523486Y29780D01*
X2524733Y30613D01*
X2525567Y31860D01*
X2525859Y33331D01*
X2525567Y34802D01*
X2524905Y35792D01*
X2525212Y36709D01*
X2525468Y37062D01*
X2531774D01*
X2534337Y34499D01*
X2534337Y34499D01*
X2535009Y34049D01*
X2535802Y33892D01*
X2535802Y33892D01*
X2654651D01*
X2654651Y33892D01*
X2655444Y34049D01*
X2656116Y34499D01*
X2658680Y37062D01*
X2669306D01*
X2671245Y35123D01*
X2671245Y35123D01*
X2671917Y34674D01*
X2672710Y34516D01*
X2755155D01*
X2755155Y34516D01*
X2755948Y34674D01*
X2756620Y35123D01*
X2761413Y39916D01*
X2889741D01*
X2890147Y39511D01*
D02*
G37*
G36*
X3575598Y30760D02*
X3575072Y29490D01*
X3434150D01*
X3433718Y30136D01*
X3432471Y30970D01*
X3431000Y31262D01*
X3429529Y30970D01*
X3428282Y30136D01*
X3427850Y29490D01*
X3412178D01*
X3411385Y29333D01*
X3410713Y28884D01*
X3410713Y28883D01*
X3410569Y28739D01*
X3394736D01*
X3394068Y29783D01*
X3394090Y30009D01*
X3394373Y31429D01*
X3394080Y32900D01*
X3393247Y34147D01*
X3393071Y34265D01*
X3393456Y35535D01*
X3570824D01*
X3575598Y30760D01*
D02*
G37*
G36*
X3387987Y34265D02*
X3387811Y34147D01*
X3386978Y32900D01*
X3386685Y31429D01*
X3386967Y30009D01*
X3386990Y29783D01*
X3386321Y28739D01*
X3264666D01*
X3259043Y34362D01*
X3259529Y35535D01*
X3387602D01*
X3387987Y34265D01*
D02*
G37*
G36*
X3199939Y34362D02*
X3191346Y25769D01*
X2885120D01*
X2884960Y25876D01*
X2884167Y26034D01*
X2884167Y26034D01*
X2880222D01*
X2880222Y26034D01*
X2879429Y25876D01*
X2879269Y25769D01*
X2844403D01*
X2843724Y27039D01*
X2843747Y27073D01*
X2843991Y28298D01*
X2844708Y28683D01*
X2845284Y28802D01*
X2845768Y28317D01*
X2846441Y27868D01*
X2847233Y27710D01*
X2847234Y27710D01*
X3171273D01*
X3171273Y27710D01*
X3172066Y27868D01*
X3172738Y28317D01*
X3179956Y35535D01*
X3199453D01*
X3199939Y34362D01*
D02*
G37*
G36*
X2565395Y41956D02*
X2565395Y41956D01*
X2566067Y41507D01*
X2566860Y41349D01*
X2566860Y41349D01*
X2655311D01*
X2655837Y40079D01*
X2653793Y38035D01*
X2536660D01*
X2534097Y40599D01*
X2533425Y41048D01*
X2532632Y41206D01*
X2532632Y41206D01*
X2403469D01*
X2402676Y41048D01*
X2402004Y40599D01*
X2402004Y40599D01*
X2387073Y25668D01*
X2057318D01*
X2056650Y26712D01*
X2056672Y26938D01*
X2056954Y28358D01*
X2056662Y29829D01*
X2055829Y31076D01*
X2054581Y31909D01*
X2053111Y32202D01*
X2051640Y31909D01*
X2050392Y31076D01*
X2049588Y29872D01*
X2049444Y29697D01*
X2048233Y29431D01*
X2038207Y39457D01*
X2037535Y39906D01*
X2036742Y40064D01*
X2036742Y40064D01*
X2004396D01*
X2004396Y40064D01*
X2003603Y39906D01*
X2002931Y39457D01*
X2002931Y39457D01*
X1994279Y30805D01*
X1992669D01*
X1992517Y31016D01*
X1992380Y32446D01*
X2002418Y42484D01*
X2043009D01*
X2050338Y35155D01*
X2050338Y35155D01*
X2051010Y34706D01*
X2051803Y34548D01*
X2051803Y34548D01*
X2087211D01*
X2087643Y33902D01*
X2088890Y33069D01*
X2090361Y32776D01*
X2091832Y33069D01*
X2093079Y33902D01*
X2093510Y34548D01*
X2147953D01*
X2154736Y27765D01*
X2154736Y27765D01*
X2155409Y27316D01*
X2156201Y27158D01*
X2383241D01*
X2383241Y27158D01*
X2384034Y27316D01*
X2384706Y27765D01*
X2403053Y46111D01*
X2561239D01*
X2565395Y41956D01*
D02*
G37*
G36*
X2011506Y34876D02*
X2011484Y34650D01*
X2011201Y33230D01*
X2011494Y31759D01*
X2012327Y30512D01*
X2013574Y29679D01*
X2015045Y29386D01*
X2016516Y29679D01*
X2017763Y30512D01*
X2018195Y31158D01*
X2030890D01*
X2034703Y27345D01*
X2034703Y27345D01*
X2035375Y26896D01*
X2036168Y26738D01*
X2036168Y26738D01*
X2036594D01*
X2044225Y19107D01*
X2044225Y19107D01*
X2044897Y18658D01*
X2045690Y18500D01*
X2246658D01*
X2247337Y17230D01*
X2247176Y16989D01*
X1978837D01*
X1978451Y18259D01*
X1978835Y18516D01*
X1979668Y19763D01*
X1979961Y21234D01*
X1979668Y22705D01*
X1978835Y23952D01*
X1977588Y24785D01*
X1976117Y25078D01*
X1974646Y24785D01*
X1973399Y23952D01*
X1972566Y22705D01*
X1972273Y21234D01*
X1972566Y19763D01*
X1973399Y18516D01*
X1973783Y18259D01*
X1973398Y16989D01*
X1969002D01*
X1968617Y18259D01*
X1969001Y18516D01*
X1969834Y19763D01*
X1970127Y21234D01*
X1969834Y22705D01*
X1969001Y23952D01*
X1967754Y24785D01*
X1966283Y25078D01*
X1964812Y24785D01*
X1963565Y23952D01*
X1962732Y22705D01*
X1962439Y21234D01*
X1962732Y19763D01*
X1963565Y18516D01*
X1963949Y18259D01*
X1963564Y16989D01*
X1953926D01*
X1953926Y16989D01*
X1953133Y16832D01*
X1952461Y16382D01*
X1952460Y16382D01*
X1948305Y12227D01*
X1934619D01*
X1934234Y13497D01*
X1934276Y13525D01*
X1935109Y14772D01*
X1935402Y16243D01*
X1935109Y17715D01*
X1934990Y17892D01*
X1935669Y19162D01*
X1944002D01*
X1944002Y19162D01*
X1944795Y19320D01*
X1945467Y19769D01*
X1950739Y25041D01*
X1951501Y24889D01*
X1952972Y25182D01*
X1954219Y26015D01*
X1954651Y26661D01*
X1995137D01*
X1995138Y26661D01*
X1995930Y26819D01*
X1996603Y27268D01*
X2005254Y35920D01*
X2010838D01*
X2011506Y34876D01*
D02*
G37*
G36*
X2808189Y28317D02*
X2808189Y28317D01*
X2808861Y27868D01*
X2809654Y27710D01*
X2809654Y27710D01*
X2828727D01*
X2828727Y27710D01*
X2829520Y27868D01*
X2830192Y28317D01*
X2833109Y31234D01*
X2835988D01*
X2836657Y30190D01*
X2836635Y29964D01*
X2836352Y28544D01*
X2836645Y27073D01*
X2836667Y27039D01*
X2835988Y25769D01*
X2801840D01*
X2799080Y28529D01*
X2798407Y28978D01*
X2797614Y29136D01*
X2797614Y29136D01*
X2772657D01*
X2772468Y29704D01*
X2772446Y30406D01*
X2773519Y31123D01*
X2773622Y31276D01*
X2805230D01*
X2808189Y28317D01*
D02*
G37*
G36*
X1394179Y25894D02*
X1394179Y25894D01*
X1394851Y25445D01*
X1395644Y25287D01*
X1631276D01*
X1631276Y25287D01*
X1632069Y25445D01*
X1632741Y25894D01*
X1638686Y31839D01*
X1640284D01*
X1640437Y31628D01*
X1640574Y30198D01*
X1640574Y30198D01*
X1634246Y23870D01*
X1391067D01*
X1383672Y31266D01*
X1383513Y31372D01*
X1383898Y32642D01*
X1387431D01*
X1394179Y25894D01*
D02*
G37*
G36*
X1746204Y26003D02*
X1746204Y26003D01*
X1746877Y25554D01*
X1747669Y25396D01*
X1942279D01*
X1942280Y25396D01*
X1943072Y25554D01*
X1943745Y26003D01*
X1945553Y27811D01*
X1946939Y27402D01*
X1946992Y27154D01*
X1943144Y23306D01*
X1746160D01*
X1739268Y30198D01*
X1739387Y31442D01*
X1740687Y31520D01*
X1746204Y26003D01*
D02*
G37*
G36*
X2518197Y35792D02*
X2517916Y35403D01*
X2459479D01*
X2458686Y35245D01*
X2458014Y34796D01*
X2458014Y34796D01*
X2454023Y30805D01*
X2403705D01*
X2402912Y30647D01*
X2402240Y30198D01*
X2402240Y30198D01*
X2394686Y22644D01*
X2391568D01*
X2391082Y23817D01*
X2404327Y37062D01*
X2517546D01*
X2518197Y35792D01*
D02*
G37*
G36*
X793533Y23603D02*
X793008Y22333D01*
X787055D01*
X780911Y28477D01*
X780239Y28926D01*
X779446Y29084D01*
X779446Y29084D01*
X721731D01*
X720939Y28926D01*
X720266Y28477D01*
X720266Y28477D01*
X712161Y20372D01*
X666941D01*
X666843Y20482D01*
X666378Y21642D01*
X666971Y22529D01*
X667264Y24000D01*
X666971Y25471D01*
X666138Y26718D01*
X664891Y27551D01*
X663420Y27844D01*
X661949Y27551D01*
X660702Y26718D01*
X659868Y25471D01*
X659576Y24000D01*
X659868Y22529D01*
X660461Y21642D01*
X659996Y20482D01*
X659899Y20372D01*
X656824D01*
X656618Y20638D01*
X656262Y21642D01*
X656957Y22681D01*
X657269Y24250D01*
X656957Y25819D01*
X656068Y27148D01*
X654738Y28037D01*
X653170Y28349D01*
X651601Y28037D01*
X650272Y27148D01*
X649383Y25819D01*
X649071Y24250D01*
X649383Y22681D01*
X650078Y21642D01*
X649721Y20638D01*
X649515Y20372D01*
X646587D01*
X646489Y20482D01*
X646024Y21642D01*
X646617Y22529D01*
X646910Y24000D01*
X646617Y25471D01*
X646499Y25649D01*
X655612Y34762D01*
X782374D01*
X793533Y23603D01*
D02*
G37*
G36*
X1388744Y20333D02*
X1389416Y19884D01*
X1390209Y19727D01*
X1390209Y19727D01*
X1635104D01*
X1635104Y19727D01*
X1635897Y19884D01*
X1636569Y20333D01*
X1642897Y26661D01*
X1736944D01*
X1743837Y19769D01*
X1743837Y19769D01*
X1743377Y18549D01*
X1743198Y18328D01*
X1385629D01*
X1384028Y19928D01*
X1383356Y20378D01*
X1382563Y20535D01*
X1382563Y20535D01*
X838813D01*
X838134Y21805D01*
X838552Y22431D01*
X838865Y24000D01*
X838552Y25568D01*
X837958Y26459D01*
X838532Y27729D01*
X1381349D01*
X1388744Y20333D01*
D02*
G37*
G36*
X3989250Y28502D02*
X3989076Y27629D01*
X3989369Y26158D01*
X3990202Y24911D01*
X3990848Y24479D01*
Y23153D01*
X3982982Y15288D01*
X3922418D01*
X3921094Y16611D01*
X3920805Y16804D01*
X3921190Y18074D01*
X3934588D01*
X3934589Y18074D01*
X3934649Y18086D01*
X3976180D01*
X3976180Y18086D01*
X3976973Y18244D01*
X3977645Y18693D01*
X3988079Y29127D01*
X3989250Y28502D01*
D02*
G37*
G36*
X3262342Y25202D02*
X3263015Y24753D01*
X3263807Y24595D01*
X3263807Y24595D01*
X3411427D01*
X3411427Y24595D01*
X3412220Y24753D01*
X3412892Y25202D01*
X3413036Y25347D01*
X3427850D01*
X3428282Y24701D01*
X3429529Y23867D01*
X3431000Y23575D01*
X3432471Y23867D01*
X3433718Y24701D01*
X3434150Y25347D01*
X3902724D01*
X3903289Y24077D01*
X3902686Y23174D01*
X3902374Y21606D01*
X3902686Y20037D01*
X3903575Y18707D01*
X3903903Y18488D01*
X3903518Y17218D01*
X3429150D01*
X3428718Y17864D01*
X3427471Y18697D01*
X3426000Y18990D01*
X3424529Y18697D01*
X3423282Y17864D01*
X3422850Y17218D01*
X3254521D01*
X3242856Y28884D01*
X3242184Y29333D01*
X3241391Y29490D01*
X3241390Y29490D01*
X3225655D01*
X3224862Y29333D01*
X3224190Y28884D01*
X3224190Y28883D01*
X3215856Y20550D01*
X3193423D01*
X3193034Y21725D01*
X3193052Y21820D01*
X3193669Y22232D01*
X3203948Y32511D01*
X3255034D01*
X3262342Y25202D01*
D02*
G37*
G36*
X3252198Y13681D02*
X3252198Y13681D01*
X3252870Y13232D01*
X3253663Y13074D01*
X3253663Y13074D01*
X3264926D01*
X3265311Y11804D01*
X3265018Y11608D01*
X3264185Y10361D01*
X3263892Y8890D01*
X3264185Y7419D01*
X3265018Y6172D01*
X3266265Y5339D01*
X3267736Y5046D01*
X3269207Y5339D01*
X3270454Y6172D01*
X3270886Y6818D01*
X3323774D01*
X3327879Y2713D01*
X3327712Y1943D01*
X3327397Y1444D01*
X3320037D01*
X3319987Y1499D01*
X3319932Y1708D01*
X3318808Y3185D01*
X3318621Y3294D01*
X3318506Y3477D01*
X3316989Y4546D01*
X3316778Y4593D01*
X3316612Y4732D01*
X3314843Y5293D01*
X3314628Y5274D01*
X3314428Y5357D01*
X3312572Y5357D01*
X3312372Y5274D01*
X3312157Y5293D01*
X3310388Y4732D01*
X3310222Y4593D01*
X3310011Y4546D01*
X3308494Y3477D01*
X3308379Y3294D01*
X3308192Y3185D01*
X3307068Y1708D01*
X3307013Y1499D01*
X3306963Y1444D01*
X3224313D01*
X3223827Y2617D01*
X3230415Y9204D01*
X3231177Y9053D01*
X3232648Y9345D01*
X3233895Y10179D01*
X3234729Y11426D01*
X3235021Y12897D01*
X3234729Y14368D01*
X3233895Y15615D01*
X3232648Y16448D01*
X3231177Y16741D01*
X3229706Y16448D01*
X3228459Y15615D01*
X3227626Y14368D01*
X3227333Y12897D01*
X3227485Y12134D01*
X3220141Y4791D01*
X3152960D01*
X3148090Y9661D01*
X3147418Y10110D01*
X3146625Y10268D01*
X3146624Y10268D01*
X3126557D01*
X3125764Y10110D01*
X3125092Y9661D01*
X3125092Y9661D01*
X3121487Y6055D01*
X2968887D01*
X2967232Y7710D01*
X2966559Y8159D01*
X2965767Y8317D01*
X2965767Y8317D01*
X2949980D01*
X2949980Y8317D01*
X2949187Y8159D01*
X2948515Y7710D01*
X2948515Y7710D01*
X2945214Y4410D01*
X2921524D01*
X2920872Y5456D01*
X2920883Y5680D01*
X2921163Y7088D01*
X2920871Y8558D01*
X2920038Y9806D01*
X2918791Y10639D01*
X2917320Y10931D01*
X2915848Y10639D01*
X2914601Y9806D01*
X2913768Y8558D01*
X2913476Y7088D01*
X2913756Y5680D01*
X2913767Y5456D01*
X2913115Y4410D01*
X2792636D01*
X2778509Y18537D01*
X2778317Y19503D01*
X2778294Y19729D01*
X2778963Y20773D01*
X2786726D01*
X2790486Y17013D01*
X2790486Y17013D01*
X2791158Y16564D01*
X2791951Y16406D01*
X2822780D01*
X2823449Y15362D01*
X2823427Y15136D01*
X2823144Y13716D01*
X2823437Y12245D01*
X2824270Y10998D01*
X2825517Y10165D01*
X2826988Y9872D01*
X2828459Y10165D01*
X2829706Y10998D01*
X2830539Y12245D01*
X2830832Y13716D01*
X2830549Y15136D01*
X2830527Y15362D01*
X2831195Y16406D01*
X2840913D01*
X2844720Y12599D01*
X2844720Y12599D01*
X2845392Y12150D01*
X2846185Y11992D01*
X2905085D01*
X2905085Y11992D01*
X2905878Y12150D01*
X2906551Y12599D01*
X2910358Y16406D01*
X3216714D01*
X3216714Y16406D01*
X3217507Y16564D01*
X3218179Y17013D01*
X3226513Y25347D01*
X3240533D01*
X3252198Y13681D01*
D02*
G37*
G36*
X2757390Y23722D02*
X2739618Y5950D01*
X2723600D01*
X2722964Y7220D01*
X2723509Y8036D01*
X2723821Y9604D01*
X2723509Y11173D01*
X2722620Y12503D01*
X2721291Y13391D01*
X2719722Y13703D01*
X2718153Y13391D01*
X2716824Y12503D01*
X2715935Y11173D01*
X2715623Y9604D01*
X2715935Y8036D01*
X2716480Y7220D01*
X2715844Y5950D01*
X2617075D01*
X2615314Y7711D01*
X2614642Y8160D01*
X2613849Y8317D01*
X2613849Y8317D01*
X2567554D01*
X2567554Y8317D01*
X2566761Y8160D01*
X2566089Y7711D01*
X2566089Y7710D01*
X2565031Y6652D01*
X2423035D01*
X2421977Y7710D01*
X2421305Y8159D01*
X2420512Y8317D01*
X2420512Y8317D01*
X2367769D01*
X2367755Y8331D01*
X2367206Y9587D01*
X2367762Y10419D01*
X2368055Y11890D01*
X2367762Y13361D01*
X2367726Y13415D01*
X2368405Y14685D01*
X2405509D01*
X2405509Y14685D01*
X2406302Y14843D01*
X2406974Y15292D01*
X2410587Y18906D01*
X2450543D01*
X2454698Y14750D01*
X2454698Y14750D01*
X2455371Y14301D01*
X2456163Y14144D01*
X2456164Y14144D01*
X2669046D01*
X2669046Y14144D01*
X2669839Y14301D01*
X2670511Y14750D01*
X2680753Y24992D01*
X2756864D01*
X2757390Y23722D01*
D02*
G37*
G36*
X2360696Y13415D02*
X2360660Y13361D01*
X2360367Y11890D01*
X2360660Y10419D01*
X2361216Y9587D01*
X2360667Y8331D01*
X2360653Y8317D01*
X2185382D01*
X2185382Y8317D01*
X2184589Y8159D01*
X2183917Y7710D01*
X2183917Y7710D01*
X2182343Y6136D01*
X2159072D01*
X2154356Y10423D01*
X2154051Y10606D01*
X2153755Y10804D01*
X2153706Y10814D01*
X2153663Y10840D01*
X2153311Y10892D01*
X2152962Y10962D01*
X2111510D01*
X2110717Y10804D01*
X2110045Y10355D01*
X2110045Y10355D01*
X2105776Y6086D01*
X2097838D01*
X2097170Y7130D01*
X2097192Y7356D01*
X2097475Y8776D01*
X2097182Y10247D01*
X2096349Y11494D01*
X2096227Y11576D01*
X2096612Y12846D01*
X2249068D01*
X2249068Y12846D01*
X2249861Y13003D01*
X2250533Y13453D01*
X2251765Y14685D01*
X2360017D01*
X2360696Y13415D01*
D02*
G37*
G36*
X899809Y15122D02*
X899203Y15001D01*
X898531Y14552D01*
X898531Y14552D01*
X888401Y4422D01*
X846553D01*
X846446Y4545D01*
X845991Y5692D01*
X846643Y6668D01*
X846954Y8236D01*
X846643Y9805D01*
X845955Y10834D01*
X846329Y11864D01*
X846518Y12104D01*
X851466D01*
X852648Y10922D01*
X852496Y10160D01*
X852789Y8689D01*
X853622Y7442D01*
X854869Y6609D01*
X856340Y6316D01*
X857811Y6609D01*
X859058Y7442D01*
X859891Y8689D01*
X860184Y10160D01*
X859891Y11631D01*
X859058Y12878D01*
X857811Y13711D01*
X856340Y14004D01*
X855578Y13852D01*
X854308Y15122D01*
X854834Y16392D01*
X899684D01*
X899809Y15122D01*
D02*
G37*
G36*
X3835029Y11804D02*
X3834735Y11608D01*
X3833902Y10361D01*
X3833610Y8890D01*
X3833892Y7470D01*
X3833914Y7244D01*
X3833246Y6200D01*
X3721888D01*
X3720379Y7710D01*
X3719707Y8159D01*
X3718914Y8316D01*
X3718914Y8316D01*
X3703979D01*
X3703186Y8159D01*
X3702514Y7710D01*
X3702514Y7709D01*
X3701005Y6200D01*
X3665107D01*
X3664439Y7244D01*
X3664461Y7470D01*
X3664744Y8890D01*
X3664451Y10361D01*
X3663618Y11608D01*
X3663324Y11804D01*
X3663710Y13074D01*
X3834644D01*
X3835029Y11804D01*
D02*
G37*
G36*
X3658475D02*
X3658182Y11608D01*
X3657349Y10361D01*
X3657056Y8890D01*
X3657339Y7470D01*
X3657361Y7244D01*
X3656693Y6200D01*
X3545786D01*
X3541630Y10355D01*
X3540958Y10804D01*
X3540165Y10962D01*
X3540165Y10962D01*
X3486017D01*
X3485239Y11943D01*
X3485627Y13074D01*
X3658090D01*
X3658475Y11804D01*
D02*
G37*
G36*
X2091035Y11576D02*
X2090913Y11494D01*
X2090079Y10247D01*
X2089787Y8776D01*
X2090069Y7356D01*
X2090092Y7130D01*
X2089423Y6086D01*
X2050558D01*
X2045417Y11227D01*
X2045656Y12595D01*
X2045862Y12846D01*
X2090650D01*
X2091035Y11576D01*
D02*
G37*
G36*
X3423526Y12093D02*
X3423139Y10962D01*
X3346916D01*
X3346123Y10804D01*
X3345451Y10355D01*
X3345451Y10355D01*
X3341151Y6055D01*
X3330398D01*
X3326098Y10355D01*
X3325425Y10804D01*
X3324633Y10962D01*
X3324632Y10962D01*
X3270987D01*
X3270210Y11943D01*
X3270597Y13074D01*
X3422749D01*
X3423526Y12093D01*
D02*
G37*
G36*
X3920094Y11751D02*
X3920767Y11302D01*
X3921559Y11144D01*
X3921559Y11144D01*
X3943177D01*
X3943702Y9874D01*
X3939883Y6055D01*
X3903605D01*
X3901950Y7710D01*
X3901278Y8159D01*
X3900485Y8317D01*
X3900485Y8317D01*
X3850206D01*
X3850206Y8317D01*
X3849413Y8159D01*
X3848741Y7710D01*
X3848741Y7710D01*
X3847231Y6200D01*
X3841661D01*
X3840993Y7244D01*
X3841015Y7470D01*
X3841297Y8890D01*
X3841005Y10361D01*
X3840172Y11608D01*
X3839878Y11804D01*
X3840263Y13074D01*
X3918771D01*
X3920094Y11751D01*
D02*
G37*
G36*
X3480341Y11804D02*
X3480047Y11608D01*
X3479214Y10361D01*
X3478922Y8890D01*
X3479214Y7419D01*
X3480047Y6172D01*
X3481294Y5339D01*
X3482766Y5046D01*
X3484236Y5339D01*
X3485483Y6172D01*
X3485915Y6818D01*
X3539307D01*
X3543412Y2713D01*
X3543400Y2498D01*
X3543002Y1444D01*
X3534037D01*
X3533987Y1499D01*
X3533932Y1708D01*
X3532808Y3186D01*
X3532621Y3295D01*
X3532505Y3478D01*
X3530988Y4547D01*
X3530777Y4594D01*
X3530612Y4733D01*
X3528842Y5294D01*
X3528626Y5275D01*
X3528427Y5358D01*
X3526570Y5358D01*
X3526371Y5275D01*
X3526155Y5293D01*
X3524386Y4732D01*
X3524220Y4593D01*
X3524009Y4545D01*
X3522492Y3476D01*
X3522376Y3293D01*
X3522190Y3184D01*
X3521067Y1706D01*
X3521012Y1497D01*
X3520963Y1444D01*
X3344152D01*
X3343837Y1943D01*
X3343669Y2713D01*
X3347774Y6818D01*
X3466336D01*
X3466768Y6172D01*
X3468015Y5339D01*
X3469485Y5046D01*
X3470956Y5339D01*
X3472204Y6172D01*
X3473037Y7419D01*
X3473329Y8890D01*
X3473037Y10361D01*
X3472204Y11608D01*
X3471910Y11804D01*
X3472295Y13074D01*
X3479956D01*
X3480341Y11804D01*
D02*
G37*
G36*
X1694896Y10866D02*
X1859469D01*
X1861644Y8691D01*
X1861644Y8691D01*
X1862317Y8241D01*
X1863109Y8084D01*
X1888579D01*
X1889011Y7437D01*
X1890258Y6604D01*
X1891729Y6312D01*
X1892491Y6463D01*
X1896241Y2713D01*
X1896229Y2498D01*
X1895831Y1444D01*
X1846037D01*
X1845988Y1497D01*
X1845933Y1706D01*
X1844811Y3183D01*
X1844624Y3292D01*
X1844509Y3475D01*
X1842992Y4544D01*
X1842781Y4592D01*
X1842616Y4731D01*
X1840848Y5293D01*
X1840632Y5274D01*
X1840433Y5357D01*
X1838577Y5358D01*
X1838377Y5276D01*
X1838162Y5294D01*
X1836393Y4735D01*
X1836227Y4596D01*
X1836016Y4549D01*
X1834499Y3482D01*
X1834383Y3299D01*
X1834196Y3190D01*
X1833072Y1714D01*
X1833016Y1505D01*
X1832960Y1444D01*
X1666037D01*
X1665988Y1497D01*
X1665933Y1706D01*
X1664810Y3184D01*
X1664624Y3293D01*
X1664508Y3476D01*
X1662991Y4545D01*
X1662780Y4592D01*
X1662615Y4732D01*
X1660846Y5293D01*
X1660631Y5275D01*
X1660431Y5357D01*
X1658575Y5358D01*
X1658375Y5275D01*
X1658160Y5294D01*
X1656391Y4734D01*
X1656225Y4595D01*
X1656014Y4548D01*
X1654496Y3480D01*
X1654381Y3297D01*
X1654194Y3188D01*
X1653070Y1711D01*
X1653015Y1502D01*
X1652961Y1444D01*
X1486037D01*
X1485987Y1499D01*
X1485932Y1708D01*
X1484809Y3185D01*
X1484622Y3294D01*
X1484507Y3477D01*
X1482990Y4545D01*
X1482779Y4593D01*
X1482614Y4732D01*
X1480845Y5293D01*
X1480630Y5275D01*
X1480430Y5357D01*
X1478575Y5358D01*
X1478375Y5275D01*
X1478160Y5294D01*
X1476391Y4734D01*
X1476225Y4595D01*
X1476014Y4548D01*
X1474497Y3480D01*
X1474381Y3298D01*
X1474194Y3189D01*
X1473071Y1712D01*
X1473015Y1503D01*
X1472961Y1444D01*
X1306040D01*
X1305984Y1505D01*
X1305928Y1714D01*
X1304804Y3190D01*
X1304617Y3299D01*
X1304501Y3482D01*
X1302984Y4549D01*
X1302773Y4596D01*
X1302607Y4735D01*
X1300838Y5294D01*
X1300623Y5276D01*
X1300423Y5358D01*
X1298567Y5357D01*
X1298368Y5274D01*
X1298152Y5293D01*
X1296384Y4731D01*
X1296218Y4592D01*
X1296008Y4544D01*
X1294491Y3475D01*
X1294376Y3292D01*
X1294189Y3183D01*
X1293067Y1706D01*
X1293012Y1497D01*
X1292964Y1444D01*
X1092038D01*
X1091986Y1500D01*
X1091931Y1710D01*
X1090807Y3187D01*
X1090620Y3296D01*
X1090505Y3478D01*
X1088987Y4547D01*
X1088776Y4595D01*
X1088611Y4734D01*
X1086841Y5294D01*
X1086626Y5275D01*
X1086426Y5358D01*
X1084570Y5357D01*
X1084370Y5275D01*
X1084154Y5293D01*
X1082385Y4732D01*
X1082220Y4593D01*
X1082009Y4545D01*
X1080492Y3476D01*
X1080376Y3293D01*
X1080190Y3184D01*
X1079067Y1706D01*
X1079012Y1497D01*
X1078963Y1444D01*
X912039D01*
X911985Y1503D01*
X911930Y1712D01*
X910806Y3188D01*
X910619Y3297D01*
X910504Y3480D01*
X908987Y4547D01*
X908776Y4595D01*
X908610Y4734D01*
X906842Y5294D01*
X906626Y5275D01*
X906426Y5358D01*
X904571Y5358D01*
X904371Y5275D01*
X904156Y5293D01*
X902387Y4733D01*
X902222Y4594D01*
X902011Y4546D01*
X900495Y3478D01*
X900379Y3295D01*
X900192Y3186D01*
X899069Y1710D01*
X899014Y1501D01*
X898962Y1444D01*
X892942D01*
X892456Y2617D01*
X900854Y11015D01*
X1611579D01*
X1611940Y10141D01*
X1612025Y9745D01*
X1611240Y8571D01*
X1610948Y7100D01*
X1611240Y5629D01*
X1612073Y4382D01*
X1613320Y3549D01*
X1614791Y3256D01*
X1616262Y3549D01*
X1617509Y4382D01*
X1618343Y5629D01*
X1618635Y7100D01*
X1618343Y8571D01*
X1617558Y9745D01*
X1617643Y10141D01*
X1618004Y11015D01*
X1694147D01*
X1694896Y10866D01*
D02*
G37*
G36*
X4084367Y2713D02*
X4084200Y1943D01*
X4083885Y1444D01*
X3942884D01*
X3942570Y1943D01*
X3942402Y2713D01*
X3946602Y6914D01*
X4080167D01*
X4084367Y2713D01*
D02*
G37*
G36*
X2771216Y19729D02*
X2771194Y19503D01*
X2770911Y18083D01*
X2771204Y16612D01*
X2772037Y15365D01*
X2773284Y14532D01*
X2774755Y14239D01*
X2776226Y14532D01*
X2776483Y14703D01*
X2788569Y2617D01*
X2788083Y1444D01*
X2780038D01*
X2779986Y1500D01*
X2779931Y1710D01*
X2778807Y3187D01*
X2778621Y3296D01*
X2778505Y3478D01*
X2776987Y4547D01*
X2776776Y4594D01*
X2776611Y4734D01*
X2774841Y5294D01*
X2774626Y5275D01*
X2774426Y5358D01*
X2772570Y5357D01*
X2772370Y5275D01*
X2772155Y5293D01*
X2770385Y4732D01*
X2770220Y4593D01*
X2770009Y4545D01*
X2768492Y3476D01*
X2768376Y3293D01*
X2768190Y3184D01*
X2767067Y1706D01*
X2767012Y1497D01*
X2766964Y1444D01*
X2742704D01*
X2742638Y1528D01*
X2742242Y2713D01*
X2760301Y20773D01*
X2770548D01*
X2771216Y19729D01*
D02*
G37*
G36*
X2407519Y4104D02*
X2407631Y3950D01*
X2407977Y2903D01*
X2407067Y1706D01*
X2407012Y1497D01*
X2406963Y1444D01*
X2206038D01*
X2205986Y1500D01*
X2205931Y1710D01*
X2205023Y2903D01*
X2205374Y3959D01*
X2205477Y4099D01*
X2205556Y4173D01*
X2407445D01*
X2407519Y4104D01*
D02*
G37*
G36*
X2144059Y5571D02*
X2143766Y4100D01*
X2144042Y2713D01*
X2144034Y2435D01*
X2143504Y1444D01*
X2108730D01*
X2108385Y2048D01*
X2108264Y2713D01*
X2112368Y6818D01*
X2143365D01*
X2144059Y5571D01*
D02*
G37*
G36*
X2048071Y2713D02*
X2047949Y2048D01*
X2047604Y1444D01*
X2026062D01*
X2026014Y1497D01*
X2025960Y1708D01*
X2024838Y3204D01*
X2024651Y3314D01*
X2024535Y3499D01*
X2023011Y4582D01*
X2022799Y4631D01*
X2022633Y4771D01*
X2020852Y5340D01*
X2020635Y5322D01*
X2020434Y5405D01*
X2018564Y5405D01*
X2018363Y5321D01*
X2018146Y5339D01*
X2016365Y4771D01*
X2016199Y4630D01*
X2015987Y4581D01*
X2014464Y3498D01*
X2014348Y3313D01*
X2014160Y3202D01*
X2013039Y1706D01*
X2012985Y1496D01*
X2012939Y1444D01*
X1965843D01*
X1965445Y2498D01*
X1965432Y2713D01*
X1970409Y7690D01*
X2043094D01*
X2048071Y2713D01*
D02*
G37*
%LPC*%
G36*
X3451086Y163006D02*
X3449615Y162713D01*
X3448369Y161880D01*
X3447535Y160633D01*
X3447243Y159162D01*
X3447535Y157691D01*
X3448369Y156444D01*
X3449615Y155611D01*
X3451086Y155318D01*
X3452557Y155611D01*
X3453805Y156444D01*
X3454638Y157691D01*
X3454930Y159162D01*
X3454638Y160633D01*
X3453805Y161880D01*
X3452557Y162713D01*
X3451086Y163006D01*
D02*
G37*
G36*
X3466500Y149582D02*
X3464667Y149341D01*
X3462960Y148633D01*
X3461493Y147508D01*
X3460368Y146042D01*
X3459661Y144334D01*
X3459419Y142501D01*
X3459661Y140669D01*
X3460368Y138961D01*
X3461493Y137495D01*
X3462960Y136369D01*
X3464667Y135662D01*
X3466500Y135421D01*
X3468333Y135662D01*
X3470040Y136369D01*
X3471507Y137495D01*
X3472632Y138961D01*
X3473339Y140669D01*
X3473581Y142501D01*
X3473339Y144334D01*
X3472632Y146042D01*
X3471507Y147508D01*
X3470040Y148633D01*
X3468333Y149341D01*
X3466500Y149582D01*
D02*
G37*
G36*
X3446085Y136940D02*
X3444614Y136647D01*
X3443367Y135814D01*
X3442534Y134567D01*
X3442241Y133096D01*
X3442534Y131625D01*
X3443367Y130378D01*
X3444614Y129545D01*
X3446085Y129252D01*
X3447556Y129545D01*
X3448803Y130378D01*
X3449636Y131625D01*
X3449929Y133096D01*
X3449636Y134567D01*
X3448803Y135814D01*
X3447556Y136647D01*
X3446085Y136940D01*
D02*
G37*
G36*
X3421000D02*
X3419529Y136647D01*
X3418282Y135814D01*
X3417449Y134567D01*
X3417156Y133096D01*
X3417449Y131625D01*
X3418282Y130378D01*
X3419529Y129545D01*
X3421000Y129252D01*
X3422471Y129545D01*
X3423718Y130378D01*
X3424551Y131625D01*
X3424844Y133096D01*
X3424551Y134567D01*
X3423718Y135814D01*
X3422471Y136647D01*
X3421000Y136940D01*
D02*
G37*
G36*
X3435959Y102279D02*
X3434489Y101986D01*
X3433241Y101153D01*
X3432408Y99906D01*
X3432115Y98435D01*
X3432408Y96964D01*
X3433241Y95717D01*
X3434489Y94883D01*
X3435959Y94591D01*
X3437430Y94883D01*
X3438677Y95717D01*
X3439510Y96964D01*
X3439803Y98435D01*
X3439510Y99906D01*
X3438677Y101153D01*
X3437430Y101986D01*
X3435959Y102279D01*
D02*
G37*
G36*
X3447262Y98725D02*
X3445791Y98433D01*
X3444544Y97599D01*
X3443711Y96353D01*
X3443418Y94881D01*
X3443711Y93411D01*
X3444544Y92163D01*
X3445791Y91330D01*
X3447262Y91038D01*
X3448733Y91330D01*
X3449980Y92163D01*
X3450813Y93411D01*
X3451106Y94881D01*
X3450813Y96353D01*
X3449980Y97599D01*
X3448733Y98433D01*
X3447262Y98725D01*
D02*
G37*
G36*
X3426000Y99506D02*
X3424529Y99213D01*
X3423282Y98380D01*
X3422449Y97133D01*
X3422156Y95662D01*
X3422449Y94191D01*
X3423282Y92944D01*
X3424529Y92111D01*
X3426000Y91818D01*
X3426630Y91944D01*
X3427449Y90883D01*
X3427156Y89412D01*
X3427449Y87941D01*
X3428282Y86694D01*
X3429529Y85861D01*
X3431000Y85568D01*
X3432471Y85861D01*
X3433718Y86694D01*
X3434551Y87941D01*
X3434844Y89412D01*
X3434551Y90883D01*
X3433718Y92130D01*
X3432471Y92963D01*
X3431000Y93256D01*
X3430370Y93131D01*
X3429551Y94191D01*
X3429844Y95662D01*
X3429551Y97133D01*
X3428718Y98380D01*
X3427471Y99213D01*
X3426000Y99506D01*
D02*
G37*
G36*
X3400500Y91388D02*
X3399029Y91095D01*
X3397782Y90262D01*
X3396949Y89015D01*
X3396656Y87544D01*
X3396949Y86073D01*
X3397782Y84826D01*
X3399029Y83993D01*
X3400500Y83700D01*
X3401971Y83993D01*
X3403218Y84826D01*
X3404051Y86073D01*
X3404344Y87544D01*
X3404051Y89015D01*
X3403218Y90262D01*
X3401971Y91095D01*
X3400500Y91388D01*
D02*
G37*
G36*
X3776399Y51033D02*
X3774928Y50740D01*
X3773681Y49907D01*
X3772848Y48660D01*
X3772555Y47189D01*
X3772848Y45718D01*
X3773681Y44471D01*
X3774928Y43638D01*
X3776399Y43345D01*
X3777870Y43638D01*
X3779117Y44471D01*
X3779950Y45718D01*
X3780243Y47189D01*
X3779950Y48660D01*
X3779117Y49907D01*
X3777870Y50740D01*
X3776399Y51033D01*
D02*
G37*
G36*
X3968910Y54912D02*
X3966099D01*
X3966176Y54524D01*
X3967116Y53118D01*
X3968522Y52179D01*
X3968910Y52101D01*
Y54912D01*
D02*
G37*
G36*
X3979910Y54912D02*
X3977099D01*
X3977177Y54524D01*
X3978116Y53118D01*
X3979521Y52179D01*
X3979910Y52101D01*
Y54912D01*
D02*
G37*
G36*
X3985261D02*
X3982450D01*
Y52101D01*
X3982838Y52179D01*
X3984244Y53118D01*
X3985183Y54524D01*
X3985261Y54912D01*
D02*
G37*
G36*
X3974261Y54912D02*
X3971450D01*
Y52101D01*
X3971838Y52179D01*
X3973244Y53118D01*
X3974183Y54524D01*
X3974261Y54912D01*
D02*
G37*
G36*
X3825393Y58854D02*
X3823923Y58562D01*
X3822675Y57728D01*
X3821842Y56481D01*
X3821550Y55010D01*
X3821842Y53539D01*
X3822675Y52292D01*
X3823923Y51459D01*
X3825393Y51167D01*
X3826865Y51459D01*
X3828112Y52292D01*
X3828945Y53539D01*
X3829237Y55010D01*
X3828945Y56481D01*
X3828112Y57728D01*
X3826865Y58562D01*
X3825393Y58854D01*
D02*
G37*
G36*
X3837454Y54829D02*
X3835982Y54536D01*
X3834735Y53703D01*
X3833902Y52456D01*
X3833610Y50985D01*
X3833902Y49514D01*
X3834735Y48267D01*
X3835982Y47434D01*
X3837454Y47141D01*
X3838925Y47434D01*
X3840172Y48267D01*
X3841005Y49514D01*
X3841297Y50985D01*
X3841005Y52456D01*
X3840172Y53703D01*
X3838925Y54536D01*
X3837454Y54829D01*
D02*
G37*
G36*
X3971450Y49263D02*
Y46452D01*
X3974260D01*
X3974183Y46840D01*
X3973244Y48246D01*
X3971838Y49186D01*
X3971450Y49263D01*
D02*
G37*
G36*
X3968910Y49263D02*
X3968522Y49186D01*
X3967116Y48246D01*
X3966176Y46840D01*
X3966099Y46452D01*
X3968910D01*
Y49263D01*
D02*
G37*
G36*
X3982450Y49263D02*
Y46452D01*
X3985260D01*
X3985183Y46840D01*
X3984244Y48246D01*
X3982838Y49186D01*
X3982450Y49263D01*
D02*
G37*
G36*
X3979910Y49263D02*
X3979521Y49186D01*
X3978116Y48246D01*
X3977177Y46840D01*
X3977099Y46452D01*
X3979910D01*
Y49263D01*
D02*
G37*
G36*
X4088582Y39757D02*
X4087013Y39445D01*
X4085683Y38556D01*
X4084795Y37227D01*
X4084483Y35658D01*
X4084795Y34090D01*
X4085683Y32760D01*
X4087013Y31871D01*
X4088582Y31559D01*
X4090150Y31871D01*
X4091480Y32760D01*
X4092368Y34090D01*
X4092680Y35658D01*
X4092368Y37227D01*
X4091480Y38556D01*
X4090150Y39445D01*
X4088582Y39757D01*
D02*
G37*
G36*
X4098920Y29257D02*
X4097351Y28945D01*
X4096022Y28056D01*
X4095133Y26727D01*
X4094821Y25158D01*
X4095133Y23589D01*
X4096022Y22260D01*
X4097351Y21371D01*
X4098920Y21059D01*
X4100488Y21371D01*
X4101818Y22260D01*
X4102707Y23589D01*
X4103018Y25158D01*
X4102707Y26727D01*
X4101818Y28056D01*
X4100488Y28945D01*
X4098920Y29257D01*
D02*
G37*
G36*
X4109920Y24257D02*
X4108351Y23945D01*
X4107021Y23056D01*
X4106133Y21727D01*
X4105821Y20158D01*
X4106133Y18590D01*
X4107021Y17260D01*
X4108351Y16371D01*
X4109920Y16059D01*
X4111488Y16371D01*
X4112818Y17260D01*
X4113707Y18590D01*
X4114019Y20158D01*
X4113707Y21727D01*
X4112818Y23056D01*
X4111488Y23945D01*
X4109920Y24257D01*
D02*
G37*
G36*
X4024048Y20665D02*
X4022479Y20353D01*
X4021150Y19464D01*
X4020261Y18134D01*
X4019949Y16566D01*
X4020261Y14998D01*
X4021150Y13668D01*
X4022479Y12779D01*
X4024048Y12467D01*
X4025616Y12779D01*
X4026946Y13668D01*
X4027834Y14998D01*
X4028146Y16566D01*
X4027834Y18134D01*
X4026946Y19464D01*
X4025616Y20353D01*
X4024048Y20665D01*
D02*
G37*
G36*
X4101223Y16990D02*
X4099752Y16697D01*
X4098505Y15864D01*
X4097671Y14617D01*
X4097379Y13146D01*
X4097671Y11675D01*
X4098505Y10428D01*
X4099752Y9595D01*
X4101223Y9302D01*
X4102693Y9595D01*
X4103940Y10428D01*
X4104774Y11675D01*
X4105066Y13146D01*
X4104774Y14617D01*
X4103940Y15864D01*
X4102693Y16697D01*
X4101223Y16990D01*
D02*
G37*
G36*
X4198071Y13152D02*
X4196502Y12840D01*
X4195173Y11952D01*
X4194284Y10622D01*
X4193972Y9054D01*
X4194284Y7485D01*
X4195173Y6155D01*
X4196502Y5267D01*
X4198071Y4955D01*
X4199640Y5267D01*
X4200969Y6155D01*
X4201858Y7485D01*
X4202170Y9054D01*
X4201858Y10622D01*
X4200969Y11952D01*
X4199640Y12840D01*
X4198071Y13152D01*
D02*
G37*
G36*
X1930190Y54451D02*
Y51640D01*
X1933000D01*
X1932923Y52028D01*
X1931984Y53434D01*
X1930578Y54373D01*
X1930190Y54451D01*
D02*
G37*
G36*
X1927650D02*
X1927262Y54373D01*
X1925856Y53434D01*
X1924916Y52028D01*
X1924839Y51640D01*
X1927650D01*
Y54451D01*
D02*
G37*
G36*
X662690Y62581D02*
Y59770D01*
X665500D01*
X665423Y60158D01*
X664484Y61564D01*
X663078Y62503D01*
X662690Y62581D01*
D02*
G37*
G36*
X660150D02*
X659762Y62503D01*
X658356Y61564D01*
X657416Y60158D01*
X657339Y59770D01*
X660150D01*
Y62581D01*
D02*
G37*
G36*
X651690D02*
Y59770D01*
X654500D01*
X654423Y60158D01*
X653484Y61564D01*
X652078Y62503D01*
X651690Y62581D01*
D02*
G37*
G36*
X649150D02*
X648762Y62503D01*
X647356Y61564D01*
X646416Y60158D01*
X646339Y59770D01*
X649150D01*
Y62581D01*
D02*
G37*
G36*
X665500Y57230D02*
X662690D01*
Y54419D01*
X663078Y54497D01*
X664484Y55436D01*
X665423Y56842D01*
X665500Y57230D01*
D02*
G37*
G36*
X660150D02*
X657339D01*
X657416Y56842D01*
X658356Y55436D01*
X659762Y54497D01*
X660150Y54419D01*
Y57230D01*
D02*
G37*
G36*
X654500D02*
X651690D01*
Y54419D01*
X652078Y54497D01*
X653484Y55436D01*
X654423Y56842D01*
X654500Y57230D01*
D02*
G37*
G36*
X649150D02*
X646339D01*
X646416Y56842D01*
X647356Y55436D01*
X648762Y54497D01*
X649150Y54419D01*
Y57230D01*
D02*
G37*
G36*
X662690Y51581D02*
Y48770D01*
X665500D01*
X665423Y49158D01*
X664484Y50564D01*
X663078Y51504D01*
X662690Y51581D01*
D02*
G37*
G36*
X660150D02*
X659762Y51504D01*
X658356Y50564D01*
X657416Y49158D01*
X657339Y48770D01*
X660150D01*
Y51581D01*
D02*
G37*
G36*
X651690D02*
Y48770D01*
X654500D01*
X654423Y49158D01*
X653484Y50564D01*
X652078Y51504D01*
X651690Y51581D01*
D02*
G37*
G36*
X649150D02*
X648762Y51504D01*
X647356Y50564D01*
X646416Y49158D01*
X646339Y48770D01*
X649150D01*
Y51581D01*
D02*
G37*
G36*
X665500Y46230D02*
X662690D01*
Y43419D01*
X663078Y43497D01*
X664484Y44436D01*
X665423Y45842D01*
X665500Y46230D01*
D02*
G37*
G36*
X660150D02*
X657339D01*
X657416Y45842D01*
X658356Y44436D01*
X659762Y43497D01*
X660150Y43419D01*
Y46230D01*
D02*
G37*
G36*
X654500D02*
X651690D01*
Y43419D01*
X652078Y43497D01*
X653484Y44436D01*
X654423Y45842D01*
X654500Y46230D01*
D02*
G37*
G36*
X649150D02*
X646339D01*
X646416Y45842D01*
X647356Y44436D01*
X648762Y43497D01*
X649150Y43419D01*
Y46230D01*
D02*
G37*
G36*
X514403Y43099D02*
X512835Y42787D01*
X511505Y41898D01*
X510617Y40569D01*
X510305Y39000D01*
X510617Y37432D01*
X511505Y36102D01*
X512835Y35213D01*
X514403Y34901D01*
X515972Y35213D01*
X517302Y36102D01*
X518190Y37432D01*
X518502Y39000D01*
X518190Y40569D01*
X517302Y41898D01*
X515972Y42787D01*
X514403Y43099D01*
D02*
G37*
G36*
X320142Y27440D02*
X318671Y27147D01*
X317424Y26314D01*
X316590Y25067D01*
X316298Y23596D01*
X316590Y22125D01*
X317424Y20878D01*
X318671Y20045D01*
X320142Y19752D01*
X321613Y20045D01*
X322860Y20878D01*
X323693Y22125D01*
X323985Y23596D01*
X323693Y25067D01*
X322860Y26314D01*
X321613Y27147D01*
X320142Y27440D01*
D02*
G37*
G36*
X514403Y24599D02*
X512835Y24287D01*
X511505Y23398D01*
X510617Y22069D01*
X510305Y20500D01*
X510617Y18932D01*
X511505Y17602D01*
X512835Y16714D01*
X514403Y16401D01*
X515972Y16714D01*
X517302Y17602D01*
X518190Y18932D01*
X518502Y20500D01*
X518190Y22069D01*
X517302Y23398D01*
X515972Y24287D01*
X514403Y24599D01*
D02*
G37*
G36*
X320142Y13344D02*
X318671Y13051D01*
X317424Y12218D01*
X316590Y10971D01*
X316298Y9500D01*
X316590Y8029D01*
X317424Y6782D01*
X318671Y5949D01*
X320142Y5656D01*
X321613Y5949D01*
X322860Y6782D01*
X323693Y8029D01*
X323985Y9500D01*
X323693Y10971D01*
X322860Y12218D01*
X321613Y13051D01*
X320142Y13344D01*
D02*
G37*
G36*
X2666017Y35752D02*
X2664546Y35459D01*
X2663299Y34626D01*
X2662466Y33379D01*
X2662173Y31908D01*
X2662466Y30437D01*
X2663299Y29190D01*
X2664546Y28357D01*
X2666017Y28064D01*
X2667488Y28357D01*
X2668735Y29190D01*
X2669568Y30437D01*
X2669861Y31908D01*
X2669568Y33379D01*
X2668735Y34626D01*
X2667488Y35459D01*
X2666017Y35752D01*
D02*
G37*
G36*
X2466895Y28444D02*
X2465424Y28151D01*
X2464177Y27318D01*
X2463344Y26071D01*
X2463051Y24600D01*
X2463344Y23129D01*
X2464177Y21882D01*
X2465424Y21049D01*
X2466895Y20756D01*
X2468366Y21049D01*
X2469613Y21882D01*
X2470446Y23129D01*
X2470739Y24600D01*
X2470446Y26071D01*
X2469613Y27318D01*
X2468366Y28151D01*
X2466895Y28444D01*
D02*
G37*
%LPD*%
D15*
X1940214Y32230D02*
X1950223Y42239D01*
X1877077Y32230D02*
X1940214D01*
X1997542Y48866D02*
X2049257D01*
X2056003Y42120D02*
X2107035D01*
X2049257Y48866D02*
X2056003Y42120D01*
X1990915Y42239D02*
X1997542Y48866D01*
X2107035Y42120D02*
X2107154Y42239D01*
X2369560Y33911D02*
X2385765Y50116D01*
X2167779Y33911D02*
X2369560D01*
X4100063Y38100D02*
X4143875D01*
X4088582Y49582D02*
X4100063Y38100D01*
X4143875D02*
X4155533Y49758D01*
X4170934D01*
X1950223Y42239D02*
X1950889D01*
X1957516Y48866D02*
X1967001D01*
X1950889Y42239D02*
X1957516Y48866D01*
X2162920Y38770D02*
X2167779Y33911D01*
X1967001Y48866D02*
X1973628Y42239D01*
X1990915D01*
D60*
X2770801Y33348D02*
X2806088D01*
X2809654Y29782D01*
X2846185Y14064D02*
X2905085D01*
X2841771Y18478D02*
X2846185Y14064D01*
X2760555Y41988D02*
X2890599D01*
X2755155Y36588D02*
X2760555Y41988D01*
X2890599D02*
X2891612Y40975D01*
X2800981Y23697D02*
X2879957D01*
X2847233Y29782D02*
X3171273D01*
X2843709Y33306D02*
X2847233Y29782D01*
X2832251Y33306D02*
X2843709D01*
X2791951Y18478D02*
X2841771D01*
X2791778Y2338D02*
X2915334D01*
X2915347Y2325D01*
X2919292D01*
X2776033Y18083D02*
X2791778Y2338D01*
X2919292Y2325D02*
X2919305Y2338D01*
X2946072D01*
X2949980Y6245D01*
X2909500Y18478D02*
X3216714D01*
X2905085Y14064D02*
X2909500Y18478D01*
X2949980Y6245D02*
X2965767D01*
X2968029Y3983D01*
X724989Y59239D02*
X780424D01*
X784452Y63266D02*
X825326D01*
X780424Y59239D02*
X784452Y63266D01*
X835550Y53043D02*
X841372D01*
X816631Y36834D02*
X819882D01*
X809653Y29856D02*
X816631Y36834D01*
X795591Y24476D02*
X826112D01*
X783232Y36834D02*
X795591Y24476D01*
X826112D02*
X831437Y29801D01*
X819882Y36834D02*
X822278Y39230D01*
X1397021D01*
X1401537Y34714D01*
X822955Y29238D02*
X828431Y34714D01*
X817237Y29238D02*
X822955D01*
X825326Y63266D02*
X835550Y53043D01*
X1458592Y45104D02*
X1465797Y52309D01*
X844291Y45104D02*
X1458592D01*
X1628665Y34714D02*
X1638952Y45001D01*
X1558049Y62262D02*
X1846171D01*
X1548096Y52309D02*
X1558049Y62262D01*
X1465797Y52309D02*
X1548096D01*
X1520069Y66659D02*
X1870135D01*
X1513496Y60086D02*
X1520069Y66659D01*
X1873386Y69910D02*
X1920920D01*
X1870135Y66659D02*
X1873386Y69910D01*
X1460909Y60086D02*
X1513496D01*
X1450348Y49524D02*
X1460909Y60086D01*
X886010Y49524D02*
X1450348D01*
X777518Y70163D02*
X865371D01*
X771666Y64312D02*
X777518Y70163D01*
X693979Y64312D02*
X771666D01*
X865371Y70163D02*
X886010Y49524D01*
X1898893Y16256D02*
X1904993Y10156D01*
X1384770Y16256D02*
X1898893D01*
X713019Y18300D02*
X721731Y27012D01*
X639689Y18300D02*
X713019D01*
X632881Y25109D02*
X639689Y18300D01*
X3431000Y27418D02*
X3911633D01*
X3412178D02*
X3431000D01*
X721731Y27012D02*
X779446D01*
X654754Y36834D02*
X783232D01*
X643066Y25146D02*
X654754Y36834D01*
X692290Y48049D02*
X713799D01*
X670176Y70163D02*
X692290Y48049D01*
X638625Y70163D02*
X670176D01*
X678560Y79730D02*
X693979Y64312D01*
X650432Y79730D02*
X678560D01*
X713799Y48049D02*
X724989Y59239D01*
X710298Y12012D02*
X764706D01*
X705398Y7112D02*
X710298Y12012D01*
X653480Y7112D02*
X705398D01*
X715404Y8236D02*
X736744D01*
X709518Y2350D02*
X715404Y8236D01*
X636921Y2350D02*
X709518D01*
X899996Y13087D02*
X1694747D01*
X889259Y2350D02*
X899996Y13087D01*
X742630Y2350D02*
X889259D01*
X1942280Y27468D02*
X1948723Y33911D01*
X1747669Y27468D02*
X1942280D01*
X1741226Y33911D02*
X1747669Y27468D01*
X1948723Y33911D02*
X1990915D01*
X3253663Y15146D02*
X3426000D01*
X3241391Y27418D02*
X3253663Y15146D01*
X3348252Y76414D02*
X3431000Y159162D01*
X3348157Y76414D02*
X3348252D01*
X3032621Y64309D02*
X3406250D01*
X3559263D01*
X3060381Y34583D02*
X3085298Y59499D01*
X3435327D01*
X3559263Y64309D02*
X3575523Y48049D01*
X3022657Y54345D02*
X3032621Y64309D01*
X3435327Y59499D02*
X3435749Y59077D01*
X3557674Y59499D02*
X3581173Y35999D01*
X3436171Y59499D02*
X3557674D01*
X3435749Y59077D02*
X3436171Y59499D01*
X3025654Y69156D02*
X3415866D01*
X3023246Y71564D02*
X3025654Y69156D01*
X4013997Y68600D02*
X4020588Y62009D01*
X3416422Y68600D02*
X4013997D01*
X3415866Y69156D02*
X3416422Y68600D01*
X3404982Y47168D02*
X3451350D01*
X3456112Y42406D01*
X3400500Y42686D02*
X3404982Y47168D01*
X3269604Y42686D02*
X3400500D01*
X3265326Y46964D02*
X3269604Y42686D01*
X3105201Y46964D02*
X3265326D01*
X3099213Y40975D02*
X3105201Y46964D01*
X4020588Y61460D02*
Y62009D01*
X3411427Y26667D02*
X3412178Y27418D01*
X3263807Y26667D02*
X3411427D01*
X3255892Y34583D02*
X3263807Y26667D01*
X3152102Y2719D02*
X3220999D01*
X3231177Y12897D01*
X3571682Y37607D02*
X3577469Y31819D01*
X3179098Y37607D02*
X3571682D01*
X3171273Y29782D02*
X3179098Y37607D01*
X3911633Y27418D02*
X3918906Y20146D01*
X3934589D01*
X3934601Y20158D01*
X3976180D01*
X3989180Y33158D01*
X3346916Y8890D02*
X3469485D01*
X3342009Y3983D02*
X3346916Y8890D01*
X3329539Y3983D02*
X3342009D01*
X3426000Y15146D02*
X3919629D01*
X3921559Y13216D01*
X3575523Y48049D02*
X3725710D01*
X3737028Y59366D02*
X3750309D01*
X3725710Y48049D02*
X3737028Y59366D01*
X3750309D02*
X3758062Y51613D01*
X3267736Y8890D02*
X3324633D01*
X3329539Y3983D01*
X3577469Y31819D02*
X3948499D01*
X3948889Y31429D01*
X2566860Y43421D02*
X2750393D01*
X2562097Y48183D02*
X2566860Y43421D01*
X2750393D02*
X2754055Y47083D01*
X3581173Y35999D02*
X3923171D01*
X2247567Y68238D02*
X2373642D01*
X2245129Y65801D02*
X2247567Y68238D01*
X2145218Y65801D02*
X2245129D01*
X2374341Y73000D02*
X2380480Y66861D01*
X2245129Y73000D02*
X2374341D01*
X2240954Y68825D02*
X2245129Y73000D01*
X2380480Y66861D02*
X2607621D01*
X2610471Y69711D01*
X2639662D01*
X1920920Y69910D02*
X1985342D01*
X1876947Y74672D02*
X1936308D01*
X1873386Y78232D02*
X1876947Y74672D01*
X2611035Y65998D02*
X2639099D01*
X2607794Y62758D02*
X2611035Y65998D01*
X2379122Y62758D02*
X2607794D01*
X2992395Y71564D02*
X3023246D01*
X2988144Y67313D02*
X2992395Y71564D01*
X2884431Y67313D02*
X2988144D01*
X2744484Y69156D02*
X2811879D01*
X2741807Y71833D02*
X2744484Y69156D01*
X2664914Y71833D02*
X2741807D01*
X2656890Y63809D02*
X2664914Y71833D01*
X2645565Y63809D02*
X2656890D01*
X2639662Y69711D02*
X2645565Y63809D01*
X2149327Y68825D02*
X2240954D01*
X2145218Y72934D02*
X2149327Y68825D01*
X2116541Y72934D02*
X2145218D01*
X2112751Y69143D02*
X2116541Y72934D01*
X1993034Y69143D02*
X2112751D01*
X1989243Y72934D02*
X1993034Y69143D01*
X1938046Y72934D02*
X1989243D01*
X1936308Y74672D02*
X1938046Y72934D01*
X2777088Y64309D02*
X2785270D01*
X2777751Y59547D02*
X2796674D01*
X2769416Y51211D02*
X2777751Y59547D01*
X2754055Y47083D02*
X2831891D01*
X2769700Y56921D02*
X2777088Y64309D01*
X2747644Y56921D02*
X2769700D01*
X4020588Y61460D02*
X4023377Y58670D01*
X2117342Y53770D02*
X2125802Y62230D01*
X2614578Y55748D02*
X2740032D01*
X2036092Y63095D02*
X2040854Y58333D01*
X1984267Y63095D02*
X2036092D01*
X1981561Y65801D02*
X1984267Y63095D01*
X1976409Y65801D02*
X1981561D01*
X1968759Y58150D02*
X1976409Y65801D01*
X2013820Y53120D02*
X2055780D01*
X2001560Y44556D02*
X2043867D01*
X2070292Y52324D02*
Y53123D01*
X2061588Y47312D02*
X2356985D01*
X2009729Y57212D02*
X2013820Y53120D01*
X1982120Y57212D02*
X2009729D01*
X2141110Y69910D02*
X2145218Y65801D01*
X2373642Y68238D02*
X2379122Y62758D01*
X2740032Y55748D02*
X2744568Y51211D01*
X2613708Y54878D02*
X2614578Y55748D01*
X2043867Y44556D02*
X2051803Y36620D01*
X1956543Y61649D02*
X1960042Y58150D01*
X2639099Y65998D02*
X2644312Y60785D01*
X1990915Y33911D02*
X2001560Y44556D01*
X1985342Y69910D02*
X1989133Y66119D01*
X1945532Y54225D02*
X1979133D01*
X2356985Y47312D02*
X2364551Y54878D01*
X2125802Y62230D02*
X2290411D01*
X2118053Y69910D02*
X2141110D01*
X1920176Y61649D02*
X1956543D01*
X1936308Y45001D02*
X1945532Y54225D01*
X2055780Y53120D02*
X2061402Y47498D01*
X1960042Y58150D02*
X1968759D01*
X2061402Y47498D02*
X2061588Y47312D01*
X1979133Y54225D02*
X1982120Y57212D01*
X2081970Y53770D02*
X2117342D01*
X2364551Y54878D02*
X2613708D01*
X2615690Y61236D02*
X2615790D01*
X3776399Y62262D02*
X3995984D01*
X3758062Y51613D02*
X3765750D01*
X4002600Y55646D02*
X4110648D01*
X3995984Y62262D02*
X4002600Y55646D01*
X4023377Y58670D02*
X4111901D01*
X4114205Y56366D01*
X4127869D01*
X2065082Y58333D02*
X2070292Y53123D01*
X2040854Y58333D02*
X2065082D01*
X4110648Y55646D02*
X4116712Y49582D01*
X3765750Y51613D02*
X3776399Y62262D01*
X3923171Y35999D02*
X3930034Y42862D01*
X2984010Y71000D02*
X2992395Y79385D01*
X2819138Y76414D02*
X2915249D01*
X2920663Y71000D01*
X2984010D01*
X2878802Y61683D02*
X2884431Y67313D01*
X2350824Y57902D02*
X2612356D01*
X2615690Y61236D01*
X2347024Y54102D02*
X2350824Y57902D01*
X2744568Y51211D02*
X2769416D01*
X2831891Y47083D02*
X2841183Y56375D01*
X2737878Y66687D02*
X2747644Y56921D01*
X2664045Y66687D02*
X2737878D01*
X2811879Y69156D02*
X2819138Y76414D01*
X2798810Y61683D02*
X2878802D01*
X2796674Y59547D02*
X2798810Y61683D01*
X2644312Y60785D02*
X2658143D01*
X1989133Y66119D02*
X2114263D01*
X2118053Y69910D01*
X1846171Y62262D02*
X1853300Y55132D01*
X786197Y20261D02*
X823919D01*
X779446Y27012D02*
X786197Y20261D01*
X3992920Y22295D02*
Y27629D01*
X3989180Y33158D02*
X4004545D01*
X3952302Y38100D02*
X3985497D01*
X3988535Y41138D01*
X4010880D01*
X2658143Y60785D02*
X2664045Y66687D01*
X2420512Y6245D02*
X2422176Y4581D01*
X2185382Y6245D02*
X2420512D01*
X2183201Y4064D02*
X2185382Y6245D01*
X2158271Y4064D02*
X2183201D01*
X3721030Y4128D02*
X3848089D01*
X3718914Y6245D02*
X3721030Y4128D01*
X3848089D02*
X3850206Y6245D01*
X3703979Y6245D02*
X3718914D01*
X3900485Y6245D02*
X3902747Y3983D01*
X3850206Y6245D02*
X3900485D01*
X3482766Y8890D02*
X3540165D01*
X3544927Y4128D01*
X3701863D01*
X3703979Y6245D01*
X2968029Y3983D02*
X3122345D01*
X2884431Y23697D02*
X3192205D01*
X2884167Y23962D02*
X2884431Y23697D01*
X2880222Y23962D02*
X2884167D01*
X2879957Y23697D02*
X2880222Y23962D01*
X3216714Y18478D02*
X3225655Y27418D01*
X2787584Y22845D02*
X2791951Y18478D01*
X2759443Y22845D02*
X2787584D01*
X2740476Y3878D02*
X2759443Y22845D01*
X2774755Y18083D02*
X2776033D01*
X2616216Y3878D02*
X2740476D01*
X2613849Y6246D02*
X2616216Y3878D01*
X2567554Y6246D02*
X2613849D01*
X2565889Y4581D02*
X2567554Y6246D01*
X2669046Y16215D02*
X2679895Y27064D01*
X2456163Y16215D02*
X2669046D01*
X2451402Y20977D02*
X2456163Y16215D01*
X2422176Y4581D02*
X2565889D01*
X2250907Y16757D02*
X2405509D01*
X2409729Y20977D01*
X2249068Y14918D02*
X2250907Y16757D01*
X2395544Y20572D02*
X2403705Y28733D01*
X2045690Y20572D02*
X2395544D01*
X2403705Y28733D02*
X2454881D01*
X2409729Y20977D02*
X2451402D01*
X2037452Y28810D02*
X2045690Y20572D01*
X2036168Y28810D02*
X2037452D01*
X2031748Y33230D02*
X2036168Y28810D01*
X2454881Y28733D02*
X2459479Y33331D01*
X2111510Y8890D02*
X2152962D01*
X2106634Y4014D02*
X2111510Y8890D01*
X2152962D02*
X2158271Y4064D01*
X1953926Y14918D02*
X2249068D01*
X1949164Y10156D02*
X1953926Y14918D01*
X1963917Y4128D02*
X1969551Y9762D01*
X2049700Y4014D02*
X2106634D01*
X2043952Y9762D02*
X2049700Y4014D01*
X1969551Y9762D02*
X2043952D01*
X2015045Y33230D02*
X2031748D01*
X1904993Y10156D02*
X1949164D01*
X767927Y20261D02*
X774013Y14175D01*
X825717Y18463D02*
X1382563D01*
X831437Y29801D02*
X1382207D01*
X823919Y20261D02*
X825717Y18463D01*
X1382207Y29801D02*
X1390209Y21798D01*
X1694896Y12938D02*
X1860327D01*
X1694747Y13087D02*
X1694896Y12938D01*
X1863109Y10156D02*
X1891729D01*
X1860327Y12938D02*
X1863109Y10156D01*
X1382563Y18463D02*
X1384770Y16256D01*
X764706Y12012D02*
X768482Y8236D01*
X3018705Y34583D02*
X3060381D01*
X2402194Y48183D02*
X2562097D01*
X2383241Y29230D02*
X2402194Y48183D01*
X2532632Y39134D02*
X2535802Y35963D01*
X2403469Y39134D02*
X2532632D01*
X2387931Y23596D02*
X2403469Y39134D01*
X2672710Y36588D02*
X2755155D01*
X2841183Y56375D02*
X2868802D01*
X2872260Y52917D01*
X2938319D01*
X2828727Y29782D02*
X2832251Y33306D01*
X2809654Y29782D02*
X2828727D01*
X2891612Y40975D02*
X3012312D01*
X2829066Y54864D02*
X2830006D01*
X2827455Y56474D02*
X2829066Y54864D01*
X2810209Y56474D02*
X2827455D01*
X3192205Y23697D02*
X3203090Y34583D01*
X2797614Y27064D02*
X2800981Y23697D01*
X3126557Y8196D02*
X3146625D01*
X3122345Y3983D02*
X3126557Y8196D01*
X1897757Y4128D02*
X1963917D01*
X1891729Y10156D02*
X1897757Y4128D01*
X2051138Y23596D02*
X2387931D01*
X2036742Y37992D02*
X2051138Y23596D01*
X2679895Y27064D02*
X2797614D01*
X2670164Y39134D02*
X2672710Y36588D01*
X4131851Y49582D02*
X4133755Y51486D01*
X4116712Y49582D02*
X4131851D01*
X4133755Y51486D02*
Y55517D01*
X4134420Y56182D01*
X3947540Y42862D02*
X3952302Y38100D01*
X3930034Y42862D02*
X3947540D01*
X1637828Y33911D02*
X1741226D01*
X1944002Y21234D02*
X1951501Y28733D01*
X1745302Y21234D02*
X1944002D01*
X1638952Y45001D02*
X1936308D01*
X3012312Y40975D02*
X3018705Y34583D01*
X2051803Y36620D02*
X2090361D01*
X1951501Y28733D02*
X1995138D01*
X2004396Y37992D01*
X2156201Y29230D02*
X2383241D01*
X2148811Y36620D02*
X2156201Y29230D01*
X2090361Y36620D02*
X2148811D01*
X2004396Y37992D02*
X2036742D01*
X1737803Y28733D02*
X1745302Y21234D01*
X1642039Y28733D02*
X1737803D01*
X1401537Y34714D02*
X1628665D01*
X1631276Y27359D02*
X1637828Y33911D01*
X1395644Y27359D02*
X1631276D01*
X624181Y15091D02*
X636921Y2350D01*
X624181Y15091D02*
Y44742D01*
X624100Y44822D02*
Y45263D01*
Y44822D02*
X624181Y44742D01*
X1388289Y34714D02*
X1395644Y27359D01*
X828431Y34714D02*
X1388289D01*
X1390209Y21798D02*
X1635104D01*
X2939747Y54345D02*
X3022657D01*
X4324494Y104888D02*
X4324563D01*
X4086027Y3983D02*
X4113745D01*
X4081025Y8986D02*
X4086027Y3983D01*
X3945744Y8986D02*
X4081025D01*
X3146625Y8196D02*
X3152102Y2719D01*
X3983840Y13216D02*
X3992920Y22295D01*
X3921559Y13216D02*
X3983840D01*
X768482Y8236D02*
X832602D01*
X852325Y14175D02*
X856340Y10160D01*
X838541Y14175D02*
X852325D01*
X832602Y8236D02*
X838541Y14175D01*
X749954Y20261D02*
X767927D01*
X3940742Y3983D02*
X3945744Y8986D01*
X3902747Y3983D02*
X3940742D01*
X3788886Y105958D02*
X3789543D01*
X3604575D02*
X3604737D01*
X2459479Y33331D02*
X2522015D01*
X2217319Y54102D02*
X2347024D01*
X1635104Y21798D02*
X1642039Y28733D01*
X1853300Y55132D02*
X1913659D01*
X1920176Y61649D01*
X736744Y8236D02*
X742630Y2350D01*
X3203090Y34583D02*
X3255892D01*
X3225655Y27418D02*
X3241391D01*
X2535802Y35963D02*
X2654651D01*
X2657822Y39134D02*
X2670164D01*
X2654651Y35963D02*
X2657822Y39134D01*
X2992395Y79385D02*
X3005164D01*
X2938319Y52917D02*
X2939747Y54345D01*
X4113745Y3983D02*
X4119920Y10158D01*
D63*
X3970180Y56182D02*
D03*
Y45182D02*
D03*
X3981180D02*
D03*
Y56182D02*
D03*
X661420Y58500D02*
D03*
X650420D02*
D03*
Y47500D02*
D03*
X661420D02*
D03*
X1928920Y50370D02*
D03*
X1917920D02*
D03*
Y39370D02*
D03*
X1928920D02*
D03*
X2070292Y52324D02*
D03*
X2892898Y35963D02*
D03*
X2914176Y46964D02*
D03*
Y58083D02*
D03*
Y35963D02*
D03*
X2903898D02*
D03*
X2892898Y47083D02*
D03*
X2903898D02*
D03*
X2892898Y58083D02*
D03*
X2903898D02*
D03*
X4119920Y10158D02*
D03*
D64*
X2846524Y37226D02*
D03*
X2873214Y7204D02*
D03*
X2759371Y33841D02*
D03*
X2770801D02*
D03*
X2848076Y67313D02*
D03*
X2911898Y11345D02*
D03*
X841372Y53043D02*
D03*
X809653Y29856D02*
D03*
X817237Y29238D02*
D03*
X749954Y46873D02*
D03*
X844291Y45104D02*
D03*
X1877077Y32230D02*
D03*
X3335995Y8890D02*
D03*
X3377412Y76414D02*
D03*
X3456000Y130001D02*
D03*
X3426000Y125001D02*
D03*
X3348157Y76414D02*
D03*
X3387805Y102848D02*
D03*
X3406250Y64309D02*
D03*
X3456112Y42406D02*
D03*
X3435749Y59077D02*
D03*
X3231177Y12897D02*
D03*
X3426000Y15146D02*
D03*
X3158432Y37867D02*
D03*
X3415866Y69156D02*
D03*
X3431000Y159162D02*
D03*
Y27418D02*
D03*
X3267736Y8890D02*
D03*
X1920920Y69910D02*
D03*
X1873386Y78232D02*
D03*
X2785270Y64309D02*
D03*
X2685526Y61925D02*
D03*
X2615790Y61236D02*
D03*
X2290411Y62230D02*
D03*
X2385765Y50116D02*
D03*
X3099213Y40975D02*
D03*
X3992920Y27629D02*
D03*
X4004545Y33158D02*
D03*
X3948889Y31429D02*
D03*
X3975680Y30932D02*
D03*
X389942Y9500D02*
D03*
X205865D02*
D03*
X4452286Y10717D02*
D03*
X4269870Y9500D02*
D03*
X3913607Y10158D02*
D03*
X3728340Y8890D02*
D03*
X3482766D02*
D03*
X3547044Y9462D02*
D03*
X3469485Y8890D02*
D03*
X3154817D02*
D03*
X2975179Y9345D02*
D03*
X2774755Y18083D02*
D03*
X2434779Y9342D02*
D03*
X2035479Y24048D02*
D03*
X2283595Y102600D02*
D03*
X2252880Y11995D02*
D03*
X2041980Y5000D02*
D03*
X774013Y14175D02*
D03*
X1858355Y8176D02*
D03*
X1667480Y23370D02*
D03*
X1504835Y7100D02*
D03*
X1316205Y24102D02*
D03*
X1105828Y5125D02*
D03*
X924820Y6195D02*
D03*
X749954Y20261D02*
D03*
X566500Y10540D02*
D03*
X1898893Y16243D02*
D03*
X2721722Y50986D02*
D03*
X2691957Y48286D02*
D03*
X2830006Y54864D02*
D03*
X2796366Y9604D02*
D03*
X4170934Y49758D02*
D03*
X4088582Y49582D02*
D03*
X2081970Y53770D02*
D03*
X2107154Y42239D02*
D03*
X1951501Y28733D02*
D03*
X2162920Y38770D02*
D03*
X2061402Y47498D02*
D03*
X2090361Y36620D02*
D03*
X1950889Y42239D02*
D03*
X2015045Y33230D02*
D03*
X2815410Y35963D02*
D03*
X3021982Y66093D02*
D03*
X4503922Y103100D02*
D03*
X4324426Y35658D02*
D03*
X4324494Y104888D02*
D03*
X4156920Y35182D02*
D03*
X4083160Y18158D02*
D03*
X4025350Y63432D02*
D03*
X3788886Y105958D02*
D03*
X3604737D02*
D03*
X2616113Y10716D02*
D03*
X2335465Y99600D02*
D03*
Y144624D02*
D03*
X2287042D02*
D03*
X1181560Y105175D02*
D03*
X1221031D02*
D03*
Y141952D02*
D03*
X1181560D02*
D03*
X2078970Y29230D02*
D03*
X1893774Y50370D02*
D03*
X1360074Y62182D02*
D03*
X1147897Y57946D02*
D03*
X707920Y54737D02*
D03*
X604704Y48049D02*
D03*
X426462Y36830D02*
D03*
X244613Y46670D02*
D03*
X4127869Y56366D02*
D03*
X4134420Y56182D02*
D03*
X4010880Y41138D02*
D03*
X1891729Y10156D02*
D03*
X2217319Y54102D02*
D03*
X2522015Y33331D02*
D03*
X3005164Y79385D02*
D03*
X638625Y70163D02*
D03*
X650432Y79730D02*
D03*
X653480Y7112D02*
D03*
X632881Y25109D02*
D03*
X856340Y10160D02*
D03*
X643066Y24000D02*
D03*
X2810209Y56474D02*
D03*
X624100Y45263D02*
D03*
M02*
