G04*
G04 #@! TF.GenerationSoftware,Altium Limited,Altium Designer,19.1.8 (144)*
G04*
G04 Layer_Color=8388736*
%FSLAX44Y44*%
%MOMM*%
G71*
G01*
G75*
%ADD65C,0.0127*%
%ADD66C,0.0100*%
D65*
X3810500Y50000D02*
G03*
X3810500Y50000I-10000J0D01*
G01*
X822500D02*
G03*
X822500Y50000I-10000J0D01*
G01*
X3054500D02*
G03*
X3054500Y50000I-10000J0D01*
G01*
X1578504Y50000D02*
G03*
X1578504Y50000I-10000J0D01*
G01*
D66*
X911149Y6D02*
G03*
X899850Y4I-5649J-2023D01*
G01*
X1091150Y3D02*
G03*
X1079849Y0I-5650J-2020D01*
G01*
X2025167Y0D02*
G03*
X2013832Y-1I-5667J-1970D01*
G01*
X2205150Y3D02*
G03*
X2193849Y0I-5650J-2020D01*
G01*
X2959143Y20D02*
G03*
X2947857Y23I-5644J-2037D01*
G01*
X3139151Y0D02*
G03*
X3127850Y2I-5651J-2017D01*
G01*
X3319150Y3D02*
G03*
X3307850Y2I-5650J-2020D01*
G01*
X3893150Y2D02*
G03*
X3881849Y0I-5650J-2019D01*
G01*
X4073061Y3D02*
G03*
X4061938Y0I-5561J-2019D01*
G01*
X4253061Y3D02*
G03*
X4241938Y0I-5561J-2019D01*
G01*
X4433151Y0D02*
G03*
X4421849Y1I-5651J-2017D01*
G01*
X191150Y1D02*
G03*
X179849Y0I-5651J-2018D01*
G01*
X371150Y3D02*
G03*
X359851Y7I-5650J-2020D01*
G01*
X551397Y3D02*
G03*
X539604Y5I-5897J-2020D01*
G01*
X731150Y1D02*
G03*
X719849Y0I-5650J-2018D01*
G01*
X1305148Y8D02*
G03*
X1293849Y0I-5648J-2025D01*
G01*
X1485150Y3D02*
G03*
X1473851Y6I-5650J-2019D01*
G01*
X1665151Y1D02*
G03*
X1653851Y5I-5651J-2017D01*
G01*
X2419151Y0D02*
G03*
X2407849Y0I-5651J-2017D01*
G01*
X2599149Y5D02*
G03*
X2587849Y0I-5649J-2022D01*
G01*
X2779149Y3D02*
G03*
X2767849Y0I-5650J-2020D01*
G01*
X3533150Y2D02*
G03*
X3521849Y0I-5650J-2019D01*
G01*
X3713150Y2D02*
G03*
X3701850Y3I-5650J-2019D01*
G01*
X1845151Y1D02*
G03*
X1833852Y8I-5651J-2017D01*
G01*
X4421850Y-1D02*
X4433150D01*
X4241942D02*
X4253058D01*
X4061938Y-2D02*
X4073062Y1D01*
X3881849Y-1D02*
X3893150D01*
X3701850D02*
X3713150D01*
X3521850D02*
X3533150D01*
X3307850D02*
X3319150D01*
X3127850D02*
X3139151D01*
X2947859D02*
X2959143D01*
X2767849D02*
X2779149D01*
X2587849D02*
X2599149D01*
X2407849D02*
X2419150D01*
X2193849D02*
X2205150D01*
X2013833D02*
X2025167D01*
X1833852D02*
X1845149D01*
X1473851D02*
X1485150D01*
X1653851D02*
X1665151D01*
X179852D02*
X191150D01*
X1293849D02*
X1305148D01*
X1079849Y0D02*
X1091150Y-1D01*
X899850D02*
X911149D01*
X719849D02*
X731150D01*
X539604D02*
X551397D01*
X359851D02*
X371150D01*
M02*
