G04*
G04 #@! TF.GenerationSoftware,Altium Limited,Altium Designer,19.1.8 (144)*
G04*
G04 Layer_Physical_Order=4*
G04 Layer_Color=16440176*
%FSLAX44Y44*%
%MOMM*%
G71*
G01*
G75*
%ADD60C,0.1524*%
%ADD63C,0.5500*%
%ADD64C,0.5000*%
G36*
X2376071Y164651D02*
X2375926Y66674D01*
X2651285Y66665D01*
X2651827Y65853D01*
X2653074Y65020D01*
X2654545Y64728D01*
X2656016Y65020D01*
X2657263Y65853D01*
X2657806Y66665D01*
X2663560Y66665D01*
X2663718Y66451D01*
X2663420Y64724D01*
X2663299Y64643D01*
X2662466Y63396D01*
X2662173Y61925D01*
X2662466Y60454D01*
X2663299Y59207D01*
X2664546Y58374D01*
X2666017Y58081D01*
X2667488Y58374D01*
X2668735Y59207D01*
X2669568Y60454D01*
X2669861Y61925D01*
X2669568Y63396D01*
X2668735Y64643D01*
X2668615Y64724D01*
X2668317Y66451D01*
X2668475Y66665D01*
X2766924Y66662D01*
X2767049Y65392D01*
X2766257Y65234D01*
X2765010Y64401D01*
X2764177Y63154D01*
X2763884Y61683D01*
X2764177Y60212D01*
X2765010Y58965D01*
X2766257Y58132D01*
X2767728Y57839D01*
X2769199Y58132D01*
X2770446Y58965D01*
X2771279Y60212D01*
X2771572Y61683D01*
X2771279Y63154D01*
X2770446Y64401D01*
X2769199Y65234D01*
X2768407Y65392D01*
X2768532Y66662D01*
X2780896Y66661D01*
X2781641Y65391D01*
X2781426Y64309D01*
X2781718Y62838D01*
X2782552Y61591D01*
X2783799Y60757D01*
X2785270Y60465D01*
X2786741Y60757D01*
X2787988Y61591D01*
X2788821Y62838D01*
X2789113Y64309D01*
X2788898Y65391D01*
X2789643Y66661D01*
X2954858Y66656D01*
X2955243Y65386D01*
X2954727Y65041D01*
X2953894Y63794D01*
X2953601Y62323D01*
X2953894Y60852D01*
X2954727Y59605D01*
X2955974Y58772D01*
X2957445Y58479D01*
X2958916Y58772D01*
X2960163Y59605D01*
X2960996Y60852D01*
X2961289Y62323D01*
X2960996Y63794D01*
X2960163Y65041D01*
X2959647Y65386D01*
X2960032Y66656D01*
X2988936Y66655D01*
X2989061Y65385D01*
X2988304Y65234D01*
X2987056Y64401D01*
X2986223Y63154D01*
X2985930Y61683D01*
X2986223Y60212D01*
X2987056Y58965D01*
X2988304Y58132D01*
X2989774Y57839D01*
X2991245Y58132D01*
X2992492Y58965D01*
X2993326Y60212D01*
X2993618Y61683D01*
X2993326Y63154D01*
X2992492Y64401D01*
X2991245Y65234D01*
X2990488Y65385D01*
X2990613Y66655D01*
X2999058Y66655D01*
X2999349Y65188D01*
X3000182Y63941D01*
X3001429Y63107D01*
X3002900Y62815D01*
X3004372Y63107D01*
X3005619Y63941D01*
X3006452Y65188D01*
X3006743Y66654D01*
X3361184Y66643D01*
Y75916D01*
X3362454Y76595D01*
X3362822Y76349D01*
X3364293Y76056D01*
X3365764Y76349D01*
X3367011Y77182D01*
X3367845Y78429D01*
X3368137Y79900D01*
X3367845Y81371D01*
X3367011Y82618D01*
X3365764Y83451D01*
X3364293Y83744D01*
X3362822Y83451D01*
X3362454Y83205D01*
X3361184Y83884D01*
X3361184Y165549D01*
X3407321D01*
X3407947Y164279D01*
X3407449Y163533D01*
X3407156Y162062D01*
X3407449Y160591D01*
X3408282Y159344D01*
X3409529Y158511D01*
X3410973Y158224D01*
X3411127Y158184D01*
X3412253Y157173D01*
X3412449Y156191D01*
X3413282Y154944D01*
X3414529Y154111D01*
X3416000Y153818D01*
X3417471Y154111D01*
X3418718Y154944D01*
X3419551Y156191D01*
X3419844Y157662D01*
X3419551Y159133D01*
X3418718Y160380D01*
X3417471Y161213D01*
X3416027Y161501D01*
X3415873Y161540D01*
X3414746Y162551D01*
X3414551Y163533D01*
X3414053Y164279D01*
X3414679Y165549D01*
X3494804Y165549D01*
X3494805Y66643D01*
X3998081Y66643D01*
X3998729Y65373D01*
X3998247Y64653D01*
X3997955Y63182D01*
X3998247Y61711D01*
X3999081Y60464D01*
X4000327Y59631D01*
X4001799Y59338D01*
X4003270Y59631D01*
X4004517Y60464D01*
X4005350Y61711D01*
X4005642Y63182D01*
X4005350Y64653D01*
X4004868Y65373D01*
X4005516Y66643D01*
X4012685D01*
X4012810Y65373D01*
X4012609Y65333D01*
X4011362Y64500D01*
X4010529Y63253D01*
X4010236Y61782D01*
X4010529Y60311D01*
X4011362Y59064D01*
X4012609Y58231D01*
X4014080Y57938D01*
X4015551Y58231D01*
X4016798Y59064D01*
X4017631Y60311D01*
X4017924Y61782D01*
X4017631Y63253D01*
X4016798Y64500D01*
X4015551Y65333D01*
X4015350Y65373D01*
X4015475Y66643D01*
X4474953D01*
X4474953Y165550D01*
X4611562D01*
Y1444D01*
X4434037D01*
X4433988Y1497D01*
X4433933Y1706D01*
X4432810Y3184D01*
X4432623Y3293D01*
X4432508Y3476D01*
X4430990Y4546D01*
X4430779Y4593D01*
X4430614Y4732D01*
X4428844Y5293D01*
X4428629Y5275D01*
X4428429Y5358D01*
X4426572Y5358D01*
X4426372Y5275D01*
X4426157Y5294D01*
X4424387Y4733D01*
X4424221Y4593D01*
X4424011Y4546D01*
X4422493Y3476D01*
X4422377Y3294D01*
X4422191Y3185D01*
X4421067Y1707D01*
X4421012Y1497D01*
X4420963Y1444D01*
X4253937D01*
X4253897Y1487D01*
X4253841Y1695D01*
X4252732Y3142D01*
X4252546Y3250D01*
X4252430Y3431D01*
X4250937Y4477D01*
X4250727Y4524D01*
X4250562Y4663D01*
X4248824Y5211D01*
X4248609Y5192D01*
X4248410Y5274D01*
X4246587Y5274D01*
X4246388Y5192D01*
X4246174Y5210D01*
X4244435Y4661D01*
X4244271Y4523D01*
X4244060Y4476D01*
X4242568Y3430D01*
X4242452Y3248D01*
X4242266Y3140D01*
X4241158Y1693D01*
X4241102Y1485D01*
X4241064Y1444D01*
X3894037D01*
X3893987Y1499D01*
X3893932Y1708D01*
X3892809Y3185D01*
X3892622Y3295D01*
X3892506Y3477D01*
X3890988Y4546D01*
X3890778Y4594D01*
X3890612Y4733D01*
X3888842Y5294D01*
X3888627Y5275D01*
X3888427Y5358D01*
X3886571Y5358D01*
X3886371Y5275D01*
X3886155Y5293D01*
X3884386Y4732D01*
X3884221Y4593D01*
X3884010Y4545D01*
X3882492Y3476D01*
X3882377Y3293D01*
X3882190Y3184D01*
X3881067Y1706D01*
X3881012Y1497D01*
X3880963Y1444D01*
X3714037D01*
X3713987Y1499D01*
X3713932Y1708D01*
X3712809Y3185D01*
X3712622Y3294D01*
X3712506Y3477D01*
X3710989Y4545D01*
X3710778Y4593D01*
X3710612Y4732D01*
X3708844Y5293D01*
X3708628Y5274D01*
X3708428Y5357D01*
X3706573Y5357D01*
X3706373Y5275D01*
X3706158Y5293D01*
X3704388Y4733D01*
X3704223Y4593D01*
X3704012Y4546D01*
X3702495Y3477D01*
X3702379Y3295D01*
X3702192Y3186D01*
X3701069Y1709D01*
X3701014Y1500D01*
X3700963Y1444D01*
X3534037D01*
X3533987Y1499D01*
X3533932Y1708D01*
X3532808Y3186D01*
X3532621Y3295D01*
X3532505Y3478D01*
X3530988Y4547D01*
X3530777Y4594D01*
X3530612Y4733D01*
X3528842Y5294D01*
X3528626Y5275D01*
X3528427Y5358D01*
X3526570Y5358D01*
X3526371Y5275D01*
X3526155Y5293D01*
X3524386Y4732D01*
X3524220Y4593D01*
X3524009Y4545D01*
X3522492Y3476D01*
X3522376Y3293D01*
X3522190Y3184D01*
X3521067Y1706D01*
X3521012Y1497D01*
X3520963Y1444D01*
X3320037D01*
X3319987Y1499D01*
X3319932Y1708D01*
X3318808Y3185D01*
X3318621Y3294D01*
X3318506Y3477D01*
X3316989Y4546D01*
X3316778Y4593D01*
X3316612Y4732D01*
X3314843Y5293D01*
X3314628Y5274D01*
X3314428Y5357D01*
X3312572Y5357D01*
X3312372Y5274D01*
X3312157Y5293D01*
X3310388Y4732D01*
X3310222Y4593D01*
X3310011Y4546D01*
X3308494Y3477D01*
X3308379Y3294D01*
X3308192Y3185D01*
X3307068Y1708D01*
X3307013Y1499D01*
X3306963Y1444D01*
X3140037D01*
X3139988Y1497D01*
X3139933Y1706D01*
X3138810Y3184D01*
X3138624Y3293D01*
X3138508Y3476D01*
X3136991Y4545D01*
X3136780Y4593D01*
X3136614Y4732D01*
X3134845Y5293D01*
X3134630Y5275D01*
X3134430Y5358D01*
X3132574Y5358D01*
X3132373Y5275D01*
X3132158Y5294D01*
X3130388Y4733D01*
X3130223Y4594D01*
X3130012Y4547D01*
X3128494Y3478D01*
X3128379Y3295D01*
X3128192Y3186D01*
X3127068Y1708D01*
X3127013Y1499D01*
X3126963Y1444D01*
X2960044D01*
X2959977Y1517D01*
X2959922Y1725D01*
X2958798Y3196D01*
X2958611Y3304D01*
X2958496Y3486D01*
X2956982Y4550D01*
X2956771Y4597D01*
X2956606Y4736D01*
X2954841Y5294D01*
X2954626Y5275D01*
X2954427Y5357D01*
X2952577Y5358D01*
X2952377Y5276D01*
X2952162Y5294D01*
X2950398Y4737D01*
X2950233Y4599D01*
X2950022Y4552D01*
X2948507Y3489D01*
X2948391Y3307D01*
X2948205Y3198D01*
X2947080Y1729D01*
X2947025Y1520D01*
X2946955Y1444D01*
X2780038D01*
X2779986Y1500D01*
X2779931Y1710D01*
X2778807Y3187D01*
X2778621Y3296D01*
X2778505Y3478D01*
X2776987Y4547D01*
X2776776Y4594D01*
X2776611Y4734D01*
X2774841Y5294D01*
X2774626Y5275D01*
X2774426Y5358D01*
X2772570Y5357D01*
X2772370Y5275D01*
X2772155Y5293D01*
X2770385Y4732D01*
X2770220Y4593D01*
X2770009Y4545D01*
X2768492Y3476D01*
X2768376Y3293D01*
X2768190Y3184D01*
X2767067Y1706D01*
X2767012Y1497D01*
X2766964Y1444D01*
X2600038D01*
X2599985Y1502D01*
X2599930Y1711D01*
X2598806Y3188D01*
X2598619Y3297D01*
X2598504Y3479D01*
X2596986Y4548D01*
X2596775Y4595D01*
X2596609Y4734D01*
X2594840Y5294D01*
X2594625Y5275D01*
X2594425Y5358D01*
X2592569Y5357D01*
X2592369Y5275D01*
X2592154Y5293D01*
X2590385Y4732D01*
X2590219Y4592D01*
X2590008Y4545D01*
X2588492Y3475D01*
X2588376Y3292D01*
X2588189Y3183D01*
X2587067Y1706D01*
X2587011Y1496D01*
X2586964Y1444D01*
X2420037D01*
X2419988Y1497D01*
X2419933Y1706D01*
X2418810Y3185D01*
X2418623Y3293D01*
X2418507Y3476D01*
X2416990Y4546D01*
X2416779Y4593D01*
X2416613Y4733D01*
X2414843Y5294D01*
X2414628Y5275D01*
X2414428Y5358D01*
X2412572Y5358D01*
X2412372Y5275D01*
X2412156Y5293D01*
X2410387Y4733D01*
X2410221Y4593D01*
X2410010Y4546D01*
X2408492Y3476D01*
X2408377Y3293D01*
X2408190Y3184D01*
X2407067Y1706D01*
X2407012Y1497D01*
X2406963Y1444D01*
X2206038D01*
X2205986Y1500D01*
X2205931Y1710D01*
X2204807Y3187D01*
X2204621Y3296D01*
X2204505Y3478D01*
X2202987Y4547D01*
X2202776Y4595D01*
X2202611Y4734D01*
X2200841Y5294D01*
X2200626Y5275D01*
X2200426Y5358D01*
X2198570Y5357D01*
X2198370Y5275D01*
X2198154Y5293D01*
X2196385Y4732D01*
X2196220Y4593D01*
X2196009Y4545D01*
X2194492Y3476D01*
X2194376Y3293D01*
X2194189Y3184D01*
X2193067Y1706D01*
X2193012Y1496D01*
X2192964Y1444D01*
X2151716D01*
X2151186Y2435D01*
X2151178Y2713D01*
X2151454Y4100D01*
X2151161Y5571D01*
X2150328Y6818D01*
X2149081Y7651D01*
X2147610Y7944D01*
X2146139Y7651D01*
X2144892Y6818D01*
X2144059Y5571D01*
X2143766Y4100D01*
X2144042Y2713D01*
X2144034Y2435D01*
X2143504Y1444D01*
X2026062D01*
X2026014Y1497D01*
X2025960Y1708D01*
X2024838Y3204D01*
X2024651Y3314D01*
X2024535Y3499D01*
X2023011Y4582D01*
X2022799Y4631D01*
X2022633Y4771D01*
X2020852Y5340D01*
X2020635Y5322D01*
X2020434Y5405D01*
X2018564Y5405D01*
X2018363Y5321D01*
X2018146Y5339D01*
X2016365Y4771D01*
X2016199Y4630D01*
X2015987Y4581D01*
X2014464Y3498D01*
X2014348Y3313D01*
X2014160Y3202D01*
X2013039Y1706D01*
X2012985Y1496D01*
X2012939Y1444D01*
X1846037D01*
X1845988Y1497D01*
X1845933Y1706D01*
X1844811Y3183D01*
X1844624Y3292D01*
X1844509Y3475D01*
X1842992Y4544D01*
X1842781Y4592D01*
X1842616Y4731D01*
X1840848Y5293D01*
X1840632Y5274D01*
X1840433Y5357D01*
X1838577Y5358D01*
X1838377Y5276D01*
X1838162Y5294D01*
X1836393Y4735D01*
X1836227Y4596D01*
X1836016Y4549D01*
X1834499Y3482D01*
X1834383Y3299D01*
X1834196Y3190D01*
X1833072Y1714D01*
X1833016Y1505D01*
X1832960Y1444D01*
X1666037D01*
X1665988Y1497D01*
X1665933Y1706D01*
X1664810Y3184D01*
X1664624Y3293D01*
X1664508Y3476D01*
X1662991Y4545D01*
X1662780Y4592D01*
X1662615Y4732D01*
X1660846Y5293D01*
X1660631Y5275D01*
X1660431Y5357D01*
X1658575Y5358D01*
X1658375Y5275D01*
X1658160Y5294D01*
X1656391Y4734D01*
X1656225Y4595D01*
X1656014Y4548D01*
X1654496Y3480D01*
X1654381Y3297D01*
X1654194Y3188D01*
X1653070Y1711D01*
X1653015Y1502D01*
X1652961Y1444D01*
X1486037D01*
X1485987Y1499D01*
X1485932Y1708D01*
X1484809Y3185D01*
X1484622Y3294D01*
X1484507Y3477D01*
X1482990Y4545D01*
X1482779Y4593D01*
X1482614Y4732D01*
X1480845Y5293D01*
X1480630Y5275D01*
X1480430Y5357D01*
X1478575Y5358D01*
X1478375Y5275D01*
X1478160Y5294D01*
X1476391Y4734D01*
X1476225Y4595D01*
X1476014Y4548D01*
X1474497Y3480D01*
X1474381Y3298D01*
X1474194Y3189D01*
X1473071Y1712D01*
X1473015Y1503D01*
X1472961Y1444D01*
X1306040D01*
X1305984Y1505D01*
X1305928Y1714D01*
X1304804Y3190D01*
X1304617Y3299D01*
X1304501Y3482D01*
X1302984Y4549D01*
X1302773Y4596D01*
X1302607Y4735D01*
X1300838Y5294D01*
X1300623Y5276D01*
X1300423Y5358D01*
X1298567Y5357D01*
X1298368Y5274D01*
X1298152Y5293D01*
X1296384Y4731D01*
X1296218Y4592D01*
X1296008Y4544D01*
X1294491Y3475D01*
X1294376Y3292D01*
X1294189Y3183D01*
X1293067Y1706D01*
X1293012Y1497D01*
X1292964Y1444D01*
X1092038D01*
X1091986Y1500D01*
X1091931Y1710D01*
X1090807Y3187D01*
X1090620Y3296D01*
X1090505Y3478D01*
X1088987Y4547D01*
X1088776Y4595D01*
X1088611Y4734D01*
X1086841Y5294D01*
X1086626Y5275D01*
X1086426Y5358D01*
X1084570Y5357D01*
X1084370Y5275D01*
X1084154Y5293D01*
X1082385Y4732D01*
X1082220Y4593D01*
X1082009Y4545D01*
X1080492Y3476D01*
X1080376Y3293D01*
X1080190Y3184D01*
X1079067Y1706D01*
X1079012Y1497D01*
X1078963Y1444D01*
X912039D01*
X911985Y1503D01*
X911930Y1712D01*
X910806Y3188D01*
X910619Y3297D01*
X910504Y3480D01*
X908987Y4547D01*
X908776Y4595D01*
X908610Y4734D01*
X906842Y5294D01*
X906626Y5275D01*
X906426Y5358D01*
X904571Y5358D01*
X904371Y5275D01*
X904156Y5293D01*
X902387Y4733D01*
X902222Y4594D01*
X902011Y4546D01*
X900495Y3478D01*
X900379Y3295D01*
X900192Y3186D01*
X899069Y1710D01*
X899014Y1501D01*
X898962Y1444D01*
X732037D01*
X731988Y1498D01*
X731933Y1707D01*
X730809Y3185D01*
X730622Y3294D01*
X730507Y3477D01*
X728989Y4546D01*
X728778Y4594D01*
X728612Y4733D01*
X726843Y5294D01*
X726627Y5275D01*
X726427Y5358D01*
X724571Y5358D01*
X724371Y5275D01*
X724156Y5293D01*
X722386Y4732D01*
X722221Y4593D01*
X722010Y4545D01*
X720492Y3476D01*
X720377Y3293D01*
X720190Y3184D01*
X719067Y1706D01*
X719012Y1497D01*
X718963Y1444D01*
X552317D01*
X552237Y1534D01*
X552183Y1746D01*
X551019Y3309D01*
X550831Y3421D01*
X550716Y3607D01*
X549130Y4739D01*
X548918Y4789D01*
X548751Y4930D01*
X546895Y5525D01*
X546677Y5507D01*
X546476Y5591D01*
X544527Y5591D01*
X544325Y5508D01*
X544107Y5526D01*
X542251Y4931D01*
X542085Y4790D01*
X541872Y4741D01*
X540286Y3608D01*
X540170Y3423D01*
X539982Y3311D01*
X538818Y1748D01*
X538764Y1537D01*
X538682Y1444D01*
X372038D01*
X371987Y1500D01*
X371931Y1709D01*
X370808Y3186D01*
X370622Y3295D01*
X370506Y3477D01*
X368989Y4546D01*
X368779Y4593D01*
X368613Y4733D01*
X366845Y5293D01*
X366629Y5275D01*
X366430Y5357D01*
X364574Y5358D01*
X364375Y5275D01*
X364159Y5294D01*
X362391Y4734D01*
X362225Y4595D01*
X362014Y4548D01*
X360497Y3480D01*
X360381Y3297D01*
X360194Y3189D01*
X359071Y1713D01*
X359015Y1504D01*
X358961Y1444D01*
X192037D01*
X191988Y1498D01*
X191933Y1707D01*
X190809Y3185D01*
X190623Y3294D01*
X190507Y3477D01*
X188989Y4546D01*
X188778Y4593D01*
X188613Y4733D01*
X186843Y5294D01*
X186628Y5275D01*
X186428Y5358D01*
X184571Y5358D01*
X184371Y5275D01*
X184156Y5293D01*
X182386Y4732D01*
X182221Y4593D01*
X182010Y4545D01*
X180492Y3476D01*
X180377Y3293D01*
X180190Y3184D01*
X179067Y1706D01*
X179012Y1497D01*
X178964Y1444D01*
X3823D01*
X2926Y2342D01*
X2995Y163321D01*
X144258Y163321D01*
X144258Y67661D01*
X635762D01*
X635907Y67445D01*
X637154Y66612D01*
X638625Y66319D01*
X640096Y66612D01*
X641343Y67445D01*
X641487Y67661D01*
X1136739D01*
X1136739Y164699D01*
X1252941Y164699D01*
X1252941Y67661D01*
X1344269Y67581D01*
X1344947Y66310D01*
X1344734Y65991D01*
X1344441Y64520D01*
X1344734Y63049D01*
X1345567Y61802D01*
X1346814Y60969D01*
X1348285Y60676D01*
X1349756Y60969D01*
X1351003Y61802D01*
X1351836Y63049D01*
X1352129Y64520D01*
X1351836Y65991D01*
X1351627Y66304D01*
X1352306Y67574D01*
X1878093Y67112D01*
X1878217Y65841D01*
X1877915Y65781D01*
X1876668Y64948D01*
X1875835Y63701D01*
X1875542Y62230D01*
X1875835Y60759D01*
X1876668Y59512D01*
X1877915Y58679D01*
X1879386Y58386D01*
X1880857Y58679D01*
X1882104Y59512D01*
X1882937Y60759D01*
X1883230Y62230D01*
X1882937Y63701D01*
X1882104Y64948D01*
X1880857Y65781D01*
X1880565Y65839D01*
X1880691Y67109D01*
X1889877Y67101D01*
X1890001Y65831D01*
X1889751Y65781D01*
X1888504Y64948D01*
X1887671Y63701D01*
X1887378Y62230D01*
X1887671Y60759D01*
X1888504Y59512D01*
X1889751Y58679D01*
X1891222Y58386D01*
X1892693Y58679D01*
X1893940Y59512D01*
X1894773Y60759D01*
X1895066Y62230D01*
X1894773Y63701D01*
X1893940Y64948D01*
X1892693Y65781D01*
X1892454Y65829D01*
X1892579Y67099D01*
X1901714Y67091D01*
X1901839Y65821D01*
X1901641Y65781D01*
X1900394Y64948D01*
X1899561Y63701D01*
X1899268Y62230D01*
X1899561Y60759D01*
X1900394Y59512D01*
X1901641Y58679D01*
X1903112Y58386D01*
X1904583Y58679D01*
X1905830Y59512D01*
X1906663Y60759D01*
X1906956Y62230D01*
X1906663Y63701D01*
X1905830Y64948D01*
X1904583Y65781D01*
X1904396Y65818D01*
X1904522Y67088D01*
X1918374Y67076D01*
X1919449Y66358D01*
X1920920Y66066D01*
X1922391Y66358D01*
X1923458Y67072D01*
X1961046Y67039D01*
X1961393Y66320D01*
X1961526Y65768D01*
X1960771Y64637D01*
X1960478Y63166D01*
X1960771Y61695D01*
X1961604Y60448D01*
X1962851Y59615D01*
X1964322Y59322D01*
X1965793Y59615D01*
X1967040Y60448D01*
X1967873Y61695D01*
X1968166Y63166D01*
X1967873Y64637D01*
X1967121Y65763D01*
X1967260Y66330D01*
X1967607Y67033D01*
X2115185Y66903D01*
X2115570Y65633D01*
X2115335Y65476D01*
X2114502Y64229D01*
X2114210Y62758D01*
X2114502Y61287D01*
X2115335Y60040D01*
X2116582Y59207D01*
X2118053Y58914D01*
X2119525Y59207D01*
X2120771Y60040D01*
X2121605Y61287D01*
X2121897Y62758D01*
X2121605Y64229D01*
X2120771Y65476D01*
X2120544Y65628D01*
X2120929Y66898D01*
X2245579Y66788D01*
X2245579Y165550D01*
X2375174D01*
X2376071Y164651D01*
D02*
G37*
%LPC*%
G36*
X3451086Y163006D02*
X3449615Y162713D01*
X3448369Y161880D01*
X3447535Y160633D01*
X3447243Y159162D01*
X3447535Y157691D01*
X3448369Y156444D01*
X3449615Y155611D01*
X3451086Y155318D01*
X3452557Y155611D01*
X3453805Y156444D01*
X3454638Y157691D01*
X3454930Y159162D01*
X3454638Y160633D01*
X3453805Y161880D01*
X3452557Y162713D01*
X3451086Y163006D01*
D02*
G37*
G36*
X3431000D02*
X3429529Y162713D01*
X3428282Y161880D01*
X3427449Y160633D01*
X3427156Y159162D01*
X3427449Y157691D01*
X3428282Y156444D01*
X3429529Y155611D01*
X3431000Y155318D01*
X3432471Y155611D01*
X3433718Y156444D01*
X3434551Y157691D01*
X3434844Y159162D01*
X3434551Y160633D01*
X3433718Y161880D01*
X3432471Y162713D01*
X3431000Y163006D01*
D02*
G37*
G36*
X3466500Y149582D02*
X3464667Y149341D01*
X3462960Y148633D01*
X3461493Y147508D01*
X3460368Y146042D01*
X3459661Y144334D01*
X3459419Y142501D01*
X3459661Y140669D01*
X3460368Y138961D01*
X3461493Y137495D01*
X3462960Y136369D01*
X3464667Y135662D01*
X3466500Y135421D01*
X3468333Y135662D01*
X3470040Y136369D01*
X3471507Y137495D01*
X3472632Y138961D01*
X3473339Y140669D01*
X3473581Y142501D01*
X3473339Y144334D01*
X3472632Y146042D01*
X3471507Y147508D01*
X3470040Y148633D01*
X3468333Y149341D01*
X3466500Y149582D01*
D02*
G37*
G36*
X3400500D02*
X3398667Y149341D01*
X3396960Y148633D01*
X3395493Y147508D01*
X3394368Y146042D01*
X3393661Y144334D01*
X3393419Y142501D01*
X3393661Y140669D01*
X3394368Y138961D01*
X3395493Y137495D01*
X3396960Y136369D01*
X3398667Y135662D01*
X3400500Y135421D01*
X3402332Y135662D01*
X3404040Y136369D01*
X3405507Y137495D01*
X3406632Y138961D01*
X3407339Y140669D01*
X3407581Y142501D01*
X3407339Y144334D01*
X3406632Y146042D01*
X3405507Y147508D01*
X3404040Y148633D01*
X3402332Y149341D01*
X3400500Y149582D01*
D02*
G37*
G36*
X3446085Y136940D02*
X3444614Y136647D01*
X3443367Y135814D01*
X3442534Y134567D01*
X3442241Y133096D01*
X3442534Y131625D01*
X3443367Y130378D01*
X3444614Y129545D01*
X3446085Y129252D01*
X3447556Y129545D01*
X3448803Y130378D01*
X3449636Y131625D01*
X3449929Y133096D01*
X3449636Y134567D01*
X3448803Y135814D01*
X3447556Y136647D01*
X3446085Y136940D01*
D02*
G37*
G36*
X3421000D02*
X3419529Y136647D01*
X3418282Y135814D01*
X3417449Y134567D01*
X3417156Y133096D01*
X3417449Y131625D01*
X3418282Y130378D01*
X3419529Y129545D01*
X3421000Y129252D01*
X3422471Y129545D01*
X3423718Y130378D01*
X3424551Y131625D01*
X3424844Y133096D01*
X3424551Y134567D01*
X3423718Y135814D01*
X3422471Y136647D01*
X3421000Y136940D01*
D02*
G37*
G36*
X3435959Y102279D02*
X3434489Y101986D01*
X3433241Y101153D01*
X3432408Y99906D01*
X3432115Y98435D01*
X3432408Y96964D01*
X3433241Y95717D01*
X3434489Y94883D01*
X3435959Y94591D01*
X3437430Y94883D01*
X3438677Y95717D01*
X3439510Y96964D01*
X3439803Y98435D01*
X3439510Y99906D01*
X3438677Y101153D01*
X3437430Y101986D01*
X3435959Y102279D01*
D02*
G37*
G36*
X3447262Y98725D02*
X3445791Y98433D01*
X3444544Y97599D01*
X3443711Y96353D01*
X3443418Y94881D01*
X3443711Y93411D01*
X3444544Y92163D01*
X3445791Y91330D01*
X3447262Y91038D01*
X3448733Y91330D01*
X3449980Y92163D01*
X3450813Y93411D01*
X3451106Y94881D01*
X3450813Y96353D01*
X3449980Y97599D01*
X3448733Y98433D01*
X3447262Y98725D01*
D02*
G37*
G36*
X3426000Y99506D02*
X3424529Y99213D01*
X3423282Y98380D01*
X3422449Y97133D01*
X3422156Y95662D01*
X3422449Y94191D01*
X3423282Y92944D01*
X3424529Y92111D01*
X3426000Y91818D01*
X3426630Y91944D01*
X3427449Y90883D01*
X3427156Y89412D01*
X3427449Y87941D01*
X3428282Y86694D01*
X3429529Y85861D01*
X3431000Y85568D01*
X3432471Y85861D01*
X3433718Y86694D01*
X3434551Y87941D01*
X3434844Y89412D01*
X3434551Y90883D01*
X3433718Y92130D01*
X3432471Y92963D01*
X3431000Y93256D01*
X3430370Y93131D01*
X3429551Y94191D01*
X3429844Y95662D01*
X3429551Y97133D01*
X3428718Y98380D01*
X3427471Y99213D01*
X3426000Y99506D01*
D02*
G37*
G36*
X3400500Y91388D02*
X3399029Y91095D01*
X3397782Y90262D01*
X3396949Y89015D01*
X3396656Y87544D01*
X3396949Y86073D01*
X3397782Y84826D01*
X3399029Y83993D01*
X3400500Y83700D01*
X3401971Y83993D01*
X3403218Y84826D01*
X3404051Y86073D01*
X3404344Y87544D01*
X3404051Y89015D01*
X3403218Y90262D01*
X3401971Y91095D01*
X3400500Y91388D01*
D02*
G37*
G36*
X3456112Y77206D02*
X3454641Y76913D01*
X3453394Y76080D01*
X3452560Y74833D01*
X3452268Y73362D01*
X3452560Y71891D01*
X3453394Y70644D01*
X3454641Y69811D01*
X3456112Y69518D01*
X3457583Y69811D01*
X3458830Y70644D01*
X3459663Y71891D01*
X3459955Y73362D01*
X3459663Y74833D01*
X3458830Y76080D01*
X3457583Y76913D01*
X3456112Y77206D01*
D02*
G37*
G36*
X3415866Y73000D02*
X3414395Y72707D01*
X3413148Y71874D01*
X3412315Y70627D01*
X3412022Y69156D01*
X3412315Y67685D01*
X3413148Y66438D01*
X3414395Y65605D01*
X3415866Y65312D01*
X3417337Y65605D01*
X3418584Y66438D01*
X3419417Y67685D01*
X3419710Y69156D01*
X3419417Y70627D01*
X3418584Y71874D01*
X3417337Y72707D01*
X3415866Y73000D01*
D02*
G37*
G36*
X1569489Y61375D02*
X1567519D01*
X1567389Y61321D01*
X1567251Y61348D01*
X1565319Y60964D01*
X1565202Y60886D01*
X1565061D01*
X1563241Y60132D01*
X1563141Y60032D01*
X1563003Y60005D01*
X1561365Y58910D01*
X1561287Y58794D01*
X1561157Y58740D01*
X1559764Y57347D01*
X1559710Y57217D01*
X1559593Y57138D01*
X1558499Y55500D01*
X1558471Y55362D01*
X1558372Y55263D01*
X1557618Y53443D01*
Y53302D01*
X1557540Y53185D01*
X1557482Y52897D01*
X1557477Y52884D01*
X1557471Y52841D01*
X1557155Y51253D01*
X1557183Y51115D01*
X1557129Y50985D01*
Y50241D01*
X1557087Y49924D01*
X1557129Y49608D01*
Y49015D01*
X1557183Y48885D01*
X1557155Y48747D01*
X1557413Y47455D01*
X1557477Y46965D01*
X1557618Y46625D01*
Y46557D01*
X1558372Y44737D01*
X1558420Y44689D01*
X1558619Y44208D01*
X1559196Y43456D01*
X1559593Y42862D01*
X1559710Y42783D01*
X1559764Y42653D01*
X1559970Y42448D01*
X1560436Y41840D01*
X1561044Y41374D01*
X1561157Y41260D01*
X1561232Y41230D01*
X1561314Y41167D01*
X1561365Y41090D01*
X1561743Y40837D01*
X1562804Y40023D01*
X1565561Y38881D01*
X1567147Y38672D01*
X1567251Y38652D01*
X1567272Y38656D01*
X1568520Y38492D01*
X1569749Y38653D01*
X1569757Y38652D01*
X1569796Y38660D01*
X1571479Y38881D01*
X1574237Y40023D01*
X1575519Y41007D01*
X1575642Y41090D01*
X1575659Y41115D01*
X1575847Y41259D01*
X1575850Y41260D01*
X1575855Y41265D01*
X1576604Y41840D01*
X1577179Y42590D01*
X1577243Y42653D01*
X1577261Y42695D01*
X1577361Y42826D01*
X1577414Y42862D01*
X1577589Y43124D01*
X1578421Y44208D01*
X1579563Y46965D01*
X1579692Y47944D01*
X1579852Y48747D01*
X1579825Y48885D01*
X1579878Y49015D01*
Y49358D01*
X1579953Y49924D01*
X1579878Y50491D01*
Y50985D01*
X1579825Y51115D01*
X1579852Y51253D01*
X1579633Y52352D01*
X1579563Y52884D01*
X1579495Y53050D01*
X1579468Y53185D01*
X1579391Y53300D01*
X1579389Y53304D01*
Y53443D01*
X1578636Y55263D01*
X1578537Y55361D01*
X1578536Y55365D01*
X1578509Y55500D01*
X1578432Y55615D01*
X1578421Y55641D01*
X1578371Y55706D01*
X1577414Y57138D01*
X1577297Y57217D01*
X1577243Y57347D01*
X1576681Y57909D01*
X1576604Y58009D01*
X1576505Y58085D01*
X1575850Y58740D01*
X1575720Y58794D01*
X1575642Y58910D01*
X1574004Y60005D01*
X1573866Y60032D01*
X1573767Y60132D01*
X1571947Y60886D01*
X1571806D01*
X1571689Y60964D01*
X1569757Y61348D01*
X1569619Y61321D01*
X1569489Y61375D01*
D02*
G37*
G36*
X3044500Y61433D02*
X3044058Y61375D01*
X3043515D01*
X3043385Y61321D01*
X3043247Y61348D01*
X3042052Y61111D01*
X3041541Y61043D01*
X3041382Y60977D01*
X3041315Y60964D01*
X3041259Y60926D01*
X3041161Y60886D01*
X3041057D01*
X3039237Y60132D01*
X3039164Y60059D01*
X3039066Y60018D01*
X3039000Y60005D01*
X3038943Y59967D01*
X3038784Y59901D01*
X3038375Y59587D01*
X3037361Y58910D01*
X3037283Y58793D01*
X3037153Y58740D01*
X3036769Y58356D01*
X3036416Y58084D01*
X3036144Y57731D01*
X3035760Y57347D01*
X3035706Y57217D01*
X3035590Y57138D01*
X3034912Y56125D01*
X3034599Y55716D01*
X3034533Y55557D01*
X3034495Y55500D01*
X3034482Y55434D01*
X3034441Y55336D01*
X3034368Y55263D01*
X3033614Y53443D01*
Y53339D01*
X3033574Y53242D01*
X3033536Y53185D01*
X3033523Y53119D01*
X3033457Y52959D01*
X3033390Y52448D01*
X3033152Y51253D01*
X3033179Y51115D01*
X3033125Y50985D01*
Y50442D01*
X3033067Y50000D01*
X3033125Y49558D01*
Y49015D01*
X3033179Y48885D01*
X3033152Y48747D01*
X3033390Y47551D01*
X3033457Y47041D01*
X3033523Y46881D01*
X3033536Y46815D01*
X3033574Y46758D01*
X3033614Y46661D01*
Y46557D01*
X3034368Y44737D01*
X3034442Y44664D01*
X3034482Y44566D01*
X3034495Y44500D01*
X3034533Y44443D01*
X3034599Y44284D01*
X3034912Y43875D01*
X3035590Y42862D01*
X3035706Y42783D01*
X3035760Y42653D01*
X3036144Y42269D01*
X3036416Y41916D01*
X3036769Y41645D01*
X3037153Y41260D01*
X3037283Y41206D01*
X3037361Y41090D01*
X3038375Y40412D01*
X3038784Y40099D01*
X3038943Y40033D01*
X3039000Y39995D01*
X3039066Y39982D01*
X3039164Y39941D01*
X3039237Y39868D01*
X3041057Y39114D01*
X3041161D01*
X3041259Y39074D01*
X3041315Y39036D01*
X3041382Y39023D01*
X3041541Y38957D01*
X3042051Y38890D01*
X3043247Y38652D01*
X3043385Y38679D01*
X3043515Y38625D01*
X3044058D01*
X3044500Y38567D01*
X3044942Y38625D01*
X3045485D01*
X3045615Y38679D01*
X3045753Y38652D01*
X3046949Y38890D01*
X3047459Y38957D01*
X3047618Y39023D01*
X3047685Y39036D01*
X3047741Y39074D01*
X3047839Y39114D01*
X3047943D01*
X3049763Y39868D01*
X3049836Y39941D01*
X3049934Y39982D01*
X3050001Y39995D01*
X3050057Y40033D01*
X3050216Y40099D01*
X3050625Y40413D01*
X3051638Y41090D01*
X3051717Y41207D01*
X3051847Y41260D01*
X3052231Y41644D01*
X3052584Y41916D01*
X3052856Y42269D01*
X3053239Y42653D01*
X3053293Y42783D01*
X3053411Y42862D01*
X3054088Y43875D01*
X3054401Y44284D01*
X3054467Y44443D01*
X3054505Y44500D01*
X3054518Y44566D01*
X3054559Y44664D01*
X3054632Y44737D01*
X3055386Y46557D01*
Y46661D01*
X3055426Y46759D01*
X3055464Y46815D01*
X3055477Y46881D01*
X3055543Y47041D01*
X3055610Y47552D01*
X3055848Y48747D01*
X3055821Y48885D01*
X3055875Y49015D01*
Y49558D01*
X3055933Y50000D01*
X3055875Y50442D01*
Y50985D01*
X3055821Y51115D01*
X3055848Y51253D01*
X3055610Y52448D01*
X3055543Y52959D01*
X3055477Y53119D01*
X3055464Y53185D01*
X3055426Y53241D01*
X3055386Y53339D01*
Y53443D01*
X3054632Y55263D01*
X3054559Y55336D01*
X3054518Y55434D01*
X3054505Y55500D01*
X3054467Y55557D01*
X3054401Y55716D01*
X3054087Y56125D01*
X3053411Y57138D01*
X3053293Y57217D01*
X3053239Y57347D01*
X3052856Y57730D01*
X3052584Y58084D01*
X3052231Y58356D01*
X3051847Y58740D01*
X3051717Y58793D01*
X3051638Y58910D01*
X3050625Y59587D01*
X3050216Y59901D01*
X3050057Y59967D01*
X3050001Y60005D01*
X3049934Y60018D01*
X3049836Y60059D01*
X3049763Y60132D01*
X3047943Y60886D01*
X3047839D01*
X3047741Y60926D01*
X3047685Y60964D01*
X3047619Y60977D01*
X3047459Y61043D01*
X3046948Y61111D01*
X3045753Y61348D01*
X3045615Y61321D01*
X3045485Y61375D01*
X3044942D01*
X3044500Y61433D01*
D02*
G37*
G36*
X812500D02*
X812058Y61375D01*
X811515D01*
X811385Y61321D01*
X811247Y61348D01*
X810052Y61111D01*
X809541Y61043D01*
X809381Y60977D01*
X809315Y60964D01*
X809258Y60926D01*
X809161Y60886D01*
X809057D01*
X807237Y60132D01*
X807164Y60059D01*
X807066Y60018D01*
X807000Y60005D01*
X806943Y59967D01*
X806784Y59901D01*
X806375Y59587D01*
X805362Y58910D01*
X805283Y58793D01*
X805153Y58740D01*
X804769Y58356D01*
X804416Y58084D01*
X804144Y57731D01*
X803760Y57347D01*
X803707Y57217D01*
X803589Y57138D01*
X802913Y56125D01*
X802599Y55716D01*
X802533Y55557D01*
X802495Y55500D01*
X802482Y55434D01*
X802441Y55336D01*
X802368Y55263D01*
X801614Y53443D01*
Y53339D01*
X801574Y53242D01*
X801536Y53185D01*
X801523Y53119D01*
X801457Y52959D01*
X801389Y52448D01*
X801152Y51253D01*
X801179Y51115D01*
X801125Y50985D01*
Y50442D01*
X801067Y50000D01*
X801125Y49558D01*
Y49015D01*
X801179Y48885D01*
X801152Y48747D01*
X801389Y47551D01*
X801457Y47041D01*
X801523Y46881D01*
X801536Y46815D01*
X801574Y46758D01*
X801614Y46661D01*
Y46557D01*
X802368Y44737D01*
X802441Y44664D01*
X802482Y44566D01*
X802495Y44500D01*
X802533Y44443D01*
X802599Y44284D01*
X802912Y43875D01*
X803589Y42862D01*
X803707Y42783D01*
X803760Y42653D01*
X804145Y42269D01*
X804416Y41916D01*
X804769Y41645D01*
X805153Y41260D01*
X805283Y41206D01*
X805362Y41090D01*
X806375Y40412D01*
X806784Y40099D01*
X806943Y40033D01*
X807000Y39995D01*
X807066Y39982D01*
X807164Y39941D01*
X807237Y39868D01*
X809057Y39114D01*
X809161D01*
X809258Y39074D01*
X809315Y39036D01*
X809381Y39023D01*
X809541Y38957D01*
X810051Y38890D01*
X811247Y38652D01*
X811385Y38679D01*
X811515Y38625D01*
X812058D01*
X812500Y38567D01*
X812942Y38625D01*
X813485D01*
X813615Y38679D01*
X813753Y38652D01*
X814948Y38890D01*
X815459Y38957D01*
X815619Y39023D01*
X815685Y39036D01*
X815742Y39074D01*
X815839Y39114D01*
X815943D01*
X817763Y39868D01*
X817836Y39941D01*
X817934Y39982D01*
X818000Y39995D01*
X818057Y40033D01*
X818216Y40099D01*
X818625Y40413D01*
X819638Y41090D01*
X819717Y41207D01*
X819847Y41260D01*
X820231Y41644D01*
X820584Y41916D01*
X820856Y42269D01*
X821239Y42653D01*
X821293Y42783D01*
X821411Y42862D01*
X822087Y43875D01*
X822401Y44284D01*
X822467Y44443D01*
X822505Y44500D01*
X822518Y44566D01*
X822559Y44664D01*
X822632Y44737D01*
X823386Y46557D01*
Y46661D01*
X823426Y46759D01*
X823464Y46815D01*
X823477Y46881D01*
X823543Y47041D01*
X823611Y47552D01*
X823848Y48747D01*
X823821Y48885D01*
X823875Y49015D01*
Y49558D01*
X823933Y50000D01*
X823875Y50442D01*
Y50985D01*
X823821Y51115D01*
X823848Y51253D01*
X823611Y52448D01*
X823543Y52959D01*
X823477Y53119D01*
X823464Y53185D01*
X823426Y53241D01*
X823386Y53339D01*
Y53443D01*
X822632Y55263D01*
X822559Y55336D01*
X822518Y55434D01*
X822505Y55500D01*
X822467Y55557D01*
X822401Y55716D01*
X822087Y56125D01*
X821411Y57138D01*
X821293Y57217D01*
X821239Y57347D01*
X820856Y57730D01*
X820584Y58084D01*
X820230Y58356D01*
X819847Y58740D01*
X819716Y58793D01*
X819638Y58910D01*
X818625Y59587D01*
X818216Y59901D01*
X818057Y59967D01*
X818000Y60005D01*
X817934Y60018D01*
X817836Y60059D01*
X817763Y60132D01*
X815943Y60886D01*
X815839D01*
X815741Y60926D01*
X815685Y60964D01*
X815619Y60977D01*
X815459Y61043D01*
X814948Y61111D01*
X813753Y61348D01*
X813615Y61321D01*
X813485Y61375D01*
X812942D01*
X812500Y61433D01*
D02*
G37*
G36*
X3800500D02*
X3800058Y61375D01*
X3799515D01*
X3799385Y61321D01*
X3799247Y61348D01*
X3798052Y61111D01*
X3797541Y61043D01*
X3797381Y60977D01*
X3797315Y60964D01*
X3797259Y60926D01*
X3797161Y60886D01*
X3797057D01*
X3795237Y60132D01*
X3795164Y60059D01*
X3795066Y60018D01*
X3794999Y60005D01*
X3794943Y59967D01*
X3794784Y59901D01*
X3794375Y59588D01*
X3793362Y58910D01*
X3793283Y58793D01*
X3793153Y58740D01*
X3792769Y58356D01*
X3792416Y58084D01*
X3792144Y57731D01*
X3791760Y57347D01*
X3791707Y57217D01*
X3791589Y57138D01*
X3790912Y56125D01*
X3790599Y55716D01*
X3790533Y55557D01*
X3790495Y55500D01*
X3790482Y55434D01*
X3790441Y55336D01*
X3790368Y55263D01*
X3789614Y53443D01*
Y53339D01*
X3789574Y53242D01*
X3789536Y53185D01*
X3789523Y53119D01*
X3789457Y52959D01*
X3789390Y52448D01*
X3789152Y51253D01*
X3789179Y51115D01*
X3789125Y50985D01*
Y50442D01*
X3789067Y50000D01*
X3789125Y49558D01*
Y49015D01*
X3789179Y48885D01*
X3789152Y48747D01*
X3789390Y47551D01*
X3789457Y47041D01*
X3789523Y46881D01*
X3789536Y46815D01*
X3789574Y46758D01*
X3789614Y46661D01*
Y46557D01*
X3790368Y44737D01*
X3790441Y44664D01*
X3790482Y44566D01*
X3790495Y44500D01*
X3790533Y44443D01*
X3790599Y44284D01*
X3790912Y43875D01*
X3791589Y42862D01*
X3791707Y42783D01*
X3791760Y42653D01*
X3792144Y42269D01*
X3792416Y41916D01*
X3792769Y41645D01*
X3793153Y41260D01*
X3793283Y41206D01*
X3793362Y41090D01*
X3794375Y40412D01*
X3794784Y40099D01*
X3794943Y40033D01*
X3794999Y39995D01*
X3795066Y39982D01*
X3795164Y39941D01*
X3795237Y39868D01*
X3797057Y39114D01*
X3797161D01*
X3797258Y39074D01*
X3797315Y39036D01*
X3797382Y39023D01*
X3797541Y38957D01*
X3798051Y38890D01*
X3799247Y38652D01*
X3799385Y38679D01*
X3799515Y38625D01*
X3800058D01*
X3800500Y38567D01*
X3800942Y38625D01*
X3801485D01*
X3801615Y38679D01*
X3801753Y38652D01*
X3802948Y38890D01*
X3803459Y38957D01*
X3803618Y39023D01*
X3803685Y39036D01*
X3803741Y39074D01*
X3803839Y39114D01*
X3803943D01*
X3805763Y39868D01*
X3805836Y39941D01*
X3805934Y39982D01*
X3806000Y39995D01*
X3806057Y40033D01*
X3806216Y40099D01*
X3806625Y40412D01*
X3807638Y41090D01*
X3807717Y41207D01*
X3807847Y41260D01*
X3808231Y41644D01*
X3808584Y41916D01*
X3808856Y42269D01*
X3809240Y42653D01*
X3809294Y42783D01*
X3809410Y42862D01*
X3810088Y43875D01*
X3810401Y44284D01*
X3810467Y44443D01*
X3810505Y44500D01*
X3810518Y44566D01*
X3810559Y44664D01*
X3810632Y44737D01*
X3811386Y46557D01*
Y46661D01*
X3811426Y46759D01*
X3811464Y46815D01*
X3811477Y46881D01*
X3811543Y47041D01*
X3811610Y47552D01*
X3811848Y48747D01*
X3811821Y48885D01*
X3811875Y49015D01*
Y49558D01*
X3811933Y50000D01*
X3811875Y50442D01*
Y50985D01*
X3811821Y51115D01*
X3811848Y51253D01*
X3811610Y52448D01*
X3811543Y52959D01*
X3811477Y53119D01*
X3811464Y53185D01*
X3811426Y53241D01*
X3811386Y53339D01*
Y53443D01*
X3810632Y55263D01*
X3810559Y55336D01*
X3810518Y55434D01*
X3810505Y55500D01*
X3810467Y55557D01*
X3810401Y55716D01*
X3810087Y56125D01*
X3809410Y57138D01*
X3809294Y57217D01*
X3809240Y57347D01*
X3808856Y57730D01*
X3808584Y58084D01*
X3808231Y58356D01*
X3807847Y58740D01*
X3807716Y58793D01*
X3807638Y58910D01*
X3806625Y59587D01*
X3806216Y59901D01*
X3806057Y59967D01*
X3806000Y60005D01*
X3805934Y60018D01*
X3805836Y60059D01*
X3805763Y60132D01*
X3803943Y60886D01*
X3803839D01*
X3803741Y60926D01*
X3803685Y60964D01*
X3803618Y60977D01*
X3803459Y61043D01*
X3802948Y61111D01*
X3801753Y61348D01*
X3801615Y61321D01*
X3801485Y61375D01*
X3800942D01*
X3800500Y61433D01*
D02*
G37*
G36*
X3406250Y68152D02*
X3404779Y67860D01*
X3403532Y67027D01*
X3402699Y65780D01*
X3402406Y64309D01*
X3402699Y62838D01*
X3403532Y61591D01*
X3404779Y60757D01*
X3406250Y60465D01*
X3407721Y60757D01*
X3408968Y61591D01*
X3409801Y62838D01*
X3410094Y64309D01*
X3409801Y65780D01*
X3408968Y67027D01*
X3407721Y67860D01*
X3406250Y68152D01*
D02*
G37*
G36*
X662690Y62581D02*
Y59770D01*
X665500D01*
X665423Y60158D01*
X664484Y61564D01*
X663078Y62503D01*
X662690Y62581D01*
D02*
G37*
G36*
X660150D02*
X659762Y62503D01*
X658356Y61564D01*
X657416Y60158D01*
X657339Y59770D01*
X660150D01*
Y62581D01*
D02*
G37*
G36*
X651690D02*
Y59770D01*
X654500D01*
X654423Y60158D01*
X653484Y61564D01*
X652078Y62503D01*
X651690Y62581D01*
D02*
G37*
G36*
X649150D02*
X648762Y62503D01*
X647356Y61564D01*
X646416Y60158D01*
X646339Y59770D01*
X649150D01*
Y62581D01*
D02*
G37*
G36*
X2290411Y66074D02*
X2288940Y65781D01*
X2287693Y64948D01*
X2286859Y63701D01*
X2286567Y62230D01*
X2286859Y60759D01*
X2287693Y59512D01*
X2288940Y58679D01*
X2290411Y58386D01*
X2291882Y58679D01*
X2293129Y59512D01*
X2293962Y60759D01*
X2294254Y62230D01*
X2293962Y63701D01*
X2293129Y64948D01*
X2291882Y65781D01*
X2290411Y66074D01*
D02*
G37*
G36*
X3971450Y60263D02*
Y57452D01*
X3974260D01*
X3974183Y57840D01*
X3973244Y59246D01*
X3971838Y60185D01*
X3971450Y60263D01*
D02*
G37*
G36*
X3968910Y60263D02*
X3968522Y60185D01*
X3967116Y59246D01*
X3966176Y57840D01*
X3966099Y57452D01*
X3968910D01*
Y60263D01*
D02*
G37*
G36*
X3982450Y60263D02*
Y57452D01*
X3985260D01*
X3985183Y57840D01*
X3984244Y59246D01*
X3982838Y60185D01*
X3982450Y60263D01*
D02*
G37*
G36*
X3979910Y60263D02*
X3979521Y60185D01*
X3978116Y59246D01*
X3977177Y57840D01*
X3977099Y57452D01*
X3979910D01*
Y60263D01*
D02*
G37*
G36*
X2615790Y65080D02*
X2614319Y64788D01*
X2613072Y63954D01*
X2612238Y62707D01*
X2611946Y61236D01*
X2612238Y59765D01*
X2613072Y58518D01*
X2614319Y57685D01*
X2615790Y57392D01*
X2617261Y57685D01*
X2618508Y58518D01*
X2619341Y59765D01*
X2619633Y61236D01*
X2619341Y62707D01*
X2618508Y63954D01*
X2617261Y64788D01*
X2615790Y65080D01*
D02*
G37*
G36*
X1977696Y64099D02*
X1976127Y63787D01*
X1974798Y62898D01*
X1973909Y61568D01*
X1973597Y60000D01*
X1973909Y58431D01*
X1974798Y57102D01*
X1976127Y56213D01*
X1977696Y55901D01*
X1979265Y56213D01*
X1980594Y57102D01*
X1981483Y58431D01*
X1981795Y60000D01*
X1981483Y61568D01*
X1980594Y62898D01*
X1979265Y63787D01*
X1977696Y64099D01*
D02*
G37*
G36*
X3435749Y62921D02*
X3434278Y62628D01*
X3433031Y61795D01*
X3432198Y60548D01*
X3431905Y59077D01*
X3432198Y57606D01*
X3433031Y56359D01*
X3434278Y55525D01*
X3435749Y55233D01*
X3437220Y55525D01*
X3438467Y56359D01*
X3439300Y57606D01*
X3439593Y59077D01*
X3439300Y60548D01*
X3438467Y61795D01*
X3437220Y62628D01*
X3435749Y62921D01*
D02*
G37*
G36*
X786420Y62344D02*
X784949Y62051D01*
X783702Y61218D01*
X782868Y59971D01*
X782576Y58500D01*
X782868Y57029D01*
X783702Y55782D01*
X784949Y54949D01*
X786420Y54656D01*
X787891Y54949D01*
X789138Y55782D01*
X789971Y57029D01*
X790264Y58500D01*
X789971Y59971D01*
X789138Y61218D01*
X787891Y62051D01*
X786420Y62344D01*
D02*
G37*
G36*
X2018747Y62177D02*
X2017276Y61884D01*
X2016029Y61051D01*
X2015195Y59804D01*
X2014903Y58333D01*
X2015195Y56862D01*
X2016029Y55615D01*
X2017276Y54782D01*
X2018747Y54489D01*
X2020218Y54782D01*
X2021465Y55615D01*
X2022298Y56862D01*
X2022590Y58333D01*
X2022298Y59804D01*
X2021465Y61051D01*
X2020218Y61884D01*
X2018747Y62177D01*
D02*
G37*
G36*
X665500Y57230D02*
X662690D01*
Y54419D01*
X663078Y54497D01*
X664484Y55436D01*
X665423Y56842D01*
X665500Y57230D01*
D02*
G37*
G36*
X660150D02*
X657339D01*
X657416Y56842D01*
X658356Y55436D01*
X659762Y54497D01*
X660150Y54419D01*
Y57230D01*
D02*
G37*
G36*
X654500D02*
X651690D01*
Y54419D01*
X652078Y54497D01*
X653484Y55436D01*
X654423Y56842D01*
X654500Y57230D01*
D02*
G37*
G36*
X649150D02*
X646339D01*
X646416Y56842D01*
X647356Y55436D01*
X648762Y54497D01*
X649150Y54419D01*
Y57230D01*
D02*
G37*
G36*
X3761593Y61344D02*
X3760122Y61051D01*
X3758875Y60218D01*
X3758042Y58971D01*
X3757749Y57500D01*
X3758042Y56029D01*
X3758875Y54782D01*
X3760122Y53949D01*
X3761593Y53656D01*
X3763064Y53949D01*
X3764311Y54782D01*
X3765144Y56029D01*
X3765437Y57500D01*
X3765144Y58971D01*
X3764311Y60218D01*
X3763064Y61051D01*
X3761593Y61344D01*
D02*
G37*
G36*
X2183819Y61248D02*
X2182348Y60955D01*
X2181101Y60122D01*
X2180267Y58875D01*
X2179975Y57404D01*
X2180267Y55933D01*
X2181101Y54686D01*
X2182348Y53853D01*
X2183819Y53560D01*
X2185290Y53853D01*
X2186537Y54686D01*
X2187370Y55933D01*
X2187663Y57404D01*
X2187370Y58875D01*
X2186537Y60122D01*
X2185290Y60955D01*
X2183819Y61248D01*
D02*
G37*
G36*
X1529685Y60915D02*
X1528214Y60622D01*
X1526967Y59789D01*
X1526134Y58542D01*
X1525841Y57071D01*
X1526134Y55600D01*
X1526967Y54353D01*
X1528214Y53520D01*
X1529685Y53227D01*
X1531156Y53520D01*
X1532403Y54353D01*
X1533237Y55600D01*
X1533529Y57071D01*
X1533237Y58542D01*
X1532403Y59789D01*
X1531156Y60622D01*
X1529685Y60915D01*
D02*
G37*
G36*
X2810209Y60318D02*
X2808738Y60026D01*
X2807491Y59192D01*
X2806658Y57945D01*
X2806365Y56474D01*
X2806658Y55003D01*
X2807491Y53756D01*
X2808738Y52923D01*
X2810209Y52630D01*
X2811680Y52923D01*
X2812927Y53756D01*
X2813760Y55003D01*
X2814053Y56474D01*
X2813760Y57945D01*
X2812927Y59192D01*
X2811680Y60026D01*
X2810209Y60318D01*
D02*
G37*
G36*
X4127869Y60210D02*
X4126398Y59917D01*
X4125151Y59084D01*
X4124318Y57837D01*
X4124025Y56366D01*
X4124318Y54895D01*
X4125151Y53648D01*
X4126398Y52814D01*
X4127869Y52522D01*
X4129340Y52814D01*
X4130217Y53400D01*
X4131702Y53464D01*
X4132949Y52631D01*
X4134420Y52338D01*
X4135891Y52631D01*
X4137138Y53464D01*
X4137971Y54711D01*
X4138264Y56182D01*
X4137971Y57653D01*
X4137138Y58900D01*
X4135891Y59733D01*
X4134420Y60026D01*
X4132949Y59733D01*
X4132072Y59147D01*
X4130587Y59084D01*
X4129340Y59917D01*
X4127869Y60210D01*
D02*
G37*
G36*
X3968910Y54912D02*
X3966099D01*
X3966176Y54524D01*
X3967116Y53118D01*
X3968522Y52179D01*
X3968910Y52101D01*
Y54912D01*
D02*
G37*
G36*
X3979910Y54912D02*
X3977099D01*
X3977177Y54524D01*
X3978116Y53118D01*
X3979521Y52179D01*
X3979910Y52101D01*
Y54912D01*
D02*
G37*
G36*
X3985261D02*
X3982450D01*
Y52101D01*
X3982838Y52179D01*
X3984244Y53118D01*
X3985183Y54524D01*
X3985261Y54912D01*
D02*
G37*
G36*
X3974261Y54912D02*
X3971450D01*
Y52101D01*
X3971838Y52179D01*
X3973244Y53118D01*
X3974183Y54524D01*
X3974261Y54912D01*
D02*
G37*
G36*
X1930190Y54451D02*
Y51640D01*
X1933000D01*
X1932923Y52028D01*
X1931984Y53434D01*
X1930578Y54373D01*
X1930190Y54451D01*
D02*
G37*
G36*
X1927650D02*
X1927262Y54373D01*
X1925856Y53434D01*
X1924916Y52028D01*
X1924839Y51640D01*
X1927650D01*
Y54451D01*
D02*
G37*
G36*
X1919190D02*
Y51640D01*
X1922000D01*
X1921923Y52028D01*
X1920984Y53434D01*
X1919578Y54373D01*
X1919190Y54451D01*
D02*
G37*
G36*
X1916650D02*
X1916261Y54373D01*
X1914856Y53434D01*
X1913916Y52028D01*
X1913839Y51640D01*
X1916650D01*
Y54451D01*
D02*
G37*
G36*
X3825393Y58854D02*
X3823923Y58562D01*
X3822675Y57728D01*
X3821842Y56481D01*
X3821550Y55010D01*
X3821842Y53539D01*
X3822675Y52292D01*
X3823923Y51459D01*
X3825393Y51167D01*
X3826865Y51459D01*
X3828112Y52292D01*
X3828945Y53539D01*
X3829237Y55010D01*
X3828945Y56481D01*
X3828112Y57728D01*
X3826865Y58562D01*
X3825393Y58854D01*
D02*
G37*
G36*
X2830006Y58708D02*
X2828535Y58415D01*
X2827288Y57582D01*
X2826455Y56335D01*
X2826162Y54864D01*
X2826455Y53393D01*
X2827288Y52146D01*
X2828535Y51313D01*
X2830006Y51020D01*
X2831477Y51313D01*
X2832724Y52146D01*
X2833557Y53393D01*
X2833850Y54864D01*
X2833557Y56335D01*
X2832724Y57582D01*
X2831477Y58415D01*
X2830006Y58708D01*
D02*
G37*
G36*
X3495920Y58581D02*
X3494449Y58288D01*
X3493202Y57455D01*
X3492368Y56208D01*
X3492076Y54737D01*
X3492368Y53266D01*
X3493202Y52019D01*
X3494449Y51185D01*
X3495920Y50893D01*
X3497391Y51185D01*
X3498638Y52019D01*
X3499471Y53266D01*
X3499763Y54737D01*
X3499471Y56208D01*
X3498638Y57455D01*
X3497391Y58288D01*
X3495920Y58581D01*
D02*
G37*
G36*
X3101499D02*
X3100027Y58288D01*
X3098781Y57455D01*
X3097947Y56208D01*
X3097655Y54737D01*
X3097947Y53266D01*
X3098781Y52019D01*
X3100027Y51185D01*
X3101499Y50893D01*
X3102970Y51185D01*
X3104217Y52019D01*
X3105050Y53266D01*
X3105342Y54737D01*
X3105050Y56208D01*
X3104217Y57455D01*
X3102970Y58288D01*
X3101499Y58581D01*
D02*
G37*
G36*
X3579827Y58454D02*
X3578356Y58161D01*
X3577108Y57328D01*
X3576275Y56081D01*
X3575983Y54610D01*
X3576275Y53139D01*
X3577108Y51892D01*
X3578356Y51059D01*
X3579827Y50766D01*
X3581298Y51059D01*
X3582545Y51892D01*
X3583378Y53139D01*
X3583670Y54610D01*
X3583378Y56081D01*
X3582545Y57328D01*
X3581298Y58161D01*
X3579827Y58454D01*
D02*
G37*
G36*
X3348252D02*
X3346781Y58161D01*
X3345534Y57328D01*
X3344701Y56081D01*
X3344408Y54610D01*
X3344701Y53139D01*
X3345534Y51892D01*
X3346781Y51059D01*
X3348252Y50766D01*
X3349723Y51059D01*
X3350970Y51892D01*
X3351804Y53139D01*
X3352096Y54610D01*
X3351804Y56081D01*
X3350970Y57328D01*
X3349723Y58161D01*
X3348252Y58454D01*
D02*
G37*
G36*
X3739000Y58448D02*
X3737529Y58155D01*
X3736282Y57322D01*
X3735449Y56075D01*
X3735156Y54604D01*
X3735449Y53133D01*
X3736282Y51886D01*
X3737529Y51053D01*
X3739000Y50760D01*
X3740471Y51053D01*
X3741718Y51886D01*
X3742551Y53133D01*
X3742844Y54604D01*
X3742551Y56075D01*
X3741718Y57322D01*
X3740471Y58155D01*
X3739000Y58448D01*
D02*
G37*
G36*
X2785270Y58189D02*
X2783799Y57897D01*
X2782552Y57063D01*
X2781718Y55816D01*
X2781426Y54345D01*
X2781718Y52874D01*
X2782552Y51627D01*
X2783799Y50794D01*
X2785270Y50502D01*
X2786741Y50794D01*
X2787988Y51627D01*
X2788821Y52874D01*
X2789113Y54345D01*
X2788821Y55816D01*
X2787988Y57063D01*
X2786741Y57897D01*
X2785270Y58189D01*
D02*
G37*
G36*
X2217319Y57946D02*
X2215849Y57653D01*
X2214601Y56820D01*
X2213768Y55573D01*
X2213476Y54102D01*
X2213768Y52631D01*
X2214601Y51384D01*
X2215849Y50551D01*
X2217319Y50258D01*
X2218790Y50551D01*
X2220038Y51384D01*
X2220871Y52631D01*
X2221163Y54102D01*
X2220871Y55573D01*
X2220038Y56820D01*
X2218790Y57653D01*
X2217319Y57946D01*
D02*
G37*
G36*
X2171614D02*
X2170143Y57653D01*
X2168896Y56820D01*
X2168063Y55573D01*
X2167770Y54102D01*
X2168063Y52631D01*
X2168896Y51384D01*
X2170143Y50551D01*
X2171614Y50258D01*
X2173085Y50551D01*
X2174332Y51384D01*
X2175166Y52631D01*
X2175458Y54102D01*
X2175166Y55573D01*
X2174332Y56820D01*
X2173085Y57653D01*
X2171614Y57946D01*
D02*
G37*
G36*
X2136829Y57614D02*
X2135358Y57321D01*
X2134111Y56488D01*
X2133277Y55241D01*
X2132985Y53770D01*
X2133277Y52299D01*
X2134111Y51052D01*
X2135358Y50219D01*
X2136829Y49926D01*
X2138300Y50219D01*
X2139547Y51052D01*
X2140380Y52299D01*
X2140673Y53770D01*
X2140380Y55241D01*
X2139547Y56488D01*
X2138300Y57321D01*
X2136829Y57614D01*
D02*
G37*
G36*
X2081970D02*
X2080499Y57321D01*
X2079252Y56488D01*
X2078419Y55241D01*
X2078126Y53770D01*
X2078419Y52299D01*
X2079252Y51052D01*
X2080499Y50219D01*
X2081970Y49926D01*
X2083441Y50219D01*
X2084688Y51052D01*
X2085521Y52299D01*
X2085814Y53770D01*
X2085521Y55241D01*
X2084688Y56488D01*
X2083441Y57321D01*
X2081970Y57614D01*
D02*
G37*
G36*
X662690Y51581D02*
Y48770D01*
X665500D01*
X665423Y49158D01*
X664484Y50564D01*
X663078Y51504D01*
X662690Y51581D01*
D02*
G37*
G36*
X660150D02*
X659762Y51504D01*
X658356Y50564D01*
X657416Y49158D01*
X657339Y48770D01*
X660150D01*
Y51581D01*
D02*
G37*
G36*
X651690D02*
Y48770D01*
X654500D01*
X654423Y49158D01*
X653484Y50564D01*
X652078Y51504D01*
X651690Y51581D01*
D02*
G37*
G36*
X649150D02*
X648762Y51504D01*
X647356Y50564D01*
X646416Y49158D01*
X646339Y48770D01*
X649150D01*
Y51581D01*
D02*
G37*
G36*
X2070292Y56423D02*
X2068723Y56111D01*
X2067394Y55222D01*
X2066505Y53893D01*
X2066193Y52324D01*
X2066505Y50756D01*
X2067394Y49426D01*
X2068723Y48537D01*
X2070292Y48225D01*
X2071861Y48537D01*
X2073190Y49426D01*
X2074079Y50756D01*
X2074391Y52324D01*
X2074079Y53893D01*
X2073190Y55222D01*
X2071861Y56111D01*
X2070292Y56423D01*
D02*
G37*
G36*
X1984196Y56299D02*
X1982628Y55987D01*
X1981298Y55098D01*
X1980409Y53768D01*
X1980097Y52200D01*
X1980409Y50631D01*
X1981298Y49302D01*
X1982628Y48413D01*
X1984196Y48101D01*
X1985765Y48413D01*
X1987094Y49302D01*
X1987983Y50631D01*
X1988295Y52200D01*
X1987983Y53768D01*
X1987094Y55098D01*
X1985765Y55987D01*
X1984196Y56299D01*
D02*
G37*
G36*
X2846524Y55055D02*
X2845053Y54762D01*
X2843806Y53929D01*
X2842973Y52682D01*
X2842680Y51211D01*
X2842973Y49740D01*
X2843806Y48493D01*
X2845053Y47660D01*
X2846524Y47367D01*
X2847995Y47660D01*
X2849242Y48493D01*
X2850075Y49740D01*
X2850368Y51211D01*
X2850075Y52682D01*
X2849242Y53929D01*
X2847995Y54762D01*
X2846524Y55055D01*
D02*
G37*
G36*
X2675081Y54830D02*
X2673610Y54537D01*
X2672362Y53704D01*
X2671529Y52457D01*
X2671237Y50986D01*
X2671529Y49515D01*
X2672362Y48268D01*
X2673610Y47435D01*
X2675081Y47142D01*
X2676552Y47435D01*
X2677798Y48268D01*
X2678632Y49515D01*
X2678924Y50986D01*
X2678632Y52457D01*
X2677798Y53704D01*
X2676552Y54537D01*
X2675081Y54830D01*
D02*
G37*
G36*
X3837454Y54829D02*
X3835982Y54536D01*
X3834735Y53703D01*
X3833902Y52456D01*
X3833610Y50985D01*
X3833902Y49514D01*
X3834735Y48267D01*
X3835982Y47434D01*
X3837454Y47141D01*
X3838925Y47434D01*
X3840172Y48267D01*
X3841005Y49514D01*
X3841297Y50985D01*
X3841005Y52456D01*
X3840172Y53703D01*
X3838925Y54536D01*
X3837454Y54829D01*
D02*
G37*
G36*
X3971450Y49263D02*
Y46452D01*
X3974260D01*
X3974183Y46840D01*
X3973244Y48246D01*
X3971838Y49186D01*
X3971450Y49263D01*
D02*
G37*
G36*
X3968910Y49263D02*
X3968522Y49186D01*
X3967116Y48246D01*
X3966176Y46840D01*
X3966099Y46452D01*
X3968910D01*
Y49263D01*
D02*
G37*
G36*
X3982450Y49263D02*
Y46452D01*
X3985260D01*
X3985183Y46840D01*
X3984244Y48246D01*
X3982838Y49186D01*
X3982450Y49263D01*
D02*
G37*
G36*
X3979910Y49263D02*
X3979521Y49186D01*
X3978116Y48246D01*
X3977177Y46840D01*
X3977099Y46452D01*
X3979910D01*
Y49263D01*
D02*
G37*
G36*
X1933000Y49100D02*
X1930190D01*
Y46289D01*
X1930578Y46367D01*
X1931984Y47306D01*
X1932923Y48712D01*
X1933000Y49100D01*
D02*
G37*
G36*
X1927650D02*
X1924839D01*
X1924916Y48712D01*
X1925856Y47306D01*
X1927262Y46367D01*
X1927650Y46289D01*
Y49100D01*
D02*
G37*
G36*
X1922000D02*
X1919190D01*
Y46289D01*
X1919578Y46367D01*
X1920984Y47306D01*
X1921923Y48712D01*
X1922000Y49100D01*
D02*
G37*
G36*
X1916650D02*
X1913839D01*
X1913916Y48712D01*
X1914856Y47306D01*
X1916261Y46367D01*
X1916650Y46289D01*
Y49100D01*
D02*
G37*
G36*
X2385765Y53960D02*
X2384294Y53667D01*
X2383047Y52834D01*
X2382214Y51587D01*
X2381922Y50116D01*
X2382214Y48645D01*
X2383047Y47398D01*
X2384294Y46565D01*
X2385765Y46272D01*
X2387236Y46565D01*
X2388483Y47398D01*
X2389317Y48645D01*
X2389609Y50116D01*
X2389317Y51587D01*
X2388483Y52834D01*
X2387236Y53667D01*
X2385765Y53960D01*
D02*
G37*
G36*
X4170934Y53602D02*
X4169464Y53309D01*
X4168216Y52476D01*
X4167383Y51229D01*
X4167090Y49758D01*
X4167383Y48287D01*
X4168216Y47040D01*
X4169464Y46207D01*
X4170934Y45914D01*
X4172405Y46207D01*
X4173652Y47040D01*
X4174485Y48287D01*
X4174778Y49758D01*
X4174485Y51229D01*
X4173652Y52476D01*
X4172405Y53309D01*
X4170934Y53602D01*
D02*
G37*
G36*
X2941720Y53427D02*
X2940249Y53135D01*
X2939002Y52302D01*
X2938169Y51055D01*
X2937876Y49584D01*
X2938169Y48113D01*
X2939002Y46866D01*
X2940249Y46032D01*
X2941720Y45740D01*
X2943191Y46032D01*
X2944438Y46866D01*
X2945271Y48113D01*
X2945564Y49584D01*
X2945271Y51055D01*
X2944438Y52302D01*
X2943191Y53135D01*
X2941720Y53427D01*
D02*
G37*
G36*
X4088582Y53426D02*
X4087111Y53133D01*
X4085864Y52300D01*
X4085030Y51053D01*
X4084738Y49582D01*
X4085030Y48111D01*
X4085864Y46864D01*
X4087111Y46031D01*
X4088582Y45738D01*
X4090052Y46031D01*
X4091300Y46864D01*
X4092133Y48111D01*
X4092426Y49582D01*
X4092133Y51053D01*
X4091300Y52300D01*
X4090052Y53133D01*
X4088582Y53426D01*
D02*
G37*
G36*
X4099522Y53757D02*
X4097953Y53445D01*
X4096624Y52556D01*
X4095735Y51227D01*
X4095423Y49658D01*
X4095735Y48090D01*
X4096624Y46760D01*
X4097953Y45871D01*
X4099522Y45559D01*
X4101091Y45871D01*
X4102420Y46760D01*
X4103309Y48090D01*
X4103621Y49658D01*
X4103309Y51227D01*
X4102420Y52556D01*
X4101091Y53445D01*
X4099522Y53757D01*
D02*
G37*
G36*
X3948889Y52026D02*
X3947418Y51733D01*
X3946171Y50900D01*
X3945338Y49653D01*
X3945045Y48182D01*
X3945338Y46711D01*
X3946171Y45464D01*
X3947418Y44631D01*
X3948889Y44338D01*
X3950360Y44631D01*
X3951607Y45464D01*
X3952440Y46711D01*
X3952733Y48182D01*
X3952440Y49653D01*
X3951607Y50900D01*
X3950360Y51733D01*
X3948889Y52026D01*
D02*
G37*
G36*
X3928272D02*
X3926801Y51733D01*
X3925554Y50900D01*
X3924721Y49653D01*
X3924428Y48182D01*
X3924721Y46711D01*
X3925554Y45464D01*
X3926801Y44631D01*
X3928272Y44338D01*
X3929743Y44631D01*
X3930990Y45464D01*
X3931823Y46711D01*
X3932116Y48182D01*
X3931823Y49653D01*
X3930990Y50900D01*
X3929743Y51733D01*
X3928272Y52026D01*
D02*
G37*
G36*
X3364293Y51789D02*
X3362822Y51497D01*
X3361575Y50664D01*
X3360742Y49417D01*
X3360450Y47946D01*
X3360742Y46475D01*
X3361575Y45227D01*
X3362822Y44394D01*
X3364293Y44102D01*
X3365764Y44394D01*
X3367011Y45227D01*
X3367845Y46475D01*
X3368137Y47946D01*
X3367845Y49417D01*
X3367011Y50664D01*
X3365764Y51497D01*
X3364293Y51789D01*
D02*
G37*
G36*
X1976291Y51464D02*
X1974820Y51171D01*
X1973573Y50338D01*
X1972739Y49091D01*
X1972447Y47620D01*
X1972739Y46149D01*
X1973573Y44902D01*
X1974820Y44069D01*
X1976291Y43776D01*
X1977762Y44069D01*
X1979009Y44902D01*
X1979842Y46149D01*
X1980134Y47620D01*
X1979842Y49091D01*
X1979009Y50338D01*
X1977762Y51171D01*
X1976291Y51464D01*
D02*
G37*
G36*
X2061402Y51342D02*
X2059931Y51049D01*
X2058684Y50216D01*
X2057851Y48969D01*
X2057558Y47498D01*
X2057851Y46027D01*
X2058684Y44780D01*
X2059931Y43947D01*
X2061402Y43654D01*
X2062873Y43947D01*
X2064120Y44780D01*
X2064953Y46027D01*
X2065246Y47498D01*
X2064953Y48969D01*
X2064120Y50216D01*
X2062873Y51049D01*
X2061402Y51342D01*
D02*
G37*
G36*
X665500Y46230D02*
X662690D01*
Y43419D01*
X663078Y43497D01*
X664484Y44436D01*
X665423Y45842D01*
X665500Y46230D01*
D02*
G37*
G36*
X660150D02*
X657339D01*
X657416Y45842D01*
X658356Y44436D01*
X659762Y43497D01*
X660150Y43419D01*
Y46230D01*
D02*
G37*
G36*
X654500D02*
X651690D01*
Y43419D01*
X652078Y43497D01*
X653484Y44436D01*
X654423Y45842D01*
X654500Y46230D01*
D02*
G37*
G36*
X649150D02*
X646339D01*
X646416Y45842D01*
X647356Y44436D01*
X648762Y43497D01*
X649150Y43419D01*
Y46230D01*
D02*
G37*
G36*
X3776399Y51033D02*
X3774928Y50740D01*
X3773681Y49907D01*
X3772848Y48660D01*
X3772555Y47189D01*
X3772848Y45718D01*
X3773681Y44471D01*
X3774928Y43638D01*
X3776399Y43345D01*
X3777870Y43638D01*
X3779117Y44471D01*
X3779950Y45718D01*
X3780243Y47189D01*
X3779950Y48660D01*
X3779117Y49907D01*
X3777870Y50740D01*
X3776399Y51033D01*
D02*
G37*
G36*
X3456112Y46249D02*
X3454641Y45957D01*
X3453394Y45124D01*
X3452560Y43877D01*
X3452334Y42740D01*
X3451039D01*
X3450813Y43877D01*
X3449980Y45124D01*
X3448733Y45957D01*
X3447262Y46249D01*
X3445791Y45957D01*
X3444544Y45124D01*
X3443711Y43877D01*
X3443418Y42406D01*
X3443711Y40935D01*
X3444544Y39688D01*
X3445791Y38854D01*
X3447262Y38562D01*
X3448733Y38854D01*
X3449980Y39688D01*
X3450813Y40935D01*
X3451039Y42071D01*
X3452334D01*
X3452560Y40935D01*
X3453394Y39688D01*
X3454641Y38854D01*
X3456112Y38562D01*
X3457583Y38854D01*
X3458830Y39688D01*
X3459663Y40935D01*
X3459955Y42406D01*
X3459663Y43877D01*
X3458830Y45124D01*
X3457583Y45957D01*
X3456112Y46249D01*
D02*
G37*
G36*
X834766Y50017D02*
X833295Y49724D01*
X832048Y48891D01*
X831215Y47644D01*
X830922Y46173D01*
X831215Y44702D01*
X832048Y43455D01*
X833295Y42622D01*
X834766Y42329D01*
X836237Y42622D01*
X837484Y43455D01*
X838317Y44702D01*
X838610Y46173D01*
X838317Y47644D01*
X837484Y48891D01*
X836237Y49724D01*
X834766Y50017D01*
D02*
G37*
G36*
X624100Y49107D02*
X622629Y48815D01*
X621382Y47981D01*
X620549Y46734D01*
X620257Y45263D01*
X620549Y43792D01*
X621382Y42545D01*
X622629Y41712D01*
X624100Y41419D01*
X625571Y41712D01*
X626818Y42545D01*
X627652Y43792D01*
X627944Y45263D01*
X627652Y46734D01*
X626818Y47981D01*
X625571Y48815D01*
X624100Y49107D01*
D02*
G37*
G36*
X841372Y56887D02*
X839901Y56594D01*
X838653Y55761D01*
X837820Y54514D01*
X837528Y53043D01*
X837820Y51572D01*
X838653Y50325D01*
X839901Y49492D01*
X841353Y49203D01*
X841395Y49138D01*
X841833Y47996D01*
X841573Y47822D01*
X840740Y46575D01*
X840447Y45104D01*
X840740Y43633D01*
X841573Y42386D01*
X842820Y41553D01*
X844291Y41260D01*
X845762Y41553D01*
X847009Y42386D01*
X847842Y43633D01*
X848135Y45104D01*
X847842Y46575D01*
X847009Y47822D01*
X845762Y48656D01*
X844309Y48945D01*
X844268Y49009D01*
X843829Y50151D01*
X844090Y50325D01*
X844923Y51572D01*
X845215Y53043D01*
X844923Y54514D01*
X844090Y55761D01*
X842842Y56594D01*
X841372Y56887D01*
D02*
G37*
G36*
X3968910Y43912D02*
X3966099D01*
X3966176Y43524D01*
X3967116Y42118D01*
X3968522Y41179D01*
X3968910Y41101D01*
Y43912D01*
D02*
G37*
G36*
X3979910Y43912D02*
X3977099D01*
X3977177Y43524D01*
X3978116Y42118D01*
X3979521Y41179D01*
X3979910Y41101D01*
Y43912D01*
D02*
G37*
G36*
X3985261D02*
X3982450D01*
Y41101D01*
X3982838Y41179D01*
X3984244Y42118D01*
X3985183Y43524D01*
X3985261Y43912D01*
D02*
G37*
G36*
X3974261Y43912D02*
X3971450D01*
Y41101D01*
X3971838Y41179D01*
X3973244Y42118D01*
X3974183Y43524D01*
X3974261Y43912D01*
D02*
G37*
G36*
X762192Y57439D02*
X760623Y57127D01*
X759294Y56238D01*
X758405Y54909D01*
X758093Y53340D01*
X758405Y51771D01*
X759294Y50442D01*
X759861Y50062D01*
X759839Y49755D01*
X759480Y48790D01*
X758205Y48537D01*
X756876Y47648D01*
X755987Y46319D01*
X755675Y44750D01*
X755987Y43182D01*
X756876Y41852D01*
X758205Y40963D01*
X759774Y40651D01*
X761343Y40963D01*
X762672Y41852D01*
X763561Y43182D01*
X763873Y44750D01*
X763561Y46319D01*
X762672Y47648D01*
X762105Y48028D01*
X762127Y48335D01*
X762487Y49300D01*
X763761Y49553D01*
X765090Y50442D01*
X765979Y51771D01*
X766291Y53340D01*
X765979Y54909D01*
X765090Y56238D01*
X763761Y57127D01*
X762192Y57439D01*
D02*
G37*
G36*
X1930190Y43451D02*
Y40640D01*
X1933000D01*
X1932923Y41028D01*
X1931984Y42434D01*
X1930578Y43373D01*
X1930190Y43451D01*
D02*
G37*
G36*
X1927650D02*
X1927262Y43373D01*
X1925856Y42434D01*
X1924916Y41028D01*
X1924839Y40640D01*
X1927650D01*
Y43451D01*
D02*
G37*
G36*
X1919190D02*
Y40640D01*
X1922000D01*
X1921923Y41028D01*
X1920984Y42434D01*
X1919578Y43373D01*
X1919190Y43451D01*
D02*
G37*
G36*
X1916650D02*
X1916261Y43373D01*
X1914856Y42434D01*
X1913916Y41028D01*
X1913839Y40640D01*
X1916650D01*
Y43451D01*
D02*
G37*
G36*
X2107154Y46083D02*
X2105683Y45790D01*
X2104436Y44957D01*
X2103602Y43710D01*
X2103310Y42239D01*
X2103602Y40768D01*
X2104436Y39521D01*
X2105683Y38688D01*
X2107154Y38395D01*
X2108625Y38688D01*
X2109872Y39521D01*
X2110705Y40768D01*
X2110997Y42239D01*
X2110705Y43710D01*
X2109872Y44957D01*
X2108625Y45790D01*
X2107154Y46083D01*
D02*
G37*
G36*
X1966294Y45964D02*
X1964823Y45671D01*
X1963576Y44838D01*
X1962743Y43591D01*
X1962450Y42120D01*
X1962743Y40649D01*
X1963576Y39402D01*
X1964823Y38569D01*
X1966294Y38276D01*
X1967765Y38569D01*
X1969012Y39402D01*
X1969845Y40649D01*
X1970138Y42120D01*
X1969845Y43591D01*
X1969012Y44838D01*
X1967765Y45671D01*
X1966294Y45964D01*
D02*
G37*
G36*
X687056Y45844D02*
X685585Y45551D01*
X684338Y44718D01*
X683505Y43471D01*
X683212Y42000D01*
X683505Y40529D01*
X684338Y39282D01*
X685585Y38449D01*
X687056Y38156D01*
X688527Y38449D01*
X689774Y39282D01*
X690607Y40529D01*
X690900Y42000D01*
X690607Y43471D01*
X689774Y44718D01*
X688527Y45551D01*
X687056Y45844D01*
D02*
G37*
G36*
X3761593Y45626D02*
X3760122Y45333D01*
X3758875Y44500D01*
X3758042Y43253D01*
X3757749Y41782D01*
X3758042Y40311D01*
X3758875Y39064D01*
X3760122Y38231D01*
X3761593Y37938D01*
X3763064Y38231D01*
X3764311Y39064D01*
X3765144Y40311D01*
X3765437Y41782D01*
X3765144Y43253D01*
X3764311Y44500D01*
X3763064Y45333D01*
X3761593Y45626D01*
D02*
G37*
G36*
X743336Y45529D02*
X741865Y45237D01*
X740618Y44403D01*
X739784Y43156D01*
X739492Y41685D01*
X739784Y40214D01*
X740618Y38967D01*
X741865Y38134D01*
X743336Y37841D01*
X744807Y38134D01*
X746054Y38967D01*
X746887Y40214D01*
X747180Y41685D01*
X746887Y43156D01*
X746054Y44403D01*
X744807Y45237D01*
X743336Y45529D01*
D02*
G37*
G36*
X4010880Y44982D02*
X4009409Y44689D01*
X4008162Y43856D01*
X4007328Y42609D01*
X4007036Y41138D01*
X4007328Y39667D01*
X4008162Y38420D01*
X4009409Y37587D01*
X4010880Y37294D01*
X4012351Y37587D01*
X4013598Y38420D01*
X4014431Y39667D01*
X4014724Y41138D01*
X4014431Y42609D01*
X4013598Y43856D01*
X4012351Y44689D01*
X4010880Y44982D01*
D02*
G37*
G36*
X3099213Y44819D02*
X3097742Y44527D01*
X3096495Y43694D01*
X3095662Y42446D01*
X3095369Y40975D01*
X3095662Y39504D01*
X3096495Y38258D01*
X3097742Y37424D01*
X3099213Y37132D01*
X3100684Y37424D01*
X3101931Y38258D01*
X3102764Y39504D01*
X3103057Y40975D01*
X3102764Y42446D01*
X3101931Y43694D01*
X3100684Y44527D01*
X3099213Y44819D01*
D02*
G37*
G36*
X3847621Y44605D02*
X3846151Y44313D01*
X3844903Y43479D01*
X3844070Y42232D01*
X3843777Y40761D01*
X3844070Y39290D01*
X3844903Y38043D01*
X3846151Y37210D01*
X3847621Y36917D01*
X3849092Y37210D01*
X3850339Y38043D01*
X3851173Y39290D01*
X3851465Y40761D01*
X3851173Y42232D01*
X3850339Y43479D01*
X3849092Y44313D01*
X3847621Y44605D01*
D02*
G37*
G36*
X2174800Y43214D02*
X2173329Y42921D01*
X2172082Y42088D01*
X2171249Y40841D01*
X2170957Y39370D01*
X2171249Y37899D01*
X2172082Y36652D01*
X2173329Y35819D01*
X2174800Y35526D01*
X2176271Y35819D01*
X2177518Y36652D01*
X2178352Y37899D01*
X2178644Y39370D01*
X2178352Y40841D01*
X2177518Y42088D01*
X2176271Y42921D01*
X2174800Y43214D01*
D02*
G37*
G36*
X1950889Y46083D02*
X1949418Y45790D01*
X1948171Y44957D01*
X1947337Y43710D01*
X1947045Y42239D01*
X1947337Y40768D01*
X1948171Y39521D01*
X1949418Y38688D01*
X1950889Y38395D01*
X1952360Y38688D01*
X1952495Y38778D01*
X1953906Y38194D01*
X1953965Y37899D01*
X1954798Y36652D01*
X1956045Y35819D01*
X1957516Y35526D01*
X1958987Y35819D01*
X1960234Y36652D01*
X1961067Y37899D01*
X1961360Y39370D01*
X1961067Y40841D01*
X1960234Y42088D01*
X1958987Y42921D01*
X1957516Y43214D01*
X1956045Y42921D01*
X1955910Y42831D01*
X1954498Y43415D01*
X1954440Y43710D01*
X1953607Y44957D01*
X1952360Y45790D01*
X1950889Y46083D01*
D02*
G37*
G36*
X1933000Y38100D02*
X1930190D01*
Y35289D01*
X1930578Y35367D01*
X1931984Y36306D01*
X1932923Y37712D01*
X1933000Y38100D01*
D02*
G37*
G36*
X1927650D02*
X1924839D01*
X1924916Y37712D01*
X1925856Y36306D01*
X1927262Y35367D01*
X1927650Y35289D01*
Y38100D01*
D02*
G37*
G36*
X1922000D02*
X1919190D01*
Y35289D01*
X1919578Y35367D01*
X1920984Y36306D01*
X1921923Y37712D01*
X1922000Y38100D01*
D02*
G37*
G36*
X1916650D02*
X1913839D01*
X1913916Y37712D01*
X1914856Y36306D01*
X1916261Y35367D01*
X1916650Y35289D01*
Y38100D01*
D02*
G37*
G36*
X2162920Y42614D02*
X2161449Y42321D01*
X2160202Y41488D01*
X2159368Y40241D01*
X2159076Y38770D01*
X2159368Y37299D01*
X2160202Y36052D01*
X2161449Y35219D01*
X2162920Y34926D01*
X2164391Y35219D01*
X2165638Y36052D01*
X2166471Y37299D01*
X2166764Y38770D01*
X2166471Y40241D01*
X2165638Y41488D01*
X2164391Y42321D01*
X2162920Y42614D01*
D02*
G37*
G36*
X514403Y43099D02*
X512835Y42787D01*
X511505Y41898D01*
X510617Y40569D01*
X510305Y39000D01*
X510617Y37432D01*
X511505Y36102D01*
X512835Y35213D01*
X514403Y34901D01*
X515972Y35213D01*
X517302Y36102D01*
X518190Y37432D01*
X518502Y39000D01*
X518190Y40569D01*
X517302Y41898D01*
X515972Y42787D01*
X514403Y43099D01*
D02*
G37*
G36*
X3172624Y41711D02*
X3171153Y41419D01*
X3169906Y40585D01*
X3169073Y39338D01*
X3168780Y37867D01*
X3169073Y36396D01*
X3169906Y35149D01*
X3171153Y34316D01*
X3172624Y34024D01*
X3174095Y34316D01*
X3175342Y35149D01*
X3176175Y36396D01*
X3176468Y37867D01*
X3176175Y39338D01*
X3175342Y40585D01*
X3174095Y41419D01*
X3172624Y41711D01*
D02*
G37*
G36*
X2090361Y40464D02*
X2088890Y40171D01*
X2087643Y39338D01*
X2086809Y38091D01*
X2086517Y36620D01*
X2086809Y35149D01*
X2087643Y33902D01*
X2088890Y33069D01*
X2090361Y32776D01*
X2091832Y33069D01*
X2093079Y33902D01*
X2093912Y35149D01*
X2094205Y36620D01*
X2093912Y38091D01*
X2093079Y39338D01*
X2091832Y40171D01*
X2090361Y40464D01*
D02*
G37*
G36*
X4088582Y39757D02*
X4087013Y39445D01*
X4085683Y38556D01*
X4084795Y37227D01*
X4084483Y35658D01*
X4084795Y34090D01*
X4085683Y32760D01*
X4087013Y31871D01*
X4088582Y31559D01*
X4090150Y31871D01*
X4091480Y32760D01*
X4092368Y34090D01*
X4092680Y35658D01*
X4092368Y37227D01*
X4091480Y38556D01*
X4090150Y39445D01*
X4088582Y39757D01*
D02*
G37*
G36*
X2938493Y38388D02*
X2937022Y38095D01*
X2935775Y37262D01*
X2934942Y36015D01*
X2934649Y34544D01*
X2934942Y33073D01*
X2935775Y31826D01*
X2937022Y30993D01*
X2938493Y30700D01*
X2939964Y30993D01*
X2941211Y31826D01*
X2942044Y33073D01*
X2942337Y34544D01*
X2942044Y36015D01*
X2941211Y37262D01*
X2939964Y38095D01*
X2938493Y38388D01*
D02*
G37*
G36*
X2770801Y37685D02*
X2769330Y37392D01*
X2768083Y36559D01*
X2767250Y35312D01*
X2766957Y33841D01*
X2767250Y32370D01*
X2768083Y31123D01*
X2769330Y30290D01*
X2770801Y29997D01*
X2772272Y30290D01*
X2773519Y31123D01*
X2774352Y32370D01*
X2774645Y33841D01*
X2774352Y35312D01*
X2773519Y36559D01*
X2772272Y37392D01*
X2770801Y37685D01*
D02*
G37*
G36*
X2522015Y37175D02*
X2520544Y36883D01*
X2519297Y36049D01*
X2518464Y34802D01*
X2518172Y33331D01*
X2518464Y31860D01*
X2519297Y30613D01*
X2520544Y29780D01*
X2522015Y29488D01*
X2523486Y29780D01*
X2524733Y30613D01*
X2525567Y31860D01*
X2525859Y33331D01*
X2525567Y34802D01*
X2524733Y36049D01*
X2523486Y36883D01*
X2522015Y37175D01*
D02*
G37*
G36*
X2015045Y37074D02*
X2013574Y36781D01*
X2012327Y35948D01*
X2011494Y34701D01*
X2011201Y33230D01*
X2011494Y31759D01*
X2012327Y30512D01*
X2013574Y29679D01*
X2015045Y29386D01*
X2016516Y29679D01*
X2017763Y30512D01*
X2018596Y31759D01*
X2018889Y33230D01*
X2018596Y34701D01*
X2017763Y35948D01*
X2016516Y36781D01*
X2015045Y37074D01*
D02*
G37*
G36*
X4004545Y37002D02*
X4003074Y36709D01*
X4001827Y35876D01*
X4000994Y34629D01*
X4000702Y33158D01*
X4000994Y31687D01*
X4001827Y30440D01*
X4003074Y29607D01*
X4004545Y29314D01*
X4006016Y29607D01*
X4007263Y30440D01*
X4008097Y31687D01*
X4008389Y33158D01*
X4008097Y34629D01*
X4007263Y35876D01*
X4006016Y36709D01*
X4004545Y37002D01*
D02*
G37*
G36*
X1877077Y36074D02*
X1875606Y35781D01*
X1874359Y34948D01*
X1873526Y33701D01*
X1873233Y32230D01*
X1873526Y30759D01*
X1874359Y29512D01*
X1875606Y28679D01*
X1877077Y28386D01*
X1878548Y28679D01*
X1879795Y29512D01*
X1880628Y30759D01*
X1880921Y32230D01*
X1880628Y33701D01*
X1879795Y34948D01*
X1878548Y35781D01*
X1877077Y36074D01*
D02*
G37*
G36*
X2666017Y35752D02*
X2664546Y35459D01*
X2663299Y34626D01*
X2662466Y33379D01*
X2662173Y31908D01*
X2662466Y30437D01*
X2663299Y29190D01*
X2664546Y28357D01*
X2666017Y28064D01*
X2667488Y28357D01*
X2668735Y29190D01*
X2669568Y30437D01*
X2669861Y31908D01*
X2669568Y33379D01*
X2668735Y34626D01*
X2667488Y35459D01*
X2666017Y35752D01*
D02*
G37*
G36*
X3948889Y35273D02*
X3947418Y34980D01*
X3946171Y34147D01*
X3945338Y32900D01*
X3945045Y31429D01*
X3945338Y29958D01*
X3946171Y28711D01*
X3947418Y27878D01*
X3948889Y27585D01*
X3950360Y27878D01*
X3951607Y28711D01*
X3952440Y29958D01*
X3952733Y31429D01*
X3952440Y32900D01*
X3951607Y34147D01*
X3950360Y34980D01*
X3948889Y35273D01*
D02*
G37*
G36*
X3390529D02*
X3389058Y34980D01*
X3387811Y34147D01*
X3386978Y32900D01*
X3386685Y31429D01*
X3386978Y29958D01*
X3387811Y28711D01*
X3389058Y27878D01*
X3390529Y27585D01*
X3392000Y27878D01*
X3393247Y28711D01*
X3394080Y29958D01*
X3394373Y31429D01*
X3394080Y32900D01*
X3393247Y34147D01*
X3392000Y34980D01*
X3390529Y35273D01*
D02*
G37*
G36*
X809653Y33700D02*
X808182Y33408D01*
X806935Y32574D01*
X806102Y31327D01*
X805809Y29856D01*
X806102Y28385D01*
X806935Y27138D01*
X808182Y26305D01*
X809653Y26012D01*
X811124Y26305D01*
X812371Y27138D01*
X812533Y27381D01*
X812629Y27413D01*
X814002Y27294D01*
X814519Y26520D01*
X815766Y25687D01*
X817237Y25394D01*
X818708Y25687D01*
X819955Y26520D01*
X820788Y27767D01*
X821081Y29238D01*
X820788Y30709D01*
X819955Y31956D01*
X818708Y32789D01*
X817237Y33082D01*
X815766Y32789D01*
X814519Y31956D01*
X814357Y31714D01*
X814260Y31681D01*
X812888Y31801D01*
X812371Y32574D01*
X811124Y33408D01*
X809653Y33700D01*
D02*
G37*
G36*
X1951501Y32577D02*
X1950030Y32285D01*
X1948783Y31451D01*
X1947950Y30204D01*
X1947657Y28733D01*
X1947950Y27262D01*
X1948783Y26015D01*
X1950030Y25182D01*
X1951501Y24889D01*
X1952972Y25182D01*
X1954219Y26015D01*
X1955052Y27262D01*
X1955345Y28733D01*
X1955052Y30204D01*
X1954219Y31451D01*
X1952972Y32285D01*
X1951501Y32577D01*
D02*
G37*
G36*
X2840196Y32388D02*
X2838725Y32095D01*
X2837478Y31262D01*
X2836645Y30015D01*
X2836352Y28544D01*
X2836645Y27073D01*
X2837478Y25826D01*
X2838725Y24993D01*
X2840196Y24700D01*
X2841667Y24993D01*
X2842914Y25826D01*
X2843747Y27073D01*
X2844040Y28544D01*
X2843747Y30015D01*
X2842914Y31262D01*
X2841667Y32095D01*
X2840196Y32388D01*
D02*
G37*
G36*
X2053111Y32202D02*
X2051640Y31909D01*
X2050392Y31076D01*
X2049559Y29829D01*
X2049267Y28358D01*
X2049559Y26887D01*
X2050392Y25640D01*
X2051640Y24807D01*
X2053111Y24514D01*
X2054581Y24807D01*
X2055829Y25640D01*
X2056662Y26887D01*
X2056954Y28358D01*
X2056662Y29829D01*
X2055829Y31076D01*
X2054581Y31909D01*
X2053111Y32202D01*
D02*
G37*
G36*
X3992920Y31473D02*
X3991449Y31180D01*
X3990202Y30347D01*
X3989369Y29100D01*
X3989076Y27629D01*
X3989369Y26158D01*
X3990202Y24911D01*
X3991449Y24078D01*
X3992920Y23785D01*
X3994391Y24078D01*
X3995638Y24911D01*
X3996471Y26158D01*
X3996764Y27629D01*
X3996471Y29100D01*
X3995638Y30347D01*
X3994391Y31180D01*
X3992920Y31473D01*
D02*
G37*
G36*
X3431000Y31262D02*
X3429529Y30970D01*
X3428282Y30136D01*
X3427449Y28890D01*
X3427156Y27418D01*
X3427449Y25947D01*
X3428282Y24701D01*
X3429529Y23867D01*
X3431000Y23575D01*
X3432471Y23867D01*
X3433718Y24701D01*
X3434551Y25947D01*
X3434844Y27418D01*
X3434551Y28890D01*
X3433718Y30136D01*
X3432471Y30970D01*
X3431000Y31262D01*
D02*
G37*
G36*
X632881Y28952D02*
X631410Y28660D01*
X630163Y27827D01*
X629329Y26580D01*
X629037Y25109D01*
X629329Y23638D01*
X630163Y22390D01*
X631410Y21557D01*
X632881Y21265D01*
X634352Y21557D01*
X635599Y22390D01*
X636432Y23638D01*
X636724Y25109D01*
X636432Y26580D01*
X635599Y27827D01*
X634352Y28660D01*
X632881Y28952D01*
D02*
G37*
G36*
X4098920Y29257D02*
X4097351Y28945D01*
X4096022Y28056D01*
X4095133Y26727D01*
X4094821Y25158D01*
X4095133Y23589D01*
X4096022Y22260D01*
X4097351Y21371D01*
X4098920Y21059D01*
X4100488Y21371D01*
X4101818Y22260D01*
X4102707Y23589D01*
X4103018Y25158D01*
X4102707Y26727D01*
X4101818Y28056D01*
X4100488Y28945D01*
X4098920Y29257D01*
D02*
G37*
G36*
X2466895Y28444D02*
X2465424Y28151D01*
X2464177Y27318D01*
X2463344Y26071D01*
X2463051Y24600D01*
X2463344Y23129D01*
X2464177Y21882D01*
X2465424Y21049D01*
X2466895Y20756D01*
X2468366Y21049D01*
X2469613Y21882D01*
X2470446Y23129D01*
X2470739Y24600D01*
X2470446Y26071D01*
X2469613Y27318D01*
X2468366Y28151D01*
X2466895Y28444D01*
D02*
G37*
G36*
X663420Y27844D02*
X661949Y27551D01*
X660702Y26718D01*
X659868Y25471D01*
X659576Y24000D01*
X659868Y22529D01*
X660702Y21282D01*
X661949Y20449D01*
X663420Y20156D01*
X664891Y20449D01*
X666138Y21282D01*
X666971Y22529D01*
X667264Y24000D01*
X666971Y25471D01*
X666138Y26718D01*
X664891Y27551D01*
X663420Y27844D01*
D02*
G37*
G36*
X643066D02*
X641595Y27551D01*
X640348Y26718D01*
X639515Y25471D01*
X639222Y24000D01*
X639515Y22529D01*
X640348Y21282D01*
X641595Y20449D01*
X643066Y20156D01*
X644537Y20449D01*
X645784Y21282D01*
X646617Y22529D01*
X646910Y24000D01*
X646617Y25471D01*
X645784Y26718D01*
X644537Y27551D01*
X643066Y27844D01*
D02*
G37*
G36*
X653170Y28349D02*
X651601Y28037D01*
X650272Y27148D01*
X649383Y25819D01*
X649071Y24250D01*
X649383Y22681D01*
X650272Y21352D01*
X651601Y20463D01*
X653170Y20151D01*
X654738Y20463D01*
X656068Y21352D01*
X656957Y22681D01*
X657269Y24250D01*
X656957Y25819D01*
X656068Y27148D01*
X654738Y28037D01*
X653170Y28349D01*
D02*
G37*
G36*
X834766Y28099D02*
X833197Y27787D01*
X831868Y26898D01*
X830979Y25568D01*
X830667Y24000D01*
X830979Y22431D01*
X831868Y21102D01*
X833197Y20213D01*
X834766Y19901D01*
X836334Y20213D01*
X837664Y21102D01*
X838552Y22431D01*
X838865Y24000D01*
X838552Y25568D01*
X837664Y26898D01*
X836334Y27787D01*
X834766Y28099D01*
D02*
G37*
G36*
X320142Y27440D02*
X318671Y27147D01*
X317424Y26314D01*
X316590Y25067D01*
X316298Y23596D01*
X316590Y22125D01*
X317424Y20878D01*
X318671Y20045D01*
X320142Y19752D01*
X321613Y20045D01*
X322860Y20878D01*
X323693Y22125D01*
X323985Y23596D01*
X323693Y25067D01*
X322860Y26314D01*
X321613Y27147D01*
X320142Y27440D01*
D02*
G37*
G36*
X3906473Y25704D02*
X3904904Y25392D01*
X3903575Y24504D01*
X3902686Y23174D01*
X3902374Y21606D01*
X3902686Y20037D01*
X3903575Y18707D01*
X3904904Y17819D01*
X3906473Y17507D01*
X3908041Y17819D01*
X3909371Y18707D01*
X3910259Y20037D01*
X3910572Y21606D01*
X3910259Y23174D01*
X3909371Y24504D01*
X3908041Y25392D01*
X3906473Y25704D01*
D02*
G37*
G36*
X1976117Y25078D02*
X1974646Y24785D01*
X1973399Y23952D01*
X1972566Y22705D01*
X1972273Y21234D01*
X1972566Y19763D01*
X1973399Y18516D01*
X1974646Y17683D01*
X1976117Y17390D01*
X1977588Y17683D01*
X1978835Y18516D01*
X1979668Y19763D01*
X1979961Y21234D01*
X1979668Y22705D01*
X1978835Y23952D01*
X1977588Y24785D01*
X1976117Y25078D01*
D02*
G37*
G36*
X1966283D02*
X1964812Y24785D01*
X1963565Y23952D01*
X1962732Y22705D01*
X1962439Y21234D01*
X1962732Y19763D01*
X1963565Y18516D01*
X1964812Y17683D01*
X1966283Y17390D01*
X1967754Y17683D01*
X1969001Y18516D01*
X1969834Y19763D01*
X1970127Y21234D01*
X1969834Y22705D01*
X1969001Y23952D01*
X1967754Y24785D01*
X1966283Y25078D01*
D02*
G37*
G36*
X2655069Y24821D02*
X2653598Y24529D01*
X2652350Y23695D01*
X2651517Y22448D01*
X2651225Y20977D01*
X2651517Y19506D01*
X2652350Y18259D01*
X2653598Y17426D01*
X2655069Y17134D01*
X2656540Y17426D01*
X2657787Y18259D01*
X2658620Y19506D01*
X2658912Y20977D01*
X2658620Y22448D01*
X2657787Y23695D01*
X2656540Y24529D01*
X2655069Y24821D01*
D02*
G37*
G36*
X514403Y24599D02*
X512835Y24287D01*
X511505Y23398D01*
X510617Y22069D01*
X510305Y20500D01*
X510617Y18932D01*
X511505Y17602D01*
X512835Y16714D01*
X514403Y16401D01*
X515972Y16714D01*
X517302Y17602D01*
X518190Y18932D01*
X518502Y20500D01*
X518190Y22069D01*
X517302Y23398D01*
X515972Y24287D01*
X514403Y24599D01*
D02*
G37*
G36*
X4109920Y24257D02*
X4108351Y23945D01*
X4107021Y23056D01*
X4106133Y21727D01*
X4105821Y20158D01*
X4106133Y18590D01*
X4107021Y17260D01*
X4108351Y16371D01*
X4109920Y16059D01*
X4111488Y16371D01*
X4112818Y17260D01*
X4113707Y18590D01*
X4114019Y20158D01*
X4113707Y21727D01*
X4112818Y23056D01*
X4111488Y23945D01*
X4109920Y24257D01*
D02*
G37*
G36*
X4132920Y22257D02*
X4131351Y21945D01*
X4130022Y21056D01*
X4129133Y19727D01*
X4128821Y18158D01*
X4129108Y16716D01*
X4128787Y16185D01*
X4128276Y15587D01*
X4127420Y15757D01*
X4125851Y15445D01*
X4124522Y14556D01*
X4123932Y13674D01*
X4123206Y13271D01*
X4122365Y13359D01*
X4121488Y13945D01*
X4119920Y14257D01*
X4118351Y13945D01*
X4117021Y13056D01*
X4116133Y11727D01*
X4115821Y10158D01*
X4116133Y8590D01*
X4117021Y7260D01*
X4118351Y6371D01*
X4119920Y6059D01*
X4121488Y6371D01*
X4122818Y7260D01*
X4123407Y8142D01*
X4124134Y8545D01*
X4124975Y8457D01*
X4125851Y7871D01*
X4127420Y7559D01*
X4128988Y7871D01*
X4130318Y8760D01*
X4131207Y10090D01*
X4131519Y11658D01*
X4131232Y13100D01*
X4131553Y13631D01*
X4132064Y14230D01*
X4132920Y14059D01*
X4134488Y14371D01*
X4135818Y15260D01*
X4136707Y16590D01*
X4137018Y18158D01*
X4136707Y19727D01*
X4135818Y21056D01*
X4134488Y21945D01*
X4132920Y22257D01*
D02*
G37*
G36*
X2882194Y23044D02*
X2880723Y22751D01*
X2879476Y21918D01*
X2878643Y20671D01*
X2878351Y19200D01*
X2878643Y17729D01*
X2879476Y16482D01*
X2880723Y15649D01*
X2882194Y15356D01*
X2883665Y15649D01*
X2884912Y16482D01*
X2885746Y17729D01*
X2886038Y19200D01*
X2885746Y20671D01*
X2884912Y21918D01*
X2883665Y22751D01*
X2882194Y23044D01*
D02*
G37*
G36*
X2848076Y22752D02*
X2846605Y22459D01*
X2845357Y21626D01*
X2844524Y20379D01*
X2844232Y18908D01*
X2844524Y17437D01*
X2845357Y16190D01*
X2846605Y15357D01*
X2848076Y15064D01*
X2849547Y15357D01*
X2850793Y16190D01*
X2851627Y17437D01*
X2851919Y18908D01*
X2851627Y20379D01*
X2850793Y21626D01*
X2849547Y22459D01*
X2848076Y22752D01*
D02*
G37*
G36*
X2774755Y21927D02*
X2773284Y21634D01*
X2772037Y20801D01*
X2771204Y19554D01*
X2770911Y18083D01*
X2771204Y16612D01*
X2772037Y15365D01*
X2773284Y14532D01*
X2774755Y14239D01*
X2776226Y14532D01*
X2777473Y15365D01*
X2778306Y16612D01*
X2778599Y18083D01*
X2778306Y19554D01*
X2777473Y20801D01*
X2776226Y21634D01*
X2774755Y21927D01*
D02*
G37*
G36*
X726415Y22399D02*
X724846Y22087D01*
X723517Y21198D01*
X722628Y19869D01*
X722316Y18300D01*
X722628Y16731D01*
X723517Y15402D01*
X724846Y14513D01*
X726415Y14201D01*
X727983Y14513D01*
X729313Y15402D01*
X730202Y16731D01*
X730514Y18300D01*
X730202Y19869D01*
X729313Y21198D01*
X727983Y22087D01*
X726415Y22399D01*
D02*
G37*
G36*
X4024048Y20665D02*
X4022479Y20353D01*
X4021150Y19464D01*
X4020261Y18134D01*
X4019949Y16566D01*
X4020261Y14998D01*
X4021150Y13668D01*
X4022479Y12779D01*
X4024048Y12467D01*
X4025616Y12779D01*
X4026946Y13668D01*
X4027834Y14998D01*
X4028146Y16566D01*
X4027834Y18134D01*
X4026946Y19464D01*
X4025616Y20353D01*
X4024048Y20665D01*
D02*
G37*
G36*
X1931558Y20087D02*
X1930087Y19795D01*
X1928840Y18961D01*
X1928006Y17715D01*
X1927714Y16243D01*
X1928006Y14772D01*
X1928840Y13525D01*
X1930087Y12692D01*
X1931558Y12400D01*
X1933029Y12692D01*
X1934276Y13525D01*
X1935109Y14772D01*
X1935402Y16243D01*
X1935109Y17715D01*
X1934276Y18961D01*
X1933029Y19795D01*
X1931558Y20087D01*
D02*
G37*
G36*
X1920920D02*
X1919449Y19795D01*
X1918202Y18961D01*
X1917368Y17715D01*
X1917076Y16243D01*
X1917368Y14772D01*
X1918202Y13525D01*
X1919449Y12692D01*
X1920920Y12400D01*
X1922391Y12692D01*
X1923638Y13525D01*
X1924471Y14772D01*
X1924764Y16243D01*
X1924471Y17715D01*
X1923638Y18961D01*
X1922391Y19795D01*
X1920920Y20087D01*
D02*
G37*
G36*
X1908737D02*
X1907266Y19795D01*
X1906019Y18961D01*
X1905186Y17715D01*
X1904893Y16243D01*
X1905186Y14772D01*
X1906019Y13525D01*
X1907266Y12692D01*
X1908737Y12400D01*
X1910208Y12692D01*
X1911455Y13525D01*
X1912288Y14772D01*
X1912581Y16243D01*
X1912288Y17715D01*
X1911455Y18961D01*
X1910208Y19795D01*
X1908737Y20087D01*
D02*
G37*
G36*
X1898893D02*
X1897422Y19795D01*
X1896175Y18961D01*
X1895342Y17715D01*
X1895049Y16243D01*
X1895342Y14772D01*
X1896175Y13525D01*
X1897422Y12692D01*
X1898893Y12400D01*
X1900364Y12692D01*
X1901611Y13525D01*
X1902444Y14772D01*
X1902737Y16243D01*
X1902444Y17715D01*
X1901611Y18961D01*
X1900364Y19795D01*
X1898893Y20087D01*
D02*
G37*
G36*
X3426000Y18990D02*
X3424529Y18697D01*
X3423282Y17864D01*
X3422449Y16617D01*
X3422156Y15146D01*
X3422449Y13675D01*
X3423282Y12428D01*
X3424529Y11595D01*
X3426000Y11302D01*
X3427471Y11595D01*
X3428718Y12428D01*
X3429551Y13675D01*
X3429844Y15146D01*
X3429551Y16617D01*
X3428718Y17864D01*
X3427471Y18697D01*
X3426000Y18990D01*
D02*
G37*
G36*
X794958Y18831D02*
X793390Y18519D01*
X792060Y17630D01*
X791171Y16301D01*
X790859Y14732D01*
X791171Y13163D01*
X792060Y11834D01*
X793390Y10945D01*
X794958Y10633D01*
X796527Y10945D01*
X797856Y11834D01*
X798745Y13163D01*
X799057Y14732D01*
X798745Y16301D01*
X797856Y17630D01*
X796527Y18519D01*
X794958Y18831D01*
D02*
G37*
G36*
X806810Y18019D02*
X805339Y17727D01*
X804092Y16894D01*
X803259Y15647D01*
X802966Y14175D01*
X803259Y12704D01*
X804092Y11458D01*
X805339Y10624D01*
X806810Y10332D01*
X808281Y10624D01*
X809528Y11458D01*
X810361Y12704D01*
X810654Y14175D01*
X810361Y15647D01*
X809528Y16894D01*
X808281Y17727D01*
X806810Y18019D01*
D02*
G37*
G36*
X816471Y17801D02*
X815000Y17509D01*
X813753Y16675D01*
X812920Y15429D01*
X812627Y13958D01*
X812920Y12486D01*
X813753Y11239D01*
X815000Y10406D01*
X816471Y10114D01*
X817942Y10406D01*
X819189Y11239D01*
X820022Y12486D01*
X820315Y13958D01*
X820022Y15429D01*
X819189Y16675D01*
X817942Y17509D01*
X816471Y17801D01*
D02*
G37*
G36*
X2826988Y17560D02*
X2825517Y17267D01*
X2824270Y16434D01*
X2823437Y15187D01*
X2823144Y13716D01*
X2823437Y12245D01*
X2824270Y10998D01*
X2825517Y10165D01*
X2826988Y9872D01*
X2828459Y10165D01*
X2829706Y10998D01*
X2830539Y12245D01*
X2830832Y13716D01*
X2830539Y15187D01*
X2829706Y16434D01*
X2828459Y17267D01*
X2826988Y17560D01*
D02*
G37*
G36*
X4101223Y16990D02*
X4099752Y16697D01*
X4098505Y15864D01*
X4097671Y14617D01*
X4097379Y13146D01*
X4097671Y11675D01*
X4098505Y10428D01*
X4099752Y9595D01*
X4101223Y9302D01*
X4102693Y9595D01*
X4103940Y10428D01*
X4104774Y11675D01*
X4105066Y13146D01*
X4104774Y14617D01*
X4103940Y15864D01*
X4102693Y16697D01*
X4101223Y16990D01*
D02*
G37*
G36*
X3231177Y16741D02*
X3229706Y16448D01*
X3228459Y15615D01*
X3227626Y14368D01*
X3227333Y12897D01*
X3227626Y11426D01*
X3228459Y10179D01*
X3229706Y9345D01*
X3231177Y9053D01*
X3232648Y9345D01*
X3233895Y10179D01*
X3234729Y11426D01*
X3235021Y12897D01*
X3234729Y14368D01*
X3233895Y15615D01*
X3232648Y16448D01*
X3231177Y16741D01*
D02*
G37*
G36*
X2364211Y15734D02*
X2362740Y15441D01*
X2361493Y14608D01*
X2360660Y13361D01*
X2360367Y11890D01*
X2360660Y10419D01*
X2361493Y9172D01*
X2362740Y8339D01*
X2364211Y8046D01*
X2365682Y8339D01*
X2366929Y9172D01*
X2367762Y10419D01*
X2368055Y11890D01*
X2367762Y13361D01*
X2366929Y14608D01*
X2365682Y15441D01*
X2364211Y15734D01*
D02*
G37*
G36*
X856340Y14004D02*
X854869Y13711D01*
X853622Y12878D01*
X852789Y11631D01*
X852496Y10160D01*
X852789Y8689D01*
X853622Y7442D01*
X854869Y6609D01*
X856340Y6316D01*
X857811Y6609D01*
X859058Y7442D01*
X859891Y8689D01*
X860184Y10160D01*
X859891Y11631D01*
X859058Y12878D01*
X857811Y13711D01*
X856340Y14004D01*
D02*
G37*
G36*
X1891729Y13999D02*
X1890258Y13707D01*
X1889011Y12874D01*
X1888178Y11626D01*
X1887885Y10156D01*
X1888178Y8684D01*
X1889011Y7437D01*
X1890258Y6604D01*
X1891729Y6312D01*
X1893200Y6604D01*
X1894447Y7437D01*
X1895280Y8684D01*
X1895573Y10156D01*
X1895280Y11626D01*
X1894447Y12874D01*
X1893200Y13707D01*
X1891729Y13999D01*
D02*
G37*
G36*
X320142Y13344D02*
X318671Y13051D01*
X317424Y12218D01*
X316590Y10971D01*
X316298Y9500D01*
X316590Y8029D01*
X317424Y6782D01*
X318671Y5949D01*
X320142Y5656D01*
X321613Y5949D01*
X322860Y6782D01*
X323693Y8029D01*
X323985Y9500D01*
X323693Y10971D01*
X322860Y12218D01*
X321613Y13051D01*
X320142Y13344D01*
D02*
G37*
G36*
X2719722Y13703D02*
X2718153Y13391D01*
X2716824Y12503D01*
X2715935Y11173D01*
X2715623Y9604D01*
X2715935Y8036D01*
X2716824Y6706D01*
X2718153Y5818D01*
X2719722Y5506D01*
X2721291Y5818D01*
X2722620Y6706D01*
X2723509Y8036D01*
X2723821Y9604D01*
X2723509Y11173D01*
X2722620Y12503D01*
X2721291Y13391D01*
X2719722Y13703D01*
D02*
G37*
G36*
X3660900Y12734D02*
X3659429Y12441D01*
X3658182Y11608D01*
X3657349Y10361D01*
X3657056Y8890D01*
X3657349Y7419D01*
X3658182Y6172D01*
X3659429Y5339D01*
X3660900Y5046D01*
X3662371Y5339D01*
X3663618Y6172D01*
X3664451Y7419D01*
X3664744Y8890D01*
X3664451Y10361D01*
X3663618Y11608D01*
X3662371Y12441D01*
X3660900Y12734D01*
D02*
G37*
G36*
X3482766D02*
X3481294Y12441D01*
X3480047Y11608D01*
X3479214Y10361D01*
X3478922Y8890D01*
X3479214Y7419D01*
X3480047Y6172D01*
X3481294Y5339D01*
X3482766Y5046D01*
X3484236Y5339D01*
X3485483Y6172D01*
X3486317Y7419D01*
X3486609Y8890D01*
X3486317Y10361D01*
X3485483Y11608D01*
X3484236Y12441D01*
X3482766Y12734D01*
D02*
G37*
G36*
X3469485D02*
X3468015Y12441D01*
X3466768Y11608D01*
X3465934Y10361D01*
X3465642Y8890D01*
X3465934Y7419D01*
X3466768Y6172D01*
X3468015Y5339D01*
X3469485Y5046D01*
X3470956Y5339D01*
X3472204Y6172D01*
X3473037Y7419D01*
X3473329Y8890D01*
X3473037Y10361D01*
X3472204Y11608D01*
X3470956Y12441D01*
X3469485Y12734D01*
D02*
G37*
G36*
X3267736D02*
X3266265Y12441D01*
X3265018Y11608D01*
X3264185Y10361D01*
X3263892Y8890D01*
X3264185Y7419D01*
X3265018Y6172D01*
X3266265Y5339D01*
X3267736Y5046D01*
X3269207Y5339D01*
X3270454Y6172D01*
X3271287Y7419D01*
X3271580Y8890D01*
X3271287Y10361D01*
X3270454Y11608D01*
X3269207Y12441D01*
X3267736Y12734D01*
D02*
G37*
G36*
X1954633D02*
X1953162Y12441D01*
X1951915Y11608D01*
X1951081Y10361D01*
X1950789Y8890D01*
X1951081Y7419D01*
X1951915Y6172D01*
X1953162Y5339D01*
X1954633Y5046D01*
X1956104Y5339D01*
X1957351Y6172D01*
X1958184Y7419D01*
X1958476Y8890D01*
X1958184Y10361D01*
X1957351Y11608D01*
X1956104Y12441D01*
X1954633Y12734D01*
D02*
G37*
G36*
X3837454Y12734D02*
X3835982Y12441D01*
X3834735Y11608D01*
X3833902Y10361D01*
X3833610Y8890D01*
X3833902Y7419D01*
X3834735Y6172D01*
X3835982Y5339D01*
X3837454Y5046D01*
X3838925Y5339D01*
X3840172Y6172D01*
X3841005Y7419D01*
X3841297Y8890D01*
X3841005Y10361D01*
X3840172Y11608D01*
X3838925Y12441D01*
X3837454Y12734D01*
D02*
G37*
G36*
X4198071Y13152D02*
X4196502Y12840D01*
X4195173Y11952D01*
X4194284Y10622D01*
X4193972Y9054D01*
X4194284Y7485D01*
X4195173Y6155D01*
X4196502Y5267D01*
X4198071Y4955D01*
X4199640Y5267D01*
X4200969Y6155D01*
X4201858Y7485D01*
X4202170Y9054D01*
X4201858Y10622D01*
X4200969Y11952D01*
X4199640Y12840D01*
X4198071Y13152D01*
D02*
G37*
G36*
X2093631Y12620D02*
X2092160Y12327D01*
X2090913Y11494D01*
X2090079Y10247D01*
X2089787Y8776D01*
X2090079Y7305D01*
X2090913Y6058D01*
X2092160Y5225D01*
X2093631Y4932D01*
X2095102Y5225D01*
X2096349Y6058D01*
X2097182Y7305D01*
X2097475Y8776D01*
X2097182Y10247D01*
X2096349Y11494D01*
X2095102Y12327D01*
X2093631Y12620D01*
D02*
G37*
G36*
X842856Y12335D02*
X841287Y12023D01*
X839958Y11135D01*
X839069Y9805D01*
X838757Y8236D01*
X839069Y6668D01*
X839958Y5338D01*
X841287Y4450D01*
X842856Y4138D01*
X844424Y4450D01*
X845754Y5338D01*
X846643Y6668D01*
X846954Y8236D01*
X846643Y9805D01*
X845754Y11135D01*
X844424Y12023D01*
X842856Y12335D01*
D02*
G37*
G36*
X759774Y11094D02*
X758303Y10801D01*
X757056Y9968D01*
X756223Y8721D01*
X755930Y7250D01*
X756223Y5779D01*
X757056Y4532D01*
X758303Y3699D01*
X759774Y3406D01*
X761245Y3699D01*
X762492Y4532D01*
X763325Y5779D01*
X763618Y7250D01*
X763325Y8721D01*
X762492Y9968D01*
X761245Y10801D01*
X759774Y11094D01*
D02*
G37*
G36*
X653480Y10956D02*
X652009Y10663D01*
X650762Y9830D01*
X649929Y8583D01*
X649636Y7112D01*
X649929Y5641D01*
X650762Y4394D01*
X652009Y3561D01*
X653480Y3268D01*
X654951Y3561D01*
X656198Y4394D01*
X657031Y5641D01*
X657324Y7112D01*
X657031Y8583D01*
X656198Y9830D01*
X654951Y10663D01*
X653480Y10956D01*
D02*
G37*
G36*
X1614791Y10944D02*
X1613320Y10651D01*
X1612073Y9818D01*
X1611240Y8571D01*
X1610948Y7100D01*
X1611240Y5629D01*
X1612073Y4382D01*
X1613320Y3549D01*
X1614791Y3256D01*
X1616262Y3549D01*
X1617509Y4382D01*
X1618343Y5629D01*
X1618635Y7100D01*
X1618343Y8571D01*
X1617509Y9818D01*
X1616262Y10651D01*
X1614791Y10944D01*
D02*
G37*
G36*
X2917320Y10931D02*
X2915848Y10639D01*
X2914601Y9806D01*
X2913768Y8558D01*
X2913476Y7088D01*
X2913768Y5616D01*
X2914601Y4369D01*
X2915848Y3536D01*
X2917320Y3244D01*
X2918791Y3536D01*
X2920038Y4369D01*
X2920871Y5616D01*
X2921163Y7088D01*
X2920871Y8558D01*
X2920038Y9806D01*
X2918791Y10639D01*
X2917320Y10931D01*
D02*
G37*
%LPD*%
D60*
X1722117Y37804D02*
Y78232D01*
X776357Y78125D02*
X786420D01*
X749954Y51722D02*
X776357Y78125D01*
X749954Y46873D02*
Y51722D01*
X1504835Y7100D02*
X1518549D01*
X1541866Y30417D01*
Y75441D01*
X3377412Y50306D02*
Y76414D01*
X3335995Y8890D02*
X3377412Y50306D01*
X3377413Y76414D02*
X3426000Y125001D01*
X3377412Y76414D02*
X3377413D01*
X3158432Y37867D02*
X3196979Y76414D01*
X3154817Y34253D02*
X3158432Y37867D01*
X3451000Y125001D02*
X3456000Y130001D01*
X3426000Y125001D02*
X3451000D01*
X3154817Y8890D02*
Y34253D01*
X2685526Y61925D02*
Y86853D01*
X2668575Y103804D02*
X2685526Y86853D01*
X1707683Y23370D02*
X1722117Y37804D01*
X2912974Y87886D02*
X2921148D01*
X2907136Y82049D02*
X2912974Y87886D01*
X2907136Y58821D02*
Y82049D01*
X2044552Y33120D02*
X2075080D01*
X2078970Y29230D01*
X2035479Y24048D02*
X2044552Y33120D01*
X426462Y25109D02*
Y36830D01*
X410854Y9500D02*
X426462Y25109D01*
X389942Y9500D02*
X410854D01*
X230760D02*
X244613Y23353D01*
Y46670D01*
X205865Y9500D02*
X230760D01*
X4467400Y10717D02*
X4503922Y47240D01*
X4452286Y10717D02*
X4467400D01*
X4503922Y47240D02*
Y103100D01*
X4298268Y9500D02*
X4324426Y35658D01*
X4269870Y9500D02*
X4298268D01*
X3728340Y8890D02*
X3765010D01*
X3786401Y30280D01*
X3547044Y9462D02*
X3586687D01*
X3604282Y27057D01*
X2489689Y103336D02*
X2490157Y103804D01*
X2485371Y103336D02*
X2489689D01*
X2434779Y52744D02*
X2485371Y103336D01*
X2434779Y9342D02*
Y52744D01*
X2283595Y69007D02*
Y102600D01*
X2252880Y38291D02*
X2283595Y69007D01*
X2252880Y11995D02*
Y38291D01*
X1667480Y23370D02*
X1707683D01*
X1354285Y62182D02*
X1360074D01*
X1316205Y24102D02*
X1354285Y62182D01*
X1105828Y5125D02*
Y15877D01*
X1147897Y57946D01*
X924820Y37326D02*
X964269Y76775D01*
X924820Y6195D02*
Y37326D01*
X3786401Y103472D02*
X3788886Y105958D01*
X3786401Y30280D02*
Y103472D01*
X2887798Y65683D02*
X2893874Y59607D01*
X2887798Y65683D02*
Y117923D01*
X2906398Y58083D02*
X2907136Y58821D01*
X2100121Y34481D02*
Y93610D01*
X2090361Y103370D02*
X2100121Y93610D01*
X2094870Y29230D02*
X2100121Y34481D01*
X3021982Y78151D02*
X3028370Y84539D01*
X3021982Y66093D02*
Y78151D01*
X3028370Y84539D02*
Y104300D01*
X4324426Y35658D02*
X4324494Y35726D01*
Y104888D01*
X4146420Y45682D02*
X4156920Y35182D01*
X4146420Y45682D02*
Y102754D01*
X3965430Y60932D02*
X3970180Y56182D01*
X3965430Y60932D02*
Y105031D01*
X3604282Y27057D02*
Y105504D01*
X3604737Y105958D01*
X2078970Y29230D02*
X2094870D01*
X1912320Y58299D02*
Y103370D01*
X1904391Y50370D02*
X1912320Y58299D01*
X1893774Y50370D02*
X1904391D01*
D63*
X3970180Y56182D02*
D03*
Y45182D02*
D03*
X3981180D02*
D03*
Y56182D02*
D03*
X661420Y58500D02*
D03*
X650420D02*
D03*
Y47500D02*
D03*
X661420D02*
D03*
X1928920Y50370D02*
D03*
X1917920D02*
D03*
Y39370D02*
D03*
X1928920D02*
D03*
X2892898Y35963D02*
D03*
X2914176Y46964D02*
D03*
Y58083D02*
D03*
Y35963D02*
D03*
X2903898D02*
D03*
X2892898Y47083D02*
D03*
X2903898D02*
D03*
X2892898Y58083D02*
D03*
X2903898D02*
D03*
D64*
X2921148Y87886D02*
D03*
X2846524Y37226D02*
D03*
X2873214Y7204D02*
D03*
X2759371Y33841D02*
D03*
X2848076Y67313D02*
D03*
X2911898Y11345D02*
D03*
X1722117Y78232D02*
D03*
X749954Y46873D02*
D03*
X3335995Y8890D02*
D03*
X3377412Y76414D02*
D03*
X3456000Y130001D02*
D03*
X3426000Y125001D02*
D03*
X3387805Y102848D02*
D03*
X3158432Y37867D02*
D03*
X1541866Y75441D02*
D03*
X2685526Y61925D02*
D03*
X3975680Y30932D02*
D03*
X389942Y9500D02*
D03*
X205865D02*
D03*
X4452286Y10717D02*
D03*
X4269870Y9500D02*
D03*
X3913607Y10158D02*
D03*
X3728340Y8890D02*
D03*
X3547044Y9462D02*
D03*
X3154817Y8890D02*
D03*
X2975179Y9345D02*
D03*
X2434779Y9342D02*
D03*
X2035479Y24048D02*
D03*
X2283595Y102600D02*
D03*
X2252880Y11995D02*
D03*
X2041980Y5000D02*
D03*
X774013Y14175D02*
D03*
X1858355Y8176D02*
D03*
X1667480Y23370D02*
D03*
X1504835Y7100D02*
D03*
X1316205Y24102D02*
D03*
X1105828Y5125D02*
D03*
X924820Y6195D02*
D03*
X749954Y20261D02*
D03*
X566500Y10540D02*
D03*
X2887798Y117923D02*
D03*
X786420Y78125D02*
D03*
X2721722Y50986D02*
D03*
X2691957Y48286D02*
D03*
X2796366Y9604D02*
D03*
X2815410Y35963D02*
D03*
X3021982Y66093D02*
D03*
X4503922Y103100D02*
D03*
X4324426Y35658D02*
D03*
X4324494Y104888D02*
D03*
X4156920Y35182D02*
D03*
X4146420Y102754D02*
D03*
X4083160Y18158D02*
D03*
X4025350Y63432D02*
D03*
X3965430Y105031D02*
D03*
X3788886Y105958D02*
D03*
X3604737D02*
D03*
X3196979Y76414D02*
D03*
X3028370Y104300D02*
D03*
X2616113Y10716D02*
D03*
X2668575Y103804D02*
D03*
X2490157D02*
D03*
X2335465Y99600D02*
D03*
Y144624D02*
D03*
X2287042D02*
D03*
X1181560Y105175D02*
D03*
X1221031D02*
D03*
Y141952D02*
D03*
X1181560D02*
D03*
X2090361Y103370D02*
D03*
X2078970Y29230D02*
D03*
X1912320Y103370D02*
D03*
X1893774Y50370D02*
D03*
X1360074Y62182D02*
D03*
X1147897Y57946D02*
D03*
X964269Y76775D02*
D03*
X707920Y54737D02*
D03*
X604704Y48049D02*
D03*
X426462Y36830D02*
D03*
X244613Y46670D02*
D03*
M02*
