G04*
G04 #@! TF.GenerationSoftware,Altium Limited,Altium Designer,19.1.8 (144)*
G04*
G04 Layer_Physical_Order=6*
G04 Layer_Color=16711680*
%FSLAX44Y44*%
%MOMM*%
G71*
G01*
G75*
%ADD15C,0.2540*%
%ADD60C,0.1524*%
%ADD61C,1.1500*%
%ADD62C,0.6000*%
%ADD63C,0.5500*%
%ADD64C,0.5000*%
G36*
X3409003Y165262D02*
X3408282Y164780D01*
X3407449Y163533D01*
X3407156Y162062D01*
X3407449Y160591D01*
X3408282Y159344D01*
X3408928Y158912D01*
Y107839D01*
X3389064Y87975D01*
X3388615Y87303D01*
X3388457Y86510D01*
X3388457Y86510D01*
Y34579D01*
X3387811Y34147D01*
X3386978Y32900D01*
X3386685Y31429D01*
X3386978Y29958D01*
X3387811Y28711D01*
X3389058Y27878D01*
X3390529Y27585D01*
X3392000Y27878D01*
X3393247Y28711D01*
X3394080Y29958D01*
X3394373Y31429D01*
X3394080Y32900D01*
X3393247Y34147D01*
X3392601Y34579D01*
Y85652D01*
X3395577Y88628D01*
X3396747Y88003D01*
X3396656Y87544D01*
X3396949Y86073D01*
X3397782Y84826D01*
X3399029Y83993D01*
X3400500Y83700D01*
X3401971Y83993D01*
X3403218Y84826D01*
X3404051Y86073D01*
X3404344Y87544D01*
X3404192Y88306D01*
X3417465Y101579D01*
X3417465Y101579D01*
X3417658Y101868D01*
X3418928Y101483D01*
Y73172D01*
X3417658Y72493D01*
X3417337Y72707D01*
X3415866Y73000D01*
X3414395Y72707D01*
X3413148Y71874D01*
X3412315Y70627D01*
X3412022Y69156D01*
X3412315Y67685D01*
X3413148Y66438D01*
X3414395Y65605D01*
X3415866Y65312D01*
X3417337Y65605D01*
X3417658Y65819D01*
X3418928Y65141D01*
Y37098D01*
X3404995Y23165D01*
X3372772D01*
X3364690Y31247D01*
X3364018Y31696D01*
X3363225Y31854D01*
X3363224Y31854D01*
X2965404D01*
X2964878Y33124D01*
X2989623Y57869D01*
X2989774Y57839D01*
X2991245Y58132D01*
X2992492Y58965D01*
X2993326Y60212D01*
X2993618Y61683D01*
X2993326Y63154D01*
X2993164Y63396D01*
X2993842Y64666D01*
X2999698D01*
X3000182Y63941D01*
X3001429Y63107D01*
X3002900Y62815D01*
X3004372Y63107D01*
X3005619Y63941D01*
X3006452Y65188D01*
X3006646Y66166D01*
X3099427D01*
Y57887D01*
X3098781Y57455D01*
X3097947Y56208D01*
X3097655Y54737D01*
X3097947Y53266D01*
X3098781Y52019D01*
X3100027Y51185D01*
X3101499Y50893D01*
X3102970Y51185D01*
X3104217Y52019D01*
X3105050Y53266D01*
X3105342Y54737D01*
X3105050Y56208D01*
X3104217Y57455D01*
X3103570Y57887D01*
Y66166D01*
X3169709D01*
X3170580Y64896D01*
X3170552Y64759D01*
X3170552Y64759D01*
Y41017D01*
X3169906Y40585D01*
X3169073Y39338D01*
X3168780Y37867D01*
X3169073Y36396D01*
X3169906Y35149D01*
X3171153Y34316D01*
X3172624Y34024D01*
X3174095Y34316D01*
X3175342Y35149D01*
X3176175Y36396D01*
X3176468Y37867D01*
X3176175Y39338D01*
X3175342Y40585D01*
X3174696Y41017D01*
Y63901D01*
X3176961Y66166D01*
X3346085D01*
Y57696D01*
X3345534Y57328D01*
X3344701Y56081D01*
X3344408Y54610D01*
X3344701Y53139D01*
X3345534Y51892D01*
X3346781Y51059D01*
X3348252Y50766D01*
X3349723Y51059D01*
X3350970Y51892D01*
X3351804Y53139D01*
X3352096Y54610D01*
X3351804Y56081D01*
X3350970Y57328D01*
X3350229Y57824D01*
Y66166D01*
X3361244D01*
X3362221Y65459D01*
Y51095D01*
X3361575Y50664D01*
X3360742Y49417D01*
X3360450Y47946D01*
X3360742Y46475D01*
X3361575Y45227D01*
X3362822Y44394D01*
X3364293Y44102D01*
X3365764Y44394D01*
X3367011Y45227D01*
X3367845Y46475D01*
X3368137Y47946D01*
X3367845Y49417D01*
X3367011Y50664D01*
X3366365Y51095D01*
Y76750D01*
X3367011Y77182D01*
X3367845Y78429D01*
X3368137Y79900D01*
X3367845Y81371D01*
X3367011Y82618D01*
X3365764Y83451D01*
X3364293Y83744D01*
X3362822Y83451D01*
X3362514Y83245D01*
X3361244Y83924D01*
X3361244Y166532D01*
X3408618D01*
X3409003Y165262D01*
D02*
G37*
G36*
X1253589Y66592D02*
X1134082D01*
X1134082Y166532D01*
X1253589D01*
Y66592D01*
D02*
G37*
G36*
X2373968Y66166D02*
X2464194D01*
Y27330D01*
X2464177Y27318D01*
X2463344Y26071D01*
X2463051Y24600D01*
X2463344Y23129D01*
X2464177Y21882D01*
X2465424Y21049D01*
X2466895Y20756D01*
X2468366Y21049D01*
X2469613Y21882D01*
X2470446Y23129D01*
X2470739Y24600D01*
X2470446Y26071D01*
X2469613Y27318D01*
X2468366Y28151D01*
X2468338Y28157D01*
Y66166D01*
X2614739D01*
X2614864Y64896D01*
X2614319Y64788D01*
X2613072Y63954D01*
X2612238Y62707D01*
X2611946Y61236D01*
X2612238Y59765D01*
X2613072Y58518D01*
X2613718Y58087D01*
Y33298D01*
X2613718Y33297D01*
X2613876Y32504D01*
X2614325Y31832D01*
X2638018Y8139D01*
X2638018Y8139D01*
X2638690Y7690D01*
X2639483Y7533D01*
X2639483Y7533D01*
X2715884D01*
X2716529Y6692D01*
X2716015Y5497D01*
X2614072D01*
X2609189Y10381D01*
X2608517Y10830D01*
X2607724Y10988D01*
X2607723Y10988D01*
X2547289D01*
X2525708Y32569D01*
X2525859Y33331D01*
X2525567Y34802D01*
X2524733Y36049D01*
X2523486Y36883D01*
X2522015Y37175D01*
X2520544Y36883D01*
X2519297Y36049D01*
X2518464Y34802D01*
X2518172Y33331D01*
X2518464Y31860D01*
X2519297Y30613D01*
X2520544Y29780D01*
X2522015Y29488D01*
X2522778Y29639D01*
X2544966Y7451D01*
X2544966Y7451D01*
X2545638Y7002D01*
X2546431Y6844D01*
X2606866D01*
X2610996Y2713D01*
X2610470Y1444D01*
X2600038D01*
X2599985Y1502D01*
X2599930Y1711D01*
X2598806Y3188D01*
X2598619Y3297D01*
X2598504Y3479D01*
X2596986Y4548D01*
X2596775Y4595D01*
X2596609Y4734D01*
X2594840Y5294D01*
X2594625Y5275D01*
X2594425Y5358D01*
X2592569Y5357D01*
X2592369Y5275D01*
X2592154Y5293D01*
X2590385Y4732D01*
X2590219Y4592D01*
X2590008Y4545D01*
X2588492Y3475D01*
X2588376Y3292D01*
X2588189Y3183D01*
X2587067Y1706D01*
X2587011Y1496D01*
X2586964Y1444D01*
X2420037D01*
X2419988Y1497D01*
X2419933Y1706D01*
X2418810Y3185D01*
X2418623Y3293D01*
X2418507Y3476D01*
X2416990Y4546D01*
X2416779Y4593D01*
X2416613Y4733D01*
X2414843Y5294D01*
X2414628Y5275D01*
X2414428Y5358D01*
X2412572Y5358D01*
X2412372Y5275D01*
X2412156Y5293D01*
X2410387Y4733D01*
X2410221Y4593D01*
X2410010Y4546D01*
X2408492Y3476D01*
X2408377Y3293D01*
X2408190Y3184D01*
X2407067Y1706D01*
X2407012Y1497D01*
X2406963Y1444D01*
X2206038D01*
X2205986Y1500D01*
X2205931Y1710D01*
X2204807Y3187D01*
X2204621Y3296D01*
X2204505Y3478D01*
X2202987Y4547D01*
X2202776Y4595D01*
X2202611Y4734D01*
X2200841Y5294D01*
X2200626Y5275D01*
X2200426Y5358D01*
X2198570Y5357D01*
X2198370Y5275D01*
X2198154Y5293D01*
X2196385Y4732D01*
X2196220Y4593D01*
X2196009Y4545D01*
X2194492Y3476D01*
X2194376Y3293D01*
X2194189Y3184D01*
X2193067Y1706D01*
X2193012Y1496D01*
X2192964Y1444D01*
X2151716D01*
X2151186Y2435D01*
X2151178Y2713D01*
X2151454Y4100D01*
X2151161Y5571D01*
X2150328Y6818D01*
X2149081Y7651D01*
X2147610Y7944D01*
X2146139Y7651D01*
X2144892Y6818D01*
X2144402Y6086D01*
X2097838D01*
X2097170Y7130D01*
X2097192Y7356D01*
X2097475Y8776D01*
X2097182Y10247D01*
X2096349Y11494D01*
X2095102Y12327D01*
X2093631Y12620D01*
X2092160Y12327D01*
X2090913Y11494D01*
X2090481Y10848D01*
X2068788D01*
X2065902Y13733D01*
X2066428Y15003D01*
X2099874D01*
X2099874Y15003D01*
X2100667Y15161D01*
X2101339Y15610D01*
X2126982Y41254D01*
X2127431Y41926D01*
X2127589Y42719D01*
X2127589Y42719D01*
Y56571D01*
X2133807Y62789D01*
X2148451D01*
X2171108Y40132D01*
X2170957Y39370D01*
X2171249Y37899D01*
X2172082Y36652D01*
X2172886Y36115D01*
X2172501Y34845D01*
X2166117D01*
X2165753Y35761D01*
X2165680Y36115D01*
X2166471Y37299D01*
X2166764Y38770D01*
X2166471Y40241D01*
X2165638Y41488D01*
X2164391Y42321D01*
X2162920Y42614D01*
X2161449Y42321D01*
X2160202Y41488D01*
X2159368Y40241D01*
X2159076Y38770D01*
X2159274Y37772D01*
X2158104Y37146D01*
X2140472Y54778D01*
X2140380Y55241D01*
X2139547Y56488D01*
X2138300Y57321D01*
X2136829Y57614D01*
X2135358Y57321D01*
X2134111Y56488D01*
X2133277Y55241D01*
X2132985Y53770D01*
X2133277Y52299D01*
X2134111Y51052D01*
X2135358Y50219D01*
X2136829Y49926D01*
X2138300Y50219D01*
X2138822Y50568D01*
X2158082Y31308D01*
X2158754Y30859D01*
X2159547Y30701D01*
X2159547Y30701D01*
X2196225D01*
X2196225Y30701D01*
X2197018Y30859D01*
X2197690Y31308D01*
X2216753Y50371D01*
X2217319Y50258D01*
X2218790Y50551D01*
X2220038Y51384D01*
X2220871Y52631D01*
X2221163Y54102D01*
X2220871Y55573D01*
X2220038Y56820D01*
X2218790Y57653D01*
X2217319Y57946D01*
X2215849Y57653D01*
X2214601Y56820D01*
X2213768Y55573D01*
X2213476Y54102D01*
X2213666Y53144D01*
X2195367Y34845D01*
X2177100D01*
X2176715Y36115D01*
X2177518Y36652D01*
X2178352Y37899D01*
X2178644Y39370D01*
X2178352Y40841D01*
X2177518Y42088D01*
X2176271Y42921D01*
X2174800Y43214D01*
X2174038Y43062D01*
X2152108Y64993D01*
X2152594Y66166D01*
X2156465D01*
X2167896Y54735D01*
X2167770Y54102D01*
X2168063Y52631D01*
X2168896Y51384D01*
X2170143Y50551D01*
X2171614Y50258D01*
X2173085Y50551D01*
X2174332Y51384D01*
X2175166Y52631D01*
X2175458Y54102D01*
X2175166Y55573D01*
X2174332Y56820D01*
X2173085Y57653D01*
X2171614Y57946D01*
X2170722Y57769D01*
X2163498Y64993D01*
X2163984Y66166D01*
X2172127D01*
X2180126Y58166D01*
X2179975Y57404D01*
X2180267Y55933D01*
X2181101Y54686D01*
X2182348Y53853D01*
X2183819Y53560D01*
X2185290Y53853D01*
X2186537Y54686D01*
X2187370Y55933D01*
X2187663Y57404D01*
X2187370Y58875D01*
X2186537Y60122D01*
X2185290Y60955D01*
X2183819Y61248D01*
X2183056Y61096D01*
X2179160Y64993D01*
X2179646Y66166D01*
X2246151D01*
X2246151Y166532D01*
X2373968D01*
X2373968Y66166D01*
D02*
G37*
G36*
X4611562Y1444D02*
X4434037D01*
X4433988Y1497D01*
X4433933Y1706D01*
X4432810Y3184D01*
X4432623Y3293D01*
X4432508Y3476D01*
X4430990Y4546D01*
X4430779Y4593D01*
X4430614Y4732D01*
X4428844Y5293D01*
X4428629Y5275D01*
X4428429Y5358D01*
X4426572Y5358D01*
X4426372Y5275D01*
X4426157Y5294D01*
X4424387Y4733D01*
X4424221Y4593D01*
X4424011Y4546D01*
X4422493Y3476D01*
X4422377Y3294D01*
X4422191Y3185D01*
X4421067Y1707D01*
X4421012Y1497D01*
X4420963Y1444D01*
X4253937D01*
X4253897Y1487D01*
X4253841Y1695D01*
X4252732Y3142D01*
X4252546Y3250D01*
X4252430Y3431D01*
X4250937Y4477D01*
X4250727Y4524D01*
X4250562Y4663D01*
X4248824Y5211D01*
X4248609Y5192D01*
X4248410Y5274D01*
X4246587Y5274D01*
X4246388Y5192D01*
X4246174Y5210D01*
X4244435Y4661D01*
X4244271Y4523D01*
X4244060Y4476D01*
X4242568Y3430D01*
X4242452Y3248D01*
X4242266Y3140D01*
X4241158Y1693D01*
X4241102Y1485D01*
X4241064Y1444D01*
X4053440D01*
X4053125Y1943D01*
X4052958Y2713D01*
X4055014Y4770D01*
X4102512D01*
X4102512Y4770D01*
X4103305Y4928D01*
X4103977Y5377D01*
X4111385Y12785D01*
X4111385Y12785D01*
X4111834Y13457D01*
X4111992Y14250D01*
X4111992Y14250D01*
Y16708D01*
X4112818Y17260D01*
X4113707Y18590D01*
X4114019Y20158D01*
X4113707Y21727D01*
X4113647Y21816D01*
X4114230Y22908D01*
X4115497Y23015D01*
X4123685Y14827D01*
X4123693Y14550D01*
X4123424Y13885D01*
X4122079Y13550D01*
X4121488Y13945D01*
X4119920Y14257D01*
X4118351Y13945D01*
X4117021Y13056D01*
X4116133Y11727D01*
X4115821Y10158D01*
X4116133Y8590D01*
X4117021Y7260D01*
X4118351Y6371D01*
X4119920Y6059D01*
X4121488Y6371D01*
X4122818Y7260D01*
X4123407Y8142D01*
X4124134Y8545D01*
X4124975Y8457D01*
X4125851Y7871D01*
X4127420Y7559D01*
X4128988Y7871D01*
X4130318Y8760D01*
X4131207Y10090D01*
X4131519Y11658D01*
X4131232Y13100D01*
X4131553Y13631D01*
X4132064Y14230D01*
X4132920Y14059D01*
X4134488Y14371D01*
X4135818Y15260D01*
X4136707Y16590D01*
X4137018Y18158D01*
X4136707Y19727D01*
X4135818Y21056D01*
X4134488Y21945D01*
X4132920Y22257D01*
X4131945Y22063D01*
X4119193Y34815D01*
X4118521Y35264D01*
X4117728Y35422D01*
X4117727Y35422D01*
X4104712D01*
X4096459Y43675D01*
X4095787Y44124D01*
X4094994Y44282D01*
X4094994Y44282D01*
X4084104D01*
X4084104Y44282D01*
X4083311Y44124D01*
X4082639Y43675D01*
X4082639Y43675D01*
X4062642Y23677D01*
X3996078D01*
X3995705Y24722D01*
X3995662Y24948D01*
X3996471Y26158D01*
X3996764Y27629D01*
X3996471Y29100D01*
X3995638Y30347D01*
X3994391Y31180D01*
X3992920Y31473D01*
X3991449Y31180D01*
X3990202Y30347D01*
X3989369Y29100D01*
X3989076Y27629D01*
X3989369Y26158D01*
X3990177Y24948D01*
X3990134Y24722D01*
X3989762Y23677D01*
X3909923D01*
X3909371Y24504D01*
X3908041Y25392D01*
X3906473Y25704D01*
X3904904Y25392D01*
X3903575Y24504D01*
X3902686Y23174D01*
X3902374Y21606D01*
X3902420Y21376D01*
X3901249Y20751D01*
X3900454Y21545D01*
X3899782Y21995D01*
X3898989Y22152D01*
X3898989Y22152D01*
X3845338D01*
X3845338Y22152D01*
X3844545Y21995D01*
X3843873Y21545D01*
X3843873Y21545D01*
X3838051Y15724D01*
X3678008D01*
X3677216Y15566D01*
X3676544Y15117D01*
X3676543Y15117D01*
X3672388Y10962D01*
X3664050D01*
X3663618Y11608D01*
X3662371Y12441D01*
X3660900Y12734D01*
X3659429Y12441D01*
X3658182Y11608D01*
X3657349Y10361D01*
X3657056Y8890D01*
X3657349Y7419D01*
X3658182Y6172D01*
X3659429Y5339D01*
X3660900Y5046D01*
X3662371Y5339D01*
X3663618Y6172D01*
X3664050Y6818D01*
X3673246D01*
X3673246Y6818D01*
X3674039Y6976D01*
X3674712Y7425D01*
X3678867Y11580D01*
X3833246D01*
X3833914Y10536D01*
X3833892Y10310D01*
X3833610Y8890D01*
X3833902Y7419D01*
X3834735Y6172D01*
X3835982Y5339D01*
X3837454Y5046D01*
X3838925Y5339D01*
X3840172Y6172D01*
X3840603Y6818D01*
X3895598D01*
X3899702Y2713D01*
X3899535Y1943D01*
X3899220Y1444D01*
X3894037D01*
X3893987Y1499D01*
X3893932Y1708D01*
X3892809Y3185D01*
X3892622Y3295D01*
X3892506Y3477D01*
X3890988Y4546D01*
X3890778Y4594D01*
X3890612Y4733D01*
X3888842Y5294D01*
X3888627Y5275D01*
X3888427Y5358D01*
X3886571Y5358D01*
X3886371Y5275D01*
X3886155Y5293D01*
X3884386Y4732D01*
X3884221Y4593D01*
X3884010Y4545D01*
X3882492Y3476D01*
X3882377Y3293D01*
X3882190Y3184D01*
X3881067Y1706D01*
X3881012Y1497D01*
X3880963Y1444D01*
X3714037D01*
X3713987Y1499D01*
X3713932Y1708D01*
X3712809Y3185D01*
X3712622Y3294D01*
X3712506Y3477D01*
X3710989Y4545D01*
X3710778Y4593D01*
X3710612Y4732D01*
X3708844Y5293D01*
X3708628Y5274D01*
X3708428Y5357D01*
X3706573Y5357D01*
X3706373Y5275D01*
X3706158Y5293D01*
X3704388Y4733D01*
X3704223Y4593D01*
X3704012Y4546D01*
X3702495Y3477D01*
X3702379Y3295D01*
X3702192Y3186D01*
X3701069Y1709D01*
X3701014Y1500D01*
X3700963Y1444D01*
X3534037D01*
X3533987Y1499D01*
X3533932Y1708D01*
X3532808Y3186D01*
X3532621Y3295D01*
X3532505Y3478D01*
X3530988Y4547D01*
X3530777Y4594D01*
X3530612Y4733D01*
X3528842Y5294D01*
X3528626Y5275D01*
X3528427Y5358D01*
X3526570Y5358D01*
X3526371Y5275D01*
X3526155Y5293D01*
X3524386Y4732D01*
X3524220Y4593D01*
X3524009Y4545D01*
X3522492Y3476D01*
X3522376Y3293D01*
X3522190Y3184D01*
X3521067Y1706D01*
X3521012Y1497D01*
X3520963Y1444D01*
X3447679D01*
X3447280Y2498D01*
X3447268Y2713D01*
X3470951Y26396D01*
X3470951Y26396D01*
X3471400Y27068D01*
X3471557Y27861D01*
X3471557Y27861D01*
Y109695D01*
X3471400Y110488D01*
X3470951Y111160D01*
X3470951Y111160D01*
X3449777Y132334D01*
X3449929Y133096D01*
X3449636Y134567D01*
X3448803Y135814D01*
X3447556Y136647D01*
X3446085Y136940D01*
X3444614Y136647D01*
X3443367Y135814D01*
X3442534Y134567D01*
X3442281Y133297D01*
X3441011Y133422D01*
Y146157D01*
X3450324Y155470D01*
X3451086Y155318D01*
X3452557Y155611D01*
X3453805Y156444D01*
X3454638Y157691D01*
X3454930Y159162D01*
X3454638Y160633D01*
X3453805Y161880D01*
X3452557Y162713D01*
X3451086Y163006D01*
X3449615Y162713D01*
X3448369Y161880D01*
X3447535Y160633D01*
X3447243Y159162D01*
X3447394Y158400D01*
X3437474Y148480D01*
X3437025Y147808D01*
X3436867Y147015D01*
X3436867Y147015D01*
Y131102D01*
X3436867Y131101D01*
X3437025Y130309D01*
X3437474Y129636D01*
X3438727Y128384D01*
Y102647D01*
X3437457Y101968D01*
X3437430Y101986D01*
X3435959Y102279D01*
X3434489Y101986D01*
X3433241Y101153D01*
X3432408Y99906D01*
X3432115Y98435D01*
X3432408Y96964D01*
X3433241Y95717D01*
X3433888Y95285D01*
Y93544D01*
X3432617Y92865D01*
X3432471Y92963D01*
X3431000Y93256D01*
X3430370Y93131D01*
X3429551Y94191D01*
X3429844Y95662D01*
X3429551Y97133D01*
X3428718Y98380D01*
X3427471Y99213D01*
X3426000Y99506D01*
X3424529Y99213D01*
X3424342Y99088D01*
X3423072Y99767D01*
Y129946D01*
X3423718Y130378D01*
X3424551Y131625D01*
X3424844Y133096D01*
X3424551Y134567D01*
X3423718Y135814D01*
X3422471Y136647D01*
X3421000Y136940D01*
X3419529Y136647D01*
X3419342Y136522D01*
X3418072Y137201D01*
Y154512D01*
X3418718Y154944D01*
X3419551Y156191D01*
X3419844Y157662D01*
X3419551Y159133D01*
X3418718Y160380D01*
X3417471Y161213D01*
X3416027Y161501D01*
X3415873Y161540D01*
X3414746Y162551D01*
X3414551Y163533D01*
X3413718Y164780D01*
X3412997Y165262D01*
X3413382Y166532D01*
X3492552D01*
X3492552Y66166D01*
X3577755D01*
Y57760D01*
X3577108Y57328D01*
X3576275Y56081D01*
X3575983Y54610D01*
X3576275Y53139D01*
X3577108Y51892D01*
X3578356Y51059D01*
X3579827Y50766D01*
X3581298Y51059D01*
X3582545Y51892D01*
X3583378Y53139D01*
X3583670Y54610D01*
X3583378Y56081D01*
X3582545Y57328D01*
X3581898Y57760D01*
Y66166D01*
X3759521D01*
Y60650D01*
X3758875Y60218D01*
X3758042Y58971D01*
X3757749Y57500D01*
X3758032Y56080D01*
X3758054Y55854D01*
X3757386Y54810D01*
X3742803D01*
X3742551Y56075D01*
X3741718Y57322D01*
X3740471Y58155D01*
X3739000Y58448D01*
X3737529Y58155D01*
X3736282Y57322D01*
X3735449Y56075D01*
X3735156Y54604D01*
X3735449Y53133D01*
X3736282Y51886D01*
X3737529Y51053D01*
X3739000Y50760D01*
X3739900Y50939D01*
X3740073Y50824D01*
X3740866Y50666D01*
X3740866Y50666D01*
X3768416D01*
X3768417Y50666D01*
X3769209Y50824D01*
X3769882Y51273D01*
X3784774Y66166D01*
X3811308D01*
X3821701Y55773D01*
X3821550Y55010D01*
X3821842Y53539D01*
X3822675Y52292D01*
X3823923Y51459D01*
X3825393Y51167D01*
X3826865Y51459D01*
X3828112Y52292D01*
X3828945Y53539D01*
X3829237Y55010D01*
X3828945Y56481D01*
X3828112Y57728D01*
X3826865Y58562D01*
X3825393Y58854D01*
X3824631Y58703D01*
X3818341Y64993D01*
X3818827Y66166D01*
X3926200D01*
Y51332D01*
X3925554Y50900D01*
X3924721Y49653D01*
X3924428Y48182D01*
X3924721Y46711D01*
X3925554Y45464D01*
X3926801Y44631D01*
X3928272Y44338D01*
X3929743Y44631D01*
X3930990Y45464D01*
X3931823Y46711D01*
X3932116Y48182D01*
X3931823Y49653D01*
X3930990Y50900D01*
X3930344Y51332D01*
Y66166D01*
X3943094D01*
X3943579Y64993D01*
X3935107Y56520D01*
X3934545Y55680D01*
X3934348Y54689D01*
Y45041D01*
X3924547Y35239D01*
X3845891D01*
X3844900Y35042D01*
X3844060Y34481D01*
X3832249Y22670D01*
X3722991D01*
X3712401Y33261D01*
X3711560Y33822D01*
X3710569Y34019D01*
X3520300D01*
X3499734Y54585D01*
X3499763Y54737D01*
X3499471Y56208D01*
X3498638Y57455D01*
X3497391Y58288D01*
X3495920Y58581D01*
X3494449Y58288D01*
X3493202Y57455D01*
X3492368Y56208D01*
X3492076Y54737D01*
X3492368Y53266D01*
X3493202Y52019D01*
X3494449Y51185D01*
X3495920Y50893D01*
X3496071Y50923D01*
X3517396Y29598D01*
X3518236Y29037D01*
X3519227Y28839D01*
X3709496D01*
X3720087Y18249D01*
X3720927Y17688D01*
X3721918Y17491D01*
X3833322D01*
X3834313Y17688D01*
X3835153Y18249D01*
X3846964Y30060D01*
X3925620D01*
X3926611Y30257D01*
X3927451Y30818D01*
X3938769Y42137D01*
X3939331Y42977D01*
X3939528Y43968D01*
Y53616D01*
X3949043Y63131D01*
X3985538D01*
X3997069Y51601D01*
X3997909Y51039D01*
X3998900Y50842D01*
X4005746D01*
X4006737Y51039D01*
X4007577Y51601D01*
X4007610Y51649D01*
X4013244Y57284D01*
X4014915D01*
X4024449Y47751D01*
X4025289Y47189D01*
X4026280Y46992D01*
X4085778D01*
X4085864Y46864D01*
X4087111Y46031D01*
X4088582Y45738D01*
X4090052Y46031D01*
X4091300Y46864D01*
X4092133Y48111D01*
X4092426Y49582D01*
X4092133Y51053D01*
X4091300Y52300D01*
X4090052Y53133D01*
X4088582Y53426D01*
X4087111Y53133D01*
X4085864Y52300D01*
X4085778Y52172D01*
X4027353D01*
X4017893Y61631D01*
X4017924Y61782D01*
X4017631Y63253D01*
X4016798Y64500D01*
X4016205Y64896D01*
X4016591Y66166D01*
X4474810D01*
X4474810Y166532D01*
X4611562D01*
Y1444D01*
D02*
G37*
G36*
X144258Y66166D02*
X742379Y66166D01*
X742865Y64993D01*
X740389Y62516D01*
X726991D01*
X726198Y62359D01*
X725526Y61910D01*
X725526Y61909D01*
X715133Y51516D01*
X679263D01*
X678470Y51359D01*
X677798Y50910D01*
X677798Y50910D01*
X661955Y35067D01*
X661506Y34395D01*
X661348Y33602D01*
X661348Y33602D01*
Y27150D01*
X660702Y26718D01*
X659868Y25471D01*
X659576Y24000D01*
X659868Y22529D01*
X660702Y21282D01*
X661949Y20449D01*
X663420Y20156D01*
X664891Y20449D01*
X666138Y21282D01*
X666971Y22529D01*
X667264Y24000D01*
X666971Y25471D01*
X666138Y26718D01*
X665492Y27150D01*
Y32743D01*
X680121Y47373D01*
X715991D01*
X715991Y47373D01*
X716784Y47530D01*
X717456Y47980D01*
X727849Y58373D01*
X741247D01*
X741247Y58373D01*
X742040Y58531D01*
X742712Y58980D01*
X749899Y66166D01*
X788764D01*
X789250Y64993D01*
X786571Y62314D01*
X786420Y62344D01*
X784949Y62051D01*
X784048Y61450D01*
X749870D01*
X748879Y61253D01*
X748039Y60691D01*
X731938Y44590D01*
X689860D01*
X689774Y44718D01*
X688527Y45551D01*
X687056Y45844D01*
X685585Y45551D01*
X684338Y44718D01*
X683505Y43471D01*
X683212Y42000D01*
X683505Y40529D01*
X684338Y39282D01*
X685585Y38449D01*
X687056Y38156D01*
X688527Y38449D01*
X689774Y39282D01*
X689860Y39410D01*
X733010D01*
X734002Y39608D01*
X734842Y40169D01*
X739119Y44446D01*
X740105Y43636D01*
X739784Y43156D01*
X739492Y41685D01*
X739644Y40923D01*
X724950Y26230D01*
X724501Y25557D01*
X724343Y24765D01*
X724343Y24764D01*
Y21750D01*
X723517Y21198D01*
X722628Y19869D01*
X722316Y18300D01*
X722628Y16731D01*
X723517Y15402D01*
X724846Y14513D01*
X726415Y14201D01*
X727983Y14513D01*
X729313Y15402D01*
X730202Y16731D01*
X730514Y18300D01*
X730202Y19869D01*
X729313Y21198D01*
X728487Y21750D01*
Y23906D01*
X742573Y37993D01*
X743336Y37841D01*
X744807Y38134D01*
X746054Y38967D01*
X746887Y40214D01*
X747180Y41685D01*
X746887Y43156D01*
X746054Y44403D01*
X744807Y45237D01*
X743336Y45529D01*
X741865Y45237D01*
X741385Y44916D01*
X740575Y45902D01*
X750943Y56270D01*
X757788D01*
X758467Y55000D01*
X758405Y54909D01*
X758093Y53340D01*
X758405Y51771D01*
X759294Y50442D01*
X759861Y50062D01*
X759839Y49755D01*
X759480Y48790D01*
X758205Y48537D01*
X756876Y47648D01*
X755987Y46319D01*
X755675Y44750D01*
X755987Y43182D01*
X756876Y41852D01*
X757702Y41300D01*
Y10400D01*
X757056Y9968D01*
X756223Y8721D01*
X755930Y7250D01*
X756223Y5779D01*
X757056Y4532D01*
X758303Y3699D01*
X759774Y3406D01*
X761245Y3699D01*
X762492Y4532D01*
X763325Y5779D01*
X763618Y7250D01*
X763325Y8721D01*
X762492Y9968D01*
X761846Y10400D01*
Y41300D01*
X762672Y41852D01*
X763561Y43182D01*
X763873Y44750D01*
X763561Y46319D01*
X762808Y47446D01*
X762975Y48330D01*
X763195Y48826D01*
X763674Y48928D01*
X765425Y47177D01*
Y13958D01*
X765425Y13958D01*
X765583Y13165D01*
X766032Y12493D01*
X771374Y7150D01*
X771374Y7150D01*
X772046Y6701D01*
X772114Y6688D01*
X776089Y2713D01*
X775563Y1444D01*
X732037D01*
X731988Y1498D01*
X731933Y1707D01*
X730809Y3185D01*
X730622Y3294D01*
X730507Y3477D01*
X728989Y4546D01*
X728778Y4594D01*
X728612Y4733D01*
X726843Y5294D01*
X726627Y5275D01*
X726427Y5358D01*
X724571Y5358D01*
X724371Y5275D01*
X724156Y5293D01*
X722386Y4732D01*
X722221Y4593D01*
X722010Y4545D01*
X720492Y3476D01*
X720377Y3293D01*
X720190Y3184D01*
X719067Y1706D01*
X719012Y1497D01*
X718963Y1444D01*
X552317D01*
X552237Y1534D01*
X552183Y1746D01*
X551019Y3309D01*
X550831Y3421D01*
X550716Y3607D01*
X549130Y4739D01*
X548918Y4789D01*
X548751Y4930D01*
X546895Y5525D01*
X546677Y5507D01*
X546476Y5591D01*
X544527Y5591D01*
X544325Y5508D01*
X544107Y5526D01*
X542251Y4931D01*
X542085Y4790D01*
X541872Y4741D01*
X540286Y3608D01*
X540170Y3423D01*
X539982Y3311D01*
X538818Y1748D01*
X538764Y1537D01*
X538682Y1444D01*
X372038D01*
X371987Y1500D01*
X371931Y1709D01*
X370808Y3186D01*
X370622Y3295D01*
X370506Y3477D01*
X368989Y4546D01*
X368779Y4593D01*
X368613Y4733D01*
X366845Y5293D01*
X366629Y5275D01*
X366430Y5357D01*
X364574Y5358D01*
X364375Y5275D01*
X364159Y5294D01*
X362391Y4734D01*
X362225Y4595D01*
X362014Y4548D01*
X360497Y3480D01*
X360381Y3297D01*
X360194Y3189D01*
X359071Y1713D01*
X359015Y1504D01*
X358961Y1444D01*
X192037D01*
X191988Y1498D01*
X191933Y1707D01*
X190809Y3185D01*
X190623Y3294D01*
X190507Y3477D01*
X188989Y4546D01*
X188778Y4593D01*
X188613Y4733D01*
X186843Y5294D01*
X186628Y5275D01*
X186428Y5358D01*
X184571Y5358D01*
X184371Y5275D01*
X184156Y5293D01*
X182386Y4732D01*
X182221Y4593D01*
X182010Y4545D01*
X180492Y3476D01*
X180377Y3293D01*
X180190Y3184D01*
X179067Y1706D01*
X179012Y1497D01*
X178964Y1444D01*
X2986D01*
X2986Y166532D01*
X144258D01*
X144258Y66166D01*
D02*
G37*
G36*
X1981924Y66166D02*
X1985397Y62693D01*
X1984587Y61707D01*
X1984277Y61914D01*
X1983484Y62072D01*
X1983484Y62072D01*
X1981147D01*
X1980594Y62898D01*
X1979265Y63787D01*
X1977696Y64099D01*
X1976127Y63787D01*
X1974798Y62898D01*
X1973909Y61568D01*
X1973597Y60000D01*
X1973909Y58431D01*
X1974798Y57102D01*
X1976127Y56213D01*
X1977696Y55901D01*
X1979265Y56213D01*
X1980594Y57102D01*
X1980953Y57638D01*
X1982293Y57676D01*
X1982655Y57225D01*
X1982651Y57066D01*
X1982366Y55812D01*
X1981298Y55098D01*
X1980409Y53768D01*
X1980097Y52200D01*
X1980409Y50631D01*
X1981298Y49302D01*
X1982124Y48749D01*
Y32051D01*
X1982124Y32051D01*
X1982282Y31258D01*
X1982731Y30586D01*
X2005020Y8297D01*
X2005692Y7848D01*
X2006485Y7690D01*
X2006485Y7690D01*
X2055542D01*
X2060518Y2713D01*
X2060396Y2048D01*
X2060051Y1444D01*
X2026062D01*
X2026014Y1497D01*
X2025960Y1708D01*
X2024838Y3204D01*
X2024651Y3314D01*
X2024535Y3499D01*
X2023011Y4582D01*
X2022799Y4631D01*
X2022633Y4771D01*
X2020852Y5340D01*
X2020635Y5322D01*
X2020434Y5405D01*
X2018564Y5405D01*
X2018363Y5321D01*
X2018146Y5339D01*
X2016365Y4771D01*
X2016199Y4630D01*
X2015987Y4581D01*
X2014464Y3498D01*
X2014348Y3313D01*
X2014160Y3202D01*
X2013039Y1706D01*
X2012985Y1496D01*
X2012939Y1444D01*
X1958647D01*
X1958120Y2713D01*
X1960860Y5453D01*
X1960860Y5453D01*
X1961309Y6125D01*
X1961466Y6918D01*
X1961466Y6918D01*
Y19615D01*
X1962732Y19763D01*
X1963565Y18516D01*
X1964812Y17683D01*
X1966283Y17390D01*
X1967754Y17683D01*
X1969001Y18516D01*
X1969834Y19763D01*
X1970127Y21234D01*
X1969834Y22705D01*
X1969001Y23952D01*
X1968355Y24384D01*
Y38963D01*
X1969012Y39402D01*
X1969845Y40649D01*
X1970138Y42120D01*
X1969845Y43591D01*
X1969012Y44838D01*
X1967765Y45671D01*
X1966294Y45964D01*
X1964823Y45671D01*
X1963576Y44838D01*
X1962743Y43591D01*
X1962450Y42120D01*
X1962743Y40649D01*
X1963576Y39402D01*
X1964211Y38978D01*
Y24384D01*
X1963565Y23952D01*
X1962732Y22705D01*
X1961466Y22853D01*
Y25117D01*
X1961309Y25909D01*
X1960860Y26581D01*
X1960860Y26581D01*
X1959588Y27853D01*
Y36220D01*
X1960234Y36652D01*
X1961067Y37899D01*
X1961360Y39370D01*
X1961067Y40841D01*
X1960234Y42088D01*
X1958987Y42921D01*
X1957516Y43214D01*
X1956045Y42921D01*
X1955910Y42831D01*
X1954498Y43415D01*
X1954440Y43710D01*
X1953607Y44957D01*
X1952360Y45790D01*
X1952181Y45826D01*
X1951763Y47204D01*
X1963954Y59395D01*
X1964322Y59322D01*
X1965793Y59615D01*
X1967040Y60448D01*
X1967873Y61695D01*
X1968166Y63166D01*
X1967873Y64637D01*
X1967700Y64896D01*
X1968379Y66166D01*
X1981924D01*
D02*
G37*
G36*
X1510906Y66166D02*
X1511392Y64993D01*
X1494093Y47693D01*
X860176D01*
X842876Y64993D01*
X843362Y66166D01*
X857858D01*
X860969Y63055D01*
X860969Y63055D01*
X861641Y62606D01*
X862434Y62448D01*
X1345135D01*
X1345567Y61802D01*
X1346814Y60969D01*
X1348285Y60676D01*
X1349756Y60969D01*
X1351003Y61802D01*
X1351836Y63049D01*
X1352129Y64520D01*
X1352054Y64896D01*
X1353096Y66166D01*
X1510906D01*
D02*
G37*
G36*
X3438727Y55005D02*
Y17864D01*
X3432397Y11534D01*
X3429532D01*
X3429459Y11614D01*
X3428969Y12804D01*
X3429551Y13675D01*
X3429844Y15146D01*
X3429551Y16617D01*
X3428718Y17864D01*
X3428072Y18296D01*
Y23314D01*
X3429342Y23992D01*
X3429529Y23867D01*
X3431000Y23575D01*
X3432471Y23867D01*
X3433718Y24701D01*
X3434551Y25947D01*
X3434844Y27418D01*
X3434551Y28890D01*
X3433718Y30136D01*
X3433058Y30577D01*
Y54869D01*
X3434103Y55538D01*
X3434329Y55515D01*
X3435749Y55233D01*
X3437220Y55525D01*
X3437457Y55684D01*
X3438727Y55005D01*
D02*
G37*
G36*
X2856157Y66166D02*
X2856643Y64993D01*
X2846675Y55025D01*
X2846524Y55055D01*
X2845053Y54762D01*
X2843806Y53929D01*
X2842973Y52682D01*
X2842680Y51211D01*
X2842710Y51060D01*
X2841324Y49673D01*
X2787174D01*
X2787091Y49887D01*
X2786963Y50943D01*
X2787988Y51627D01*
X2788821Y52874D01*
X2789113Y54345D01*
X2788821Y55816D01*
X2787988Y57063D01*
X2787342Y57495D01*
Y61159D01*
X2787988Y61591D01*
X2788821Y62838D01*
X2789113Y64309D01*
X2788997Y64896D01*
X2789974Y66166D01*
X2856157D01*
D02*
G37*
G36*
X2096511Y66166D02*
X2096997Y64993D01*
X2086847Y54843D01*
X2085636Y55109D01*
X2085492Y55284D01*
X2084688Y56488D01*
X2083441Y57321D01*
X2081970Y57614D01*
X2080499Y57321D01*
X2079252Y56488D01*
X2078515Y56416D01*
X2075132Y59798D01*
X2074460Y60247D01*
X2073667Y60405D01*
X2073667Y60405D01*
X2021897D01*
X2021465Y61051D01*
X2020218Y61884D01*
X2018747Y62177D01*
X2017276Y61884D01*
X2016029Y61051D01*
X2015195Y59804D01*
X2014903Y58333D01*
X2015038Y57652D01*
X2013868Y57027D01*
X2005902Y64993D01*
X2006388Y66166D01*
X2096511D01*
D02*
G37*
G36*
X2066972Y55833D02*
X2067239Y54991D01*
X2066505Y53893D01*
X2066193Y52324D01*
X2066505Y50756D01*
X2067394Y49426D01*
X2068723Y48537D01*
X2070292Y48225D01*
X2071861Y48537D01*
X2073190Y49426D01*
X2074079Y50756D01*
X2074391Y52324D01*
X2074252Y53022D01*
X2075422Y53648D01*
X2076765Y52305D01*
X2076765Y52305D01*
X2077437Y51856D01*
X2078230Y51698D01*
X2078820D01*
X2079252Y51052D01*
X2080456Y50248D01*
X2080631Y50104D01*
X2080897Y48893D01*
X2076185Y44181D01*
X2065247D01*
X2064568Y45451D01*
X2064953Y46027D01*
X2065246Y47498D01*
X2064953Y48969D01*
X2064120Y50216D01*
X2062873Y51049D01*
X2061402Y51342D01*
X2059931Y51049D01*
X2058684Y50216D01*
X2057851Y48969D01*
X2057558Y47498D01*
X2057851Y46027D01*
X2058236Y45451D01*
X2057557Y44181D01*
X2026714D01*
X2017440Y53454D01*
X2018066Y54625D01*
X2018747Y54489D01*
X2020218Y54782D01*
X2021465Y55615D01*
X2021897Y56261D01*
X2066677D01*
X2066972Y55833D01*
D02*
G37*
G36*
X2917413Y66166D02*
X2927776Y55802D01*
Y42671D01*
X2927974Y41680D01*
X2928535Y40840D01*
X2934679Y34695D01*
X2934649Y34544D01*
X2934932Y33124D01*
X2934954Y32898D01*
X2934286Y31854D01*
X2885956D01*
X2874357Y43453D01*
X2873685Y43902D01*
X2872892Y44060D01*
X2872892Y44060D01*
X2844729D01*
X2844334Y44998D01*
X2844305Y45330D01*
X2846373Y47397D01*
X2846524Y47367D01*
X2847995Y47660D01*
X2849242Y48493D01*
X2850075Y49740D01*
X2850368Y51211D01*
X2850338Y51362D01*
X2865142Y66166D01*
X2917413Y66166D01*
D02*
G37*
G36*
X2113705Y65322D02*
X2114058Y64838D01*
X2114442Y63928D01*
X2114210Y62758D01*
X2114502Y61287D01*
X2115335Y60040D01*
X2115464Y59954D01*
Y54211D01*
X2107305Y46053D01*
X2107154Y46083D01*
X2105683Y45790D01*
X2104436Y44957D01*
X2103602Y43710D01*
X2103310Y42239D01*
X2103340Y42088D01*
X2086249Y24997D01*
X2060134D01*
X2056924Y28207D01*
X2056954Y28358D01*
X2056662Y29829D01*
X2055829Y31076D01*
X2054581Y31909D01*
X2054563Y31913D01*
X2054688Y33183D01*
X2080178D01*
X2080179Y33183D01*
X2080971Y33341D01*
X2081644Y33790D01*
X2085408Y37554D01*
X2086578Y36929D01*
X2086517Y36620D01*
X2086809Y35149D01*
X2087643Y33902D01*
X2088890Y33069D01*
X2090361Y32776D01*
X2091832Y33069D01*
X2093079Y33902D01*
X2093912Y35149D01*
X2094205Y36620D01*
X2093912Y38091D01*
X2093079Y39338D01*
X2091832Y40171D01*
X2090361Y40464D01*
X2090052Y40403D01*
X2089427Y41573D01*
X2113244Y65390D01*
X2113705Y65322D01*
D02*
G37*
G36*
X2765366Y66166D02*
X2765751Y64896D01*
X2765010Y64401D01*
X2764177Y63154D01*
X2763884Y61683D01*
X2764177Y60212D01*
X2765010Y58965D01*
X2766257Y58132D01*
X2767728Y57839D01*
X2767879Y57869D01*
X2780496Y45252D01*
X2781336Y44690D01*
X2782328Y44493D01*
X2814001D01*
X2814604Y43223D01*
X2814256Y42797D01*
X2745554D01*
X2744761Y42640D01*
X2744399Y42398D01*
X2678008D01*
X2677152Y43253D01*
Y47836D01*
X2677798Y48268D01*
X2678632Y49515D01*
X2678924Y50986D01*
X2678632Y52457D01*
X2677798Y53704D01*
X2676552Y54537D01*
X2675081Y54830D01*
X2673610Y54537D01*
X2672362Y53704D01*
X2671529Y52457D01*
X2671237Y50986D01*
X2671529Y49515D01*
X2672362Y48268D01*
X2673009Y47836D01*
Y42395D01*
X2673009Y42395D01*
X2673167Y41602D01*
X2673615Y40930D01*
X2675684Y38861D01*
X2676356Y38412D01*
X2677149Y38254D01*
X2677149Y38254D01*
X2745154D01*
X2745154Y38254D01*
X2745947Y38412D01*
X2746309Y38654D01*
X2769162D01*
X2769330Y37392D01*
X2768083Y36559D01*
X2767250Y35312D01*
X2766957Y33841D01*
X2767250Y32370D01*
X2768083Y31123D01*
X2769330Y30290D01*
X2770801Y29997D01*
X2772272Y30290D01*
X2773519Y31123D01*
X2774352Y32370D01*
X2774645Y33841D01*
X2774352Y35312D01*
X2773519Y36559D01*
X2772272Y37392D01*
X2772440Y38654D01*
X2815835D01*
X2815835Y38654D01*
X2816628Y38811D01*
X2817300Y39260D01*
X2817956Y39916D01*
X2872034D01*
X2883633Y28317D01*
X2883633Y28317D01*
X2884305Y27868D01*
X2885098Y27710D01*
X3362367D01*
X3370449Y19628D01*
X3371121Y19179D01*
X3371914Y19021D01*
X3371914Y19021D01*
X3405852D01*
X3405852Y19021D01*
X3406646Y19179D01*
X3407318Y19628D01*
X3422465Y34775D01*
X3422465Y34775D01*
X3422658Y35064D01*
X3423928Y34679D01*
Y18296D01*
X3423282Y17864D01*
X3422449Y16617D01*
X3422156Y15146D01*
X3422449Y13675D01*
X3423031Y12804D01*
X3422542Y11614D01*
X3422468Y11534D01*
X3373513D01*
X3359619Y25427D01*
X3358947Y25876D01*
X3358155Y26034D01*
X3358154Y26034D01*
X2853912D01*
X2845149Y34796D01*
X2844477Y35245D01*
X2843684Y35403D01*
X2843684Y35403D01*
X2826880D01*
X2826880Y35403D01*
X2826088Y35245D01*
X2825415Y34796D01*
X2825415Y34796D01*
X2819123Y28504D01*
X2682838D01*
X2668089Y43253D01*
Y58776D01*
X2668735Y59207D01*
X2669568Y60454D01*
X2669861Y61925D01*
X2669568Y63396D01*
X2668735Y64643D01*
X2668357Y64896D01*
X2668742Y66166D01*
X2765366D01*
D02*
G37*
G36*
X842608Y57936D02*
X841983Y56765D01*
X841372Y56887D01*
X839901Y56594D01*
X838653Y55761D01*
X837820Y54514D01*
X837528Y53043D01*
X837820Y51572D01*
X838653Y50325D01*
X839901Y49492D01*
X841353Y49203D01*
X841395Y49138D01*
X841833Y47996D01*
X841573Y47822D01*
X840740Y46575D01*
X840447Y45104D01*
X840740Y43633D01*
X841573Y42386D01*
X842219Y41954D01*
Y25197D01*
X839945Y22923D01*
X838775Y23548D01*
X838865Y24000D01*
X838552Y25568D01*
X837664Y26898D01*
X836837Y27450D01*
Y43023D01*
X837484Y43455D01*
X838317Y44702D01*
X838610Y46173D01*
X838317Y47644D01*
X837484Y48891D01*
X836237Y49724D01*
X834766Y50017D01*
X833295Y49724D01*
X832048Y48891D01*
X831215Y47644D01*
X830922Y46173D01*
X831215Y44702D01*
X832048Y43455D01*
X832694Y43023D01*
Y27450D01*
X831868Y26898D01*
X830979Y25568D01*
X830667Y24000D01*
X830979Y22431D01*
X831868Y21102D01*
X833197Y20213D01*
X834766Y19901D01*
X835217Y19991D01*
X835843Y18821D01*
X828290Y11267D01*
X820678D01*
X820010Y12312D01*
X820032Y12537D01*
X820315Y13958D01*
X820022Y15429D01*
X819309Y16496D01*
Y26088D01*
X819955Y26520D01*
X820788Y27767D01*
X821081Y29238D01*
X820788Y30709D01*
X819955Y31956D01*
X818708Y32789D01*
X817237Y33082D01*
X815766Y32789D01*
X814519Y31956D01*
X814357Y31714D01*
X814260Y31681D01*
X812888Y31801D01*
X812371Y32574D01*
X811124Y33408D01*
X809653Y33700D01*
X808182Y33408D01*
X806935Y32574D01*
X806102Y31327D01*
X805809Y29856D01*
X806102Y28385D01*
X806935Y27138D01*
X808182Y26305D01*
X809653Y26012D01*
X811124Y26305D01*
X812371Y27138D01*
X812533Y27381D01*
X812629Y27413D01*
X814002Y27294D01*
X814519Y26520D01*
X815165Y26088D01*
Y17542D01*
X815000Y17509D01*
X813753Y16675D01*
X812920Y15429D01*
X812627Y13958D01*
X812910Y12537D01*
X812932Y12312D01*
X812263Y11267D01*
X810928D01*
X810250Y12537D01*
X810361Y12704D01*
X810654Y14175D01*
X810361Y15647D01*
X809528Y16894D01*
X808281Y17727D01*
X806810Y18019D01*
X806659Y17989D01*
X789009Y35639D01*
Y55696D01*
X789138Y55782D01*
X789971Y57029D01*
X790264Y58500D01*
X790233Y58651D01*
X793770Y62188D01*
X808813D01*
X809024Y61664D01*
X809057Y60886D01*
X807237Y60132D01*
X807164Y60059D01*
X807066Y60018D01*
X807000Y60005D01*
X806943Y59967D01*
X806784Y59901D01*
X806375Y59587D01*
X805362Y58910D01*
X805283Y58793D01*
X805153Y58740D01*
X804769Y58356D01*
X804416Y58084D01*
X804144Y57731D01*
X803760Y57347D01*
X803707Y57217D01*
X803589Y57138D01*
X802913Y56125D01*
X802599Y55716D01*
X802533Y55557D01*
X802495Y55500D01*
X802482Y55434D01*
X802441Y55336D01*
X802368Y55263D01*
X801614Y53443D01*
Y53339D01*
X801574Y53242D01*
X801536Y53185D01*
X801523Y53119D01*
X801457Y52959D01*
X801389Y52448D01*
X801152Y51253D01*
X801179Y51115D01*
X801125Y50985D01*
Y50442D01*
X801067Y50000D01*
X801125Y49558D01*
Y49015D01*
X801179Y48885D01*
X801152Y48747D01*
X801389Y47551D01*
X801457Y47041D01*
X801523Y46881D01*
X801536Y46815D01*
X801574Y46758D01*
X801614Y46661D01*
Y46557D01*
X802368Y44737D01*
X802441Y44664D01*
X802482Y44566D01*
X802495Y44500D01*
X802533Y44443D01*
X802599Y44284D01*
X802912Y43875D01*
X803589Y42862D01*
X803707Y42783D01*
X803760Y42653D01*
X804145Y42269D01*
X804416Y41916D01*
X804769Y41645D01*
X805153Y41260D01*
X805283Y41206D01*
X805362Y41090D01*
X806375Y40412D01*
X806784Y40099D01*
X806943Y40033D01*
X807000Y39995D01*
X807066Y39982D01*
X807164Y39941D01*
X807237Y39868D01*
X809057Y39114D01*
X809161D01*
X809258Y39074D01*
X809315Y39036D01*
X809381Y39023D01*
X809541Y38957D01*
X810051Y38890D01*
X811247Y38652D01*
X811385Y38679D01*
X811515Y38625D01*
X812058D01*
X812500Y38567D01*
X812942Y38625D01*
X813485D01*
X813615Y38679D01*
X813753Y38652D01*
X814948Y38890D01*
X815459Y38957D01*
X815619Y39023D01*
X815685Y39036D01*
X815742Y39074D01*
X815839Y39114D01*
X815943D01*
X817763Y39868D01*
X817836Y39941D01*
X817934Y39982D01*
X818000Y39995D01*
X818057Y40033D01*
X818216Y40099D01*
X818625Y40413D01*
X819638Y41090D01*
X819717Y41207D01*
X819847Y41260D01*
X820231Y41644D01*
X820584Y41916D01*
X820856Y42269D01*
X821239Y42653D01*
X821293Y42783D01*
X821411Y42862D01*
X822087Y43875D01*
X822401Y44284D01*
X822467Y44443D01*
X822505Y44500D01*
X822518Y44566D01*
X822559Y44664D01*
X822632Y44737D01*
X823386Y46557D01*
Y46661D01*
X823426Y46759D01*
X823464Y46815D01*
X823477Y46881D01*
X823543Y47041D01*
X823611Y47552D01*
X823848Y48747D01*
X823821Y48885D01*
X823875Y49015D01*
Y49558D01*
X823933Y50000D01*
X823875Y50442D01*
Y50985D01*
X823821Y51115D01*
X823848Y51253D01*
X823611Y52448D01*
X823543Y52959D01*
X823477Y53119D01*
X823464Y53185D01*
X823426Y53241D01*
X823386Y53339D01*
Y53443D01*
X822632Y55263D01*
X822559Y55336D01*
X822518Y55434D01*
X822505Y55500D01*
X822467Y55557D01*
X822401Y55716D01*
X822087Y56125D01*
X821411Y57138D01*
X821293Y57217D01*
X821239Y57347D01*
X820856Y57730D01*
X820584Y58084D01*
X820230Y58356D01*
X819847Y58740D01*
X819716Y58793D01*
X819638Y58910D01*
X818625Y59587D01*
X818216Y59901D01*
X818057Y59967D01*
X818000Y60005D01*
X817934Y60018D01*
X817836Y60059D01*
X817763Y60132D01*
X815943Y60886D01*
X815976Y61666D01*
X816186Y62188D01*
X838356D01*
X842608Y57936D01*
D02*
G37*
G36*
X3444614Y129545D02*
X3446085Y129252D01*
X3446847Y129404D01*
X3467414Y108837D01*
Y28719D01*
X3444894Y6200D01*
X3433781D01*
X3433656Y7470D01*
X3434048Y7548D01*
X3434720Y7997D01*
X3442264Y15540D01*
X3442264Y15540D01*
X3442713Y16213D01*
X3442870Y17005D01*
X3442870Y17006D01*
Y39906D01*
X3444141Y40291D01*
X3444544Y39688D01*
X3445791Y38854D01*
X3447262Y38562D01*
X3448733Y38854D01*
X3449980Y39688D01*
X3450813Y40935D01*
X3451039Y42071D01*
X3452334D01*
X3452560Y40935D01*
X3453394Y39688D01*
X3454641Y38854D01*
X3456112Y38562D01*
X3457583Y38854D01*
X3458830Y39688D01*
X3459663Y40935D01*
X3459955Y42406D01*
X3459663Y43877D01*
X3458830Y45124D01*
X3458184Y45555D01*
Y70212D01*
X3458830Y70644D01*
X3459663Y71891D01*
X3459955Y73362D01*
X3459663Y74833D01*
X3458830Y76080D01*
X3457583Y76913D01*
X3456112Y77206D01*
X3454641Y76913D01*
X3453394Y76080D01*
X3452560Y74833D01*
X3452268Y73362D01*
X3452560Y71891D01*
X3453394Y70644D01*
X3454040Y70212D01*
Y45555D01*
X3453394Y45124D01*
X3452560Y43877D01*
X3452334Y42740D01*
X3451039D01*
X3450813Y43877D01*
X3449980Y45124D01*
X3449334Y45555D01*
Y91732D01*
X3449980Y92163D01*
X3450813Y93411D01*
X3451106Y94881D01*
X3450813Y96353D01*
X3449980Y97599D01*
X3448733Y98433D01*
X3447262Y98725D01*
X3445791Y98433D01*
X3444544Y97599D01*
X3444141Y96996D01*
X3442870Y97381D01*
Y129182D01*
X3443020Y129331D01*
X3444027Y129937D01*
X3444614Y129545D01*
D02*
G37*
G36*
X2129665Y66166D02*
X2130151Y64993D01*
X2124052Y58895D01*
X2123603Y58222D01*
X2123446Y57429D01*
X2123446Y57429D01*
Y43577D01*
X2099015Y19147D01*
X2089301D01*
X2088915Y20417D01*
X2089153Y20576D01*
X2107002Y38425D01*
X2107154Y38395D01*
X2108625Y38688D01*
X2109872Y39521D01*
X2110705Y40768D01*
X2110997Y42239D01*
X2110967Y42390D01*
X2119885Y51307D01*
X2120446Y52148D01*
X2120643Y53139D01*
Y59954D01*
X2120771Y60040D01*
X2121605Y61287D01*
X2121897Y62758D01*
X2121605Y64229D01*
X2121159Y64896D01*
X2121838Y66166D01*
X2129665D01*
D02*
G37*
G36*
X1998868D02*
X2024390Y40644D01*
X2024391Y40644D01*
X2025063Y40195D01*
X2025856Y40037D01*
X2077043D01*
X2077043Y40037D01*
X2077836Y40195D01*
X2078508Y40644D01*
X2104030Y66166D01*
X2106500D01*
X2106986Y64993D01*
X2079320Y37327D01*
X2022855D01*
X1995189Y64993D01*
X1995675Y66166D01*
X1998868D01*
D02*
G37*
G36*
X2932841Y60575D02*
X2932841Y60575D01*
X2933513Y60126D01*
X2934306Y59968D01*
X2954484D01*
X2954727Y59605D01*
X2955680Y58968D01*
X2955357Y57698D01*
X2953641D01*
X2953641Y57698D01*
X2952848Y57540D01*
X2952176Y57091D01*
X2952176Y57091D01*
X2946400Y51315D01*
X2945035Y51408D01*
X2944438Y52302D01*
X2943191Y53135D01*
X2941720Y53427D01*
X2940249Y53135D01*
X2939002Y52302D01*
X2938169Y51055D01*
X2937876Y49584D01*
X2938169Y48113D01*
X2939002Y46866D01*
X2940249Y46032D01*
X2941720Y45740D01*
X2943191Y46032D01*
X2944438Y46866D01*
X2944490Y46943D01*
X2947030D01*
X2947030Y46943D01*
X2947823Y47101D01*
X2948495Y47550D01*
X2954499Y53554D01*
X2964727D01*
X2964727Y53554D01*
X2965520Y53712D01*
X2966192Y54161D01*
X2976697Y64666D01*
X2985706D01*
X2986385Y63396D01*
X2986223Y63154D01*
X2985930Y61683D01*
X2985961Y61532D01*
X2961563Y37134D01*
X2941297D01*
X2941211Y37262D01*
X2939964Y38095D01*
X2938493Y38388D01*
X2938342Y38358D01*
X2932956Y43743D01*
Y56875D01*
X2932759Y57866D01*
X2932198Y58706D01*
X2926483Y64420D01*
X2926938Y65762D01*
X2927570Y65845D01*
X2932841Y60575D01*
D02*
G37*
G36*
X2016178Y38143D02*
X2015553Y36973D01*
X2015045Y37074D01*
X2013574Y36781D01*
X2012327Y35948D01*
X2011494Y34701D01*
X2011201Y33230D01*
X2011494Y31759D01*
X2012327Y30512D01*
X2013574Y29679D01*
X2015045Y29386D01*
X2016516Y29679D01*
X2017763Y30512D01*
X2018596Y31759D01*
X2018889Y33230D01*
X2018788Y33737D01*
X2019958Y34363D01*
X2020531Y33790D01*
X2020532Y33790D01*
X2021204Y33341D01*
X2021997Y33183D01*
X2021997Y33183D01*
X2051534D01*
X2051658Y31913D01*
X2051640Y31909D01*
X2050392Y31076D01*
X2049559Y29829D01*
X2049267Y28358D01*
X2049559Y26887D01*
X2050392Y25640D01*
X2051640Y24807D01*
X2053111Y24514D01*
X2053262Y24544D01*
X2057230Y20576D01*
X2057468Y20417D01*
X2057083Y19147D01*
X2017663D01*
X2002722Y34088D01*
Y49804D01*
X2003992Y50330D01*
X2016178Y38143D01*
D02*
G37*
G36*
X4102389Y31885D02*
X4102389Y31885D01*
X4103061Y31436D01*
X4103854Y31278D01*
X4116870D01*
X4129015Y19133D01*
X4128821Y18158D01*
X4129023Y17146D01*
X4127852Y16521D01*
X4117749Y26623D01*
X4117077Y27072D01*
X4116284Y27230D01*
X4116284Y27230D01*
X4112056D01*
X4111996Y27242D01*
X4111996Y27242D01*
X4107844D01*
X4107844Y27242D01*
X4107783Y27230D01*
X4102370D01*
X4101818Y28056D01*
X4100488Y28945D01*
X4098920Y29257D01*
X4097351Y28945D01*
X4096022Y28056D01*
X4095133Y26727D01*
X4094821Y25158D01*
X4095133Y23589D01*
X4096022Y22260D01*
X4097351Y21371D01*
X4098920Y21059D01*
X4100488Y21371D01*
X4101818Y22260D01*
X4102370Y23086D01*
X4105514D01*
X4106193Y21816D01*
X4106133Y21727D01*
X4105821Y20158D01*
X4106133Y18590D01*
X4107021Y17260D01*
X4107848Y16708D01*
Y15108D01*
X4106282Y13542D01*
X4104904Y13960D01*
X4104774Y14617D01*
X4103940Y15864D01*
X4102693Y16697D01*
X4101223Y16990D01*
X4099752Y16697D01*
X4098505Y15864D01*
X4097671Y14617D01*
X4097474Y13626D01*
X4072179D01*
X4071794Y14896D01*
X4072101Y15101D01*
X4088563Y31563D01*
X4088582Y31559D01*
X4090150Y31871D01*
X4091480Y32760D01*
X4092368Y34090D01*
X4092680Y35658D01*
X4092368Y37227D01*
X4091480Y38556D01*
X4091013Y38868D01*
X4091398Y40138D01*
X4094136D01*
X4102389Y31885D01*
D02*
G37*
G36*
X1871314Y66166D02*
Y53074D01*
X1871314Y53074D01*
X1871472Y52281D01*
X1871921Y51609D01*
X1885625Y37905D01*
X1885625Y37905D01*
X1886297Y37456D01*
X1887090Y37298D01*
X1887090Y37298D01*
X1896935D01*
X1917227Y17006D01*
X1917076Y16243D01*
X1917368Y14772D01*
X1918202Y13525D01*
X1919449Y12692D01*
X1920920Y12400D01*
X1922391Y12692D01*
X1923638Y13525D01*
X1924471Y14772D01*
X1924764Y16243D01*
X1924471Y17715D01*
X1923638Y18961D01*
X1922391Y19795D01*
X1920920Y20087D01*
X1920157Y19936D01*
X1899258Y40835D01*
X1898586Y41284D01*
X1897793Y41442D01*
X1897793Y41442D01*
X1887948D01*
X1875458Y53932D01*
Y59037D01*
X1876389Y59402D01*
X1876728Y59472D01*
X1877915Y58679D01*
X1879386Y58386D01*
X1880857Y58679D01*
X1882104Y59512D01*
X1882937Y60759D01*
X1883230Y62230D01*
X1882937Y63701D01*
X1882139Y64896D01*
X1882200Y65199D01*
X1882567Y66166D01*
X1888041D01*
X1888409Y65199D01*
X1888469Y64896D01*
X1887671Y63701D01*
X1887378Y62230D01*
X1887671Y60759D01*
X1888504Y59512D01*
X1889751Y58679D01*
X1891222Y58386D01*
X1892693Y58679D01*
X1893940Y59512D01*
X1894773Y60759D01*
X1895066Y62230D01*
X1894914Y62992D01*
X1898088Y66166D01*
X1899931D01*
X1900298Y65199D01*
X1900359Y64896D01*
X1899561Y63701D01*
X1899268Y62230D01*
X1899561Y60759D01*
X1900394Y59512D01*
X1901641Y58679D01*
X1903112Y58386D01*
X1904583Y58679D01*
X1905830Y59512D01*
X1906262Y60158D01*
X1930347D01*
X1930347Y60158D01*
X1931140Y60316D01*
X1931812Y60765D01*
X1937213Y66166D01*
X1960265D01*
X1960943Y64896D01*
X1960771Y64637D01*
X1960478Y63166D01*
X1960708Y62009D01*
X1930093Y31394D01*
X1929644Y30722D01*
X1929486Y29929D01*
X1929486Y29929D01*
Y19393D01*
X1928840Y18961D01*
X1928006Y17715D01*
X1927714Y16243D01*
X1928006Y14772D01*
X1928840Y13525D01*
X1930087Y12692D01*
X1931558Y12400D01*
X1933029Y12692D01*
X1934276Y13525D01*
X1935109Y14772D01*
X1935402Y16243D01*
X1935109Y17715D01*
X1934276Y18961D01*
X1933630Y19393D01*
Y29071D01*
X1945924Y41365D01*
X1947302Y40947D01*
X1947337Y40768D01*
X1948171Y39521D01*
X1949418Y38688D01*
X1950889Y38395D01*
X1952360Y38688D01*
X1952495Y38778D01*
X1953906Y38194D01*
X1953965Y37899D01*
X1954798Y36652D01*
X1955444Y36220D01*
Y31904D01*
X1954443Y31534D01*
X1954174Y31481D01*
X1952972Y32285D01*
X1951501Y32577D01*
X1950030Y32285D01*
X1948783Y31451D01*
X1947950Y30204D01*
X1947657Y28733D01*
X1947950Y27262D01*
X1948783Y26015D01*
X1950030Y25182D01*
X1951501Y24889D01*
X1952561Y23828D01*
Y12040D01*
X1951915Y11608D01*
X1951081Y10361D01*
X1950789Y8890D01*
X1951081Y7419D01*
X1951524Y6756D01*
X1950846Y5486D01*
X1893638D01*
X1893569Y5663D01*
X1893427Y6756D01*
X1894447Y7437D01*
X1895280Y8684D01*
X1895573Y10156D01*
X1895280Y11626D01*
X1894447Y12874D01*
X1893200Y13707D01*
X1891729Y13999D01*
X1890258Y13707D01*
X1889011Y12874D01*
X1888178Y11626D01*
X1887885Y10156D01*
X1888178Y8684D01*
X1889011Y7437D01*
X1890031Y6756D01*
X1889889Y5663D01*
X1889820Y5486D01*
X1857240D01*
X1851499Y11227D01*
X1850827Y11676D01*
X1850034Y11834D01*
X1850034Y11834D01*
X1617453D01*
X1616660Y11676D01*
X1615988Y11227D01*
X1615988Y11227D01*
X1615554Y10792D01*
X1614791Y10944D01*
X1613320Y10651D01*
X1612073Y9818D01*
X1611240Y8571D01*
X1610948Y7100D01*
X1611240Y5629D01*
X1612073Y4382D01*
X1613320Y3549D01*
X1614791Y3256D01*
X1616262Y3549D01*
X1617509Y4382D01*
X1618343Y5629D01*
X1618635Y7100D01*
X1619120Y7690D01*
X1849176D01*
X1854153Y2713D01*
X1853627Y1444D01*
X1846037D01*
X1845988Y1497D01*
X1845933Y1706D01*
X1844811Y3183D01*
X1844624Y3292D01*
X1844509Y3475D01*
X1842992Y4544D01*
X1842781Y4592D01*
X1842616Y4731D01*
X1840848Y5293D01*
X1840632Y5274D01*
X1840433Y5357D01*
X1838577Y5358D01*
X1838377Y5276D01*
X1838162Y5294D01*
X1836393Y4735D01*
X1836227Y4596D01*
X1836016Y4549D01*
X1834499Y3482D01*
X1834383Y3299D01*
X1834196Y3190D01*
X1833072Y1714D01*
X1833016Y1505D01*
X1832960Y1444D01*
X1666037D01*
X1665988Y1497D01*
X1665933Y1706D01*
X1664810Y3184D01*
X1664624Y3293D01*
X1664508Y3476D01*
X1662991Y4545D01*
X1662780Y4592D01*
X1662615Y4732D01*
X1660846Y5293D01*
X1660631Y5275D01*
X1660431Y5357D01*
X1658575Y5358D01*
X1658375Y5275D01*
X1658160Y5294D01*
X1656391Y4734D01*
X1656225Y4595D01*
X1656014Y4548D01*
X1654496Y3480D01*
X1654381Y3297D01*
X1654194Y3188D01*
X1653070Y1711D01*
X1653015Y1502D01*
X1652961Y1444D01*
X1486037D01*
X1485987Y1499D01*
X1485932Y1708D01*
X1484809Y3185D01*
X1484622Y3294D01*
X1484507Y3477D01*
X1482990Y4545D01*
X1482779Y4593D01*
X1482614Y4732D01*
X1480845Y5293D01*
X1480630Y5275D01*
X1480430Y5357D01*
X1478575Y5358D01*
X1478375Y5275D01*
X1478160Y5294D01*
X1476391Y4734D01*
X1476225Y4595D01*
X1476014Y4548D01*
X1474497Y3480D01*
X1474381Y3298D01*
X1474194Y3189D01*
X1473071Y1712D01*
X1473015Y1503D01*
X1472961Y1444D01*
X1306040D01*
X1305984Y1505D01*
X1305928Y1714D01*
X1304804Y3190D01*
X1304617Y3299D01*
X1304501Y3482D01*
X1302984Y4549D01*
X1302773Y4596D01*
X1302607Y4735D01*
X1300838Y5294D01*
X1300623Y5276D01*
X1300423Y5358D01*
X1298567Y5357D01*
X1298368Y5274D01*
X1298152Y5293D01*
X1296384Y4731D01*
X1296218Y4592D01*
X1296008Y4544D01*
X1294491Y3475D01*
X1294376Y3292D01*
X1294189Y3183D01*
X1293067Y1706D01*
X1293012Y1497D01*
X1292964Y1444D01*
X1092038D01*
X1091986Y1500D01*
X1091931Y1710D01*
X1090807Y3187D01*
X1090620Y3296D01*
X1090505Y3478D01*
X1088987Y4547D01*
X1088776Y4595D01*
X1088611Y4734D01*
X1086841Y5294D01*
X1086626Y5275D01*
X1086426Y5358D01*
X1084570Y5357D01*
X1084370Y5275D01*
X1084154Y5293D01*
X1082385Y4732D01*
X1082220Y4593D01*
X1082009Y4545D01*
X1080492Y3476D01*
X1080376Y3293D01*
X1080190Y3184D01*
X1079067Y1706D01*
X1079012Y1497D01*
X1078963Y1444D01*
X912039D01*
X911985Y1503D01*
X911930Y1712D01*
X910806Y3188D01*
X910619Y3297D01*
X910504Y3480D01*
X908987Y4547D01*
X908776Y4595D01*
X908610Y4734D01*
X906842Y5294D01*
X906626Y5275D01*
X906426Y5358D01*
X904571Y5358D01*
X904371Y5275D01*
X904156Y5293D01*
X902387Y4733D01*
X902222Y4594D01*
X902011Y4546D01*
X900495Y3478D01*
X900379Y3295D01*
X900192Y3186D01*
X899069Y1710D01*
X899014Y1501D01*
X898962Y1444D01*
X840789D01*
X840263Y2713D01*
X841881Y4331D01*
X842856Y4138D01*
X844424Y4450D01*
X845754Y5338D01*
X846643Y6668D01*
X846954Y8236D01*
X846643Y9805D01*
X845754Y11135D01*
X844424Y12023D01*
X842856Y12335D01*
X841287Y12023D01*
X839958Y11135D01*
X839069Y9805D01*
X838757Y8236D01*
X838951Y7261D01*
X837394Y5705D01*
X778958D01*
X774582Y10080D01*
X773910Y10530D01*
X773841Y10543D01*
X769569Y14816D01*
Y48035D01*
X769569Y48035D01*
X769411Y48828D01*
X768962Y49500D01*
X766097Y52365D01*
X766291Y53340D01*
X765979Y54909D01*
X765918Y55000D01*
X766596Y56270D01*
X783375D01*
X783702Y55782D01*
X783830Y55696D01*
Y34566D01*
X784027Y33575D01*
X784588Y32735D01*
X802996Y14327D01*
X802966Y14175D01*
X803259Y12704D01*
X803371Y12537D01*
X802692Y11267D01*
X801353D01*
X798863Y13757D01*
X799057Y14732D01*
X798745Y16301D01*
X797856Y17630D01*
X796527Y18519D01*
X794958Y18831D01*
X793390Y18519D01*
X792060Y17630D01*
X791171Y16301D01*
X790859Y14732D01*
X791171Y13163D01*
X792060Y11834D01*
X793390Y10945D01*
X794958Y10633D01*
X795933Y10827D01*
X799029Y7731D01*
X799030Y7731D01*
X799702Y7281D01*
X800495Y7124D01*
X829148D01*
X829148Y7124D01*
X829941Y7281D01*
X830613Y7731D01*
X845756Y22874D01*
X846205Y23546D01*
X846363Y24339D01*
X846363Y24339D01*
Y41954D01*
X847009Y42386D01*
X847842Y43633D01*
X848135Y45104D01*
X847842Y46575D01*
X847009Y47822D01*
X845762Y48656D01*
X844309Y48945D01*
X844268Y49009D01*
X843829Y50151D01*
X844090Y50325D01*
X844923Y51572D01*
X845215Y53043D01*
X845094Y53654D01*
X846264Y54280D01*
X857272Y43272D01*
X858112Y42711D01*
X859103Y42514D01*
X1495165D01*
X1496156Y42711D01*
X1496997Y43272D01*
X1517301Y63576D01*
X1534435D01*
X1542005Y56006D01*
Y41186D01*
X1542202Y40195D01*
X1542764Y39354D01*
X1551719Y30399D01*
X1552560Y29837D01*
X1553551Y29640D01*
X1874273D01*
X1874359Y29512D01*
X1875606Y28679D01*
X1877077Y28386D01*
X1878548Y28679D01*
X1879795Y29512D01*
X1880628Y30759D01*
X1880921Y32230D01*
X1880628Y33701D01*
X1879795Y34948D01*
X1878548Y35781D01*
X1877077Y36074D01*
X1875606Y35781D01*
X1874359Y34948D01*
X1874273Y34820D01*
X1554623D01*
X1547185Y42258D01*
Y57079D01*
X1546987Y58070D01*
X1546426Y58910D01*
X1540343Y64993D01*
X1540829Y66166D01*
X1871314Y66166D01*
D02*
G37*
G36*
X2651618Y66166D02*
X2651827Y65853D01*
X2652735Y65247D01*
Y23952D01*
X2652350Y23695D01*
X2651517Y22448D01*
X2651225Y20977D01*
X2651517Y19506D01*
X2652350Y18259D01*
X2653598Y17426D01*
X2655069Y17134D01*
X2656540Y17426D01*
X2657787Y18259D01*
X2658620Y19506D01*
X2658912Y20977D01*
X2658620Y22448D01*
X2657787Y23695D01*
X2656879Y24302D01*
Y65142D01*
X2657913Y66166D01*
X2663292D01*
X2663677Y64896D01*
X2663299Y64643D01*
X2662466Y63396D01*
X2662173Y61925D01*
X2662466Y60454D01*
X2663299Y59207D01*
X2663945Y58776D01*
Y42395D01*
X2663945Y42395D01*
X2664103Y41602D01*
X2664552Y40930D01*
X2679295Y26187D01*
X2678769Y24917D01*
X2675939D01*
X2669709Y31146D01*
X2669861Y31908D01*
X2669568Y33379D01*
X2668735Y34626D01*
X2667488Y35459D01*
X2666017Y35752D01*
X2664546Y35459D01*
X2663299Y34626D01*
X2662466Y33379D01*
X2662173Y31908D01*
X2662466Y30437D01*
X2663299Y29190D01*
X2664546Y28357D01*
X2666017Y28064D01*
X2666779Y28216D01*
X2673615Y21380D01*
X2673615Y21380D01*
X2674288Y20931D01*
X2675081Y20773D01*
X2770548D01*
X2771216Y19729D01*
X2771194Y19503D01*
X2770911Y18083D01*
X2771204Y16612D01*
X2772037Y15365D01*
X2773284Y14532D01*
X2774755Y14239D01*
X2776226Y14532D01*
X2777473Y15365D01*
X2778306Y16612D01*
X2778599Y18083D01*
X2778317Y19503D01*
X2778294Y19729D01*
X2778963Y20773D01*
X2807913D01*
X2821197Y7489D01*
X2821870Y7040D01*
X2822662Y6882D01*
X2822662Y6882D01*
X2861749D01*
X2861750Y6882D01*
X2862542Y7040D01*
X2863214Y7489D01*
X2867562Y11837D01*
X2907256D01*
X2907257Y11837D01*
X2908050Y11995D01*
X2908722Y12444D01*
X2910083Y13805D01*
X2957047D01*
X2968139Y2713D01*
X2967613Y1444D01*
X2960044D01*
X2959977Y1517D01*
X2959922Y1725D01*
X2958798Y3196D01*
X2958611Y3304D01*
X2958496Y3486D01*
X2956982Y4550D01*
X2956771Y4597D01*
X2956606Y4736D01*
X2954841Y5294D01*
X2954626Y5275D01*
X2954427Y5357D01*
X2952577Y5358D01*
X2952377Y5276D01*
X2952162Y5294D01*
X2950398Y4737D01*
X2950233Y4599D01*
X2950022Y4552D01*
X2948507Y3489D01*
X2948391Y3307D01*
X2948205Y3198D01*
X2947080Y1729D01*
X2947025Y1520D01*
X2946955Y1444D01*
X2916438D01*
X2915960Y2587D01*
X2916685Y3370D01*
X2917320Y3244D01*
X2918791Y3536D01*
X2920038Y4369D01*
X2920871Y5616D01*
X2921163Y7088D01*
X2920871Y8558D01*
X2920038Y9806D01*
X2918791Y10639D01*
X2917320Y10931D01*
X2915848Y10639D01*
X2914601Y9806D01*
X2913768Y8558D01*
X2913476Y7088D01*
X2913627Y6325D01*
X2911816Y4514D01*
X2795778D01*
X2789911Y10381D01*
X2789239Y10830D01*
X2788446Y10988D01*
X2788446Y10988D01*
X2762529D01*
X2762529Y10988D01*
X2761736Y10830D01*
X2761064Y10381D01*
X2761064Y10381D01*
X2756180Y5497D01*
X2723097D01*
X2722733Y6421D01*
X2722661Y6767D01*
X2723509Y8036D01*
X2723821Y9604D01*
X2723509Y11173D01*
X2722620Y12503D01*
X2721291Y13391D01*
X2719722Y13703D01*
X2718153Y13391D01*
X2716824Y12503D01*
X2716272Y11676D01*
X2640341D01*
X2617862Y34156D01*
Y58087D01*
X2618508Y58518D01*
X2619341Y59765D01*
X2619633Y61236D01*
X2619341Y62707D01*
X2618508Y63954D01*
X2617261Y64788D01*
X2616715Y64896D01*
X2616841Y66166D01*
X2651618D01*
D02*
G37*
G36*
X2836685Y30220D02*
X2836640Y29990D01*
X2836352Y28544D01*
X2836645Y27073D01*
X2837478Y25826D01*
X2838725Y24993D01*
X2840196Y24700D01*
X2840226Y24706D01*
X2844536Y20396D01*
X2844524Y20379D01*
X2844232Y18908D01*
X2844524Y17437D01*
X2844778Y17058D01*
X2844099Y15788D01*
X2830138D01*
X2829706Y16434D01*
X2828459Y17267D01*
X2826988Y17560D01*
X2825517Y17267D01*
X2824270Y16434D01*
X2823437Y15187D01*
X2823144Y13716D01*
X2823273Y13070D01*
X2822102Y12444D01*
X2811456Y23091D01*
X2811982Y24361D01*
X2819981D01*
X2819981Y24361D01*
X2820774Y24518D01*
X2821447Y24967D01*
X2827739Y31260D01*
X2835966D01*
X2836685Y30220D01*
D02*
G37*
G36*
X4020347Y18264D02*
X4020261Y18134D01*
X4019949Y16566D01*
X4020261Y14998D01*
X4020329Y14896D01*
X4019650Y13626D01*
X3946939D01*
X3943283Y17282D01*
X3942611Y17731D01*
X3941818Y17889D01*
X3941818Y17889D01*
X3911353D01*
X3910658Y19159D01*
X3910898Y19534D01*
X4019669D01*
X4020347Y18264D01*
D02*
G37*
G36*
X1989167Y50291D02*
X1989660Y49926D01*
Y36248D01*
X1989660Y36248D01*
X1989817Y35455D01*
X1990267Y34783D01*
X2012043Y13007D01*
X2011557Y11834D01*
X2007343D01*
X1986268Y32909D01*
Y48749D01*
X1987094Y49302D01*
X1987551Y49985D01*
X1989075Y50318D01*
X1989167Y50291D01*
D02*
G37*
G36*
X3371190Y7997D02*
X3371190Y7997D01*
X3371862Y7548D01*
X3372253Y7470D01*
X3372128Y6200D01*
X3330047D01*
X3326613Y9634D01*
X3325941Y10083D01*
X3325148Y10241D01*
X3325147Y10241D01*
X3305220D01*
X3305220Y10241D01*
X3304427Y10083D01*
X3303755Y9634D01*
X3300321Y6200D01*
X3271943D01*
X3271275Y7244D01*
X3271297Y7470D01*
X3271580Y8890D01*
X3271287Y10361D01*
X3270454Y11608D01*
X3269207Y12441D01*
X3267736Y12734D01*
X3266265Y12441D01*
X3265018Y11608D01*
X3264185Y10361D01*
X3263892Y8890D01*
X3264174Y7470D01*
X3264197Y7244D01*
X3263528Y6200D01*
X3146476D01*
X3142321Y10355D01*
X3141649Y10804D01*
X3140856Y10962D01*
X3140856Y10962D01*
X3126193D01*
X3126193Y10962D01*
X3125400Y10804D01*
X3124727Y10355D01*
X3124727Y10355D01*
X3119869Y5497D01*
X2971216D01*
X2959371Y17342D01*
X2958699Y17791D01*
X2957906Y17948D01*
X2957906Y17948D01*
X2909225D01*
X2909225Y17948D01*
X2908432Y17791D01*
X2907760Y17342D01*
X2907759Y17342D01*
X2906399Y15981D01*
X2886105D01*
X2885426Y17251D01*
X2885746Y17729D01*
X2886038Y19200D01*
X2885756Y20620D01*
X2885733Y20846D01*
X2886402Y21890D01*
X3357296D01*
X3371190Y7997D01*
D02*
G37*
G36*
X3901787Y14352D02*
X3901788Y14352D01*
X3902460Y13903D01*
X3903253Y13745D01*
X3903253Y13745D01*
X3940960D01*
X3944616Y10089D01*
X3944616Y10089D01*
X3945288Y9640D01*
X3946081Y9482D01*
X4052164D01*
X4052554Y8612D01*
X4052596Y8212D01*
X4050439Y6055D01*
X3902220D01*
X3897921Y10355D01*
X3897249Y10804D01*
X3896456Y10962D01*
X3896455Y10962D01*
X3841125D01*
X3840483Y12090D01*
X3840862Y12674D01*
X3846196Y18009D01*
X3898131D01*
X3901787Y14352D01*
D02*
G37*
%LPC*%
G36*
X3400500Y149582D02*
X3398667Y149341D01*
X3396960Y148633D01*
X3395493Y147508D01*
X3394368Y146042D01*
X3393661Y144334D01*
X3393419Y142501D01*
X3393661Y140669D01*
X3394368Y138961D01*
X3395493Y137495D01*
X3396960Y136369D01*
X3398667Y135662D01*
X3400500Y135421D01*
X3402332Y135662D01*
X3404040Y136369D01*
X3405507Y137495D01*
X3406632Y138961D01*
X3407339Y140669D01*
X3407581Y142501D01*
X3407339Y144334D01*
X3406632Y146042D01*
X3405507Y147508D01*
X3404040Y148633D01*
X3402332Y149341D01*
X3400500Y149582D01*
D02*
G37*
G36*
X3045485Y61375D02*
X3043515D01*
X3043385Y61321D01*
X3043247Y61348D01*
X3041315Y60964D01*
X3041198Y60886D01*
X3041057D01*
X3039237Y60132D01*
X3039138Y60032D01*
X3039000Y60005D01*
X3037361Y58910D01*
X3037283Y58793D01*
X3037153Y58740D01*
X3035760Y57347D01*
X3035706Y57217D01*
X3035590Y57138D01*
X3034495Y55500D01*
X3034467Y55362D01*
X3034368Y55263D01*
X3033614Y53443D01*
Y53302D01*
X3033536Y53185D01*
X3033152Y51253D01*
X3033179Y51115D01*
X3033125Y50985D01*
Y49015D01*
X3033179Y48885D01*
X3033152Y48747D01*
X3033536Y46815D01*
X3033614Y46698D01*
Y46557D01*
X3034368Y44737D01*
X3034467Y44638D01*
X3034495Y44500D01*
X3035590Y42862D01*
X3035706Y42783D01*
X3035760Y42653D01*
X3037153Y41260D01*
X3037283Y41206D01*
X3037361Y41090D01*
X3039000Y39995D01*
X3039138Y39968D01*
X3039237Y39868D01*
X3041057Y39114D01*
X3041198D01*
X3041315Y39036D01*
X3043247Y38652D01*
X3043385Y38679D01*
X3043515Y38625D01*
X3045485D01*
X3045615Y38679D01*
X3045753Y38652D01*
X3047685Y39036D01*
X3047802Y39114D01*
X3047943D01*
X3049763Y39868D01*
X3049862Y39968D01*
X3050001Y39995D01*
X3051638Y41090D01*
X3051717Y41207D01*
X3051847Y41260D01*
X3053239Y42653D01*
X3053293Y42783D01*
X3053411Y42862D01*
X3054505Y44500D01*
X3054532Y44638D01*
X3054632Y44737D01*
X3055386Y46557D01*
Y46698D01*
X3055464Y46815D01*
X3055848Y48747D01*
X3055821Y48885D01*
X3055875Y49015D01*
Y50985D01*
X3055821Y51115D01*
X3055848Y51253D01*
X3055464Y53185D01*
X3055386Y53302D01*
Y53443D01*
X3054632Y55263D01*
X3054532Y55362D01*
X3054505Y55500D01*
X3053411Y57138D01*
X3053293Y57217D01*
X3053239Y57347D01*
X3051847Y58740D01*
X3051717Y58793D01*
X3051638Y58910D01*
X3050001Y60005D01*
X3049862Y60032D01*
X3049763Y60132D01*
X3047943Y60886D01*
X3047802D01*
X3047685Y60964D01*
X3045753Y61348D01*
X3045615Y61321D01*
X3045485Y61375D01*
D02*
G37*
G36*
X3406250Y68152D02*
X3404779Y67860D01*
X3403532Y67027D01*
X3402699Y65780D01*
X3402406Y64309D01*
X3402699Y62838D01*
X3403532Y61591D01*
X3404779Y60757D01*
X3406250Y60465D01*
X3407721Y60757D01*
X3408968Y61591D01*
X3409801Y62838D01*
X3410094Y64309D01*
X3409801Y65780D01*
X3408968Y67027D01*
X3407721Y67860D01*
X3406250Y68152D01*
D02*
G37*
G36*
X3099213Y44819D02*
X3097742Y44527D01*
X3096495Y43694D01*
X3095662Y42446D01*
X3095369Y40975D01*
X3095662Y39504D01*
X3096495Y38258D01*
X3097742Y37424D01*
X3099213Y37132D01*
X3100684Y37424D01*
X3101931Y38258D01*
X3102764Y39504D01*
X3103057Y40975D01*
X3102764Y42446D01*
X3101931Y43694D01*
X3100684Y44527D01*
X3099213Y44819D01*
D02*
G37*
G36*
X2385765Y53960D02*
X2384294Y53667D01*
X2383047Y52834D01*
X2382214Y51587D01*
X2381922Y50116D01*
X2382214Y48645D01*
X2383047Y47398D01*
X2384294Y46565D01*
X2385765Y46272D01*
X2387236Y46565D01*
X2388483Y47398D01*
X2389317Y48645D01*
X2389609Y50116D01*
X2389317Y51587D01*
X2388483Y52834D01*
X2387236Y53667D01*
X2385765Y53960D01*
D02*
G37*
G36*
X2290411Y66074D02*
X2288940Y65781D01*
X2287693Y64948D01*
X2286859Y63701D01*
X2286567Y62230D01*
X2286859Y60759D01*
X2287693Y59512D01*
X2288940Y58679D01*
X2290411Y58386D01*
X2291173Y58538D01*
X2339285Y10425D01*
X2339286Y10425D01*
X2339958Y9976D01*
X2340751Y9818D01*
X2340751Y9818D01*
X2361061D01*
X2361493Y9172D01*
X2362740Y8339D01*
X2364211Y8046D01*
X2365682Y8339D01*
X2366929Y9172D01*
X2367762Y10419D01*
X2368055Y11890D01*
X2367762Y13361D01*
X2366929Y14608D01*
X2365682Y15441D01*
X2364211Y15734D01*
X2362740Y15441D01*
X2361493Y14608D01*
X2361061Y13962D01*
X2341609D01*
X2294103Y61468D01*
X2294254Y62230D01*
X2293962Y63701D01*
X2293129Y64948D01*
X2291882Y65781D01*
X2290411Y66074D01*
D02*
G37*
G36*
X3431000Y163006D02*
X3429529Y162713D01*
X3428282Y161880D01*
X3427449Y160633D01*
X3427156Y159162D01*
X3427449Y157691D01*
X3428282Y156444D01*
X3429529Y155611D01*
X3431000Y155318D01*
X3432471Y155611D01*
X3433718Y156444D01*
X3434551Y157691D01*
X3434844Y159162D01*
X3434551Y160633D01*
X3433718Y161880D01*
X3432471Y162713D01*
X3431000Y163006D01*
D02*
G37*
G36*
X3466500Y149582D02*
X3464667Y149341D01*
X3462960Y148633D01*
X3461493Y147508D01*
X3460368Y146042D01*
X3459661Y144334D01*
X3459419Y142501D01*
X3459661Y140669D01*
X3460368Y138961D01*
X3461493Y137495D01*
X3462960Y136369D01*
X3464667Y135662D01*
X3466500Y135421D01*
X3468333Y135662D01*
X3470040Y136369D01*
X3471507Y137495D01*
X3472632Y138961D01*
X3473339Y140669D01*
X3473581Y142501D01*
X3473339Y144334D01*
X3472632Y146042D01*
X3471507Y147508D01*
X3470040Y148633D01*
X3468333Y149341D01*
X3466500Y149582D01*
D02*
G37*
G36*
X3801485Y61375D02*
X3799515D01*
X3799385Y61321D01*
X3799247Y61348D01*
X3797315Y60964D01*
X3797198Y60886D01*
X3797057D01*
X3795237Y60132D01*
X3795138Y60032D01*
X3794999Y60005D01*
X3793362Y58910D01*
X3793283Y58793D01*
X3793153Y58740D01*
X3791760Y57347D01*
X3791707Y57217D01*
X3791589Y57138D01*
X3790495Y55500D01*
X3790468Y55362D01*
X3790368Y55263D01*
X3789614Y53443D01*
Y53302D01*
X3789536Y53185D01*
X3789152Y51253D01*
X3789179Y51115D01*
X3789125Y50985D01*
Y49015D01*
X3789179Y48885D01*
X3789152Y48747D01*
X3789536Y46815D01*
X3789614Y46698D01*
Y46557D01*
X3790368Y44737D01*
X3790468Y44638D01*
X3790495Y44500D01*
X3791589Y42862D01*
X3791707Y42783D01*
X3791760Y42653D01*
X3793153Y41260D01*
X3793283Y41206D01*
X3793362Y41090D01*
X3794999Y39995D01*
X3795138Y39968D01*
X3795237Y39868D01*
X3797057Y39114D01*
X3797198D01*
X3797315Y39036D01*
X3799247Y38652D01*
X3799385Y38679D01*
X3799515Y38625D01*
X3801485D01*
X3801615Y38679D01*
X3801753Y38652D01*
X3803685Y39036D01*
X3803802Y39114D01*
X3803943D01*
X3805763Y39868D01*
X3805862Y39968D01*
X3806000Y39995D01*
X3807638Y41090D01*
X3807717Y41207D01*
X3807847Y41260D01*
X3809240Y42653D01*
X3809294Y42783D01*
X3809410Y42862D01*
X3810505Y44500D01*
X3810532Y44638D01*
X3810632Y44737D01*
X3811386Y46557D01*
Y46698D01*
X3811464Y46815D01*
X3811848Y48747D01*
X3811821Y48885D01*
X3811875Y49015D01*
Y50985D01*
X3811821Y51115D01*
X3811848Y51253D01*
X3811464Y53185D01*
X3811386Y53302D01*
Y53443D01*
X3810632Y55263D01*
X3810532Y55362D01*
X3810505Y55500D01*
X3809410Y57138D01*
X3809294Y57217D01*
X3809240Y57347D01*
X3807847Y58740D01*
X3807716Y58793D01*
X3807638Y58910D01*
X3806000Y60005D01*
X3805862Y60032D01*
X3805763Y60132D01*
X3803943Y60886D01*
X3803802D01*
X3803685Y60964D01*
X3801753Y61348D01*
X3801615Y61321D01*
X3801485Y61375D01*
D02*
G37*
G36*
X3971450Y60263D02*
Y57452D01*
X3974260D01*
X3974183Y57840D01*
X3973244Y59246D01*
X3971838Y60185D01*
X3971450Y60263D01*
D02*
G37*
G36*
X3968910Y60263D02*
X3968522Y60185D01*
X3967116Y59246D01*
X3966176Y57840D01*
X3966099Y57452D01*
X3968910D01*
Y60263D01*
D02*
G37*
G36*
X3982450Y60263D02*
Y57452D01*
X3985260D01*
X3985183Y57840D01*
X3984244Y59246D01*
X3982838Y60185D01*
X3982450Y60263D01*
D02*
G37*
G36*
X3979910Y60263D02*
X3979521Y60185D01*
X3978116Y59246D01*
X3977177Y57840D01*
X3977099Y57452D01*
X3979910D01*
Y60263D01*
D02*
G37*
G36*
X4127869Y60210D02*
X4126398Y59917D01*
X4125151Y59084D01*
X4124318Y57837D01*
X4124025Y56366D01*
X4124318Y54895D01*
X4125151Y53648D01*
X4126398Y52814D01*
X4127869Y52522D01*
X4129340Y52814D01*
X4130217Y53400D01*
X4131702Y53464D01*
X4132949Y52631D01*
X4134420Y52338D01*
X4135891Y52631D01*
X4137138Y53464D01*
X4137971Y54711D01*
X4138264Y56182D01*
X4137971Y57653D01*
X4137138Y58900D01*
X4135891Y59733D01*
X4134420Y60026D01*
X4132949Y59733D01*
X4132072Y59147D01*
X4130587Y59084D01*
X4129340Y59917D01*
X4127869Y60210D01*
D02*
G37*
G36*
X3968910Y54912D02*
X3966099D01*
X3966176Y54524D01*
X3967116Y53118D01*
X3968522Y52179D01*
X3968910Y52101D01*
Y54912D01*
D02*
G37*
G36*
X3979910Y54912D02*
X3977099D01*
X3977177Y54524D01*
X3978116Y53118D01*
X3979521Y52179D01*
X3979910Y52101D01*
Y54912D01*
D02*
G37*
G36*
X3985261D02*
X3982450D01*
Y52101D01*
X3982838Y52179D01*
X3984244Y53118D01*
X3985183Y54524D01*
X3985261Y54912D01*
D02*
G37*
G36*
X3974261Y54912D02*
X3971450D01*
Y52101D01*
X3971838Y52179D01*
X3973244Y53118D01*
X3974183Y54524D01*
X3974261Y54912D01*
D02*
G37*
G36*
X3971450Y49263D02*
Y46452D01*
X3974260D01*
X3974183Y46840D01*
X3973244Y48246D01*
X3971838Y49186D01*
X3971450Y49263D01*
D02*
G37*
G36*
X3968910Y49263D02*
X3968522Y49186D01*
X3967116Y48246D01*
X3966176Y46840D01*
X3966099Y46452D01*
X3968910D01*
Y49263D01*
D02*
G37*
G36*
X3982450Y49263D02*
Y46452D01*
X3985260D01*
X3985183Y46840D01*
X3984244Y48246D01*
X3982838Y49186D01*
X3982450Y49263D01*
D02*
G37*
G36*
X3979910Y49263D02*
X3979521Y49186D01*
X3978116Y48246D01*
X3977177Y46840D01*
X3977099Y46452D01*
X3979910D01*
Y49263D01*
D02*
G37*
G36*
X4170934Y53602D02*
X4169464Y53309D01*
X4168216Y52476D01*
X4167383Y51229D01*
X4167090Y49758D01*
X4167383Y48287D01*
X4168216Y47040D01*
X4169464Y46207D01*
X4170934Y45914D01*
X4172405Y46207D01*
X4173652Y47040D01*
X4174485Y48287D01*
X4174778Y49758D01*
X4174485Y51229D01*
X4173652Y52476D01*
X4172405Y53309D01*
X4170934Y53602D01*
D02*
G37*
G36*
X3968910Y43912D02*
X3966099D01*
X3966176Y43524D01*
X3967116Y42118D01*
X3968522Y41179D01*
X3968910Y41101D01*
Y43912D01*
D02*
G37*
G36*
X3979910Y43912D02*
X3977099D01*
X3977177Y43524D01*
X3978116Y42118D01*
X3979521Y41179D01*
X3979910Y41101D01*
Y43912D01*
D02*
G37*
G36*
X3985261D02*
X3982450D01*
Y41101D01*
X3982838Y41179D01*
X3984244Y42118D01*
X3985183Y43524D01*
X3985261Y43912D01*
D02*
G37*
G36*
X3974261Y43912D02*
X3971450D01*
Y41101D01*
X3971838Y41179D01*
X3973244Y42118D01*
X3974183Y43524D01*
X3974261Y43912D01*
D02*
G37*
G36*
X4010880Y44982D02*
X4009409Y44689D01*
X4008162Y43856D01*
X4007328Y42609D01*
X4007036Y41138D01*
X4007328Y39667D01*
X4008162Y38420D01*
X4009409Y37587D01*
X4010880Y37294D01*
X4012351Y37587D01*
X4013598Y38420D01*
X4014431Y39667D01*
X4014724Y41138D01*
X4014431Y42609D01*
X4013598Y43856D01*
X4012351Y44689D01*
X4010880Y44982D01*
D02*
G37*
G36*
X3761593Y45626D02*
X3760122Y45333D01*
X3758875Y44500D01*
X3758042Y43253D01*
X3757749Y41782D01*
X3758042Y40311D01*
X3758875Y39064D01*
X3759521Y38632D01*
Y38389D01*
X3759521Y38388D01*
X3759679Y37596D01*
X3760128Y36923D01*
X3770888Y26164D01*
X3770888Y26164D01*
X3771560Y25715D01*
X3772353Y25557D01*
X3772353Y25557D01*
X3827600D01*
X3827600Y25557D01*
X3828393Y25715D01*
X3829066Y26164D01*
X3841591Y38689D01*
X3844472D01*
X3844903Y38043D01*
X3846151Y37210D01*
X3847621Y36917D01*
X3849092Y37210D01*
X3850339Y38043D01*
X3851173Y39290D01*
X3851465Y40761D01*
X3851173Y42232D01*
X3850339Y43479D01*
X3849092Y44313D01*
X3847621Y44605D01*
X3846151Y44313D01*
X3844903Y43479D01*
X3844472Y42833D01*
X3840733D01*
X3840733Y42833D01*
X3839940Y42675D01*
X3839268Y42226D01*
X3826742Y29701D01*
X3773211D01*
X3764270Y38642D01*
X3764311Y39064D01*
X3765144Y40311D01*
X3765437Y41782D01*
X3765144Y43253D01*
X3764311Y44500D01*
X3763064Y45333D01*
X3761593Y45626D01*
D02*
G37*
G36*
X3837454Y54829D02*
X3835982Y54536D01*
X3834735Y53703D01*
X3833902Y52456D01*
X3833610Y50985D01*
X3833761Y50223D01*
X3818768Y35230D01*
X3791288D01*
X3780091Y46427D01*
X3780243Y47189D01*
X3779950Y48660D01*
X3779117Y49907D01*
X3777870Y50740D01*
X3776399Y51033D01*
X3774928Y50740D01*
X3773681Y49907D01*
X3772848Y48660D01*
X3772555Y47189D01*
X3772848Y45718D01*
X3773681Y44471D01*
X3774928Y43638D01*
X3776399Y43345D01*
X3777161Y43497D01*
X3788965Y31693D01*
X3788965Y31693D01*
X3789637Y31244D01*
X3790430Y31086D01*
X3819626D01*
X3819626Y31086D01*
X3820419Y31244D01*
X3821092Y31693D01*
X3836691Y47293D01*
X3837454Y47141D01*
X3838925Y47434D01*
X3840172Y48267D01*
X3841005Y49514D01*
X3841297Y50985D01*
X3841005Y52456D01*
X3840172Y53703D01*
X3838925Y54536D01*
X3837454Y54829D01*
D02*
G37*
G36*
X4004545Y37002D02*
X4003074Y36709D01*
X4001827Y35876D01*
X4000994Y34629D01*
X4000702Y33158D01*
X4000994Y31687D01*
X4001827Y30440D01*
X4003074Y29607D01*
X4004545Y29314D01*
X4006016Y29607D01*
X4007263Y30440D01*
X4008097Y31687D01*
X4008389Y33158D01*
X4008097Y34629D01*
X4007263Y35876D01*
X4006016Y36709D01*
X4004545Y37002D01*
D02*
G37*
G36*
X3948889Y52026D02*
X3947418Y51733D01*
X3946171Y50900D01*
X3945338Y49653D01*
X3945045Y48182D01*
X3945338Y46711D01*
X3946171Y45464D01*
X3946817Y45032D01*
Y34579D01*
X3946171Y34147D01*
X3945338Y32900D01*
X3945045Y31429D01*
X3945338Y29958D01*
X3946171Y28711D01*
X3947418Y27878D01*
X3948889Y27585D01*
X3950360Y27878D01*
X3951607Y28711D01*
X3952440Y29958D01*
X3952733Y31429D01*
X3952440Y32900D01*
X3951607Y34147D01*
X3950961Y34579D01*
Y45032D01*
X3951607Y45464D01*
X3952440Y46711D01*
X3952733Y48182D01*
X3952440Y49653D01*
X3951607Y50900D01*
X3950360Y51733D01*
X3948889Y52026D01*
D02*
G37*
G36*
X3482766Y12734D02*
X3481294Y12441D01*
X3480047Y11608D01*
X3479214Y10361D01*
X3478922Y8890D01*
X3479214Y7419D01*
X3480047Y6172D01*
X3481294Y5339D01*
X3482766Y5046D01*
X3484236Y5339D01*
X3485483Y6172D01*
X3486317Y7419D01*
X3486609Y8890D01*
X3486317Y10361D01*
X3485483Y11608D01*
X3484236Y12441D01*
X3482766Y12734D01*
D02*
G37*
G36*
X3469485D02*
X3468015Y12441D01*
X3466768Y11608D01*
X3465934Y10361D01*
X3465642Y8890D01*
X3465934Y7419D01*
X3466768Y6172D01*
X3468015Y5339D01*
X3469485Y5046D01*
X3470956Y5339D01*
X3472204Y6172D01*
X3473037Y7419D01*
X3473329Y8890D01*
X3473037Y10361D01*
X3472204Y11608D01*
X3470956Y12441D01*
X3469485Y12734D01*
D02*
G37*
G36*
X4099522Y53757D02*
X4097953Y53445D01*
X4096624Y52556D01*
X4095735Y51227D01*
X4095423Y49658D01*
X4095735Y48090D01*
X4096624Y46760D01*
X4097953Y45871D01*
X4099522Y45559D01*
X4101091Y45871D01*
X4102420Y46760D01*
X4102973Y47586D01*
X4115562D01*
X4155559Y7589D01*
X4155559Y7589D01*
X4156231Y7140D01*
X4157024Y6982D01*
X4157024Y6982D01*
X4194620D01*
X4195173Y6155D01*
X4196502Y5267D01*
X4198071Y4955D01*
X4199640Y5267D01*
X4200969Y6155D01*
X4201858Y7485D01*
X4202170Y9054D01*
X4201858Y10622D01*
X4200969Y11952D01*
X4199640Y12840D01*
X4198071Y13152D01*
X4196502Y12840D01*
X4195173Y11952D01*
X4194620Y11126D01*
X4157882D01*
X4117885Y51123D01*
X4117213Y51572D01*
X4116420Y51730D01*
X4116420Y51730D01*
X4102973D01*
X4102420Y52556D01*
X4101091Y53445D01*
X4099522Y53757D01*
D02*
G37*
G36*
X662690Y62581D02*
Y59770D01*
X665500D01*
X665423Y60158D01*
X664484Y61564D01*
X663078Y62503D01*
X662690Y62581D01*
D02*
G37*
G36*
X660150D02*
X659762Y62503D01*
X658356Y61564D01*
X657416Y60158D01*
X657339Y59770D01*
X660150D01*
Y62581D01*
D02*
G37*
G36*
X651690D02*
Y59770D01*
X654500D01*
X654423Y60158D01*
X653484Y61564D01*
X652078Y62503D01*
X651690Y62581D01*
D02*
G37*
G36*
X649150D02*
X648762Y62503D01*
X647356Y61564D01*
X646416Y60158D01*
X646339Y59770D01*
X649150D01*
Y62581D01*
D02*
G37*
G36*
X665500Y57230D02*
X662690D01*
Y54419D01*
X663078Y54497D01*
X664484Y55436D01*
X665423Y56842D01*
X665500Y57230D01*
D02*
G37*
G36*
X660150D02*
X657339D01*
X657416Y56842D01*
X658356Y55436D01*
X659762Y54497D01*
X660150Y54419D01*
Y57230D01*
D02*
G37*
G36*
X654500D02*
X651690D01*
Y54419D01*
X652078Y54497D01*
X653484Y55436D01*
X654423Y56842D01*
X654500Y57230D01*
D02*
G37*
G36*
X649150D02*
X646339D01*
X646416Y56842D01*
X647356Y55436D01*
X648762Y54497D01*
X649150Y54419D01*
Y57230D01*
D02*
G37*
G36*
X662690Y51581D02*
Y48770D01*
X665500D01*
X665423Y49158D01*
X664484Y50564D01*
X663078Y51504D01*
X662690Y51581D01*
D02*
G37*
G36*
X660150D02*
X659762Y51504D01*
X658356Y50564D01*
X657416Y49158D01*
X657339Y48770D01*
X660150D01*
Y51581D01*
D02*
G37*
G36*
X651690D02*
Y48770D01*
X654500D01*
X654423Y49158D01*
X653484Y50564D01*
X652078Y51504D01*
X651690Y51581D01*
D02*
G37*
G36*
X649150D02*
X648762Y51504D01*
X647356Y50564D01*
X646416Y49158D01*
X646339Y48770D01*
X649150D01*
Y51581D01*
D02*
G37*
G36*
X665500Y46230D02*
X662690D01*
Y43419D01*
X663078Y43497D01*
X664484Y44436D01*
X665423Y45842D01*
X665500Y46230D01*
D02*
G37*
G36*
X660150D02*
X657339D01*
X657416Y45842D01*
X658356Y44436D01*
X659762Y43497D01*
X660150Y43419D01*
Y46230D01*
D02*
G37*
G36*
X654500D02*
X651690D01*
Y43419D01*
X652078Y43497D01*
X653484Y44436D01*
X654423Y45842D01*
X654500Y46230D01*
D02*
G37*
G36*
X649150D02*
X646339D01*
X646416Y45842D01*
X647356Y44436D01*
X648762Y43497D01*
X649150Y43419D01*
Y46230D01*
D02*
G37*
G36*
X624100Y49107D02*
X622629Y48815D01*
X621382Y47981D01*
X620549Y46734D01*
X620257Y45263D01*
X620549Y43792D01*
X621382Y42545D01*
X622629Y41712D01*
X624100Y41419D01*
X625571Y41712D01*
X626818Y42545D01*
X627652Y43792D01*
X627944Y45263D01*
X627652Y46734D01*
X626818Y47981D01*
X625571Y48815D01*
X624100Y49107D01*
D02*
G37*
G36*
X632881Y28952D02*
X631410Y28660D01*
X630163Y27827D01*
X629329Y26580D01*
X629037Y25109D01*
X629329Y23638D01*
X630163Y22390D01*
X631410Y21557D01*
X632881Y21265D01*
X634352Y21557D01*
X635599Y22390D01*
X636432Y23638D01*
X636724Y25109D01*
X636432Y26580D01*
X635599Y27827D01*
X634352Y28660D01*
X632881Y28952D01*
D02*
G37*
G36*
X643066Y27844D02*
X641595Y27551D01*
X640348Y26718D01*
X639515Y25471D01*
X639222Y24000D01*
X639515Y22529D01*
X640348Y21282D01*
X641595Y20449D01*
X643066Y20156D01*
X644537Y20449D01*
X645784Y21282D01*
X646617Y22529D01*
X646910Y24000D01*
X646617Y25471D01*
X645784Y26718D01*
X644537Y27551D01*
X643066Y27844D01*
D02*
G37*
G36*
X514403Y43099D02*
X512835Y42787D01*
X511505Y41898D01*
X510617Y40569D01*
X510305Y39000D01*
X510617Y37432D01*
X511505Y36102D01*
X512332Y35550D01*
Y23951D01*
X511505Y23398D01*
X510617Y22069D01*
X510305Y20500D01*
X510617Y18932D01*
X511505Y17602D01*
X512835Y16714D01*
X514403Y16401D01*
X515972Y16714D01*
X517302Y17602D01*
X518190Y18932D01*
X518502Y20500D01*
X518190Y22069D01*
X517302Y23398D01*
X516475Y23951D01*
Y35550D01*
X517302Y36102D01*
X518190Y37432D01*
X518502Y39000D01*
X518190Y40569D01*
X517302Y41898D01*
X515972Y42787D01*
X514403Y43099D01*
D02*
G37*
G36*
X320142Y27440D02*
X318671Y27147D01*
X317424Y26314D01*
X316590Y25067D01*
X316298Y23596D01*
X316590Y22125D01*
X317424Y20878D01*
X318070Y20446D01*
Y12650D01*
X317424Y12218D01*
X316590Y10971D01*
X316298Y9500D01*
X316590Y8029D01*
X317424Y6782D01*
X318671Y5949D01*
X320142Y5656D01*
X321613Y5949D01*
X322860Y6782D01*
X323693Y8029D01*
X323985Y9500D01*
X323693Y10971D01*
X322860Y12218D01*
X322213Y12650D01*
Y20446D01*
X322860Y20878D01*
X323693Y22125D01*
X323985Y23596D01*
X323693Y25067D01*
X322860Y26314D01*
X321613Y27147D01*
X320142Y27440D01*
D02*
G37*
G36*
X653170Y28349D02*
X651601Y28037D01*
X650272Y27148D01*
X649383Y25819D01*
X649071Y24250D01*
X649383Y22681D01*
X650272Y21352D01*
X651408Y20592D01*
Y10262D01*
X650762Y9830D01*
X649929Y8583D01*
X649636Y7112D01*
X649929Y5641D01*
X650762Y4394D01*
X652009Y3561D01*
X653480Y3268D01*
X654951Y3561D01*
X656198Y4394D01*
X657031Y5641D01*
X657324Y7112D01*
X657031Y8583D01*
X656198Y9830D01*
X655552Y10262D01*
Y21007D01*
X656068Y21352D01*
X656957Y22681D01*
X657269Y24250D01*
X656957Y25819D01*
X656068Y27148D01*
X654738Y28037D01*
X653170Y28349D01*
D02*
G37*
G36*
X1976291Y51464D02*
X1974820Y51171D01*
X1973573Y50338D01*
X1972739Y49091D01*
X1972447Y47620D01*
X1972739Y46149D01*
X1973573Y44902D01*
X1974046Y44586D01*
Y24384D01*
X1973399Y23952D01*
X1972566Y22705D01*
X1972273Y21234D01*
X1972566Y19763D01*
X1973399Y18516D01*
X1974646Y17683D01*
X1976117Y17390D01*
X1977588Y17683D01*
X1978835Y18516D01*
X1979668Y19763D01*
X1979961Y21234D01*
X1979668Y22705D01*
X1978835Y23952D01*
X1978189Y24384D01*
Y44354D01*
X1979009Y44902D01*
X1979842Y46149D01*
X1980134Y47620D01*
X1979842Y49091D01*
X1979009Y50338D01*
X1977762Y51171D01*
X1976291Y51464D01*
D02*
G37*
G36*
X2810209Y60318D02*
X2808738Y60026D01*
X2807491Y59192D01*
X2806658Y57945D01*
X2806365Y56474D01*
X2806658Y55003D01*
X2807491Y53756D01*
X2808738Y52923D01*
X2810209Y52630D01*
X2811680Y52923D01*
X2812927Y53756D01*
X2813760Y55003D01*
X2814053Y56474D01*
X2813760Y57945D01*
X2812927Y59192D01*
X2811680Y60026D01*
X2810209Y60318D01*
D02*
G37*
G36*
X2830006Y58708D02*
X2828535Y58415D01*
X2827288Y57582D01*
X2826455Y56335D01*
X2826162Y54864D01*
X2826455Y53393D01*
X2827288Y52146D01*
X2828535Y51313D01*
X2830006Y51020D01*
X2831477Y51313D01*
X2832724Y52146D01*
X2833557Y53393D01*
X2833850Y54864D01*
X2833557Y56335D01*
X2832724Y57582D01*
X2831477Y58415D01*
X2830006Y58708D01*
D02*
G37*
G36*
X1569489Y61375D02*
X1567519D01*
X1567389Y61321D01*
X1567251Y61348D01*
X1565319Y60964D01*
X1565202Y60886D01*
X1565061D01*
X1563241Y60132D01*
X1563141Y60032D01*
X1563003Y60005D01*
X1561365Y58910D01*
X1561287Y58794D01*
X1561157Y58740D01*
X1559764Y57347D01*
X1559710Y57217D01*
X1559593Y57138D01*
X1558499Y55500D01*
X1558471Y55362D01*
X1558372Y55263D01*
X1557618Y53443D01*
Y53302D01*
X1557540Y53185D01*
X1557482Y52897D01*
X1557477Y52884D01*
X1557471Y52841D01*
X1557155Y51253D01*
X1557183Y51115D01*
X1557129Y50985D01*
Y50241D01*
X1557087Y49924D01*
X1557129Y49608D01*
Y49015D01*
X1557183Y48885D01*
X1557155Y48747D01*
X1557413Y47455D01*
X1557477Y46965D01*
X1557618Y46625D01*
Y46557D01*
X1558372Y44737D01*
X1558420Y44689D01*
X1558619Y44208D01*
X1559196Y43456D01*
X1559593Y42862D01*
X1559710Y42783D01*
X1559764Y42653D01*
X1559970Y42448D01*
X1560436Y41840D01*
X1561044Y41374D01*
X1561157Y41260D01*
X1561232Y41230D01*
X1561314Y41167D01*
X1561365Y41090D01*
X1561743Y40837D01*
X1562804Y40023D01*
X1565561Y38881D01*
X1567147Y38672D01*
X1567251Y38652D01*
X1567272Y38656D01*
X1568520Y38492D01*
X1569749Y38653D01*
X1569757Y38652D01*
X1569796Y38660D01*
X1571479Y38881D01*
X1574237Y40023D01*
X1575519Y41007D01*
X1575642Y41090D01*
X1575659Y41115D01*
X1575847Y41259D01*
X1575850Y41260D01*
X1575855Y41265D01*
X1576604Y41840D01*
X1577179Y42590D01*
X1577243Y42653D01*
X1577261Y42695D01*
X1577361Y42826D01*
X1577414Y42862D01*
X1577589Y43124D01*
X1578421Y44208D01*
X1579563Y46965D01*
X1579692Y47944D01*
X1579852Y48747D01*
X1579825Y48885D01*
X1579878Y49015D01*
Y49358D01*
X1579953Y49924D01*
X1579878Y50491D01*
Y50985D01*
X1579825Y51115D01*
X1579852Y51253D01*
X1579633Y52352D01*
X1579563Y52884D01*
X1579495Y53050D01*
X1579468Y53185D01*
X1579391Y53300D01*
X1579389Y53304D01*
Y53443D01*
X1578636Y55263D01*
X1578537Y55361D01*
X1578536Y55365D01*
X1578509Y55500D01*
X1578432Y55615D01*
X1578421Y55641D01*
X1578371Y55706D01*
X1577414Y57138D01*
X1577297Y57217D01*
X1577243Y57347D01*
X1576681Y57909D01*
X1576604Y58009D01*
X1576505Y58085D01*
X1575850Y58740D01*
X1575720Y58794D01*
X1575642Y58910D01*
X1574004Y60005D01*
X1573866Y60032D01*
X1573767Y60132D01*
X1571947Y60886D01*
X1571806D01*
X1571689Y60964D01*
X1569757Y61348D01*
X1569619Y61321D01*
X1569489Y61375D01*
D02*
G37*
G36*
X1930190Y54451D02*
Y51640D01*
X1933000D01*
X1932923Y52028D01*
X1931984Y53434D01*
X1930578Y54373D01*
X1930190Y54451D01*
D02*
G37*
G36*
X1927650D02*
X1927262Y54373D01*
X1925856Y53434D01*
X1924916Y52028D01*
X1924839Y51640D01*
X1927650D01*
Y54451D01*
D02*
G37*
G36*
X1919190D02*
Y51640D01*
X1922000D01*
X1921923Y52028D01*
X1920984Y53434D01*
X1919578Y54373D01*
X1919190Y54451D01*
D02*
G37*
G36*
X1916650D02*
X1916261Y54373D01*
X1914856Y53434D01*
X1913916Y52028D01*
X1913839Y51640D01*
X1916650D01*
Y54451D01*
D02*
G37*
G36*
X1933000Y49100D02*
X1930190D01*
Y46289D01*
X1930578Y46367D01*
X1931984Y47306D01*
X1932923Y48712D01*
X1933000Y49100D01*
D02*
G37*
G36*
X1927650D02*
X1924839D01*
X1924916Y48712D01*
X1925856Y47306D01*
X1927262Y46367D01*
X1927650Y46289D01*
Y49100D01*
D02*
G37*
G36*
X1922000D02*
X1919190D01*
Y46289D01*
X1919578Y46367D01*
X1920984Y47306D01*
X1921923Y48712D01*
X1922000Y49100D01*
D02*
G37*
G36*
X1916650D02*
X1913839D01*
X1913916Y48712D01*
X1914856Y47306D01*
X1916261Y46367D01*
X1916650Y46289D01*
Y49100D01*
D02*
G37*
G36*
X1930190Y43451D02*
Y40640D01*
X1933000D01*
X1932923Y41028D01*
X1931984Y42434D01*
X1930578Y43373D01*
X1930190Y43451D01*
D02*
G37*
G36*
X1927650D02*
X1927262Y43373D01*
X1925856Y42434D01*
X1924916Y41028D01*
X1924839Y40640D01*
X1927650D01*
Y43451D01*
D02*
G37*
G36*
X1919190D02*
Y40640D01*
X1922000D01*
X1921923Y41028D01*
X1920984Y42434D01*
X1919578Y43373D01*
X1919190Y43451D01*
D02*
G37*
G36*
X1916650D02*
X1916261Y43373D01*
X1914856Y42434D01*
X1913916Y41028D01*
X1913839Y40640D01*
X1916650D01*
Y43451D01*
D02*
G37*
G36*
X1933000Y38100D02*
X1930190D01*
Y35289D01*
X1930578Y35367D01*
X1931984Y36306D01*
X1932923Y37712D01*
X1933000Y38100D01*
D02*
G37*
G36*
X1927650D02*
X1924839D01*
X1924916Y37712D01*
X1925856Y36306D01*
X1927262Y35367D01*
X1927650Y35289D01*
Y38100D01*
D02*
G37*
G36*
X1922000D02*
X1919190D01*
Y35289D01*
X1919578Y35367D01*
X1920984Y36306D01*
X1921923Y37712D01*
X1922000Y38100D01*
D02*
G37*
G36*
X1916650D02*
X1913839D01*
X1913916Y37712D01*
X1914856Y36306D01*
X1916261Y35367D01*
X1916650Y35289D01*
Y38100D01*
D02*
G37*
G36*
X1908737Y20087D02*
X1907266Y19795D01*
X1906019Y18961D01*
X1905587Y18315D01*
X1902043D01*
X1901611Y18961D01*
X1900364Y19795D01*
X1898893Y20087D01*
X1897422Y19795D01*
X1896175Y18961D01*
X1895342Y17715D01*
X1895049Y16243D01*
X1895342Y14772D01*
X1896175Y13525D01*
X1897422Y12692D01*
X1898893Y12400D01*
X1900364Y12692D01*
X1901611Y13525D01*
X1902043Y14172D01*
X1905587D01*
X1906019Y13525D01*
X1907266Y12692D01*
X1908737Y12400D01*
X1910208Y12692D01*
X1911455Y13525D01*
X1912288Y14772D01*
X1912581Y16243D01*
X1912288Y17715D01*
X1911455Y18961D01*
X1910208Y19795D01*
X1908737Y20087D01*
D02*
G37*
G36*
X1529685Y60915D02*
X1528214Y60622D01*
X1526967Y59789D01*
X1526134Y58542D01*
X1525841Y57071D01*
X1526134Y55600D01*
X1526967Y54353D01*
X1527614Y53921D01*
Y13934D01*
X923752D01*
X923752Y13934D01*
X922959Y13776D01*
X922287Y13327D01*
X922287Y13327D01*
X921191Y12232D01*
X859490D01*
X859058Y12878D01*
X857811Y13711D01*
X856340Y14004D01*
X854869Y13711D01*
X853622Y12878D01*
X852789Y11631D01*
X852496Y10160D01*
X852789Y8689D01*
X853622Y7442D01*
X854869Y6609D01*
X856340Y6316D01*
X857811Y6609D01*
X859058Y7442D01*
X859490Y8088D01*
X922050D01*
X922050Y8088D01*
X922843Y8246D01*
X923515Y8695D01*
X924610Y9790D01*
X1528792D01*
X1528793Y9790D01*
X1529585Y9948D01*
X1530258Y10397D01*
X1531150Y11290D01*
X1531150Y11290D01*
X1531599Y11962D01*
X1531757Y12755D01*
X1531757Y12755D01*
Y53921D01*
X1532403Y54353D01*
X1533237Y55600D01*
X1533529Y57071D01*
X1533237Y58542D01*
X1532403Y59789D01*
X1531156Y60622D01*
X1529685Y60915D01*
D02*
G37*
G36*
X3231177Y16741D02*
X3229706Y16448D01*
X3228459Y15615D01*
X3227626Y14368D01*
X3227333Y12897D01*
X3227626Y11426D01*
X3228459Y10179D01*
X3229706Y9345D01*
X3231177Y9053D01*
X3232648Y9345D01*
X3233895Y10179D01*
X3234729Y11426D01*
X3235021Y12897D01*
X3234729Y14368D01*
X3233895Y15615D01*
X3232648Y16448D01*
X3231177Y16741D01*
D02*
G37*
%LPD*%
D15*
X2842396Y47083D02*
X2846524Y51211D01*
X2782328Y47083D02*
X2842396D01*
X1544595Y41186D02*
Y57079D01*
X1535508Y66166D02*
X1544595Y57079D01*
X1516228Y66166D02*
X1535508D01*
X1553551Y32230D02*
X1877077D01*
X1544595Y41186D02*
X1553551Y32230D01*
X1495165Y45104D02*
X1516228Y66166D01*
X859103Y45104D02*
X1495165D01*
X687056Y42000D02*
X733010D01*
X749870Y58860D01*
X786060D01*
X786420Y58500D01*
X839428Y64778D02*
X859103Y45104D01*
X792698Y64778D02*
X839428D01*
X2930366Y42671D02*
Y56875D01*
X2915479Y71762D02*
X2930366Y56875D01*
X2867075Y71762D02*
X2915479D01*
X3519227Y31429D02*
X3710569D01*
X3495920Y54737D02*
X3519227Y31429D01*
X2962635Y34544D02*
X2989774Y61683D01*
X2767728Y61619D02*
Y61683D01*
X2118053Y53139D02*
Y62758D01*
X2087322Y22407D02*
X2118053Y53139D01*
X2930366Y42671D02*
X2938493Y34544D01*
X2962635D01*
X786420Y34566D02*
X806810Y14175D01*
X2053111Y28358D02*
X2059062Y22407D01*
X2087322D01*
X2767791Y61619D02*
X2782328Y47083D01*
X2767728Y61619D02*
X2767791D01*
X3947971Y65721D02*
X3986611D01*
X3936938Y54689D02*
X3947971Y65721D01*
X3936938Y43968D02*
Y54689D01*
X3925620Y32650D02*
X3936938Y43968D01*
X3986611Y65721D02*
X3998900Y53432D01*
X4005746D01*
Y53448D01*
X4014080Y61782D01*
X4026280Y49582D01*
X4088582D01*
X3845891Y32650D02*
X3925620D01*
X3721918Y20080D02*
X3833322D01*
X3710569Y31429D02*
X3721918Y20080D01*
X3833322D02*
X3845891Y32650D01*
X2846524Y51211D02*
X2867075Y71762D01*
X786420Y58500D02*
X792698Y64778D01*
X786420Y34566D02*
Y58500D01*
D60*
X2934306Y62040D02*
X2957162D01*
X2957445Y62323D01*
X243909Y79327D02*
X244613Y78623D01*
X2840196Y27666D02*
Y28544D01*
Y27666D02*
X2848076Y19786D01*
Y18908D02*
Y19786D01*
X2916043Y7088D02*
X2917320D01*
X2915656Y7475D02*
X2916043Y7088D01*
X2822662Y8954D02*
X2861750D01*
X2826988Y13716D02*
X2857383D01*
X2794920Y2442D02*
X2912674D01*
X2817098Y41988D02*
X2872892D01*
X2885098Y29782D01*
X2675081Y42395D02*
X2677149Y40326D01*
X2745154D01*
X2745554Y40725D01*
X2675081Y42395D02*
Y50986D01*
X2745554Y40725D02*
X2815835D01*
X2817098Y41988D01*
X2843684Y33331D02*
X2853054Y23962D01*
X2826880Y33331D02*
X2843684D01*
X2788446Y8916D02*
X2794920Y2442D01*
X2912674D02*
X2917320Y7088D01*
X2957906Y15877D02*
X2970357Y3425D01*
X2909225Y15877D02*
X2957906D01*
X2907257Y13909D02*
X2909225Y15877D01*
X2866704Y13909D02*
X2907257D01*
X2848076Y67313D02*
X2848701Y67938D01*
Y108651D01*
X817237Y14723D02*
Y29238D01*
X816471Y13958D02*
X817237Y14723D01*
X749954Y20261D02*
Y46873D01*
X829148Y9196D02*
X844291Y24339D01*
Y45104D01*
X1908724Y16243D02*
X1908737Y16256D01*
X1898893D02*
X1898905Y16243D01*
X752565Y71762D02*
X855191D01*
X741247Y60445D02*
X752565Y71762D01*
X726991Y60445D02*
X741247D01*
X715991Y49445D02*
X726991Y60445D01*
X679263Y49445D02*
X715991D01*
X663420Y33602D02*
X679263Y49445D01*
X663420Y24000D02*
Y33602D01*
X653480Y7112D02*
Y24836D01*
X800495Y9196D02*
X829148D01*
X794958Y14732D02*
X800495Y9196D01*
X4102512Y6842D02*
X4109920Y14250D01*
X4054156Y6842D02*
X4102512D01*
X4051297Y3983D02*
X4054156Y6842D01*
X1850034Y9762D02*
X1856382Y3414D01*
X1617453Y9762D02*
X1850034D01*
X1614791Y7100D02*
X1617453Y9762D01*
X2613214Y3426D02*
X2757038D01*
X2607724Y8916D02*
X2613214Y3426D01*
X2546431Y8916D02*
X2607724D01*
X2762529D02*
X2788446D01*
X2757038Y3426D02*
X2762529Y8916D01*
X3140856Y8890D02*
X3145618Y4128D01*
X3126193Y8890D02*
X3140856D01*
X3120727Y3425D02*
X3126193Y8890D01*
X3145618Y4128D02*
X3301179D01*
X2970357Y3425D02*
X3120727D01*
X3305220Y8169D02*
X3325148D01*
X3301179Y4128D02*
X3305220Y8169D01*
X3405852Y21093D02*
X3421000Y36240D01*
X3371914Y21093D02*
X3405852D01*
X3363225Y29782D02*
X3371914Y21093D01*
X2885098Y29782D02*
X3363225D01*
X3372654Y9462D02*
X3433255D01*
X3358155Y23962D02*
X3372654Y9462D01*
X2853054Y23962D02*
X3358155D01*
X3469485Y27861D02*
Y109695D01*
X3445753Y4128D02*
X3469485Y27861D01*
X3329189Y4128D02*
X3445753D01*
X3364293Y47946D02*
Y79900D01*
X3325148Y8169D02*
X3329189Y4128D01*
X3348157Y54706D02*
Y76414D01*
Y54706D02*
X3348252Y54610D01*
X3411000Y106981D02*
Y162062D01*
X3390529Y86510D02*
X3411000Y106981D01*
X3390529Y31429D02*
Y86510D01*
X3416000Y103044D02*
Y157662D01*
X3400500Y87544D02*
X3416000Y103044D01*
X3456112Y42406D02*
Y73362D01*
X3446085Y133096D02*
X3469485Y109695D01*
X3440799Y17005D02*
Y129242D01*
X3433255Y9462D02*
X3440799Y17005D01*
X3447262Y42686D02*
Y94881D01*
X3435959Y59287D02*
Y98435D01*
X3435749Y59077D02*
X3435959Y59287D01*
X3438939Y131101D02*
X3440799Y129242D01*
X3438939Y131101D02*
Y147015D01*
X3451086Y159162D01*
X3430987Y27432D02*
Y89399D01*
X3431000Y89412D01*
X3430987Y27432D02*
X3431000Y27418D01*
X3426000Y15146D02*
Y95662D01*
X3421000Y36240D02*
Y133096D01*
X4063500Y21606D02*
X4084104Y42210D01*
X3906473Y21606D02*
X4063500D01*
X3776399Y47189D02*
X3790430Y33158D01*
X3819626D01*
X3768417Y52738D02*
X3785529Y69850D01*
X3740866Y52738D02*
X3768417D01*
X3739000Y54604D02*
X3740866Y52738D01*
X3172624Y37867D02*
Y64759D01*
X3184279Y76414D01*
X2819981Y26432D02*
X2826880Y33331D01*
X2681979Y26432D02*
X2819981D01*
X2666017Y42395D02*
X2681979Y26432D01*
X2666017Y42395D02*
Y61925D01*
X1891222Y62230D02*
X1907224Y78232D01*
X1903112Y62230D02*
X1930347D01*
X1879386D02*
Y77762D01*
X1907224Y78232D02*
X1979019D01*
X1885636Y84012D02*
X1962354D01*
X1873386Y53074D02*
Y78232D01*
X2953641Y55626D02*
X2964727D01*
X2654545Y68571D02*
X2654807Y68310D01*
X2785270Y54345D02*
Y64309D01*
X2018747Y58333D02*
X2073667D01*
X1984202Y83762D02*
X2025856Y42109D01*
X1984196Y32051D02*
Y52200D01*
X2078230Y53770D02*
X2081970D01*
X2025856Y42109D02*
X2077043D01*
X1962604Y83762D02*
X1984202D01*
X2073667Y58333D02*
X2078230Y53770D01*
X1977696Y60000D02*
X1983484D01*
X2615790Y33297D02*
Y61236D01*
X2290411Y62230D02*
X2340751Y11890D01*
X2162991Y78232D02*
X2183819Y57404D01*
X2654807Y21239D02*
X2655069Y20977D01*
X2654807Y21239D02*
Y68310D01*
X3761593Y57500D02*
Y79360D01*
X3762182Y79949D01*
X1964322Y62693D02*
Y63166D01*
X1879386Y77762D02*
X1885636Y84012D01*
X1931558Y29929D02*
X1964322Y62693D01*
X2615790Y33297D02*
X2639483Y9604D01*
X3101499Y54737D02*
Y73392D01*
X3102274Y74168D01*
X3579827Y54610D02*
Y79693D01*
X3580082Y79949D01*
X2914084Y82262D02*
X2934306Y62040D01*
X3948889Y31429D02*
Y48182D01*
X3840733Y40761D02*
X3847621D01*
X2136829Y53770D02*
X2138550D01*
X2159547Y32773D01*
X2196225D01*
X1856382Y3414D02*
X1955891D01*
X3901362Y3983D02*
X4051297D01*
X2861750Y8954D02*
X2866704Y13909D01*
X2862867Y19200D02*
X2882194D01*
X2857383Y13716D02*
X2862867Y19200D01*
X4126659Y12419D02*
X4127420Y11658D01*
X4117728Y33350D02*
X4132920Y18158D01*
X4126659Y12419D02*
Y14783D01*
X4103854Y33350D02*
X4117728D01*
X4116420Y49658D02*
X4157024Y9054D01*
X4198071D01*
X4024048Y16566D02*
X4070636D01*
X3946081Y11554D02*
X4099630D01*
X4101223Y13146D01*
X3896456Y8890D02*
X3901362Y3983D01*
X3837454Y8890D02*
X3896456D01*
X3660900Y8890D02*
X3673246D01*
X3678008Y13652D01*
X3838910D01*
X2639483Y9604D02*
X2719722D01*
X2808771Y22845D02*
X2822662Y8954D01*
X2675081Y22845D02*
X2808771D01*
X2666017Y31908D02*
X2675081Y22845D01*
X2340751Y11890D02*
X2364211D01*
X2466266Y25229D02*
X2466895Y24600D01*
X2466266Y25229D02*
Y76239D01*
X2465637Y76868D02*
X2466266Y76239D01*
X2062148Y4014D02*
X2147524D01*
X2147610Y4100D01*
X2056400Y9762D02*
X2062148Y4014D01*
X2063919Y12786D02*
X2067929Y8776D01*
X2006485Y9762D02*
X2056400D01*
X1983484Y60000D02*
X1991732Y51752D01*
X2015194Y12786D02*
X2063919D01*
X1991732Y36248D02*
X2015194Y12786D01*
X1984196Y32051D02*
X2006485Y9762D01*
X2067929Y8776D02*
X2093631D01*
X1954633Y8890D02*
Y25602D01*
X1951501Y28733D02*
X1954633Y25602D01*
X1991732Y36248D02*
Y51752D01*
X726415Y18300D02*
Y24765D01*
X834766Y24000D02*
Y46173D01*
X726415Y24765D02*
X743336Y41685D01*
X2099874Y17075D02*
X2125517Y42719D01*
X2016805Y17075D02*
X2099874D01*
X2000650Y33230D02*
X2016805Y17075D01*
X2000650Y33230D02*
Y50370D01*
X2021997Y35255D02*
X2080179D01*
X1979019Y78232D02*
X2021997Y35255D01*
X2080179D02*
X2117924Y73000D01*
X1979258Y71762D02*
X2000650Y50370D01*
X1955891Y3414D02*
X1959395Y6918D01*
X1528793Y11862D02*
X1529685Y12755D01*
X923752Y11862D02*
X1528793D01*
X922050Y10160D02*
X923752Y11862D01*
X856340Y10160D02*
X922050D01*
X1529685Y12755D02*
Y57071D01*
X594469Y10540D02*
X604704Y20776D01*
X566500Y10540D02*
X594469D01*
X604704Y20776D02*
Y48049D01*
X514403Y20500D02*
Y39000D01*
X320142Y9500D02*
Y23596D01*
X2899284Y104909D02*
X2910213Y115839D01*
X2916398D01*
X2899284Y82262D02*
Y104909D01*
X862434Y64520D02*
X1348285D01*
X855191Y71762D02*
X862434Y64520D01*
X604704Y48049D02*
Y74500D01*
X778099Y3633D02*
X838252D01*
X842856Y8236D01*
X773117Y8615D02*
X778099Y3633D01*
X2152561Y73000D02*
X2171459Y54102D01*
X2171614D01*
X2117924Y73000D02*
X2152561D01*
X2125517Y57429D02*
X2132949Y64861D01*
X2125517Y42719D02*
Y57429D01*
X1887090Y39370D02*
X1897793D01*
X1873386Y53074D02*
X1887090Y39370D01*
X3928272Y70836D02*
X3936938Y79502D01*
X3928272Y48182D02*
Y70836D01*
X3827600Y27629D02*
X3840733Y40761D01*
X3772353Y27629D02*
X3827600D01*
X3845338Y20080D02*
X3898989D01*
X3838910Y13652D02*
X3845338Y20080D01*
X3761593Y38388D02*
X3772353Y27629D01*
X3819626Y33158D02*
X3837454Y50985D01*
X2077043Y42109D02*
X2113166Y78232D01*
X2132949Y64861D02*
X2149309D01*
X2174800Y39370D01*
X2113166Y78232D02*
X2162991D01*
X1976117Y47447D02*
X1976291Y47620D01*
X1957516Y26995D02*
Y39370D01*
X1959395Y6918D02*
Y25117D01*
X1898905Y16243D02*
X1908724D01*
X1966283Y42109D02*
X1966294Y42120D01*
X1957516Y26995D02*
X1959395Y25117D01*
X1939999Y71882D02*
X1946305D01*
X1946425Y71762D02*
X1979258D01*
X1946305Y71882D02*
X1946425Y71762D01*
X1931558Y17075D02*
Y29929D01*
X1897793Y39370D02*
X1920920Y16243D01*
X762192Y53340D02*
X767497Y48035D01*
X759774Y7250D02*
Y44750D01*
X767497Y13958D02*
Y48035D01*
Y13958D02*
X772839Y8615D01*
X2975839Y66738D02*
X3002821D01*
X2964727Y55626D02*
X2975839Y66738D01*
X3002821D02*
X3002900Y66659D01*
X2942288Y49015D02*
X2947030D01*
X2953641Y55626D01*
X4001631Y63350D02*
X4001799Y63182D01*
X3898989Y20080D02*
X3903253Y15817D01*
X3941818D02*
X3946081Y11554D01*
X3903253Y15817D02*
X3941818D01*
X1976117Y21234D02*
Y47447D01*
X1966283Y21234D02*
Y42109D01*
X772839Y8615D02*
X773117D01*
X426354Y36937D02*
X426462Y36830D01*
X426354Y36937D02*
Y79634D01*
X244613Y46670D02*
Y78623D01*
Y44517D02*
Y46670D01*
X243909Y79327D02*
X244613D01*
X3810554Y69850D02*
X3825393Y55010D01*
X3785529Y69850D02*
X3810554D01*
X4094994Y42210D02*
X4103854Y33350D01*
X4084104Y42210D02*
X4094994D01*
X4112008Y25158D02*
X4116284D01*
X4111996Y25170D02*
X4112008Y25158D01*
X4107844Y25170D02*
X4111996D01*
X4107832Y25158D02*
X4107844Y25170D01*
X4098920Y25158D02*
X4107832D01*
X4116284D02*
X4126659Y14783D01*
X4109920Y14250D02*
Y20158D01*
X3761593Y38388D02*
Y41782D01*
X2196225Y32773D02*
X2217319Y53868D01*
Y54102D01*
X2522015Y33331D02*
X2546431Y8916D01*
X2941720Y49584D02*
X2942288Y49015D01*
X4070636Y16566D02*
X4087420Y33350D01*
X1930347Y62230D02*
X1939999Y71882D01*
X1962354Y84012D02*
X1962604Y83762D01*
X653170Y25146D02*
X653480Y24836D01*
X4001463Y80762D02*
X4001631Y80594D01*
Y63350D02*
Y80594D01*
X933206Y126945D02*
X937523Y122629D01*
X933206Y126945D02*
Y150062D01*
X905456Y92062D02*
Y95562D01*
X902706Y89312D02*
X905456Y92062D01*
X898456Y89312D02*
X902706D01*
X895724Y92044D02*
X898456Y89312D01*
X895724Y141080D02*
X898706Y144062D01*
X892706Y142562D02*
X897206Y147062D01*
X889724Y144080D02*
X895706Y150062D01*
X886724Y145580D02*
X894206Y153062D01*
X915206Y150062D02*
X921224Y144044D01*
X916706Y153062D02*
X924206Y145562D01*
X913706Y147062D02*
X918206Y142562D01*
X912206Y144062D02*
X915224Y141044D01*
X883724Y86044D02*
Y147080D01*
X889724Y89044D02*
Y144080D01*
X895724Y92044D02*
Y141080D01*
X892706Y90562D02*
Y142562D01*
X886724Y87544D02*
Y145580D01*
X921224Y86080D02*
Y144044D01*
X918206Y87562D02*
Y142562D01*
X915224Y90562D02*
Y141044D01*
X880724Y84812D02*
Y148580D01*
X877706Y83062D02*
Y150062D01*
X924206Y84562D02*
Y145562D01*
X930206Y81562D02*
Y148562D01*
X927224Y83312D02*
Y147062D01*
X898706Y144062D02*
X912206D01*
X897206Y147062D02*
X913706D01*
X880724Y148580D02*
X891206Y159062D01*
X877706Y150062D02*
X889706Y162062D01*
X883724Y147080D02*
X892706Y156062D01*
X921206Y162062D02*
X933206Y150062D01*
X918206Y156062D02*
X927224Y147044D01*
X919706Y159062D02*
X930206Y148562D01*
X891206Y159062D02*
X919706D01*
X889706Y162062D02*
X921206D01*
X895706Y150062D02*
X915206D01*
X894206Y153062D02*
X916706D01*
X892706Y156062D02*
X918206D01*
X880724Y84544D02*
Y84812D01*
X886724Y87544D02*
X894206Y80062D01*
X889724Y89044D02*
X895706Y83062D01*
X892706Y90562D02*
X897206Y86062D01*
X915206Y80062D02*
X921224Y86080D01*
X916706Y77062D02*
X924206Y84562D01*
X913706Y83062D02*
X918206Y87562D01*
X910706Y86062D02*
X915206Y90562D01*
X927224Y83080D02*
Y83312D01*
X883724Y86044D02*
X892706Y77062D01*
X897206Y86062D02*
X910706D01*
X880724Y84544D02*
X891206Y74062D01*
X877706Y83062D02*
X889706Y71062D01*
X919706D02*
X930206Y81562D01*
X918206Y74062D02*
X927224Y83080D01*
X895706Y83062D02*
X913706D01*
X894206Y80062D02*
X915206D01*
X892706Y77062D02*
X916706D01*
X889706Y71062D02*
X919706D01*
X891206Y74062D02*
X918206D01*
X4099522Y49658D02*
X4116420D01*
X4455331Y127045D02*
X4459647Y122729D01*
X4455331Y127045D02*
Y150162D01*
X4427581Y92162D02*
Y95662D01*
X4424831Y89412D02*
X4427581Y92162D01*
X4420581Y89412D02*
X4424831D01*
X4417849Y92144D02*
X4420581Y89412D01*
X4417849Y141180D02*
X4420831Y144162D01*
X4414831Y142662D02*
X4419331Y147162D01*
X4411849Y144180D02*
X4417831Y150162D01*
X4408849Y145680D02*
X4416331Y153162D01*
X4437331Y150162D02*
X4443349Y144144D01*
X4438831Y153162D02*
X4446331Y145662D01*
X4435831Y147162D02*
X4440331Y142662D01*
X4434331Y144162D02*
X4437349Y141144D01*
X4405849Y86144D02*
Y147180D01*
X4411849Y89144D02*
Y144180D01*
X4417849Y92144D02*
Y141180D01*
X4414831Y90662D02*
Y142662D01*
X4408849Y87644D02*
Y145680D01*
X4443349Y86180D02*
Y144144D01*
X4440331Y87662D02*
Y142662D01*
X4437349Y90662D02*
Y141144D01*
X4402849Y84912D02*
Y148680D01*
X4399831Y83162D02*
Y150162D01*
X4446331Y84662D02*
Y145662D01*
X4452331Y81662D02*
Y148662D01*
X4449349Y83412D02*
Y147162D01*
X4420831Y144162D02*
X4434331D01*
X4419331Y147162D02*
X4435831D01*
X4402849Y148680D02*
X4413331Y159162D01*
X4399831Y150162D02*
X4411831Y162162D01*
X4405849Y147180D02*
X4414831Y156162D01*
X4443331Y162162D02*
X4455331Y150162D01*
X4440331Y156162D02*
X4449349Y147144D01*
X4441831Y159162D02*
X4452331Y148662D01*
X4413331Y159162D02*
X4441831D01*
X4411831Y162162D02*
X4443331D01*
X4417831Y150162D02*
X4437331D01*
X4416331Y153162D02*
X4438831D01*
X4414831Y156162D02*
X4440331D01*
X4402849Y84644D02*
Y84912D01*
X4408849Y87644D02*
X4416331Y80162D01*
X4411849Y89144D02*
X4417831Y83162D01*
X4414831Y90662D02*
X4419331Y86162D01*
X4437331Y80162D02*
X4443349Y86180D01*
X4438831Y77162D02*
X4446331Y84662D01*
X4435831Y83162D02*
X4440331Y87662D01*
X4432831Y86162D02*
X4437331Y90662D01*
X4449349Y83180D02*
Y83412D01*
X4405849Y86144D02*
X4414831Y77162D01*
X4419331Y86162D02*
X4432831D01*
X4402849Y84644D02*
X4413331Y74162D01*
X4399831Y83162D02*
X4411831Y71162D01*
X4441831D02*
X4452331Y81662D01*
X4440331Y74162D02*
X4449349Y83180D01*
X4417831Y83162D02*
X4435831D01*
X4416331Y80162D02*
X4437331D01*
X4414831Y77162D02*
X4438831D01*
X4411831Y71162D02*
X4441831D01*
X4413331Y74162D02*
X4440331D01*
X2939153Y74723D02*
X2966152D01*
X2937652Y71723D02*
X2967652D01*
X2940652Y77723D02*
X2964652D01*
X2942152Y80723D02*
X2963152D01*
X2943652Y83723D02*
X2961653D01*
X2966152Y74723D02*
X2975171Y83741D01*
X2967652Y71723D02*
X2978152Y82223D01*
X2925652Y83723D02*
X2937652Y71723D01*
X2928671Y85205D02*
X2939153Y74723D01*
X2945152Y86723D02*
X2958652D01*
X2931671Y86705D02*
X2940652Y77723D01*
X2975171Y83741D02*
Y83973D01*
X2958652Y86723D02*
X2963152Y91223D01*
X2961653Y83723D02*
X2966152Y88223D01*
X2964652Y77723D02*
X2972152Y85223D01*
X2963152Y80723D02*
X2969171Y86741D01*
X2940652Y91223D02*
X2945152Y86723D01*
X2937671Y89705D02*
X2943652Y83723D01*
X2934671Y88205D02*
X2942152Y80723D01*
X2928671Y85205D02*
Y85473D01*
X2940652Y156723D02*
X2966152D01*
X2942152Y153723D02*
X2964652D01*
X2943652Y150723D02*
X2963152D01*
X2937652Y162723D02*
X2969153D01*
X2939153Y159723D02*
X2967652D01*
X2978152Y149223D01*
X2966152Y156723D02*
X2975171Y147705D01*
X2969153Y162723D02*
X2981152Y150723D01*
X2931671Y147741D02*
X2940652Y156723D01*
X2925652Y150723D02*
X2937652Y162723D01*
X2928671Y149241D02*
X2939153Y159723D01*
X2945152Y147723D02*
X2961653D01*
X2946653Y144723D02*
X2960152D01*
X2975171Y83973D02*
Y147723D01*
X2978152Y82223D02*
Y149223D01*
X2972152Y85223D02*
Y146223D01*
X2925652Y83723D02*
Y150723D01*
X2928671Y85473D02*
Y149241D01*
X2963171Y91223D02*
Y141705D01*
X2966152Y88223D02*
Y143223D01*
X2969171Y86741D02*
Y144705D01*
X2934671Y88205D02*
Y146241D01*
X2940652Y91223D02*
Y143223D01*
X2943671Y92705D02*
Y141741D01*
X2937671Y89705D02*
Y144741D01*
X2931671Y86705D02*
Y147741D01*
X2960152Y144723D02*
X2963171Y141705D01*
X2961653Y147723D02*
X2966152Y143223D01*
X2964652Y153723D02*
X2972152Y146223D01*
X2963152Y150723D02*
X2969171Y144705D01*
X2934671Y146241D02*
X2942152Y153723D01*
X2937671Y144741D02*
X2943652Y150723D01*
X2940652Y143223D02*
X2945152Y147723D01*
X2943671Y141741D02*
X2946653Y144723D01*
X2943671Y92705D02*
X2946402Y89973D01*
X2950652D01*
X2953402Y92723D01*
Y96223D01*
X2981152Y127606D02*
Y150723D01*
Y127606D02*
X2985469Y123290D01*
X1507320Y127045D02*
X1511636Y122729D01*
X1507320Y127045D02*
Y150162D01*
X1479570Y92162D02*
Y95662D01*
X1476820Y89412D02*
X1479570Y92162D01*
X1472570Y89412D02*
X1476820D01*
X1469838Y92144D02*
X1472570Y89412D01*
X1469838Y141180D02*
X1472820Y144162D01*
X1466820Y142662D02*
X1471320Y147162D01*
X1463838Y144180D02*
X1469820Y150162D01*
X1460838Y145680D02*
X1468320Y153162D01*
X1489320Y150162D02*
X1495338Y144144D01*
X1490820Y153162D02*
X1498320Y145662D01*
X1487820Y147162D02*
X1492320Y142662D01*
X1486320Y144162D02*
X1489338Y141144D01*
X1457838Y86144D02*
Y147180D01*
X1463838Y89144D02*
Y144180D01*
X1469838Y92144D02*
Y141180D01*
X1466820Y90662D02*
Y142662D01*
X1460838Y87644D02*
Y145680D01*
X1495338Y86180D02*
Y144144D01*
X1492320Y87662D02*
Y142662D01*
X1489338Y90662D02*
Y141144D01*
X1454838Y84912D02*
Y148680D01*
X1451820Y83162D02*
Y150162D01*
X1498320Y84662D02*
Y145662D01*
X1504320Y81662D02*
Y148662D01*
X1501338Y83412D02*
Y147162D01*
X1472820Y144162D02*
X1486320D01*
X1471320Y147162D02*
X1487820D01*
X1454838Y148680D02*
X1465320Y159162D01*
X1451820Y150162D02*
X1463820Y162162D01*
X1457838Y147180D02*
X1466820Y156162D01*
X1495320Y162162D02*
X1507320Y150162D01*
X1492320Y156162D02*
X1501338Y147144D01*
X1493820Y159162D02*
X1504320Y148662D01*
X1465320Y159162D02*
X1493820D01*
X1463820Y162162D02*
X1495320D01*
X1469820Y150162D02*
X1489320D01*
X1468320Y153162D02*
X1490820D01*
X1466820Y156162D02*
X1492320D01*
X1454838Y84644D02*
Y84912D01*
X1460838Y87644D02*
X1468320Y80162D01*
X1463838Y89144D02*
X1469820Y83162D01*
X1466820Y90662D02*
X1471320Y86162D01*
X1489320Y80162D02*
X1495338Y86180D01*
X1490820Y77162D02*
X1498320Y84662D01*
X1487820Y83162D02*
X1492320Y87662D01*
X1484820Y86162D02*
X1489320Y90662D01*
X1501338Y83180D02*
Y83412D01*
X1457838Y86144D02*
X1466820Y77162D01*
X1471320Y86162D02*
X1484820D01*
X1454838Y84644D02*
X1465320Y74162D01*
X1451820Y83162D02*
X1463820Y71162D01*
X1493820D02*
X1504320Y81662D01*
X1492320Y74162D02*
X1501338Y83180D01*
X1469820Y83162D02*
X1487820D01*
X1468320Y80162D02*
X1489320D01*
X1466820Y77162D02*
X1490820D01*
X1463820Y71162D02*
X1493820D01*
X1465320Y74162D02*
X1492320D01*
X4233255D02*
X4260255D01*
X4231755Y71162D02*
X4261755D01*
X4234755Y77162D02*
X4258755D01*
X4236255Y80162D02*
X4257255D01*
X4237755Y83162D02*
X4255755D01*
X4260255Y74162D02*
X4269273Y83180D01*
X4261755Y71162D02*
X4272255Y81662D01*
X4219755Y83162D02*
X4231755Y71162D01*
X4222773Y84644D02*
X4233255Y74162D01*
X4239255Y86162D02*
X4252755D01*
X4225773Y86144D02*
X4234755Y77162D01*
X4269273Y83180D02*
Y83412D01*
X4252755Y86162D02*
X4257255Y90662D01*
X4255755Y83162D02*
X4260255Y87662D01*
X4258755Y77162D02*
X4266255Y84662D01*
X4257255Y80162D02*
X4263273Y86180D01*
X4234755Y90662D02*
X4239255Y86162D01*
X4231773Y89144D02*
X4237755Y83162D01*
X4228773Y87644D02*
X4236255Y80162D01*
X4222773Y84644D02*
Y84912D01*
X4234755Y156162D02*
X4260255D01*
X4236255Y153162D02*
X4258755D01*
X4237755Y150162D02*
X4257255D01*
X4231755Y162162D02*
X4263255D01*
X4233255Y159162D02*
X4261755D01*
X4272255Y148662D01*
X4260255Y156162D02*
X4269273Y147144D01*
X4263255Y162162D02*
X4275255Y150162D01*
X4225773Y147180D02*
X4234755Y156162D01*
X4219755Y150162D02*
X4231755Y162162D01*
X4222773Y148680D02*
X4233255Y159162D01*
X4239255Y147162D02*
X4255755D01*
X4240755Y144162D02*
X4254255D01*
X4269273Y83412D02*
Y147162D01*
X4272255Y81662D02*
Y148662D01*
X4266255Y84662D02*
Y145662D01*
X4219755Y83162D02*
Y150162D01*
X4222773Y84912D02*
Y148680D01*
X4257273Y90662D02*
Y141144D01*
X4260255Y87662D02*
Y142662D01*
X4263273Y86180D02*
Y144144D01*
X4228773Y87644D02*
Y145680D01*
X4234755Y90662D02*
Y142662D01*
X4237773Y92144D02*
Y141180D01*
X4231773Y89144D02*
Y144180D01*
X4225773Y86144D02*
Y147180D01*
X4254255Y144162D02*
X4257273Y141144D01*
X4255755Y147162D02*
X4260255Y142662D01*
X4258755Y153162D02*
X4266255Y145662D01*
X4257255Y150162D02*
X4263273Y144144D01*
X4228773Y145680D02*
X4236255Y153162D01*
X4231773Y144180D02*
X4237755Y150162D01*
X4234755Y142662D02*
X4239255Y147162D01*
X4237773Y141180D02*
X4240755Y144162D01*
X4237773Y92144D02*
X4240505Y89412D01*
X4244755D01*
X4247505Y92162D01*
Y95662D01*
X4275255Y127045D02*
Y150162D01*
Y127045D02*
X4279572Y122729D01*
X2801317Y127045D02*
X2805634Y122729D01*
X2801317Y127045D02*
Y150162D01*
X2773567Y92162D02*
Y95662D01*
X2770817Y89412D02*
X2773567Y92162D01*
X2766567Y89412D02*
X2770817D01*
X2763835Y92144D02*
X2766567Y89412D01*
X2763835Y141180D02*
X2766817Y144162D01*
X2760817Y142662D02*
X2765317Y147162D01*
X2757835Y144180D02*
X2763817Y150162D01*
X2754835Y145680D02*
X2762317Y153162D01*
X2783317Y150162D02*
X2789335Y144144D01*
X2784817Y153162D02*
X2792317Y145662D01*
X2781817Y147162D02*
X2786317Y142662D01*
X2780317Y144162D02*
X2783335Y141144D01*
X2751835Y86144D02*
Y147180D01*
X2757835Y89144D02*
Y144180D01*
X2763835Y92144D02*
Y141180D01*
X2760817Y90662D02*
Y142662D01*
X2754835Y87644D02*
Y145680D01*
X2789335Y86180D02*
Y144144D01*
X2786317Y87662D02*
Y142662D01*
X2783335Y90662D02*
Y141144D01*
X2748835Y84912D02*
Y148680D01*
X2745817Y83162D02*
Y150162D01*
X2792317Y84662D02*
Y145662D01*
X2798317Y81662D02*
Y148662D01*
X2795335Y83412D02*
Y147162D01*
X2766817Y144162D02*
X2780317D01*
X2765317Y147162D02*
X2781817D01*
X2748835Y148680D02*
X2759317Y159162D01*
X2745817Y150162D02*
X2757817Y162162D01*
X2751835Y147180D02*
X2760817Y156162D01*
X2789317Y162162D02*
X2801317Y150162D01*
X2786317Y156162D02*
X2795335Y147144D01*
X2787817Y159162D02*
X2798317Y148662D01*
X2759317Y159162D02*
X2787817D01*
X2757817Y162162D02*
X2789317D01*
X2763817Y150162D02*
X2783317D01*
X2762317Y153162D02*
X2784817D01*
X2760817Y156162D02*
X2786317D01*
X2748835Y84644D02*
Y84912D01*
X2754835Y87644D02*
X2762317Y80162D01*
X2757835Y89144D02*
X2763817Y83162D01*
X2760817Y90662D02*
X2765317Y86162D01*
X2783317Y80162D02*
X2789335Y86180D01*
X2784817Y77162D02*
X2792317Y84662D01*
X2781817Y83162D02*
X2786317Y87662D01*
X2778817Y86162D02*
X2783317Y90662D01*
X2795335Y83180D02*
Y83412D01*
X2751835Y86144D02*
X2760817Y77162D01*
X2765317Y86162D02*
X2778817D01*
X2748835Y84644D02*
X2759317Y74162D01*
X2745817Y83162D02*
X2757817Y71162D01*
X2787817D02*
X2798317Y81662D01*
X2786317Y74162D02*
X2795335Y83180D01*
X2763817Y83162D02*
X2781817D01*
X2762317Y80162D02*
X2783317D01*
X2760817Y77162D02*
X2784817D01*
X2757817Y71162D02*
X2787817D01*
X2759317Y74162D02*
X2786317D01*
X1285281Y74062D02*
X1312281D01*
X1283781Y71062D02*
X1313781D01*
X1286781Y77062D02*
X1310781D01*
X1288281Y80062D02*
X1309281D01*
X1289781Y83062D02*
X1307781D01*
X1312281Y74062D02*
X1321299Y83080D01*
X1313781Y71062D02*
X1324281Y81562D01*
X1271781Y83062D02*
X1283781Y71062D01*
X1274799Y84544D02*
X1285281Y74062D01*
X1291281Y86062D02*
X1304781D01*
X1277799Y86044D02*
X1286781Y77062D01*
X1321299Y83080D02*
Y83312D01*
X1304781Y86062D02*
X1309281Y90562D01*
X1307781Y83062D02*
X1312281Y87562D01*
X1310781Y77062D02*
X1318281Y84562D01*
X1309281Y80062D02*
X1315299Y86080D01*
X1286781Y90562D02*
X1291281Y86062D01*
X1283799Y89044D02*
X1289781Y83062D01*
X1280799Y87544D02*
X1288281Y80062D01*
X1274799Y84544D02*
Y84812D01*
X1286781Y156062D02*
X1312281D01*
X1288281Y153062D02*
X1310781D01*
X1289781Y150062D02*
X1309281D01*
X1283781Y162062D02*
X1315281D01*
X1285281Y159062D02*
X1313781D01*
X1324281Y148562D01*
X1312281Y156062D02*
X1321299Y147044D01*
X1315281Y162062D02*
X1327281Y150062D01*
X1277799Y147080D02*
X1286781Y156062D01*
X1271781Y150062D02*
X1283781Y162062D01*
X1274799Y148580D02*
X1285281Y159062D01*
X1291281Y147062D02*
X1307781D01*
X1292781Y144062D02*
X1306281D01*
X1321299Y83312D02*
Y147062D01*
X1324281Y81562D02*
Y148562D01*
X1318281Y84562D02*
Y145562D01*
X1271781Y83062D02*
Y150062D01*
X1274799Y84812D02*
Y148580D01*
X1309299Y90562D02*
Y141044D01*
X1312281Y87562D02*
Y142562D01*
X1315299Y86080D02*
Y144044D01*
X1280799Y87544D02*
Y145580D01*
X1286781Y90562D02*
Y142562D01*
X1289799Y92044D02*
Y141080D01*
X1283799Y89044D02*
Y144080D01*
X1277799Y86044D02*
Y147080D01*
X1306281Y144062D02*
X1309299Y141044D01*
X1307781Y147062D02*
X1312281Y142562D01*
X1310781Y153062D02*
X1318281Y145562D01*
X1309281Y150062D02*
X1315299Y144044D01*
X1280799Y145580D02*
X1288281Y153062D01*
X1283799Y144080D02*
X1289781Y150062D01*
X1286781Y142562D02*
X1291281Y147062D01*
X1289799Y141080D02*
X1292781Y144062D01*
X1289799Y92044D02*
X1292531Y89312D01*
X1296781D01*
X1299531Y92062D01*
Y95562D01*
X1327281Y126945D02*
Y150062D01*
Y126945D02*
X1331597Y122629D01*
X4095204Y127045D02*
X4099521Y122729D01*
X4095204Y127045D02*
Y150162D01*
X4067454Y92162D02*
Y95662D01*
X4064704Y89412D02*
X4067454Y92162D01*
X4060454Y89412D02*
X4064704D01*
X4057722Y92144D02*
X4060454Y89412D01*
X4057722Y141180D02*
X4060704Y144162D01*
X4054704Y142662D02*
X4059204Y147162D01*
X4051722Y144180D02*
X4057704Y150162D01*
X4048723Y145680D02*
X4056204Y153162D01*
X4077204Y150162D02*
X4083222Y144144D01*
X4078704Y153162D02*
X4086204Y145662D01*
X4075704Y147162D02*
X4080204Y142662D01*
X4074204Y144162D02*
X4077223Y141144D01*
X4045722Y86144D02*
Y147180D01*
X4051722Y89144D02*
Y144180D01*
X4057722Y92144D02*
Y141180D01*
X4054704Y90662D02*
Y142662D01*
X4048723Y87644D02*
Y145680D01*
X4083222Y86180D02*
Y144144D01*
X4080204Y87662D02*
Y142662D01*
X4077223Y90662D02*
Y141144D01*
X4042722Y84912D02*
Y148680D01*
X4039704Y83162D02*
Y150162D01*
X4086204Y84662D02*
Y145662D01*
X4092204Y81662D02*
Y148662D01*
X4089222Y83412D02*
Y147162D01*
X4060704Y144162D02*
X4074204D01*
X4059204Y147162D02*
X4075704D01*
X4042722Y148680D02*
X4053204Y159162D01*
X4039704Y150162D02*
X4051704Y162162D01*
X4045722Y147180D02*
X4054704Y156162D01*
X4083204Y162162D02*
X4095204Y150162D01*
X4080204Y156162D02*
X4089222Y147144D01*
X4081704Y159162D02*
X4092204Y148662D01*
X4053204Y159162D02*
X4081704D01*
X4051704Y162162D02*
X4083204D01*
X4057704Y150162D02*
X4077204D01*
X4056204Y153162D02*
X4078704D01*
X4054704Y156162D02*
X4080204D01*
X4042722Y84644D02*
Y84912D01*
X4048723Y87644D02*
X4056204Y80162D01*
X4051722Y89144D02*
X4057704Y83162D01*
X4054704Y90662D02*
X4059204Y86162D01*
X4077204Y80162D02*
X4083222Y86180D01*
X4078704Y77162D02*
X4086204Y84662D01*
X4075704Y83162D02*
X4080204Y87662D01*
X4072704Y86162D02*
X4077204Y90662D01*
X4089222Y83180D02*
Y83412D01*
X4045722Y86144D02*
X4054704Y77162D01*
X4059204Y86162D02*
X4072704D01*
X4042722Y84644D02*
X4053204Y74162D01*
X4039704Y83162D02*
X4051704Y71162D01*
X4081704D02*
X4092204Y81662D01*
X4080204Y74162D02*
X4089222Y83180D01*
X4057704Y83162D02*
X4075704D01*
X4056204Y80162D02*
X4077204D01*
X4054704Y77162D02*
X4078704D01*
X4051704Y71162D02*
X4081704D01*
X4053204Y74162D02*
X4080204D01*
X2579224D02*
X2606224D01*
X2577724Y71162D02*
X2607724D01*
X2580724Y77162D02*
X2604724D01*
X2582224Y80162D02*
X2603224D01*
X2583724Y83162D02*
X2601724D01*
X2606224Y74162D02*
X2615242Y83180D01*
X2607724Y71162D02*
X2618224Y81662D01*
X2565724Y83162D02*
X2577724Y71162D01*
X2568742Y84644D02*
X2579224Y74162D01*
X2585224Y86162D02*
X2598723D01*
X2571742Y86144D02*
X2580724Y77162D01*
X2615242Y83180D02*
Y83412D01*
X2598723Y86162D02*
X2603224Y90662D01*
X2601724Y83162D02*
X2606224Y87662D01*
X2604724Y77162D02*
X2612224Y84662D01*
X2603224Y80162D02*
X2609242Y86180D01*
X2580724Y90662D02*
X2585224Y86162D01*
X2577742Y89144D02*
X2583724Y83162D01*
X2574742Y87644D02*
X2582224Y80162D01*
X2568742Y84644D02*
Y84912D01*
X2580724Y156162D02*
X2606224D01*
X2582224Y153162D02*
X2604724D01*
X2583724Y150162D02*
X2603224D01*
X2577724Y162162D02*
X2609224D01*
X2579224Y159162D02*
X2607724D01*
X2618224Y148662D01*
X2606224Y156162D02*
X2615242Y147144D01*
X2609224Y162162D02*
X2621224Y150162D01*
X2571742Y147180D02*
X2580724Y156162D01*
X2565724Y150162D02*
X2577724Y162162D01*
X2568742Y148680D02*
X2579224Y159162D01*
X2585224Y147162D02*
X2601724D01*
X2586724Y144162D02*
X2600224D01*
X2615242Y83412D02*
Y147162D01*
X2618224Y81662D02*
Y148662D01*
X2612224Y84662D02*
Y145662D01*
X2565724Y83162D02*
Y150162D01*
X2568742Y84912D02*
Y148680D01*
X2603242Y90662D02*
Y141144D01*
X2606224Y87662D02*
Y142662D01*
X2609242Y86180D02*
Y144144D01*
X2574742Y87644D02*
Y145680D01*
X2580724Y90662D02*
Y142662D01*
X2583742Y92144D02*
Y141180D01*
X2577742Y89144D02*
Y144180D01*
X2571742Y86144D02*
Y147180D01*
X2600224Y144162D02*
X2603242Y141144D01*
X2601724Y147162D02*
X2606224Y142662D01*
X2604724Y153162D02*
X2612224Y145662D01*
X2603224Y150162D02*
X2609242Y144144D01*
X2574742Y145680D02*
X2582224Y153162D01*
X2577742Y144180D02*
X2583724Y150162D01*
X2580724Y142662D02*
X2585224Y147162D01*
X2583742Y141180D02*
X2586724Y144162D01*
X2583742Y92144D02*
X2586474Y89412D01*
X2590724D01*
X2593474Y92162D01*
Y95662D01*
X2621224Y127045D02*
Y150162D01*
Y127045D02*
X2625540Y122729D01*
X1113222Y126945D02*
X1117539Y122629D01*
X1113222Y126945D02*
Y150062D01*
X1085472Y92062D02*
Y95562D01*
X1082722Y89312D02*
X1085472Y92062D01*
X1078472Y89312D02*
X1082722D01*
X1075740Y92044D02*
X1078472Y89312D01*
X1075740Y141080D02*
X1078722Y144062D01*
X1072722Y142562D02*
X1077222Y147062D01*
X1069740Y144080D02*
X1075722Y150062D01*
X1066740Y145580D02*
X1074222Y153062D01*
X1095222Y150062D02*
X1101240Y144044D01*
X1096722Y153062D02*
X1104222Y145562D01*
X1093722Y147062D02*
X1098222Y142562D01*
X1092222Y144062D02*
X1095240Y141044D01*
X1063740Y86044D02*
Y147080D01*
X1069740Y89044D02*
Y144080D01*
X1075740Y92044D02*
Y141080D01*
X1072722Y90562D02*
Y142562D01*
X1066740Y87544D02*
Y145580D01*
X1101240Y86080D02*
Y144044D01*
X1098222Y87562D02*
Y142562D01*
X1095240Y90562D02*
Y141044D01*
X1060740Y84812D02*
Y148580D01*
X1057722Y83062D02*
Y150062D01*
X1104222Y84562D02*
Y145562D01*
X1110222Y81562D02*
Y148562D01*
X1107240Y83312D02*
Y147062D01*
X1078722Y144062D02*
X1092222D01*
X1077222Y147062D02*
X1093722D01*
X1060740Y148580D02*
X1071222Y159062D01*
X1057722Y150062D02*
X1069722Y162062D01*
X1063740Y147080D02*
X1072722Y156062D01*
X1101222Y162062D02*
X1113222Y150062D01*
X1098222Y156062D02*
X1107240Y147044D01*
X1099722Y159062D02*
X1110222Y148562D01*
X1071222Y159062D02*
X1099722D01*
X1069722Y162062D02*
X1101222D01*
X1075722Y150062D02*
X1095222D01*
X1074222Y153062D02*
X1096722D01*
X1072722Y156062D02*
X1098222D01*
X1060740Y84544D02*
Y84812D01*
X1066740Y87544D02*
X1074222Y80062D01*
X1069740Y89044D02*
X1075722Y83062D01*
X1072722Y90562D02*
X1077222Y86062D01*
X1095222Y80062D02*
X1101240Y86080D01*
X1096722Y77062D02*
X1104222Y84562D01*
X1093722Y83062D02*
X1098222Y87562D01*
X1090722Y86062D02*
X1095222Y90562D01*
X1107240Y83080D02*
Y83312D01*
X1063740Y86044D02*
X1072722Y77062D01*
X1077222Y86062D02*
X1090722D01*
X1060740Y84544D02*
X1071222Y74062D01*
X1057722Y83062D02*
X1069722Y71062D01*
X1099722D02*
X1110222Y81562D01*
X1098222Y74062D02*
X1107240Y83080D01*
X1075722Y83062D02*
X1093722D01*
X1074222Y80062D02*
X1095222D01*
X1072722Y77062D02*
X1096722D01*
X1069722Y71062D02*
X1099722D01*
X1071222Y74062D02*
X1098222D01*
X3873304Y74162D02*
X3900304D01*
X3871804Y71162D02*
X3901804D01*
X3874804Y77162D02*
X3898804D01*
X3876304Y80162D02*
X3897304D01*
X3877804Y83162D02*
X3895804D01*
X3900304Y74162D02*
X3909322Y83180D01*
X3901804Y71162D02*
X3912304Y81662D01*
X3859804Y83162D02*
X3871804Y71162D01*
X3862822Y84644D02*
X3873304Y74162D01*
X3879304Y86162D02*
X3892804D01*
X3865822Y86144D02*
X3874804Y77162D01*
X3909322Y83180D02*
Y83412D01*
X3892804Y86162D02*
X3897304Y90662D01*
X3895804Y83162D02*
X3900304Y87662D01*
X3898804Y77162D02*
X3906304Y84662D01*
X3897304Y80162D02*
X3903322Y86180D01*
X3874804Y90662D02*
X3879304Y86162D01*
X3871822Y89144D02*
X3877804Y83162D01*
X3868822Y87644D02*
X3876304Y80162D01*
X3862822Y84644D02*
Y84912D01*
X3874804Y156162D02*
X3900304D01*
X3876304Y153162D02*
X3898804D01*
X3877804Y150162D02*
X3897304D01*
X3871804Y162162D02*
X3903304D01*
X3873304Y159162D02*
X3901804D01*
X3912304Y148662D01*
X3900304Y156162D02*
X3909322Y147144D01*
X3903304Y162162D02*
X3915304Y150162D01*
X3865822Y147180D02*
X3874804Y156162D01*
X3859804Y150162D02*
X3871804Y162162D01*
X3862822Y148680D02*
X3873304Y159162D01*
X3879304Y147162D02*
X3895804D01*
X3880804Y144162D02*
X3894304D01*
X3909322Y83412D02*
Y147162D01*
X3912304Y81662D02*
Y148662D01*
X3906304Y84662D02*
Y145662D01*
X3859804Y83162D02*
Y150162D01*
X3862822Y84912D02*
Y148680D01*
X3897322Y90662D02*
Y141144D01*
X3900304Y87662D02*
Y142662D01*
X3903322Y86180D02*
Y144144D01*
X3868822Y87644D02*
Y145680D01*
X3874804Y90662D02*
Y142662D01*
X3877822Y92144D02*
Y141180D01*
X3871822Y89144D02*
Y144180D01*
X3865822Y86144D02*
Y147180D01*
X3894304Y144162D02*
X3897322Y141144D01*
X3895804Y147162D02*
X3900304Y142662D01*
X3898804Y153162D02*
X3906304Y145662D01*
X3897304Y150162D02*
X3903322Y144144D01*
X3868822Y145680D02*
X3876304Y153162D01*
X3871822Y144180D02*
X3877804Y150162D01*
X3874804Y142662D02*
X3879304Y147162D01*
X3877822Y141180D02*
X3880804Y144162D01*
X3877822Y92144D02*
X3880554Y89412D01*
X3884804D01*
X3887554Y92162D01*
Y95662D01*
X3915304Y127045D02*
Y150162D01*
Y127045D02*
X3919620Y122729D01*
X2441300Y127045D02*
X2445616Y122729D01*
X2441300Y127045D02*
Y150162D01*
X2413550Y92162D02*
Y95662D01*
X2410800Y89412D02*
X2413550Y92162D01*
X2406550Y89412D02*
X2410800D01*
X2403818Y92144D02*
X2406550Y89412D01*
X2403818Y141180D02*
X2406800Y144162D01*
X2400800Y142662D02*
X2405300Y147162D01*
X2397818Y144180D02*
X2403800Y150162D01*
X2394818Y145680D02*
X2402300Y153162D01*
X2423300Y150162D02*
X2429318Y144144D01*
X2424800Y153162D02*
X2432300Y145662D01*
X2421800Y147162D02*
X2426300Y142662D01*
X2420300Y144162D02*
X2423318Y141144D01*
X2391818Y86144D02*
Y147180D01*
X2397818Y89144D02*
Y144180D01*
X2403818Y92144D02*
Y141180D01*
X2400800Y90662D02*
Y142662D01*
X2394818Y87644D02*
Y145680D01*
X2429318Y86180D02*
Y144144D01*
X2426300Y87662D02*
Y142662D01*
X2423318Y90662D02*
Y141144D01*
X2388818Y84912D02*
Y148680D01*
X2385800Y83162D02*
Y150162D01*
X2432300Y84662D02*
Y145662D01*
X2438300Y81662D02*
Y148662D01*
X2435318Y83412D02*
Y147162D01*
X2406800Y144162D02*
X2420300D01*
X2405300Y147162D02*
X2421800D01*
X2388818Y148680D02*
X2399300Y159162D01*
X2385800Y150162D02*
X2397800Y162162D01*
X2391818Y147180D02*
X2400800Y156162D01*
X2429300Y162162D02*
X2441300Y150162D01*
X2426300Y156162D02*
X2435318Y147144D01*
X2427800Y159162D02*
X2438300Y148662D01*
X2399300Y159162D02*
X2427800D01*
X2397800Y162162D02*
X2429300D01*
X2403800Y150162D02*
X2423300D01*
X2402300Y153162D02*
X2424800D01*
X2400800Y156162D02*
X2426300D01*
X2388818Y84644D02*
Y84912D01*
X2394818Y87644D02*
X2402300Y80162D01*
X2397818Y89144D02*
X2403800Y83162D01*
X2400800Y90662D02*
X2405300Y86162D01*
X2423300Y80162D02*
X2429318Y86180D01*
X2424800Y77162D02*
X2432300Y84662D01*
X2421800Y83162D02*
X2426300Y87662D01*
X2418800Y86162D02*
X2423300Y90662D01*
X2435318Y83180D02*
Y83412D01*
X2391818Y86144D02*
X2400800Y77162D01*
X2405300Y86162D02*
X2418800D01*
X2388818Y84644D02*
X2399300Y74162D01*
X2385800Y83162D02*
X2397800Y71162D01*
X2427800D02*
X2438300Y81662D01*
X2426300Y74162D02*
X2435318Y83180D01*
X2403800Y83162D02*
X2421800D01*
X2402300Y80162D02*
X2423300D01*
X2400800Y77162D02*
X2424800D01*
X2397800Y71162D02*
X2427800D01*
X2399300Y74162D02*
X2426300D01*
X3735220Y127045D02*
X3739536Y122729D01*
X3735220Y127045D02*
Y150162D01*
X3707470Y92162D02*
Y95662D01*
X3704720Y89412D02*
X3707470Y92162D01*
X3700470Y89412D02*
X3704720D01*
X3697738Y92144D02*
X3700470Y89412D01*
X3697738Y141180D02*
X3700720Y144162D01*
X3694720Y142662D02*
X3699220Y147162D01*
X3691738Y144180D02*
X3697720Y150162D01*
X3688738Y145680D02*
X3696220Y153162D01*
X3717220Y150162D02*
X3723238Y144144D01*
X3718720Y153162D02*
X3726219Y145662D01*
X3715720Y147162D02*
X3720220Y142662D01*
X3714220Y144162D02*
X3717238Y141144D01*
X3685738Y86144D02*
Y147180D01*
X3691738Y89144D02*
Y144180D01*
X3697738Y92144D02*
Y141180D01*
X3694720Y90662D02*
Y142662D01*
X3688738Y87644D02*
Y145680D01*
X3723238Y86180D02*
Y144144D01*
X3720220Y87662D02*
Y142662D01*
X3717238Y90662D02*
Y141144D01*
X3682738Y84912D02*
Y148680D01*
X3679720Y83162D02*
Y150162D01*
X3726219Y84662D02*
Y145662D01*
X3732220Y81662D02*
Y148662D01*
X3729238Y83412D02*
Y147162D01*
X3700720Y144162D02*
X3714220D01*
X3699220Y147162D02*
X3715720D01*
X3682738Y148680D02*
X3693220Y159162D01*
X3679720Y150162D02*
X3691720Y162162D01*
X3685738Y147180D02*
X3694720Y156162D01*
X3723220Y162162D02*
X3735220Y150162D01*
X3720220Y156162D02*
X3729238Y147144D01*
X3721720Y159162D02*
X3732220Y148662D01*
X3693220Y159162D02*
X3721720D01*
X3691720Y162162D02*
X3723220D01*
X3697720Y150162D02*
X3717220D01*
X3696220Y153162D02*
X3718720D01*
X3694720Y156162D02*
X3720220D01*
X3682738Y84644D02*
Y84912D01*
X3688738Y87644D02*
X3696220Y80162D01*
X3691738Y89144D02*
X3697720Y83162D01*
X3694720Y90662D02*
X3699220Y86162D01*
X3717220Y80162D02*
X3723238Y86180D01*
X3718720Y77162D02*
X3726219Y84662D01*
X3715720Y83162D02*
X3720220Y87662D01*
X3712720Y86162D02*
X3717220Y90662D01*
X3729238Y83180D02*
Y83412D01*
X3685738Y86144D02*
X3694720Y77162D01*
X3699220Y86162D02*
X3712720D01*
X3682738Y84644D02*
X3693220Y74162D01*
X3679720Y83162D02*
X3691720Y71162D01*
X3721720D02*
X3732220Y81662D01*
X3720220Y74162D02*
X3729238Y83180D01*
X3697720Y83162D02*
X3715720D01*
X3696220Y80162D02*
X3717220D01*
X3694720Y77162D02*
X3718720D01*
X3691720Y71162D02*
X3721720D01*
X3693220Y74162D02*
X3720220D01*
X2185200D02*
X2212200D01*
X2183700Y71162D02*
X2213700D01*
X2186700Y77162D02*
X2210700D01*
X2188200Y80162D02*
X2209200D01*
X2189700Y83162D02*
X2207700D01*
X2212200Y74162D02*
X2221219Y83180D01*
X2213700Y71162D02*
X2224200Y81662D01*
X2171700Y83162D02*
X2183700Y71162D01*
X2174719Y84644D02*
X2185200Y74162D01*
X2191200Y86162D02*
X2204700D01*
X2177719Y86144D02*
X2186700Y77162D01*
X2221219Y83180D02*
Y83412D01*
X2204700Y86162D02*
X2209200Y90662D01*
X2207700Y83162D02*
X2212200Y87662D01*
X2210700Y77162D02*
X2218200Y84662D01*
X2209200Y80162D02*
X2215219Y86180D01*
X2186700Y90662D02*
X2191200Y86162D01*
X2183719Y89144D02*
X2189700Y83162D01*
X2180719Y87644D02*
X2188200Y80162D01*
X2174719Y84644D02*
Y84912D01*
X2186700Y156162D02*
X2212200D01*
X2188200Y153162D02*
X2210700D01*
X2189700Y150162D02*
X2209200D01*
X2183700Y162162D02*
X2215200D01*
X2185200Y159162D02*
X2213700D01*
X2224200Y148662D01*
X2212200Y156162D02*
X2221219Y147144D01*
X2215200Y162162D02*
X2227200Y150162D01*
X2177719Y147180D02*
X2186700Y156162D01*
X2171700Y150162D02*
X2183700Y162162D01*
X2174719Y148680D02*
X2185200Y159162D01*
X2191200Y147162D02*
X2207700D01*
X2192700Y144162D02*
X2206200D01*
X2221219Y83412D02*
Y147162D01*
X2224200Y81662D02*
Y148662D01*
X2218200Y84662D02*
Y145662D01*
X2171700Y83162D02*
Y150162D01*
X2174719Y84912D02*
Y148680D01*
X2209219Y90662D02*
Y141144D01*
X2212200Y87662D02*
Y142662D01*
X2215219Y86180D02*
Y144144D01*
X2180719Y87644D02*
Y145680D01*
X2186700Y90662D02*
Y142662D01*
X2189719Y92144D02*
Y141180D01*
X2183719Y89144D02*
Y144180D01*
X2177719Y86144D02*
Y147180D01*
X2206200Y144162D02*
X2209219Y141144D01*
X2207700Y147162D02*
X2212200Y142662D01*
X2210700Y153162D02*
X2218200Y145662D01*
X2209200Y150162D02*
X2215219Y144144D01*
X2180719Y145680D02*
X2188200Y153162D01*
X2183719Y144180D02*
X2189700Y150162D01*
X2186700Y142662D02*
X2191200Y147162D01*
X2189719Y141180D02*
X2192700Y144162D01*
X2189719Y92144D02*
X2192450Y89412D01*
X2196700D01*
X2199450Y92162D01*
Y95662D01*
X2227200Y127045D02*
Y150162D01*
Y127045D02*
X2231517Y122729D01*
X753247Y127045D02*
X757564Y122729D01*
X753247Y127045D02*
Y150162D01*
X725497Y92162D02*
Y95662D01*
X722747Y89412D02*
X725497Y92162D01*
X718497Y89412D02*
X722747D01*
X715765Y92144D02*
X718497Y89412D01*
X715765Y141180D02*
X718747Y144162D01*
X712747Y142662D02*
X717247Y147162D01*
X709765Y144180D02*
X715747Y150162D01*
X706765Y145680D02*
X714247Y153162D01*
X735247Y150162D02*
X741265Y144144D01*
X736747Y153162D02*
X744247Y145662D01*
X733747Y147162D02*
X738247Y142662D01*
X732247Y144162D02*
X735265Y141144D01*
X703765Y86144D02*
Y147180D01*
X709765Y89144D02*
Y144180D01*
X715765Y92144D02*
Y141180D01*
X712747Y90662D02*
Y142662D01*
X706765Y87644D02*
Y145680D01*
X741265Y86180D02*
Y144144D01*
X738247Y87662D02*
Y142662D01*
X735265Y90662D02*
Y141144D01*
X700766Y84912D02*
Y148680D01*
X697747Y83162D02*
Y150162D01*
X744247Y84662D02*
Y145662D01*
X750247Y81662D02*
Y148662D01*
X747265Y83412D02*
Y147162D01*
X718747Y144162D02*
X732247D01*
X717247Y147162D02*
X733747D01*
X700766Y148680D02*
X711247Y159162D01*
X697747Y150162D02*
X709747Y162162D01*
X703765Y147180D02*
X712747Y156162D01*
X741247Y162162D02*
X753247Y150162D01*
X738247Y156162D02*
X747265Y147144D01*
X739747Y159162D02*
X750247Y148662D01*
X711247Y159162D02*
X739747D01*
X709747Y162162D02*
X741247D01*
X715747Y150162D02*
X735247D01*
X714247Y153162D02*
X736747D01*
X712747Y156162D02*
X738247D01*
X700766Y84644D02*
Y84912D01*
X706765Y87644D02*
X714247Y80162D01*
X709765Y89144D02*
X715747Y83162D01*
X712747Y90662D02*
X717247Y86162D01*
X735247Y80162D02*
X741265Y86180D01*
X736747Y77162D02*
X744247Y84662D01*
X733747Y83162D02*
X738247Y87662D01*
X730747Y86162D02*
X735247Y90662D01*
X747265Y83180D02*
Y83412D01*
X703765Y86144D02*
X712747Y77162D01*
X717247Y86162D02*
X730747D01*
X700766Y84644D02*
X711247Y74162D01*
X697747Y83162D02*
X709747Y71162D01*
X739747D02*
X750247Y81662D01*
X738247Y74162D02*
X747265Y83180D01*
X715747Y83162D02*
X733747D01*
X714247Y80162D02*
X735247D01*
X712747Y77162D02*
X736747D01*
X709747Y71162D02*
X739747D01*
X711247Y74162D02*
X738247D01*
X3513348Y74062D02*
X3540348D01*
X3511848Y71062D02*
X3541848D01*
X3514848Y77062D02*
X3538848D01*
X3516348Y80062D02*
X3537348D01*
X3517849Y83062D02*
X3535848D01*
X3540348Y74062D02*
X3549366Y83080D01*
X3541848Y71062D02*
X3552348Y81562D01*
X3499848Y83062D02*
X3511848Y71062D01*
X3502867Y84544D02*
X3513348Y74062D01*
X3519348Y86062D02*
X3532848D01*
X3505867Y86044D02*
X3514848Y77062D01*
X3549366Y83080D02*
Y83312D01*
X3532848Y86062D02*
X3537348Y90562D01*
X3535848Y83062D02*
X3540348Y87562D01*
X3538848Y77062D02*
X3546348Y84562D01*
X3537348Y80062D02*
X3543367Y86080D01*
X3514848Y90562D02*
X3519348Y86062D01*
X3511866Y89044D02*
X3517849Y83062D01*
X3508867Y87544D02*
X3516348Y80062D01*
X3502867Y84544D02*
Y84812D01*
X3514848Y156062D02*
X3540349D01*
X3516348Y153062D02*
X3538848D01*
X3517848Y150062D02*
X3537348D01*
X3511848Y162062D02*
X3543348D01*
X3513348Y159062D02*
X3541848D01*
X3552348Y148562D01*
X3540349Y156062D02*
X3549366Y147044D01*
X3543348Y162062D02*
X3555348Y150062D01*
X3505867Y147080D02*
X3514848Y156062D01*
X3499848Y150062D02*
X3511848Y162062D01*
X3502867Y148580D02*
X3513348Y159062D01*
X3519348Y147062D02*
X3535848D01*
X3520848Y144062D02*
X3534348D01*
X3549366Y83312D02*
Y147062D01*
X3552348Y81562D02*
Y148562D01*
X3546348Y84562D02*
Y145562D01*
X3499848Y83062D02*
Y150062D01*
X3502867Y84812D02*
Y148580D01*
X3537367Y90562D02*
Y141044D01*
X3540348Y87562D02*
Y142562D01*
X3543367Y86080D02*
Y144044D01*
X3508867Y87544D02*
Y145580D01*
X3514848Y90562D02*
Y142562D01*
X3517867Y92044D02*
Y141080D01*
X3511866Y89044D02*
Y144080D01*
X3505867Y86044D02*
Y147080D01*
X3534348Y144062D02*
X3537367Y141044D01*
X3535848Y147062D02*
X3540348Y142562D01*
X3538848Y153062D02*
X3546348Y145562D01*
X3537348Y150062D02*
X3543367Y144044D01*
X3508867Y145580D02*
X3516348Y153062D01*
X3511866Y144080D02*
X3517848Y150062D01*
X3514848Y142562D02*
X3519348Y147062D01*
X3517867Y141080D02*
X3520848Y144062D01*
X3517867Y92044D02*
X3520598Y89312D01*
X3524848D01*
X3527598Y92062D01*
Y95562D01*
X3555348Y126945D02*
Y150062D01*
Y126945D02*
X3559665Y122629D01*
X2047231Y126945D02*
X2051548Y122629D01*
X2047231Y126945D02*
Y150062D01*
X2019482Y92062D02*
Y95562D01*
X2016732Y89312D02*
X2019482Y92062D01*
X2012482Y89312D02*
X2016732D01*
X2009750Y92044D02*
X2012482Y89312D01*
X2009750Y141080D02*
X2012731Y144062D01*
X2006732Y142562D02*
X2011232Y147062D01*
X2003750Y144080D02*
X2009731Y150062D01*
X2000750Y145580D02*
X2008232Y153062D01*
X2029232Y150062D02*
X2035250Y144044D01*
X2030732Y153062D02*
X2038232Y145562D01*
X2027731Y147062D02*
X2032231Y142562D01*
X2026232Y144062D02*
X2029250Y141044D01*
X1997750Y86044D02*
Y147080D01*
X2003750Y89044D02*
Y144080D01*
X2009750Y92044D02*
Y141080D01*
X2006732Y90562D02*
Y142562D01*
X2000750Y87544D02*
Y145580D01*
X2035250Y86080D02*
Y144044D01*
X2032231Y87562D02*
Y142562D01*
X2029250Y90562D02*
Y141044D01*
X1994750Y84812D02*
Y148580D01*
X1991732Y83062D02*
Y150062D01*
X2038232Y84562D02*
Y145562D01*
X2044232Y81562D02*
Y148562D01*
X2041250Y83312D02*
Y147062D01*
X2012731Y144062D02*
X2026232D01*
X2011232Y147062D02*
X2027731D01*
X1994750Y148580D02*
X2005231Y159062D01*
X1991732Y150062D02*
X2003732Y162062D01*
X1997750Y147080D02*
X2006732Y156062D01*
X2035231Y162062D02*
X2047231Y150062D01*
X2032231Y156062D02*
X2041250Y147044D01*
X2033732Y159062D02*
X2044232Y148562D01*
X2005231Y159062D02*
X2033732D01*
X2003732Y162062D02*
X2035231D01*
X2009731Y150062D02*
X2029232D01*
X2008232Y153062D02*
X2030732D01*
X2006732Y156062D02*
X2032231D01*
X1994750Y84544D02*
Y84812D01*
X2000750Y87544D02*
X2008232Y80062D01*
X2003750Y89044D02*
X2009731Y83062D01*
X2006732Y90562D02*
X2011232Y86062D01*
X2029232Y80062D02*
X2035250Y86080D01*
X2030732Y77062D02*
X2038232Y84562D01*
X2027731Y83062D02*
X2032231Y87562D01*
X2024731Y86062D02*
X2029232Y90562D01*
X2041250Y83080D02*
Y83312D01*
X1997750Y86044D02*
X2006732Y77062D01*
X2011232Y86062D02*
X2024731D01*
X1994750Y84544D02*
X2005231Y74062D01*
X1991732Y83062D02*
X2003732Y71062D01*
X2033732D02*
X2044232Y81562D01*
X2032231Y74062D02*
X2041250Y83080D01*
X2009731Y83062D02*
X2027731D01*
X2008232Y80062D02*
X2029232D01*
X2006732Y77062D02*
X2030732D01*
X2003732Y71062D02*
X2033732D01*
X2005231Y74062D02*
X2032231D01*
X531210D02*
X558210D01*
X529710Y71062D02*
X559710D01*
X532710Y77062D02*
X556710D01*
X534210Y80062D02*
X555210D01*
X535710Y83062D02*
X553710D01*
X558210Y74062D02*
X567228Y83080D01*
X559710Y71062D02*
X570210Y81562D01*
X517710Y83062D02*
X529710Y71062D01*
X520728Y84544D02*
X531210Y74062D01*
X537210Y86062D02*
X550710D01*
X523728Y86044D02*
X532710Y77062D01*
X567228Y83080D02*
Y83312D01*
X550710Y86062D02*
X555210Y90562D01*
X553710Y83062D02*
X558210Y87562D01*
X556710Y77062D02*
X564210Y84562D01*
X555210Y80062D02*
X561228Y86080D01*
X532710Y90562D02*
X537210Y86062D01*
X529728Y89044D02*
X535710Y83062D01*
X526728Y87544D02*
X534210Y80062D01*
X520728Y84544D02*
Y84812D01*
X532710Y156062D02*
X558210D01*
X534210Y153062D02*
X556710D01*
X535710Y150062D02*
X555210D01*
X529710Y162062D02*
X561210D01*
X531210Y159062D02*
X559710D01*
X570210Y148562D01*
X558210Y156062D02*
X567228Y147044D01*
X561210Y162062D02*
X573210Y150062D01*
X523728Y147080D02*
X532710Y156062D01*
X517710Y150062D02*
X529710Y162062D01*
X520728Y148580D02*
X531210Y159062D01*
X537210Y147062D02*
X553710D01*
X538710Y144062D02*
X552210D01*
X567228Y83312D02*
Y147062D01*
X570210Y81562D02*
Y148562D01*
X564210Y84562D02*
Y145562D01*
X517710Y83062D02*
Y150062D01*
X520728Y84812D02*
Y148580D01*
X555228Y90562D02*
Y141044D01*
X558210Y87562D02*
Y142562D01*
X561228Y86080D02*
Y144044D01*
X526728Y87544D02*
Y145580D01*
X532710Y90562D02*
Y142562D01*
X535728Y92044D02*
Y141080D01*
X529728Y89044D02*
Y144080D01*
X523728Y86044D02*
Y147080D01*
X552210Y144062D02*
X555228Y141044D01*
X553710Y147062D02*
X558210Y142562D01*
X556710Y153062D02*
X564210Y145562D01*
X555210Y150062D02*
X561228Y144044D01*
X526728Y145580D02*
X534210Y153062D01*
X529728Y144080D02*
X535710Y150062D01*
X532710Y142562D02*
X537210Y147062D01*
X535728Y141080D02*
X538710Y144062D01*
X535728Y92044D02*
X538460Y89312D01*
X542710D01*
X545460Y92062D01*
Y95562D01*
X573210Y126945D02*
Y150062D01*
Y126945D02*
X577526Y122629D01*
X3341220Y127045D02*
X3345536Y122729D01*
X3341220Y127045D02*
Y150162D01*
X3313470Y92162D02*
Y95662D01*
X3310720Y89412D02*
X3313470Y92162D01*
X3306470Y89412D02*
X3310720D01*
X3303738Y92144D02*
X3306470Y89412D01*
X3303738Y141180D02*
X3306720Y144162D01*
X3300720Y142662D02*
X3305220Y147162D01*
X3297738Y144180D02*
X3303720Y150162D01*
X3294738Y145680D02*
X3302220Y153162D01*
X3323220Y150162D02*
X3329238Y144144D01*
X3324720Y153162D02*
X3332220Y145662D01*
X3321720Y147162D02*
X3326220Y142662D01*
X3320220Y144162D02*
X3323238Y141144D01*
X3291738Y86144D02*
Y147180D01*
X3297738Y89144D02*
Y144180D01*
X3303738Y92144D02*
Y141180D01*
X3300720Y90662D02*
Y142662D01*
X3294738Y87644D02*
Y145680D01*
X3329238Y86180D02*
Y144144D01*
X3326220Y87662D02*
Y142662D01*
X3323238Y90662D02*
Y141144D01*
X3288738Y84912D02*
Y148680D01*
X3285720Y83162D02*
Y150162D01*
X3332220Y84662D02*
Y145662D01*
X3338220Y81662D02*
Y148662D01*
X3335238Y83412D02*
Y147162D01*
X3306720Y144162D02*
X3320220D01*
X3305220Y147162D02*
X3321720D01*
X3288738Y148680D02*
X3299220Y159162D01*
X3285720Y150162D02*
X3297720Y162162D01*
X3291738Y147180D02*
X3300720Y156162D01*
X3329220Y162162D02*
X3341220Y150162D01*
X3326220Y156162D02*
X3335238Y147144D01*
X3327720Y159162D02*
X3338220Y148662D01*
X3299220Y159162D02*
X3327720D01*
X3297720Y162162D02*
X3329220D01*
X3303720Y150162D02*
X3323220D01*
X3302220Y153162D02*
X3324720D01*
X3300720Y156162D02*
X3326220D01*
X3288738Y84644D02*
Y84912D01*
X3294738Y87644D02*
X3302220Y80162D01*
X3297738Y89144D02*
X3303720Y83162D01*
X3300720Y90662D02*
X3305220Y86162D01*
X3323220Y80162D02*
X3329238Y86180D01*
X3324720Y77162D02*
X3332220Y84662D01*
X3321720Y83162D02*
X3326220Y87662D01*
X3318720Y86162D02*
X3323220Y90662D01*
X3335238Y83180D02*
Y83412D01*
X3291738Y86144D02*
X3300720Y77162D01*
X3305220Y86162D02*
X3318720D01*
X3288738Y84644D02*
X3299220Y74162D01*
X3285720Y83162D02*
X3297720Y71162D01*
X3327720D02*
X3338220Y81662D01*
X3326220Y74162D02*
X3335238Y83180D01*
X3303720Y83162D02*
X3321720D01*
X3302220Y80162D02*
X3323220D01*
X3300720Y77162D02*
X3324720D01*
X3297720Y71162D02*
X3327720D01*
X3299220Y74162D02*
X3326220D01*
X1825318Y74062D02*
X1852318D01*
X1823818Y71062D02*
X1853818D01*
X1826818Y77062D02*
X1850818D01*
X1828318Y80062D02*
X1849318D01*
X1829818Y83062D02*
X1847818D01*
X1852318Y74062D02*
X1861336Y83080D01*
X1853818Y71062D02*
X1864318Y81562D01*
X1811818Y83062D02*
X1823818Y71062D01*
X1814836Y84544D02*
X1825318Y74062D01*
X1831318Y86062D02*
X1844818D01*
X1817836Y86044D02*
X1826818Y77062D01*
X1861336Y83080D02*
Y83312D01*
X1844818Y86062D02*
X1849318Y90562D01*
X1847818Y83062D02*
X1852318Y87562D01*
X1850818Y77062D02*
X1858318Y84562D01*
X1849318Y80062D02*
X1855336Y86080D01*
X1826818Y90562D02*
X1831318Y86062D01*
X1823836Y89044D02*
X1829818Y83062D01*
X1820836Y87544D02*
X1828318Y80062D01*
X1814836Y84544D02*
Y84812D01*
X1826818Y156062D02*
X1852318D01*
X1828318Y153062D02*
X1850818D01*
X1829818Y150062D02*
X1849318D01*
X1823818Y162062D02*
X1855318D01*
X1825318Y159062D02*
X1853818D01*
X1864318Y148562D01*
X1852318Y156062D02*
X1861336Y147044D01*
X1855318Y162062D02*
X1867318Y150062D01*
X1817836Y147080D02*
X1826818Y156062D01*
X1811818Y150062D02*
X1823818Y162062D01*
X1814836Y148580D02*
X1825318Y159062D01*
X1831318Y147062D02*
X1847818D01*
X1832818Y144062D02*
X1846318D01*
X1861336Y83312D02*
Y147062D01*
X1864318Y81562D02*
Y148562D01*
X1858318Y84562D02*
Y145562D01*
X1811818Y83062D02*
Y150062D01*
X1814836Y84812D02*
Y148580D01*
X1849336Y90562D02*
Y141044D01*
X1852318Y87562D02*
Y142562D01*
X1855336Y86080D02*
Y144044D01*
X1820836Y87544D02*
Y145580D01*
X1826818Y90562D02*
Y142562D01*
X1829836Y92044D02*
Y141080D01*
X1823836Y89044D02*
Y144080D01*
X1817836Y86044D02*
Y147080D01*
X1846318Y144062D02*
X1849336Y141044D01*
X1847818Y147062D02*
X1852318Y142562D01*
X1850818Y153062D02*
X1858318Y145562D01*
X1849318Y150062D02*
X1855336Y144044D01*
X1820836Y145580D02*
X1828318Y153062D01*
X1823836Y144080D02*
X1829818Y150062D01*
X1826818Y142562D02*
X1831318Y147062D01*
X1829836Y141080D02*
X1832818Y144062D01*
X1829836Y92044D02*
X1832568Y89312D01*
X1836818D01*
X1839568Y92062D01*
Y95562D01*
X1867318Y126945D02*
Y150062D01*
Y126945D02*
X1871635Y122629D01*
X393194Y126945D02*
X397511Y122629D01*
X393194Y126945D02*
Y150062D01*
X365444Y92062D02*
Y95562D01*
X362694Y89312D02*
X365444Y92062D01*
X358444Y89312D02*
X362694D01*
X355713Y92044D02*
X358444Y89312D01*
X355713Y141080D02*
X358694Y144062D01*
X352694Y142562D02*
X357194Y147062D01*
X349713Y144080D02*
X355694Y150062D01*
X346713Y145580D02*
X354194Y153062D01*
X375194Y150062D02*
X381213Y144044D01*
X376694Y153062D02*
X384194Y145562D01*
X373694Y147062D02*
X378194Y142562D01*
X372194Y144062D02*
X375213Y141044D01*
X343713Y86044D02*
Y147080D01*
X349713Y89044D02*
Y144080D01*
X355713Y92044D02*
Y141080D01*
X352694Y90562D02*
Y142562D01*
X346713Y87544D02*
Y145580D01*
X381213Y86080D02*
Y144044D01*
X378194Y87562D02*
Y142562D01*
X375213Y90562D02*
Y141044D01*
X340713Y84812D02*
Y148580D01*
X337694Y83062D02*
Y150062D01*
X384194Y84562D02*
Y145562D01*
X390194Y81562D02*
Y148562D01*
X387213Y83312D02*
Y147062D01*
X358694Y144062D02*
X372194D01*
X357194Y147062D02*
X373694D01*
X340713Y148580D02*
X351194Y159062D01*
X337694Y150062D02*
X349694Y162062D01*
X343713Y147080D02*
X352694Y156062D01*
X381194Y162062D02*
X393194Y150062D01*
X378194Y156062D02*
X387213Y147044D01*
X379694Y159062D02*
X390194Y148562D01*
X351194Y159062D02*
X379694D01*
X349694Y162062D02*
X381194D01*
X355694Y150062D02*
X375194D01*
X354194Y153062D02*
X376694D01*
X352694Y156062D02*
X378194D01*
X340713Y84544D02*
Y84812D01*
X346713Y87544D02*
X354194Y80062D01*
X349713Y89044D02*
X355694Y83062D01*
X352694Y90562D02*
X357194Y86062D01*
X375194Y80062D02*
X381213Y86080D01*
X376694Y77062D02*
X384194Y84562D01*
X373694Y83062D02*
X378194Y87562D01*
X370694Y86062D02*
X375194Y90562D01*
X387213Y83080D02*
Y83312D01*
X343713Y86044D02*
X352694Y77062D01*
X357194Y86062D02*
X370694D01*
X340713Y84544D02*
X351194Y74062D01*
X337694Y83062D02*
X349694Y71062D01*
X379694D02*
X390194Y81562D01*
X378194Y74062D02*
X387213Y83080D01*
X355694Y83062D02*
X373694D01*
X354194Y80062D02*
X375194D01*
X352694Y77062D02*
X376694D01*
X349694Y71062D02*
X379694D01*
X351194Y74062D02*
X378194D01*
X3119265D02*
X3146265D01*
X3117765Y71062D02*
X3147765D01*
X3120765Y77062D02*
X3144765D01*
X3122265Y80062D02*
X3143265D01*
X3123765Y83062D02*
X3141765D01*
X3146265Y74062D02*
X3155284Y83080D01*
X3147765Y71062D02*
X3158265Y81562D01*
X3105765Y83062D02*
X3117765Y71062D01*
X3108783Y84544D02*
X3119265Y74062D01*
X3125265Y86062D02*
X3138765D01*
X3111783Y86044D02*
X3120765Y77062D01*
X3155284Y83080D02*
Y83312D01*
X3138765Y86062D02*
X3143265Y90562D01*
X3141765Y83062D02*
X3146265Y87562D01*
X3144765Y77062D02*
X3152265Y84562D01*
X3143265Y80062D02*
X3149283Y86080D01*
X3120765Y90562D02*
X3125265Y86062D01*
X3117784Y89044D02*
X3123765Y83062D01*
X3114783Y87544D02*
X3122265Y80062D01*
X3108783Y84544D02*
Y84812D01*
X3120765Y156062D02*
X3146265D01*
X3122265Y153062D02*
X3144765D01*
X3123765Y150062D02*
X3143265D01*
X3117765Y162062D02*
X3149265D01*
X3119265Y159062D02*
X3147765D01*
X3158265Y148562D01*
X3146265Y156062D02*
X3155284Y147044D01*
X3149265Y162062D02*
X3161265Y150062D01*
X3111783Y147080D02*
X3120765Y156062D01*
X3105765Y150062D02*
X3117765Y162062D01*
X3108783Y148580D02*
X3119265Y159062D01*
X3125265Y147062D02*
X3141765D01*
X3126765Y144062D02*
X3140265D01*
X3155284Y83312D02*
Y147062D01*
X3158265Y81562D02*
Y148562D01*
X3152265Y84562D02*
Y145562D01*
X3105765Y83062D02*
Y150062D01*
X3108783Y84812D02*
Y148580D01*
X3143283Y90562D02*
Y141044D01*
X3146265Y87562D02*
Y142562D01*
X3149283Y86080D02*
Y144044D01*
X3114783Y87544D02*
Y145580D01*
X3120765Y90562D02*
Y142562D01*
X3123783Y92044D02*
Y141080D01*
X3117784Y89044D02*
Y144080D01*
X3111783Y86044D02*
Y147080D01*
X3140265Y144062D02*
X3143283Y141044D01*
X3141765Y147062D02*
X3146265Y142562D01*
X3144765Y153062D02*
X3152265Y145562D01*
X3143265Y150062D02*
X3149283Y144044D01*
X3114783Y145580D02*
X3122265Y153062D01*
X3117784Y144080D02*
X3123765Y150062D01*
X3120765Y142562D02*
X3125265Y147062D01*
X3123783Y141080D02*
X3126765Y144062D01*
X3123783Y92044D02*
X3126515Y89312D01*
X3130765D01*
X3133515Y92062D01*
Y95562D01*
X3161265Y126945D02*
Y150062D01*
Y126945D02*
X3165582Y122629D01*
X1687310Y127145D02*
X1691626Y122829D01*
X1687310Y127145D02*
Y150262D01*
X1659560Y92262D02*
Y95762D01*
X1656810Y89512D02*
X1659560Y92262D01*
X1652560Y89512D02*
X1656810D01*
X1649828Y92244D02*
X1652560Y89512D01*
X1649828Y141280D02*
X1652810Y144262D01*
X1646810Y142762D02*
X1651310Y147262D01*
X1643828Y144280D02*
X1649810Y150262D01*
X1640828Y145780D02*
X1648310Y153262D01*
X1669310Y150262D02*
X1675328Y144244D01*
X1670810Y153262D02*
X1678310Y145762D01*
X1667810Y147262D02*
X1672310Y142762D01*
X1666310Y144262D02*
X1669328Y141244D01*
X1637828Y86244D02*
Y147280D01*
X1643828Y89244D02*
Y144280D01*
X1649828Y92244D02*
Y141280D01*
X1646810Y90762D02*
Y142762D01*
X1640828Y87744D02*
Y145780D01*
X1675328Y86280D02*
Y144244D01*
X1672310Y87762D02*
Y142762D01*
X1669328Y90762D02*
Y141244D01*
X1634828Y85012D02*
Y148780D01*
X1631810Y83262D02*
Y150262D01*
X1678310Y84762D02*
Y145762D01*
X1684310Y81762D02*
Y148762D01*
X1681328Y83512D02*
Y147262D01*
X1652810Y144262D02*
X1666310D01*
X1651310Y147262D02*
X1667810D01*
X1634828Y148780D02*
X1645310Y159262D01*
X1631810Y150262D02*
X1643810Y162262D01*
X1637828Y147280D02*
X1646810Y156262D01*
X1675310Y162262D02*
X1687310Y150262D01*
X1672310Y156262D02*
X1681328Y147244D01*
X1673810Y159262D02*
X1684310Y148762D01*
X1645310Y159262D02*
X1673810D01*
X1643810Y162262D02*
X1675310D01*
X1649810Y150262D02*
X1669310D01*
X1648310Y153262D02*
X1670810D01*
X1646810Y156262D02*
X1672310D01*
X1634828Y84744D02*
Y85012D01*
X1640828Y87744D02*
X1648310Y80262D01*
X1643828Y89244D02*
X1649810Y83262D01*
X1646810Y90762D02*
X1651310Y86262D01*
X1669310Y80262D02*
X1675328Y86280D01*
X1670810Y77262D02*
X1678310Y84762D01*
X1667810Y83262D02*
X1672310Y87762D01*
X1664810Y86262D02*
X1669310Y90762D01*
X1681328Y83280D02*
Y83512D01*
X1637828Y86244D02*
X1646810Y77262D01*
X1651310Y86262D02*
X1664810D01*
X1634828Y84744D02*
X1645310Y74262D01*
X1631810Y83262D02*
X1643810Y71262D01*
X1673810D02*
X1684310Y81762D01*
X1672310Y74262D02*
X1681328Y83280D01*
X1649810Y83262D02*
X1667810D01*
X1648310Y80262D02*
X1669310D01*
X1646810Y77262D02*
X1670810D01*
X1643810Y71262D02*
X1673810D01*
X1645310Y74262D02*
X1672310D01*
X171240Y74062D02*
X198240D01*
X169740Y71062D02*
X199740D01*
X172740Y77062D02*
X196740D01*
X174240Y80062D02*
X195240D01*
X175740Y83062D02*
X193740D01*
X198240Y74062D02*
X207258Y83080D01*
X199740Y71062D02*
X210240Y81562D01*
X157740Y83062D02*
X169740Y71062D01*
X160759Y84544D02*
X171240Y74062D01*
X177240Y86062D02*
X190740D01*
X163759Y86044D02*
X172740Y77062D01*
X207258Y83080D02*
Y83312D01*
X190740Y86062D02*
X195240Y90562D01*
X193740Y83062D02*
X198240Y87562D01*
X196740Y77062D02*
X204240Y84562D01*
X195240Y80062D02*
X201259Y86080D01*
X172740Y90562D02*
X177240Y86062D01*
X169758Y89044D02*
X175740Y83062D01*
X166758Y87544D02*
X174240Y80062D01*
X160759Y84544D02*
Y84812D01*
X172740Y156062D02*
X198240D01*
X174240Y153062D02*
X196740D01*
X175740Y150062D02*
X195240D01*
X169740Y162062D02*
X201240D01*
X171240Y159062D02*
X199740D01*
X210240Y148562D01*
X198240Y156062D02*
X207258Y147044D01*
X201240Y162062D02*
X213240Y150062D01*
X163759Y147080D02*
X172740Y156062D01*
X157740Y150062D02*
X169740Y162062D01*
X160759Y148580D02*
X171240Y159062D01*
X177240Y147062D02*
X193740D01*
X178740Y144062D02*
X192240D01*
X207258Y83312D02*
Y147062D01*
X210240Y81562D02*
Y148562D01*
X204240Y84562D02*
Y145562D01*
X157740Y83062D02*
Y150062D01*
X160759Y84812D02*
Y148580D01*
X195259Y90562D02*
Y141044D01*
X198240Y87562D02*
Y142562D01*
X201259Y86080D02*
Y144044D01*
X166758Y87544D02*
Y145580D01*
X172740Y90562D02*
Y142562D01*
X175759Y92044D02*
Y141080D01*
X169758Y89044D02*
Y144080D01*
X163759Y86044D02*
Y147080D01*
X192240Y144062D02*
X195259Y141044D01*
X193740Y147062D02*
X198240Y142562D01*
X196740Y153062D02*
X204240Y145562D01*
X195240Y150062D02*
X201259Y144044D01*
X166758Y145580D02*
X174240Y153062D01*
X169758Y144080D02*
X175740Y150062D01*
X172740Y142562D02*
X177240Y147062D01*
X175759Y141080D02*
X178740Y144062D01*
X175759Y92044D02*
X178490Y89312D01*
X182740D01*
X185490Y92062D01*
Y95562D01*
X213240Y126945D02*
Y150062D01*
Y126945D02*
X217557Y122629D01*
D61*
X3466500Y142501D02*
D03*
X3400500D02*
D03*
D62*
X939474Y120677D02*
D03*
X4461599Y120777D02*
D03*
X2987421Y121338D02*
D03*
X1513588Y120777D02*
D03*
X4281523D02*
D03*
X2807585D02*
D03*
X1333549Y120677D02*
D03*
X4101472Y120777D02*
D03*
X2627492D02*
D03*
X1119490Y120677D02*
D03*
X3921572Y120777D02*
D03*
X2447568D02*
D03*
X3741488D02*
D03*
X2233469D02*
D03*
X759515D02*
D03*
X3561617Y120677D02*
D03*
X2053500D02*
D03*
X579478D02*
D03*
X3347488Y120777D02*
D03*
X1873586Y120677D02*
D03*
X399463D02*
D03*
X3167533D02*
D03*
X1693578Y120877D02*
D03*
X219508Y120677D02*
D03*
X905456Y95562D02*
D03*
X4427581Y95662D02*
D03*
X2953402Y96223D02*
D03*
X1479570Y95662D02*
D03*
X4247505D02*
D03*
X2773567D02*
D03*
X1299531Y95562D02*
D03*
X4067454Y95662D02*
D03*
X2593474D02*
D03*
X1085472Y95562D02*
D03*
X3887554Y95662D02*
D03*
X2413550D02*
D03*
X3707470D02*
D03*
X2199450D02*
D03*
X725497D02*
D03*
X3527598Y95562D02*
D03*
X2019482D02*
D03*
X545460D02*
D03*
X3313470Y95662D02*
D03*
X1839568Y95562D02*
D03*
X365444D02*
D03*
X3133515D02*
D03*
X1659560Y95762D02*
D03*
X185490Y95562D02*
D03*
D63*
X3970180Y56182D02*
D03*
Y45182D02*
D03*
X3981180D02*
D03*
Y56182D02*
D03*
X661420Y58500D02*
D03*
X650420D02*
D03*
Y47500D02*
D03*
X661420D02*
D03*
X1928920Y50370D02*
D03*
X1917920D02*
D03*
Y39370D02*
D03*
X1928920D02*
D03*
X3906473Y21606D02*
D03*
X2070292Y52324D02*
D03*
X1984196Y52200D02*
D03*
X1977696Y60000D02*
D03*
X4127420Y11658D02*
D03*
X4132920Y18158D02*
D03*
X4198071Y9054D02*
D03*
X4024048Y16566D02*
D03*
X2719722Y9604D02*
D03*
X726415Y18300D02*
D03*
X794958Y14732D02*
D03*
X834766Y24000D02*
D03*
X514403Y39000D02*
D03*
Y20500D02*
D03*
X762192Y53340D02*
D03*
X759774Y44750D02*
D03*
X842856Y8236D02*
D03*
X4088582Y35658D02*
D03*
X653170Y24250D02*
D03*
X4109920Y20158D02*
D03*
X4099522Y49658D02*
D03*
X2892898Y35963D02*
D03*
X2914176Y46964D02*
D03*
Y58083D02*
D03*
Y35963D02*
D03*
X2903898D02*
D03*
X2892898Y47083D02*
D03*
X2903898D02*
D03*
X2892898Y58083D02*
D03*
X2903898D02*
D03*
X4098920Y25158D02*
D03*
X4119920Y10158D02*
D03*
D64*
X2916398Y115839D02*
D03*
X2921148Y87886D02*
D03*
X2840196Y28544D02*
D03*
X2848076Y18908D02*
D03*
X2846524Y37226D02*
D03*
X2873214Y7204D02*
D03*
X2785270Y54345D02*
D03*
X2759371Y33841D02*
D03*
X2770801D02*
D03*
X2848076Y67313D02*
D03*
X2911898Y11345D02*
D03*
X2917320Y7088D02*
D03*
X2848701Y108651D02*
D03*
X1722117Y78232D02*
D03*
X841372Y53043D02*
D03*
X809653Y29856D02*
D03*
X817237Y29238D02*
D03*
X749954Y46873D02*
D03*
X844291Y45104D02*
D03*
X1877077Y32230D02*
D03*
X3364293Y47946D02*
D03*
X3335995Y8890D02*
D03*
X3377412Y76414D02*
D03*
X3456000Y130001D02*
D03*
X3426000Y125001D02*
D03*
X3348252Y54610D02*
D03*
X3348157Y76414D02*
D03*
X3387805Y102848D02*
D03*
X3406250Y64309D02*
D03*
X3400500Y87544D02*
D03*
X3456112Y73362D02*
D03*
Y42406D02*
D03*
X3447262Y94881D02*
D03*
X3435959Y98435D02*
D03*
X3447262Y42406D02*
D03*
X3495920Y54737D02*
D03*
X3435749Y59077D02*
D03*
X3416000Y157662D02*
D03*
X3411000Y162062D02*
D03*
X3390529Y31429D02*
D03*
X3231177Y12897D02*
D03*
X3421000Y133096D02*
D03*
X3426000Y15146D02*
D03*
X3431000Y89412D02*
D03*
X3776399Y47189D02*
D03*
X3739000Y54604D02*
D03*
X3158432Y37867D02*
D03*
X3172624D02*
D03*
X3415866Y69156D02*
D03*
X3431000Y159162D02*
D03*
Y27418D02*
D03*
X3426000Y95662D02*
D03*
X3267736Y8890D02*
D03*
X3446085Y133096D02*
D03*
X3451086Y159162D02*
D03*
X2675081Y50986D02*
D03*
X3364293Y79900D02*
D03*
X1891222Y62230D02*
D03*
X1903112D02*
D03*
X1879386D02*
D03*
X1920920Y69910D02*
D03*
X1873386Y78232D02*
D03*
X2989774Y61683D02*
D03*
X2957445Y62323D02*
D03*
X1541866Y75441D02*
D03*
X2767728Y61683D02*
D03*
X2654545Y68571D02*
D03*
X2785270Y64309D02*
D03*
X2118053Y62758D02*
D03*
X2666017Y61925D02*
D03*
X2685526D02*
D03*
X2018747Y58333D02*
D03*
X2615790Y61236D02*
D03*
X2290411Y62230D02*
D03*
X2183819Y57404D02*
D03*
X3761593Y57500D02*
D03*
X1964322Y63166D02*
D03*
X2385765Y50116D02*
D03*
X3099213Y40975D02*
D03*
X3101499Y54737D02*
D03*
X3579827Y54610D02*
D03*
X2914084Y82262D02*
D03*
X3992920Y27629D02*
D03*
X4004545Y33158D02*
D03*
X3948889Y31429D02*
D03*
X3847621Y40761D02*
D03*
X3975680Y30932D02*
D03*
X2136829Y53770D02*
D03*
X389942Y9500D02*
D03*
X205865D02*
D03*
X4452286Y10717D02*
D03*
X4269870Y9500D02*
D03*
X4101223Y13146D02*
D03*
X3913607Y10158D02*
D03*
X3837454Y8890D02*
D03*
X3660900Y8890D02*
D03*
X3728340D02*
D03*
X3482766D02*
D03*
X3547044Y9462D02*
D03*
X3469485Y8890D02*
D03*
X3154817D02*
D03*
X2882194Y19200D02*
D03*
X2938493Y34544D02*
D03*
X2975179Y9345D02*
D03*
X2774755Y18083D02*
D03*
X2434779Y9342D02*
D03*
X2364211Y11890D02*
D03*
X2466895Y24600D02*
D03*
X2035479Y24048D02*
D03*
X2147610Y4100D02*
D03*
X2283595Y102600D02*
D03*
X2252880Y11995D02*
D03*
X2041980Y5000D02*
D03*
X1954633Y8890D02*
D03*
X1976117Y21234D02*
D03*
X2093631Y8776D02*
D03*
X816471Y13958D02*
D03*
X774013Y14175D02*
D03*
X806810Y14175D02*
D03*
X2053111Y28358D02*
D03*
X1858355Y8176D02*
D03*
X1667480Y23370D02*
D03*
X1614791Y7100D02*
D03*
X1504835D02*
D03*
X1316205Y24102D02*
D03*
X1105828Y5125D02*
D03*
X924820Y6195D02*
D03*
X743336Y41685D02*
D03*
X749954Y20261D02*
D03*
X566500Y10540D02*
D03*
X320142Y23596D02*
D03*
Y9500D02*
D03*
X1898893Y16243D02*
D03*
X3762182Y79949D02*
D03*
X3580082D02*
D03*
X2887798Y117923D02*
D03*
X2899284Y82262D02*
D03*
X2465637Y76868D02*
D03*
X1348285Y64520D02*
D03*
X786420Y78125D02*
D03*
X604704Y74500D02*
D03*
X3102274Y74168D02*
D03*
X2721722Y50986D02*
D03*
X2691957Y48286D02*
D03*
X2830006Y54864D02*
D03*
X2826988Y13716D02*
D03*
X2796366Y9604D02*
D03*
X4170934Y49758D02*
D03*
X4088582Y49582D02*
D03*
X2171614Y54102D02*
D03*
X3948889Y48182D02*
D03*
X3928272D02*
D03*
X2846524Y51211D02*
D03*
X2081970Y53770D02*
D03*
X2107154Y42239D02*
D03*
X1951501Y28733D02*
D03*
X2162920Y38770D02*
D03*
X1976291Y47620D02*
D03*
X2061402Y47498D02*
D03*
X2090361Y36620D02*
D03*
X1957516Y39370D02*
D03*
X1966294Y42120D02*
D03*
X1931558Y16243D02*
D03*
X1920920D02*
D03*
X1908737D02*
D03*
X1950889Y42239D02*
D03*
X2015045Y33230D02*
D03*
X759774Y7250D02*
D03*
X786420Y58500D02*
D03*
X2815410Y35963D02*
D03*
X3002900Y66659D02*
D03*
X3021982Y66093D02*
D03*
X4503922Y103100D02*
D03*
X4324426Y35658D02*
D03*
X4324494Y104888D02*
D03*
X4156920Y35182D02*
D03*
X4146420Y102754D02*
D03*
X4083160Y18158D02*
D03*
X4001799Y63182D02*
D03*
X4014080Y61782D02*
D03*
X4025350Y63432D02*
D03*
X3965430Y105031D02*
D03*
X3788886Y105958D02*
D03*
X3604737D02*
D03*
X3196979Y76414D02*
D03*
X3028370Y104300D02*
D03*
X2616113Y10716D02*
D03*
X2668575Y103804D02*
D03*
X2490157D02*
D03*
X2335465Y99600D02*
D03*
Y144624D02*
D03*
X2287042D02*
D03*
X1181560Y105175D02*
D03*
X1221031D02*
D03*
Y141952D02*
D03*
X1181560D02*
D03*
X1966283Y21234D02*
D03*
X2090361Y103370D02*
D03*
X2078970Y29230D02*
D03*
X1912320Y103370D02*
D03*
X1893774Y50370D02*
D03*
X1360074Y62182D02*
D03*
X1147897Y57946D02*
D03*
X964269Y76775D02*
D03*
X707920Y54737D02*
D03*
X687056Y42000D02*
D03*
X604704Y48049D02*
D03*
X426462Y36830D02*
D03*
X426354Y79634D02*
D03*
X244613Y46670D02*
D03*
Y79327D02*
D03*
X3837454Y50985D02*
D03*
X3825393Y55010D02*
D03*
X4127869Y56366D02*
D03*
X4134420Y56182D02*
D03*
X4010880Y41138D02*
D03*
X3761593Y41782D02*
D03*
X1891729Y10156D02*
D03*
X2217319Y54102D02*
D03*
X2174800Y39370D02*
D03*
X2522015Y33331D02*
D03*
X3005164Y79385D02*
D03*
X2941720Y49584D02*
D03*
X2666017Y31908D02*
D03*
X2655069Y20977D02*
D03*
X3184279Y76414D02*
D03*
X3936938Y79502D02*
D03*
X663420Y24000D02*
D03*
X638625Y70163D02*
D03*
X650432Y79730D02*
D03*
X653480Y7112D02*
D03*
X632881Y25109D02*
D03*
X856340Y10160D02*
D03*
X643066Y24000D02*
D03*
X2810209Y56474D02*
D03*
X4001463Y80762D02*
D03*
X834766Y46173D02*
D03*
X624100Y45263D02*
D03*
X1529685Y57071D02*
D03*
M02*
