G04*
G04 #@! TF.GenerationSoftware,Altium Limited,Altium Designer,19.1.8 (144)*
G04*
G04 Layer_Physical_Order=1*
G04 Layer_Color=255*
%FSLAX44Y44*%
%MOMM*%
G71*
G01*
G75*
%ADD15C,0.2540*%
%ADD18R,0.9000X0.9000*%
G04:AMPARAMS|DCode=19|XSize=0.6mm|YSize=0.6mm|CornerRadius=0.06mm|HoleSize=0mm|Usage=FLASHONLY|Rotation=180.000|XOffset=0mm|YOffset=0mm|HoleType=Round|Shape=RoundedRectangle|*
%AMROUNDEDRECTD19*
21,1,0.6000,0.4800,0,0,180.0*
21,1,0.4800,0.6000,0,0,180.0*
1,1,0.1200,-0.2400,0.2400*
1,1,0.1200,0.2400,0.2400*
1,1,0.1200,0.2400,-0.2400*
1,1,0.1200,-0.2400,-0.2400*
%
%ADD19ROUNDEDRECTD19*%
G04:AMPARAMS|DCode=20|XSize=0.6mm|YSize=0.6mm|CornerRadius=0.06mm|HoleSize=0mm|Usage=FLASHONLY|Rotation=90.000|XOffset=0mm|YOffset=0mm|HoleType=Round|Shape=RoundedRectangle|*
%AMROUNDEDRECTD20*
21,1,0.6000,0.4800,0,0,90.0*
21,1,0.4800,0.6000,0,0,90.0*
1,1,0.1200,0.2400,0.2400*
1,1,0.1200,0.2400,-0.2400*
1,1,0.1200,-0.2400,-0.2400*
1,1,0.1200,-0.2400,0.2400*
%
%ADD20ROUNDEDRECTD20*%
G04:AMPARAMS|DCode=21|XSize=0.5mm|YSize=0.6mm|CornerRadius=0.05mm|HoleSize=0mm|Usage=FLASHONLY|Rotation=180.000|XOffset=0mm|YOffset=0mm|HoleType=Round|Shape=RoundedRectangle|*
%AMROUNDEDRECTD21*
21,1,0.5000,0.5000,0,0,180.0*
21,1,0.4000,0.6000,0,0,180.0*
1,1,0.1000,-0.2000,0.2500*
1,1,0.1000,0.2000,0.2500*
1,1,0.1000,0.2000,-0.2500*
1,1,0.1000,-0.2000,-0.2500*
%
%ADD21ROUNDEDRECTD21*%
G04:AMPARAMS|DCode=22|XSize=0.5mm|YSize=0.6mm|CornerRadius=0.05mm|HoleSize=0mm|Usage=FLASHONLY|Rotation=90.000|XOffset=0mm|YOffset=0mm|HoleType=Round|Shape=RoundedRectangle|*
%AMROUNDEDRECTD22*
21,1,0.5000,0.5000,0,0,90.0*
21,1,0.4000,0.6000,0,0,90.0*
1,1,0.1000,0.2500,0.2000*
1,1,0.1000,0.2500,-0.2000*
1,1,0.1000,-0.2500,-0.2000*
1,1,0.1000,-0.2500,0.2000*
%
%ADD22ROUNDEDRECTD22*%
%ADD23R,1.2000X1.0000*%
%ADD24R,0.8000X1.8000*%
%ADD25R,0.3000X1.6000*%
%ADD26R,0.6000X0.5400*%
%ADD27R,3.4500X3.4500*%
%ADD28R,0.2800X0.8500*%
%ADD29R,0.8500X0.2800*%
%ADD30R,2.0500X2.5500*%
%ADD31R,2.5500X2.0500*%
%ADD32R,2.0000X1.0000*%
%ADD33R,0.3000X0.6000*%
%ADD34R,0.6000X0.3000*%
%ADD35R,1.0000X2.0000*%
G04:AMPARAMS|DCode=36|XSize=1mm|YSize=0.9mm|CornerRadius=0.1125mm|HoleSize=0mm|Usage=FLASHONLY|Rotation=270.000|XOffset=0mm|YOffset=0mm|HoleType=Round|Shape=RoundedRectangle|*
%AMROUNDEDRECTD36*
21,1,1.0000,0.6750,0,0,270.0*
21,1,0.7750,0.9000,0,0,270.0*
1,1,0.2250,-0.3375,-0.3875*
1,1,0.2250,-0.3375,0.3875*
1,1,0.2250,0.3375,0.3875*
1,1,0.2250,0.3375,-0.3875*
%
%ADD36ROUNDEDRECTD36*%
%ADD37R,0.5400X0.6000*%
%ADD59R,0.6000X0.1500*%
%ADD60C,0.1524*%
%ADD61C,1.1500*%
%ADD62C,0.6000*%
%ADD63C,0.5500*%
%ADD64C,0.5000*%
G36*
X3407431Y165623D02*
X3407997Y164353D01*
X3407449Y163533D01*
X3407156Y162062D01*
X3407449Y160591D01*
X3408282Y159344D01*
X3408928Y158912D01*
Y154771D01*
X3408230D01*
Y145502D01*
X3406960Y145250D01*
X3406632Y146042D01*
X3405507Y147508D01*
X3404040Y148633D01*
X3402332Y149341D01*
X3400500Y149582D01*
X3398667Y149341D01*
X3396960Y148633D01*
X3395493Y147508D01*
X3394368Y146042D01*
X3393661Y144334D01*
X3393419Y142501D01*
X3393661Y140669D01*
X3394368Y138961D01*
X3394407Y138910D01*
X3393845Y137771D01*
X3388230D01*
Y117231D01*
X3398770D01*
Y134685D01*
X3399725Y135523D01*
X3400500Y135421D01*
X3402332Y135662D01*
X3404040Y136369D01*
X3405507Y137495D01*
X3406632Y138961D01*
X3406960Y139753D01*
X3408230Y139501D01*
Y136231D01*
X3417033D01*
X3417712Y134961D01*
X3417449Y134567D01*
X3417156Y133096D01*
X3417449Y131625D01*
X3418282Y130378D01*
X3419529Y129545D01*
X3421000Y129252D01*
X3422471Y129545D01*
X3423718Y130378D01*
X3424551Y131625D01*
X3424844Y133096D01*
X3424551Y134567D01*
X3424442Y134731D01*
X3424730Y135271D01*
Y145501D01*
Y155001D01*
X3423000D01*
Y154771D01*
X3420130D01*
X3419451Y156041D01*
X3419551Y156191D01*
X3419844Y157662D01*
X3419551Y159133D01*
X3418718Y160380D01*
X3417471Y161213D01*
X3416027Y161501D01*
X3415873Y161540D01*
X3414746Y162551D01*
X3414551Y163533D01*
X3414004Y164353D01*
X3414569Y165623D01*
X3444235Y165623D01*
X3444761Y164353D01*
X3439535Y159127D01*
X3439086Y158455D01*
X3438928Y157662D01*
X3438928Y157662D01*
Y154771D01*
X3433072D01*
Y156012D01*
X3433718Y156444D01*
X3434551Y157691D01*
X3434844Y159162D01*
X3434551Y160633D01*
X3433718Y161880D01*
X3432471Y162713D01*
X3431000Y163006D01*
X3429529Y162713D01*
X3428282Y161880D01*
X3427449Y160633D01*
X3427156Y159162D01*
X3427449Y157691D01*
X3428282Y156444D01*
X3428540Y156271D01*
X3428155Y155001D01*
X3427270D01*
Y145501D01*
Y136001D01*
X3429000D01*
Y136231D01*
X3433410D01*
Y130001D01*
X3433607Y129010D01*
X3434169Y128170D01*
X3438410Y123929D01*
Y118771D01*
X3424000D01*
Y119001D01*
X3422270D01*
Y109501D01*
Y100001D01*
X3422964D01*
X3423154Y99798D01*
X3423282Y98380D01*
X3422449Y97133D01*
X3422156Y95662D01*
X3422449Y94191D01*
X3423282Y92944D01*
X3424529Y92111D01*
X3426000Y91818D01*
X3426630Y91944D01*
X3427449Y90883D01*
X3427156Y89412D01*
X3427449Y87941D01*
X3428282Y86694D01*
X3429529Y85861D01*
X3431000Y85568D01*
X3432471Y85861D01*
X3433718Y86694D01*
X3434551Y87941D01*
X3434844Y89412D01*
X3434551Y90883D01*
X3433718Y92130D01*
X3433072Y92562D01*
Y94303D01*
X3434342Y94981D01*
X3434489Y94883D01*
X3435959Y94591D01*
X3437370Y94872D01*
X3437594Y94886D01*
X3438640Y94231D01*
Y63206D01*
X3437370Y62527D01*
X3437220Y62628D01*
X3435749Y62921D01*
X3434278Y62628D01*
X3433031Y61795D01*
X3432198Y60548D01*
X3431905Y59077D01*
X3432198Y57606D01*
X3432552Y57075D01*
X3431873Y55805D01*
X3362110D01*
X3361119Y55608D01*
X3360279Y55047D01*
X3356962Y51730D01*
X3352390D01*
X3351711Y53000D01*
X3351804Y53139D01*
X3352096Y54610D01*
X3351804Y56081D01*
X3350970Y57328D01*
X3349723Y58161D01*
X3348252Y58454D01*
X3346781Y58161D01*
X3345534Y57328D01*
X3345103Y56682D01*
X3104733D01*
X3104217Y57455D01*
X3102970Y58288D01*
X3101499Y58581D01*
X3100027Y58288D01*
X3098781Y57455D01*
X3097947Y56208D01*
X3097655Y54737D01*
X3097947Y53266D01*
X3098400Y52588D01*
X3098728Y51939D01*
X3098094Y50971D01*
X3086942Y39820D01*
X3052024D01*
X3051638Y41090D01*
X3051717Y41207D01*
X3051847Y41260D01*
X3052231Y41644D01*
X3052584Y41916D01*
X3052856Y42269D01*
X3053239Y42653D01*
X3053293Y42783D01*
X3053411Y42862D01*
X3054088Y43875D01*
X3054401Y44284D01*
X3054467Y44443D01*
X3054505Y44500D01*
X3054518Y44566D01*
X3054559Y44664D01*
X3054632Y44737D01*
X3055386Y46557D01*
Y46661D01*
X3055426Y46759D01*
X3055464Y46815D01*
X3055477Y46881D01*
X3055543Y47041D01*
X3055610Y47552D01*
X3055848Y48747D01*
X3055821Y48885D01*
X3055875Y49015D01*
Y49558D01*
X3055933Y50000D01*
X3055875Y50442D01*
Y50985D01*
X3055821Y51115D01*
X3055848Y51253D01*
X3055610Y52448D01*
X3055543Y52959D01*
X3055477Y53119D01*
X3055464Y53185D01*
X3055426Y53241D01*
X3055386Y53339D01*
Y53443D01*
X3054632Y55263D01*
X3054559Y55336D01*
X3054518Y55434D01*
X3054505Y55500D01*
X3054467Y55557D01*
X3054401Y55716D01*
X3054087Y56125D01*
X3053411Y57138D01*
X3053293Y57217D01*
X3053239Y57347D01*
X3052856Y57730D01*
X3052584Y58084D01*
X3052231Y58356D01*
X3051847Y58740D01*
X3051717Y58793D01*
X3051638Y58910D01*
X3050625Y59587D01*
X3050216Y59901D01*
X3050057Y59967D01*
X3050001Y60005D01*
X3049934Y60018D01*
X3049836Y60059D01*
X3049763Y60132D01*
X3047943Y60886D01*
X3047921Y60984D01*
X3048938Y62254D01*
X3377282D01*
X3377282Y62254D01*
X3378075Y62412D01*
X3378747Y62861D01*
X3399738Y83852D01*
X3400500Y83700D01*
X3401971Y83993D01*
X3403218Y84826D01*
X3404051Y86073D01*
X3404344Y87544D01*
X3404051Y89015D01*
X3403218Y90262D01*
X3401971Y91095D01*
X3400500Y91388D01*
X3399029Y91095D01*
X3397782Y90262D01*
X3396949Y89015D01*
X3396656Y87544D01*
X3396808Y86782D01*
X3376424Y66398D01*
X3361849D01*
Y75588D01*
X3363119Y76290D01*
X3364293Y76056D01*
X3365764Y76349D01*
X3367011Y77182D01*
X3367845Y78429D01*
X3368137Y79900D01*
X3367845Y81371D01*
X3367763Y81493D01*
X3368442Y82762D01*
X3369119D01*
Y90702D01*
X3369119D01*
Y91362D01*
X3369119D01*
Y94161D01*
X3372381D01*
X3373279Y93263D01*
Y92107D01*
X3373049Y90933D01*
X3373049Y90188D01*
Y88003D01*
X3377549D01*
X3382049D01*
Y90188D01*
X3382049Y90933D01*
X3381819Y92107D01*
Y99303D01*
X3379620D01*
Y106619D01*
X3381819D01*
Y113814D01*
X3382049Y114989D01*
X3382049Y115734D01*
Y117919D01*
X3373049D01*
Y115734D01*
X3373049Y114989D01*
X3373279Y113814D01*
Y106619D01*
X3375477D01*
Y99303D01*
X3373279D01*
Y98304D01*
X3369119D01*
Y99303D01*
X3366920D01*
Y106401D01*
X3367249D01*
X3367979Y106547D01*
X3368597Y106960D01*
X3369010Y107578D01*
X3369155Y108308D01*
Y113015D01*
X3369849Y113708D01*
Y117708D01*
X3369366Y118190D01*
X3369390Y118308D01*
Y119438D01*
X3364849D01*
Y120708D01*
X3363579D01*
Y125249D01*
X3362449D01*
X3361848Y125742D01*
Y165623D01*
X3407431D01*
D02*
G37*
G36*
X3486459Y150648D02*
Y72901D01*
X3486459Y72901D01*
X3486617Y72108D01*
X3487066Y71436D01*
X3497705Y60797D01*
X3497705Y60797D01*
X3498377Y60348D01*
X3499170Y60190D01*
X3745265D01*
X3745266Y60190D01*
X3746058Y60348D01*
X3746731Y60797D01*
X3752026Y66093D01*
X3794666D01*
X3795153Y64920D01*
X3789804Y59572D01*
X3764743D01*
X3764311Y60218D01*
X3763064Y61051D01*
X3761593Y61344D01*
X3760122Y61051D01*
X3758875Y60218D01*
X3758042Y58971D01*
X3757749Y57500D01*
X3758042Y56029D01*
X3758875Y54782D01*
X3760122Y53949D01*
X3761593Y53656D01*
X3763064Y53949D01*
X3764311Y54782D01*
X3764743Y55428D01*
X3789062D01*
X3789911Y54158D01*
X3789614Y53443D01*
Y53339D01*
X3789574Y53242D01*
X3789536Y53185D01*
X3789523Y53119D01*
X3789457Y52959D01*
X3789390Y52448D01*
X3789152Y51253D01*
X3789179Y51115D01*
X3789125Y50985D01*
Y50442D01*
X3789067Y50000D01*
X3789125Y49558D01*
Y49015D01*
X3789179Y48885D01*
X3789152Y48747D01*
X3789390Y47551D01*
X3789457Y47041D01*
X3789523Y46881D01*
X3789536Y46815D01*
X3789574Y46758D01*
X3789614Y46661D01*
Y46557D01*
X3790368Y44737D01*
X3790441Y44664D01*
X3790482Y44566D01*
X3790495Y44500D01*
X3790533Y44443D01*
X3790599Y44284D01*
X3790912Y43875D01*
X3791589Y42862D01*
X3791707Y42783D01*
X3791760Y42653D01*
X3792144Y42269D01*
X3792416Y41916D01*
X3792769Y41645D01*
X3793153Y41260D01*
X3793283Y41206D01*
X3793362Y41090D01*
X3794375Y40412D01*
X3794784Y40099D01*
X3794943Y40033D01*
X3794999Y39995D01*
X3795066Y39982D01*
X3795164Y39941D01*
X3795237Y39868D01*
X3797057Y39114D01*
X3797161D01*
X3797258Y39074D01*
X3797315Y39036D01*
X3797382Y39023D01*
X3797541Y38957D01*
X3798051Y38890D01*
X3799247Y38652D01*
X3799385Y38679D01*
X3799515Y38625D01*
X3800058D01*
X3800500Y38567D01*
X3800942Y38625D01*
X3801485D01*
X3801615Y38679D01*
X3801753Y38652D01*
X3802948Y38890D01*
X3803459Y38957D01*
X3803618Y39023D01*
X3803685Y39036D01*
X3803741Y39074D01*
X3803839Y39114D01*
X3803943D01*
X3805763Y39868D01*
X3805836Y39941D01*
X3805934Y39982D01*
X3806000Y39995D01*
X3806057Y40033D01*
X3806216Y40099D01*
X3806625Y40412D01*
X3807638Y41090D01*
X3807717Y41207D01*
X3807847Y41260D01*
X3808231Y41644D01*
X3808584Y41916D01*
X3808856Y42269D01*
X3809240Y42653D01*
X3809294Y42783D01*
X3809410Y42862D01*
X3810088Y43875D01*
X3810401Y44284D01*
X3810467Y44443D01*
X3810505Y44500D01*
X3810518Y44566D01*
X3810559Y44664D01*
X3810632Y44737D01*
X3811386Y46557D01*
Y46661D01*
X3811426Y46759D01*
X3811464Y46815D01*
X3811477Y46881D01*
X3811543Y47041D01*
X3811610Y47552D01*
X3811848Y48747D01*
X3811821Y48885D01*
X3811875Y49015D01*
Y49558D01*
X3811933Y50000D01*
X3811875Y50442D01*
Y50985D01*
X3811821Y51115D01*
X3811848Y51253D01*
X3811610Y52448D01*
X3811543Y52959D01*
X3811477Y53119D01*
X3811464Y53185D01*
X3811426Y53241D01*
X3811386Y53339D01*
Y53443D01*
X3810632Y55263D01*
X3810559Y55336D01*
X3810518Y55434D01*
X3810505Y55500D01*
X3810467Y55557D01*
X3810401Y55716D01*
X3810087Y56125D01*
X3809410Y57138D01*
X3809294Y57217D01*
X3809240Y57347D01*
X3808856Y57730D01*
X3808584Y58084D01*
X3808231Y58356D01*
X3807847Y58740D01*
X3807716Y58793D01*
X3807638Y58910D01*
X3806625Y59587D01*
X3806216Y59901D01*
X3806057Y59967D01*
X3806000Y60005D01*
X3805934Y60018D01*
X3805836Y60059D01*
X3805763Y60132D01*
X3803943Y60886D01*
X3803839D01*
X3803741Y60926D01*
X3803685Y60964D01*
X3803618Y60977D01*
X3803459Y61043D01*
X3802948Y61111D01*
X3801753Y61348D01*
X3801615Y61321D01*
X3801485Y61375D01*
X3800942D01*
X3800500Y61433D01*
X3800058Y61375D01*
X3799515D01*
X3799385Y61321D01*
X3799247Y61348D01*
X3799234Y61346D01*
X3798609Y62516D01*
X3800273Y64180D01*
X3829974D01*
X3830460Y63007D01*
X3826156Y58703D01*
X3825393Y58854D01*
X3823923Y58562D01*
X3822675Y57728D01*
X3821842Y56481D01*
X3821550Y55010D01*
X3821842Y53539D01*
X3822675Y52292D01*
X3823923Y51459D01*
X3825393Y51167D01*
X3826865Y51459D01*
X3828112Y52292D01*
X3828945Y53539D01*
X3829237Y55010D01*
X3829086Y55773D01*
X3834424Y61110D01*
X3843090D01*
X3843475Y59840D01*
X3843186Y59647D01*
X3843185Y59647D01*
X3838216Y54677D01*
X3837454Y54829D01*
X3835982Y54536D01*
X3834735Y53703D01*
X3833902Y52456D01*
X3833610Y50985D01*
X3833902Y49514D01*
X3834735Y48267D01*
X3835982Y47434D01*
X3837454Y47141D01*
X3838925Y47434D01*
X3840172Y48267D01*
X3841005Y49514D01*
X3841297Y50985D01*
X3841146Y51747D01*
X3845509Y56110D01*
X3858101D01*
X3858240Y55912D01*
X3858577Y54647D01*
X3858577Y54647D01*
X3848384Y44454D01*
X3847621Y44605D01*
X3846151Y44313D01*
X3844903Y43479D01*
X3844070Y42232D01*
X3843777Y40761D01*
X3844070Y39290D01*
X3844903Y38043D01*
X3846151Y37210D01*
X3847621Y36917D01*
X3849092Y37210D01*
X3850339Y38043D01*
X3851173Y39290D01*
X3851465Y40761D01*
X3851314Y41523D01*
X3860900Y51110D01*
X3924167D01*
X3924846Y49840D01*
X3924721Y49653D01*
X3924428Y48182D01*
X3924721Y46711D01*
X3925554Y45464D01*
X3926801Y44631D01*
X3928272Y44338D01*
X3929743Y44631D01*
X3930990Y45464D01*
X3931422Y46110D01*
X3935953D01*
X3945346Y36717D01*
X3945346Y36717D01*
X3946018Y36268D01*
X3946811Y36110D01*
X3946996D01*
X3947114Y35795D01*
X3947208Y34840D01*
X3946171Y34147D01*
X3945338Y32900D01*
X3945045Y31429D01*
X3945338Y29958D01*
X3946171Y28711D01*
X3947418Y27878D01*
X3948889Y27585D01*
X3950360Y27878D01*
X3951607Y28711D01*
X3952440Y29958D01*
X3952733Y31429D01*
X3952440Y32900D01*
X3951607Y34147D01*
X3950570Y34840D01*
X3950663Y35795D01*
X3950781Y36110D01*
X3952910D01*
Y35512D01*
X3963950D01*
Y36432D01*
X3965280D01*
Y32202D01*
X3968180D01*
Y29662D01*
X3965280D01*
Y25182D01*
X3964111Y24939D01*
X3942061D01*
X3933355Y33646D01*
X3932683Y34095D01*
X3931890Y34252D01*
X3931890Y34252D01*
X3422262D01*
X3421469Y34095D01*
X3420797Y33646D01*
X3420797Y33645D01*
X3414437Y27285D01*
X3393399D01*
X3393014Y28556D01*
X3393247Y28711D01*
X3394080Y29958D01*
X3394373Y31429D01*
X3394080Y32900D01*
X3393247Y34147D01*
X3393016Y34302D01*
X3393401Y35572D01*
X3757455D01*
X3757455Y35572D01*
X3758248Y35729D01*
X3758920Y36179D01*
X3760831Y38090D01*
X3761593Y37938D01*
X3763064Y38231D01*
X3764311Y39064D01*
X3765144Y40311D01*
X3765437Y41782D01*
X3765144Y43253D01*
X3764311Y44500D01*
X3764156Y44604D01*
X3764541Y45874D01*
X3772817D01*
X3772848Y45718D01*
X3773681Y44471D01*
X3774928Y43638D01*
X3776399Y43345D01*
X3777870Y43638D01*
X3779117Y44471D01*
X3779950Y45718D01*
X3780243Y47189D01*
X3779950Y48660D01*
X3779117Y49907D01*
X3777870Y50740D01*
X3776399Y51033D01*
X3774928Y50740D01*
X3773846Y50017D01*
X3741207D01*
X3740822Y51287D01*
X3741718Y51886D01*
X3742551Y53133D01*
X3742844Y54604D01*
X3742551Y56075D01*
X3741718Y57322D01*
X3740471Y58155D01*
X3739000Y58448D01*
X3737529Y58155D01*
X3736282Y57322D01*
X3735854Y56682D01*
X3582976D01*
X3582545Y57328D01*
X3581298Y58161D01*
X3579827Y58454D01*
X3578356Y58161D01*
X3577108Y57328D01*
X3576275Y56081D01*
X3575983Y54610D01*
X3576275Y53139D01*
X3577108Y51892D01*
X3578014Y51287D01*
X3577628Y50017D01*
X3498518D01*
X3498309Y50271D01*
X3498557Y51965D01*
X3498638Y52019D01*
X3499471Y53266D01*
X3499763Y54737D01*
X3499471Y56208D01*
X3498638Y57455D01*
X3497391Y58288D01*
X3495920Y58581D01*
X3494449Y58288D01*
X3493202Y57455D01*
X3492368Y56208D01*
X3492289Y55805D01*
X3443820D01*
Y91135D01*
X3445090Y91799D01*
X3445791Y91330D01*
X3447262Y91038D01*
X3448733Y91330D01*
X3449980Y92163D01*
X3450785Y93367D01*
X3450928Y93543D01*
X3452139Y93809D01*
X3454040Y91908D01*
Y76512D01*
X3453394Y76080D01*
X3452560Y74833D01*
X3452268Y73362D01*
X3452560Y71891D01*
X3453394Y70644D01*
X3454641Y69811D01*
X3456112Y69518D01*
X3457583Y69811D01*
X3458830Y70644D01*
X3459663Y71891D01*
X3459955Y73362D01*
X3459663Y74833D01*
X3458830Y76080D01*
X3458184Y76512D01*
Y92766D01*
X3458184Y92766D01*
X3458026Y93559D01*
X3457577Y94231D01*
X3457577Y94231D01*
X3453076Y98731D01*
X3453083Y100001D01*
X3454730D01*
Y109501D01*
Y119001D01*
X3453000D01*
Y118771D01*
X3443590D01*
Y125001D01*
X3443393Y125992D01*
X3442831Y126833D01*
X3438590Y131074D01*
Y136231D01*
X3442119D01*
X3442797Y134961D01*
X3442534Y134567D01*
X3442241Y133096D01*
X3442534Y131625D01*
X3443367Y130378D01*
X3444614Y129545D01*
X3446085Y129252D01*
X3447556Y129545D01*
X3448803Y130378D01*
X3449636Y131625D01*
X3449929Y133096D01*
X3449636Y134567D01*
X3449373Y134961D01*
X3450052Y136231D01*
X3453000D01*
Y136001D01*
X3454730D01*
Y145501D01*
Y155001D01*
X3453931D01*
X3453546Y156271D01*
X3453805Y156444D01*
X3454638Y157691D01*
X3454930Y159162D01*
X3454648Y160582D01*
X3454626Y160808D01*
X3455294Y161852D01*
X3475255D01*
X3486459Y150648D01*
D02*
G37*
G36*
X4611562Y165449D02*
Y1444D01*
X4434418D01*
X4433841Y2364D01*
X4434230Y3110D01*
Y8230D01*
X4429500D01*
Y6063D01*
X4428696Y5533D01*
X4428230Y5358D01*
X4426572Y5358D01*
X4426540Y5345D01*
X4425587Y5710D01*
X4425270Y5943D01*
Y15270D01*
X4413730D01*
Y11572D01*
X4404691D01*
Y11900D01*
X4404546Y12630D01*
X4404132Y13248D01*
X4403514Y13662D01*
X4402784Y13807D01*
X4398077D01*
X4397384Y14500D01*
X4393384D01*
X4392691Y13807D01*
X4387984D01*
X4387255Y13662D01*
X4386636Y13248D01*
X4386223Y12630D01*
X4386078Y11900D01*
Y11572D01*
X4282850D01*
X4273799Y20623D01*
X4273127Y21072D01*
X4272334Y21230D01*
X4272334Y21230D01*
X4145778D01*
X4142190Y24818D01*
Y30928D01*
X4139431D01*
X4138846Y31536D01*
X4139528Y32658D01*
X4142149D01*
Y35658D01*
X4143419D01*
Y36928D01*
X4147920D01*
Y38658D01*
X4147690D01*
Y43428D01*
X4139690D01*
X4139150Y43429D01*
X4138420Y44396D01*
Y44658D01*
X4139388Y45388D01*
X4142190D01*
Y47118D01*
X4151630D01*
X4152516Y45848D01*
X4152420Y45358D01*
X4152420Y44613D01*
Y42428D01*
X4156920D01*
X4161420D01*
Y44613D01*
X4161420Y45358D01*
X4161314Y45898D01*
X4162176Y47168D01*
X4168131D01*
X4168216Y47040D01*
X4169464Y46207D01*
X4170934Y45914D01*
X4172405Y46207D01*
X4173652Y47040D01*
X4174485Y48287D01*
X4174778Y49758D01*
X4174485Y51229D01*
X4173652Y52476D01*
X4172405Y53309D01*
X4170934Y53602D01*
X4169464Y53309D01*
X4168216Y52476D01*
X4168131Y52348D01*
X4161190D01*
Y53728D01*
X4152650D01*
Y52298D01*
X4142190D01*
Y53928D01*
X4138859D01*
X4138068Y55198D01*
X4138264Y56182D01*
X4137971Y57653D01*
X4137445Y58440D01*
X4138037Y59710D01*
X4465647D01*
X4465647Y59710D01*
X4466440Y59868D01*
X4467112Y60317D01*
X4472888Y66093D01*
X4476240D01*
Y69445D01*
X4483238Y76442D01*
X4483238Y76443D01*
X4483687Y77115D01*
X4483844Y77908D01*
X4483844Y77908D01*
Y83712D01*
X4486042D01*
Y91652D01*
X4486043D01*
Y92312D01*
X4486042D01*
Y94210D01*
X4489933D01*
X4490738Y93405D01*
X4490808Y92940D01*
X4490601Y91882D01*
X4490601Y91137D01*
Y88952D01*
X4495101D01*
X4499601D01*
Y91137D01*
X4499601Y91882D01*
X4499371Y93056D01*
Y100252D01*
X4496954D01*
Y106111D01*
X4499153D01*
Y113307D01*
X4499382Y114481D01*
X4499382Y115226D01*
Y117411D01*
X4490382D01*
Y115226D01*
X4490382Y114481D01*
X4490612Y113307D01*
Y106111D01*
X4492811D01*
Y100252D01*
X4490831D01*
Y98354D01*
X4486042D01*
Y100252D01*
X4483697D01*
Y105689D01*
X4484025D01*
X4484755Y105834D01*
X4485374Y106247D01*
X4485787Y106866D01*
X4485932Y107596D01*
Y112302D01*
X4486625Y112996D01*
Y116995D01*
X4486143Y117478D01*
X4486167Y117596D01*
Y118726D01*
X4481625D01*
Y119995D01*
X4480356D01*
Y124537D01*
X4479225D01*
X4478406Y124374D01*
X4477711Y123910D01*
X4477510Y123609D01*
X4476240Y123994D01*
Y165449D01*
X4611562Y165449D01*
D02*
G37*
G36*
X1252611Y165449D02*
Y64536D01*
X1344323Y64663D01*
X1344441Y64520D01*
X1344734Y63049D01*
X1345567Y61802D01*
X1346814Y60969D01*
X1348285Y60676D01*
X1349756Y60969D01*
X1351003Y61802D01*
X1351836Y63049D01*
X1352129Y64520D01*
X1352255Y64674D01*
X1526715Y64916D01*
X1527614Y64019D01*
Y60221D01*
X1526967Y59789D01*
X1526134Y58542D01*
X1525841Y57071D01*
X1526134Y55600D01*
X1526967Y54353D01*
X1528214Y53520D01*
X1529685Y53227D01*
X1531156Y53520D01*
X1532403Y54353D01*
X1533237Y55600D01*
X1533529Y57071D01*
X1533237Y58542D01*
X1532403Y59789D01*
X1531757Y60221D01*
Y64923D01*
X1550210Y64949D01*
X1550697Y63776D01*
X1533437Y46516D01*
X855182D01*
X847191Y54508D01*
X846519Y54957D01*
X846439Y54973D01*
X846564Y56243D01*
X1113271D01*
X1113271Y56243D01*
X1114064Y56401D01*
X1114736Y56850D01*
X1122509Y64622D01*
X1134132Y64615D01*
X1134132Y76245D01*
X1135597Y77710D01*
X1136046Y78383D01*
X1136204Y79175D01*
X1136204Y79176D01*
Y83167D01*
X1138402D01*
Y91107D01*
X1138402D01*
Y91767D01*
X1138402D01*
Y94365D01*
X1142782D01*
X1143680Y93467D01*
Y92565D01*
X1143450Y91390D01*
X1143450Y90645D01*
Y88460D01*
X1147950D01*
X1152450D01*
Y90645D01*
X1152450Y91390D01*
X1152220Y92565D01*
Y99760D01*
X1150022D01*
Y107911D01*
X1152220D01*
Y115106D01*
X1152450Y116281D01*
X1152450Y117026D01*
Y119211D01*
X1143450D01*
Y117026D01*
X1143450Y116281D01*
X1143680Y115106D01*
Y107911D01*
X1145878D01*
Y99760D01*
X1143680D01*
Y98509D01*
X1138402D01*
Y99707D01*
X1136204D01*
Y105893D01*
X1136532D01*
X1137262Y106039D01*
X1137880Y106452D01*
X1138294Y107070D01*
X1138439Y107800D01*
Y112507D01*
X1139132Y113200D01*
Y117200D01*
X1138650Y117682D01*
X1138673Y117800D01*
Y118930D01*
X1134132D01*
Y121470D01*
X1138673D01*
Y122600D01*
X1138510Y123419D01*
X1138046Y124114D01*
X1137351Y124578D01*
X1136532Y124741D01*
X1134132D01*
X1134132Y164724D01*
X1135031Y165622D01*
X1252611Y165449D01*
D02*
G37*
G36*
X2375398Y70588D02*
X2263181D01*
X2262388Y70430D01*
X2261716Y69981D01*
X2261716Y69981D01*
X2256973Y65238D01*
X2245871D01*
X2244880Y65912D01*
Y75139D01*
X2249378Y79637D01*
X2249378Y79637D01*
X2249827Y80309D01*
X2249985Y81102D01*
Y82810D01*
X2252183D01*
Y90750D01*
X2252183D01*
Y91410D01*
X2252183D01*
Y92810D01*
X2256848D01*
X2257628Y91540D01*
X2257488Y90824D01*
X2257488Y90079D01*
Y87894D01*
X2261988D01*
X2266488D01*
Y90079D01*
X2266488Y90824D01*
X2266258Y91999D01*
Y99194D01*
X2264058D01*
Y106795D01*
X2266256D01*
Y113990D01*
X2266486Y115165D01*
X2266486Y115910D01*
Y118095D01*
X2257486D01*
Y115910D01*
X2257486Y115165D01*
X2257716Y113990D01*
Y106795D01*
X2259914D01*
Y99194D01*
X2257718D01*
Y96953D01*
X2252183D01*
Y99350D01*
X2249952D01*
Y106415D01*
X2250280D01*
X2251009Y106560D01*
X2251628Y106973D01*
X2252041Y107592D01*
X2252186Y108321D01*
Y113028D01*
X2252880Y113721D01*
Y117721D01*
X2252397Y118203D01*
X2252421Y118321D01*
Y119451D01*
X2247880D01*
Y120721D01*
X2246610D01*
Y125262D01*
X2245480D01*
X2244880Y125755D01*
X2244880Y165623D01*
X2375398Y165623D01*
X2375398Y70588D01*
D02*
G37*
G36*
X3494153Y165623D02*
X3494153Y71868D01*
X3492980Y71382D01*
X3490602Y73759D01*
Y151506D01*
X3490602Y151507D01*
X3490445Y152299D01*
X3489996Y152971D01*
X3489995Y152971D01*
X3478614Y164353D01*
X3479140Y165623D01*
X3494153D01*
D02*
G37*
G36*
X3744293Y64823D02*
X3743920Y64334D01*
X3500515D01*
X3500143Y64823D01*
X3500771Y66093D01*
X3743664Y66093D01*
X3744293Y64823D01*
D02*
G37*
G36*
X4465855Y64920D02*
X4464789Y63854D01*
X4289264D01*
X4288738Y65124D01*
X4289707Y66093D01*
X4465369D01*
X4465855Y64920D01*
D02*
G37*
G36*
X1114995Y64627D02*
X1115480Y63454D01*
X1112413Y60387D01*
X937679D01*
X937294Y61656D01*
X937345Y61691D01*
X940397Y64743D01*
X1114995Y64627D01*
D02*
G37*
G36*
X418988Y65088D02*
X422291Y61785D01*
X422291Y61785D01*
X422963Y61336D01*
X423756Y61178D01*
X423756Y61178D01*
X609736D01*
X610253Y60536D01*
X610463Y59973D01*
X610199Y59572D01*
X254151D01*
X249696Y64027D01*
X250182Y65200D01*
X418988Y65088D01*
D02*
G37*
G36*
X2159106Y38921D02*
X2159076Y38770D01*
X2159358Y37350D01*
X2159381Y37124D01*
X2158712Y36080D01*
X2100397D01*
X2099605Y35922D01*
X2098932Y35473D01*
X2098932Y35473D01*
X2086747Y23287D01*
X2073448D01*
X2073204Y24456D01*
X2073204Y24557D01*
Y27686D01*
X2069004D01*
Y28956D01*
X2067734D01*
Y33456D01*
X2065549D01*
X2064804Y33456D01*
X2063629Y33226D01*
X2056434D01*
Y32199D01*
X2055164Y31520D01*
X2054581Y31909D01*
X2053750Y32075D01*
Y36158D01*
X2086609D01*
X2086809Y35149D01*
X2087643Y33902D01*
X2088890Y33069D01*
X2090361Y32776D01*
X2091832Y33069D01*
X2093079Y33902D01*
X2093912Y35149D01*
X2094205Y36620D01*
X2093912Y38091D01*
X2093079Y39338D01*
X2091832Y40171D01*
X2090361Y40464D01*
X2088890Y40171D01*
X2088726Y40062D01*
X2088603Y40144D01*
X2087811Y40301D01*
X2087810Y40301D01*
X2058695D01*
X2058309Y41571D01*
X2058599Y41765D01*
X2060640Y43806D01*
X2061402Y43654D01*
X2062873Y43947D01*
X2064120Y44780D01*
X2064953Y46027D01*
X2065246Y47498D01*
X2064953Y48969D01*
X2064642Y49435D01*
X2065321Y50705D01*
X2066539D01*
X2067394Y49426D01*
X2068723Y48537D01*
X2070292Y48225D01*
X2071861Y48537D01*
X2073190Y49426D01*
X2074079Y50756D01*
X2074391Y52324D01*
X2074079Y53893D01*
X2073212Y55190D01*
X2073249Y55391D01*
X2073624Y56460D01*
X2077762D01*
X2078431Y55416D01*
X2078408Y55190D01*
X2078126Y53770D01*
X2078419Y52299D01*
X2079252Y51052D01*
X2080499Y50219D01*
X2081970Y49926D01*
X2083441Y50219D01*
X2084688Y51052D01*
X2085521Y52299D01*
X2085814Y53770D01*
X2085632Y54685D01*
X2086446Y55933D01*
X2087189Y56018D01*
X2090902Y52305D01*
X2090902Y52305D01*
X2091574Y51856D01*
X2092367Y51698D01*
X2092367Y51698D01*
X2133679D01*
X2134111Y51052D01*
X2135358Y50219D01*
X2136829Y49926D01*
X2138300Y50219D01*
X2139547Y51052D01*
X2140380Y52299D01*
X2140673Y53770D01*
X2140380Y55241D01*
X2139547Y56488D01*
X2138300Y57321D01*
X2136829Y57614D01*
X2135358Y57321D01*
X2134111Y56488D01*
X2133679Y55842D01*
X2093225D01*
X2090330Y58737D01*
X2090816Y59910D01*
X2115530D01*
X2116582Y59207D01*
X2118053Y58914D01*
X2119525Y59207D01*
X2120771Y60040D01*
X2120857Y60168D01*
X2137859D01*
X2159106Y38921D01*
D02*
G37*
G36*
X2701577Y64920D02*
X2695442Y58785D01*
X2680961D01*
X2680656Y58846D01*
X2670021D01*
X2669342Y60116D01*
X2669568Y60454D01*
X2669861Y61925D01*
X2669568Y63396D01*
X2668735Y64643D01*
X2668466Y64823D01*
X2668852Y66093D01*
X2701090D01*
X2701577Y64920D01*
D02*
G37*
G36*
X1723876Y61701D02*
X1724548Y61252D01*
X1725341Y61094D01*
X1725341Y61094D01*
X1871521D01*
X1871522Y61094D01*
X1872314Y61252D01*
X1872987Y61701D01*
X1874301Y63015D01*
X1875426Y62484D01*
X1875568Y61342D01*
X1872673Y58446D01*
X1617741D01*
X1612325Y63862D01*
X1612811Y65036D01*
X1720392Y65185D01*
X1723876Y61701D01*
D02*
G37*
G36*
X1887969Y64147D02*
X1887671Y63701D01*
X1887378Y62230D01*
X1887671Y60759D01*
X1887767Y60616D01*
X1864723Y37572D01*
X1571263D01*
X1571180Y38842D01*
X1571479Y38881D01*
X1574237Y40023D01*
X1575519Y41007D01*
X1575642Y41090D01*
X1575659Y41115D01*
X1575847Y41259D01*
X1575850Y41260D01*
X1575855Y41265D01*
X1576604Y41840D01*
X1577179Y42590D01*
X1577243Y42653D01*
X1577261Y42695D01*
X1577361Y42826D01*
X1577414Y42862D01*
X1577589Y43124D01*
X1578421Y44208D01*
X1579563Y46965D01*
X1579692Y47944D01*
X1579852Y48747D01*
X1579825Y48885D01*
X1579878Y49015D01*
Y49358D01*
X1579953Y49924D01*
X1579878Y50491D01*
Y50985D01*
X1579825Y51115D01*
X1579852Y51253D01*
X1579633Y52352D01*
X1579563Y52884D01*
X1579495Y53050D01*
X1579468Y53185D01*
X1579391Y53300D01*
X1579389Y53304D01*
Y53443D01*
X1578636Y55263D01*
X1578537Y55361D01*
X1578536Y55365D01*
X1578509Y55500D01*
X1578432Y55615D01*
X1578421Y55641D01*
X1578371Y55706D01*
X1577414Y57138D01*
X1577297Y57217D01*
X1577243Y57347D01*
X1576681Y57909D01*
X1576604Y58009D01*
X1576505Y58085D01*
X1575850Y58740D01*
X1575720Y58794D01*
X1575642Y58910D01*
X1574004Y60005D01*
X1573866Y60032D01*
X1573767Y60132D01*
X1571947Y60886D01*
X1571806D01*
X1571689Y60964D01*
X1569757Y61348D01*
X1569619Y61321D01*
X1569489Y61375D01*
X1567519D01*
X1567389Y61321D01*
X1567251Y61348D01*
X1565319Y60964D01*
X1565202Y60886D01*
X1565061D01*
X1563241Y60132D01*
X1563141Y60032D01*
X1563003Y60005D01*
X1561365Y58910D01*
X1561287Y58794D01*
X1561157Y58740D01*
X1559764Y57347D01*
X1559710Y57217D01*
X1559593Y57138D01*
X1558499Y55500D01*
X1558471Y55362D01*
X1558372Y55263D01*
X1557618Y53443D01*
Y53302D01*
X1557540Y53185D01*
X1557482Y52897D01*
X1557477Y52884D01*
X1557471Y52841D01*
X1557155Y51253D01*
X1557183Y51115D01*
X1557129Y50985D01*
Y50241D01*
X1557087Y49924D01*
X1557129Y49608D01*
Y49015D01*
X1557183Y48885D01*
X1557155Y48747D01*
X1557413Y47455D01*
X1557477Y46965D01*
X1557618Y46625D01*
Y46557D01*
X1558372Y44737D01*
X1558420Y44689D01*
X1558619Y44208D01*
X1559196Y43456D01*
X1559593Y42862D01*
X1559710Y42783D01*
X1559764Y42653D01*
X1559970Y42448D01*
X1560436Y41840D01*
X1561044Y41374D01*
X1561157Y41260D01*
X1561232Y41230D01*
X1561314Y41167D01*
X1561365Y41090D01*
X1561743Y40837D01*
X1562804Y40023D01*
X1565561Y38881D01*
X1565861Y38842D01*
X1565777Y37572D01*
X815178D01*
X814990Y38842D01*
X815303Y38936D01*
X815459Y38957D01*
X815619Y39023D01*
X815685Y39036D01*
X815727Y39064D01*
X815893Y39114D01*
X815943D01*
X817763Y39868D01*
X817836Y39941D01*
X817934Y39982D01*
X818000Y39995D01*
X818057Y40033D01*
X818216Y40099D01*
X818625Y40413D01*
X819638Y41090D01*
X819717Y41207D01*
X819847Y41260D01*
X820231Y41644D01*
X820584Y41916D01*
X820856Y42269D01*
X821239Y42653D01*
X821293Y42783D01*
X821411Y42862D01*
X822087Y43875D01*
X822401Y44284D01*
X822467Y44443D01*
X822505Y44500D01*
X822518Y44566D01*
X822559Y44664D01*
X822632Y44737D01*
X823386Y46557D01*
Y46661D01*
X823426Y46759D01*
X823464Y46815D01*
X823477Y46881D01*
X823543Y47041D01*
X823611Y47552D01*
X823848Y48747D01*
X823821Y48885D01*
X823875Y49015D01*
Y49558D01*
X823933Y50000D01*
X823875Y50442D01*
Y50985D01*
X823821Y51115D01*
X823848Y51253D01*
X823611Y52448D01*
X823543Y52959D01*
X823477Y53119D01*
X823464Y53185D01*
X823426Y53241D01*
X823386Y53339D01*
Y53443D01*
X822632Y55263D01*
X822559Y55336D01*
X822518Y55434D01*
X822505Y55500D01*
X822467Y55557D01*
X822401Y55716D01*
X822087Y56125D01*
X821411Y57138D01*
X821293Y57217D01*
X821239Y57347D01*
X820856Y57730D01*
X820584Y58084D01*
X820230Y58356D01*
X819847Y58740D01*
X819716Y58793D01*
X819638Y58910D01*
X818625Y59587D01*
X818216Y59901D01*
X818057Y59967D01*
X818000Y60005D01*
X817934Y60018D01*
X817836Y60059D01*
X817763Y60132D01*
X815943Y60886D01*
X815839D01*
X815741Y60926D01*
X815685Y60964D01*
X815619Y60977D01*
X815459Y61043D01*
X814948Y61111D01*
X813753Y61348D01*
X813615Y61321D01*
X813485Y61375D01*
X812942D01*
X812500Y61433D01*
X812058Y61375D01*
X811515D01*
X811385Y61321D01*
X811247Y61348D01*
X810052Y61111D01*
X809541Y61043D01*
X809381Y60977D01*
X809315Y60964D01*
X809258Y60926D01*
X809161Y60886D01*
X809057D01*
X807237Y60132D01*
X807164Y60059D01*
X807066Y60018D01*
X807000Y60005D01*
X806943Y59967D01*
X806784Y59901D01*
X806375Y59587D01*
X805362Y58910D01*
X805283Y58793D01*
X805153Y58740D01*
X804769Y58356D01*
X804416Y58084D01*
X804144Y57731D01*
X803760Y57347D01*
X803707Y57217D01*
X803589Y57138D01*
X802913Y56125D01*
X802599Y55716D01*
X802533Y55557D01*
X802495Y55500D01*
X802482Y55434D01*
X802441Y55336D01*
X802368Y55263D01*
X801614Y53443D01*
Y53339D01*
X801574Y53242D01*
X801536Y53185D01*
X801523Y53119D01*
X801457Y52959D01*
X801389Y52448D01*
X801152Y51253D01*
X801179Y51115D01*
X801125Y50985D01*
Y50442D01*
X801067Y50000D01*
X801125Y49558D01*
Y49015D01*
X801179Y48885D01*
X801152Y48747D01*
X801389Y47551D01*
X801457Y47041D01*
X801523Y46881D01*
X801536Y46815D01*
X801574Y46758D01*
X801614Y46661D01*
Y46557D01*
X802368Y44737D01*
X802441Y44664D01*
X802482Y44566D01*
X802495Y44500D01*
X802533Y44443D01*
X802599Y44284D01*
X802912Y43875D01*
X803589Y42862D01*
X803707Y42783D01*
X803760Y42653D01*
X804145Y42269D01*
X804416Y41916D01*
X804769Y41645D01*
X805153Y41260D01*
X805283Y41206D01*
X805362Y41090D01*
X806375Y40412D01*
X806784Y40099D01*
X806943Y40033D01*
X807000Y39995D01*
X807066Y39982D01*
X807164Y39941D01*
X807237Y39868D01*
X809057Y39114D01*
X809107D01*
X809273Y39064D01*
X809315Y39036D01*
X809381Y39023D01*
X809541Y38957D01*
X809697Y38936D01*
X810010Y38842D01*
X809822Y37572D01*
X806858D01*
X802465Y41965D01*
X801793Y42414D01*
X801000Y42572D01*
X801000Y42572D01*
X799690D01*
Y48270D01*
X797492D01*
Y58697D01*
X801664Y62870D01*
X823681D01*
X832694Y53857D01*
Y49323D01*
X832048Y48891D01*
X831215Y47644D01*
X830922Y46173D01*
X831215Y44702D01*
X832048Y43455D01*
X833295Y42622D01*
X834766Y42329D01*
X836237Y42622D01*
X837484Y43455D01*
X838317Y44702D01*
X838610Y46173D01*
X838317Y47644D01*
X837484Y48891D01*
X836837Y49323D01*
Y50757D01*
X838108Y51142D01*
X838653Y50325D01*
X839901Y49492D01*
X841353Y49203D01*
X841395Y49138D01*
X841833Y47996D01*
X841573Y47822D01*
X840740Y46575D01*
X840447Y45104D01*
X840740Y43633D01*
X841573Y42386D01*
X842820Y41553D01*
X844291Y41260D01*
X845762Y41553D01*
X847009Y42386D01*
X847842Y43633D01*
X848135Y45104D01*
X847936Y46107D01*
X849106Y46733D01*
X852859Y42979D01*
X853531Y42530D01*
X854324Y42372D01*
X854324Y42372D01*
X1534295D01*
X1534295Y42372D01*
X1535088Y42530D01*
X1535760Y42979D01*
X1557740Y64959D01*
X1605302Y65025D01*
X1615417Y54910D01*
X1615417Y54910D01*
X1616090Y54461D01*
X1616882Y54303D01*
X1873531D01*
X1873531Y54303D01*
X1874324Y54461D01*
X1874996Y54910D01*
X1878624Y58538D01*
X1879386Y58386D01*
X1880857Y58679D01*
X1882104Y59512D01*
X1882937Y60759D01*
X1883230Y62230D01*
X1882937Y63701D01*
X1882644Y64140D01*
X1883322Y65411D01*
X1887289Y65416D01*
X1887969Y64147D01*
D02*
G37*
G36*
X2781528Y64823D02*
X2781426Y64309D01*
X2781708Y62888D01*
X2781731Y62663D01*
X2781062Y61618D01*
X2779195D01*
X2779194Y61618D01*
X2778401Y61461D01*
X2777729Y61012D01*
X2777729Y61012D01*
X2772176Y55458D01*
X2768801D01*
X2768111Y55321D01*
X2767525Y54930D01*
X2767134Y54344D01*
X2766996Y53653D01*
Y52346D01*
X2763176D01*
Y53653D01*
X2763039Y54344D01*
X2762647Y54930D01*
X2762062Y55321D01*
X2761371Y55458D01*
X2757371D01*
X2756681Y55321D01*
X2756095Y54930D01*
X2755704Y54344D01*
X2755566Y53653D01*
Y49349D01*
X2754371Y48154D01*
Y44153D01*
X2755332Y43193D01*
Y42424D01*
X2759371D01*
X2763410D01*
Y43193D01*
X2764371Y44153D01*
Y48153D01*
X2764391Y48202D01*
X2765781D01*
X2765801Y48154D01*
Y44153D01*
X2766996Y42958D01*
Y38654D01*
X2767134Y37963D01*
X2767525Y37377D01*
X2767987Y36700D01*
X2767637Y35891D01*
X2767250Y35312D01*
X2766957Y33841D01*
X2767250Y32370D01*
X2768083Y31123D01*
X2769330Y30290D01*
X2770801Y29997D01*
X2772272Y30290D01*
X2773519Y31123D01*
X2774352Y32370D01*
X2774645Y33841D01*
X2774352Y35312D01*
X2773965Y35891D01*
X2773615Y36700D01*
X2774077Y37377D01*
X2774468Y37963D01*
X2774486Y38050D01*
X2775055Y39082D01*
X2775847Y39239D01*
X2776519Y39688D01*
X2778058Y41227D01*
X2778654Y41168D01*
X2779240Y40777D01*
X2779930Y40640D01*
X2780358D01*
Y36341D01*
X2780358Y36341D01*
X2780516Y35548D01*
X2780965Y34876D01*
X2782346Y33495D01*
X2781820Y32225D01*
X2781555D01*
X2780620Y32039D01*
X2779828Y31510D01*
X2779299Y30717D01*
X2779113Y29783D01*
Y27980D01*
X2749215D01*
X2748427Y28988D01*
Y32988D01*
X2747734Y33681D01*
Y38388D01*
X2747589Y39118D01*
X2747176Y39736D01*
X2746557Y40149D01*
X2745865Y40287D01*
Y54278D01*
X2745897D01*
X2746587Y54416D01*
X2747173Y54807D01*
X2747564Y55392D01*
X2747701Y56083D01*
Y60083D01*
X2747564Y60774D01*
X2747335Y61116D01*
X2747619Y61992D01*
X2747897Y62386D01*
X2762872D01*
X2763884Y61683D01*
X2764177Y60212D01*
X2765010Y58965D01*
X2766257Y58132D01*
X2767728Y57839D01*
X2769199Y58132D01*
X2770446Y58965D01*
X2771279Y60212D01*
X2771572Y61683D01*
X2771279Y63154D01*
X2770446Y64401D01*
X2769814Y64823D01*
X2770199Y66093D01*
X2780517D01*
X2781528Y64823D01*
D02*
G37*
G36*
X2849311Y65370D02*
X2849541Y64823D01*
X2849423Y64230D01*
Y63500D01*
X2853962D01*
Y62230D01*
X2855232D01*
Y58191D01*
X2856001D01*
X2856962Y57230D01*
X2860962D01*
X2861058Y57190D01*
Y55460D01*
X2860160Y54562D01*
X2858708Y54562D01*
X2857768Y54562D01*
X2850438D01*
Y54425D01*
X2849568Y54064D01*
X2849168Y53978D01*
X2847995Y54762D01*
X2846524Y55055D01*
X2845053Y54762D01*
X2843806Y53929D01*
X2842973Y52682D01*
X2842680Y51211D01*
X2842973Y49740D01*
X2843806Y48493D01*
X2845053Y47660D01*
X2846524Y47367D01*
X2847995Y47660D01*
X2848746Y48162D01*
X2850438D01*
Y46022D01*
X2858708Y46022D01*
X2859648Y46022D01*
X2864055D01*
X2864541Y44849D01*
X2861797Y42105D01*
X2860662Y42693D01*
X2860255Y43100D01*
X2856255D01*
X2855294Y42139D01*
X2854525D01*
Y38100D01*
Y34061D01*
X2855294D01*
X2856255Y33100D01*
X2860255D01*
X2861070Y32762D01*
Y32134D01*
X2859940Y31202D01*
X2856255D01*
X2855294Y30241D01*
X2854525D01*
Y26202D01*
X2853255D01*
Y24932D01*
X2848716D01*
Y24202D01*
X2848774Y23908D01*
X2848203Y22962D01*
X2847824Y22702D01*
X2847571Y22652D01*
X2846172Y23557D01*
X2846099Y24051D01*
X2846423Y24375D01*
X2846872Y25047D01*
X2847030Y25840D01*
X2847030Y25840D01*
Y31201D01*
X2847030Y31202D01*
X2846872Y31994D01*
X2846423Y32666D01*
X2846423Y32667D01*
X2832078Y47012D01*
Y51714D01*
X2832724Y52146D01*
X2833557Y53393D01*
X2833850Y54864D01*
X2833557Y56335D01*
X2833125Y56983D01*
X2834111Y57792D01*
X2834580Y57323D01*
X2838581D01*
X2839541Y58284D01*
X2840310D01*
Y62323D01*
X2841581D01*
Y63593D01*
X2846120D01*
Y64323D01*
X2846020Y64823D01*
X2846520Y65739D01*
X2846830Y66093D01*
X2848774D01*
X2849311Y65370D01*
D02*
G37*
G36*
X2651827Y65853D02*
X2653074Y65020D01*
X2654202Y64796D01*
X2654334Y64616D01*
X2654633Y63796D01*
X2654660Y63508D01*
X2648102Y56950D01*
X2618446D01*
X2618061Y58220D01*
X2618508Y58518D01*
X2619341Y59765D01*
X2619633Y61236D01*
X2619341Y62707D01*
X2618508Y63954D01*
X2617261Y64788D01*
X2617082Y64823D01*
X2617207Y66093D01*
X2651667D01*
X2651827Y65853D01*
D02*
G37*
G36*
X2375398Y66093D02*
X2614373D01*
X2614498Y64823D01*
X2614319Y64788D01*
X2613072Y63954D01*
X2612238Y62707D01*
X2611946Y61236D01*
X2612238Y59765D01*
X2613072Y58518D01*
X2613518Y58220D01*
X2613133Y56950D01*
X2292511D01*
X2292045Y57535D01*
X2292353Y58994D01*
X2293129Y59512D01*
X2293962Y60759D01*
X2294254Y62230D01*
X2293962Y63701D01*
X2293129Y64948D01*
X2292790Y65174D01*
X2293175Y66444D01*
X2375398D01*
Y66093D01*
D02*
G37*
G36*
X766320Y64858D02*
Y61770D01*
X770520D01*
Y59230D01*
X766320D01*
Y56684D01*
X765294Y56312D01*
X765050Y56265D01*
X763761Y57127D01*
X762192Y57439D01*
X760623Y57127D01*
X759294Y56238D01*
X758405Y54909D01*
X758093Y53340D01*
X758405Y51771D01*
X759294Y50442D01*
X759861Y50062D01*
X759839Y49755D01*
X759480Y48790D01*
X758205Y48537D01*
X756876Y47648D01*
X755987Y46319D01*
X755675Y44750D01*
X755987Y43182D01*
X756055Y43080D01*
X755376Y41810D01*
X747155D01*
X746887Y43156D01*
X746054Y44403D01*
X744807Y45237D01*
X744465Y45304D01*
X744047Y46683D01*
X762226Y64861D01*
X766320Y64858D01*
D02*
G37*
G36*
X2954334Y65624D02*
X2954581Y64823D01*
X2953894Y63794D01*
X2953601Y62323D01*
X2953894Y60852D01*
X2954727Y59605D01*
X2955974Y58772D01*
X2957445Y58479D01*
X2958916Y58772D01*
X2960163Y59605D01*
X2960594Y60251D01*
X2962686D01*
Y59830D01*
X2962831Y59100D01*
X2963244Y58482D01*
X2963862Y58069D01*
X2964592Y57923D01*
X2969299D01*
X2969992Y57230D01*
X2973992D01*
X2974685Y57923D01*
X2979392D01*
X2980121Y58069D01*
X2980740Y58482D01*
X2981154Y59100D01*
X2981206Y59367D01*
X2986788D01*
X2987056Y58965D01*
X2988304Y58132D01*
X2989774Y57839D01*
X2989926Y57869D01*
X2994179Y53616D01*
X2993653Y52346D01*
X2959637D01*
X2947160Y64823D01*
X2947686Y66093D01*
X2954019D01*
X2954334Y65624D01*
D02*
G37*
G36*
X146349Y165623D02*
X146349Y65269D01*
X242658Y65205D01*
X251828Y56035D01*
X251828Y56035D01*
X252500Y55586D01*
X253293Y55428D01*
X253293Y55428D01*
X611470D01*
X611470Y55428D01*
X612263Y55586D01*
X612935Y56035D01*
X621854Y64954D01*
X640750Y64941D01*
Y64730D01*
X641670D01*
Y63400D01*
X637440D01*
Y60500D01*
Y57600D01*
X641670D01*
Y54270D01*
X655920D01*
X670170D01*
Y57830D01*
X681190D01*
Y58428D01*
X734306D01*
X734306Y58428D01*
X735099Y58586D01*
X735771Y59035D01*
X741610Y64875D01*
X742965Y64874D01*
X743451Y63700D01*
X730838Y51087D01*
X703430D01*
X703430Y51087D01*
X702637Y50929D01*
X701965Y50480D01*
X700913Y49428D01*
X699740Y49914D01*
Y51231D01*
X695540D01*
Y52501D01*
X694270D01*
Y57000D01*
X691340D01*
Y57000D01*
X690910Y56770D01*
X682970D01*
Y48230D01*
X684350D01*
Y44726D01*
X684338Y44718D01*
X684330Y44706D01*
X681190D01*
Y48170D01*
X670170D01*
Y51730D01*
X655920D01*
X641670D01*
Y48170D01*
X630650D01*
Y47572D01*
X627092D01*
X626818Y47981D01*
X625571Y48815D01*
X624100Y49107D01*
X622629Y48815D01*
X621382Y47981D01*
X620549Y46734D01*
X620257Y45263D01*
X620549Y43792D01*
X621382Y42545D01*
X622629Y41712D01*
X624100Y41419D01*
X625571Y41712D01*
X626818Y42545D01*
X627408Y43428D01*
X630650D01*
Y42830D01*
X641670D01*
Y41270D01*
X640750D01*
Y37822D01*
X635987D01*
X635987Y37822D01*
X635194Y37664D01*
X634522Y37215D01*
X631416Y34109D01*
X630966Y33437D01*
X630809Y32644D01*
X630809Y32644D01*
Y28258D01*
X630163Y27827D01*
X629329Y26580D01*
X629037Y25109D01*
X629329Y23638D01*
X630163Y22390D01*
X630166Y22388D01*
X629781Y21118D01*
X625862D01*
X606515Y40465D01*
X605843Y40914D01*
X605050Y41072D01*
X605050Y41072D01*
X517854D01*
X517302Y41898D01*
X515972Y42787D01*
X514403Y43099D01*
X512835Y42787D01*
X511505Y41898D01*
X510617Y40569D01*
X510305Y39000D01*
X510617Y37432D01*
X511505Y36102D01*
X512835Y35213D01*
X514403Y34901D01*
X515972Y35213D01*
X517302Y36102D01*
X517854Y36928D01*
X604192D01*
X623539Y17581D01*
X623539Y17581D01*
X624211Y17132D01*
X625004Y16975D01*
X625004Y16975D01*
X681491D01*
X682018Y15704D01*
X681025Y14712D01*
X620475D01*
X602459Y32728D01*
X601787Y33177D01*
X600994Y33335D01*
X600994Y33335D01*
X495454D01*
X495454Y33335D01*
X494661Y33177D01*
X493989Y32728D01*
X486929Y25668D01*
X323291D01*
X322860Y26314D01*
X321613Y27147D01*
X320142Y27440D01*
X318671Y27147D01*
X317424Y26314D01*
X316590Y25067D01*
X316298Y23596D01*
X316590Y22125D01*
X317316Y21039D01*
X317132Y20362D01*
X316797Y19769D01*
X240991D01*
X234153Y26607D01*
X233480Y27056D01*
X232688Y27214D01*
X232687Y27214D01*
X193027D01*
Y27542D01*
X192882Y28272D01*
X192468Y28890D01*
X191850Y29303D01*
X191120Y29448D01*
X186413D01*
X185720Y30142D01*
X181720D01*
X181027Y29448D01*
X176320D01*
X175590Y29303D01*
X174972Y28890D01*
X174559Y28272D01*
X174414Y27542D01*
Y22742D01*
X174559Y22012D01*
X174972Y21394D01*
X175418Y21095D01*
Y15270D01*
X171720D01*
Y3730D01*
X179010D01*
X179640Y2460D01*
X179067Y1706D01*
X179012Y1497D01*
X178964Y1444D01*
X3823D01*
X2925Y2342D01*
X2996Y165623D01*
X146349Y165623D01*
D02*
G37*
G36*
X3736282Y51886D02*
X3737178Y51287D01*
X3736793Y50017D01*
X3582025D01*
X3581640Y51287D01*
X3582545Y51892D01*
X3582976Y52538D01*
X3735846D01*
X3736282Y51886D01*
D02*
G37*
G36*
X2165350Y61701D02*
X2165350Y61701D01*
X2166022Y61252D01*
X2166815Y61094D01*
X2180339D01*
X2180533Y60847D01*
X2180902Y59824D01*
X2180267Y58875D01*
X2179975Y57404D01*
X2180267Y55933D01*
X2181101Y54686D01*
X2182348Y53853D01*
X2183819Y53560D01*
X2185290Y53853D01*
X2186537Y54686D01*
X2187370Y55933D01*
X2187541Y56792D01*
X2213112D01*
X2213780Y55748D01*
X2213758Y55522D01*
X2213476Y54102D01*
X2213768Y52631D01*
X2214601Y51384D01*
X2215849Y50551D01*
X2217319Y50258D01*
X2218790Y50551D01*
X2220038Y51384D01*
X2220871Y52631D01*
X2221163Y54102D01*
X2220881Y55522D01*
X2220859Y55748D01*
X2221527Y56792D01*
X2286184D01*
X2289563Y53413D01*
X2289563Y53413D01*
X2290235Y52964D01*
X2291028Y52806D01*
X2291028Y52806D01*
X2381558D01*
X2382226Y51762D01*
X2382204Y51536D01*
X2381922Y50116D01*
X2382204Y48696D01*
X2382226Y48470D01*
X2381558Y47426D01*
X2181220D01*
X2175307Y53340D01*
X2175458Y54102D01*
X2175166Y55573D01*
X2174332Y56820D01*
X2173085Y57653D01*
X2171614Y57946D01*
X2170143Y57653D01*
X2168896Y56820D01*
X2168063Y55573D01*
X2167770Y54102D01*
X2168063Y52631D01*
X2168896Y51384D01*
X2170143Y50551D01*
X2171614Y50258D01*
X2172377Y50410D01*
X2178897Y43889D01*
X2178897Y43889D01*
X2179569Y43440D01*
X2180362Y43282D01*
X2658952D01*
X2658952Y43282D01*
X2659745Y43440D01*
X2660417Y43889D01*
X2665442Y48914D01*
X2671931D01*
X2672362Y48268D01*
X2673610Y47435D01*
X2675081Y47142D01*
X2676552Y47435D01*
X2677798Y48268D01*
X2678632Y49515D01*
X2678924Y50986D01*
X2678644Y52396D01*
X2678630Y52620D01*
X2679284Y53666D01*
X2680413D01*
X2680717Y53606D01*
X2695442D01*
X2707183Y41864D01*
X2707139Y41616D01*
X2706168Y40529D01*
X2705038D01*
Y35988D01*
X2703768D01*
Y34718D01*
X2699227D01*
Y33588D01*
X2699250Y33470D01*
X2698768Y32988D01*
Y29334D01*
X2697706Y28485D01*
X2696666Y28677D01*
X2696449Y29202D01*
Y33201D01*
X2695488Y34162D01*
Y34931D01*
X2687410D01*
Y34162D01*
X2686449Y33202D01*
Y29202D01*
X2686342Y28942D01*
X2686022D01*
X2684859Y30168D01*
Y33202D01*
X2683899Y34162D01*
Y34932D01*
X2675820D01*
Y34162D01*
X2674859Y33202D01*
Y29202D01*
X2676055Y28006D01*
Y23702D01*
X2676192Y23011D01*
X2676583Y22425D01*
X2677169Y22034D01*
X2677859Y21897D01*
X2681859D01*
X2682550Y22034D01*
X2683135Y22425D01*
X2683527Y23011D01*
X2683664Y23702D01*
Y24130D01*
X2687644D01*
Y23702D01*
X2687782Y23011D01*
X2688173Y22425D01*
X2688759Y22034D01*
X2689449Y21897D01*
X2693449D01*
X2694140Y22034D01*
X2694725Y22425D01*
X2695116Y23011D01*
X2695254Y23702D01*
Y24130D01*
X2699461D01*
Y23588D01*
X2699607Y22858D01*
X2700020Y22240D01*
X2700638Y21827D01*
X2701368Y21681D01*
X2706168D01*
X2706898Y21827D01*
X2707516Y22240D01*
X2707929Y22858D01*
X2708075Y23588D01*
Y23916D01*
X2712415D01*
Y23588D01*
X2712560Y22858D01*
X2712974Y22240D01*
X2713593Y21827D01*
X2714322Y21681D01*
X2719122D01*
X2719852Y21827D01*
X2720470Y22240D01*
X2720883Y22858D01*
X2721029Y23588D01*
Y23916D01*
X2725429D01*
Y23588D01*
X2725574Y22858D01*
X2725988Y22240D01*
X2726606Y21827D01*
X2727336Y21681D01*
X2732136D01*
X2732865Y21827D01*
X2733484Y22240D01*
X2733897Y22858D01*
X2734042Y23588D01*
Y28295D01*
X2734736Y28988D01*
Y32988D01*
X2735604Y33916D01*
X2737560D01*
X2738427Y32988D01*
Y28988D01*
X2739121Y28295D01*
Y23588D01*
X2739266Y22858D01*
X2739679Y22240D01*
X2740298Y21827D01*
X2741028Y21681D01*
X2745828D01*
X2746557Y21827D01*
X2747176Y22240D01*
X2747589Y22858D01*
X2747734Y23588D01*
Y23836D01*
X2779113D01*
Y22033D01*
X2779299Y21099D01*
X2779828Y20306D01*
X2780620Y19777D01*
X2781555Y19591D01*
X2788305D01*
X2788674Y19664D01*
X2789430Y18908D01*
X2797430D01*
X2798186Y19664D01*
X2798555Y19591D01*
X2805305D01*
X2806240Y19777D01*
X2807032Y20306D01*
X2807561Y21099D01*
X2807747Y22033D01*
Y23836D01*
X2809593D01*
Y22033D01*
X2809779Y21099D01*
X2810308Y20306D01*
X2811100Y19777D01*
X2812035Y19591D01*
X2818785D01*
X2819154Y19664D01*
X2819910Y18908D01*
X2821838D01*
Y16794D01*
X2821838Y16794D01*
X2821996Y16001D01*
X2822445Y15329D01*
X2823296Y14478D01*
X2823144Y13716D01*
X2823437Y12245D01*
X2824270Y10998D01*
X2825517Y10165D01*
X2826988Y9872D01*
X2828459Y10165D01*
X2829706Y10998D01*
X2830539Y12245D01*
X2830832Y13716D01*
X2830539Y15187D01*
X2829706Y16434D01*
X2828459Y17267D01*
X2828166Y17326D01*
X2827413Y18770D01*
X2827474Y18908D01*
X2827910D01*
X2828666Y19664D01*
X2829035Y19591D01*
X2835785D01*
X2836719Y19777D01*
X2837512Y20306D01*
X2838041Y21099D01*
X2838227Y22033D01*
Y23914D01*
X2839497Y24839D01*
X2840053Y24729D01*
X2840256Y24637D01*
X2841242Y23613D01*
Y12200D01*
X2841242Y12200D01*
X2841400Y11407D01*
X2841848Y10735D01*
X2847559Y5025D01*
X2847559Y5025D01*
X2848231Y4576D01*
X2849024Y4418D01*
X2849024Y4418D01*
X2864935D01*
X2864935Y4418D01*
X2865728Y4576D01*
X2866400Y5025D01*
X2870258Y8883D01*
X2871432Y8397D01*
Y7394D01*
X2871587Y6613D01*
X2872029Y5952D01*
X2872690Y5510D01*
X2873471Y5354D01*
X2874701D01*
Y9394D01*
X2877241D01*
Y5354D01*
X2878010D01*
X2878971Y4394D01*
X2882971D01*
X2884166Y5589D01*
X2888471D01*
X2889161Y5726D01*
X2889747Y6118D01*
X2890138Y6703D01*
X2890251Y7273D01*
X2894608D01*
X2894731Y6654D01*
X2895122Y6069D01*
X2895707Y5677D01*
X2896398Y5540D01*
X2900703D01*
X2901898Y4345D01*
X2905898D01*
X2906859Y5306D01*
X2907628D01*
Y9345D01*
X2910168D01*
Y5306D01*
X2911398D01*
X2912178Y5461D01*
X2912466Y5653D01*
X2912853Y5642D01*
X2913720Y5443D01*
X2913972Y5311D01*
X2914601Y4369D01*
X2915848Y3536D01*
X2917320Y3244D01*
X2918791Y3536D01*
X2920038Y4369D01*
X2920286Y4741D01*
X2920948Y4609D01*
X2925654D01*
X2926348Y3916D01*
X2930348D01*
X2931041Y4609D01*
X2935748D01*
X2936477Y4755D01*
X2937096Y5168D01*
X2937509Y5786D01*
X2937654Y6516D01*
Y6844D01*
X2939632D01*
Y3730D01*
X2947012D01*
X2947640Y2460D01*
X2947080Y1729D01*
X2947025Y1520D01*
X2946955Y1444D01*
X2780418D01*
X2779840Y2365D01*
X2780228Y3108D01*
Y9500D01*
Y15500D01*
X2778901D01*
X2778497Y16255D01*
X2778338Y16770D01*
X2778599Y18083D01*
X2778306Y19554D01*
X2777473Y20801D01*
X2776226Y21634D01*
X2774755Y21927D01*
X2773284Y21634D01*
X2772037Y20801D01*
X2771606Y20155D01*
X2665556D01*
X2655895Y29815D01*
X2655223Y30264D01*
X2654430Y30422D01*
X2654430Y30422D01*
X2526133D01*
X2525454Y31692D01*
X2525567Y31860D01*
X2525859Y33331D01*
X2525567Y34802D01*
X2524733Y36049D01*
X2525150Y37298D01*
X2657697D01*
X2662325Y32670D01*
X2662173Y31908D01*
X2662466Y30437D01*
X2663299Y29190D01*
X2664546Y28357D01*
X2666017Y28064D01*
X2667488Y28357D01*
X2668735Y29190D01*
X2669568Y30437D01*
X2669861Y31908D01*
X2669568Y33379D01*
X2668735Y34626D01*
X2667488Y35459D01*
X2666017Y35752D01*
X2665255Y35600D01*
X2660020Y40835D01*
X2659348Y41284D01*
X2658555Y41442D01*
X2658555Y41442D01*
X2177950D01*
X2177518Y42088D01*
X2176271Y42921D01*
X2174800Y43214D01*
X2173329Y42921D01*
X2172082Y42088D01*
X2171249Y40841D01*
X2170957Y39370D01*
X2171249Y37899D01*
X2171616Y37350D01*
X2170937Y36080D01*
X2167127D01*
X2166459Y37124D01*
X2166481Y37350D01*
X2166764Y38770D01*
X2166471Y40241D01*
X2165638Y41488D01*
X2164391Y42321D01*
X2162920Y42614D01*
X2162769Y42584D01*
X2140854Y64498D01*
X2140894Y64885D01*
X2141284Y65768D01*
X2161255Y65796D01*
X2165350Y61701D01*
D02*
G37*
G36*
X754712Y64866D02*
X755197Y63692D01*
X735809Y44304D01*
X703309D01*
X702823Y45478D01*
X704288Y46943D01*
X731696D01*
X731696Y46943D01*
X732489Y47101D01*
X733161Y47550D01*
X750480Y64869D01*
X754712Y64866D01*
D02*
G37*
G36*
X1960693Y64248D02*
X1960478Y63166D01*
X1960771Y61695D01*
X1961604Y60448D01*
X1962851Y59615D01*
X1964322Y59322D01*
X1965793Y59615D01*
X1967040Y60448D01*
X1967471Y61094D01*
X1972520D01*
X1973597Y60000D01*
X1973909Y58431D01*
X1974798Y57102D01*
X1976127Y56213D01*
X1977696Y55901D01*
X1979265Y56213D01*
X1980594Y57102D01*
X1981483Y58431D01*
X1981676Y59402D01*
X1983297Y61023D01*
X2014539D01*
X2015208Y59979D01*
X2015185Y59753D01*
X2014903Y58333D01*
X2015195Y56862D01*
X2015733Y56057D01*
X2015156Y54787D01*
X1987302D01*
X1987094Y55098D01*
X1985765Y55987D01*
X1984196Y56299D01*
X1982628Y55987D01*
X1981298Y55098D01*
X1980409Y53768D01*
X1980097Y52200D01*
X1980192Y51724D01*
X1979183Y50354D01*
X1979028Y50340D01*
X1978954Y50374D01*
X1977762Y51171D01*
X1976291Y51464D01*
X1974820Y51171D01*
X1973573Y50338D01*
X1972739Y49091D01*
X1972447Y47620D01*
X1972739Y46149D01*
X1972828Y46017D01*
X1972149Y44747D01*
X1971203D01*
X1970132Y45230D01*
Y48460D01*
X1965932D01*
Y49729D01*
X1964662D01*
Y54230D01*
X1961733D01*
Y54230D01*
X1961302Y54000D01*
X1953363D01*
Y49122D01*
X1950183Y45942D01*
X1949418Y45790D01*
X1948171Y44957D01*
X1947337Y43710D01*
X1947045Y42239D01*
X1947075Y42088D01*
X1945027Y40040D01*
X1937670D01*
Y43600D01*
X1923420D01*
X1909170D01*
Y40040D01*
X1898150D01*
Y39442D01*
X1896942D01*
X1896942Y39442D01*
X1896149Y39284D01*
X1895477Y38835D01*
X1890264Y33622D01*
X1889815Y32950D01*
X1889657Y32157D01*
X1889657Y32157D01*
Y13305D01*
X1889011Y12874D01*
X1888178Y11626D01*
X1887885Y10156D01*
X1888178Y8684D01*
X1889011Y7437D01*
X1890258Y6604D01*
X1891729Y6312D01*
X1893200Y6604D01*
X1894447Y7437D01*
X1895280Y8684D01*
X1895573Y10156D01*
X1895280Y11626D01*
X1894447Y12874D01*
X1893801Y13305D01*
Y31299D01*
X1896974Y34472D01*
X1898150Y34700D01*
Y34700D01*
X1909170D01*
Y33140D01*
X1908250D01*
Y22100D01*
X1908848D01*
Y20178D01*
X1908737Y20087D01*
X1907266Y19795D01*
X1906019Y18961D01*
X1905186Y17715D01*
X1904893Y16243D01*
X1905186Y14772D01*
X1906019Y13525D01*
X1907266Y12692D01*
X1908737Y12400D01*
X1910208Y12692D01*
X1911455Y13525D01*
X1912288Y14772D01*
X1912523Y15953D01*
X1912578Y16001D01*
X1913848Y15430D01*
Y8176D01*
X1913848Y8176D01*
X1914006Y7383D01*
X1914455Y6711D01*
X1915499Y5667D01*
X1914972Y4397D01*
X1888778D01*
X1871138Y22037D01*
X1870466Y22486D01*
X1869673Y22644D01*
X1869673Y22644D01*
X1811476D01*
X1810683Y22486D01*
X1810011Y22037D01*
X1810011Y22037D01*
X1805651Y17677D01*
X1805202Y17005D01*
X1805044Y16212D01*
X1805044Y16212D01*
Y13807D01*
X1804716D01*
X1803987Y13662D01*
X1803368Y13248D01*
X1802955Y12630D01*
X1802810Y11900D01*
Y7100D01*
X1802955Y6370D01*
X1803368Y5752D01*
X1803987Y5339D01*
X1804716Y5193D01*
X1809423D01*
X1810116Y4500D01*
X1814116D01*
X1814810Y5193D01*
X1819516D01*
X1820246Y5339D01*
X1820864Y5752D01*
X1821278Y6370D01*
X1821423Y7100D01*
Y7428D01*
X1825343D01*
Y3730D01*
X1833011D01*
X1833640Y2460D01*
X1833072Y1714D01*
X1833016Y1505D01*
X1832960Y1444D01*
X1666418D01*
X1665841Y2364D01*
X1666210Y3071D01*
Y8230D01*
X1661480D01*
Y6085D01*
X1660772Y5594D01*
X1660210Y5357D01*
X1658575Y5358D01*
X1658520Y5335D01*
X1657671Y5652D01*
X1657250Y5961D01*
Y15270D01*
X1645710D01*
Y11572D01*
X1642283D01*
Y11900D01*
X1642138Y12630D01*
X1641725Y13248D01*
X1641106Y13662D01*
X1640376Y13807D01*
X1635670D01*
X1634976Y14500D01*
X1630976D01*
X1630283Y13807D01*
X1625576D01*
X1624847Y13662D01*
X1624228Y13248D01*
X1623815Y12630D01*
X1623763Y12372D01*
X1618360D01*
X1618360Y12372D01*
X1617567Y12214D01*
X1616895Y11765D01*
X1616895Y11765D01*
X1615861Y10731D01*
X1614791Y10944D01*
X1613320Y10651D01*
X1612073Y9818D01*
X1611240Y8571D01*
X1610948Y7100D01*
X1611240Y5629D01*
X1612073Y4382D01*
X1613320Y3549D01*
X1614791Y3256D01*
X1616262Y3549D01*
X1617509Y4382D01*
X1618343Y5629D01*
X1618635Y7100D01*
X1618614Y7208D01*
X1619506Y8228D01*
X1623670D01*
Y7100D01*
X1623815Y6370D01*
X1624228Y5752D01*
X1624847Y5339D01*
X1625576Y5193D01*
X1630283D01*
X1630976Y4500D01*
X1634976D01*
X1635670Y5193D01*
X1640376D01*
X1641106Y5339D01*
X1641725Y5752D01*
X1642138Y6370D01*
X1642283Y7100D01*
Y7428D01*
X1645710D01*
Y3730D01*
X1653010D01*
X1653640Y2460D01*
X1653070Y1711D01*
X1653015Y1502D01*
X1652961Y1444D01*
X1486418D01*
X1485840Y2365D01*
X1486424Y3483D01*
Y8230D01*
X1481694D01*
Y5915D01*
X1481556Y5813D01*
X1480430Y5357D01*
X1480424Y5357D01*
X1478575Y5358D01*
X1477464Y6024D01*
Y15270D01*
X1465924D01*
Y11572D01*
X1462691D01*
Y11900D01*
X1462545Y12630D01*
X1462132Y13248D01*
X1461514Y13662D01*
X1460784Y13807D01*
X1456077D01*
X1455384Y14500D01*
X1451384D01*
X1450691Y13807D01*
X1447007D01*
X1430337Y30477D01*
X1429665Y30926D01*
X1428872Y31084D01*
X1428872Y31084D01*
X828231D01*
X828231Y31084D01*
X827438Y30926D01*
X826766Y30477D01*
X826766Y30477D01*
X822659Y26370D01*
X822210Y25698D01*
X822052Y24905D01*
X822052Y24905D01*
Y13777D01*
X821489Y13353D01*
X820673Y13773D01*
X820297Y14045D01*
X820022Y15429D01*
X819189Y16675D01*
X817942Y17509D01*
X816471Y17801D01*
X815709Y17650D01*
X808390Y24969D01*
X809015Y26139D01*
X809653Y26012D01*
X811124Y26305D01*
X812371Y27138D01*
X812533Y27381D01*
X812629Y27413D01*
X814002Y27294D01*
X814519Y26520D01*
X815766Y25687D01*
X817237Y25394D01*
X818708Y25687D01*
X819955Y26520D01*
X820788Y27767D01*
X821081Y29238D01*
X820788Y30709D01*
X819955Y31956D01*
X819652Y32158D01*
X820038Y33428D01*
X1865581D01*
X1865581Y33428D01*
X1866374Y33586D01*
X1867046Y34035D01*
X1891441Y58430D01*
X1892693Y58679D01*
X1893940Y59512D01*
X1894773Y60759D01*
X1895066Y62230D01*
X1894773Y63701D01*
X1894469Y64156D01*
X1895147Y65427D01*
X1899190Y65433D01*
X1899870Y64164D01*
X1899561Y63701D01*
X1899268Y62230D01*
X1899561Y60759D01*
X1900394Y59512D01*
X1901641Y58679D01*
X1901974Y58613D01*
X1902319Y58382D01*
X1903112Y58224D01*
X1908250D01*
Y56600D01*
X1909170D01*
Y55270D01*
X1904940D01*
Y52370D01*
Y49470D01*
X1909170D01*
Y46140D01*
X1923420D01*
X1937670D01*
Y49700D01*
X1948690D01*
Y55040D01*
X1945242D01*
Y62308D01*
X1948435Y65501D01*
X1959947Y65517D01*
X1960693Y64248D01*
D02*
G37*
G36*
X2956415Y40768D02*
X2956415Y40767D01*
X2957087Y40318D01*
X2957880Y40161D01*
X2957880Y40161D01*
X2988503D01*
X3011220Y17443D01*
X3011892Y16994D01*
X3012685Y16836D01*
X3012685Y16836D01*
X3090403D01*
X3090888Y15663D01*
X3086444Y11219D01*
X3011067D01*
X2999933Y22352D01*
X2999261Y22801D01*
X2998468Y22959D01*
X2998468Y22959D01*
X2937050D01*
X2936524Y24229D01*
X2939854Y27559D01*
X2940415Y28399D01*
X2940612Y29390D01*
Y31426D01*
X2941211Y31826D01*
X2942044Y33073D01*
X2942337Y34544D01*
X2942044Y36015D01*
X2941211Y37262D01*
X2939964Y38095D01*
X2938493Y38388D01*
X2937022Y38095D01*
X2935775Y37262D01*
X2935689Y37134D01*
X2934168D01*
Y47511D01*
X2938570D01*
X2939002Y46866D01*
X2940249Y46032D01*
X2941720Y45740D01*
X2943191Y46032D01*
X2944438Y46866D01*
X2945271Y48113D01*
X2945564Y49584D01*
X2945504Y49882D01*
X2946675Y50508D01*
X2956415Y40768D01*
D02*
G37*
G36*
X2957314Y48809D02*
X2957314Y48809D01*
X2957986Y48360D01*
X2958779Y48202D01*
X2958779Y48202D01*
X2993690D01*
X3013938Y27954D01*
X3013938Y27954D01*
X3014611Y27505D01*
X3015403Y27347D01*
X3015403Y27347D01*
X3087656D01*
X3087657Y27347D01*
X3088449Y27505D01*
X3089121Y27954D01*
X3098451Y37283D01*
X3099213Y37132D01*
X3100684Y37424D01*
X3101931Y38258D01*
X3102764Y39504D01*
X3103057Y40975D01*
X3102764Y42446D01*
X3101931Y43694D01*
X3100735Y44492D01*
X3100568Y44641D01*
X3100350Y45584D01*
X3101141Y46550D01*
X3358035D01*
X3359026Y46748D01*
X3360271Y46231D01*
X3360362Y46028D01*
X3359575Y44758D01*
X3116565D01*
X3116565Y44758D01*
X3115772Y44600D01*
X3115100Y44151D01*
X3115100Y44151D01*
X3091929Y20980D01*
X3013543D01*
X2990826Y43698D01*
X2990154Y44147D01*
X2989361Y44304D01*
X2989360Y44304D01*
X2958738D01*
X2941994Y61048D01*
X2941706Y61241D01*
X2942091Y62511D01*
X2943612D01*
X2957314Y48809D01*
D02*
G37*
G36*
X2821838Y54676D02*
Y32908D01*
X2819910D01*
X2819154Y32152D01*
X2818785Y32225D01*
X2812035D01*
X2811100Y32039D01*
X2810308Y31510D01*
X2809779Y30717D01*
X2809593Y29783D01*
Y27980D01*
X2807747D01*
Y29783D01*
X2807561Y30717D01*
X2807032Y31510D01*
X2806240Y32039D01*
X2806216Y32044D01*
Y36743D01*
X2806535Y36807D01*
X2807120Y37198D01*
X2807511Y37783D01*
X2807649Y38474D01*
Y42779D01*
X2808844Y43974D01*
Y47974D01*
X2808939Y48202D01*
X2810179D01*
X2810274Y47974D01*
Y43974D01*
X2811235Y43013D01*
Y42244D01*
X2815274D01*
X2819313D01*
Y43013D01*
X2820274Y43974D01*
Y47974D01*
X2819079Y49169D01*
Y53474D01*
X2818941Y54165D01*
X2818550Y54750D01*
X2817964Y55141D01*
X2817274Y55279D01*
X2815847D01*
X2815838Y55292D01*
X2813903Y57227D01*
X2813770Y57895D01*
X2813748Y58120D01*
X2814416Y59165D01*
X2817350D01*
X2821838Y54676D01*
D02*
G37*
G36*
X4085381Y51578D02*
X4085030Y51053D01*
X4084738Y49582D01*
X4085030Y48111D01*
X4085864Y46864D01*
X4087111Y46031D01*
X4088582Y45738D01*
X4088733Y45768D01*
X4095501Y39000D01*
X4095367Y38305D01*
X4095030Y37730D01*
X4092032D01*
X4091480Y38556D01*
X4090150Y39445D01*
X4088582Y39757D01*
X4087013Y39445D01*
X4085683Y38556D01*
X4084795Y37227D01*
X4084483Y35658D01*
X4084795Y34090D01*
X4085683Y32760D01*
X4087013Y31871D01*
X4088582Y31559D01*
X4090150Y31871D01*
X4091480Y32760D01*
X4092032Y33586D01*
X4106149D01*
Y32888D01*
X4113566D01*
X4114504Y32033D01*
X4114677Y31618D01*
X4114601Y31041D01*
X4114452Y30928D01*
X4111649D01*
Y27818D01*
X4108455Y24623D01*
X4108006Y23951D01*
X4107951Y23678D01*
X4107021Y23056D01*
X4106133Y21727D01*
X4105821Y20158D01*
X4106133Y18590D01*
X4107021Y17260D01*
X4108177Y16488D01*
X4108154Y15781D01*
X4107966Y15218D01*
X4104372D01*
X4103940Y15864D01*
X4102693Y16697D01*
X4101223Y16990D01*
X4099752Y16697D01*
X4098505Y15864D01*
X4097671Y14617D01*
X4097379Y13146D01*
X4097671Y11675D01*
X4098505Y10428D01*
X4099752Y9595D01*
X4101223Y9302D01*
X4102693Y9595D01*
X4103940Y10428D01*
X4104372Y11074D01*
X4111468D01*
X4111468Y11074D01*
X4112261Y11232D01*
X4112933Y11681D01*
X4116578Y15326D01*
X4117848Y14800D01*
Y13608D01*
X4117021Y13056D01*
X4116133Y11727D01*
X4115821Y10158D01*
X4116133Y8590D01*
X4117021Y7260D01*
X4118351Y6371D01*
X4119920Y6059D01*
X4121488Y6371D01*
X4122818Y7260D01*
X4123407Y8142D01*
X4124134Y8545D01*
X4124975Y8457D01*
X4125851Y7871D01*
X4127420Y7559D01*
X4128988Y7871D01*
X4130318Y8760D01*
X4131207Y10090D01*
X4131519Y11658D01*
X4131232Y13100D01*
X4131553Y13631D01*
X4132064Y14230D01*
X4132920Y14059D01*
X4134488Y14371D01*
X4135818Y15260D01*
X4136707Y16590D01*
X4137018Y18158D01*
X4136707Y19727D01*
X4136492Y20048D01*
Y22389D01*
X4138759D01*
X4143455Y17693D01*
X4143455Y17693D01*
X4144127Y17244D01*
X4144920Y17086D01*
X4144920Y17086D01*
X4271476D01*
X4280527Y8035D01*
X4280527Y8035D01*
X4281199Y7586D01*
X4281992Y7428D01*
X4386078D01*
Y7100D01*
X4386223Y6370D01*
X4386636Y5752D01*
X4387255Y5339D01*
X4387984Y5193D01*
X4392691D01*
X4393384Y4500D01*
X4397384D01*
X4398077Y5193D01*
X4402784D01*
X4403514Y5339D01*
X4404132Y5752D01*
X4404546Y6370D01*
X4404691Y7100D01*
Y7428D01*
X4413730D01*
Y3730D01*
X4421010D01*
X4421640Y2460D01*
X4421067Y1707D01*
X4421012Y1497D01*
X4420963Y1444D01*
X4254314D01*
X4253734Y2364D01*
X4254235Y3328D01*
Y8230D01*
X4249505D01*
Y5955D01*
X4248410Y5274D01*
X4246587Y5274D01*
X4246545Y5257D01*
X4245645Y5597D01*
X4245275Y5869D01*
Y15270D01*
X4233735D01*
Y11572D01*
X4228210D01*
Y11900D01*
X4228065Y12630D01*
X4227651Y13248D01*
X4227033Y13662D01*
X4226303Y13807D01*
X4221597D01*
X4220903Y14500D01*
X4216903D01*
X4216210Y13807D01*
X4211503D01*
X4210774Y13662D01*
X4210155Y13248D01*
X4209742Y12630D01*
X4209597Y11900D01*
Y11572D01*
X4201223D01*
X4200969Y11952D01*
X4199640Y12840D01*
X4198071Y13152D01*
X4196502Y12840D01*
X4195173Y11952D01*
X4194284Y10622D01*
X4193972Y9054D01*
X4194284Y7485D01*
X4195173Y6155D01*
X4196502Y5267D01*
X4198071Y4955D01*
X4199640Y5267D01*
X4200969Y6155D01*
X4201820Y7428D01*
X4209597D01*
Y7100D01*
X4209742Y6370D01*
X4210155Y5752D01*
X4210774Y5339D01*
X4211503Y5193D01*
X4216210D01*
X4216903Y4500D01*
X4220903D01*
X4221597Y5193D01*
X4226303D01*
X4227033Y5339D01*
X4227651Y5752D01*
X4228065Y6370D01*
X4228210Y7100D01*
Y7428D01*
X4233735D01*
Y3730D01*
X4241118D01*
X4241745Y2460D01*
X4241158Y1693D01*
X4241102Y1485D01*
X4241064Y1444D01*
X3894418D01*
X3893840Y2365D01*
X3894230Y3111D01*
Y9500D01*
X3895500D01*
Y10770D01*
X3901500D01*
Y14494D01*
X4008188D01*
X4008188Y14494D01*
X4008981Y14652D01*
X4009653Y15101D01*
X4017138Y22586D01*
X4095804D01*
X4096022Y22260D01*
X4097351Y21371D01*
X4098920Y21059D01*
X4100488Y21371D01*
X4101818Y22260D01*
X4102707Y23589D01*
X4103018Y25158D01*
X4102707Y26727D01*
X4101818Y28056D01*
X4100488Y28945D01*
X4098920Y29257D01*
X4097351Y28945D01*
X4096022Y28056D01*
X4095135Y26730D01*
X4016280D01*
X4016280Y26730D01*
X4015487Y26572D01*
X4014815Y26123D01*
X4014815Y26123D01*
X4007329Y18638D01*
X3910852D01*
X3910173Y19908D01*
X3910259Y20037D01*
X3910572Y21606D01*
X3910259Y23174D01*
X3909371Y24504D01*
X3908041Y25392D01*
X3906473Y25704D01*
X3904904Y25392D01*
X3903575Y24504D01*
X3903022Y23677D01*
X3459540D01*
X3459540Y23677D01*
X3458747Y23520D01*
X3458075Y23071D01*
X3458075Y23071D01*
X3445866Y10862D01*
X3428661D01*
X3428276Y12133D01*
X3428718Y12428D01*
X3429551Y13675D01*
X3429844Y15146D01*
X3429551Y16617D01*
X3428718Y17864D01*
X3427471Y18697D01*
X3426000Y18990D01*
X3424529Y18697D01*
X3423282Y17864D01*
X3422449Y16617D01*
X3422156Y15146D01*
X3422387Y13986D01*
X3421311Y13266D01*
X3413479Y21098D01*
X3412807Y21547D01*
X3412014Y21704D01*
X3412014Y21704D01*
X3261421D01*
X3261421Y21704D01*
X3260628Y21547D01*
X3259956Y21098D01*
X3259956Y21097D01*
X3245550Y6692D01*
X3209655D01*
X3195096Y21251D01*
X3194424Y21700D01*
X3193631Y21858D01*
X3193631Y21858D01*
X3111952D01*
X3111159Y21700D01*
X3110487Y21251D01*
X3110487Y21251D01*
X3102990Y13753D01*
X3099213D01*
X3098483Y13608D01*
X3097865Y13195D01*
X3097451Y12576D01*
X3097306Y11847D01*
Y7047D01*
X3097451Y6317D01*
X3097865Y5699D01*
X3098483Y5285D01*
X3099213Y5140D01*
X3103919D01*
X3104613Y4447D01*
X3108613D01*
X3109306Y5140D01*
X3114013D01*
X3114743Y5285D01*
X3115361Y5699D01*
X3115775Y6317D01*
X3115919Y7047D01*
Y7428D01*
X3119755D01*
Y3730D01*
X3127010D01*
X3127640Y2460D01*
X3127068Y1708D01*
X3127013Y1499D01*
X3126963Y1444D01*
X2960419D01*
X2959837Y2365D01*
X2960132Y2933D01*
Y8230D01*
X2955403D01*
Y6158D01*
X2955061Y5878D01*
X2954132Y5358D01*
X2952577Y5358D01*
X2952377Y5276D01*
X2952162Y5294D01*
X2951172Y6020D01*
Y15270D01*
X2939632D01*
Y10988D01*
X2937654D01*
Y11316D01*
X2937509Y12046D01*
X2937096Y12664D01*
X2936477Y13077D01*
X2935748Y13223D01*
X2932667D01*
X2932281Y14493D01*
X2932421Y14586D01*
X2936650Y18815D01*
X2997610D01*
X3008744Y7682D01*
X3008744Y7682D01*
X3009416Y7233D01*
X3010209Y7075D01*
X3010209Y7075D01*
X3087302D01*
X3087303Y7075D01*
X3088095Y7233D01*
X3088767Y7682D01*
X3109997Y28911D01*
X3386825D01*
X3387101Y28556D01*
X3386480Y27285D01*
X3257383D01*
X3256590Y27128D01*
X3255918Y26679D01*
X3255917Y26679D01*
X3244207Y14969D01*
X3234327D01*
X3233895Y15615D01*
X3232648Y16448D01*
X3231177Y16741D01*
X3229706Y16448D01*
X3228459Y15615D01*
X3227626Y14368D01*
X3227333Y12897D01*
X3227626Y11426D01*
X3228459Y10179D01*
X3229706Y9345D01*
X3231177Y9053D01*
X3232648Y9345D01*
X3233895Y10179D01*
X3234327Y10825D01*
X3245066D01*
X3245066Y10825D01*
X3245858Y10983D01*
X3246531Y11432D01*
X3258241Y23142D01*
X3415295D01*
X3415295Y23142D01*
X3416088Y23300D01*
X3416760Y23749D01*
X3423120Y30109D01*
X3426793D01*
X3427461Y29064D01*
X3427439Y28839D01*
X3427156Y27418D01*
X3427449Y25947D01*
X3428282Y24701D01*
X3429529Y23867D01*
X3431000Y23575D01*
X3432471Y23867D01*
X3433718Y24701D01*
X3434551Y25947D01*
X3434844Y27418D01*
X3434561Y28839D01*
X3434539Y29064D01*
X3435208Y30109D01*
X3931032D01*
X3939738Y21402D01*
X3939738Y21402D01*
X3940410Y20953D01*
X3941203Y20795D01*
X4005318D01*
X4005318Y20795D01*
X4006111Y20953D01*
X4006783Y21402D01*
X4027167Y41786D01*
X4040573D01*
X4040573Y41786D01*
X4041366Y41944D01*
X4042038Y42393D01*
X4052493Y52848D01*
X4084702D01*
X4085381Y51578D01*
D02*
G37*
G36*
X2999349Y65188D02*
X3000182Y63941D01*
X3001429Y63107D01*
X3002900Y62815D01*
X3003663Y62966D01*
X3012111Y54518D01*
X3012111Y54518D01*
X3012784Y54069D01*
X3013576Y53911D01*
X3025850D01*
X3025850Y53911D01*
X3026643Y54069D01*
X3027315Y54518D01*
X3035052Y62254D01*
X3040062D01*
X3041079Y60984D01*
X3041057Y60886D01*
X3039237Y60132D01*
X3039164Y60059D01*
X3039066Y60018D01*
X3039000Y60005D01*
X3038943Y59967D01*
X3038784Y59901D01*
X3038375Y59587D01*
X3037361Y58910D01*
X3037283Y58793D01*
X3037153Y58740D01*
X3036769Y58356D01*
X3036416Y58084D01*
X3036144Y57731D01*
X3035760Y57347D01*
X3035706Y57217D01*
X3035590Y57138D01*
X3034912Y56125D01*
X3034599Y55716D01*
X3034533Y55557D01*
X3034495Y55500D01*
X3034482Y55434D01*
X3034441Y55336D01*
X3034368Y55263D01*
X3033614Y53443D01*
Y53339D01*
X3033574Y53242D01*
X3033536Y53185D01*
X3033523Y53119D01*
X3033457Y52959D01*
X3033390Y52448D01*
X3033152Y51253D01*
X3033179Y51115D01*
X3033125Y50985D01*
Y50442D01*
X3033067Y50000D01*
X3033125Y49558D01*
Y49015D01*
X3033179Y48885D01*
X3033152Y48747D01*
X3033390Y47551D01*
X3033457Y47041D01*
X3033523Y46881D01*
X3033536Y46815D01*
X3033574Y46758D01*
X3033614Y46661D01*
Y46557D01*
X3034368Y44737D01*
X3034442Y44664D01*
X3034482Y44566D01*
X3034495Y44500D01*
X3034533Y44443D01*
X3034599Y44284D01*
X3034912Y43875D01*
X3035590Y42862D01*
X3035706Y42783D01*
X3035760Y42653D01*
X3036144Y42269D01*
X3036416Y41916D01*
X3036769Y41645D01*
X3037153Y41260D01*
X3037283Y41206D01*
X3037361Y41090D01*
X3036976Y39820D01*
X3015300D01*
X2993588Y61532D01*
X2993618Y61683D01*
X2993326Y63154D01*
X2992492Y64401D01*
X2991860Y64823D01*
X2992246Y66093D01*
X2999169D01*
X2999349Y65188D01*
D02*
G37*
G36*
X3759030Y44604D02*
X3758875Y44500D01*
X3758042Y43253D01*
X3757749Y41782D01*
X3757901Y41020D01*
X3756597Y39715D01*
X3460319D01*
X3459651Y40760D01*
X3459673Y40985D01*
X3459955Y42406D01*
X3459663Y43877D01*
X3459177Y44604D01*
X3459819Y45874D01*
X3758645D01*
X3759030Y44604D01*
D02*
G37*
G36*
X2728642Y62362D02*
X2729182Y61116D01*
X2729012Y60863D01*
X2728857Y60083D01*
Y59353D01*
X2733397D01*
Y58083D01*
X2734666D01*
Y54044D01*
X2735436D01*
X2736396Y53083D01*
X2740396D01*
X2740452Y53138D01*
X2741722Y52612D01*
Y40295D01*
X2741028D01*
X2740298Y40149D01*
X2739679Y39736D01*
X2739266Y39118D01*
X2739121Y38388D01*
Y38060D01*
X2734042D01*
Y38388D01*
X2733897Y39118D01*
X2733484Y39736D01*
X2732865Y40149D01*
X2732136Y40295D01*
X2727336D01*
X2726606Y40149D01*
X2725988Y39736D01*
X2725574Y39118D01*
X2725429Y38388D01*
Y33681D01*
X2724736Y32988D01*
Y28988D01*
X2723868Y28060D01*
X2722590D01*
X2721722Y28988D01*
Y32988D01*
X2721029Y33681D01*
Y38388D01*
X2720883Y39118D01*
X2720470Y39736D01*
X2719852Y40149D01*
X2719122Y40295D01*
X2716078D01*
X2700177Y56195D01*
X2706368Y62386D01*
X2728619D01*
X2728642Y62362D01*
D02*
G37*
G36*
X4024361Y44840D02*
X4004460Y24939D01*
X3997127D01*
X3996459Y25983D01*
X3996481Y26209D01*
X3996764Y27629D01*
X3996471Y29100D01*
X3995638Y30347D01*
X3994391Y31180D01*
X3992920Y31473D01*
X3992158Y31321D01*
X3991082Y32397D01*
X3990410Y32846D01*
X3989617Y33004D01*
X3989616Y33004D01*
X3985850D01*
Y36432D01*
X3987410D01*
Y35512D01*
X3995520D01*
X3998674Y32358D01*
X3999346Y31909D01*
X4000139Y31751D01*
X4000994Y31687D01*
X4001827Y30440D01*
X4003074Y29607D01*
X4004545Y29314D01*
X4006016Y29607D01*
X4007263Y30440D01*
X4008097Y31687D01*
X4008389Y33158D01*
X4008097Y34629D01*
X4007263Y35876D01*
X4006016Y36709D01*
X4004545Y37002D01*
X4003074Y36709D01*
X4001855Y35895D01*
X4000997D01*
X3998450Y38442D01*
Y40984D01*
X4003307D01*
X4004618Y39673D01*
X4004618Y39673D01*
X4005290Y39224D01*
X4006083Y39066D01*
X4007730D01*
X4008162Y38420D01*
X4009409Y37587D01*
X4010880Y37294D01*
X4012351Y37587D01*
X4013598Y38420D01*
X4014431Y39667D01*
X4014724Y41138D01*
X4014431Y42609D01*
X4013598Y43856D01*
X4012351Y44689D01*
X4011592Y44840D01*
X4011718Y46110D01*
X4023835D01*
X4024361Y44840D01*
D02*
G37*
G36*
X3388042Y34302D02*
X3387811Y34147D01*
X3387081Y33055D01*
X3174264D01*
X3174095Y34316D01*
X3175342Y35149D01*
X3175624Y35572D01*
X3387657D01*
X3388042Y34302D01*
D02*
G37*
G36*
X3169077Y39344D02*
X3169073Y39338D01*
X3168780Y37867D01*
X3169073Y36396D01*
X3169906Y35149D01*
X3171153Y34316D01*
X3170984Y33055D01*
X3111523D01*
X3111037Y34228D01*
X3117423Y40614D01*
X3168398D01*
X3169077Y39344D01*
D02*
G37*
G36*
X3088811Y33504D02*
X3086798Y31491D01*
X3016262D01*
X3014382Y33370D01*
X3014908Y34640D01*
X3088015D01*
X3088186Y34674D01*
X3088811Y33504D01*
D02*
G37*
G36*
X2519297Y36049D02*
X2518464Y34802D01*
X2518172Y33331D01*
X2518464Y31860D01*
X2518577Y31692D01*
X2517898Y30422D01*
X2472431D01*
X2467380Y35473D01*
X2466708Y35922D01*
X2466174Y36028D01*
X2466299Y37298D01*
X2518880D01*
X2519297Y36049D01*
D02*
G37*
G36*
X2466802Y30191D02*
X2466708Y29357D01*
X2466378Y28819D01*
X2465647Y28778D01*
X2464602Y29823D01*
X2463930Y30272D01*
X2463137Y30430D01*
X2463137Y30430D01*
X2104344D01*
X2103551Y30272D01*
X2102879Y29823D01*
X2102879Y29823D01*
X2092773Y19717D01*
X2090832D01*
X2090306Y20987D01*
X2101256Y31936D01*
X2465057D01*
X2466802Y30191D01*
D02*
G37*
G36*
X2011064Y24789D02*
X2011051Y24658D01*
X2010663Y23521D01*
X2009796Y23415D01*
X2004078Y29133D01*
X2003406Y29582D01*
X2002613Y29740D01*
X2002613Y29740D01*
X1961941D01*
X1961149Y29582D01*
X1960476Y29133D01*
X1960476Y29133D01*
X1944068Y12725D01*
X1935190D01*
X1934590Y13995D01*
X1935109Y14772D01*
X1935402Y16243D01*
X1935109Y17715D01*
X1934276Y18961D01*
X1933029Y19795D01*
X1932992Y19802D01*
Y22100D01*
X1938590D01*
Y25478D01*
X1940520D01*
X1940521Y25478D01*
X1941313Y25636D01*
X1941986Y26085D01*
X1946815Y30914D01*
X1947627Y30552D01*
X1947950Y30253D01*
X1947940Y30153D01*
X1947657Y28733D01*
X1947950Y27262D01*
X1948783Y26015D01*
X1950030Y25182D01*
X1951501Y24889D01*
X1952972Y25182D01*
X1954219Y26015D01*
X1955052Y27262D01*
X1955345Y28733D01*
X1955063Y30153D01*
X1955040Y30379D01*
X1955709Y31423D01*
X2004429D01*
X2011064Y24789D01*
D02*
G37*
G36*
X238667Y16232D02*
X238667Y16232D01*
X239340Y15783D01*
X240132Y15625D01*
X240133Y15625D01*
X336174D01*
X336745Y14355D01*
X336259Y13807D01*
X332044D01*
X331315Y13662D01*
X330696Y13248D01*
X330283Y12630D01*
X330138Y11900D01*
Y11572D01*
X323291D01*
X322860Y12218D01*
X321613Y13051D01*
X320142Y13344D01*
X318671Y13051D01*
X317424Y12218D01*
X316590Y10971D01*
X316298Y9500D01*
X316590Y8029D01*
X317424Y6782D01*
X318671Y5949D01*
X320142Y5656D01*
X321613Y5949D01*
X322860Y6782D01*
X323291Y7428D01*
X330138D01*
Y7100D01*
X330283Y6370D01*
X330696Y5752D01*
X331315Y5339D01*
X332044Y5193D01*
X336751D01*
X337444Y4500D01*
X341444D01*
X342138Y5193D01*
X346844D01*
X347574Y5339D01*
X348192Y5752D01*
X348606Y6370D01*
X348751Y7100D01*
Y7428D01*
X351574D01*
Y3730D01*
X359010D01*
X359640Y2460D01*
X359071Y1713D01*
X359015Y1504D01*
X358961Y1444D01*
X192418D01*
X191840Y2365D01*
X192220Y3092D01*
Y8230D01*
X187490D01*
Y6072D01*
X186428Y5358D01*
X184571Y5358D01*
X184530Y5341D01*
X183617Y5688D01*
X183260Y5949D01*
Y15270D01*
X179562D01*
Y20835D01*
X181027D01*
X181720Y20142D01*
X185720D01*
X186413Y20835D01*
X191120D01*
X191850Y20980D01*
X192468Y21394D01*
X192882Y22012D01*
X193027Y22742D01*
Y23070D01*
X231829D01*
X238667Y16232D01*
D02*
G37*
G36*
X2462553Y25130D02*
X2462516Y24377D01*
X2462181Y24077D01*
X2461925Y23923D01*
X2461891Y23922D01*
X2111343D01*
X2110550Y23764D01*
X2109878Y23315D01*
X2109878Y23315D01*
X2103256Y16693D01*
X2097268D01*
X2096782Y17866D01*
X2105202Y26286D01*
X2461445D01*
X2462553Y25130D01*
D02*
G37*
G36*
X510685Y22170D02*
X510617Y22069D01*
X510305Y20500D01*
X510617Y18932D01*
X511505Y17602D01*
X512332Y17050D01*
Y14599D01*
X512003D01*
X511274Y14454D01*
X510655Y14040D01*
X510242Y13422D01*
X510097Y12692D01*
Y7892D01*
X510242Y7163D01*
X510655Y6544D01*
X511274Y6131D01*
X512003Y5986D01*
X516710D01*
X517403Y5292D01*
X521403D01*
X522097Y5986D01*
X526803D01*
X527533Y6131D01*
X528152Y6544D01*
X528565Y7163D01*
X528710Y7892D01*
Y8220D01*
X531633D01*
Y3730D01*
X538711D01*
X539348Y2460D01*
X538818Y1748D01*
X538764Y1537D01*
X538682Y1444D01*
X372418D01*
X371840Y2365D01*
X372074Y2813D01*
Y9500D01*
X373344D01*
Y10770D01*
X379344D01*
Y15500D01*
X380563Y15625D01*
X490743D01*
X490743Y15625D01*
X491536Y15783D01*
X492208Y16232D01*
X499416Y23440D01*
X510006D01*
X510685Y22170D01*
D02*
G37*
G36*
X2651225Y20977D02*
X2651517Y19506D01*
X2652350Y18259D01*
X2653598Y17426D01*
X2655069Y17134D01*
X2656540Y17426D01*
X2657787Y18259D01*
X2658591Y19463D01*
X2658735Y19639D01*
X2659946Y19905D01*
X2663232Y16618D01*
X2663232Y16618D01*
X2663905Y16169D01*
X2664698Y16011D01*
X2758765D01*
X2759728Y15270D01*
Y11572D01*
X2750203D01*
Y12004D01*
X2750058Y12734D01*
X2749645Y13353D01*
X2749026Y13766D01*
X2748297Y13911D01*
X2743590D01*
X2742896Y14604D01*
X2738896D01*
X2738203Y13911D01*
X2733496D01*
X2732767Y13766D01*
X2732148Y13353D01*
X2731735Y12734D01*
X2731590Y12004D01*
Y11676D01*
X2723173D01*
X2722620Y12503D01*
X2721291Y13391D01*
X2719722Y13703D01*
X2718153Y13391D01*
X2716824Y12503D01*
X2715935Y11173D01*
X2715623Y9604D01*
X2715935Y8036D01*
X2716824Y6706D01*
X2718153Y5818D01*
X2719722Y5506D01*
X2721291Y5818D01*
X2722620Y6706D01*
X2723173Y7533D01*
X2731590D01*
Y7204D01*
X2731735Y6475D01*
X2732148Y5856D01*
X2732767Y5443D01*
X2733496Y5298D01*
X2738203D01*
X2738896Y4604D01*
X2742896D01*
X2743590Y5298D01*
X2748297D01*
X2749026Y5443D01*
X2749645Y5856D01*
X2750058Y6475D01*
X2750203Y7204D01*
Y7428D01*
X2759728D01*
Y3730D01*
X2767010D01*
X2767640Y2460D01*
X2767067Y1706D01*
X2767012Y1497D01*
X2766964Y1444D01*
X2600418D01*
X2599840Y2365D01*
X2600432Y3500D01*
X2606973D01*
Y8230D01*
X2600973D01*
X2594973D01*
Y6506D01*
X2594425Y5358D01*
X2592569Y5357D01*
X2592369Y5275D01*
X2592154Y5293D01*
X2591768Y5171D01*
X2590743Y5921D01*
Y15270D01*
X2579203D01*
Y11414D01*
X2575596D01*
Y11743D01*
X2575451Y12472D01*
X2575038Y13091D01*
X2574419Y13504D01*
X2573690Y13649D01*
X2568983D01*
X2568290Y14342D01*
X2564290D01*
X2563596Y13649D01*
X2558890D01*
X2558160Y13504D01*
X2557542Y13091D01*
X2557128Y12472D01*
X2556983Y11743D01*
Y10962D01*
X2522006D01*
X2514741Y18227D01*
X2514069Y18676D01*
X2513276Y18834D01*
X2513276Y18834D01*
X2472453D01*
X2471967Y20007D01*
X2473131Y21171D01*
X2651066D01*
X2651225Y20977D01*
D02*
G37*
G36*
X2007582Y19769D02*
X2007582Y19769D01*
X2008254Y19320D01*
X2009047Y19162D01*
X2024493D01*
X2026982Y16673D01*
X2026496Y15500D01*
X2021482D01*
Y10770D01*
X2027482D01*
X2033481D01*
Y11924D01*
X2034244Y12549D01*
X2090206D01*
X2090526Y12071D01*
X2090769Y11279D01*
X2090079Y10247D01*
X2089787Y8776D01*
X2090079Y7305D01*
X2090913Y6058D01*
X2092160Y5225D01*
X2093631Y4932D01*
X2095102Y5225D01*
X2096349Y6058D01*
X2096781Y6704D01*
X2110067D01*
X2110067Y6704D01*
X2110860Y6862D01*
X2111532Y7311D01*
X2118912Y14690D01*
X2160337D01*
X2160499Y14472D01*
X2160717Y13091D01*
X2160304Y12472D01*
X2160159Y11743D01*
Y11572D01*
X2149203D01*
X2149203Y11572D01*
X2148410Y11414D01*
X2147738Y10965D01*
X2147738Y10965D01*
X2146810Y10037D01*
X2146361Y9365D01*
X2146203Y8572D01*
X2146139Y7651D01*
X2144892Y6818D01*
X2144059Y5571D01*
X2143766Y4100D01*
X2144042Y2713D01*
X2144034Y2435D01*
X2143504Y1444D01*
X2026452D01*
X2025880Y2364D01*
X2026212Y2995D01*
Y8230D01*
X2021482D01*
Y6134D01*
X2020434Y5405D01*
X2018564Y5405D01*
X2018522Y5387D01*
X2017604Y5735D01*
X2017251Y5993D01*
Y15270D01*
X2005712D01*
Y11572D01*
X1997344D01*
Y11900D01*
X1997199Y12630D01*
X1996786Y13248D01*
X1996167Y13662D01*
X1995438Y13807D01*
X1990731D01*
X1990038Y14500D01*
X1986038D01*
X1985344Y13807D01*
X1980638D01*
X1979908Y13662D01*
X1979459Y13362D01*
X1978762Y13555D01*
X1978189Y13887D01*
Y18084D01*
X1978835Y18516D01*
X1979668Y19763D01*
X1979961Y21234D01*
X1979668Y22705D01*
X1978835Y23952D01*
X1978275Y24326D01*
X1978660Y25596D01*
X2001755D01*
X2007582Y19769D01*
D02*
G37*
G36*
X891630Y15270D02*
Y11572D01*
X886858D01*
Y11900D01*
X886713Y12630D01*
X886299Y13248D01*
X885681Y13662D01*
X884951Y13807D01*
X880245D01*
X879551Y14500D01*
X875551D01*
X874858Y13807D01*
X870151D01*
X869421Y13662D01*
X868803Y13248D01*
X868390Y12630D01*
X868244Y11900D01*
Y10962D01*
X863902D01*
X863110Y10804D01*
X862437Y10355D01*
X862437Y10355D01*
X861289Y9207D01*
X860119Y9832D01*
X860184Y10160D01*
X859891Y11631D01*
X859058Y12878D01*
X857811Y13711D01*
X856340Y14004D01*
X854869Y13711D01*
X853622Y12878D01*
X852789Y11631D01*
X852496Y10160D01*
X852789Y8689D01*
X853622Y7442D01*
X854869Y6609D01*
X855084Y6566D01*
X854958Y5296D01*
X847253D01*
X846575Y6566D01*
X846643Y6668D01*
X846954Y8236D01*
X846761Y9211D01*
X853454Y15904D01*
X890623D01*
X891630Y15270D01*
D02*
G37*
G36*
X3856031Y13224D02*
X3856013Y13197D01*
X3852642D01*
X3851913Y13052D01*
X3851294Y12638D01*
X3850881Y12020D01*
X3850735Y11290D01*
Y10962D01*
X3840603D01*
X3840172Y11608D01*
X3838925Y12441D01*
X3837454Y12734D01*
X3835982Y12441D01*
X3834735Y11608D01*
X3833902Y10361D01*
X3833610Y8890D01*
X3833902Y7419D01*
X3834735Y6172D01*
X3835982Y5339D01*
X3837454Y5046D01*
X3838925Y5339D01*
X3840172Y6172D01*
X3840603Y6818D01*
X3850735D01*
Y6490D01*
X3850881Y5760D01*
X3851294Y5142D01*
X3851913Y4729D01*
X3852642Y4584D01*
X3857349D01*
X3858042Y3890D01*
X3862042D01*
X3862736Y4584D01*
X3867442D01*
X3868172Y4729D01*
X3868790Y5142D01*
X3869204Y5760D01*
X3869349Y6490D01*
Y6818D01*
X3873730D01*
Y3730D01*
X3881010D01*
X3881640Y2460D01*
X3881067Y1706D01*
X3881012Y1497D01*
X3880963Y1444D01*
X3714418D01*
X3713840Y2365D01*
X3714230Y3112D01*
Y9500D01*
X3715500D01*
Y10770D01*
X3721500D01*
Y14494D01*
X3855352D01*
X3856031Y13224D01*
D02*
G37*
G36*
X3674940D02*
X3674922Y13197D01*
X3671552D01*
X3670822Y13052D01*
X3670203Y12638D01*
X3669790Y12020D01*
X3669645Y11290D01*
Y10962D01*
X3664050D01*
X3663618Y11608D01*
X3662371Y12441D01*
X3660900Y12734D01*
X3659429Y12441D01*
X3658182Y11608D01*
X3657349Y10361D01*
X3657056Y8890D01*
X3657349Y7419D01*
X3658182Y6172D01*
X3659429Y5339D01*
X3660900Y5046D01*
X3662371Y5339D01*
X3663618Y6172D01*
X3664050Y6818D01*
X3669645D01*
Y6490D01*
X3669790Y5760D01*
X3670203Y5142D01*
X3670822Y4729D01*
X3671552Y4584D01*
X3676258D01*
X3676951Y3890D01*
X3680952D01*
X3681645Y4584D01*
X3686351D01*
X3687081Y4729D01*
X3687700Y5142D01*
X3688113Y5760D01*
X3688258Y6490D01*
Y6818D01*
X3693730D01*
Y3730D01*
X3701010D01*
X3701640Y2460D01*
X3701069Y1709D01*
X3701014Y1500D01*
X3700963Y1444D01*
X3534418D01*
X3533840Y2365D01*
X3534228Y3108D01*
Y9500D01*
X3535498D01*
Y10770D01*
X3541498D01*
Y14494D01*
X3674262D01*
X3674940Y13224D01*
D02*
G37*
G36*
X778420Y20391D02*
Y17770D01*
X781420D01*
Y16500D01*
X782690D01*
Y12000D01*
X784420D01*
Y12230D01*
X789190D01*
Y12660D01*
X791508D01*
X792060Y11834D01*
X793390Y10945D01*
X794958Y10633D01*
X796527Y10945D01*
X797856Y11834D01*
X798745Y13163D01*
X799057Y14732D01*
X798910Y15470D01*
X799780Y16823D01*
X799832Y16850D01*
X800390Y16933D01*
X802996Y14327D01*
X802966Y14175D01*
X803259Y12704D01*
X804092Y11458D01*
X805339Y10624D01*
X805502Y10592D01*
X805377Y9322D01*
X770948D01*
X765872Y14398D01*
Y16162D01*
X767044Y17334D01*
X768150Y17730D01*
Y17730D01*
X776690D01*
Y20489D01*
X777298Y21074D01*
X778420Y20391D01*
D02*
G37*
G36*
X3476045Y18264D02*
X3475696Y18031D01*
X3475696Y18031D01*
X3470248Y12582D01*
X3469485Y12734D01*
X3468015Y12441D01*
X3466768Y11608D01*
X3465934Y10361D01*
X3465642Y8890D01*
X3465934Y7419D01*
X3466768Y6172D01*
X3468015Y5339D01*
X3469485Y5046D01*
X3470956Y5339D01*
X3472204Y6172D01*
X3473037Y7419D01*
X3473329Y8890D01*
X3473178Y9652D01*
X3478020Y14494D01*
X3494480D01*
X3495159Y13224D01*
X3495141Y13197D01*
X3491770D01*
X3491040Y13052D01*
X3490421Y12638D01*
X3490008Y12020D01*
X3489863Y11290D01*
Y10962D01*
X3485915D01*
X3485483Y11608D01*
X3484236Y12441D01*
X3482766Y12734D01*
X3481294Y12441D01*
X3480047Y11608D01*
X3479214Y10361D01*
X3478922Y8890D01*
X3479214Y7419D01*
X3480047Y6172D01*
X3481294Y5339D01*
X3482766Y5046D01*
X3484236Y5339D01*
X3485483Y6172D01*
X3485915Y6818D01*
X3489863D01*
Y6490D01*
X3490008Y5760D01*
X3490421Y5142D01*
X3491040Y4729D01*
X3491770Y4584D01*
X3496476D01*
X3497170Y3890D01*
X3501170D01*
X3501863Y4584D01*
X3506570D01*
X3507299Y4729D01*
X3507918Y5142D01*
X3508331Y5760D01*
X3508476Y6490D01*
Y7428D01*
X3513728D01*
Y3730D01*
X3521010D01*
X3521640Y2460D01*
X3521067Y1706D01*
X3521012Y1497D01*
X3520963Y1444D01*
X3320418D01*
X3319840Y2365D01*
X3320230Y3112D01*
Y8230D01*
X3315500D01*
Y6061D01*
X3314428Y5357D01*
X3312572Y5357D01*
X3312540Y5344D01*
X3311588Y5710D01*
X3311270Y5942D01*
Y15270D01*
X3299730D01*
Y11219D01*
X3293676D01*
Y11547D01*
X3293531Y12276D01*
X3293117Y12895D01*
X3292499Y13308D01*
X3291769Y13453D01*
X3287062D01*
X3286369Y14147D01*
X3282369D01*
X3281676Y13453D01*
X3276969D01*
X3276239Y13308D01*
X3275621Y12895D01*
X3275208Y12276D01*
X3275063Y11547D01*
Y10962D01*
X3270886D01*
X3270454Y11608D01*
X3269207Y12441D01*
X3267736Y12734D01*
X3266265Y12441D01*
X3265018Y11608D01*
X3264185Y10361D01*
X3263892Y8890D01*
X3264185Y7419D01*
X3265018Y6172D01*
X3266265Y5339D01*
X3267736Y5046D01*
X3269207Y5339D01*
X3270454Y6172D01*
X3270886Y6818D01*
X3275063D01*
Y6747D01*
X3275208Y6017D01*
X3275621Y5399D01*
X3276239Y4985D01*
X3276969Y4840D01*
X3281676D01*
X3282369Y4147D01*
X3286369D01*
X3287062Y4840D01*
X3291769D01*
X3292499Y4985D01*
X3293117Y5399D01*
X3293531Y6017D01*
X3293676Y6747D01*
Y7075D01*
X3299730D01*
Y3730D01*
X3307010D01*
X3307640Y2460D01*
X3307068Y1708D01*
X3307013Y1499D01*
X3306963Y1444D01*
X3247364D01*
X3247201Y2706D01*
X3247873Y3155D01*
X3262279Y17561D01*
X3411156D01*
X3421391Y7326D01*
X3421391Y7326D01*
X3422063Y6877D01*
X3422856Y6719D01*
X3422856Y6719D01*
X3446725D01*
X3446725Y6719D01*
X3447517Y6877D01*
X3448190Y7326D01*
X3460398Y19534D01*
X3475660D01*
X3476045Y18264D01*
D02*
G37*
G36*
X766104Y22158D02*
X765815Y21965D01*
X765815Y21965D01*
X762335Y18485D01*
X761886Y17813D01*
X761728Y17020D01*
X761728Y17020D01*
Y13540D01*
X761728Y13540D01*
X761886Y12747D01*
X762335Y12075D01*
X767844Y6566D01*
X767318Y5296D01*
X764658D01*
X763466Y6488D01*
X763618Y7250D01*
X763325Y8721D01*
X762492Y9968D01*
X761245Y10801D01*
X759774Y11094D01*
X758303Y10801D01*
X757056Y9968D01*
X756223Y8721D01*
X755930Y7250D01*
X756223Y5779D01*
X757056Y4532D01*
X758303Y3699D01*
X759774Y3406D01*
X760536Y3558D01*
X761381Y2713D01*
X760855Y1444D01*
X732418D01*
X731840Y2365D01*
X732224Y3098D01*
Y9500D01*
Y15500D01*
X730881D01*
X730176Y16542D01*
X730209Y16770D01*
X730514Y18300D01*
X730202Y19869D01*
X729313Y21198D01*
X727983Y22087D01*
X727624Y22158D01*
X727749Y23428D01*
X765719D01*
X766104Y22158D01*
D02*
G37*
G36*
X618152Y11175D02*
X618824Y10726D01*
X619617Y10568D01*
X619617Y10568D01*
X649755D01*
X650407Y9298D01*
X649929Y8583D01*
X649636Y7112D01*
X649919Y5692D01*
X649941Y5466D01*
X649273Y4422D01*
X619568D01*
X597013Y26977D01*
X596341Y27426D01*
X595548Y27584D01*
X595548Y27584D01*
X498558D01*
X498558Y27584D01*
X497765Y27426D01*
X497093Y26977D01*
X497093Y26977D01*
X489885Y19769D01*
X324302D01*
X323689Y21039D01*
X324075Y21524D01*
X487787D01*
X487787Y21524D01*
X488580Y21682D01*
X489252Y22131D01*
X496312Y29191D01*
X600136D01*
X618152Y11175D01*
D02*
G37*
G36*
X3207332Y3155D02*
X3207332Y3155D01*
X3208004Y2706D01*
X3207842Y1444D01*
X3140418D01*
X3139841Y2364D01*
X3140255Y3158D01*
Y8230D01*
X3135525D01*
Y6039D01*
X3134630Y5482D01*
X3134255Y5358D01*
X3132574Y5358D01*
X3132565Y5354D01*
X3131501Y5775D01*
X3131295Y5926D01*
Y15270D01*
X3119755D01*
Y11572D01*
X3115919D01*
Y11847D01*
X3115775Y12576D01*
X3115361Y13195D01*
X3114743Y13608D01*
X3114013Y13753D01*
X3110646D01*
X3110120Y15023D01*
X3112810Y17714D01*
X3192773D01*
X3207332Y3155D01*
D02*
G37*
G36*
X2519683Y7425D02*
X2520355Y6976D01*
X2521148Y6818D01*
X2521148Y6818D01*
X2557008D01*
X2557128Y6213D01*
X2557542Y5594D01*
X2558160Y5181D01*
X2558890Y5036D01*
X2563596D01*
X2564290Y4342D01*
X2568290D01*
X2568983Y5036D01*
X2573690D01*
X2574419Y5181D01*
X2575038Y5594D01*
X2575451Y6213D01*
X2575596Y6942D01*
Y7271D01*
X2579203D01*
Y3730D01*
X2587010D01*
X2587640Y2460D01*
X2587067Y1706D01*
X2587011Y1496D01*
X2586964Y1444D01*
X2420418D01*
X2419841Y2364D01*
X2420280Y3205D01*
Y9500D01*
X2421550D01*
Y10770D01*
X2427550D01*
Y14690D01*
X2512418D01*
X2519683Y7425D01*
D02*
G37*
G36*
X2360699Y13420D02*
X2360660Y13361D01*
X2360367Y11890D01*
X2360660Y10419D01*
X2361493Y9172D01*
X2362740Y8339D01*
X2364211Y8046D01*
X2364973Y8198D01*
X2365293Y7878D01*
X2365293Y7878D01*
X2365966Y7428D01*
X2366759Y7271D01*
X2376459D01*
Y6942D01*
X2376604Y6213D01*
X2377017Y5594D01*
X2377636Y5181D01*
X2378365Y5036D01*
X2383072D01*
X2383765Y4342D01*
X2387765D01*
X2388459Y5036D01*
X2393165D01*
X2393895Y5181D01*
X2394514Y5594D01*
X2394927Y6213D01*
X2395072Y6942D01*
Y7271D01*
X2399780D01*
Y3730D01*
X2407010D01*
X2407640Y2460D01*
X2407067Y1706D01*
X2407012Y1497D01*
X2406963Y1444D01*
X2206418D01*
X2205840Y2365D01*
X2206230Y3111D01*
Y9500D01*
X2207500D01*
Y10770D01*
X2213500D01*
Y14690D01*
X2360020D01*
X2360699Y13420D01*
D02*
G37*
G36*
X2160159Y6943D02*
X2160304Y6213D01*
X2160717Y5594D01*
X2161336Y5181D01*
X2162065Y5036D01*
X2166772D01*
X2167465Y4343D01*
X2171465D01*
X2172159Y5036D01*
X2176865D01*
X2177595Y5181D01*
X2178214Y5594D01*
X2178627Y6213D01*
X2178772Y6943D01*
Y7271D01*
X2185730D01*
Y3730D01*
X2193010D01*
X2193640Y2460D01*
X2193067Y1706D01*
X2193012Y1496D01*
X2192964Y1444D01*
X2151716D01*
X2151186Y2435D01*
X2151178Y2713D01*
X2151454Y4100D01*
X2151161Y5571D01*
X2150769Y6158D01*
X2151447Y7428D01*
X2160159D01*
Y6943D01*
D02*
G37*
G36*
X1973960Y24326D02*
X1973399Y23952D01*
X1972566Y22705D01*
X1972273Y21234D01*
X1972566Y19763D01*
X1973399Y18516D01*
X1974046Y18084D01*
Y10761D01*
X1974046Y10761D01*
X1974203Y9968D01*
X1974652Y9296D01*
X1975913Y8035D01*
X1976585Y7586D01*
X1977378Y7428D01*
X1977378Y7428D01*
X1978731D01*
Y7100D01*
X1978876Y6370D01*
X1979289Y5752D01*
X1979908Y5339D01*
X1980638Y5193D01*
X1985344D01*
X1986038Y4500D01*
X1990038D01*
X1990731Y5193D01*
X1995438D01*
X1996167Y5339D01*
X1996786Y5752D01*
X1997199Y6370D01*
X1997344Y7100D01*
Y7428D01*
X2005712D01*
Y3730D01*
X2012969D01*
X2013604Y2460D01*
X2013039Y1706D01*
X2012985Y1496D01*
X2012939Y1444D01*
X1962973D01*
X1962487Y2617D01*
X1967748Y7878D01*
X1967748Y7878D01*
X1968197Y8550D01*
X1968355Y9343D01*
Y18084D01*
X1969001Y18516D01*
X1969834Y19763D01*
X1970127Y21234D01*
X1969834Y22705D01*
X1969001Y23952D01*
X1968441Y24326D01*
X1968826Y25596D01*
X1973574D01*
X1973960Y24326D01*
D02*
G37*
G36*
X1884699Y2617D02*
X1884213Y1444D01*
X1846418D01*
X1845841Y2364D01*
X1846434Y3500D01*
X1853113D01*
Y8230D01*
X1847113D01*
X1841113D01*
Y6450D01*
X1840987Y6247D01*
X1839843Y5358D01*
X1838577Y5358D01*
X1838377Y5276D01*
X1838162Y5294D01*
X1837907Y5214D01*
X1836883Y5965D01*
Y15270D01*
X1825343D01*
Y11572D01*
X1821423D01*
Y11900D01*
X1821278Y12630D01*
X1820864Y13248D01*
X1820246Y13662D01*
X1819516Y13807D01*
X1814810D01*
X1814116Y14500D01*
X1810130D01*
X1809242Y15408D01*
X1812334Y18500D01*
X1868815D01*
X1884699Y2617D01*
D02*
G37*
G36*
X1444077Y10877D02*
Y7100D01*
X1444223Y6370D01*
X1444636Y5752D01*
X1445254Y5339D01*
X1445984Y5193D01*
X1450691D01*
X1451384Y4500D01*
X1455384D01*
X1456077Y5193D01*
X1460784D01*
X1461514Y5339D01*
X1462132Y5752D01*
X1462545Y6370D01*
X1462691Y7100D01*
Y7428D01*
X1465924D01*
Y3730D01*
X1473010D01*
X1473640Y2460D01*
X1473071Y1712D01*
X1473015Y1503D01*
X1472961Y1444D01*
X1306418D01*
X1305839Y2365D01*
X1306013Y2698D01*
Y8230D01*
X1301283D01*
Y6274D01*
X1300423Y5358D01*
X1298567Y5357D01*
X1298368Y5274D01*
X1298152Y5293D01*
X1298078Y5269D01*
X1297053Y6019D01*
Y15270D01*
X1285513D01*
Y11572D01*
X1282384D01*
Y11900D01*
X1282239Y12630D01*
X1281826Y13248D01*
X1281207Y13662D01*
X1280477Y13807D01*
X1275771D01*
X1275078Y14500D01*
X1271077D01*
X1270384Y13807D01*
X1265677D01*
X1264948Y13662D01*
X1264329Y13248D01*
X1263916Y12630D01*
X1263771Y11900D01*
Y11572D01*
X1126932D01*
X1113039Y25465D01*
X1112732Y25670D01*
X1113117Y26940D01*
X1428014D01*
X1444077Y10877D01*
D02*
G37*
G36*
X831047Y25670D02*
X830979Y25568D01*
X830667Y24000D01*
X830979Y22431D01*
X831868Y21102D01*
X833197Y20213D01*
X834766Y19901D01*
X836334Y20213D01*
X837664Y21102D01*
X838216Y21928D01*
X1110716D01*
X1124609Y8035D01*
X1125281Y7586D01*
X1126074Y7428D01*
X1126074Y7428D01*
X1263771D01*
Y7100D01*
X1263916Y6370D01*
X1264329Y5752D01*
X1264948Y5339D01*
X1265677Y5193D01*
X1270384D01*
X1271077Y4500D01*
X1275078D01*
X1275771Y5193D01*
X1280477D01*
X1281207Y5339D01*
X1281826Y5752D01*
X1282239Y6370D01*
X1282384Y7100D01*
Y7428D01*
X1285513D01*
Y3730D01*
X1293010D01*
X1293640Y2460D01*
X1293067Y1706D01*
X1293012Y1497D01*
X1292964Y1444D01*
X1092418D01*
X1091840Y2365D01*
X1092190Y3034D01*
Y8230D01*
X1087459D01*
Y6101D01*
X1086426Y5358D01*
X1084570Y5357D01*
X1084500Y5328D01*
X1083712Y5617D01*
X1083230Y5970D01*
Y15270D01*
X1071690D01*
Y11572D01*
X1068939D01*
Y11900D01*
X1068794Y12630D01*
X1068381Y13248D01*
X1067762Y13662D01*
X1067032Y13807D01*
X1062326D01*
X1061632Y14500D01*
X1057797D01*
X1057440Y14656D01*
X1056639Y15303D01*
X1056547Y15769D01*
X1056097Y16441D01*
X1056097Y16441D01*
X1053098Y19441D01*
X1052425Y19890D01*
X1051633Y20048D01*
X1051632Y20048D01*
X852596D01*
X852596Y20048D01*
X851803Y19890D01*
X851131Y19441D01*
X843831Y12141D01*
X842856Y12335D01*
X841287Y12023D01*
X839958Y11135D01*
X839069Y9805D01*
X838757Y8236D01*
X839069Y6668D01*
X839137Y6566D01*
X838458Y5296D01*
X821566D01*
X821040Y6566D01*
X825589Y11116D01*
X825589Y11116D01*
X826038Y11788D01*
X826196Y12581D01*
Y24047D01*
X829089Y26940D01*
X830368D01*
X831047Y25670D01*
D02*
G37*
G36*
X1051686Y14993D02*
X1051580Y14225D01*
X1051334Y13549D01*
X1050884Y13248D01*
X1050471Y12630D01*
X1050326Y11900D01*
Y7100D01*
X1050471Y6370D01*
X1050884Y5752D01*
X1051503Y5339D01*
X1052233Y5193D01*
X1056939D01*
X1057632Y4500D01*
X1061632D01*
X1062326Y5193D01*
X1067032D01*
X1067762Y5339D01*
X1068381Y5752D01*
X1068794Y6370D01*
X1068939Y7100D01*
Y7428D01*
X1071690D01*
Y3730D01*
X1079010D01*
X1079640Y2460D01*
X1079067Y1706D01*
X1079012Y1497D01*
X1078963Y1444D01*
X912418D01*
X911840Y2365D01*
X912130Y2921D01*
Y9500D01*
X913400D01*
Y10770D01*
X919400D01*
Y15500D01*
X920502Y15904D01*
X1050774D01*
X1051686Y14993D01*
D02*
G37*
G36*
X694084Y17344D02*
X695170Y16388D01*
X695170Y16388D01*
Y13502D01*
X693204D01*
X692474Y13357D01*
X691856Y12944D01*
X691443Y12325D01*
X691297Y11595D01*
Y6795D01*
X691443Y6066D01*
X691856Y5447D01*
X692474Y5034D01*
X693204Y4889D01*
X697911D01*
X698604Y4196D01*
X702604D01*
X703297Y4889D01*
X708004D01*
X708734Y5034D01*
X709352Y5447D01*
X709765Y6066D01*
X709911Y6795D01*
Y7124D01*
X711724D01*
Y3730D01*
X719010D01*
X719640Y2460D01*
X719067Y1706D01*
X719012Y1497D01*
X718963Y1444D01*
X679552D01*
X679066Y2617D01*
X693839Y17390D01*
X694084Y17344D01*
D02*
G37*
G36*
X615513Y2617D02*
X615027Y1444D01*
X552707D01*
X552135Y2365D01*
X552733Y3500D01*
X559403D01*
Y8230D01*
X553403D01*
X547403D01*
Y6441D01*
X547315Y6360D01*
X546133Y5591D01*
X544527Y5591D01*
X544443Y5557D01*
X543694Y5827D01*
X543173Y6207D01*
Y15270D01*
X531633D01*
Y12364D01*
X528710D01*
Y12692D01*
X528565Y13422D01*
X528152Y14040D01*
X527533Y14454D01*
X526803Y14599D01*
X522097D01*
X521403Y15292D01*
X517752D01*
X516768Y16299D01*
X516824Y17283D01*
X517302Y17602D01*
X518190Y18932D01*
X518502Y20500D01*
X518190Y22069D01*
X518122Y22170D01*
X518801Y23440D01*
X594690D01*
X615513Y2617D01*
D02*
G37*
%LPC*%
G36*
X3367249Y125249D02*
X3366119D01*
Y121978D01*
X3369390D01*
Y123108D01*
X3369227Y123927D01*
X3368763Y124622D01*
X3368068Y125086D01*
X3367249Y125249D01*
D02*
G37*
G36*
X3382049Y123389D02*
X3378819D01*
Y120459D01*
X3382049D01*
Y123389D01*
D02*
G37*
G36*
X3376279D02*
X3373049D01*
Y120459D01*
X3376279D01*
Y123389D01*
D02*
G37*
G36*
X3382049Y85463D02*
X3378819D01*
Y82533D01*
X3382049D01*
Y85463D01*
D02*
G37*
G36*
X3376279D02*
X3373049D01*
Y82533D01*
X3376279D01*
Y85463D01*
D02*
G37*
G36*
X3419730Y119001D02*
X3418000D01*
Y118771D01*
X3408230D01*
Y100231D01*
X3408928D01*
Y88175D01*
X3404785Y84032D01*
X3404336Y83360D01*
X3404178Y82567D01*
X3404178Y82567D01*
Y67459D01*
X3403532Y67027D01*
X3402699Y65780D01*
X3402406Y64309D01*
X3402699Y62838D01*
X3403532Y61591D01*
X3404779Y60757D01*
X3406250Y60465D01*
X3407721Y60757D01*
X3408968Y61591D01*
X3409801Y62838D01*
X3410094Y64309D01*
X3409801Y65780D01*
X3408968Y67027D01*
X3408322Y67459D01*
Y81709D01*
X3412465Y85852D01*
X3412465Y85852D01*
X3413730Y85515D01*
X3413928Y85376D01*
Y72395D01*
X3413148Y71874D01*
X3412315Y70627D01*
X3412022Y69156D01*
X3412315Y67685D01*
X3413148Y66438D01*
X3414395Y65605D01*
X3415866Y65312D01*
X3417337Y65605D01*
X3418584Y66438D01*
X3419417Y67685D01*
X3419710Y69156D01*
X3419417Y70627D01*
X3418584Y71874D01*
X3418072Y72216D01*
Y100001D01*
X3419730D01*
Y109501D01*
Y119001D01*
D02*
G37*
G36*
X3459000Y155001D02*
X3457270D01*
Y145501D01*
Y136001D01*
X3459000D01*
Y138945D01*
X3460270Y139198D01*
X3460368Y138961D01*
X3461493Y137495D01*
X3462960Y136369D01*
X3464667Y135662D01*
X3466500Y135421D01*
X3467275Y135523D01*
X3468230Y134685D01*
Y117231D01*
X3478770D01*
Y137771D01*
X3473155D01*
X3472593Y138910D01*
X3472632Y138961D01*
X3473339Y140669D01*
X3473581Y142501D01*
X3473339Y144334D01*
X3472632Y146042D01*
X3471507Y147508D01*
X3470040Y148633D01*
X3468333Y149341D01*
X3466500Y149582D01*
X3464667Y149341D01*
X3462960Y148633D01*
X3461493Y147508D01*
X3460368Y146042D01*
X3460270Y145805D01*
X3459000Y146058D01*
Y155001D01*
D02*
G37*
G36*
Y119001D02*
X3457270D01*
Y110772D01*
X3459000D01*
Y119001D01*
D02*
G37*
G36*
Y108231D02*
X3457270D01*
Y100001D01*
X3459000D01*
Y108231D01*
D02*
G37*
G36*
X4484025Y124537D02*
X4482896D01*
Y121265D01*
X4486167D01*
Y122395D01*
X4486004Y123215D01*
X4485540Y123910D01*
X4484845Y124374D01*
X4484025Y124537D01*
D02*
G37*
G36*
X4499382Y122881D02*
X4496152D01*
Y119951D01*
X4499382D01*
Y122881D01*
D02*
G37*
G36*
X4493612D02*
X4490382D01*
Y119951D01*
X4493612D01*
Y122881D01*
D02*
G37*
G36*
X4499601Y86412D02*
X4496371D01*
Y83482D01*
X4499601D01*
Y86412D01*
D02*
G37*
G36*
X4493831D02*
X4490601D01*
Y83482D01*
X4493831D01*
Y86412D01*
D02*
G37*
G36*
X4161420Y39888D02*
X4158189D01*
Y36958D01*
X4161420D01*
Y39888D01*
D02*
G37*
G36*
X4155649D02*
X4152420D01*
Y36958D01*
X4155649D01*
Y39888D01*
D02*
G37*
G36*
X4147920Y34388D02*
X4144689D01*
Y32658D01*
X4147920D01*
Y34388D01*
D02*
G37*
G36*
X4441500Y15500D02*
X4436770D01*
Y10770D01*
X4441500D01*
Y15500D01*
D02*
G37*
G36*
X4434230D02*
X4429500D01*
Y10770D01*
X4434230D01*
Y15500D01*
D02*
G37*
G36*
X4441500Y8230D02*
X4436770D01*
Y3500D01*
X4441500D01*
Y8230D01*
D02*
G37*
G36*
X1152450Y124681D02*
X1149220D01*
Y121751D01*
X1152450D01*
Y124681D01*
D02*
G37*
G36*
X1146680D02*
X1143450D01*
Y121751D01*
X1146680D01*
Y124681D01*
D02*
G37*
G36*
X1152450Y85920D02*
X1149220D01*
Y82990D01*
X1152450D01*
Y85920D01*
D02*
G37*
G36*
X1146680D02*
X1143450D01*
Y82990D01*
X1146680D01*
Y85920D01*
D02*
G37*
G36*
X2250280Y125262D02*
X2249150D01*
Y121991D01*
X2252421D01*
Y123121D01*
X2252258Y123941D01*
X2251794Y124635D01*
X2251099Y125099D01*
X2250280Y125262D01*
D02*
G37*
G36*
X2266486Y123565D02*
X2263256D01*
Y120635D01*
X2266486D01*
Y123565D01*
D02*
G37*
G36*
X2260716D02*
X2257486D01*
Y120635D01*
X2260716D01*
Y123565D01*
D02*
G37*
G36*
X2266488Y85354D02*
X2263258D01*
Y82424D01*
X2266488D01*
Y85354D01*
D02*
G37*
G36*
X2260718D02*
X2257488D01*
Y82424D01*
X2260718D01*
Y85354D01*
D02*
G37*
G36*
X2107154Y46083D02*
X2105683Y45790D01*
X2104436Y44957D01*
X2103602Y43710D01*
X2103310Y42239D01*
X2103602Y40768D01*
X2104436Y39521D01*
X2105683Y38688D01*
X2107154Y38395D01*
X2108625Y38688D01*
X2109872Y39521D01*
X2110705Y40768D01*
X2110997Y42239D01*
X2110705Y43710D01*
X2109872Y44957D01*
X2108625Y45790D01*
X2107154Y46083D01*
D02*
G37*
G36*
X2070274Y33456D02*
Y30226D01*
X2073204D01*
Y33456D01*
X2070274D01*
D02*
G37*
G36*
X2763410Y39883D02*
X2760641D01*
Y36614D01*
X2761371D01*
X2762151Y36769D01*
X2762813Y37212D01*
X2763255Y37873D01*
X2763410Y38654D01*
Y39883D01*
D02*
G37*
G36*
X2758101D02*
X2755332D01*
Y38654D01*
X2755487Y37873D01*
X2755929Y37212D01*
X2756591Y36769D01*
X2757371Y36614D01*
X2758101D01*
Y39883D01*
D02*
G37*
G36*
X2846120Y61053D02*
X2842850D01*
Y58284D01*
X2844081D01*
X2844861Y58439D01*
X2845522Y58881D01*
X2845964Y59542D01*
X2846120Y60323D01*
Y61053D01*
D02*
G37*
G36*
X2852692Y60960D02*
X2849423D01*
Y60230D01*
X2849578Y59450D01*
X2850020Y58788D01*
X2850681Y58346D01*
X2851462Y58191D01*
X2852692D01*
Y60960D01*
D02*
G37*
G36*
X2851985Y42139D02*
X2850755D01*
X2849975Y41984D01*
X2849313Y41542D01*
X2848871Y40880D01*
X2848716Y40100D01*
Y39370D01*
X2851985D01*
Y42139D01*
D02*
G37*
G36*
Y36830D02*
X2848716D01*
Y36100D01*
X2848871Y35320D01*
X2849313Y34658D01*
X2849975Y34216D01*
X2850755Y34061D01*
X2851985D01*
Y36830D01*
D02*
G37*
G36*
Y30241D02*
X2850755D01*
X2849975Y30085D01*
X2849313Y29643D01*
X2848871Y28982D01*
X2848716Y28201D01*
Y27472D01*
X2851985D01*
Y30241D01*
D02*
G37*
G36*
X634900Y63400D02*
X630420D01*
Y61770D01*
X634900D01*
Y63400D01*
D02*
G37*
G36*
Y59230D02*
X630420D01*
Y57600D01*
X634900D01*
Y59230D01*
D02*
G37*
G36*
X699740Y57000D02*
X696810D01*
Y53770D01*
X699740D01*
Y57000D01*
D02*
G37*
G36*
X2681859Y40741D02*
X2681129D01*
Y37472D01*
X2683899D01*
Y38702D01*
X2683743Y39482D01*
X2683301Y40143D01*
X2682640Y40585D01*
X2681859Y40741D01*
D02*
G37*
G36*
X2678589D02*
X2677859D01*
X2677079Y40585D01*
X2676418Y40143D01*
X2675976Y39482D01*
X2675820Y38702D01*
Y37472D01*
X2678589D01*
Y40741D01*
D02*
G37*
G36*
X2693449Y40741D02*
X2692719D01*
Y37471D01*
X2695488D01*
Y38702D01*
X2695333Y39482D01*
X2694891Y40143D01*
X2694229Y40585D01*
X2693449Y40741D01*
D02*
G37*
G36*
X2690179D02*
X2689449D01*
X2688669Y40585D01*
X2688007Y40143D01*
X2687565Y39482D01*
X2687410Y38702D01*
Y37471D01*
X2690179D01*
Y40741D01*
D02*
G37*
G36*
X2702498Y40529D02*
X2701368D01*
X2700549Y40366D01*
X2699854Y39902D01*
X2699390Y39207D01*
X2699227Y38388D01*
Y37258D01*
X2702498D01*
Y40529D01*
D02*
G37*
G36*
X2787498Y15500D02*
X2782768D01*
Y10770D01*
X2787498D01*
Y15500D01*
D02*
G37*
G36*
Y8230D02*
X2782768D01*
Y3500D01*
X2787498D01*
Y8230D01*
D02*
G37*
G36*
X1902400Y55270D02*
X1897920D01*
Y53640D01*
X1902400D01*
Y55270D01*
D02*
G37*
G36*
X1970132Y54230D02*
X1967202D01*
Y50999D01*
X1970132D01*
Y54230D01*
D02*
G37*
G36*
X1902400Y51100D02*
X1897920D01*
Y49470D01*
X1902400D01*
Y51100D01*
D02*
G37*
G36*
X1877077Y36074D02*
X1875606Y35781D01*
X1874359Y34948D01*
X1873526Y33701D01*
X1873233Y32230D01*
X1873526Y30759D01*
X1874359Y29512D01*
X1875606Y28679D01*
X1877077Y28386D01*
X1878548Y28679D01*
X1879795Y29512D01*
X1880628Y30759D01*
X1880921Y32230D01*
X1880628Y33701D01*
X1879795Y34948D01*
X1878548Y35781D01*
X1877077Y36074D01*
D02*
G37*
G36*
X1898893Y20087D02*
X1897422Y19795D01*
X1896175Y18961D01*
X1895342Y17715D01*
X1895049Y16243D01*
X1895342Y14772D01*
X1896175Y13525D01*
X1897422Y12692D01*
X1898893Y12400D01*
X1900364Y12692D01*
X1901611Y13525D01*
X1902444Y14772D01*
X1902737Y16243D01*
X1902444Y17715D01*
X1901611Y18961D01*
X1900364Y19795D01*
X1898893Y20087D01*
D02*
G37*
G36*
X1493694Y15500D02*
X1488964D01*
Y10770D01*
X1493694D01*
Y15500D01*
D02*
G37*
G36*
X1486424D02*
X1481694D01*
Y10770D01*
X1486424D01*
Y15500D01*
D02*
G37*
G36*
X1673480D02*
X1668750D01*
Y10770D01*
X1673480D01*
Y15500D01*
D02*
G37*
G36*
X1666210D02*
X1661480D01*
Y10770D01*
X1666210D01*
Y15500D01*
D02*
G37*
G36*
X1673480Y8230D02*
X1668750D01*
Y3500D01*
X1673480D01*
Y8230D01*
D02*
G37*
G36*
X1493694Y8230D02*
X1488964D01*
Y3500D01*
X1493694D01*
Y8230D01*
D02*
G37*
G36*
X2819313Y39704D02*
X2816544D01*
Y36435D01*
X2817274D01*
X2818055Y36590D01*
X2818716Y37032D01*
X2819158Y37694D01*
X2819313Y38474D01*
Y39704D01*
D02*
G37*
G36*
X2814004D02*
X2811235D01*
Y38474D01*
X2811390Y37694D01*
X2811832Y37032D01*
X2812494Y36590D01*
X2813274Y36435D01*
X2814004D01*
Y39704D01*
D02*
G37*
G36*
X4261505Y15500D02*
X4256775D01*
Y10770D01*
X4261505D01*
Y15500D01*
D02*
G37*
G36*
X4254235D02*
X4249505D01*
Y10770D01*
X4254235D01*
Y15500D01*
D02*
G37*
G36*
X2967402D02*
X2962672D01*
Y10770D01*
X2967402D01*
Y15500D01*
D02*
G37*
G36*
X2960132D02*
X2955403D01*
Y10770D01*
X2960132D01*
Y15500D01*
D02*
G37*
G36*
X4081454D02*
X4076724D01*
Y10770D01*
X4081454D01*
Y15500D01*
D02*
G37*
G36*
X4074184D02*
X4069454D01*
Y10770D01*
X4074184D01*
Y15500D01*
D02*
G37*
G36*
X4024048Y20665D02*
X4022479Y20353D01*
X4021150Y19464D01*
X4020261Y18134D01*
X4019949Y16566D01*
X4020261Y14998D01*
X4021150Y13668D01*
X4022038Y13074D01*
Y11530D01*
X4022038Y11530D01*
X4022196Y10737D01*
X4022645Y10065D01*
X4023885Y8825D01*
X4023885Y8825D01*
X4024557Y8376D01*
X4025350Y8218D01*
X4025350Y8218D01*
X4030393D01*
Y7600D01*
X4030539Y6870D01*
X4030952Y6252D01*
X4031570Y5839D01*
X4032300Y5694D01*
X4037007D01*
X4037700Y5000D01*
X4041700D01*
X4042393Y5694D01*
X4047100D01*
X4047830Y5839D01*
X4048448Y6252D01*
X4048861Y6870D01*
X4048972Y7428D01*
X4053684D01*
Y3730D01*
X4065224D01*
Y15270D01*
X4053684D01*
Y11572D01*
X4049007D01*
Y12400D01*
X4048861Y13130D01*
X4048448Y13748D01*
X4047830Y14162D01*
X4047100Y14307D01*
X4042393D01*
X4041700Y15000D01*
X4037700D01*
X4037007Y14307D01*
X4032300D01*
X4031570Y14162D01*
X4030952Y13748D01*
X4030539Y13130D01*
X4030393Y12400D01*
Y12362D01*
X4027278D01*
X4026892Y13632D01*
X4026946Y13668D01*
X4027834Y14998D01*
X4028146Y16566D01*
X4027834Y18134D01*
X4026946Y19464D01*
X4025616Y20353D01*
X4024048Y20665D01*
D02*
G37*
G36*
X4261505Y8230D02*
X4256775D01*
Y3500D01*
X4261505D01*
Y8230D01*
D02*
G37*
G36*
X4081454Y8230D02*
X4076724D01*
Y3500D01*
X4081454D01*
Y8230D01*
D02*
G37*
G36*
X4074184D02*
X4069454D01*
Y3500D01*
X4074184D01*
Y8230D01*
D02*
G37*
G36*
X3901500Y8230D02*
X3896770D01*
Y3500D01*
X3901500D01*
Y8230D01*
D02*
G37*
G36*
X2967402Y8230D02*
X2962672D01*
Y3500D01*
X2967402D01*
Y8230D01*
D02*
G37*
G36*
X2732126Y56813D02*
X2728857D01*
Y56083D01*
X2729012Y55303D01*
X2729455Y54641D01*
X2730116Y54199D01*
X2730897Y54044D01*
X2732126D01*
Y56813D01*
D02*
G37*
G36*
X199490Y15500D02*
X194760D01*
Y10770D01*
X199490D01*
Y15500D01*
D02*
G37*
G36*
X192220D02*
X187490D01*
Y10770D01*
X192220D01*
Y15500D01*
D02*
G37*
G36*
X199490Y8230D02*
X194760D01*
Y3500D01*
X199490D01*
Y8230D01*
D02*
G37*
G36*
X379344D02*
X374614D01*
Y3500D01*
X379344D01*
Y8230D01*
D02*
G37*
G36*
X2606973Y15500D02*
X2602243D01*
Y10770D01*
X2606973D01*
Y15500D01*
D02*
G37*
G36*
X2599703D02*
X2594973D01*
Y10770D01*
X2599703D01*
Y15500D01*
D02*
G37*
G36*
X2033481Y8230D02*
X2028752D01*
Y3500D01*
X2033481D01*
Y8230D01*
D02*
G37*
G36*
X3721500Y8230D02*
X3716770D01*
Y3500D01*
X3721500D01*
Y8230D01*
D02*
G37*
G36*
X3541498Y8230D02*
X3536768D01*
Y3500D01*
X3541498D01*
Y8230D01*
D02*
G37*
G36*
X780150Y15230D02*
X778420D01*
Y12000D01*
X780150D01*
Y15230D01*
D02*
G37*
G36*
X3327500Y15500D02*
X3322770D01*
Y10770D01*
X3327500D01*
Y15500D01*
D02*
G37*
G36*
X3320230D02*
X3315500D01*
Y10770D01*
X3320230D01*
Y15500D01*
D02*
G37*
G36*
X3327500Y8230D02*
X3322770D01*
Y3500D01*
X3327500D01*
Y8230D01*
D02*
G37*
G36*
X739494Y15500D02*
X734764D01*
Y10770D01*
X739494D01*
Y15500D01*
D02*
G37*
G36*
Y8230D02*
X734764D01*
Y3500D01*
X739494D01*
Y8230D01*
D02*
G37*
G36*
X3147525Y15500D02*
X3142795D01*
Y10770D01*
X3147525D01*
Y15500D01*
D02*
G37*
G36*
X3140255D02*
X3135525D01*
Y10770D01*
X3140255D01*
Y15500D01*
D02*
G37*
G36*
X3147525Y8230D02*
X3142795D01*
Y3500D01*
X3147525D01*
Y8230D01*
D02*
G37*
G36*
X2427550Y8230D02*
X2422820D01*
Y3500D01*
X2427550D01*
Y8230D01*
D02*
G37*
G36*
X2213500Y8230D02*
X2208770D01*
Y3500D01*
X2213500D01*
Y8230D01*
D02*
G37*
G36*
X1853113Y15500D02*
X1848383D01*
Y10770D01*
X1853113D01*
Y15500D01*
D02*
G37*
G36*
X1845843D02*
X1841113D01*
Y10770D01*
X1845843D01*
Y15500D01*
D02*
G37*
G36*
X1313283D02*
X1308553D01*
Y10770D01*
X1313283D01*
Y15500D01*
D02*
G37*
G36*
X1306013D02*
X1301283D01*
Y10770D01*
X1306013D01*
Y15500D01*
D02*
G37*
G36*
X1313283Y8230D02*
X1308553D01*
Y3500D01*
X1313283D01*
Y8230D01*
D02*
G37*
G36*
X1099460Y15500D02*
X1094730D01*
Y10770D01*
X1099460D01*
Y15500D01*
D02*
G37*
G36*
X1092190D02*
X1087459D01*
Y10770D01*
X1092190D01*
Y15500D01*
D02*
G37*
G36*
X1099460Y8230D02*
X1094730D01*
Y3500D01*
X1099460D01*
Y8230D01*
D02*
G37*
G36*
X919400Y8230D02*
X914670D01*
Y3500D01*
X919400D01*
Y8230D01*
D02*
G37*
G36*
X559403Y15500D02*
X554673D01*
Y10770D01*
X559403D01*
Y15500D01*
D02*
G37*
G36*
X552133D02*
X547403D01*
Y10770D01*
X552133D01*
Y15500D01*
D02*
G37*
%LPD*%
D15*
X3494398Y53216D02*
X3495920Y54737D01*
X3441230Y53216D02*
X3494398D01*
X3099925Y49140D02*
X3358035D01*
X3362110Y53216D02*
X3441230D01*
X3358035Y49140D02*
X3362110Y53216D01*
X3088015Y37230D02*
X3099925Y49140D01*
X3441230Y53216D02*
Y109271D01*
X3441000Y109501D02*
X3441230Y109271D01*
X3014227Y37230D02*
X3088015D01*
X3436000Y130001D02*
X3441000Y125001D01*
Y109501D02*
Y125001D01*
X2385765Y50116D02*
X2658719D01*
X2680717Y56195D02*
X2696515D01*
X2680656Y56256D02*
X2680717Y56195D01*
X2664859Y56256D02*
X2680656D01*
X2658719Y50116D02*
X2664859Y56256D01*
X3436000Y130001D02*
Y145501D01*
X2989501Y61957D02*
X3014227Y37230D01*
X2977266Y61957D02*
X2989501D01*
X2764435Y64976D02*
X2767728Y61683D01*
X2117796Y62500D02*
X2118053Y62758D01*
X2138932D01*
X2162920Y38770D01*
X2040710Y62500D02*
X2117796D01*
X2040480Y62270D02*
X2040710Y62500D01*
X2705295Y64976D02*
X2764435D01*
X2696515Y56195D02*
X2705295Y64976D01*
X2931394Y22762D02*
X2938022Y29390D01*
Y34073D01*
X2938493Y34544D01*
X2921528Y22762D02*
X2931394D01*
X2931187Y34544D02*
X2938493D01*
X800715Y20270D02*
X806810Y14175D01*
X795650Y20270D02*
X800715D01*
X795420Y20500D02*
X795650Y20270D01*
X2049534Y28358D02*
X2053111D01*
X2059806D01*
X2049534D02*
Y33175D01*
X2928648Y34583D02*
Y39583D01*
X2931148Y34583D02*
X2931187Y34544D01*
X2921398Y22632D02*
X2921528Y22762D01*
X2921398Y22333D02*
Y22632D01*
X4156920Y49758D02*
X4170934D01*
X4156870Y49708D02*
X4156920Y49758D01*
X4139470Y49708D02*
X4156870D01*
X4139420Y49658D02*
X4139470Y49708D01*
X4088582Y49582D02*
X4097505Y40658D01*
X4110419D01*
X2846524Y51211D02*
X2846983Y50752D01*
X2853949D01*
X2854408Y50292D01*
X2696515Y56195D02*
X2716722Y35988D01*
X2040480Y62230D02*
Y62270D01*
X2059806Y28358D02*
X2060404Y28956D01*
X2049480Y33230D02*
X2049534Y33175D01*
X1950889Y42986D02*
X1957333Y49430D01*
X1950889Y42239D02*
Y42986D01*
X1946020Y37370D02*
X1950889Y42239D01*
X1957333Y49430D02*
Y49730D01*
X1943170Y37370D02*
X1946020D01*
X779120Y60500D02*
X781120Y58500D01*
X786420Y49501D02*
Y58500D01*
Y49501D02*
X786420Y49500D01*
X781120Y58500D02*
X786420D01*
X2976992Y62230D02*
X2977266Y61957D01*
X3983310Y71000D02*
X4008180D01*
X3983180Y70870D02*
X3983310Y71000D01*
X3983180Y70432D02*
Y70870D01*
X4009610Y66252D02*
X4014080Y61782D01*
X4009610Y66252D02*
Y69570D01*
X4008180Y71000D02*
X4009610Y69570D01*
X679054Y42116D02*
X686940D01*
X675670Y45500D02*
X679054Y42116D01*
X686940D02*
Y52500D01*
D18*
X177490Y9500D02*
D03*
X193490D02*
D03*
X2027482D02*
D03*
X2011481D02*
D03*
X4435500D02*
D03*
X4419500D02*
D03*
X2961403D02*
D03*
X2945403D02*
D03*
X1487695D02*
D03*
X1471694D02*
D03*
X4255505D02*
D03*
X4239505D02*
D03*
X2781498D02*
D03*
X2765498D02*
D03*
X1307283D02*
D03*
X1291283D02*
D03*
X4075454D02*
D03*
X4059454D02*
D03*
X2600973D02*
D03*
X2584973D02*
D03*
X1093459D02*
D03*
X1077459D02*
D03*
X3895500D02*
D03*
X3879500D02*
D03*
X2421550D02*
D03*
X2405550D02*
D03*
X913400D02*
D03*
X897400D02*
D03*
X3715500D02*
D03*
X3699500D02*
D03*
X2207500D02*
D03*
X2191500D02*
D03*
X733494D02*
D03*
X717494D02*
D03*
X3535498D02*
D03*
X3519498D02*
D03*
X553403D02*
D03*
X537403D02*
D03*
X3321500D02*
D03*
X3305500D02*
D03*
X1847113D02*
D03*
X1831113D02*
D03*
X373344D02*
D03*
X357344D02*
D03*
X3141525D02*
D03*
X3125525D02*
D03*
X1667480D02*
D03*
X1651480D02*
D03*
D19*
X2703768Y35988D02*
D03*
Y25988D02*
D03*
X2716722D02*
D03*
Y35988D02*
D03*
X2729736D02*
D03*
Y25988D02*
D03*
X2743427D02*
D03*
Y35988D02*
D03*
X951664Y120200D02*
D03*
Y110200D02*
D03*
X4481625Y109995D02*
D03*
Y119995D02*
D03*
X3005164Y111470D02*
D03*
Y121470D02*
D03*
X1529420Y111216D02*
D03*
Y121216D02*
D03*
X4299709Y111470D02*
D03*
Y121470D02*
D03*
X2823988Y111470D02*
D03*
Y121470D02*
D03*
X1348390Y111470D02*
D03*
Y121470D02*
D03*
X4120920Y111470D02*
D03*
Y121470D02*
D03*
X2644951Y111470D02*
D03*
Y121470D02*
D03*
X1134132Y110200D02*
D03*
Y120200D02*
D03*
X3942331Y111470D02*
D03*
Y121470D02*
D03*
X2465928Y111470D02*
D03*
Y121470D02*
D03*
X3761940Y111724D02*
D03*
Y121724D02*
D03*
X2247880Y110721D02*
D03*
Y120721D02*
D03*
X772420Y110200D02*
D03*
Y120200D02*
D03*
X3579920Y111470D02*
D03*
Y121470D02*
D03*
X2069270Y111470D02*
D03*
Y121470D02*
D03*
X592119Y110200D02*
D03*
Y120200D02*
D03*
X3364849Y110708D02*
D03*
Y120708D02*
D03*
X1890920Y111216D02*
D03*
Y121216D02*
D03*
X413654Y110200D02*
D03*
Y120200D02*
D03*
X3184279Y111724D02*
D03*
Y121724D02*
D03*
X1709417Y111470D02*
D03*
Y121470D02*
D03*
X231320Y110200D02*
D03*
Y120200D02*
D03*
D20*
X2976992Y62230D02*
D03*
X2966992D02*
D03*
X4223903Y9500D02*
D03*
X4213904D02*
D03*
X2745897Y9604D02*
D03*
X2735897D02*
D03*
X1278077Y9500D02*
D03*
X1268077D02*
D03*
X4044700Y10000D02*
D03*
X4034700D02*
D03*
X2571290Y9342D02*
D03*
X2561290D02*
D03*
X1064632Y9500D02*
D03*
X1054632D02*
D03*
X3865042Y8890D02*
D03*
X3855042D02*
D03*
X2390765Y9342D02*
D03*
X2380765D02*
D03*
X882551Y9500D02*
D03*
X872551D02*
D03*
X3683951Y8890D02*
D03*
X3673951D02*
D03*
X2174465Y9343D02*
D03*
X2164465D02*
D03*
X705604Y9196D02*
D03*
X695604D02*
D03*
X3504170Y8890D02*
D03*
X3494170D02*
D03*
X1993038Y9500D02*
D03*
X1983038D02*
D03*
X524403Y10292D02*
D03*
X514403D02*
D03*
X3289369Y9147D02*
D03*
X3279369D02*
D03*
X1817116Y9500D02*
D03*
X1807116D02*
D03*
X344444D02*
D03*
X334444D02*
D03*
X4400384D02*
D03*
X4390384D02*
D03*
X2933348Y8916D02*
D03*
X2923348D02*
D03*
X1458384Y9500D02*
D03*
X1448384D02*
D03*
X3111613Y9447D02*
D03*
X3101613D02*
D03*
X1637976Y9500D02*
D03*
X1627976D02*
D03*
X178720Y25142D02*
D03*
X188720D02*
D03*
D21*
X2759371Y41153D02*
D03*
Y51153D02*
D03*
X2770801D02*
D03*
Y41153D02*
D03*
X2872761Y118528D02*
D03*
Y108528D02*
D03*
X2917568Y96348D02*
D03*
Y106348D02*
D03*
X2815274Y40974D02*
D03*
Y50974D02*
D03*
X2803844D02*
D03*
Y40974D02*
D03*
X2872912Y95392D02*
D03*
Y85392D02*
D03*
X2679859Y36202D02*
D03*
Y26202D02*
D03*
X2858708Y95537D02*
D03*
Y85537D02*
D03*
X2691449Y26202D02*
D03*
Y36202D02*
D03*
D22*
X2853255Y13720D02*
D03*
X2863255D02*
D03*
X2782430Y44444D02*
D03*
X2792430D02*
D03*
X2853255Y38100D02*
D03*
X2863255D02*
D03*
X2841581Y73752D02*
D03*
X2831581D02*
D03*
X2853962Y62230D02*
D03*
X2863962D02*
D03*
X2875971Y9394D02*
D03*
X2885971D02*
D03*
X2853255Y26202D02*
D03*
X2863255D02*
D03*
X2841581Y62323D02*
D03*
X2831581D02*
D03*
X2853962Y73752D02*
D03*
X2863962D02*
D03*
X2908898Y9345D02*
D03*
X2898898D02*
D03*
X2743397Y58083D02*
D03*
X2733397D02*
D03*
D23*
X2886874Y105705D02*
D03*
X2903874D02*
D03*
X2886874Y92704D02*
D03*
X2903874D02*
D03*
D24*
X3473500Y127501D02*
D03*
X3393500D02*
D03*
D25*
X3456000Y145501D02*
D03*
Y109501D02*
D03*
X3451000Y145501D02*
D03*
Y109501D02*
D03*
X3446000Y145501D02*
D03*
Y109501D02*
D03*
X3441000Y145501D02*
D03*
Y109501D02*
D03*
X3436000Y145501D02*
D03*
Y109501D02*
D03*
X3431000Y145501D02*
D03*
Y109501D02*
D03*
X3426000Y145501D02*
D03*
Y109501D02*
D03*
X3421000Y145501D02*
D03*
Y109501D02*
D03*
X3416000Y145501D02*
D03*
Y109501D02*
D03*
X3411000Y145501D02*
D03*
Y109501D02*
D03*
D26*
X951664Y95277D02*
D03*
Y86677D02*
D03*
X964364Y95036D02*
D03*
Y86436D02*
D03*
Y111781D02*
D03*
Y120381D02*
D03*
X4494883Y118681D02*
D03*
Y110081D02*
D03*
X3017864Y119951D02*
D03*
Y111351D02*
D03*
X1541866Y119697D02*
D03*
Y111097D02*
D03*
X4495101Y87682D02*
D03*
Y96282D02*
D03*
X3017864Y86697D02*
D03*
Y95296D02*
D03*
X1541866Y87194D02*
D03*
Y95794D02*
D03*
X4481772Y87682D02*
D03*
Y96282D02*
D03*
X3005164Y87186D02*
D03*
Y95787D02*
D03*
X1529420Y87212D02*
D03*
Y95812D02*
D03*
X4312409Y87724D02*
D03*
Y96324D02*
D03*
X2837196Y119951D02*
D03*
Y111351D02*
D03*
X1360074Y86237D02*
D03*
Y94837D02*
D03*
X4312409Y119951D02*
D03*
Y111351D02*
D03*
X2837196Y86333D02*
D03*
Y94932D02*
D03*
X1360074Y120181D02*
D03*
Y111581D02*
D03*
X4299709Y87724D02*
D03*
Y96324D02*
D03*
X2823988Y86333D02*
D03*
Y94932D02*
D03*
X1348390Y86237D02*
D03*
Y94837D02*
D03*
X4133620Y87885D02*
D03*
Y96485D02*
D03*
X2657651Y86932D02*
D03*
Y95533D02*
D03*
X1147950Y120481D02*
D03*
Y111881D02*
D03*
X4133620Y119951D02*
D03*
Y111351D02*
D03*
X2657651Y119951D02*
D03*
Y111351D02*
D03*
X1147950Y87190D02*
D03*
Y95790D02*
D03*
X4120834Y87648D02*
D03*
Y96248D02*
D03*
X2644951Y86932D02*
D03*
Y95533D02*
D03*
X1134132Y87137D02*
D03*
Y95737D02*
D03*
X3955031Y87979D02*
D03*
Y96579D02*
D03*
X2478628Y86901D02*
D03*
Y95501D02*
D03*
X3955031Y119951D02*
D03*
Y111351D02*
D03*
X2478628Y119951D02*
D03*
Y111351D02*
D03*
X3942331Y87689D02*
D03*
Y96289D02*
D03*
X2465928Y87101D02*
D03*
Y95701D02*
D03*
X3774641Y120205D02*
D03*
Y111605D02*
D03*
X2261988Y86624D02*
D03*
Y95224D02*
D03*
X785927Y118681D02*
D03*
Y110081D02*
D03*
X3774641Y86770D02*
D03*
Y95370D02*
D03*
X2261986Y119365D02*
D03*
Y110765D02*
D03*
X785927Y86655D02*
D03*
Y95255D02*
D03*
X3377549Y86733D02*
D03*
Y95332D02*
D03*
X1902858Y86926D02*
D03*
Y95526D02*
D03*
X426354Y87601D02*
D03*
Y96201D02*
D03*
X3761940Y86770D02*
D03*
Y95370D02*
D03*
X2247913Y86780D02*
D03*
Y95380D02*
D03*
X772022Y86655D02*
D03*
Y95255D02*
D03*
X3377549Y119189D02*
D03*
Y110589D02*
D03*
X1903112Y120797D02*
D03*
Y112197D02*
D03*
X426420Y118681D02*
D03*
Y110081D02*
D03*
X3364849Y86733D02*
D03*
Y95332D02*
D03*
X1890920Y86926D02*
D03*
Y95526D02*
D03*
X413654Y86801D02*
D03*
Y95401D02*
D03*
X3593407Y86724D02*
D03*
Y95324D02*
D03*
X2081970Y119951D02*
D03*
Y111351D02*
D03*
X604819Y86955D02*
D03*
Y95555D02*
D03*
X3593383Y119951D02*
D03*
Y111351D02*
D03*
X2081970Y86426D02*
D03*
Y95026D02*
D03*
X604819Y121081D02*
D03*
Y112481D02*
D03*
X3196979Y120205D02*
D03*
Y111605D02*
D03*
X1722117Y87048D02*
D03*
Y95648D02*
D03*
X244920Y120681D02*
D03*
Y112081D02*
D03*
X3196979Y87186D02*
D03*
Y95787D02*
D03*
X1722117Y119951D02*
D03*
Y111351D02*
D03*
X244920Y87679D02*
D03*
Y96279D02*
D03*
X3579920Y86887D02*
D03*
Y95486D02*
D03*
X2069270Y86426D02*
D03*
Y95026D02*
D03*
X592119Y87055D02*
D03*
Y95655D02*
D03*
X3184279Y87186D02*
D03*
Y95787D02*
D03*
X1709417Y87048D02*
D03*
Y95648D02*
D03*
X231320Y86579D02*
D03*
Y95179D02*
D03*
X4156920Y41158D02*
D03*
Y49758D02*
D03*
D27*
X2903898Y47083D02*
D03*
D28*
X2886398Y71833D02*
D03*
X2891398D02*
D03*
X2896398D02*
D03*
X2901398D02*
D03*
X2906398D02*
D03*
X2911398D02*
D03*
X2916398D02*
D03*
X2921398D02*
D03*
Y22333D02*
D03*
X2916398D02*
D03*
X2911398D02*
D03*
X2906398D02*
D03*
X2901398D02*
D03*
X2896398D02*
D03*
X2891398D02*
D03*
X2886398D02*
D03*
X3983180Y30932D02*
D03*
X3968180D02*
D03*
Y70432D02*
D03*
X3983180D02*
D03*
X648420Y70250D02*
D03*
X668420Y35750D02*
D03*
X663420D02*
D03*
X658460Y35760D02*
D03*
X653420Y35750D02*
D03*
X648420D02*
D03*
X643420D02*
D03*
Y70250D02*
D03*
X653420D02*
D03*
X658420D02*
D03*
X663420D02*
D03*
X668420D02*
D03*
X1915920Y62120D02*
D03*
X1935920Y27620D02*
D03*
X1930920D02*
D03*
X1925960Y27630D02*
D03*
X1920920Y27620D02*
D03*
X1915920D02*
D03*
X1910920D02*
D03*
Y62120D02*
D03*
X1920920D02*
D03*
X1925920D02*
D03*
X1930920D02*
D03*
X1935920D02*
D03*
D29*
X2928648Y64583D02*
D03*
Y59583D02*
D03*
Y54583D02*
D03*
Y49583D02*
D03*
Y44583D02*
D03*
Y39583D02*
D03*
Y34583D02*
D03*
Y29583D02*
D03*
X2879148D02*
D03*
Y34583D02*
D03*
Y39583D02*
D03*
Y44583D02*
D03*
Y49583D02*
D03*
Y54583D02*
D03*
Y59583D02*
D03*
Y64583D02*
D03*
X3958430Y43182D02*
D03*
X3992930Y63182D02*
D03*
Y58182D02*
D03*
X3992920Y53222D02*
D03*
X3992930Y48182D02*
D03*
Y43182D02*
D03*
Y38182D02*
D03*
X3958430D02*
D03*
Y48182D02*
D03*
Y53182D02*
D03*
Y58182D02*
D03*
Y63182D02*
D03*
X636170Y45500D02*
D03*
Y60500D02*
D03*
X675670D02*
D03*
Y45500D02*
D03*
X1903670Y37370D02*
D03*
Y52370D02*
D03*
X1943170D02*
D03*
Y37370D02*
D03*
D30*
X3975680Y50682D02*
D03*
D31*
X655920Y53000D02*
D03*
X1923420Y44870D02*
D03*
D32*
X4126920Y38158D02*
D03*
D33*
X4114419Y49658D02*
D03*
X4119420D02*
D03*
X4124420D02*
D03*
X4129420D02*
D03*
X4134420D02*
D03*
X4139420D02*
D03*
Y26658D02*
D03*
X4134420D02*
D03*
X4129420D02*
D03*
X4124420D02*
D03*
X4119420D02*
D03*
X4114419D02*
D03*
X2040480Y62230D02*
D03*
X2035479D02*
D03*
Y29230D02*
D03*
X2040480D02*
D03*
X786420Y16500D02*
D03*
X781420D02*
D03*
Y49500D02*
D03*
X786420D02*
D03*
D34*
X4143419Y40658D02*
D03*
Y35658D02*
D03*
X4110419D02*
D03*
Y40658D02*
D03*
X2026480Y58230D02*
D03*
Y53230D02*
D03*
Y48230D02*
D03*
Y43230D02*
D03*
Y38230D02*
D03*
Y33230D02*
D03*
X2049480D02*
D03*
Y38230D02*
D03*
Y43230D02*
D03*
Y48230D02*
D03*
Y53230D02*
D03*
Y58230D02*
D03*
X795420Y45500D02*
D03*
Y40500D02*
D03*
Y35500D02*
D03*
Y30500D02*
D03*
Y25500D02*
D03*
Y20500D02*
D03*
X772420D02*
D03*
Y25500D02*
D03*
Y30500D02*
D03*
Y35500D02*
D03*
Y40500D02*
D03*
Y45500D02*
D03*
D35*
X2037979Y45730D02*
D03*
X783920Y33000D02*
D03*
D36*
X2784930Y25908D02*
D03*
X2801930D02*
D03*
X2815410D02*
D03*
X2832410D02*
D03*
D37*
X2863008Y50292D02*
D03*
X2854408D02*
D03*
X2069004Y28956D02*
D03*
X2060404D02*
D03*
X770520Y60500D02*
D03*
X779120D02*
D03*
X4016780Y71000D02*
D03*
X4008180D02*
D03*
X1965932Y49730D02*
D03*
X1957333D02*
D03*
X695540Y52500D02*
D03*
X686940D02*
D03*
D59*
X939224Y95632D02*
D03*
X4461349Y95731D02*
D03*
X2987171Y96293D02*
D03*
X1513338Y95731D02*
D03*
X4281273D02*
D03*
X2807335D02*
D03*
X1333299Y95632D02*
D03*
X4101223Y95731D02*
D03*
X2627242D02*
D03*
X1119240Y95632D02*
D03*
X3921322Y95731D02*
D03*
X2447318D02*
D03*
X3741238D02*
D03*
X2233219D02*
D03*
X759265D02*
D03*
X3561367Y95632D02*
D03*
X2053250D02*
D03*
X579228D02*
D03*
X3347238Y95731D02*
D03*
X1873336Y95632D02*
D03*
X399212D02*
D03*
X3167283D02*
D03*
X1693328Y95831D02*
D03*
X219258Y95632D02*
D03*
D60*
X2931464Y59583D02*
X2940529D01*
X2957445Y62323D02*
X2966899D01*
X2966992Y62230D01*
X2778275Y44374D02*
X2782430D01*
X2775055Y41153D02*
X2778275Y44374D01*
X2770801Y41153D02*
X2775055D01*
X2770801Y33841D02*
Y41153D01*
X4495101Y88444D02*
X4501670D01*
X3774641Y87470D02*
X3784077D01*
X3593407Y87724D02*
X3599349D01*
X3377549Y87633D02*
X3385104D01*
X3017864Y87396D02*
X3025090D01*
X2887798Y105705D02*
Y117923D01*
X2870707Y95537D02*
X2872536Y93708D01*
X2848701Y109719D02*
X2849366Y109054D01*
X2916732Y97046D02*
X2921148Y92630D01*
X2837196Y87633D02*
X2842242D01*
X2903898Y47083D02*
X2921398Y64583D01*
X4435213Y9500D02*
X4436430Y10717D01*
X2961403Y9345D02*
X2975179D01*
X2852989Y63903D02*
Y74168D01*
Y63903D02*
X2854662Y62230D01*
X2905148Y45833D02*
X2914597Y36384D01*
X2895338Y36023D02*
X2905148Y45833D01*
X2841418Y74168D02*
X2852989D01*
X2840785Y74238D02*
X2841581Y73443D01*
X2815410Y35963D02*
Y41538D01*
X2759371Y39716D02*
Y41674D01*
X2881648Y34583D02*
X2893898D01*
X2881648D02*
Y39583D01*
X2846524Y37226D02*
X2853788D01*
X2854662Y38100D01*
X2691449Y38388D02*
X2691652D01*
X2679859Y35208D02*
X2680853Y36202D01*
X2854662Y25908D02*
Y38100D01*
X2447411Y121470D02*
X2465928D01*
X2258930Y120721D02*
X2263181Y116470D01*
X2233469Y120721D02*
X2247880D01*
X1890920Y121216D02*
X1908904D01*
X2478628Y87801D02*
X2486253D01*
X1721878Y87809D02*
X1726718D01*
X1902858Y87626D02*
X1908720D01*
X1348390Y121470D02*
X1364893D01*
X941031Y121320D02*
X962902D01*
X964364Y119858D01*
X592119Y121031D02*
X609414D01*
X579378Y120970D02*
X592058D01*
X413605Y120929D02*
X415219Y119315D01*
X220308Y120865D02*
X244736D01*
X1147950Y118681D02*
X1149750Y120481D01*
X964364Y119858D02*
X964887D01*
X1541866Y87212D02*
X1547773D01*
X1147950Y87890D02*
X1154586D01*
X759774Y120656D02*
X772420D01*
X774395Y118681D01*
X415219Y119315D02*
X436006D01*
X604819Y87347D02*
X610962D01*
X426354Y87093D02*
X437569D01*
X2657651Y87633D02*
X2659097Y86186D01*
X1360074Y86131D02*
X1366219D01*
X964269Y76775D02*
Y86436D01*
X786420Y78125D02*
Y87216D01*
X604704Y74500D02*
Y87233D01*
X244920Y86409D02*
X253150D01*
X2759371Y50274D02*
X2770801D01*
X2779194Y59547D02*
X2787242D01*
X2770801Y51153D02*
X2779194Y59547D01*
X2770801Y50274D02*
Y51153D01*
X2921148Y87886D02*
Y92630D01*
X2916398Y105980D02*
Y115839D01*
X2903874Y105980D02*
X2916398D01*
X2903874Y105705D02*
Y105980D01*
X2887160Y92704D02*
X2891398Y88466D01*
X2885866Y92712D02*
X2885874Y92704D01*
X2885866Y92712D02*
X2887315D01*
X2873086Y104732D02*
Y108203D01*
Y104732D02*
X2876981Y100837D01*
X2877741D01*
X2885866Y92712D01*
X2872761Y108528D02*
X2873086Y108203D01*
X2887798Y117923D02*
X2887988D01*
X2873366D02*
X2887798D01*
X2887988D02*
X2888016Y117951D01*
X2872761Y118528D02*
X2873366Y117923D01*
X2848076Y18399D02*
Y18908D01*
Y18399D02*
X2852755Y13720D01*
X2853255D01*
X2835046Y28544D02*
X2840196D01*
X2832410Y25908D02*
X2835046Y28544D01*
X2844958Y25840D02*
Y31202D01*
X2843314Y24196D02*
X2844958Y25840D01*
X2843314Y12200D02*
Y24196D01*
Y12200D02*
X2849024Y6490D01*
X2830006Y46153D02*
X2844958Y31202D01*
X2849024Y6490D02*
X2864935D01*
X2877432Y18987D02*
Y21172D01*
X2877707Y21448D01*
Y29419D01*
X2864935Y6490D02*
X2877432Y18987D01*
X2879904Y29419D02*
X2880068Y29583D01*
X2881648D01*
X2877707Y29419D02*
X2879904D01*
X2830006Y46153D02*
Y53531D01*
X2867912Y13651D02*
X2871127Y16866D01*
Y42965D01*
X2872536Y44374D01*
X2878939D01*
X2879148Y44583D01*
X2863324Y13651D02*
X2867912D01*
X2872205Y49583D02*
X2879148D01*
X2863262Y40640D02*
X2872205Y49583D01*
X2863255Y13720D02*
X2863324Y13651D01*
X2803844Y50274D02*
X2815274D01*
X2814373Y51175D02*
X2815274Y50274D01*
X2782430Y44374D02*
Y44444D01*
Y36341D02*
Y44374D01*
Y36341D02*
X2784930Y33841D01*
X2782430Y51506D02*
X2785270Y54345D01*
X2782430Y44546D02*
Y51506D01*
X2759371Y33841D02*
Y39716D01*
X2759371Y41674D02*
X2759371Y41674D01*
X2795630Y41674D02*
X2803844D01*
X2792930Y44374D02*
X2795630Y41674D01*
X2792430Y44374D02*
X2792930D01*
X2804144Y28122D02*
Y41674D01*
X2815160Y25908D02*
X2815410Y26158D01*
X2784930Y25908D02*
Y33841D01*
X2842750Y62441D02*
X2843250D01*
X2841581Y62458D02*
Y73443D01*
X2848359Y67550D02*
X2848942D01*
X2831189Y74642D02*
Y76834D01*
X2830785Y74238D02*
X2831189Y74642D01*
X2833785Y79430D02*
X2871127D01*
X2831189Y76834D02*
X2833785Y79430D01*
X2830785Y64453D02*
Y74238D01*
Y64453D02*
X2832780Y62458D01*
X2872912Y85392D02*
X2878466D01*
X2871961D02*
X2872912D01*
X2871961D02*
X2872107Y85537D01*
X2878466Y85392D02*
X2882536Y81321D01*
X2885874Y92704D02*
X2886874D01*
X2858708Y95537D02*
X2870707D01*
X2858708Y85537D02*
X2872107D01*
X2889095Y15745D02*
X2890760Y17409D01*
X2888943Y15593D02*
X2889095Y15745D01*
X2885148D02*
X2889095D01*
X2888805Y15593D02*
X2888943D01*
X2890760Y17409D02*
Y21695D01*
X2891398Y22333D01*
X2880364Y13651D02*
X2881381Y14668D01*
X2880364Y13287D02*
Y13651D01*
X2876471Y9394D02*
X2880364Y13287D01*
X2876107Y9394D02*
X2876471D01*
X2884071Y14668D02*
X2885148Y15745D01*
X2881381Y14668D02*
X2884071D01*
X2907511Y16051D02*
X2930956D01*
X2906398Y17164D02*
Y22333D01*
Y17164D02*
X2907511Y16051D01*
X2930956D02*
X2935792Y20887D01*
X2908898Y9053D02*
X2909061Y8890D01*
X2908898Y9053D02*
Y9345D01*
X2917320Y7088D02*
X2919732Y9500D01*
X2917320Y7088D02*
X2917320D01*
X2680853Y36202D02*
X2691449D01*
X2728362Y26044D02*
X2730692D01*
X2703684Y26202D02*
X2703960Y25926D01*
X2679859Y26608D02*
X2680266Y26202D01*
X2691449D01*
X2896328Y22336D02*
X2896398Y22266D01*
X2888067Y9345D02*
X2898898D01*
X2896398Y15490D02*
X2898996Y12891D01*
X2896398Y15490D02*
Y22266D01*
X2898996Y9443D02*
Y12891D01*
X2898898Y9345D02*
X2898996Y9443D01*
X2998468Y20887D02*
X3010209Y9147D01*
X2935792Y20887D02*
X2998468D01*
X2871127Y79430D02*
X2880687Y69870D01*
Y65221D02*
Y69870D01*
X2880049Y64583D02*
X2880687Y65221D01*
X2879148Y64583D02*
X2880049D01*
X2848076Y67313D02*
Y74133D01*
X2858708Y95537D02*
Y102959D01*
X2852613Y109054D02*
X2858708Y102959D01*
X2849366Y109054D02*
X2852613D01*
X2848701Y110787D02*
Y113956D01*
Y109719D02*
Y110787D01*
X2842242Y87633D02*
X2848701Y94091D01*
X2842706Y119951D02*
X2848701Y113956D01*
Y94091D02*
Y108651D01*
X2848701Y110787D02*
X2848701Y110787D01*
X2891398Y71833D02*
Y88466D01*
X1885000Y76644D02*
X1926469D01*
X1871522Y63166D02*
X1885000Y76644D01*
X1725341Y63166D02*
X1871522D01*
X1708980Y79527D02*
X1725341Y63166D01*
X1557793Y67942D02*
X1605315D01*
X1534295Y44444D02*
X1557793Y67942D01*
X854324Y44444D02*
X1534295D01*
X1865581Y35500D02*
X1891640Y61558D01*
X806000Y35500D02*
X1865581D01*
X1873531Y56375D02*
X1879386Y62230D01*
X1616882Y56375D02*
X1873531D01*
X1605315Y67942D02*
X1616882Y56375D01*
X1722117Y78232D02*
Y87048D01*
X845726Y53043D02*
X854324Y44444D01*
X841372Y53043D02*
X845726D01*
X818794Y7250D02*
X824124Y12581D01*
X770090Y7250D02*
X818794D01*
X763800Y13540D02*
X770090Y7250D01*
X824539Y64942D02*
X834766Y54715D01*
Y46173D02*
Y54715D01*
X801000Y40500D02*
X806000Y35500D01*
X795672Y30753D02*
X808756D01*
X809653Y29856D01*
X795420Y40500D02*
X801000D01*
X800806Y64942D02*
X824539D01*
X795420Y59555D02*
X800806Y64942D01*
X795420Y45500D02*
Y59555D01*
X762264Y60500D02*
X770520D01*
X749954Y48190D02*
X762264Y60500D01*
X749954Y46873D02*
Y48190D01*
X1113271Y58315D02*
X1134132Y79175D01*
X841372Y58315D02*
X1113271D01*
X831311Y68375D02*
X841372Y58315D01*
X736667Y42232D02*
X762810Y68375D01*
X831311D01*
X3416000Y69822D02*
X3416666Y69156D01*
X1891222Y61976D02*
X1891640Y61558D01*
X4109920Y23158D02*
X4114419Y27658D01*
X1903112Y60296D02*
X1910282D01*
X3775643Y47946D02*
X3776399Y47189D01*
X3364293Y47946D02*
X3775643D01*
X3321500Y9500D02*
X3322110Y8890D01*
X3335995D01*
X3377412Y76414D02*
Y86596D01*
X3377549Y86733D01*
X3456000Y130001D02*
Y145501D01*
Y109501D02*
Y130001D01*
X3426000Y125001D02*
Y145501D01*
X3421000Y120001D02*
X3426000Y125001D01*
X3421000Y109501D02*
Y120001D01*
X3034193Y64326D02*
X3377282D01*
X3400500Y87544D01*
X3101625Y54610D02*
X3348252D01*
X3101499Y54737D02*
X3101625Y54610D01*
X3387805Y102848D02*
Y115363D01*
Y90332D02*
Y102848D01*
X3406250Y64309D02*
Y82567D01*
X3411000Y87317D01*
Y109501D01*
X3456112Y73362D02*
Y92766D01*
X3451000Y97878D02*
X3456112Y92766D01*
X3451000Y97878D02*
Y109501D01*
X3757455Y37644D02*
X3761593Y41782D01*
X3172848Y37644D02*
X3757455D01*
X3172624Y37867D02*
X3172848Y37644D01*
X3446982Y42686D02*
X3447262Y42406D01*
X3447500Y94881D02*
Y98033D01*
X3446000Y99532D02*
X3447500Y98033D01*
X3446000Y99532D02*
Y109501D01*
X3435959Y98435D02*
X3436018Y98494D01*
Y109483D01*
X3012685Y18908D02*
X3092787D01*
X3116565Y42686D02*
X3446982D01*
X3092787Y18908D02*
X3116565Y42686D01*
X3436000Y109501D02*
X3436018Y109483D01*
X3364293Y87077D02*
X3364849Y87633D01*
X3364293Y79900D02*
Y87077D01*
X3499170Y62262D02*
X3745266D01*
X3488531Y72901D02*
X3499170Y62262D01*
X3745266D02*
X3752574Y69570D01*
X3927006D01*
X3488531Y72901D02*
Y151507D01*
X3927006Y69570D02*
X3935803Y78367D01*
X3416000Y145501D02*
Y157662D01*
X3411000Y145501D02*
Y162062D01*
X3390083Y30983D02*
X3390529Y31429D01*
X3109139Y30983D02*
X3390083D01*
X3257383Y25214D02*
X3415295D01*
X3245066Y12897D02*
X3257383Y25214D01*
X3231177Y12897D02*
X3245066D01*
X3415295Y25214D02*
X3422262Y32181D01*
X3422856Y8791D02*
X3446725D01*
X3412014Y19633D02*
X3422856Y8791D01*
X3261421Y19633D02*
X3412014D01*
X3459540Y21606D02*
X3906473D01*
X3446725Y8791D02*
X3459540Y21606D01*
X3422262Y32181D02*
X3931890D01*
X3941203Y22867D01*
X3246408Y4620D02*
X3261421Y19633D01*
X3477161Y16566D02*
X4008188D01*
X3469485Y8890D02*
X3477161Y16566D01*
X3421000Y133096D02*
Y145501D01*
X3431000Y89412D02*
Y109501D01*
X3447262Y163924D02*
X3476113D01*
X3441000Y157662D02*
X3447262Y163924D01*
X3441000Y145501D02*
Y157662D01*
X3579827Y54610D02*
X3738994D01*
X3739000Y54604D01*
X3580082Y79949D02*
Y87538D01*
X3416000Y69822D02*
Y109501D01*
X3431000Y145501D02*
Y159162D01*
X3426000Y95662D02*
Y109501D01*
X3267736Y8890D02*
X3279113D01*
X3279369Y9147D01*
X3446042Y133139D02*
X3446085Y133096D01*
X3446042Y133139D02*
Y145459D01*
X3446000Y145501D02*
X3446042Y145459D01*
X3451043Y159119D02*
X3451086Y159162D01*
X3451043Y145545D02*
Y159119D01*
X3451000Y145501D02*
X3451043Y145545D01*
X3476113Y163924D02*
X3488531Y151507D01*
X2658952Y45354D02*
X2664584Y50986D01*
X2675081D01*
X2180362Y45354D02*
X2658952D01*
X3446000Y145501D02*
X3446042Y145544D01*
X1920920Y62120D02*
Y69910D01*
X1893599Y80968D02*
X1933184D01*
X1541866Y75441D02*
Y87194D01*
X2655045Y69071D02*
X2806426D01*
X2654545Y68571D02*
X2655045Y69071D01*
X2788932Y61236D02*
X2818208D01*
X2787242Y59547D02*
X2788932Y61236D01*
X2665620Y62323D02*
X2666017Y61925D01*
X2018747Y58333D02*
X2018849Y58230D01*
X1984711Y52715D02*
X2025965D01*
X2001959Y48230D02*
X2026480D01*
X2069839Y52777D02*
X2070292Y52324D01*
X1984196Y52200D02*
X1984711Y52715D01*
X1976723Y47188D02*
X2000917D01*
X2025965Y52715D02*
X2026480Y53230D01*
X1976291Y47620D02*
X1976723Y47188D01*
X2000917D02*
X2001959Y48230D01*
X2049932Y52777D02*
X2069839D01*
X2018849Y58230D02*
X2026480D01*
X1977696Y60000D02*
X1977819D01*
X2291028Y54878D02*
X2648960D01*
X2287042Y58864D02*
X2291028Y54878D01*
X2185279Y58864D02*
X2287042D01*
X2183819Y57404D02*
X2185279Y58864D01*
X2806426Y69071D02*
X2823542Y86186D01*
X3790663Y57500D02*
X3799415Y66252D01*
X3761593Y57500D02*
X3790663D01*
X1964322Y63166D02*
X1973770D01*
X1976723Y66119D01*
X2644951Y86932D02*
Y87633D01*
X3799415Y66252D02*
X3944256D01*
X2648960Y54878D02*
X2656404Y62323D01*
X2171614Y54102D02*
X2180362Y45354D01*
X3087303Y9147D02*
X3109139Y30983D01*
X3087657Y29419D02*
X3099213Y40975D01*
X3015403Y29419D02*
X3087657D01*
X2932695Y71833D02*
X3099939D01*
X2925098Y79430D02*
X2932695Y71833D01*
X3099939D02*
X3102274Y74168D01*
X3025850Y55983D02*
X3034193Y64326D01*
X3950214Y72210D02*
X3968180D01*
X3762182Y79949D02*
Y87228D01*
X3944256Y66252D02*
X3950214Y72210D01*
X2918792Y79430D02*
X2925098D01*
X2916398Y77036D02*
X2918792Y79430D01*
X2916398Y71833D02*
Y77036D01*
X2907339Y82262D02*
X2914084D01*
X2908112Y88466D02*
X2917840D01*
X2906398Y81321D02*
X2907339Y82262D01*
X2917840Y88466D02*
X2918420Y87886D01*
X2903874Y92704D02*
X2908112Y88466D01*
X4116544Y66182D02*
X4286866D01*
X4111568Y61206D02*
X4116544Y66182D01*
X4042044Y61206D02*
X4111568D01*
X4117120Y61782D02*
X4465647D01*
X4113520Y58182D02*
X4117120Y61782D01*
X4046550Y58182D02*
X4113520D01*
X4108155Y64230D02*
X4120920Y76995D01*
X4037498Y64230D02*
X4108155D01*
X4040573Y43858D02*
X4051635Y54920D01*
X4026309Y43858D02*
X4040573D01*
X4005318Y22867D02*
X4026309Y43858D01*
X4051635Y54920D02*
X4116856D01*
X4036550Y48182D02*
X4046550Y58182D01*
X3997170Y48182D02*
X4036550D01*
X4033806Y52968D02*
X4042044Y61206D01*
X4001382Y52968D02*
X4033806D01*
X4029643Y56375D02*
X4037498Y64230D01*
X4007143Y56375D02*
X4029643D01*
X4005335Y58182D02*
X4007143Y56375D01*
X4116856Y54920D02*
X4118682Y53095D01*
X3010209Y9147D02*
X3087303D01*
X3989617Y30932D02*
X3992920Y27629D01*
X3941203Y22867D02*
X4005318D01*
X4003880Y33823D02*
X4004545Y33158D01*
X3946811Y38182D02*
X3958430D01*
X3847621Y40761D02*
X3860042Y53182D01*
X3968180Y30932D02*
X3975680D01*
X2030189Y74564D02*
X2062540D01*
X1935920Y67942D02*
X1940144Y72167D01*
X2027791D01*
X2030189Y74564D01*
X1931558Y62758D02*
Y67933D01*
X1930920Y62120D02*
X1931558Y62758D01*
X1949147Y69143D02*
X2029044D01*
X1943170Y63166D02*
X1949147Y69143D01*
X2029044D02*
X2031441Y71540D01*
X2164465D01*
X1935920Y62120D02*
Y67942D01*
X1976723Y66119D02*
X2030297D01*
X2032694Y68516D02*
X2161465D01*
X2030297Y66119D02*
X2032694Y68516D01*
X1943170Y52370D02*
Y63166D01*
X2169815Y66190D02*
X2233001D01*
X2164465Y71540D02*
X2169815Y66190D01*
X2263181Y68516D02*
X2636599D01*
X2257831Y63166D02*
X2263181Y68516D01*
X2166815Y63166D02*
X2257831D01*
X2161465Y68516D02*
X2166815Y63166D01*
X2233001Y66190D02*
X2247913Y81102D01*
X2636599Y68516D02*
X2644951Y76868D01*
X2049480Y58230D02*
X2049781Y58532D01*
X2087605D02*
X2092367Y53770D01*
X2136829D01*
X755419Y72738D02*
X833273D01*
X842856Y63155D01*
X951664Y86677D02*
Y87877D01*
Y78939D02*
Y86677D01*
X935880Y63155D02*
X951664Y78939D01*
X842856Y63155D02*
X935880D01*
X699740Y35500D02*
X772420D01*
X683286Y19046D02*
X699740Y35500D01*
X699345Y30102D02*
X772022D01*
X681883Y12640D02*
X699345Y30102D01*
X699019Y25500D02*
X772420D01*
X675870Y2350D02*
X699019Y25500D01*
X701472Y42232D02*
X736667D01*
X3005164Y87186D02*
Y87886D01*
Y79385D02*
Y87186D01*
X498558Y25512D02*
X595548D01*
X490743Y17697D02*
X498558Y25512D01*
X240132Y17697D02*
X490743D01*
X2691703Y48032D02*
X2691957Y48286D01*
X2691703Y38440D02*
Y48032D01*
X2691652Y38388D02*
X2691703Y38440D01*
X2691449Y36202D02*
Y38388D01*
Y36202D02*
X2691663Y35988D01*
X2703768D01*
X2654430Y28350D02*
X2664698Y18083D01*
X2774755D01*
X2471573Y28350D02*
X2654430D01*
X2691449Y26202D02*
X2703684D01*
X414054Y95801D02*
X414454Y96201D01*
X373344Y9500D02*
X389942D01*
X232688Y25142D02*
X240132Y17697D01*
X193490Y9500D02*
X205865D01*
X4281992D02*
X4390384D01*
X4272334Y19158D02*
X4281992Y9500D01*
X4144920Y19158D02*
X4272334D01*
X4127420Y11658D02*
X4127908Y12146D01*
X4132920Y18158D02*
X4134420Y19658D01*
X4127908Y12146D02*
Y20234D01*
X4400384Y9500D02*
X4419500D01*
X4436430Y10717D02*
X4452286D01*
X4435213Y9500D02*
X4435500D01*
X4255505D02*
X4269870D01*
X4198517D02*
X4213904D01*
X4198071Y9054D02*
X4198517Y9500D01*
X4223903D02*
X4239505D01*
X4082495Y17493D02*
X4083160Y18158D01*
X4082495Y16541D02*
Y17493D01*
X4075454Y9500D02*
X4082495Y16541D01*
X4045200Y9500D02*
X4059454D01*
X4044700Y10000D02*
X4045200Y9500D01*
X4025350Y10290D02*
X4034410D01*
X4034700Y10000D01*
X4024110Y11530D02*
X4025350Y10290D01*
X4024110Y11530D02*
Y16504D01*
X4024048Y16566D02*
X4024110Y16504D01*
X4101223Y13146D02*
X4111468D01*
X3878890Y8890D02*
X3879500Y9500D01*
X3865042Y8890D02*
X3878890D01*
X3837454D02*
X3851716D01*
X3837454Y8890D02*
X3837454Y8890D01*
X3913448Y10000D02*
X3913607Y10158D01*
X3896920Y10000D02*
X3913448D01*
X3716110Y8890D02*
X3728340D01*
X3715500Y9500D02*
X3716110Y8890D01*
X3698890D02*
X3699500Y9500D01*
X3683951Y8890D02*
X3698890D01*
X3660900D02*
X3673951D01*
X3482766D02*
X3494170D01*
X3504170D02*
X3504780Y9500D01*
X3519498D01*
X3535536Y9462D02*
X3547044D01*
X3535498Y9500D02*
X3535536Y9462D01*
X3305147Y9147D02*
X3305500Y9500D01*
X3289369Y9147D02*
X3305147D01*
X3208797Y4620D02*
X3246408D01*
X3193631Y19786D02*
X3208797Y4620D01*
X3141525Y9500D02*
X3142135Y8890D01*
X3154817D01*
X3111613Y9447D02*
X3111666Y9500D01*
X3125525D01*
X3101613Y9447D02*
X3111952Y19786D01*
X2945172Y8916D02*
X2945403Y9147D01*
X2933348Y8916D02*
X2945172D01*
X2919732Y9500D02*
X2922764D01*
X2923348Y8916D01*
X2882194Y19200D02*
Y19315D01*
X2719722Y9604D02*
X2735897D01*
X2746001Y9500D02*
X2765498D01*
X2745897Y9604D02*
X2746001Y9500D01*
X2781498D02*
X2781602Y9604D01*
X2796366D01*
X2602189Y10716D02*
X2616113D01*
X2600973Y9500D02*
X2602189Y10716D01*
X2584815Y9342D02*
X2584973Y9500D01*
X2571290Y9342D02*
X2584815D01*
X2560837Y8890D02*
X2561290Y9342D01*
X2521148Y8890D02*
X2560837D01*
X2513276Y16762D02*
X2521148Y8890D01*
X2366759Y9342D02*
X2380765D01*
X2364211Y11890D02*
X2366759Y9342D01*
X2421707D02*
X2434779D01*
X2421550Y9500D02*
X2421707Y9342D01*
X2118053Y16762D02*
X2513276D01*
X2111343Y21850D02*
X2461923D01*
X2463936Y19838D01*
X2468867D02*
X2472272Y23243D01*
X2110067Y8776D02*
X2118053Y16762D01*
X2104114Y14621D02*
X2111343Y21850D01*
X2405392Y9342D02*
X2405550Y9500D01*
X2390765Y9342D02*
X2405392D01*
X2472272Y23243D02*
X2652803D01*
X2104344Y28358D02*
X2463137D01*
X2463936Y19838D02*
X2468867D01*
X2463137Y28358D02*
X2466895Y24600D01*
X2191342Y9343D02*
X2191500Y9500D01*
X2174465Y9343D02*
X2191342D01*
X2149203Y9500D02*
X2164308D01*
X2164465Y9343D01*
X2148275Y8572D02*
X2149203Y9500D01*
X2148275Y4765D02*
Y8572D01*
X2147610Y4100D02*
X2148275Y4765D01*
X2275983Y99101D02*
X2280096D01*
X2283595Y102600D01*
X2025352Y21234D02*
X2030323Y16262D01*
X2032919D01*
X2034244Y14937D01*
Y14621D02*
Y14937D01*
Y14621D02*
X2104114D01*
X2035812Y17645D02*
X2093631D01*
X2034171Y19286D02*
X2035812Y17645D01*
X2031866Y19286D02*
X2034171D01*
X2024922Y26230D02*
X2031866Y19286D01*
X2035479Y24048D02*
Y29230D01*
X2093631Y17645D02*
X2104344Y28358D01*
X2652803Y23243D02*
X2655069Y20977D01*
X2032694Y9500D02*
X2037194Y5000D01*
X2027482Y9500D02*
X2032694D01*
X2037194Y5000D02*
X2041980D01*
X2465637Y76868D02*
Y87510D01*
X2012553Y26230D02*
X2024922D01*
X2005287Y33495D02*
X2012553Y26230D01*
X2009047Y21234D02*
X2025352D01*
X2002613Y27668D02*
X2009047Y21234D01*
X1961941Y27668D02*
X2002613D01*
X1993038Y9500D02*
X2011481D01*
X1976117Y10761D02*
Y21234D01*
Y10761D02*
X1977378Y9500D01*
X1983038D01*
X1959266Y2326D02*
X1966283Y9343D01*
X1887920Y2326D02*
X1959266D01*
X1869673Y20572D02*
X1887920Y2326D01*
X1954146Y8890D02*
X1954633D01*
X1951501Y6245D02*
X1954146Y8890D01*
X1917851Y6245D02*
X1951501D01*
X1915920Y8176D02*
X1917851Y6245D01*
X1915920Y8176D02*
Y27620D01*
X1925863Y12110D02*
X1927320Y10653D01*
X1944926D01*
X1961941Y27668D01*
X1925863Y12110D02*
Y27533D01*
X1977819Y60000D02*
X1978581Y59237D01*
X1982439Y63095D01*
X2034742D01*
X2644951Y76868D02*
Y86932D01*
X2093631Y8776D02*
X2110067D01*
X697242Y16388D02*
X699154Y18300D01*
X697242Y10833D02*
Y16388D01*
X695604Y9196D02*
X697242Y10833D01*
X699154Y18300D02*
X726415D01*
X787158Y14732D02*
X794958D01*
X804928Y25500D02*
X816471Y13958D01*
X774013Y14175D02*
X774100Y14262D01*
X834766Y24000D02*
X1111574D01*
X828231Y29012D02*
X1428872D01*
X786420Y15470D02*
Y16500D01*
Y15470D02*
X787158Y14732D01*
X774100Y14262D02*
X780682D01*
X1111574Y24000D02*
X1126074Y9500D01*
X824124Y24905D02*
X828231Y29012D01*
X1428872D02*
X1448384Y9500D01*
X795420Y25500D02*
X804928D01*
X1966849Y42675D02*
X2025925D01*
X1979980Y39370D02*
X2025339D01*
X1946466Y33495D02*
X2005287D01*
X1848437Y8176D02*
X1858355D01*
X1847113Y9500D02*
X1848437Y8176D01*
X1811476Y20572D02*
X1869673D01*
X1807116Y16212D02*
X1811476Y20572D01*
X1807116Y9500D02*
Y16212D01*
X1817116Y9500D02*
X1831113D01*
X1667480D02*
Y23370D01*
X1637976Y9500D02*
X1651480D01*
X1618360Y10300D02*
X1627176D01*
X1627976Y9500D01*
X1615160Y7100D02*
X1618360Y10300D01*
X1614791Y7100D02*
X1615160D01*
X1502435Y9500D02*
X1504835Y7100D01*
X1487695Y9500D02*
X1502435D01*
X1458384D02*
X1471694D01*
X1316205Y18422D02*
Y24102D01*
X1307283Y9500D02*
X1316205Y18422D01*
X1278077Y9500D02*
X1291283D01*
X1126074D02*
X1268077D01*
X761262Y53043D02*
X779377D01*
X1054632Y9500D02*
Y14976D01*
X1051633Y17976D02*
X1054632Y14976D01*
X852596Y17976D02*
X1051633D01*
X842856Y8236D02*
X852596Y17976D01*
X1102350Y8890D02*
X1105828Y5413D01*
Y5125D02*
Y5413D01*
X1094070Y8890D02*
X1102350D01*
X1093459Y9500D02*
X1094070Y8890D01*
X1064632Y9500D02*
X1077459D01*
X1158886Y105175D02*
Y115200D01*
Y92190D02*
Y105175D01*
X1181560D01*
X1147950Y96490D02*
Y110081D01*
X1147897Y96437D02*
X1147950Y96490D01*
X1134132Y96437D02*
X1147897D01*
X921762Y9500D02*
X924820Y6442D01*
Y6195D02*
Y6442D01*
X913400Y9500D02*
X921762D01*
X882160Y8890D02*
X882770Y9500D01*
X897400D01*
X882160Y8890D02*
X882300Y8750D01*
X743336Y41685D02*
X745283Y39738D01*
X771658D01*
X749954Y16118D02*
Y20261D01*
X743336Y9500D02*
X749954Y16118D01*
X733494Y9500D02*
X743336D01*
X717189Y9196D02*
X717494Y9500D01*
X705604Y9196D02*
X717189D01*
X618710Y2350D02*
X675870D01*
X619617Y12640D02*
X681883D01*
X625004Y19046D02*
X683286D01*
X1134132Y79175D02*
Y87137D01*
X688478Y29238D02*
X701472Y42232D01*
X666083Y29238D02*
X688478D01*
X553403Y10292D02*
X553651Y10540D01*
X566500D01*
X524403Y10292D02*
X537403D01*
X514403D02*
Y20500D01*
Y39000D02*
X605050D01*
X625004Y19046D01*
X595548Y25512D02*
X618710Y2350D01*
X495454Y31263D02*
X600994D01*
X487787Y23596D02*
X495454Y31263D01*
X320142Y23596D02*
X487787D01*
X320142Y9500D02*
X334444D01*
X177490Y23912D02*
X178720Y25142D01*
X177490Y9500D02*
Y23912D01*
X188720Y25142D02*
X232688D01*
X4461599Y120777D02*
X4462380Y119995D01*
X4481625D01*
X4461349Y95731D02*
X4481222D01*
X4481772Y96282D01*
X4281523Y120777D02*
X4299016D01*
X4299116Y95731D02*
X4299709Y96324D01*
X4281273Y95731D02*
X4299116D01*
X4101472Y120777D02*
X4120227D01*
X4120317Y95731D02*
X4120834Y96248D01*
X4101223Y95731D02*
X4120317D01*
X3921572Y120777D02*
X3941638D01*
X3942331Y96289D02*
Y111470D01*
X3941689Y95731D02*
X3942289Y96332D01*
X3942331Y96289D02*
X3942621Y96579D01*
X3921322Y95731D02*
X3941689D01*
X3761940Y96070D02*
X3762071Y96201D01*
X3761602Y95731D02*
X3761940Y96070D01*
X3762202D02*
X3774641D01*
X3762071Y96201D02*
X3762202Y96070D01*
X3761940Y96332D02*
X3762071Y96201D01*
X3761940Y95370D02*
Y96070D01*
X3760993Y120777D02*
X3761940Y121724D01*
X3741488Y120777D02*
X3760993D01*
X3741238Y95731D02*
X3761602D01*
X3761940Y96332D02*
Y111724D01*
X3774641Y96070D02*
Y111605D01*
X3579127Y120677D02*
X3579920Y121470D01*
X3561617Y120677D02*
X3579127D01*
X3580082Y96324D02*
X3593407D01*
X3579065Y95632D02*
X3579920Y96487D01*
X3580082Y96324D01*
X3561367Y95632D02*
X3579065D01*
X3579827Y87793D02*
X3580082Y87538D01*
X3347488Y120777D02*
X3347557Y120708D01*
X3364849D01*
Y96233D02*
X3377549D01*
X3364849Y95332D02*
Y96233D01*
X3364450Y95731D02*
X3364849Y95332D01*
X3347238Y95731D02*
X3364450D01*
X3167533Y120677D02*
X3183232D01*
X3204844Y89107D02*
Y117708D01*
X3202924Y87186D02*
X3204844Y89107D01*
X3196979Y87186D02*
X3202924D01*
X3196979Y76414D02*
Y87186D01*
X3184279Y95709D02*
X3196979D01*
X3184124Y95748D02*
X3184279Y95903D01*
X3184124Y95632D02*
Y95748D01*
X3184279Y95903D02*
Y111724D01*
X3196979Y95787D02*
Y111605D01*
Y95709D02*
Y95787D01*
X3184279Y95709D02*
Y95787D01*
X3167283Y95632D02*
X3184124D01*
X2906398Y71833D02*
Y81321D01*
X2890760Y72471D02*
X2891398Y71833D01*
X2882536Y81321D02*
X2882607D01*
X2886398Y77530D01*
X2987494Y120877D02*
X3004571D01*
X3005654Y95997D02*
X3017864D01*
X3005164D02*
X3005409Y96242D01*
X3004509Y95831D02*
X3004814Y96137D01*
X3005514Y96137D02*
X3005654Y95997D01*
X3005409Y96242D02*
X3005514Y96137D01*
X3005409Y96242D02*
X3005409D01*
X3005164Y96487D02*
X3005409Y96242D01*
X3005164Y95787D02*
Y95997D01*
X2987244Y95831D02*
X3004509D01*
X2901398Y60583D02*
X2903898Y58083D01*
X2901398Y60583D02*
Y71833D01*
X2921398Y64583D02*
Y71833D01*
X2896398D02*
Y78436D01*
X2899284Y81321D02*
Y82262D01*
X2896398Y78436D02*
X2899284Y81321D01*
X2886398Y71833D02*
Y77530D01*
X2879148Y49583D02*
Y54583D01*
X2903898Y49584D02*
Y58083D01*
X2903898Y47083D02*
X2905148Y45833D01*
X2916398Y22333D02*
Y34583D01*
X2863262Y38100D02*
Y40640D01*
X2928648Y29583D02*
X2931148D01*
X2923898D02*
X2928648D01*
X2837196Y119951D02*
X2842706D01*
X2823295Y120777D02*
X2823988Y121470D01*
X2807585Y120777D02*
X2823295D01*
X2823895Y96337D02*
Y111950D01*
X2823889Y96332D02*
X2837196D01*
X2823889D02*
X2823895Y96337D01*
X2823289Y95731D02*
X2823889Y96332D01*
X2837196D02*
Y111351D01*
X2807335Y95731D02*
X2823289D01*
X2644258Y120777D02*
X2644951Y121470D01*
X2627492Y120777D02*
X2644258D01*
X2663337Y86186D02*
X2668489Y91339D01*
X2659097Y86186D02*
X2663337D01*
X2657592Y96292D02*
Y111411D01*
Y96292D02*
X2658351Y95533D01*
X2644450Y95731D02*
X2644951Y96233D01*
X2657651Y95533D02*
X2658351D01*
X2644951D02*
X2657651D01*
X2627242Y95731D02*
X2644450D01*
X2447318Y121377D02*
X2447411Y121470D01*
X2447318Y121377D02*
X2447568Y121127D01*
Y120777D02*
Y121127D01*
X2465928Y95701D02*
X2478628D01*
X2465259Y95731D02*
X2465928Y96401D01*
X2478628Y95701D02*
Y111351D01*
X2447318Y95731D02*
X2465259D01*
X2275983Y99101D02*
Y115374D01*
X2271406Y119951D02*
X2275983Y115374D01*
X2262572Y119951D02*
X2271406D01*
X2275983Y90909D02*
Y99101D01*
X2271499Y86426D02*
X2275983Y90909D01*
X2262187Y86426D02*
X2271499D01*
X2261986Y119365D02*
X2262572Y119951D01*
X2261988Y86624D02*
X2262187Y86426D01*
X2062540Y74564D02*
X2069120Y81144D01*
Y87118D01*
X2069270D01*
X2247880Y120721D02*
X2258930D01*
X2248987Y95406D02*
X2248987D01*
X2247939D02*
X2248987D01*
X2249511Y94881D01*
X2247913Y95380D02*
X2247939Y95406D01*
X2233219Y95731D02*
X2247561D01*
X2247913Y95380D01*
X2261986Y94881D02*
Y109065D01*
X2249511Y94881D02*
X2261986D01*
X2080451Y121470D02*
X2081970Y119951D01*
X2069270Y121470D02*
X2080451D01*
X2088235Y119951D02*
X2090361Y117825D01*
X2081970Y119951D02*
X2088235D01*
X2068464Y95632D02*
X2068564Y95731D01*
X2081970Y95026D02*
Y111351D01*
X2069270Y95026D02*
X2081970D01*
X2069270Y96226D02*
Y111470D01*
X2069164Y96332D02*
X2069270Y96226D01*
X2053250Y95632D02*
X2068464D01*
X2087661Y86426D02*
X2090361Y89126D01*
X2081970Y86426D02*
X2087661D01*
X2090361Y89126D02*
Y103370D01*
X1912320Y91225D02*
Y103370D01*
X1908720Y87626D02*
X1912320Y91225D01*
X1908904Y121216D02*
X1912320Y117800D01*
X1901514Y94881D02*
X1903112Y96480D01*
X1890326Y95632D02*
X1890920Y96226D01*
X1892264Y94881D01*
X1890814Y96332D02*
X1890920Y96226D01*
X1892264Y94881D02*
X1901514D01*
X1890814Y96332D02*
X1890920Y96437D01*
Y95526D02*
Y96226D01*
X1873336Y95632D02*
X1890326D01*
X1731912Y93004D02*
Y116216D01*
X1728177Y119951D02*
X1731912Y116216D01*
X1722117Y119951D02*
X1728177D01*
X1710936D02*
X1722117D01*
X1709417Y121470D02*
X1710936Y119951D01*
X1726718Y87809D02*
X1731912Y93004D01*
X1693328Y95831D02*
X1722117D01*
Y111351D01*
Y87048D02*
Y87571D01*
X1721878Y87809D02*
X1722117Y87571D01*
X1541866Y87194D02*
Y87212D01*
X1547773D02*
X1553482Y92921D01*
X1529420Y87104D02*
X1529685Y86838D01*
Y57071D02*
Y86838D01*
X1529420Y96212D02*
X1541866D01*
Y111097D01*
X1529420Y95812D02*
Y96212D01*
X1529340Y95731D02*
X1529420Y95812D01*
X1513338Y95731D02*
X1529340D01*
X1348285Y64520D02*
Y86131D01*
X1364893Y121470D02*
X1371981Y114381D01*
X1366219Y86131D02*
X1371981Y91894D01*
X1360074Y62182D02*
Y86131D01*
X1348390Y96437D02*
X1360074D01*
Y110081D01*
X1347988Y96034D02*
X1348390Y96437D01*
Y111470D01*
Y86237D02*
Y87837D01*
X1348285Y86131D02*
X1348390Y86237D01*
X1347988Y96034D02*
X1348390Y95632D01*
Y94837D02*
Y95632D01*
X1333299D02*
X1347585D01*
X1134132Y120200D02*
X1134413Y120481D01*
X1147950D01*
X1153605D02*
X1158886Y115200D01*
X1149750Y120481D02*
X1153605D01*
X1147950Y87190D02*
Y87890D01*
Y57999D02*
Y87190D01*
X1134026Y95632D02*
X1134132Y95737D01*
X1119240Y95632D02*
X1134026D01*
X1120790Y120888D02*
X1133802D01*
X964364Y86436D02*
X972935D01*
X964269D02*
X964364D01*
X972935D02*
X976835Y90336D01*
X971410Y120381D02*
X976835Y114956D01*
X964364Y120381D02*
X971410D01*
X941462Y95632D02*
X951309D01*
X951664Y95277D01*
X964364Y110081D02*
Y111258D01*
Y96236D02*
Y110081D01*
X951664Y110200D02*
Y111320D01*
Y96477D02*
Y110200D01*
Y95277D02*
X951904Y95036D01*
X964364D01*
X772022Y80094D02*
Y86655D01*
X770052Y78125D02*
X772022Y80094D01*
X751931Y78125D02*
X770052D01*
X734306Y60500D02*
X751931Y78125D01*
X785927Y118681D02*
X795395D01*
X774395D02*
X785927D01*
X795395D02*
X798420Y115656D01*
X784484Y94881D02*
X785927Y96324D01*
X770448Y94881D02*
X784484D01*
X772022Y96455D02*
X772420Y96853D01*
X771298Y95731D02*
X772022Y96455D01*
X770448Y94881D02*
X771298Y95731D01*
X772022Y95255D02*
Y96455D01*
X759265Y95731D02*
X771298D01*
X772022Y86655D02*
Y87347D01*
X731696Y49015D02*
X755419Y72738D01*
X615264Y91649D02*
Y115181D01*
X610962Y87347D02*
X615264Y91649D01*
X609414Y121031D02*
X615264Y115181D01*
X592119Y96455D02*
X604819D01*
X586833Y95555D02*
X592119D01*
Y96455D02*
Y110200D01*
X586757Y95632D02*
X586833Y95555D01*
X579228Y95632D02*
X586757D01*
X604704Y87233D02*
X604819Y87347D01*
X595009Y67562D02*
X606536D01*
X592119Y70452D02*
X595009Y67562D01*
X592119Y70452D02*
Y87055D01*
X606536Y67562D02*
X636056Y97081D01*
X610015Y63250D02*
X638666Y91901D01*
X423756Y63250D02*
X610015D01*
X413654Y73352D02*
X423756Y63250D01*
X413654Y73352D02*
Y86801D01*
X413524Y96332D02*
X413654D01*
X413424Y95632D02*
X413654Y95401D01*
X399212Y95632D02*
X413424D01*
X413654Y95401D02*
X414054Y95801D01*
X414454Y96201D02*
X426354D01*
X231561Y79232D02*
X253293Y57500D01*
X611470D02*
X638463Y84492D01*
X253293Y57500D02*
X611470D01*
X231561Y79232D02*
Y84028D01*
X413654Y96332D02*
Y110200D01*
X400462Y120880D02*
X413555D01*
X248644Y120681D02*
X255420Y113905D01*
X244920Y120681D02*
X248644D01*
X244736Y120865D02*
X244920Y120681D01*
X231320Y96279D02*
X244920D01*
X230673Y95632D02*
X231320Y96279D01*
Y95179D02*
Y96279D01*
X219258Y95632D02*
X230673D01*
X2743427Y25988D02*
X2743507Y25908D01*
X2784930D01*
X2728819Y58083D02*
X2733397D01*
X2721722Y50986D02*
X2728819Y58083D01*
X2703768Y35988D02*
X2704022D01*
X2743794Y36354D02*
Y58083D01*
X2729736Y35988D02*
X2743427D01*
X2743794Y36354D01*
X2743397Y58083D02*
X2743794D01*
X2728307Y25988D02*
X2728362Y26044D01*
X2716722Y25988D02*
X2728307D01*
X2049781Y58532D02*
X2087605D01*
X2823910Y16794D02*
Y55535D01*
X2818208Y61236D02*
X2823910Y55535D01*
Y16794D02*
X2826988Y13716D01*
X2882194Y19315D02*
X2885212Y22333D01*
X2989361Y42232D02*
X3012685Y18908D01*
X2957880Y42232D02*
X2989361D01*
X2940529Y59583D02*
X2957880Y42232D01*
X3948889Y48182D02*
X3958430D01*
X2918898Y34583D02*
X2923898Y29583D01*
X2944470Y64583D02*
X2958779Y50274D01*
X2931148Y64583D02*
X2944470D01*
X2958779Y50274D02*
X2994548D01*
X3928272Y48182D02*
X3936811D01*
X3946811Y38182D01*
X2174800Y39370D02*
X2658555D01*
X2247913Y81102D02*
Y86780D01*
X2658555Y39370D02*
X2666017Y31908D01*
X2100397Y34008D02*
X2465915D01*
X2471573Y28350D01*
X2087605Y21215D02*
X2100397Y34008D01*
X2049480Y53230D02*
X2049932Y52777D01*
X2057134Y43230D02*
X2061402Y47498D01*
X2049480Y43230D02*
X2057134D01*
X2042507Y21215D02*
X2087605D01*
X2040480Y23243D02*
X2042507Y21215D01*
X2089420Y36620D02*
X2090361D01*
X2087811Y38230D02*
X2089420Y36620D01*
X2049480Y38230D02*
X2087811D01*
X1957516Y39370D02*
X1962310D01*
X1966294Y42120D02*
X1966849Y42675D01*
X1964322Y37358D02*
X1977968D01*
X1962310Y39370D02*
X1964322Y37358D01*
X1930920Y17713D02*
Y27620D01*
Y17713D02*
X1931558Y17075D01*
X1966283Y9343D02*
Y21234D01*
X1920920Y16243D02*
Y27620D01*
X1910920Y18439D02*
Y27620D01*
X1908737Y16256D02*
X1910920Y18439D01*
X2015045Y33230D02*
X2026480D01*
X761559Y53340D02*
X762192D01*
X759774Y44750D02*
X760524Y45500D01*
X761262Y53043D02*
X761559Y53340D01*
X760524Y45500D02*
X772420D01*
X771658Y39738D02*
X772420Y40500D01*
X824124Y12581D02*
Y24905D01*
X759774Y7250D02*
X763800Y3224D01*
Y13540D02*
Y17020D01*
X767280Y20500D02*
X772420D01*
X763800Y17020D02*
X767280Y20500D01*
X3013576Y55983D02*
X3025850D01*
X3002900Y66659D02*
X3013576Y55983D01*
X3837454Y50985D02*
X3844651Y58182D01*
X3958430D01*
X3385104Y87633D02*
X3387805Y90332D01*
X4503922Y103100D02*
Y115504D01*
Y90696D02*
Y103100D01*
X4324494Y104888D02*
Y115651D01*
Y94996D02*
Y104888D01*
X4124420Y40658D02*
X4126920Y38158D01*
X4124420Y40658D02*
Y49658D01*
X4129420Y35658D02*
X4143419D01*
X4126920Y38158D02*
X4129420Y35658D01*
X4156682Y35420D02*
X4156920Y35182D01*
X4143976Y35420D02*
X4156682D01*
X4143738Y35658D02*
X4143976Y35420D01*
X4143419Y35658D02*
X4143738D01*
X4156920Y35182D02*
Y41158D01*
X4139420Y24658D02*
X4144920Y19158D01*
X4139420Y24658D02*
Y26658D01*
X4146420Y102754D02*
Y114381D01*
Y91127D02*
Y102754D01*
X3992930Y63182D02*
X4001799D01*
X3992930Y58182D02*
X4005335D01*
X4024048Y63432D02*
X4025350D01*
X4016780Y70700D02*
X4024048Y63432D01*
X4016780Y70700D02*
Y71000D01*
X3965430Y105031D02*
Y117200D01*
Y92862D02*
Y105031D01*
X3983180Y30932D02*
X3989617D01*
X763800Y3224D02*
X858237D01*
X863902Y8890D01*
X3788886Y105958D02*
Y115452D01*
Y92279D02*
Y105958D01*
X3604737D02*
Y117505D01*
Y93112D02*
Y105958D01*
X3111952Y19786D02*
X3193631D01*
X3028370Y104300D02*
Y117923D01*
Y90677D02*
Y104300D01*
X2668575Y103804D02*
Y115782D01*
Y96332D02*
Y103804D01*
X2490157D02*
Y116852D01*
Y96233D02*
Y103804D01*
X2489870Y91418D02*
Y95946D01*
X2486253Y87801D02*
X2489870Y91418D01*
Y95946D02*
X2490157Y96233D01*
X4000139Y33823D02*
X4003880D01*
X3995780Y38182D02*
X4000139Y33823D01*
X3992930Y38182D02*
X3995780D01*
X2090361Y103370D02*
Y117825D01*
X2078696Y28956D02*
X2078970Y29230D01*
X2069004Y28956D02*
X2078696D01*
X2035479Y43230D02*
X2037979Y45730D01*
X2035479Y29230D02*
Y43230D01*
X2037979Y45730D02*
X2040479Y48230D01*
X2049480D01*
X1912320Y103370D02*
Y117800D01*
X1890920Y83647D02*
X1893599Y80968D01*
X1890920Y83647D02*
Y87626D01*
X1933184Y80968D02*
X1935920Y78232D01*
X1893774Y50370D02*
X1894560D01*
X1896560Y52370D01*
X1903670D01*
X1708980Y79527D02*
Y85078D01*
X1147897Y57946D02*
X1147950Y57999D01*
X795420Y30500D02*
X795672Y30753D01*
X786420Y87216D02*
X795589D01*
X786420D02*
Y87231D01*
X785927Y87724D02*
X786420Y87231D01*
X779377Y53043D02*
X781420Y51000D01*
Y49500D02*
Y51000D01*
X780682Y14262D02*
X781420Y15000D01*
Y16500D01*
X783920Y33000D02*
X786420Y35500D01*
X795420D01*
X781420Y30500D02*
X783920Y33000D01*
X781420Y16500D02*
Y30500D01*
X705683Y52500D02*
X707920Y54737D01*
X695540Y52500D02*
X705683D01*
X689165Y34750D02*
X703430Y49015D01*
X668420Y34750D02*
X689165D01*
X703430Y49015D02*
X731696D01*
X600994Y31263D02*
X619617Y12640D01*
X604819Y87347D02*
Y87855D01*
X426354Y87093D02*
Y87601D01*
Y79634D02*
Y87093D01*
X244613Y79327D02*
X244920Y79634D01*
Y86409D01*
X231446D02*
X232061Y85793D01*
X244920Y86409D02*
Y87679D01*
X2656404Y62323D02*
X2665620D01*
X4128682Y50396D02*
Y54613D01*
Y50396D02*
X4129420Y49658D01*
X3833565Y63182D02*
X3958430D01*
X3825393Y55010D02*
X3833565Y63182D01*
X4008188Y16566D02*
X4016280Y24658D01*
X4286866Y66182D02*
X4299709Y79025D01*
X4465647Y61782D02*
X4481772Y77908D01*
X4134420Y49658D02*
Y56182D01*
X4004166Y43056D02*
X4006083Y41138D01*
X4010880D01*
X3993056Y43056D02*
X4004166D01*
X3992930Y43182D02*
X3993056Y43056D01*
X675670Y60500D02*
X734306D01*
X1929258Y71031D02*
Y73854D01*
X1925282Y67054D02*
X1929258Y71031D01*
X1925282Y62758D02*
Y67054D01*
X3860042Y53182D02*
X3958430D01*
X2025925Y42675D02*
X2026480Y43230D01*
X1896942Y37370D02*
X1903670D01*
X1891729Y32157D02*
X1896942Y37370D01*
X1891729Y10156D02*
Y32157D01*
X1935990Y27550D02*
X1940521D01*
X1935920Y27620D02*
X1935990Y27550D01*
X1940521D02*
X1946466Y33495D01*
X2941719Y49583D02*
X2941720Y49584D01*
X2931148Y49583D02*
X2941719D01*
X2994548Y50274D02*
X3015403Y29419D01*
X4118682Y50396D02*
X4119051Y50027D01*
X4119051D02*
X4119420Y49658D01*
Y49658D02*
Y49658D01*
X4118682Y50396D02*
Y53095D01*
X4088582Y35658D02*
X4110419D01*
X2034742Y63095D02*
X2035479Y62357D01*
Y62230D02*
Y62357D01*
X4111468Y13146D02*
X4119420Y21098D01*
X3935803Y78367D02*
X3936811D01*
X2811725Y56474D02*
X2814373Y53827D01*
Y51175D02*
Y53827D01*
X1931558Y67933D02*
X1935920Y72295D01*
Y78232D01*
X1910920Y60934D02*
Y62120D01*
X1910282Y60296D02*
X1910920Y60934D01*
X1935920Y30470D02*
X1936558Y31108D01*
X1977968Y37358D02*
X1979980Y39370D01*
X2025339D02*
X2026480Y38230D01*
X3184279Y76414D02*
Y87125D01*
X658460Y28960D02*
Y35760D01*
Y28960D02*
X663420Y24000D01*
X657794Y97081D02*
X668420Y86455D01*
X636056Y97081D02*
X657794D01*
X654426Y84492D02*
X658420Y80498D01*
Y70250D02*
Y80498D01*
X638463Y84492D02*
X654426D01*
X655700Y91901D02*
X663420Y84181D01*
X638666Y91901D02*
X655700D01*
X638625Y70163D02*
X643333D01*
X643420Y70250D01*
X653420D02*
Y76743D01*
X650432Y79730D02*
X653420Y76743D01*
X668420Y70952D02*
Y86455D01*
X863902Y8890D02*
X872160D01*
X635987Y35750D02*
X643420D01*
X632881Y32644D02*
X635987Y35750D01*
X632881Y25109D02*
Y32644D01*
X653295Y25021D02*
Y35625D01*
X643066Y25146D02*
X648420Y30500D01*
X2810209Y56474D02*
X2811725D01*
X3944731Y80777D02*
X4001463D01*
X3761940Y87470D02*
X3762182Y87228D01*
X3579827Y87793D02*
X3579920Y87886D01*
X1926469Y76644D02*
X1929258Y73854D01*
X2040480Y23243D02*
Y29230D01*
X2815274Y41674D02*
X2815410Y41538D01*
X2863262Y62230D02*
X2870049D01*
X2872696Y59583D01*
X2863262Y52549D02*
Y52624D01*
X2863130Y52417D02*
X2863262Y52549D01*
X2863130Y50292D02*
Y52417D01*
X2863262Y52324D02*
Y52549D01*
X2863130Y52417D02*
Y62323D01*
X2801930Y25908D02*
X2804144Y28122D01*
X2801930Y25908D02*
X2815160D01*
X2703960Y25926D02*
X2704022Y25988D01*
X2716722D01*
X2803844Y41674D02*
X2804144D01*
X2863262Y25908D02*
Y38100D01*
X2872696Y59583D02*
X2881648D01*
X2863262Y62230D02*
Y74168D01*
X4109920Y20158D02*
Y23158D01*
X4114419Y26658D02*
Y27658D01*
X624100Y45263D02*
X624337Y45500D01*
X636170D01*
X648420Y30500D02*
Y35750D01*
X4001331Y52917D02*
X4001382Y52968D01*
X3997170Y52917D02*
X4001331D01*
X1925863Y27533D02*
X1925960Y27630D01*
X772420Y96853D02*
Y110200D01*
X785927Y96324D02*
Y110081D01*
X604819Y96455D02*
Y110081D01*
X437569Y87093D02*
X440871Y90395D01*
X426354Y96201D02*
X426420Y96267D01*
Y110081D01*
X244920Y96279D02*
Y112081D01*
X231320Y96279D02*
Y110200D01*
X255420Y88679D02*
Y113905D01*
X253150Y86409D02*
X255420Y88679D01*
X1154586Y87890D02*
X1158886Y92190D01*
X1134132Y96437D02*
Y110200D01*
X1371981Y91894D02*
Y114381D01*
X1348297Y121377D02*
X1348390Y121470D01*
X1336749Y121377D02*
X1348297D01*
X1529420Y96212D02*
Y111216D01*
X1553482Y92921D02*
Y117262D01*
X1551047Y119697D02*
X1553482Y117262D01*
X1541866Y119697D02*
X1551047D01*
X1540347Y121216D02*
X1541866Y119697D01*
X1529420Y121216D02*
X1540347D01*
X1516388Y121377D02*
X1516549Y121216D01*
X1529420D01*
X1709417Y96448D02*
Y111470D01*
X1709324Y121377D02*
X1709417Y121470D01*
X1696678Y121377D02*
X1709324D01*
X1890920Y96437D02*
Y111216D01*
X1903112Y96480D02*
Y111097D01*
X1876386Y121377D02*
X1876547Y121216D01*
X1890920D01*
X2069177Y121377D02*
X2069270Y121470D01*
X2056400Y121377D02*
X2069177D01*
X2247880Y96513D02*
Y110721D01*
X2465928Y96401D02*
Y111470D01*
X2487057Y119951D02*
X2490157Y116852D01*
X2478628Y119951D02*
X2487057D01*
X2477109Y121470D02*
X2478628Y119951D01*
X2465928Y121470D02*
X2477109D01*
X2657592Y111411D02*
X2657651Y111351D01*
X2644951Y96233D02*
Y111470D01*
X2668489Y91339D02*
Y96246D01*
X2668575Y96332D01*
Y115782D02*
X2668632Y115839D01*
Y117101D01*
X2665782Y119951D02*
X2668632Y117101D01*
X2657651Y119951D02*
X2665782D01*
X2656133Y121470D02*
X2657651Y119951D01*
X2644951Y121470D02*
X2656133D01*
X2823895Y111950D02*
X2823988Y111857D01*
Y111470D02*
Y111857D01*
X2835677Y121470D02*
X2837196Y119951D01*
X2823988Y121470D02*
X2835677D01*
X3025090Y87396D02*
X3028370Y90677D01*
X3005164Y96487D02*
Y111470D01*
X3017864Y95997D02*
Y111351D01*
X3026342Y119951D02*
X3028370Y117923D01*
X3017864Y119951D02*
X3026342D01*
X3016345Y121470D02*
X3017864Y119951D01*
X3005164Y121470D02*
X3016345D01*
X3004571Y120877D02*
X3005164Y121470D01*
X3202347Y120205D02*
X3204844Y117708D01*
X3196979Y120205D02*
X3202347D01*
X3195461Y121724D02*
X3196979Y120205D01*
X3184279Y121724D02*
X3195461D01*
X3183232Y120677D02*
X3184279Y121724D01*
X3383978Y119189D02*
X3387805Y115363D01*
X3377549Y119189D02*
X3383978D01*
X3364849Y96233D02*
Y110708D01*
X3377549Y96233D02*
Y110589D01*
X3376030Y120708D02*
X3377549Y119189D01*
X3364849Y120708D02*
X3376030D01*
X3593383Y96348D02*
X3593407Y96324D01*
X3593383Y96348D02*
Y111351D01*
X3579920Y96487D02*
Y111470D01*
X3599349Y87724D02*
X3604737Y93112D01*
X3602291Y119951D02*
X3604737Y117505D01*
X3593383Y119951D02*
X3602291D01*
X3591864Y121470D02*
X3593383Y119951D01*
X3579920Y121470D02*
X3591864D01*
X3784077Y87470D02*
X3788886Y92279D01*
X3784133Y120205D02*
X3788886Y115452D01*
X3774641Y120205D02*
X3784133D01*
X3773122Y121724D02*
X3774641Y120205D01*
X3761940Y121724D02*
X3773122D01*
X3942289Y96332D02*
X3942331Y96289D01*
X3942621Y96579D02*
X3955031D01*
Y111351D01*
Y87979D02*
X3960547D01*
X3965430Y92862D01*
X3962679Y119951D02*
X3965430Y117200D01*
X3955031Y119951D02*
X3962679D01*
X3953512Y121470D02*
X3955031Y119951D01*
X3942331Y121470D02*
X3953512D01*
X3941638Y120777D02*
X3942331Y121470D01*
Y83177D02*
X3944731Y80777D01*
X3942331Y83177D02*
Y86927D01*
X4120834Y96248D02*
X4121071Y96485D01*
X4133620D01*
X4120834Y96248D02*
Y111384D01*
X4120920Y111470D01*
X4133620Y96485D02*
Y111351D01*
Y87885D02*
X4143178D01*
X4146420Y91127D01*
X4140850Y119951D02*
X4146420Y114381D01*
X4133620Y119951D02*
X4140850D01*
X4132101Y121470D02*
X4133620Y119951D01*
X4120920Y121470D02*
X4132101D01*
X4120227Y120777D02*
X4120920Y121470D01*
X4317222Y87724D02*
X4324494Y94996D01*
X4312409Y87724D02*
X4317222D01*
X4320194Y119951D02*
X4324494Y115651D01*
X4312409Y119951D02*
X4320194D01*
X4310890Y121470D02*
X4312409Y119951D01*
X4299709Y121470D02*
X4310890D01*
X4299016Y120777D02*
X4299709Y121470D01*
Y96324D02*
Y111470D01*
X4312409Y96324D02*
Y110081D01*
X4299709Y96324D02*
X4312409D01*
X4494883Y96500D02*
X4495101Y96282D01*
X4494883Y96500D02*
Y110081D01*
X4494797Y109995D02*
X4494883Y110081D01*
X4481625Y96429D02*
X4481772Y96282D01*
X4481625Y96429D02*
Y109995D01*
X4299709Y79025D02*
Y87216D01*
X4120920Y77503D02*
Y86869D01*
X4481772Y77908D02*
Y87682D01*
Y96282D02*
X4495101D01*
X4501670Y88444D02*
X4503922Y90696D01*
X4500745Y118681D02*
X4503922Y115504D01*
X4494883Y118681D02*
X4500745D01*
X4493568Y119995D02*
X4494883Y118681D01*
X4481625Y119995D02*
X4493568D01*
X1134132Y120558D02*
Y120558D01*
X1133802Y120888D02*
X1134132Y120558D01*
X951664Y96477D02*
X951904Y96236D01*
X951664Y111320D02*
X951726Y111258D01*
X976835Y90336D02*
Y114956D01*
X940974Y121377D02*
X941031Y121320D01*
X759615Y120815D02*
X759774Y120656D01*
X795589Y87216D02*
X798420Y90047D01*
Y115656D01*
X592058Y120970D02*
X592119Y121031D01*
X440871Y90395D02*
Y114450D01*
X436006Y119315D02*
X440871Y114450D01*
X413555Y120880D02*
X413605Y120929D01*
X905456Y95632D02*
X936456D01*
X663420Y70250D02*
Y84181D01*
X4099522Y49658D02*
X4114419D01*
X4129420Y21746D02*
Y26658D01*
X4127908Y20234D02*
X4129420Y21746D01*
X4119920Y16506D02*
X4124420Y21006D01*
X4119920Y10158D02*
Y16506D01*
X4124420Y21006D02*
Y26658D01*
X664058Y31263D02*
X666083Y29238D01*
X664058Y31263D02*
Y35112D01*
X663420Y35750D02*
X664058Y35112D01*
X653295Y25021D02*
X653420Y24896D01*
X653295Y35625D02*
X653420Y35750D01*
X653170Y24646D02*
X653420Y24896D01*
X668420Y70952D02*
X668670Y70702D01*
X4427581Y95731D02*
X4458581D01*
X2953402Y96293D02*
X2984402D01*
X1479570Y95731D02*
X1510570D01*
X4247505D02*
X4278505D01*
X2773567D02*
X2804567D01*
X1299531Y95632D02*
X1330531D01*
X4067454Y95731D02*
X4098454D01*
X2593474D02*
X2624474D01*
X1085472Y95632D02*
X1116472D01*
X3887554Y95731D02*
X3918554D01*
X2413550D02*
X2444550D01*
X3707470D02*
X3738470D01*
X2199450D02*
X2230450D01*
X725497D02*
X756497D01*
X3527598Y95632D02*
X3558598D01*
X2019482D02*
X2050482D01*
X545460D02*
X576460D01*
X3313470Y95731D02*
X3344470D01*
X1839568Y95632D02*
X1870568D01*
X365444D02*
X396444D01*
X3133515D02*
X3164515D01*
X1659560Y95831D02*
X1690560D01*
X185490Y95632D02*
X216490D01*
X772022Y30102D02*
X772420Y30500D01*
X4016280Y24658D02*
X4098420D01*
X4119420Y21098D02*
Y26658D01*
X4098420Y24658D02*
X4098920Y25158D01*
X668420Y70250D02*
Y70452D01*
X668670Y70702D01*
X344444Y9500D02*
X357444D01*
X4134420Y19658D02*
Y26658D01*
D61*
X3466500Y142501D02*
D03*
X3400500D02*
D03*
D62*
X939474Y120677D02*
D03*
X4461599Y120777D02*
D03*
X2987421Y121338D02*
D03*
X1513588Y120777D02*
D03*
X4281523D02*
D03*
X2807585D02*
D03*
X1333549Y120677D02*
D03*
X4101472Y120777D02*
D03*
X2627492D02*
D03*
X1119490Y120677D02*
D03*
X3921572Y120777D02*
D03*
X2447568D02*
D03*
X3741488D02*
D03*
X2233469D02*
D03*
X759515D02*
D03*
X3561617Y120677D02*
D03*
X2053500D02*
D03*
X579478D02*
D03*
X3347488Y120777D02*
D03*
X1873586Y120677D02*
D03*
X399463D02*
D03*
X3167533D02*
D03*
X1693578Y120877D02*
D03*
X219508Y120677D02*
D03*
X905456Y95562D02*
D03*
X4427581Y95662D02*
D03*
X2953402Y96223D02*
D03*
X1479570Y95662D02*
D03*
X4247505D02*
D03*
X2773567D02*
D03*
X1299531Y95562D02*
D03*
X4067454Y95662D02*
D03*
X2593474D02*
D03*
X1085472Y95562D02*
D03*
X3887554Y95662D02*
D03*
X2413550D02*
D03*
X3707470D02*
D03*
X2199450D02*
D03*
X725497D02*
D03*
X3527598Y95562D02*
D03*
X2019482D02*
D03*
X545460D02*
D03*
X3313470Y95662D02*
D03*
X1839568Y95562D02*
D03*
X365444D02*
D03*
X3133515D02*
D03*
X1659560Y95762D02*
D03*
X185490Y95562D02*
D03*
D63*
X3970180Y56182D02*
D03*
Y45182D02*
D03*
X3981180D02*
D03*
Y56182D02*
D03*
X661420Y58500D02*
D03*
X650420D02*
D03*
Y47500D02*
D03*
X661420D02*
D03*
X1928920Y50370D02*
D03*
X1917920D02*
D03*
Y39370D02*
D03*
X1928920D02*
D03*
X3906473Y21606D02*
D03*
X2070292Y52324D02*
D03*
X1984196Y52200D02*
D03*
X1977696Y60000D02*
D03*
X4127420Y11658D02*
D03*
X4132920Y18158D02*
D03*
X4198071Y9054D02*
D03*
X4024048Y16566D02*
D03*
X2719722Y9604D02*
D03*
X726415Y18300D02*
D03*
X794958Y14732D02*
D03*
X834766Y24000D02*
D03*
X514403Y39000D02*
D03*
Y20500D02*
D03*
X762192Y53340D02*
D03*
X759774Y44750D02*
D03*
X842856Y8236D02*
D03*
X4088582Y35658D02*
D03*
X653170Y24250D02*
D03*
X4109920Y20158D02*
D03*
X4099522Y49658D02*
D03*
X2892898Y35963D02*
D03*
X2914176Y46964D02*
D03*
Y58083D02*
D03*
Y35963D02*
D03*
X2903898D02*
D03*
X2892898Y47083D02*
D03*
X2903898D02*
D03*
X2892898Y58083D02*
D03*
X2903898D02*
D03*
X4098920Y25158D02*
D03*
X4119920Y10158D02*
D03*
D64*
X2916398Y115839D02*
D03*
X2921148Y87886D02*
D03*
X2840196Y28544D02*
D03*
X2848076Y18908D02*
D03*
X2846524Y37226D02*
D03*
X2873214Y7204D02*
D03*
X2785270Y54345D02*
D03*
X2759371Y33841D02*
D03*
X2770801D02*
D03*
X2848076Y67313D02*
D03*
X2911898Y11345D02*
D03*
X2917320Y7088D02*
D03*
X2848701Y108651D02*
D03*
X1722117Y78232D02*
D03*
X841372Y53043D02*
D03*
X809653Y29856D02*
D03*
X817237Y29238D02*
D03*
X749954Y46873D02*
D03*
X844291Y45104D02*
D03*
X1877077Y32230D02*
D03*
X3364293Y47946D02*
D03*
X3335995Y8890D02*
D03*
X3377412Y76414D02*
D03*
X3456000Y130001D02*
D03*
X3426000Y125001D02*
D03*
X3348252Y54610D02*
D03*
X3348157Y76414D02*
D03*
X3387805Y102848D02*
D03*
X3406250Y64309D02*
D03*
X3400500Y87544D02*
D03*
X3456112Y73362D02*
D03*
Y42406D02*
D03*
X3447262Y94881D02*
D03*
X3435959Y98435D02*
D03*
X3447262Y42406D02*
D03*
X3495920Y54737D02*
D03*
X3435749Y59077D02*
D03*
X3416000Y157662D02*
D03*
X3411000Y162062D02*
D03*
X3390529Y31429D02*
D03*
X3231177Y12897D02*
D03*
X3421000Y133096D02*
D03*
X3426000Y15146D02*
D03*
X3431000Y89412D02*
D03*
X3776399Y47189D02*
D03*
X3739000Y54604D02*
D03*
X3158432Y37867D02*
D03*
X3172624D02*
D03*
X3415866Y69156D02*
D03*
X3431000Y159162D02*
D03*
Y27418D02*
D03*
X3426000Y95662D02*
D03*
X3267736Y8890D02*
D03*
X3446085Y133096D02*
D03*
X3451086Y159162D02*
D03*
X2675081Y50986D02*
D03*
X3364293Y79900D02*
D03*
X1891222Y62230D02*
D03*
X1903112D02*
D03*
X1879386D02*
D03*
X1920920Y69910D02*
D03*
X1873386Y78232D02*
D03*
X2989774Y61683D02*
D03*
X2957445Y62323D02*
D03*
X1541866Y75441D02*
D03*
X2767728Y61683D02*
D03*
X2654545Y68571D02*
D03*
X2785270Y64309D02*
D03*
X2118053Y62758D02*
D03*
X2666017Y61925D02*
D03*
X2685526D02*
D03*
X2018747Y58333D02*
D03*
X2615790Y61236D02*
D03*
X2290411Y62230D02*
D03*
X2183819Y57404D02*
D03*
X3761593Y57500D02*
D03*
X1964322Y63166D02*
D03*
X2385765Y50116D02*
D03*
X3099213Y40975D02*
D03*
X3101499Y54737D02*
D03*
X3579827Y54610D02*
D03*
X2914084Y82262D02*
D03*
X3992920Y27629D02*
D03*
X4004545Y33158D02*
D03*
X3948889Y31429D02*
D03*
X3847621Y40761D02*
D03*
X3975680Y30932D02*
D03*
X2136829Y53770D02*
D03*
X389942Y9500D02*
D03*
X205865D02*
D03*
X4452286Y10717D02*
D03*
X4269870Y9500D02*
D03*
X4101223Y13146D02*
D03*
X3913607Y10158D02*
D03*
X3837454Y8890D02*
D03*
X3660900Y8890D02*
D03*
X3728340D02*
D03*
X3482766D02*
D03*
X3547044Y9462D02*
D03*
X3469485Y8890D02*
D03*
X3154817D02*
D03*
X2882194Y19200D02*
D03*
X2938493Y34544D02*
D03*
X2975179Y9345D02*
D03*
X2774755Y18083D02*
D03*
X2434779Y9342D02*
D03*
X2364211Y11890D02*
D03*
X2466895Y24600D02*
D03*
X2035479Y24048D02*
D03*
X2147610Y4100D02*
D03*
X2283595Y102600D02*
D03*
X2252880Y11995D02*
D03*
X2041980Y5000D02*
D03*
X1954633Y8890D02*
D03*
X1976117Y21234D02*
D03*
X2093631Y8776D02*
D03*
X816471Y13958D02*
D03*
X774013Y14175D02*
D03*
X806810Y14175D02*
D03*
X2053111Y28358D02*
D03*
X1858355Y8176D02*
D03*
X1667480Y23370D02*
D03*
X1614791Y7100D02*
D03*
X1504835D02*
D03*
X1316205Y24102D02*
D03*
X1105828Y5125D02*
D03*
X924820Y6195D02*
D03*
X743336Y41685D02*
D03*
X749954Y20261D02*
D03*
X566500Y10540D02*
D03*
X320142Y23596D02*
D03*
Y9500D02*
D03*
X1898893Y16243D02*
D03*
X3762182Y79949D02*
D03*
X3580082D02*
D03*
X2887798Y117923D02*
D03*
X2899284Y82262D02*
D03*
X2465637Y76868D02*
D03*
X1348285Y64520D02*
D03*
X786420Y78125D02*
D03*
X604704Y74500D02*
D03*
X3102274Y74168D02*
D03*
X2721722Y50986D02*
D03*
X2691957Y48286D02*
D03*
X2830006Y54864D02*
D03*
X2826988Y13716D02*
D03*
X2796366Y9604D02*
D03*
X4170934Y49758D02*
D03*
X4088582Y49582D02*
D03*
X2171614Y54102D02*
D03*
X3948889Y48182D02*
D03*
X3928272D02*
D03*
X2846524Y51211D02*
D03*
X2081970Y53770D02*
D03*
X2107154Y42239D02*
D03*
X1951501Y28733D02*
D03*
X2162920Y38770D02*
D03*
X1976291Y47620D02*
D03*
X2061402Y47498D02*
D03*
X2090361Y36620D02*
D03*
X1957516Y39370D02*
D03*
X1966294Y42120D02*
D03*
X1931558Y16243D02*
D03*
X1920920D02*
D03*
X1908737D02*
D03*
X1950889Y42239D02*
D03*
X2015045Y33230D02*
D03*
X759774Y7250D02*
D03*
X786420Y58500D02*
D03*
X2815410Y35963D02*
D03*
X3002900Y66659D02*
D03*
X3021982Y66093D02*
D03*
X4503922Y103100D02*
D03*
X4324426Y35658D02*
D03*
X4324494Y104888D02*
D03*
X4156920Y35182D02*
D03*
X4146420Y102754D02*
D03*
X4083160Y18158D02*
D03*
X4001799Y63182D02*
D03*
X4014080Y61782D02*
D03*
X4025350Y63432D02*
D03*
X3965430Y105031D02*
D03*
X3788886Y105958D02*
D03*
X3604737D02*
D03*
X3196979Y76414D02*
D03*
X3028370Y104300D02*
D03*
X2616113Y10716D02*
D03*
X2668575Y103804D02*
D03*
X2490157D02*
D03*
X2335465Y99600D02*
D03*
Y144624D02*
D03*
X2287042D02*
D03*
X1181560Y105175D02*
D03*
X1221031D02*
D03*
Y141952D02*
D03*
X1181560D02*
D03*
X1966283Y21234D02*
D03*
X2090361Y103370D02*
D03*
X2078970Y29230D02*
D03*
X1912320Y103370D02*
D03*
X1893774Y50370D02*
D03*
X1360074Y62182D02*
D03*
X1147897Y57946D02*
D03*
X964269Y76775D02*
D03*
X707920Y54737D02*
D03*
X687056Y42000D02*
D03*
X604704Y48049D02*
D03*
X426462Y36830D02*
D03*
X426354Y79634D02*
D03*
X244613Y46670D02*
D03*
Y79327D02*
D03*
X3837454Y50985D02*
D03*
X3825393Y55010D02*
D03*
X4127869Y56366D02*
D03*
X4134420Y56182D02*
D03*
X4010880Y41138D02*
D03*
X3761593Y41782D02*
D03*
X1891729Y10156D02*
D03*
X2217319Y54102D02*
D03*
X2174800Y39370D02*
D03*
X2522015Y33331D02*
D03*
X3005164Y79385D02*
D03*
X2941720Y49584D02*
D03*
X2666017Y31908D02*
D03*
X2655069Y20977D02*
D03*
X3184279Y76414D02*
D03*
X3936938Y79502D02*
D03*
X663420Y24000D02*
D03*
X638625Y70163D02*
D03*
X650432Y79730D02*
D03*
X653480Y7112D02*
D03*
X632881Y25109D02*
D03*
X856340Y10160D02*
D03*
X643066Y24000D02*
D03*
X2810209Y56474D02*
D03*
X4001463Y80762D02*
D03*
X834766Y46173D02*
D03*
X624100Y45263D02*
D03*
X1529685Y57071D02*
D03*
M02*
