G04*
G04 #@! TF.GenerationSoftware,Altium Limited,Altium Designer,19.1.8 (144)*
G04*
G04 Layer_Color=8421504*
%FSLAX44Y44*%
%MOMM*%
G71*
G01*
G75*
%ADD18R,0.9000X0.9000*%
G04:AMPARAMS|DCode=19|XSize=0.6mm|YSize=0.6mm|CornerRadius=0.06mm|HoleSize=0mm|Usage=FLASHONLY|Rotation=180.000|XOffset=0mm|YOffset=0mm|HoleType=Round|Shape=RoundedRectangle|*
%AMROUNDEDRECTD19*
21,1,0.6000,0.4800,0,0,180.0*
21,1,0.4800,0.6000,0,0,180.0*
1,1,0.1200,-0.2400,0.2400*
1,1,0.1200,0.2400,0.2400*
1,1,0.1200,0.2400,-0.2400*
1,1,0.1200,-0.2400,-0.2400*
%
%ADD19ROUNDEDRECTD19*%
G04:AMPARAMS|DCode=20|XSize=0.6mm|YSize=0.6mm|CornerRadius=0.06mm|HoleSize=0mm|Usage=FLASHONLY|Rotation=90.000|XOffset=0mm|YOffset=0mm|HoleType=Round|Shape=RoundedRectangle|*
%AMROUNDEDRECTD20*
21,1,0.6000,0.4800,0,0,90.0*
21,1,0.4800,0.6000,0,0,90.0*
1,1,0.1200,0.2400,0.2400*
1,1,0.1200,0.2400,-0.2400*
1,1,0.1200,-0.2400,-0.2400*
1,1,0.1200,-0.2400,0.2400*
%
%ADD20ROUNDEDRECTD20*%
G04:AMPARAMS|DCode=21|XSize=0.5mm|YSize=0.6mm|CornerRadius=0.05mm|HoleSize=0mm|Usage=FLASHONLY|Rotation=180.000|XOffset=0mm|YOffset=0mm|HoleType=Round|Shape=RoundedRectangle|*
%AMROUNDEDRECTD21*
21,1,0.5000,0.5000,0,0,180.0*
21,1,0.4000,0.6000,0,0,180.0*
1,1,0.1000,-0.2000,0.2500*
1,1,0.1000,0.2000,0.2500*
1,1,0.1000,0.2000,-0.2500*
1,1,0.1000,-0.2000,-0.2500*
%
%ADD21ROUNDEDRECTD21*%
G04:AMPARAMS|DCode=22|XSize=0.5mm|YSize=0.6mm|CornerRadius=0.05mm|HoleSize=0mm|Usage=FLASHONLY|Rotation=90.000|XOffset=0mm|YOffset=0mm|HoleType=Round|Shape=RoundedRectangle|*
%AMROUNDEDRECTD22*
21,1,0.5000,0.5000,0,0,90.0*
21,1,0.4000,0.6000,0,0,90.0*
1,1,0.1000,0.2500,0.2000*
1,1,0.1000,0.2500,-0.2000*
1,1,0.1000,-0.2500,-0.2000*
1,1,0.1000,-0.2500,0.2000*
%
%ADD22ROUNDEDRECTD22*%
%ADD23R,1.2000X1.0000*%
%ADD24R,0.8000X1.8000*%
%ADD25R,0.3000X1.6000*%
%ADD26R,0.6000X0.5400*%
%ADD27R,3.4500X3.4500*%
%ADD28R,0.2800X0.8500*%
%ADD29R,0.8500X0.2800*%
%ADD30R,2.0500X2.5500*%
%ADD31R,2.5500X2.0500*%
%ADD32R,2.0000X1.0000*%
%ADD33R,0.3000X0.6000*%
%ADD34R,0.6000X0.3000*%
%ADD35R,1.0000X2.0000*%
G04:AMPARAMS|DCode=36|XSize=1mm|YSize=0.9mm|CornerRadius=0.1125mm|HoleSize=0mm|Usage=FLASHONLY|Rotation=270.000|XOffset=0mm|YOffset=0mm|HoleType=Round|Shape=RoundedRectangle|*
%AMROUNDEDRECTD36*
21,1,1.0000,0.6750,0,0,270.0*
21,1,0.7750,0.9000,0,0,270.0*
1,1,0.2250,-0.3375,-0.3875*
1,1,0.2250,-0.3375,0.3875*
1,1,0.2250,0.3375,0.3875*
1,1,0.2250,0.3375,-0.3875*
%
%ADD36ROUNDEDRECTD36*%
%ADD37R,0.5400X0.6000*%
D18*
X177490Y9500D02*
D03*
X193490D02*
D03*
X2027482D02*
D03*
X2011481D02*
D03*
X4435500D02*
D03*
X4419500D02*
D03*
X2961403D02*
D03*
X2945403D02*
D03*
X1487695D02*
D03*
X1471694D02*
D03*
X4255505D02*
D03*
X4239505D02*
D03*
X2781498D02*
D03*
X2765498D02*
D03*
X1307283D02*
D03*
X1291283D02*
D03*
X4075454D02*
D03*
X4059454D02*
D03*
X2600973D02*
D03*
X2584973D02*
D03*
X1093459D02*
D03*
X1077459D02*
D03*
X3895500D02*
D03*
X3879500D02*
D03*
X2421550D02*
D03*
X2405550D02*
D03*
X913400D02*
D03*
X897400D02*
D03*
X3715500D02*
D03*
X3699500D02*
D03*
X2207500D02*
D03*
X2191500D02*
D03*
X733494D02*
D03*
X717494D02*
D03*
X3535498D02*
D03*
X3519498D02*
D03*
X553403D02*
D03*
X537403D02*
D03*
X3321500D02*
D03*
X3305500D02*
D03*
X1847113D02*
D03*
X1831113D02*
D03*
X373344D02*
D03*
X357344D02*
D03*
X3141525D02*
D03*
X3125525D02*
D03*
X1667480D02*
D03*
X1651480D02*
D03*
D19*
X2703768Y35988D02*
D03*
Y25988D02*
D03*
X2716722D02*
D03*
Y35988D02*
D03*
X2729736D02*
D03*
Y25988D02*
D03*
X2743427D02*
D03*
Y35988D02*
D03*
X951664Y120200D02*
D03*
Y110200D02*
D03*
X4481625Y109995D02*
D03*
Y119995D02*
D03*
X3005164Y111470D02*
D03*
Y121470D02*
D03*
X1529420Y111216D02*
D03*
Y121216D02*
D03*
X4299709Y111470D02*
D03*
Y121470D02*
D03*
X2823988Y111470D02*
D03*
Y121470D02*
D03*
X1348390Y111470D02*
D03*
Y121470D02*
D03*
X4120920Y111470D02*
D03*
Y121470D02*
D03*
X2644951Y111470D02*
D03*
Y121470D02*
D03*
X1134132Y110200D02*
D03*
Y120200D02*
D03*
X3942331Y111470D02*
D03*
Y121470D02*
D03*
X2465928Y111470D02*
D03*
Y121470D02*
D03*
X3761940Y111724D02*
D03*
Y121724D02*
D03*
X2247880Y110721D02*
D03*
Y120721D02*
D03*
X772420Y110200D02*
D03*
Y120200D02*
D03*
X3579920Y111470D02*
D03*
Y121470D02*
D03*
X2069270Y111470D02*
D03*
Y121470D02*
D03*
X592119Y110200D02*
D03*
Y120200D02*
D03*
X3364849Y110708D02*
D03*
Y120708D02*
D03*
X1890920Y111216D02*
D03*
Y121216D02*
D03*
X413654Y110200D02*
D03*
Y120200D02*
D03*
X3184279Y111724D02*
D03*
Y121724D02*
D03*
X1709417Y111470D02*
D03*
Y121470D02*
D03*
X231320Y110200D02*
D03*
Y120200D02*
D03*
D20*
X2976992Y62230D02*
D03*
X2966992D02*
D03*
X4223903Y9500D02*
D03*
X4213904D02*
D03*
X2745897Y9604D02*
D03*
X2735897D02*
D03*
X1278077Y9500D02*
D03*
X1268077D02*
D03*
X4044700Y10000D02*
D03*
X4034700D02*
D03*
X2571290Y9342D02*
D03*
X2561290D02*
D03*
X1064632Y9500D02*
D03*
X1054632D02*
D03*
X3865042Y8890D02*
D03*
X3855042D02*
D03*
X2390765Y9342D02*
D03*
X2380765D02*
D03*
X882551Y9500D02*
D03*
X872551D02*
D03*
X3683951Y8890D02*
D03*
X3673951D02*
D03*
X2174465Y9343D02*
D03*
X2164465D02*
D03*
X705604Y9196D02*
D03*
X695604D02*
D03*
X3504170Y8890D02*
D03*
X3494170D02*
D03*
X1993038Y9500D02*
D03*
X1983038D02*
D03*
X524403Y10292D02*
D03*
X514403D02*
D03*
X3289369Y9147D02*
D03*
X3279369D02*
D03*
X1817116Y9500D02*
D03*
X1807116D02*
D03*
X344444D02*
D03*
X334444D02*
D03*
X4400384D02*
D03*
X4390384D02*
D03*
X2933348Y8916D02*
D03*
X2923348D02*
D03*
X1458384Y9500D02*
D03*
X1448384D02*
D03*
X3111613Y9447D02*
D03*
X3101613D02*
D03*
X1637976Y9500D02*
D03*
X1627976D02*
D03*
X178720Y25142D02*
D03*
X188720D02*
D03*
D21*
X2759371Y41153D02*
D03*
Y51153D02*
D03*
X2770801D02*
D03*
Y41153D02*
D03*
X2872761Y118528D02*
D03*
Y108528D02*
D03*
X2917568Y96348D02*
D03*
Y106348D02*
D03*
X2815274Y40974D02*
D03*
Y50974D02*
D03*
X2803844D02*
D03*
Y40974D02*
D03*
X2872912Y95392D02*
D03*
Y85392D02*
D03*
X2679859Y36202D02*
D03*
Y26202D02*
D03*
X2858708Y95537D02*
D03*
Y85537D02*
D03*
X2691449Y26202D02*
D03*
Y36202D02*
D03*
D22*
X2853255Y13720D02*
D03*
X2863255D02*
D03*
X2782430Y44444D02*
D03*
X2792430D02*
D03*
X2853255Y38100D02*
D03*
X2863255D02*
D03*
X2841581Y73752D02*
D03*
X2831581D02*
D03*
X2853962Y62230D02*
D03*
X2863962D02*
D03*
X2875971Y9394D02*
D03*
X2885971D02*
D03*
X2853255Y26202D02*
D03*
X2863255D02*
D03*
X2841581Y62323D02*
D03*
X2831581D02*
D03*
X2853962Y73752D02*
D03*
X2863962D02*
D03*
X2908898Y9345D02*
D03*
X2898898D02*
D03*
X2743397Y58083D02*
D03*
X2733397D02*
D03*
D23*
X2886874Y105705D02*
D03*
X2903874D02*
D03*
X2886874Y92704D02*
D03*
X2903874D02*
D03*
D24*
X3473500Y127501D02*
D03*
X3393500D02*
D03*
D25*
X3456000Y145501D02*
D03*
Y109501D02*
D03*
X3451000Y145501D02*
D03*
Y109501D02*
D03*
X3446000Y145501D02*
D03*
Y109501D02*
D03*
X3441000Y145501D02*
D03*
Y109501D02*
D03*
X3436000Y145501D02*
D03*
Y109501D02*
D03*
X3431000Y145501D02*
D03*
Y109501D02*
D03*
X3426000Y145501D02*
D03*
Y109501D02*
D03*
X3421000Y145501D02*
D03*
Y109501D02*
D03*
X3416000Y145501D02*
D03*
Y109501D02*
D03*
X3411000Y145501D02*
D03*
Y109501D02*
D03*
D26*
X951664Y95277D02*
D03*
Y86677D02*
D03*
X964364Y95036D02*
D03*
Y86436D02*
D03*
Y111781D02*
D03*
Y120381D02*
D03*
X4494883Y118681D02*
D03*
Y110081D02*
D03*
X3017864Y119951D02*
D03*
Y111351D02*
D03*
X1541866Y119697D02*
D03*
Y111097D02*
D03*
X4495101Y87682D02*
D03*
Y96282D02*
D03*
X3017864Y86697D02*
D03*
Y95296D02*
D03*
X1541866Y87194D02*
D03*
Y95794D02*
D03*
X4481772Y87682D02*
D03*
Y96282D02*
D03*
X3005164Y87186D02*
D03*
Y95787D02*
D03*
X1529420Y87212D02*
D03*
Y95812D02*
D03*
X4312409Y87724D02*
D03*
Y96324D02*
D03*
X2837196Y119951D02*
D03*
Y111351D02*
D03*
X1360074Y86237D02*
D03*
Y94837D02*
D03*
X4312409Y119951D02*
D03*
Y111351D02*
D03*
X2837196Y86333D02*
D03*
Y94932D02*
D03*
X1360074Y120181D02*
D03*
Y111581D02*
D03*
X4299709Y87724D02*
D03*
Y96324D02*
D03*
X2823988Y86333D02*
D03*
Y94932D02*
D03*
X1348390Y86237D02*
D03*
Y94837D02*
D03*
X4133620Y87885D02*
D03*
Y96485D02*
D03*
X2657651Y86932D02*
D03*
Y95533D02*
D03*
X1147950Y120481D02*
D03*
Y111881D02*
D03*
X4133620Y119951D02*
D03*
Y111351D02*
D03*
X2657651Y119951D02*
D03*
Y111351D02*
D03*
X1147950Y87190D02*
D03*
Y95790D02*
D03*
X4120834Y87648D02*
D03*
Y96248D02*
D03*
X2644951Y86932D02*
D03*
Y95533D02*
D03*
X1134132Y87137D02*
D03*
Y95737D02*
D03*
X3955031Y87979D02*
D03*
Y96579D02*
D03*
X2478628Y86901D02*
D03*
Y95501D02*
D03*
X3955031Y119951D02*
D03*
Y111351D02*
D03*
X2478628Y119951D02*
D03*
Y111351D02*
D03*
X3942331Y87689D02*
D03*
Y96289D02*
D03*
X2465928Y87101D02*
D03*
Y95701D02*
D03*
X3774641Y120205D02*
D03*
Y111605D02*
D03*
X2261988Y86624D02*
D03*
Y95224D02*
D03*
X785927Y118681D02*
D03*
Y110081D02*
D03*
X3774641Y86770D02*
D03*
Y95370D02*
D03*
X2261986Y119365D02*
D03*
Y110765D02*
D03*
X785927Y86655D02*
D03*
Y95255D02*
D03*
X3377549Y86733D02*
D03*
Y95332D02*
D03*
X1902858Y86926D02*
D03*
Y95526D02*
D03*
X426354Y87601D02*
D03*
Y96201D02*
D03*
X3761940Y86770D02*
D03*
Y95370D02*
D03*
X2247913Y86780D02*
D03*
Y95380D02*
D03*
X772022Y86655D02*
D03*
Y95255D02*
D03*
X3377549Y119189D02*
D03*
Y110589D02*
D03*
X1903112Y120797D02*
D03*
Y112197D02*
D03*
X426420Y118681D02*
D03*
Y110081D02*
D03*
X3364849Y86733D02*
D03*
Y95332D02*
D03*
X1890920Y86926D02*
D03*
Y95526D02*
D03*
X413654Y86801D02*
D03*
Y95401D02*
D03*
X3593407Y86724D02*
D03*
Y95324D02*
D03*
X2081970Y119951D02*
D03*
Y111351D02*
D03*
X604819Y86955D02*
D03*
Y95555D02*
D03*
X3593383Y119951D02*
D03*
Y111351D02*
D03*
X2081970Y86426D02*
D03*
Y95026D02*
D03*
X604819Y121081D02*
D03*
Y112481D02*
D03*
X3196979Y120205D02*
D03*
Y111605D02*
D03*
X1722117Y87048D02*
D03*
Y95648D02*
D03*
X244920Y120681D02*
D03*
Y112081D02*
D03*
X3196979Y87186D02*
D03*
Y95787D02*
D03*
X1722117Y119951D02*
D03*
Y111351D02*
D03*
X244920Y87679D02*
D03*
Y96279D02*
D03*
X3579920Y86887D02*
D03*
Y95486D02*
D03*
X2069270Y86426D02*
D03*
Y95026D02*
D03*
X592119Y87055D02*
D03*
Y95655D02*
D03*
X3184279Y87186D02*
D03*
Y95787D02*
D03*
X1709417Y87048D02*
D03*
Y95648D02*
D03*
X231320Y86579D02*
D03*
Y95179D02*
D03*
X4156920Y41158D02*
D03*
Y49758D02*
D03*
D27*
X2903898Y47083D02*
D03*
D28*
X2886398Y71833D02*
D03*
X2891398D02*
D03*
X2896398D02*
D03*
X2901398D02*
D03*
X2906398D02*
D03*
X2911398D02*
D03*
X2916398D02*
D03*
X2921398D02*
D03*
Y22333D02*
D03*
X2916398D02*
D03*
X2911398D02*
D03*
X2906398D02*
D03*
X2901398D02*
D03*
X2896398D02*
D03*
X2891398D02*
D03*
X2886398D02*
D03*
X3983180Y30932D02*
D03*
X3968180D02*
D03*
Y70432D02*
D03*
X3983180D02*
D03*
X648420Y70250D02*
D03*
X668420Y35750D02*
D03*
X663420D02*
D03*
X658460Y35760D02*
D03*
X653420Y35750D02*
D03*
X648420D02*
D03*
X643420D02*
D03*
Y70250D02*
D03*
X653420D02*
D03*
X658420D02*
D03*
X663420D02*
D03*
X668420D02*
D03*
X1915920Y62120D02*
D03*
X1935920Y27620D02*
D03*
X1930920D02*
D03*
X1925960Y27630D02*
D03*
X1920920Y27620D02*
D03*
X1915920D02*
D03*
X1910920D02*
D03*
Y62120D02*
D03*
X1920920D02*
D03*
X1925920D02*
D03*
X1930920D02*
D03*
X1935920D02*
D03*
D29*
X2928648Y64583D02*
D03*
Y59583D02*
D03*
Y54583D02*
D03*
Y49583D02*
D03*
Y44583D02*
D03*
Y39583D02*
D03*
Y34583D02*
D03*
Y29583D02*
D03*
X2879148D02*
D03*
Y34583D02*
D03*
Y39583D02*
D03*
Y44583D02*
D03*
Y49583D02*
D03*
Y54583D02*
D03*
Y59583D02*
D03*
Y64583D02*
D03*
X3958430Y43182D02*
D03*
X3992930Y63182D02*
D03*
Y58182D02*
D03*
X3992920Y53222D02*
D03*
X3992930Y48182D02*
D03*
Y43182D02*
D03*
Y38182D02*
D03*
X3958430D02*
D03*
Y48182D02*
D03*
Y53182D02*
D03*
Y58182D02*
D03*
Y63182D02*
D03*
X636170Y45500D02*
D03*
Y60500D02*
D03*
X675670D02*
D03*
Y45500D02*
D03*
X1903670Y37370D02*
D03*
Y52370D02*
D03*
X1943170D02*
D03*
Y37370D02*
D03*
D30*
X3975680Y50682D02*
D03*
D31*
X655920Y53000D02*
D03*
X1923420Y44870D02*
D03*
D32*
X4126920Y38158D02*
D03*
D33*
X4114419Y49658D02*
D03*
X4119420D02*
D03*
X4124420D02*
D03*
X4129420D02*
D03*
X4134420D02*
D03*
X4139420D02*
D03*
Y26658D02*
D03*
X4134420D02*
D03*
X4129420D02*
D03*
X4124420D02*
D03*
X4119420D02*
D03*
X4114419D02*
D03*
X2040480Y62230D02*
D03*
X2035479D02*
D03*
Y29230D02*
D03*
X2040480D02*
D03*
X786420Y16500D02*
D03*
X781420D02*
D03*
Y49500D02*
D03*
X786420D02*
D03*
D34*
X4143419Y40658D02*
D03*
Y35658D02*
D03*
X4110419D02*
D03*
Y40658D02*
D03*
X2026480Y58230D02*
D03*
Y53230D02*
D03*
Y48230D02*
D03*
Y43230D02*
D03*
Y38230D02*
D03*
Y33230D02*
D03*
X2049480D02*
D03*
Y38230D02*
D03*
Y43230D02*
D03*
Y48230D02*
D03*
Y53230D02*
D03*
Y58230D02*
D03*
X795420Y45500D02*
D03*
Y40500D02*
D03*
Y35500D02*
D03*
Y30500D02*
D03*
Y25500D02*
D03*
Y20500D02*
D03*
X772420D02*
D03*
Y25500D02*
D03*
Y30500D02*
D03*
Y35500D02*
D03*
Y40500D02*
D03*
Y45500D02*
D03*
D35*
X2037979Y45730D02*
D03*
X783920Y33000D02*
D03*
D36*
X2784930Y25908D02*
D03*
X2801930D02*
D03*
X2815410D02*
D03*
X2832410D02*
D03*
D37*
X2863008Y50292D02*
D03*
X2854408D02*
D03*
X2069004Y28956D02*
D03*
X2060404D02*
D03*
X770520Y60500D02*
D03*
X779120D02*
D03*
X4016780Y71000D02*
D03*
X4008180D02*
D03*
X1965932Y49730D02*
D03*
X1957333D02*
D03*
X695540Y52500D02*
D03*
X686940D02*
D03*
M02*
